  0
SECTION
  2
HEADER
  9
$ACADVER
  1
AC1024
  9
$ACADMAINTVER
 70
6
  9
$DWGCODEPAGE
  3
ANSI_1252
  9
$LASTSAVEDBY
  1
ezdxf
  9
$INSBASE
 10
0.0
 20
0.0
 30
0.0
  9
$EXTMIN
 10
1e+20
 20
1e+20
 30
1e+20
  9
$EXTMAX
 10
-1e+20
 20
-1e+20
 30
-1e+20
  9
$LIMMIN
 10
0.0
 20
0.0
  9
$LIMMAX
 10
420.0
 20
297.0
  9
$ORTHOMODE
 70
0
  9
$REGENMODE
 70
1
  9
$FILLMODE
 70
1
  9
$QTEXTMODE
 70
0
  9
$MIRRTEXT
 70
1
  9
$LTSCALE
 40
1.0
  9
$ATTMODE
 70
1
  9
$TEXTSIZE
 40
2.5
  9
$TRACEWID
 40
1.0
  9
$TEXTSTYLE
  7
Standard
  9
$CLAYER
  8
0
  9
$CELTYPE
  6
ByLayer
  9
$CECOLOR
 62
256
  9
$CELTSCALE
 40
1.0
  9
$DISPSILH
 70
0
  9
$DIMSCALE
 40
1.0
  9
$DIMASZ
 40
2.5
  9
$DIMEXO
 40
0.625
  9
$DIMDLI
 40
3.75
  9
$DIMRND
 40
0.0
  9
$DIMDLE
 40
0.0
  9
$DIMEXE
 40
1.25
  9
$DIMTP
 40
0.0
  9
$DIMTM
 40
0.0
  9
$DIMTXT
 40
2.5
  9
$DIMCEN
 40
2.5
  9
$DIMTSZ
 40
0.0
  9
$DIMTOL
 70
0
  9
$DIMLIM
 70
0
  9
$DIMTIH
 70
0
  9
$DIMTOH
 70
0
  9
$DIMSE1
 70
0
  9
$DIMSE2
 70
0
  9
$DIMTAD
 70
1
  9
$DIMZIN
 70
8
  9
$DIMBLK
  1

  9
$DIMASO
 70
1
  9
$DIMSHO
 70
1
  9
$DIMPOST
  1

  9
$DIMAPOST
  1

  9
$DIMALT
 70
0
  9
$DIMALTD
 70
3
  9
$DIMALTF
 40
0.03937007874
  9
$DIMLFAC
 40
1.0
  9
$DIMTOFL
 70
1
  9
$DIMTVP
 40
0.0
  9
$DIMTIX
 70
0
  9
$DIMSOXD
 70
0
  9
$DIMSAH
 70
0
  9
$DIMBLK1
  1

  9
$DIMBLK2
  1

  9
$DIMSTYLE
  2
ISO-25
  9
$DIMCLRD
 70
0
  9
$DIMCLRE
 70
0
  9
$DIMCLRT
 70
0
  9
$DIMTFAC
 40
1.0
  9
$DIMGAP
 40
0.625
  9
$DIMJUST
 70
0
  9
$DIMSD1
 70
0
  9
$DIMSD2
 70
0
  9
$DIMTOLJ
 70
0
  9
$DIMTZIN
 70
8
  9
$DIMALTZ
 70
0
  9
$DIMALTTZ
 70
0
  9
$DIMUPT
 70
0
  9
$DIMDEC
 70
2
  9
$DIMTDEC
 70
2
  9
$DIMALTU
 70
2
  9
$DIMALTTD
 70
3
  9
$DIMTXSTY
  7
Standard
  9
$DIMAUNIT
 70
0
  9
$DIMADEC
 70
0
  9
$DIMALTRND
 40
0.0
  9
$DIMAZIN
 70
0
  9
$DIMDSEP
 70
44
  9
$DIMATFIT
 70
3
  9
$DIMFRAC
 70
0
  9
$DIMLDRBLK
  1

  9
$DIMLUNIT
 70
2
  9
$DIMLWD
 70
-2
  9
$DIMLWE
 70
-2
  9
$DIMTMOVE
 70
0
  9
$DIMFXL
 40
1.0
  9
$DIMFXLON
 70
0
  9
$DIMJOGANG
 40
0.785398163397
  9
$DIMTFILL
 70
0
  9
$DIMTFILLCLR
 70
0
  9
$DIMARCSYM
 70
0
  9
$DIMLTYPE
  6

  9
$DIMLTEX1
  6

  9
$DIMLTEX2
  6

  9
$DIMTXTDIRECTION
 70
0
  9
$LUNITS
 70
2
  9
$LUPREC
 70
4
  9
$SKETCHINC
 40
1.0
  9
$FILLETRAD
 40
10.0
  9
$AUNITS
 70
0
  9
$AUPREC
 70
2
  9
$MENU
  1
.
  9
$ELEVATION
 40
0.0
  9
$PELEVATION
 40
0.0
  9
$THICKNESS
 40
0.0
  9
$LIMCHECK
 70
0
  9
$CHAMFERA
 40
0.0
  9
$CHAMFERB
 40
0.0
  9
$CHAMFERC
 40
0.0
  9
$CHAMFERD
 40
0.0
  9
$SKPOLY
 70
0
  9
$TDCREATE
 40
2461265.9615856484
  9
$TDUCREATE
 40
2458532.153996898
  9
$TDUPDATE
 40
2461265.9615856484
  9
$TDUUPDATE
 40
2458532.1544311
  9
$TDINDWG
 40
0.0
  9
$TDUSRTIMER
 40
0.0
  9
$USRTIMER
 70
1
  9
$ANGBASE
 50
0.0
  9
$ANGDIR
 70
0
  9
$PDMODE
 70
0
  9
$PDSIZE
 40
0.0
  9
$PLINEWID
 40
0.0
  9
$SPLFRAME
 70
0
  9
$SPLINETYPE
 70
6
  9
$SPLINESEGS
 70
8
  9
$HANDSEED
  5
3B
  9
$SURFTAB1
 70
6
  9
$SURFTAB2
 70
6
  9
$SURFTYPE
 70
6
  9
$SURFU
 70
6
  9
$SURFV
 70
6
  9
$UCSBASE
  2

  9
$UCSNAME
  2

  9
$UCSORG
 10
0.0
 20
0.0
 30
0.0
  9
$UCSXDIR
 10
1.0
 20
0.0
 30
0.0
  9
$UCSYDIR
 10
0.0
 20
1.0
 30
0.0
  9
$UCSORTHOREF
  2

  9
$UCSORTHOVIEW
 70
0
  9
$UCSORGTOP
 10
0.0
 20
0.0
 30
0.0
  9
$UCSORGBOTTOM
 10
0.0
 20
0.0
 30
0.0
  9
$UCSORGLEFT
 10
0.0
 20
0.0
 30
0.0
  9
$UCSORGRIGHT
 10
0.0
 20
0.0
 30
0.0
  9
$UCSORGFRONT
 10
0.0
 20
0.0
 30
0.0
  9
$UCSORGBACK
 10
0.0
 20
0.0
 30
0.0
  9
$PUCSBASE
  2

  9
$PUCSNAME
  2

  9
$PUCSORG
 10
0.0
 20
0.0
 30
0.0
  9
$PUCSXDIR
 10
1.0
 20
0.0
 30
0.0
  9
$PUCSYDIR
 10
0.0
 20
1.0
 30
0.0
  9
$PUCSORTHOREF
  2

  9
$PUCSORTHOVIEW
 70
0
  9
$PUCSORGTOP
 10
0.0
 20
0.0
 30
0.0
  9
$PUCSORGBOTTOM
 10
0.0
 20
0.0
 30
0.0
  9
$PUCSORGLEFT
 10
0.0
 20
0.0
 30
0.0
  9
$PUCSORGRIGHT
 10
0.0
 20
0.0
 30
0.0
  9
$PUCSORGFRONT
 10
0.0
 20
0.0
 30
0.0
  9
$PUCSORGBACK
 10
0.0
 20
0.0
 30
0.0
  9
$USERI1
 70
0
  9
$USERI2
 70
0
  9
$USERI3
 70
0
  9
$USERI4
 70
0
  9
$USERI5
 70
0
  9
$USERR1
 40
0.0
  9
$USERR2
 40
0.0
  9
$USERR3
 40
0.0
  9
$USERR4
 40
0.0
  9
$USERR5
 40
0.0
  9
$WORLDVIEW
 70
1
  9
$SHADEDGE
 70
3
  9
$SHADEDIF
 70
70
  9
$TILEMODE
 70
1
  9
$MAXACTVP
 70
64
  9
$PINSBASE
 10
0.0
 20
0.0
 30
0.0
  9
$PLIMCHECK
 70
0
  9
$PEXTMIN
 10
1e+20
 20
1e+20
 30
1e+20
  9
$PEXTMAX
 10
-1e+20
 20
-1e+20
 30
-1e+20
  9
$PLIMMIN
 10
0.0
 20
0.0
  9
$PLIMMAX
 10
420.0
 20
297.0
  9
$UNITMODE
 70
0
  9
$VISRETAIN
 70
1
  9
$PLINEGEN
 70
0
  9
$PSLTSCALE
 70
1
  9
$TREEDEPTH
 70
3020
  9
$CMLSTYLE
  2
Standard
  9
$CMLJUST
 70
0
  9
$CMLSCALE
 40
20.0
  9
$PROXYGRAPHICS
 70
1
  9
$MEASUREMENT
 70
1
  9
$CELWEIGHT
370
-1
  9
$ENDCAPS
280
0
  9
$JOINSTYLE
280
0
  9
$LWDISPLAY
290
0
  9
$INSUNITS
 70
6
  9
$HYPERLINKBASE
  1

  9
$STYLESHEET
  1

  9
$XEDIT
290
1
  9
$CEPSNTYPE
380
0
  9
$PSTYLEMODE
290
1
  9
$FINGERPRINTGUID
  2
{A784C4DD-DC90-4254-A6CD-BCEF9056CAEC}
  9
$VERSIONGUID
  2
{5AE74800-D55D-4F25-A8E1-3A337186D9D3}
  9
$EXTNAMES
290
1
  9
$PSVPSCALE
 40
0.0
  9
$OLESTARTUP
290
0
  9
$SORTENTS
280
127
  9
$INDEXCTL
280
0
  9
$HIDETEXT
280
1
  9
$XCLIPFRAME
280
1
  9
$HALOGAP
280
0
  9
$OBSCOLOR
 70
257
  9
$OBSLTYPE
280
0
  9
$INTERSECTIONDISPLAY
280
0
  9
$INTERSECTIONCOLOR
 70
257
  9
$DIMASSOC
280
2
  9
$PROJECTNAME
  1

  9
$CAMERADISPLAY
290
0
  9
$LENSLENGTH
 40
50.0
  9
$CAMERAHEIGHT
 40
0.0
  9
$STEPSPERSEC
 40
24.0
  9
$STEPSIZE
 40
100.0
  9
$3DDWFPREC
 40
2.0
  9
$PSOLWIDTH
 40
0.005
  9
$PSOLHEIGHT
 40
0.08
  9
$LOFTANG1
 40
1.570796326795
  9
$LOFTANG2
 40
1.570796326795
  9
$LOFTMAG1
 40
0.0
  9
$LOFTMAG2
 40
0.0
  9
$LOFTPARAM
 70
7
  9
$LOFTNORMALS
280
1
  9
$LATITUDE
 40
37.795
  9
$LONGITUDE
 40
-122.394
  9
$NORTHDIRECTION
 40
0.0
  9
$TIMEZONE
 70
-8000
  9
$LIGHTGLYPHDISPLAY
280
1
  9
$TILEMODELIGHTSYNCH
280
1
  9
$CMATERIAL
347
20
  9
$SOLIDHIST
280
0
  9
$SHOWHIST
280
1
  9
$DWFFRAME
280
2
  9
$DGNFRAME
280
2
  9
$REALWORLDSCALE
290
1
  9
$INTERFERECOLOR
 62
256
  9
$CSHADOW
280
0
  9
$SHADOWPLANELOCATION
 40
0.0
  0
ENDSEC
  0
SECTION
  2
CLASSES
  0
CLASS
  1
ACDBDICTIONARYWDFLT
  2
AcDbDictionaryWithDefault
  3
ObjectDBX Classes
 90
0
 91
0
280
0
281
0
  0
CLASS
  1
SUN
  2
AcDbSun
  3
SCENEOE
 90
1153
 91
0
280
0
281
0
  0
CLASS
  1
VISUALSTYLE
  2
AcDbVisualStyle
  3
ObjectDBX Classes
 90
4095
 91
0
280
0
281
0
  0
CLASS
  1
MATERIAL
  2
AcDbMaterial
  3
ObjectDBX Classes
 90
1153
 91
0
280
0
281
0
  0
CLASS
  1
SCALE
  2
AcDbScale
  3
ObjectDBX Classes
 90
1153
 91
0
280
0
281
0
  0
CLASS
  1
TABLESTYLE
  2
AcDbTableStyle
  3
ObjectDBX Classes
 90
4095
 91
0
280
0
281
0
  0
CLASS
  1
MLEADERSTYLE
  2
AcDbMLeaderStyle
  3
ACDB_MLEADERSTYLE_CLASS
 90
4095
 91
0
280
0
281
0
  0
CLASS
  1
DICTIONARYVAR
  2
AcDbDictionaryVar
  3
ObjectDBX Classes
 90
0
 91
0
280
0
281
0
  0
CLASS
  1
CELLSTYLEMAP
  2
AcDbCellStyleMap
  3
ObjectDBX Classes
 90
1152
 91
0
280
0
281
0
  0
CLASS
  1
MENTALRAYRENDERSETTINGS
  2
AcDbMentalRayRenderSettings
  3
SCENEOE
 90
1024
 91
0
280
0
281
0
  0
CLASS
  1
ACDBDETAILVIEWSTYLE
  2
AcDbDetailViewStyle
  3
ObjectDBX Classes
 90
1025
 91
0
280
0
281
0
  0
CLASS
  1
ACDBSECTIONVIEWSTYLE
  2
AcDbSectionViewStyle
  3
ObjectDBX Classes
 90
1025
 91
0
280
0
281
0
  0
CLASS
  1
RASTERVARIABLES
  2
AcDbRasterVariables
  3
ISM
 90
0
 91
0
280
0
281
0
  0
CLASS
  1
ACDBPLACEHOLDER
  2
AcDbPlaceHolder
  3
ObjectDBX Classes
 90
0
 91
0
280
0
281
0
  0
CLASS
  1
LAYOUT
  2
AcDbLayout
  3
ObjectDBX Classes
 90
0
 91
0
280
0
281
0
  0
ENDSEC
  0
SECTION
  2
TABLES
  0
TABLE
  2
VPORT
  5
8
330
0
100
AcDbSymbolTable
 70
1
  0
VPORT
  5
23
330
8
100
AcDbSymbolTableRecord
100
AcDbViewportTableRecord
  2
*Active
 70
0
 10
0.0
 20
0.0
 11
1.0
 21
1.0
 12
0.0
 22
0.0
 13
0.0
 23
0.0
 14
0.5
 24
0.5
 15
0.5
 25
0.5
 16
0.0
 26
0.0
 36
1.0
 17
0.0
 27
0.0
 37
0.0
 40
1000.0
 41
1.34
 42
50.0
 43
0.0
 44
0.0
 50
0.0
 51
0.0
 71
0
 72
1000
 73
1
 74
3
 75
0
 76
0
 77
0
 78
0
281
0
 65
0
146
0.0
  0
ENDTAB
  0
TABLE
  2
LTYPE
  5
2
330
0
100
AcDbSymbolTable
 70
3
  0
LTYPE
  5
24
330
2
100
AcDbSymbolTableRecord
100
AcDbLinetypeTableRecord
  2
ByBlock
 70
0
  3

 72
65
 73
0
 40
0.0
  0
LTYPE
  5
25
330
2
100
AcDbSymbolTableRecord
100
AcDbLinetypeTableRecord
  2
ByLayer
 70
0
  3

 72
65
 73
0
 40
0.0
  0
LTYPE
  5
26
330
2
100
AcDbSymbolTableRecord
100
AcDbLinetypeTableRecord
  2
Continuous
 70
0
  3

 72
65
 73
0
 40
0.0
  0
ENDTAB
  0
TABLE
  2
LAYER
  5
1
330
0
100
AcDbSymbolTable
 70
3
  0
LAYER
  5
27
330
1
100
AcDbSymbolTableRecord
100
AcDbLayerTableRecord
  2
0
 70
0
 62
7
  6
Continuous
370
-3
390
13
347
21
  0
LAYER
  5
28
330
1
100
AcDbSymbolTableRecord
100
AcDbLayerTableRecord
  2
Defpoints
 70
0
 62
7
  6
Continuous
290
0
370
-3
390
13
347
21
  0
LAYER
  5
2F
330
1
100
AcDbSymbolTableRecord
100
AcDbLayerTableRecord
  2
TOPPERS_CUT
 70
0
 62
4
  6
Continuous
370
-3
390
13
347
21
  0
ENDTAB
  0
TABLE
  2
STYLE
  5
5
330
0
100
AcDbSymbolTable
 70
1
  0
STYLE
  5
29
330
5
100
AcDbSymbolTableRecord
100
AcDbTextStyleTableRecord
  2
Standard
 70
0
 40
0.0
 41
1.0
 50
0.0
 71
0
 42
2.5
  3
txt
  4

  0
ENDTAB
  0
TABLE
  2
VIEW
  5
7
330
0
100
AcDbSymbolTable
 70
0
  0
ENDTAB
  0
TABLE
  2
UCS
  5
6
330
0
100
AcDbSymbolTable
 70
0
  0
ENDTAB
  0
TABLE
  2
APPID
  5
3
330
0
100
AcDbSymbolTable
 70
3
  0
APPID
  5
2A
330
3
100
AcDbSymbolTableRecord
100
AcDbRegAppTableRecord
  2
ACAD
 70
0
  0
APPID
  5
38
330
3
100
AcDbSymbolTableRecord
100
AcDbRegAppTableRecord
  2
HATCHBACKGROUNDCOLOR
 70
0
  0
APPID
  5
39
330
3
100
AcDbSymbolTableRecord
100
AcDbRegAppTableRecord
  2
EZDXF
 70
0
  0
ENDTAB
  0
TABLE
  2
DIMSTYLE
  5
4
330
0
100
AcDbSymbolTable
 70
1
100
AcDbDimStyleTable
  0
DIMSTYLE
105
2B
330
4
100
AcDbSymbolTableRecord
100
AcDbDimStyleTableRecord
  2
Standard
 70
0
 40
1.0
 41
2.5
 42
0.625
 43
3.75
 44
1.25
 45
0.0
 46
0.0
 47
0.0
 48
0.0
 49
2.5
140
2.5
141
2.5
142
0.0
143
0.03937007874
144
1.0
145
0.0
146
1.0
147
0.625
148
0.0
 69
0
 70
0
 71
0
 72
0
 73
0
 74
0
 75
0
 76
0
 77
1
 78
8
 79
3
170
0
171
3
172
1
173
0
174
0
175
0
176
0
177
0
178
0
179
2
271
2
272
2
273
2
274
3
275
0
276
0
277
2
278
44
279
0
280
0
281
0
282
0
283
0
284
8
285
0
286
0
288
0
289
3
290
0
371
-2
372
-2
  0
ENDTAB
  0
TABLE
  2
BLOCK_RECORD
  5
9
330
0
100
AcDbSymbolTable
 70
2
  0
BLOCK_RECORD
  5
17
330
9
100
AcDbSymbolTableRecord
100
AcDbBlockTableRecord
  2
*Model_Space
340
1A
 70
0
280
1
281
0
  0
BLOCK_RECORD
  5
1B
330
9
100
AcDbSymbolTableRecord
100
AcDbBlockTableRecord
  2
*Paper_Space
340
1E
 70
0
280
1
281
0
  0
ENDTAB
  0
ENDSEC
  0
SECTION
  2
BLOCKS
  0
BLOCK
  5
18
330
17
100
AcDbEntity
  8
0
100
AcDbBlockBegin
  2
*Model_Space
 70
0
 10
0.0
 20
0.0
 30
0.0
  3
*Model_Space
  1

  0
ENDBLK
  5
19
330
17
100
AcDbEntity
  8
0
100
AcDbBlockEnd
  0
BLOCK
  5
1C
330
1B
100
AcDbEntity
  8
0
100
AcDbBlockBegin
  2
*Paper_Space
 70
0
 10
0.0
 20
0.0
 30
0.0
  3
*Paper_Space
  1

  0
ENDBLK
  5
1D
330
1B
100
AcDbEntity
  8
0
100
AcDbBlockEnd
  0
ENDSEC
  0
SECTION
  2
ENTITIES
  0
LWPOLYLINE
  5
30
330
17
100
AcDbEntity
  8
TOPPERS_CUT
100
AcDbPolyline
 90
152
 70
1
 10
86.51752592904893
 20
50.520344876930565
 10
86.49279303737899
 20
52.72020584618967
 10
87.3623821577537
 20
55.43015321869084
 10
89.0431629449817
 20
57.14915756577237
 10
90.23296910889442
 20
58.062591357743806
 10
93.52489100634264
 20
58.799646458194786
 10
96.29323583236524
 20
61.63094773574086
 10
97.78639570458645
 20
62.24777315349557
 10
99.48403982704397
 20
62.46687229426408
 10
101.28617451931686
 20
62.28712093569775
 10
101.89063349123663
 20
61.89389154810608
 10
103.0928061009843
 20
61.707394855447944
 10
104.50171140566553
 20
60.92318452496187
 10
107.39253435908165
 20
61.755736416439184
 10
109.39578063454493
 20
61.47823982214926
 10
111.00242485537065
 20
60.896265297202184
 10
111.71025017475718
 20
60.20417909069654
 10
112.6146901879395
 20
59.81432237015076
 10
113.62811766033181
 20
58.62564042858668
 10
114.53030922881689
 20
58.43577106888264
 10
115.2381345482034
 20
57.743684862376995
 10
116.03808399157035
 20
57.752678641166064
 10
117.04364190752221
 20
57.26395246254806
 10
117.64360399004742
 20
57.270697796639865
 10
119.1547514198468
 20
56.28762432766068
 10
120.88387376806604
 20
53.706900416644864
 10
121.40969928418895
 20
51.412666878708045
 10
121.32881738369488
 20
49.71165008920464
 10
120.74909130344506
 20
47.90501850753721
 10
121.2591777066871
 20
47.01069649549255
 10
122.16249349752084
 20
46.72083345536765
 10
121.96700302607363
 20
46.3186102889869
 10
120.37160102873426
 20
45.90064800972529
 10
120.07499265451754
 20
45.59729430141678
 10
120.08960754504979
 20
44.29737645594549
 10
120.59969394829184
 20
43.40305444390084
 10
121.40638872575059
 20
42.812086140164695
 10
122.02096569880806
 20
41.51891362878521
 10
123.32200776662796
 20
41.43353483889658
 10
124.12870254408672
 20
40.84256653516043
 10
125.1320120153413
 20
40.55382771738416
 10
127.73184770628389
 20
40.58305749844864
 10
128.32506445471728
 20
41.18976491506565
 10
128.51156114737543
 20
42.39193752481334
 10
128.81941174507847
 20
41.69535442891316
 10
129.919342229708
 20
41.707720874748134
 10
130.51368320049008
 20
42.21443461094428
 10
130.5945651009842
 20
43.91545140044768
 10
130.89454614224678
 20
43.91882406749358
 10
131.80460726717232
 20
43.028998944843465
 10
132.78880495850012
 20
44.440152694221965
 10
132.96181098297467
 20
46.842249469020075
 10
132.35397934400902
 20
47.53545989787436
 10
132.24611610714769
 20
48.234291438471814
 10
131.6371602458334
 20
49.02749554774696
 10
131.0439434974
 20
48.420788131129946
 10
131.05181305384042
 20
47.72083236818386
 10
131.8618804983451
 20
46.829883023185104
 10
131.3675332079839
 20
46.3242935093376
 10
131.07991861255627
 20
45.22099035766214
 10
130.19346615695207
 20
44.010948191474014
 10
129.38227449009878
 20
45.00189121689363
 10
128.8879271997376
 20
44.496301703046115
 10
128.99354199190162
 20
43.99745752329041
 10
129.70024308893952
 20
43.40536499720564
 10
129.50250417279503
 20
43.20312919166663
 10
128.80254840984895
 20
43.19525963522619
 10
128.29695889600146
 20
43.68960692558737
 10
127.97899029716072
 20
45.28613314527537
 10
127.67451236650356
 20
45.68273519991294
 10
125.77912932790161
 20
45.26140025360543
 10
125.19265791356
 20
44.0547307544632
 10
124.87468931471923
 20
45.651256974151195
 10
124.86119864653566
 20
46.85118113920162
 10
125.15780702075236
 20
47.154534847510135
 10
125.967874465257
 20
46.26358550251138
 10
126.85882381025574
 20
47.07365294701604
 10
127.16105329621564
 20
46.87703825322019
 10
127.16779863030743
 20
46.27707617069498
 10
127.57451868608271
 20
45.681610977564304
 10
128.2542384467534
 20
47.48936678158039
 10
130.0530004719804
 20
47.60959646427666
 10
130.5484719846902
 20
48.0151922977033
 10
130.44285719252613
 20
48.514036477459015
 10
129.93726767867867
 20
49.008383767820185
 10
129.92714967754097
 20
49.908326891608006
 10
130.22375805175764
 20
50.21168059991651
 10
130.01927380152136
 20
50.609406876902725
 10
129.72491387200193
 20
50.10606580775247
 10
128.8249707482141
 20
50.095947806614774
 10
128.62723183206964
 20
49.89371200107577
 10
128.43961091706288
 20
48.791533071748944
 10
128.33174768020157
 20
49.4903646123464
 10
128.62385916502373
 20
50.193693042338374
 10
128.21039377515666
 20
51.38912031799426
 10
128.40476002425524
 20
51.89133716479588
 10
129.21707591345714
 20
50.800400458955394
 10
129.60805685635154
 20
51.604846791716874
 10
130.6001241041198
 20
52.31604477814928
 10
131.27534697539596
 20
54.52377530384884
 10
131.96968162659886
 20
55.03161326239363
 10
132.3606625694933
 20
55.836059595155106
 10
133.3493571502156
 20
56.84723862285013
 10
135.03688327153543
 20
57.966280887406455
 10
138.22656304386553
 20
58.90219912635056
 10
140.20395220531023
 20
60.9245571817406
 10
142.39144672873437
 20
62.0492205580401
 10
144.0902150735405
 20
62.16832601838773
 10
146.1957034741219
 20
61.6919662856047
 10
147.1956402783306
 20
61.70320850909104
 10
150.18196002277304
 20
62.93685934460048
 10
153.68173883750347
 20
62.97620712680265
 10
155.29175572537508
 20
62.094251560592966
 10
157.818579072264
 20
59.722508789207964
 10
159.4252232930897
 20
59.140534264260886
 10
160.426284319647
 20
59.051782807326354
 10
161.3352212222239
 20
58.261951365097104
 10
162.03742542986726
 20
58.069833560695805
 10
163.95641713779054
 20
56.391301218165076
 10
164.77885102813016
 20
54.40042138853677
 10
165.00019861359596
 20
52.50278990523752
 10
164.92156515779908
 20
50.60178575489239
 10
164.14522438375346
 20
48.492924687265074
 10
161.67236370959895
 20
46.06497079844838
 10
160.07471326756232
 20
45.8469958800285
 10
159.58149019954976
 20
45.241412685760125
 10
159.14672669366618
 20
39.436158109606566
 10
157.70303260478482
 20
34.41961075333362
 10
154.96953867156986
 20
28.48850538274063
 10
151.7192130010211
 20
24.05168410671749
 10
149.34747022963612
 20
21.524860759828563
 10
144.88710239289918
 20
17.974491939409642
 10
140.21550497183418
 20
15.421811478502145
 10
137.92689254564056
 20
14.396017560274885
 10
135.1360632726453
 20
13.564589891146193
 10
128.94769731003777
 20
12.494951301322219
 10
122.84583435966749
 20
12.626361098897304
 10
119.84040283529825
 20
13.09260283054264
 10
115.82828917262854
 20
14.14756442122685
 10
109.89830802438416
 20
16.781064674020918
 10
106.77601948436458
 20
18.746087389630652
 10
103.2436382215238
 20
21.60655633963367
 10
101.32239806890325
 20
23.485076043006135
 10
98.4821030125681
 20
27.053370312395668
 10
95.72943519081888
 20
31.722719288763393
 10
93.35200919908317
 20
38.59642612378477
 10
92.58684853991635
 20
44.38819003175472
 10
92.28349483160784
 20
44.68479840597142
 10
91.48579383293814
 20
44.47581726634061
 10
89.87914961211246
 20
45.057791791287684
 10
88.16239370972818
 20
46.53858521767395
 10
87.35007782052625
 20
47.62952192351444
  0
LWPOLYLINE
  5
31
330
17
100
AcDbEntity
  8
TOPPERS_CUT
100
AcDbPolyline
 90
59
 70
1
 10
36.17379788174696
 20
9.651786714214563
 10
34.35817252129045
 20
11.031462237831319
 10
32.834658645656106
 20
13.114466191440059
 10
29.35955061398812
 20
19.77581921978472
 10
27.10010586025142
 20
25.050751390420825
 10
26.49339844363441
 20
25.643968138854234
 10
23.684581613061013
 20
26.41243935645944
 10
16.97713546842237
 20
27.037072222047073
 10
16.473794399272126
 20
27.33143215156651
 10
12.163948140037068
 20
28.18303371436308
 10
9.449503878141375
 20
29.452597556421267
 10
8.83942379447846
 20
30.345795346117278
 10
8.630442654847652
 20
31.14349634478696
 10
8.813566680459886
 20
32.64564999579726
 10
9.597777010945965
 20
34.0545553004785
 10
11.477420936667064
 20
35.87580177267817
 10
12.560488086067117
 20
37.388073424826175
 10
20.381293274911393
 20
44.476444619829046
 10
20.46105095305686
 20
46.27745508975332
 10
18.968953194576734
 20
54.46119777138368
 10
18.611636813533813
 20
59.557502805802095
 10
19.085748101619583
 20
61.86297856722524
 10
20.272181598486405
 20
63.07639340045927
 10
22.56978780346912
 20
63.30223787531958
 10
24.07306567682805
 20
63.019120169286474
 10
30.8108658248798
 20
59.694657932335396
 10
31.417573241496815
 20
59.10144118390199
 10
33.12533536509202
 20
58.420597200882675
 10
33.730918559360404
 20
57.927374132870135
 10
36.94645544570908
 20
56.563437722134246
 10
38.14525538841086
 20
56.676922070738726
 10
42.22026339399655
 20
58.92287615629182
 10
43.415690669652435
 20
59.33634154615889
 10
46.09640826108912
 20
61.06658811672677
 10
51.370216209376586
 20
63.42602655088433
 10
52.267910888467135
 20
63.63613191286377
 10
54.67000766326527
 20
63.46312588838924
 10
56.187900427156436
 20
61.88009033688485
 10
56.70922905388481
 20
59.98583152063151
 10
56.72609238911432
 20
58.485926314318476
 10
55.89022993919862
 20
52.77616852919126
 10
54.737523112790804
 20
48.562943283331165
 10
54.38139306270405
 20
44.658692857522745
 10
58.0238860071034
 20
40.89940500608054
 10
61.355155686753804
 20
38.13668129180113
 10
63.78423379791913
 20
35.563826937225755
 10
65.2077539931326
 20
33.47969876126838
 10
65.51785303553291
 20
32.583128304526454
 10
65.63583427353191
 20
30.984353640141187
 10
65.44259224678197
 20
30.38214311291871
 10
64.55501556882913
 20
29.27209462715145
 10
62.765247322391204
 20
28.35191550108823
 10
56.97798030381578
 20
27.18678012023792
 10
51.5828184504834
 20
26.726097391728228
 10
48.093157636890695
 20
25.786806485738232
 10
47.10558727851698
 20
24.67563377762234
 10
43.49575889083552
 20
16.634543117053394
 10
40.25555122142444
 20
11.29777871724244
 10
38.27141672588793
 20
9.875382744377607
  0
LWPOLYLINE
  5
32
330
17
100
AcDbEntity
  8
TOPPERS_CUT
100
AcDbPolyline
 90
95
 70
1
 10
6.334774351524578
 20
75.22047340811469
 10
5.5168373505794905
 20
76.81137851605952
 10
5.280874874581476
 20
80.00892784483005
 10
5.851607176042213
 20
82.61550886986444
 10
7.894139125100142
 20
87.73879524065005
 10
8.718759351529506
 20
94.44848982998596
 10
9.692839041719619
 20
96.75958670315228
 10
11.273626148526748
 20
98.4774668278852
 10
11.369122939553083
 20
98.87856577191731
 10
13.75548060147033
 20
100.10547127333493
 10
14.554305822488647
 20
100.21445873254487
 10
16.04296880531534
 20
101.23125887198306
 10
14.622821277147773
 20
103.01540600667781
 10
13.804884276202685
 20
104.60631111462267
 10
13.2768103153825
 20
107.10053201340119
 10
13.646431033652869
 20
109.80485827415922
 10
14.718255959566582
 20
112.31706673051588
 10
17.285489202398793
 20
115.24611324378557
 10
18.07194797758214
 20
116.45503118762505
 10
17.941600293748163
 20
119.15373633663987
 10
18.0337244177286
 20
119.85481632193459
 10
18.52694748574114
 20
120.46039951620298
 10
19.22353058164132
 20
120.76825011390602
 10
20.223467385850007
 20
120.77949233739234
 10
22.641303273528994
 20
119.20657478702564
 10
23.54012217496818
 20
119.31668646858422
 10
26.745541060179146
 20
118.85269318163617
 10
29.966699058270983
 20
116.98878836879594
 10
33.00698147544786
 20
113.42274254410367
 10
35.056320867205116
 20
109.04550505255811
 10
35.93715221106616
 20
110.75551562085059
 10
37.521311984919194
 20
112.17341470432089
 10
38.523497233825154
 20
111.98466956696548
 10
40.74921531710284
 20
109.70954780895545
 10
42.12102128427916
 20
112.22512893235803
 10
42.40976010205542
 20
113.22843840361261
 10
42.806362156693
 20
113.53291633426977
 10
43.88493241669852
 20
115.44516270810122
 10
45.07024169121671
 20
116.75857122175614
 10
47.15212142247681
 20
118.38207877781136
 10
49.44298229336773
 20
119.20788533519688
 10
52.938264218703594
 20
119.64720783908251
 10
55.42011867164719
 20
121.27521228453227
 10
56.320061795435
 20
121.28533028566997
 10
57.12563235054512
 20
120.79435566235468
 10
57.64246408787896
 20
119.30007156778484
 10
57.453718950523566
 20
118.29788631887887
 10
57.57170018852257
 20
116.69911165449362
 10
59.596306688609886
 20
114.52173513220717
 10
61.12094478659286
 20
112.33873749817755
 10
61.734397537301675
 20
111.14555866721894
 10
62.36021673384546
 20
108.85244935163075
 10
62.47482530479856
 20
107.5536557285081
 10
62.00071401671279
 20
105.24817996708494
 10
61.31762158899621
 20
103.74040520433145
 10
59.84020082965586
 20
101.7236682606846
 10
60.546901926693735
 20
101.13157573459982
 10
64.26465565984402
 20
99.57327307476537
 10
66.3926285073981
 20
97.09703973356496
 10
67.21843506478362
 20
94.80617886267405
 10
68.19482530827854
 20
88.01672659519267
 10
69.52509715716295
 20
85.33151211436144
 10
70.66212697929741
 20
82.04408710630774
 10
70.88909567650634
 20
79.64648722090416
 10
70.61272330456505
 20
77.54324726502003
 10
70.02737611257207
 20
76.23658408545693
 10
68.93981207377749
 20
75.1242871549924
 10
66.75006910565608
 20
74.19961113953464
 10
63.95024605387175
 20
74.1681329137729
 10
59.939256613550675
 20
75.12310082403624
 10
57.02370076846461
 20
76.49040990181803
 10
52.793612187375004
 20
79.14302193453887
 10
51.37796154860197
 20
80.52719434755016
 10
50.87574470180036
 20
80.72156059664873
 10
48.04894031364883
 20
83.08993070098784
 10
42.67395235398433
 20
89.72992350470847
 10
41.896487357590054
 20
87.72105611750202
 10
40.216830792710695
 20
85.9020580899996
 10
39.42250246108691
 20
85.3930959091062
 10
36.92266045056519
 20
85.36499035039034
 10
34.501451895840304
 20
87.23788894201965
 10
33.57902432507981
 20
89.22764454929931
 10
32.98131068725186
 20
89.02091185436578
 10
28.84003567170432
 20
83.774023133838
 10
28.34231571429725
 20
83.56841466125309
 10
26.564913913694284
 20
81.54830505056032
 10
24.483034182434174
 20
79.9247974945051
 10
24.089804794842504
 20
79.32033852258536
 10
23.095489102376984
 20
78.80912789699468
 10
20.717000996900175
 20
76.88226663263097
 10
16.24201826963102
 20
74.63181565768335
 10
13.451188996635764
 20
73.80038798855465
 10
9.954782848951258
 20
73.46105916508986
 10
8.451504975592327
 20
73.74417687112296
 10
7.4459470596404715
 20
74.23290304974097
  0
LWPOLYLINE
  5
33
330
17
100
AcDbEntity
  8
TOPPERS_CUT
100
AcDbPolyline
 90
150
 70
1
 10
94.63593949724348
 20
75.61319965943298
 10
92.51358776143258
 20
77.58946459852905
 10
91.18219169019955
 20
80.37467275978113
 10
90.84173864438613
 20
83.97107258788651
 10
91.12148368337333
 20
85.77433150250805
 10
91.8079487781358
 20
86.9821252239989
 10
93.78983482897505
 20
88.60450855770549
 10
96.08744103395775
 20
88.8303530325658
 10
97.17950196214687
 20
89.54267524134684
 10
98.6827798355058
 20
89.25955753531375
 10
100.98038604048853
 20
89.48540201017406
 10
101.58372079005963
 20
89.19216630300325
 10
102.48029124680154
 20
89.50226534540356
 10
101.57135434422467
 20
90.2920967876328
 10
101.1623858437521
 20
91.08754934160523
 10
98.42882980192965
 20
94.05700575081818
 10
98.41646335609468
 20
95.15693623544773
 10
99.30404003404753
 20
96.266984721215
 10
99.99949890759908
 20
96.67482899933891
 10
102.29260822318727
 20
97.3006481958827
 10
104.59358709521587
 20
97.2265116294804
 10
107.19904389790163
 20
96.75577300844053
 10
107.89675121615043
 20
96.9636299257227
 10
108.19223536801852
 20
97.36697731445209
 10
107.8619003233428
 20
100.06343401876964
 10
107.34844125305486
 20
101.25773707207688
 10
106.53949803089884
 20
102.04869273665477
 10
105.73505169813734
 20
102.43967367954917
 10
103.13746445189201
 20
102.21045653764295
 10
101.52969600871769
 20
102.8924247430109
 10
100.11179692524739
 20
104.47658451686394
 10
99.6983315353803
 20
105.67201179251984
 10
99.89044933978161
 20
106.37421600016319
 10
101.08362817074024
 20
106.98766875087199
 10
101.57347857170689
 20
107.89323298640298
 10
102.26781322290978
 20
108.40107094494776
 10
103.27112269416439
 20
108.11233212717147
 10
104.88338802673324
 20
107.03038920012008
 10
107.07987632894647
 20
107.35510313305261
 10
107.57422361930765
 20
107.86069264690013
 10
107.95396233871573
 20
109.66507578387032
 10
107.74273275438763
 20
110.66276414338172
 10
107.13265267072472
 20
111.55596193307774
 10
107.0011807645421
 20
114.35466076251342
 10
108.5538623126334
 20
118.57238289776805
 10
107.84716121559552
 20
119.16447542385283
 10
106.34163489753931
 20
119.64758049072768
 10
105.12822006430528
 20
120.83401398759449
 10
105.21472307654255
 20
122.03506237499354
 10
107.00111865593458
 20
123.25522254231939
 10
108.59989332031985
 20
123.37320378031839
 10
109.49533955471313
 20
123.78329650313955
 10
113.09623627221303
 20
123.72377482726952
 10
116.10166779658228
 20
123.25753309562417
 10
117.80942992017746
 20
122.57668911260487
 10
118.41501311444586
 20
122.08346604459231
 10
118.72736060154345
 20
120.98690822700867
 10
118.44424289551034
 20
119.48363035364973
 10
118.85321139598288
 20
118.6881777996773
 10
122.25187230794378
 20
118.82639503995173
 10
123.74728062486228
 20
119.24323309686471
 10
125.32806773166942
 20
120.96111322159761
 10
125.223577161854
 20
121.35996372093246
 10
123.60793916223922
 20
122.74188768924648
 10
122.78775371659688
 20
124.53278015803305
 10
123.1832315488858
 20
124.93725176911104
 10
125.86957025206569
 20
126.16752993757459
 10
127.5717112639177
 20
125.98665435665961
 10
128.467157498311
 20
126.39674707948079
 10
130.06593216269624
 20
126.51472831747981
 10
132.77138264580287
 20
126.04511391878857
 10
135.0824795189692
 20
125.07103422859845
 10
136.5992480605117
 20
123.58799235751493
 10
136.7161050761621
 20
122.08921137355053
 10
135.93526741272194
 20
120.3803250276067
 10
135.95213074795146
 20
118.88041982129366
 10
136.6610802896866
 20
118.08833993436716
 10
137.8576317876911
 20
118.40181164381337
 10
141.26416225609245
 20
117.8400731211417
 10
142.97304860203627
 20
117.05923545770152
 10
144.87742541942734
 20
116.68062096064209
 10
146.1863370436877
 20
115.89528640780739
 10
147.49075177855352
 20
115.50992657665613
 10
151.62197090157088
 20
112.7561966411658
 10
154.85886801254358
 20
109.49238030243339
 10
156.79584727804502
 20
106.21394907316878
 10
157.71939907115413
 20
104.12419978546822
 10
158.14185823981026
 20
102.12882306644539
 10
158.16434268678296
 20
100.12894945802802
 10
157.87447964665805
 20
99.22563366719429
 10
157.47900181436913
 20
98.82116205611628
 10
155.87235759354343
 20
99.40313658106336
 10
154.95892380157198
 20
100.59294274497607
 10
152.4534606793071
 20
101.06480558836458
 10
151.6310267889675
 20
103.05568541799289
 10
150.83557423499508
 20
102.64671691752035
 10
149.13680589018892
 20
102.5276114571727
 10
148.12337841779663
 20
103.7162933987368
 10
147.32118052973243
 20
103.90728698078946
 10
146.6234732114836
 20
103.6994300635073
 10
145.83364176925437
 20
102.7904931609304
 10
144.93482286781517
 20
102.68038147937182
 10
143.72478070162703
 20
103.56683393497603
 10
142.62147754995158
 20
103.85444853040367
 10
141.75076420722823
 20
101.24449483832339
 10
139.7520148211595
 20
101.12201671092984
 10
138.5498422114118
 20
101.30851340358798
 10
138.05549492105064
 20
100.80292388974047
 10
137.68924686982615
 20
97.79861658771986
 10
135.89610595634232
 20
97.17841850291924
 10
134.59281544382515
 20
97.46378465364963
 10
132.79517764094675
 20
97.24356129053248
 10
132.40082403100647
 20
96.7390959990336
 10
132.2098304489538
 20
95.9368981109694
 10
132.4289295897223
 20
94.23925398851188
 10
132.04019709152516
 20
93.23482029490866
 10
129.04151090124773
 20
93.10109994402879
 10
127.93933197192091
 20
93.28872085903555
 10
127.64384782005284
 20
92.88537347030618
 10
127.55397214076966
 20
91.98430612416972
 10
128.16292800208393
 20
91.19110201489457
 10
128.57864183664827
 20
89.79568737839693
 10
127.99217042230669
 20
88.58901787925471
 10
126.19790528647422
 20
88.06881347487496
 10
125.3047074967782
 20
87.45873339121205
 10
125.81929078941478
 20
86.16443665748392
 10
127.2383140952337
 20
84.48028320321002
 10
127.4562890136536
 20
82.8826327611734
 10
126.26985551678676
 20
81.66921792793936
 10
124.47783882565156
 20
80.94902616271789
 10
124.08348521571126
 20
80.444560871219
 10
125.52049607910833
 20
77.1605085302112
 10
125.63622887241009
 20
75.76172122666767
 10
124.84527320783221
 20
74.95277800451166
 10
122.64990912796763
 20
74.52807039115824
 10
121.6488481014103
 20
74.61682184809277
 10
119.95570086834732
 20
73.99774798564079
 10
119.46135357798616
 20
73.49215847179327
 10
118.98611806755176
 20
71.286676390791
 10
118.30077719513793
 20
69.97888898887928
 10
117.70306355730997
 20
69.77215629394573
 10
116.20203412864831
 20
69.85528663913709
 10
115.09086142053238
 20
70.84285699751081
 10
113.58421088012759
 20
71.42595574480652
 10
111.58321304936155
 20
71.50346497825471
 10
108.89237745678717
 20
70.67316153147466
 10
106.78913750090302
 20
70.94953390341595
 10
105.37910797387318
 20
71.8337379143229
 10
102.75116672421476
 20
74.30435014378014
 10
97.0481542731793
 20
74.54025051117063
  0
LWPOLYLINE
  5
34
330
17
100
AcDbEntity
  8
TOPPERS_CUT
100
AcDbPolyline
 90
155
 70
1
 10
90.65043451929583
 20
127.67168359885207
 10
90.53132905894819
 20
129.3704519436582
 10
91.30766983299382
 20
131.4793130112855
 10
92.68509691191332
 20
133.49492573258377
 10
93.07158096541319
 20
134.6993467870287
 10
94.05690287908963
 20
136.01050685598636
 10
94.44563537728678
 20
137.01494054958957
 10
95.23546681951602
 20
137.92387745216644
 10
95.62195087301589
 20
139.12829850661143
 10
95.20511281610291
 20
140.62370682352991
 10
93.88945585775075
 20
142.00900345888982
 10
92.88614638649616
 20
142.2977422766661
 10
92.28730852631959
 20
142.19100326215343
 10
90.40091926650669
 20
140.96971887247898
 10
89.69309394712016
 20
141.66180507898463
 10
89.18075909918085
 20
142.756114451871
 10
89.06839897292501
 20
143.85492071415192
 10
89.35488934600401
 20
145.05821754624824
 10
90.33459014793729
 20
146.86934601731022
 10
91.42327840908052
 20
147.88164926735388
 10
93.6118971548533
 20
148.9063189632325
 10
94.30285913901031
 20
149.7141379630399
 10
93.98713898486683
 20
151.11067682188616
 10
92.76585459519237
 20
152.99706608169907
 10
91.12885637095356
 20
156.2788699780096
 10
91.10412347928361
 20
158.47873094726873
 10
91.68609800423069
 20
160.08537516809443
 10
92.67029569555851
 20
161.49652891747292
 10
94.05559233091843
 20
162.81218587582507
 10
96.7453037011442
 20
163.74248300302602
 10
97.34751422836666
 20
163.54924097627605
 10
99.84510779419112
 20
163.77733389583366
 10
100.4405729873218
 20
164.18405395160892
 10
100.72481491570355
 20
165.587338144547
 10
100.60458523300726
 20
167.386100169774
 10
101.19330509204613
 20
168.3927823080745
 10
99.17094703665609
 20
170.3701714695192
 10
98.85072999311807
 20
172.1666850500489
 10
98.44063727029689
 20
173.0621312844422
 10
98.21591701778522
 20
175.25974380900405
 10
98.38667459756248
 20
177.8618279446439
 10
99.05177946770092
 20
180.96950159413126
 10
100.2235980740355
 20
183.48283427283658
 10
101.51452214071773
 20
184.29739860673578
 10
105.71762938544012
 20
184.04463490411578
 10
106.40521870255122
 20
185.1524349451858
 10
107.11529246663501
 20
184.2603613778384
 10
107.41302506320035
 20
184.46372140572603
 10
107.30291338164179
 20
185.36254030716523
 10
106.79170275605108
 20
186.35685599963074
 10
106.65798240517123
 20
189.35554218990816
 10
107.24895070890736
 20
190.16223696736694
 10
108.84098003920083
 20
190.88018028789114
 10
111.23520725755853
 20
191.4071300263627
 10
112.04077781266862
 20
190.9161554030474
 10
112.94072093645643
 20
190.9262734041851
 10
114.65185572709757
 20
189.9454483799032
 10
115.1619421303396
 20
189.05112636785856
 10
115.96976113014698
 20
188.36016438370154
 10
117.09105183940058
 20
186.47265090154002
 10
117.78763493530077
 20
186.78050149924303
 10
118.58983282336499
 20
186.58950791719036
 10
119.28754014161379
 20
186.79736483447255
 10
120.38859484859199
 20
186.70973759988664
 10
121.08405372214352
 20
187.11758187801055
 10
121.98849373532589
 20
186.72772515746482
 10
122.48396524803567
 20
187.13332099089143
 10
123.16593345340364
 20
188.74108943406577
 10
125.25568274110417
 20
189.66464122717488
 10
127.65440684885638
 20
189.79161624396298
 10
129.9587583879309
 20
189.41749863629806
 10
130.96319208153415
 20
189.02876613810093
 10
132.94395391002473
 20
190.75114315222837
 10
133.6405370059249
 20
191.0589937499314
 10
137.5402905423388
 20
191.10283842152813
 10
139.3491705687035
 20
190.3231249804366
 10
140.7704423192197
 20
188.43898416532096
 10
141.56258431475374
 20
180.24737192725016
 10
142.58500556593512
 20
178.25874054231912
 10
143.4737064662366
 20
179.2687953476655
 10
143.9725506459923
 20
179.37441013982954
 10
144.9623694490633
 20
180.28559548710368
 10
148.24867023476833
 20
181.522618989659
 10
150.14855016276485
 20
181.54397921428307
 10
151.7529459388933
 20
181.16199205017773
 10
153.25959647929812
 20
180.57889330288202
 10
154.8752344789129
 20
179.196969334568
 10
155.4853145625758
 20
178.30377154487195
 10
156.41111480038222
 20
176.0140348963297
 10
157.82564121680662
 20
174.72985616373927
 10
159.04692560648107
 20
172.84346690392638
 10
159.2570309684605
 20
171.94577222483582
 10
159.17727329031504
 20
170.14476175491154
 10
158.2896966123622
 20
169.0347132691443
 10
156.67855550214196
 20
170.01666251577484
 10
155.78198504540003
 20
169.7065634733745
 10
155.18989251931526
 20
168.99986237633667
 10
154.70341478539453
 20
167.79431709954306
 10
154.76075012517487
 20
162.69463939807875
 10
154.2843903923918
 20
160.58915099749734
 10
153.11032334135993
 20
158.27580567963375
 10
150.83407736100128
 20
156.15008127677694
 10
149.24204803070782
 20
155.4321379562527
 10
146.94893871511962
 20
154.80631875970892
 10
143.84463773267817
 20
155.17144258858474
 10
141.93688824824122
 20
155.85003812690678
 10
140.3268713603696
 20
156.7319936931165
 10
137.89666902685568
 20
159.40484172811273
 10
136.19790068204952
 20
159.2857362677651
 10
132.81048199357494
 20
158.147582223282
 10
131.40832202298552
 20
158.33183047124288
 10
130.61062102431583
 20
158.12284933161206
 10
130.12189484569785
 20
157.1172914156602
 10
130.92971384550523
 20
156.42632943150318
 10
131.75327195819347
 20
154.33545592145398
 10
131.77463218281753
 20
152.4355759934575
 10
131.38814812931764
 20
151.23115493901255
 10
130.8881797272133
 20
151.22553382726937
 10
129.88037336656419
 20
151.91424736672911
 10
128.98043024277638
 20
151.9041293655914
 10
128.18947457819849
 20
151.09518614343537
 10
127.70074839958048
 20
150.08962822748353
 10
128.1130895670989
 20
148.9941946322485
 10
128.12095912353934
 20
148.29423886930243
 10
127.73784773708537
 20
146.78983677359489
 10
127.5637174902622
 20
144.4877336792176
 10
126.59413468946664
 20
141.77666208436784
 10
125.1167139301263
 20
139.75992514072095
 10
123.73029307241772
 20
138.54426186278965
 10
121.64504067411171
 20
137.22073534799705
 10
120.3473712733377
 20
137.00613309662307
 10
119.55191871936529
 20
136.59716459615055
 10
118.76096305478741
 20
135.7882213739945
 10
116.7745801145536
 20
134.56581276197142
 10
114.98143920106978
 20
133.9456146771708
 10
114.2814834381237
 20
133.93774512073034
 10
113.38716142607905
 20
133.42765871748833
 10
112.78719934355384
 20
133.4209133833965
 10
111.80637431927191
 20
131.7097785927554
 10
109.62450090759094
 20
130.08514681435156
 10
108.62119143633636
 20
130.37388563212784
 10
107.41114927014823
 20
131.26033808773204
 10
106.90331131160346
 20
131.954672738935
 10
103.81699788674011
 20
130.7198976810769
 10
102.91480631825505
 20
130.90976704078093
 10
102.6103283875979
 20
131.30636909541852
 10
102.18899344129038
 20
133.20175213402047
 10
101.28230498341078
 20
133.791596215408
 10
100.38123763727431
 20
133.88147189469117
 10
97.901631629028
 20
132.05348008839968
 10
97.11180018679875
 20
131.14454318582278
 10
96.11748449433324
 20
130.6333325602321
 10
94.43108259536207
 20
129.4142966152549
 10
93.83899006927729
 20
128.70759551821703
 10
92.25033340602974
 20
127.6896711564302
  0
LWPOLYLINE
  5
35
330
17
100
AcDbEntity
  8
TOPPERS_CUT
100
AcDbPolyline
 90
104
 70
1
 10
35.78875486104653
 20
123.95468143640525
 10
34.060756735175914
 20
126.4354116670002
 10
32.35524305627798
 20
126.91626828917776
 10
32.24962826411394
 20
127.41511246893349
 10
31.74516297261506
 20
127.80946607887378
 10
31.047455654366246
 20
127.60160916159161
 10
29.95651894852576
 20
126.7892932723897
 10
29.15432106046154
 20
126.98028685444237
 10
29.14195461462657
 20
128.0802173390719
 10
28.83073134987763
 20
129.07678147623471
 10
28.426259738799622
 20
129.47225930852366
 10
27.32857769886733
 20
129.25990550184696
 10
27.602701626111365
 20
131.56313281857283
 10
24.9702634870584
 20
134.43371976971355
 10
23.337762152214122
 20
137.3155489443406
 10
22.500713371342265
 20
140.60634661944022
 10
22.659104505284557
 20
144.3083612397096
 10
22.146769657345242
 20
145.402670612596
 10
20.023293699185693
 20
147.47892923211293
 10
19.408716726128244
 20
148.77210174349244
 10
19.1952386971029
 20
149.9697774638456
 10
19.57722586120824
 20
151.57417323997402
 10
20.855783482055493
 20
153.48866805850275
 10
21.142273855134498
 20
154.6919648905991
 10
19.015425229929043
 20
157.06820455137864
 10
18.703077742831468
 20
158.16476236896227
 10
18.8828291013978
 20
159.96689706123522
 10
19.870399459771516
 20
161.0780697693511
 10
20.358001416040892
 20
162.1836213657238
 10
20.43888331653499
 20
163.88463815522724
 10
19.932169580338844
 20
164.47897912600928
 10
18.623257956078483
 20
165.26431367884396
 10
18.009805205369666
 20
166.45749250980262
 10
18.898506105671146
 20
167.467547315149
 10
20.196175506445172
 20
167.68214956652298
 10
20.586032226990945
 20
168.5865895797053
 10
19.971455253933495
 20
169.8797620910848
 10
16.419962211165938
 20
174.4401236082426
 10
13.874027084350242
 20
178.51175894678235
 10
12.128041400901495
 20
182.59238806411122
 10
11.903321148389818
 20
184.79000058867308
 10
12.895388396158069
 20
185.5011985751055
 10
14.177318684051224
 20
187.11571235237165
 10
16.163701624284993
 20
188.3381209643947
 10
17.756855176927097
 20
188.95607060449808
 10
20.95215606100036
 20
189.39202044133782
 10
22.741924307438293
 20
190.31219956740102
 10
24.4361957628499
 20
190.83127974943218
 10
26.932665106325715
 20
191.15936634941062
 10
30.535810268522887
 20
190.89985731269883
 10
32.52781432049983
 20
191.62229752261754
 10
35.12315312204788
 20
192.05150202536552
 10
38.52406247870606
 20
191.9897319047982
 10
42.03395929457416
 20
191.12913656321254
 10
47.33362435688021
 20
191.18872034769012
 10
49.038013813429515
 20
190.80785740593342
 10
51.249117006174956
 20
189.83265349339467
 10
55.35897590456828
 20
188.97880348590087
 10
57.57345176435963
 20
187.70361853209948
 10
59.900287750406825
 20
185.32962731601722
 10
60.01377209901129
 20
184.1308273733154
 10
58.95656206362982
 20
180.31870107148742
 10
57.29601727867723
 20
176.79981047683026
 10
53.167108708964655
 20
170.45299127167294
 10
52.87949411353702
 20
169.34968811999744
 10
52.58288573932032
 20
169.04633441168897
 10
53.292959503404106
 20
168.15426084434156
 10
54.69511947399353
 20
167.9700125963807
 10
55.10183952976881
 20
167.37454740325
 10
55.20970276663011
 20
166.67571586265257
 10
54.025517714460555
 20
165.26231366857684
 10
52.93120834157418
 20
164.7499788206375
 10
52.63797263440337
 20
164.1466440710664
 10
53.67388455376833
 20
160.9580885210849
 10
54.98841728977186
 20
159.67278556614588
 10
55.499627915362545
 20
158.67846987368034
 10
55.32437344619075
 20
156.47636045972396
 10
54.53903889335603
 20
155.1674488354636
 10
53.05487279992387
 20
153.75067397434194
 10
52.762761315101706
 20
153.04734554434995
 10
52.8739972190089
 20
152.0485329624899
 10
53.59081631718449
 20
150.5564973126173
 10
53.90541224897934
 20
149.2599521341919
 10
53.71779133397257
 20
148.1577732048651
 10
52.83808421246016
 20
146.34776895615175
 10
51.35391811902798
 20
144.9309940950301
 10
50.3708446500488
 20
143.4198466652307
 10
50.02258415640247
 20
138.8156404764762
 10
49.541727534224904
 20
137.1101267975783
 10
48.56202673229163
 20
135.2989983265163
 10
46.78799759873456
 20
132.9789076745609
 10
44.90385678361893
 20
131.55763592404472
 10
44.709490534520356
 20
131.05541907724313
 10
44.72972653679576
 20
129.2555328296675
 10
43.82865919065931
 20
129.3454085089506
 10
43.532050816442606
 20
129.04205480064212
 10
43.052318416613666
 20
127.2365474413233
 10
42.26361119673305
 20
126.22761685832555
 10
40.65022164181555
 20
127.40955346579783
 10
39.95026587886947
 20
127.40168390935739
 10
39.061564978567986
 20
126.391629104011
 10
38.1593734100829
 20
126.58149846371505
 10
36.87294623279521
 20
125.36695940813237
 10
36.486462179295344
 20
124.16253835368744
  0
LWPOLYLINE
  5
36
330
17
100
AcDbEntity
  8
TOPPERS_CUT
100
AcDbPolyline
 90
81
 70
1
 10
-2.2870361270145794
 20
219.43265869102396
 10
-2.4949551529042777
 20
229.0309277890787
 10
-3.2050289169880615
 20
229.92300135642608
 10
-3.616245862157873
 20
230.91844127124028
 10
-3.6488483102682485
 20
233.81825800344546
 10
-3.362357937189246
 20
235.0215548355418
 10
-2.070309648158388
 20
235.7361254890201
 10
1.429469166572019
 20
235.7754732712223
 10
3.2259827471017557
 20
236.0956903147603
 10
3.6192121346934285
 20
236.70014928668002
 10
4.095571867476465
 20
238.80563768726142
 10
4.878657975613911
 20
240.31453667236354
 10
6.65718399856551
 20
242.23465260263546
 10
8.048101745668603
 20
243.0503411588833
 10
10.538949977401256
 20
243.87839616096608
 10
12.838804627081235
 20
243.90425327498465
 10
16.25095620722574
 20
242.8425463502086
 10
17.864345762143248
 20
241.6606097427363
 10
18.876649012186906
 20
240.5719214815931
 10
20.21029352811721
 20
237.5867259594993
 10
21.12147887539136
 20
236.59690715642827
 10
28.31989964334528
 20
236.77784484595082
 10
30.62874807181433
 20
236.00375251660245
 10
32.02865959770649
 20
236.0194916294833
 10
33.52181946992773
 20
236.63631704723804
 10
43.622305414784094
 20
236.64986982402917
 10
46.22888643981849
 20
236.0791375225684
 10
46.82435163294917
 20
236.48585757834365
 10
47.300711365732205
 20
238.59134597892512
 10
49.46234877513777
 20
242.01586400490456
 10
50.157807648689314
 20
242.42370828302847
 10
50.84876963284633
 20
243.23152728283586
 10
54.039573627525066
 20
244.06745184135906
 10
55.938329333172945
 20
244.18880574640397
 10
59.44822614904105
 20
243.32821040481835
 10
61.16160938437942
 20
242.14739801969472
 10
62.78511694043463
 20
240.06551828843462
 10
63.92214676256909
 20
236.77809328038092
 10
64.42886049876523
 20
236.18375230959887
 10
66.44222477536621
 20
235.0063125915211
 10
68.94543945293383
 20
234.7344371089743
 10
69.55214686955085
 20
234.14122036054096
 10
69.77349445501662
 20
232.2435888772417
 10
69.59037042940439
 20
230.7414352262314
 10
68.10732855832086
 20
229.22466668468883
 10
67.73545939535323
 20
226.7203277847726
 10
68.14667634052304
 20
225.72488786995845
 10
69.45671218713204
 20
224.83955963670286
 10
71.58131236764022
 20
222.66330733676506
 10
72.19588934069768
 20
221.3701348253856
 10
72.32061591278848
 20
219.17139807847508
 10
70.75225736042384
 20
207.45302568930668
 10
71.66231848534937
 20
206.56320056665658
 10
71.86792695793427
 20
206.06548060924948
 10
71.80390839266968
 20
202.86455861343305
 10
70.91071060297367
 20
202.25447852977013
 10
67.4120560105919
 20
202.1151370671471
 10
66.80984548336941
 20
202.30837909389703
 10
36.51288453819482
 20
201.86774604184015
 10
35.51744462338066
 20
201.45652909667032
 10
34.627619500730546
 20
200.54646797174482
 10
32.86258414596255
 20
197.42642787642248
 10
31.47503906590536
 20
196.31075827891206
 10
27.579782418886015
 20
195.8669388856319
 10
20.17912584539309
 20
195.88374011225386
 10
19.172443707092604
 20
196.47245997129272
 10
18.963462567461796
 20
197.2701609699624
 10
18.94659923223229
 20
198.77006617627544
 10
20.034163271026877
 20
199.88236310673997
 10
20.027417936935073
 20
200.48232518926517
 10
19.52070420073893
 20
201.0766661600472
 10
15.42096330348331
 20
201.03057304375324
 10
13.716573846934008
 20
201.41143598550994
 10
12.107681181411039
 20
202.19339787129874
 10
11.094253709018748
 20
203.38207981286286
 10
6.768606228295292
 20
214.53415468135753
 10
5.960787228487907
 20
215.22511666551455
 10
1.3520841503388734
 20
215.97335188084435
 10
-0.5567895564467022
 20
216.75194109958724
 10
-1.3634843339054539
 20
217.34290940332343
 10
-1.974688639917003
 20
218.33610087344027
  0
LWPOLYLINE
  5
37
330
17
100
AcDbEntity
  8
TOPPERS_CUT
100
AcDbPolyline
 90
144
 70
1
 10
110.29591635156851
 20
194.89679083995537
 10
107.88145313093541
 20
196.16972734905949
 10
104.74567392273222
 20
199.33467422971964
 10
102.3300864797505
 20
200.7076044192446
 10
100.81444216055658
 20
202.09065260990727
 10
99.59315777088213
 20
203.97704186972015
 10
99.27743761673865
 20
205.37358072856642
 10
99.26169850385779
 20
206.77349225445855
 10
99.54818887693679
 20
207.9767890865549
 10
100.43014444314647
 20
209.58680597442648
 10
101.5165842595924
 20
210.79909658531187
 10
102.19855246496037
 20
212.4068650284862
 10
101.6783480605806
 20
214.2011301643187
 10
100.36269110222845
 20
215.5864267996786
 10
99.35600896392796
 20
216.1751466587175
 10
98.26394803573884
 20
215.46282444993645
 10
97.8718428704958
 20
214.75837179759583
 10
97.01012330656152
 20
211.3484686621486
 10
96.31691287770724
 20
210.74063702318296
 10
95.41247286452489
 20
211.13049374372872
 10
93.92493410404683
 20
210.01369992386967
 10
92.92724574453541
 20
209.8024703395416
 10
92.12392363412256
 20
210.09345760201512
 10
91.01162670365804
 20
211.18102164080975
 10
90.69590654951455
 20
212.57756049965596
 10
90.88240324217269
 20
213.77973310940365
 10
92.46881146072299
 20
214.99764483203222
 10
93.75186597096477
 20
216.51216492887752
 10
94.8439268991539
 20
217.22448713765857
 10
96.12360874234977
 20
219.0389882757664
 10
96.90557062813859
 20
220.6478809412894
 10
98.19199780542628
 20
221.86241999687203
 10
99.0750775939846
 20
223.3724432043228
 10
99.16495327326776
 20
224.27351055045924
 10
98.55262474490758
 20
225.36669570099698
 10
97.55156371835025
 20
225.45544715793153
 10
96.95609852521957
 20
225.04872710215622
 10
96.14490685836628
 20
226.0396701275759
 10
96.42914878674803
 20
227.44295432051393
 10
97.41671914512175
 20
228.5541270286298
 10
96.7987695050184
 20
230.14728058127193
 10
96.7751608356971
 20
232.24714787011015
 10
98.45032051118191
 20
234.46612061929605
 10
99.84573514767955
 20
234.8818344538604
 10
102.14334135266226
 20
235.10767892872067
 10
103.13878126747643
 20
235.5188958738905
 10
103.63312855783758
 20
236.02448538773805
 10
104.31509676320555
 20
237.6322538309124
 10
105.89475964766402
 20
239.45012763606616
 10
106.07226256153311
 20
241.45224968918077
 10
106.55311918371066
 20
243.15776336807872
 10
108.11704295528827
 20
246.37554869912464
 10
109.99218999161485
 20
248.59676989300783
 10
113.0661369706432
 20
250.93147543549543
 10
115.35474939683687
 20
251.95726935372267
 10
119.73985644482283
 20
253.30665298253385
 10
124.33619307713691
 20
253.65834825183362
 10
128.7415361273983
 20
253.20784563306916
 10
133.45697822006
 20
251.86077255756277
 10
137.68594257880096
 20
249.30815420526284
 10
140.21051748099262
 20
247.13639879471953
 10
143.05418520437368
 20
243.26812348406742
 10
144.38782972030396
 20
240.28292796197357
 10
145.3214995145508
 20
237.29323555048524
 10
146.13269118140408
 20
236.3022925250656
 10
148.14155856861052
 20
235.52482752867132
 10
151.84357318887993
 20
235.36643639472905
 10
154.35016053349347
 20
234.79457987091965
 10
156.66350585135703
 20
233.62051281988778
 10
158.18027439289958
 20
232.13747094880426
 10
159.29594399041
 20
230.74992586874708
 10
159.91052096346746
 20
229.45675335736755
 10
160.64307917452393
 20
226.56480618160282
 10
160.6790542896802
 20
223.365008408135
 10
160.01619786423902
 20
220.05734739780593
 10
159.42860222754877
 20
218.95067157908457
 10
159.12862118628618
 20
218.94729891203866
 10
158.52191376966917
 20
219.5405156604721
 10
156.88603976777898
 20
222.72232587636177
 10
156.27933235116197
 20
223.3155426247951
 10
150.25048174484536
 20
225.8479249748197
 10
149.75163756508965
 20
225.74231018265567
 10
149.35503551045207
 20
225.43783225199854
 10
149.28314738874707
 20
222.9368660191282
 10
149.00340234975985
 20
221.13360710450667
 10
148.128192117642
 20
218.92362813410983
 10
147.3608451223854
 20
216.01481762311556
 10
147.38670223640398
 20
213.71496297343555
 10
148.00577609885596
 20
212.02181574037263
 10
148.0203909893882
 20
210.72189789490136
 10
144.69699086617823
 20
212.78466584623465
 10
142.97686229674804
 20
214.56544031388353
 10
141.34773362894967
 20
217.14728844724794
 10
140.10733745934843
 20
220.73357027421565
 10
139.97474133081718
 20
223.6322627840722
 10
140.2544863698044
 20
225.43552169869378
 10
141.02408180975823
 20
228.1443448488463
 10
142.10265206976376
 20
230.0565912226777
 10
142.77562649634262
 20
232.464309109219
 10
142.45990634219916
 20
233.86084796806531
 10
141.94757149425985
 20
234.9551573409517
 10
141.1386282721038
 20
235.74611300552957
 10
140.42405761862548
 20
237.0381612945604
 10
138.09947007727556
 20
239.21216514980097
 10
135.9849878979051
 20
240.48847432595093
 10
133.676139469436
 20
241.2625666552993
 10
131.90211033587897
 20
238.94247600334393
 10
131.20440301763017
 20
238.73461908606177
 10
129.4202558829354
 20
237.3144715578942
 10
129.4270012170272
 20
236.714509475369
 10
131.13926023001693
 20
235.63369077066622
 10
132.54366864530363
 20
235.24945516186364
 10
134.54579069841827
 20
235.07195224799452
 10
136.15918025333576
 20
233.89001564052222
 10
136.173795143868
 20
232.59009779505095
 10
135.47496360327057
 20
232.48223455818965
 10
134.78737428615946
 20
231.37443451711965
 10
135.09072799446795
 20
231.07782614290295
 10
135.92215566359667
 20
228.28699686990768
 10
136.32662727467465
 20
227.89151903761876
 10
137.1265767180416
 20
227.9005128164078
 10
137.63216623188913
 20
227.40616552604666
 10
138.4467305657883
 20
226.11524145936446
 10
138.66470548420818
 20
224.51759101732782
 10
137.4928868778736
 20
222.00425833862246
 10
135.12339255118587
 20
219.2774476308918
 10
134.43805167877204
 20
217.96966022898005
 10
134.45828768104744
 20
216.16977398140443
 10
135.60655972666822
 20
211.88241216914207
 10
135.62342306189774
 20
210.38250696282904
 10
134.56171613712172
 20
206.97035538268452
 10
132.88655646163687
 20
204.75138263349862
 10
131.40014192350748
 20
203.5345951332187
 10
130.6260495941591
 20
201.22574670474964
 10
129.9395844993966
 20
200.0179529832588
 10
128.7531510025298
 20
198.80453815002477
 10
126.76564383994737
 20
197.68212321842253
 10
124.77026712092454
 20
197.25966404976637
 10
123.48383994363687
 20
196.0451249941837
 10
121.9929285161129
 20
195.22831221558727
 10
120.29865706070129
 20
194.70923203355613
 10
118.59876449354651
 20
194.69012025362937
 10
115.50458151224275
 20
194.1553009587174
 10
112.60364055768893
 20
194.22269219102787
  0
ENDSEC
  0
SECTION
  2
OBJECTS
  0
DICTIONARY
  5
A
330
0
100
AcDbDictionary
281
1
  3
ACAD_COLOR
350
B
  3
ACAD_GROUP
350
C
  3
ACAD_LAYOUT
350
D
  3
ACAD_MATERIAL
350
E
  3
ACAD_MLEADERSTYLE
350
F
  3
ACAD_MLINESTYLE
350
10
  3
ACAD_PLOTSETTINGS
350
11
  3
ACAD_PLOTSTYLENAME
350
12
  3
ACAD_SCALELIST
350
14
  3
ACAD_TABLESTYLE
350
15
  3
ACAD_VISUALSTYLE
350
16
  3
EZDXF_META
350
2D
  0
DICTIONARY
  5
B
330
A
100
AcDbDictionary
281
1
  0
DICTIONARY
  5
C
330
A
100
AcDbDictionary
281
1
  0
DICTIONARY
  5
D
330
A
100
AcDbDictionary
281
1
  3
Model
350
1A
  3
Layout1
350
1E
  0
DICTIONARY
  5
E
330
A
100
AcDbDictionary
281
1
  3
ByBlock
350
1F
  3
ByLayer
350
20
  3
Global
350
21
  0
DICTIONARY
  5
F
330
A
100
AcDbDictionary
281
1
  3
Standard
350
2C
  0
DICTIONARY
  5
10
330
A
100
AcDbDictionary
281
1
  3
Standard
350
22
  0
DICTIONARY
  5
11
330
A
100
AcDbDictionary
281
1
  0
ACDBDICTIONARYWDFLT
  5
12
330
A
100
AcDbDictionary
281
1
  3
Normal
350
13
100
AcDbDictionaryWithDefault
340
13
  0
ACDBPLACEHOLDER
  5
13
330
12
  0
DICTIONARY
  5
14
330
A
100
AcDbDictionary
281
1
  0
DICTIONARY
  5
15
330
A
100
AcDbDictionary
281
1
  0
DICTIONARY
  5
16
330
A
100
AcDbDictionary
281
1
  0
LAYOUT
  5
1A
330
D
100
AcDbPlotSettings
  1

  4
A3
  6

 40
7.5
 41
20.0
 42
7.5
 43
20.0
 44
420.0
 45
297.0
 46
0.0
 47
0.0
 48
0.0
 49
0.0
140
0.0
141
0.0
142
1.0
143
1.0
 70
1024
 72
1
 73
0
 74
5
  7

 75
16
 76
0
 77
2
 78
300
147
1.0
148
0.0
149
0.0
100
AcDbLayout
  1
Model
 70
1
 71
0
 10
0.0
 20
0.0
 11
420.0
 21
297.0
 12
0.0
 22
0.0
 32
0.0
 14
1e+20
 24
1e+20
 34
1e+20
 15
-1e+20
 25
-1e+20
 35
-1e+20
146
0.0
 13
0.0
 23
0.0
 33
0.0
 16
1.0
 26
0.0
 36
0.0
 17
0.0
 27
1.0
 37
0.0
 76
1
330
17
  0
LAYOUT
  5
1E
330
D
100
AcDbPlotSettings
  1

  4
A3
  6

 40
7.5
 41
20.0
 42
7.5
 43
20.0
 44
420.0
 45
297.0
 46
0.0
 47
0.0
 48
0.0
 49
0.0
140
0.0
141
0.0
142
1.0
143
1.0
 70
0
 72
1
 73
0
 74
5
  7

 75
16
 76
0
 77
2
 78
300
147
1.0
148
0.0
149
0.0
100
AcDbLayout
  1
Layout1
 70
1
 71
1
 10
0.0
 20
0.0
 11
420.0
 21
297.0
 12
0.0
 22
0.0
 32
0.0
 14
1e+20
 24
1e+20
 34
1e+20
 15
-1e+20
 25
-1e+20
 35
-1e+20
146
0.0
 13
0.0
 23
0.0
 33
0.0
 16
1.0
 26
0.0
 36
0.0
 17
0.0
 27
1.0
 37
0.0
 76
1
330
1B
  0
MATERIAL
  5
1F
102
{ACAD_REACTORS
330
E
102
}
330
E
100
AcDbMaterial
  1
ByBlock
  2

 70
0
 40
1.0
 71
1
 41
1.0
 91
-1023410177
 42
1.0
 72
1
  3

 73
1
 74
1
 75
1
 44
0.5
 73
0
 45
1.0
 46
1.0
 77
1
  4

 78
1
 79
1
170
1
 48
1.0
171
1
  6

172
1
173
1
174
1
140
1.0
141
1.0
175
1
  7

176
1
177
1
178
1
143
1.0
179
1
  8

270
1
271
1
272
1
145
1.0
146
1.0
273
1
  9

274
1
275
1
276
1
 42
1.0
 72
1
  3

 73
1
 74
1
 75
1
 94
63
  0
MATERIAL
  5
20
102
{ACAD_REACTORS
330
E
102
}
330
E
100
AcDbMaterial
  1
ByLayer
  2

 70
0
 40
1.0
 71
1
 41
1.0
 91
-1023410177
 42
1.0
 72
1
  3

 73
1
 74
1
 75
1
 44
0.5
 73
0
 45
1.0
 46
1.0
 77
1
  4

 78
1
 79
1
170
1
 48
1.0
171
1
  6

172
1
173
1
174
1
140
1.0
141
1.0
175
1
  7

176
1
177
1
178
1
143
1.0
179
1
  8

270
1
271
1
272
1
145
1.0
146
1.0
273
1
  9

274
1
275
1
276
1
 42
1.0
 72
1
  3

 73
1
 74
1
 75
1
 94
63
  0
MATERIAL
  5
21
102
{ACAD_REACTORS
330
E
102
}
330
E
100
AcDbMaterial
  1
Global
  2

 70
0
 40
1.0
 71
1
 41
1.0
 91
-1023410177
 42
1.0
 72
1
  3

 73
1
 74
1
 75
1
 44
0.5
 73
0
 45
1.0
 46
1.0
 77
1
  4

 78
1
 79
1
170
1
 48
1.0
171
1
  6

172
1
173
1
174
1
140
1.0
141
1.0
175
1
  7

176
1
177
1
178
1
143
1.0
179
1
  8

270
1
271
1
272
1
145
1.0
146
1.0
273
1
  9

274
1
275
1
276
1
 42
1.0
 72
1
  3

 73
1
 74
1
 75
1
 94
63
  0
MLINESTYLE
  5
22
102
{ACAD_REACTORS
330
10
102
}
330
10
100
AcDbMlineStyle
  2
Standard
 70
0
  3

 62
256
 51
90.0
 52
90.0
 71
2
 49
0.5
 62
256
  6
BYLAYER
 49
-0.5
 62
256
  6
BYLAYER
  0
MLEADERSTYLE
  5
2C
102
{ACAD_REACTORS
330
F
102
}
330
F
100
AcDbMLeaderStyle
179
2
170
2
171
1
172
0
 90
2
 40
0.0
 41
0.0
173
1
 91
-1056964608
 92
-2
290
1
 42
2.0
291
1
 43
8.0
  3
Standard
 44
4.0
300

342
29
174
1
175
1
176
0
178
1
 93
-1056964608
 45
4.0
292
0
297
0
 46
4.0
 94
-1056964608
 47
1.0
 49
1.0
140
1.0
294
1
141
0.0
177
0
142
1.0
295
0
296
0
143
3.75
271
0
272
9
273
9
  0
DICTIONARY
  5
2D
330
A
100
AcDbDictionary
280
1
281
1
  3
CREATED_BY_EZDXF
350
2E
  3
WRITTEN_BY_EZDXF
350
3A
  0
DICTIONARYVAR
  5
2E
330
2D
100
DictionaryVariables
280
0
  1
1.4.4 @ 2026-08-13T04:04:41.921890+00:00
  0
DICTIONARYVAR
  5
3A
330
2D
100
DictionaryVariables
280
0
  1
1.4.4 @ 2026-08-13T04:04:41.929257+00:00
  0
ENDSEC
  0
EOF
