  0
SECTION
  2
HEADER
  9
$ACADVER
  1
AC1024
  9
$ACADMAINTVER
 70
6
  9
$DWGCODEPAGE
  3
ANSI_1252
  9
$LASTSAVEDBY
  1
ezdxf
  9
$INSBASE
 10
0.0
 20
0.0
 30
0.0
  9
$EXTMIN
 10
1e+20
 20
1e+20
 30
1e+20
  9
$EXTMAX
 10
-1e+20
 20
-1e+20
 30
-1e+20
  9
$LIMMIN
 10
0.0
 20
0.0
  9
$LIMMAX
 10
420.0
 20
297.0
  9
$ORTHOMODE
 70
0
  9
$REGENMODE
 70
1
  9
$FILLMODE
 70
1
  9
$QTEXTMODE
 70
0
  9
$MIRRTEXT
 70
1
  9
$LTSCALE
 40
1.0
  9
$ATTMODE
 70
1
  9
$TEXTSIZE
 40
2.5
  9
$TRACEWID
 40
1.0
  9
$TEXTSTYLE
  7
Standard
  9
$CLAYER
  8
0
  9
$CELTYPE
  6
ByLayer
  9
$CECOLOR
 62
256
  9
$CELTSCALE
 40
1.0
  9
$DISPSILH
 70
0
  9
$DIMSCALE
 40
1.0
  9
$DIMASZ
 40
2.5
  9
$DIMEXO
 40
0.625
  9
$DIMDLI
 40
3.75
  9
$DIMRND
 40
0.0
  9
$DIMDLE
 40
0.0
  9
$DIMEXE
 40
1.25
  9
$DIMTP
 40
0.0
  9
$DIMTM
 40
0.0
  9
$DIMTXT
 40
2.5
  9
$DIMCEN
 40
2.5
  9
$DIMTSZ
 40
0.0
  9
$DIMTOL
 70
0
  9
$DIMLIM
 70
0
  9
$DIMTIH
 70
0
  9
$DIMTOH
 70
0
  9
$DIMSE1
 70
0
  9
$DIMSE2
 70
0
  9
$DIMTAD
 70
1
  9
$DIMZIN
 70
8
  9
$DIMBLK
  1

  9
$DIMASO
 70
1
  9
$DIMSHO
 70
1
  9
$DIMPOST
  1

  9
$DIMAPOST
  1

  9
$DIMALT
 70
0
  9
$DIMALTD
 70
3
  9
$DIMALTF
 40
0.03937007874
  9
$DIMLFAC
 40
1.0
  9
$DIMTOFL
 70
1
  9
$DIMTVP
 40
0.0
  9
$DIMTIX
 70
0
  9
$DIMSOXD
 70
0
  9
$DIMSAH
 70
0
  9
$DIMBLK1
  1

  9
$DIMBLK2
  1

  9
$DIMSTYLE
  2
ISO-25
  9
$DIMCLRD
 70
0
  9
$DIMCLRE
 70
0
  9
$DIMCLRT
 70
0
  9
$DIMTFAC
 40
1.0
  9
$DIMGAP
 40
0.625
  9
$DIMJUST
 70
0
  9
$DIMSD1
 70
0
  9
$DIMSD2
 70
0
  9
$DIMTOLJ
 70
0
  9
$DIMTZIN
 70
8
  9
$DIMALTZ
 70
0
  9
$DIMALTTZ
 70
0
  9
$DIMUPT
 70
0
  9
$DIMDEC
 70
2
  9
$DIMTDEC
 70
2
  9
$DIMALTU
 70
2
  9
$DIMALTTD
 70
3
  9
$DIMTXSTY
  7
Standard
  9
$DIMAUNIT
 70
0
  9
$DIMADEC
 70
0
  9
$DIMALTRND
 40
0.0
  9
$DIMAZIN
 70
0
  9
$DIMDSEP
 70
44
  9
$DIMATFIT
 70
3
  9
$DIMFRAC
 70
0
  9
$DIMLDRBLK
  1

  9
$DIMLUNIT
 70
2
  9
$DIMLWD
 70
-2
  9
$DIMLWE
 70
-2
  9
$DIMTMOVE
 70
0
  9
$DIMFXL
 40
1.0
  9
$DIMFXLON
 70
0
  9
$DIMJOGANG
 40
0.785398163397
  9
$DIMTFILL
 70
0
  9
$DIMTFILLCLR
 70
0
  9
$DIMARCSYM
 70
0
  9
$DIMLTYPE
  6

  9
$DIMLTEX1
  6

  9
$DIMLTEX2
  6

  9
$DIMTXTDIRECTION
 70
0
  9
$LUNITS
 70
2
  9
$LUPREC
 70
4
  9
$SKETCHINC
 40
1.0
  9
$FILLETRAD
 40
10.0
  9
$AUNITS
 70
0
  9
$AUPREC
 70
2
  9
$MENU
  1
.
  9
$ELEVATION
 40
0.0
  9
$PELEVATION
 40
0.0
  9
$THICKNESS
 40
0.0
  9
$LIMCHECK
 70
0
  9
$CHAMFERA
 40
0.0
  9
$CHAMFERB
 40
0.0
  9
$CHAMFERC
 40
0.0
  9
$CHAMFERD
 40
0.0
  9
$SKPOLY
 70
0
  9
$TDCREATE
 40
2461280.63431713
  9
$TDUCREATE
 40
2458532.153996898
  9
$TDUPDATE
 40
2461280.63431713
  9
$TDUUPDATE
 40
2458532.1544311
  9
$TDINDWG
 40
0.0
  9
$TDUSRTIMER
 40
0.0
  9
$USRTIMER
 70
1
  9
$ANGBASE
 50
0.0
  9
$ANGDIR
 70
0
  9
$PDMODE
 70
0
  9
$PDSIZE
 40
0.0
  9
$PLINEWID
 40
0.0
  9
$SPLFRAME
 70
0
  9
$SPLINETYPE
 70
6
  9
$SPLINESEGS
 70
8
  9
$HANDSEED
  5
3B
  9
$SURFTAB1
 70
6
  9
$SURFTAB2
 70
6
  9
$SURFTYPE
 70
6
  9
$SURFU
 70
6
  9
$SURFV
 70
6
  9
$UCSBASE
  2

  9
$UCSNAME
  2

  9
$UCSORG
 10
0.0
 20
0.0
 30
0.0
  9
$UCSXDIR
 10
1.0
 20
0.0
 30
0.0
  9
$UCSYDIR
 10
0.0
 20
1.0
 30
0.0
  9
$UCSORTHOREF
  2

  9
$UCSORTHOVIEW
 70
0
  9
$UCSORGTOP
 10
0.0
 20
0.0
 30
0.0
  9
$UCSORGBOTTOM
 10
0.0
 20
0.0
 30
0.0
  9
$UCSORGLEFT
 10
0.0
 20
0.0
 30
0.0
  9
$UCSORGRIGHT
 10
0.0
 20
0.0
 30
0.0
  9
$UCSORGFRONT
 10
0.0
 20
0.0
 30
0.0
  9
$UCSORGBACK
 10
0.0
 20
0.0
 30
0.0
  9
$PUCSBASE
  2

  9
$PUCSNAME
  2

  9
$PUCSORG
 10
0.0
 20
0.0
 30
0.0
  9
$PUCSXDIR
 10
1.0
 20
0.0
 30
0.0
  9
$PUCSYDIR
 10
0.0
 20
1.0
 30
0.0
  9
$PUCSORTHOREF
  2

  9
$PUCSORTHOVIEW
 70
0
  9
$PUCSORGTOP
 10
0.0
 20
0.0
 30
0.0
  9
$PUCSORGBOTTOM
 10
0.0
 20
0.0
 30
0.0
  9
$PUCSORGLEFT
 10
0.0
 20
0.0
 30
0.0
  9
$PUCSORGRIGHT
 10
0.0
 20
0.0
 30
0.0
  9
$PUCSORGFRONT
 10
0.0
 20
0.0
 30
0.0
  9
$PUCSORGBACK
 10
0.0
 20
0.0
 30
0.0
  9
$USERI1
 70
0
  9
$USERI2
 70
0
  9
$USERI3
 70
0
  9
$USERI4
 70
0
  9
$USERI5
 70
0
  9
$USERR1
 40
0.0
  9
$USERR2
 40
0.0
  9
$USERR3
 40
0.0
  9
$USERR4
 40
0.0
  9
$USERR5
 40
0.0
  9
$WORLDVIEW
 70
1
  9
$SHADEDGE
 70
3
  9
$SHADEDIF
 70
70
  9
$TILEMODE
 70
1
  9
$MAXACTVP
 70
64
  9
$PINSBASE
 10
0.0
 20
0.0
 30
0.0
  9
$PLIMCHECK
 70
0
  9
$PEXTMIN
 10
1e+20
 20
1e+20
 30
1e+20
  9
$PEXTMAX
 10
-1e+20
 20
-1e+20
 30
-1e+20
  9
$PLIMMIN
 10
0.0
 20
0.0
  9
$PLIMMAX
 10
420.0
 20
297.0
  9
$UNITMODE
 70
0
  9
$VISRETAIN
 70
1
  9
$PLINEGEN
 70
0
  9
$PSLTSCALE
 70
1
  9
$TREEDEPTH
 70
3020
  9
$CMLSTYLE
  2
Standard
  9
$CMLJUST
 70
0
  9
$CMLSCALE
 40
20.0
  9
$PROXYGRAPHICS
 70
1
  9
$MEASUREMENT
 70
1
  9
$CELWEIGHT
370
-1
  9
$ENDCAPS
280
0
  9
$JOINSTYLE
280
0
  9
$LWDISPLAY
290
0
  9
$INSUNITS
 70
6
  9
$HYPERLINKBASE
  1

  9
$STYLESHEET
  1

  9
$XEDIT
290
1
  9
$CEPSNTYPE
380
0
  9
$PSTYLEMODE
290
1
  9
$FINGERPRINTGUID
  2
{79FC885A-591A-4EFD-AF28-E423793620A1}
  9
$VERSIONGUID
  2
{DC42F3EF-B220-4460-8136-8DEBDB17FF1C}
  9
$EXTNAMES
290
1
  9
$PSVPSCALE
 40
0.0
  9
$OLESTARTUP
290
0
  9
$SORTENTS
280
127
  9
$INDEXCTL
280
0
  9
$HIDETEXT
280
1
  9
$XCLIPFRAME
280
1
  9
$HALOGAP
280
0
  9
$OBSCOLOR
 70
257
  9
$OBSLTYPE
280
0
  9
$INTERSECTIONDISPLAY
280
0
  9
$INTERSECTIONCOLOR
 70
257
  9
$DIMASSOC
280
2
  9
$PROJECTNAME
  1

  9
$CAMERADISPLAY
290
0
  9
$LENSLENGTH
 40
50.0
  9
$CAMERAHEIGHT
 40
0.0
  9
$STEPSPERSEC
 40
24.0
  9
$STEPSIZE
 40
100.0
  9
$3DDWFPREC
 40
2.0
  9
$PSOLWIDTH
 40
0.005
  9
$PSOLHEIGHT
 40
0.08
  9
$LOFTANG1
 40
1.570796326795
  9
$LOFTANG2
 40
1.570796326795
  9
$LOFTMAG1
 40
0.0
  9
$LOFTMAG2
 40
0.0
  9
$LOFTPARAM
 70
7
  9
$LOFTNORMALS
280
1
  9
$LATITUDE
 40
37.795
  9
$LONGITUDE
 40
-122.394
  9
$NORTHDIRECTION
 40
0.0
  9
$TIMEZONE
 70
-8000
  9
$LIGHTGLYPHDISPLAY
280
1
  9
$TILEMODELIGHTSYNCH
280
1
  9
$CMATERIAL
347
20
  9
$SOLIDHIST
280
0
  9
$SHOWHIST
280
1
  9
$DWFFRAME
280
2
  9
$DGNFRAME
280
2
  9
$REALWORLDSCALE
290
1
  9
$INTERFERECOLOR
 62
256
  9
$CSHADOW
280
0
  9
$SHADOWPLANELOCATION
 40
0.0
  0
ENDSEC
  0
SECTION
  2
CLASSES
  0
CLASS
  1
ACDBDICTIONARYWDFLT
  2
AcDbDictionaryWithDefault
  3
ObjectDBX Classes
 90
0
 91
0
280
0
281
0
  0
CLASS
  1
SUN
  2
AcDbSun
  3
SCENEOE
 90
1153
 91
0
280
0
281
0
  0
CLASS
  1
VISUALSTYLE
  2
AcDbVisualStyle
  3
ObjectDBX Classes
 90
4095
 91
0
280
0
281
0
  0
CLASS
  1
MATERIAL
  2
AcDbMaterial
  3
ObjectDBX Classes
 90
1153
 91
0
280
0
281
0
  0
CLASS
  1
SCALE
  2
AcDbScale
  3
ObjectDBX Classes
 90
1153
 91
0
280
0
281
0
  0
CLASS
  1
TABLESTYLE
  2
AcDbTableStyle
  3
ObjectDBX Classes
 90
4095
 91
0
280
0
281
0
  0
CLASS
  1
MLEADERSTYLE
  2
AcDbMLeaderStyle
  3
ACDB_MLEADERSTYLE_CLASS
 90
4095
 91
0
280
0
281
0
  0
CLASS
  1
DICTIONARYVAR
  2
AcDbDictionaryVar
  3
ObjectDBX Classes
 90
0
 91
0
280
0
281
0
  0
CLASS
  1
CELLSTYLEMAP
  2
AcDbCellStyleMap
  3
ObjectDBX Classes
 90
1152
 91
0
280
0
281
0
  0
CLASS
  1
MENTALRAYRENDERSETTINGS
  2
AcDbMentalRayRenderSettings
  3
SCENEOE
 90
1024
 91
0
280
0
281
0
  0
CLASS
  1
ACDBDETAILVIEWSTYLE
  2
AcDbDetailViewStyle
  3
ObjectDBX Classes
 90
1025
 91
0
280
0
281
0
  0
CLASS
  1
ACDBSECTIONVIEWSTYLE
  2
AcDbSectionViewStyle
  3
ObjectDBX Classes
 90
1025
 91
0
280
0
281
0
  0
CLASS
  1
RASTERVARIABLES
  2
AcDbRasterVariables
  3
ISM
 90
0
 91
0
280
0
281
0
  0
CLASS
  1
ACDBPLACEHOLDER
  2
AcDbPlaceHolder
  3
ObjectDBX Classes
 90
0
 91
0
280
0
281
0
  0
CLASS
  1
LAYOUT
  2
AcDbLayout
  3
ObjectDBX Classes
 90
0
 91
0
280
0
281
0
  0
ENDSEC
  0
SECTION
  2
TABLES
  0
TABLE
  2
VPORT
  5
8
330
0
100
AcDbSymbolTable
 70
1
  0
VPORT
  5
23
330
8
100
AcDbSymbolTableRecord
100
AcDbViewportTableRecord
  2
*Active
 70
0
 10
0.0
 20
0.0
 11
1.0
 21
1.0
 12
0.0
 22
0.0
 13
0.0
 23
0.0
 14
0.5
 24
0.5
 15
0.5
 25
0.5
 16
0.0
 26
0.0
 36
1.0
 17
0.0
 27
0.0
 37
0.0
 40
1000.0
 41
1.34
 42
50.0
 43
0.0
 44
0.0
 50
0.0
 51
0.0
 71
0
 72
1000
 73
1
 74
3
 75
0
 76
0
 77
0
 78
0
281
0
 65
0
146
0.0
  0
ENDTAB
  0
TABLE
  2
LTYPE
  5
2
330
0
100
AcDbSymbolTable
 70
3
  0
LTYPE
  5
24
330
2
100
AcDbSymbolTableRecord
100
AcDbLinetypeTableRecord
  2
ByBlock
 70
0
  3

 72
65
 73
0
 40
0.0
  0
LTYPE
  5
25
330
2
100
AcDbSymbolTableRecord
100
AcDbLinetypeTableRecord
  2
ByLayer
 70
0
  3

 72
65
 73
0
 40
0.0
  0
LTYPE
  5
26
330
2
100
AcDbSymbolTableRecord
100
AcDbLinetypeTableRecord
  2
Continuous
 70
0
  3

 72
65
 73
0
 40
0.0
  0
ENDTAB
  0
TABLE
  2
LAYER
  5
1
330
0
100
AcDbSymbolTable
 70
3
  0
LAYER
  5
27
330
1
100
AcDbSymbolTableRecord
100
AcDbLayerTableRecord
  2
0
 70
0
 62
7
  6
Continuous
370
-3
390
13
347
21
  0
LAYER
  5
28
330
1
100
AcDbSymbolTableRecord
100
AcDbLayerTableRecord
  2
Defpoints
 70
0
 62
7
  6
Continuous
290
0
370
-3
390
13
347
21
  0
LAYER
  5
2F
330
1
100
AcDbSymbolTableRecord
100
AcDbLayerTableRecord
  2
TOPPERS_CUT
 70
0
 62
4
  6
Continuous
370
-3
390
13
347
21
  0
ENDTAB
  0
TABLE
  2
STYLE
  5
5
330
0
100
AcDbSymbolTable
 70
1
  0
STYLE
  5
29
330
5
100
AcDbSymbolTableRecord
100
AcDbTextStyleTableRecord
  2
Standard
 70
0
 40
0.0
 41
1.0
 50
0.0
 71
0
 42
2.5
  3
txt
  4

  0
ENDTAB
  0
TABLE
  2
VIEW
  5
7
330
0
100
AcDbSymbolTable
 70
0
  0
ENDTAB
  0
TABLE
  2
UCS
  5
6
330
0
100
AcDbSymbolTable
 70
0
  0
ENDTAB
  0
TABLE
  2
APPID
  5
3
330
0
100
AcDbSymbolTable
 70
3
  0
APPID
  5
2A
330
3
100
AcDbSymbolTableRecord
100
AcDbRegAppTableRecord
  2
ACAD
 70
0
  0
APPID
  5
38
330
3
100
AcDbSymbolTableRecord
100
AcDbRegAppTableRecord
  2
HATCHBACKGROUNDCOLOR
 70
0
  0
APPID
  5
39
330
3
100
AcDbSymbolTableRecord
100
AcDbRegAppTableRecord
  2
EZDXF
 70
0
  0
ENDTAB
  0
TABLE
  2
DIMSTYLE
  5
4
330
0
100
AcDbSymbolTable
 70
1
100
AcDbDimStyleTable
  0
DIMSTYLE
105
2B
330
4
100
AcDbSymbolTableRecord
100
AcDbDimStyleTableRecord
  2
Standard
 70
0
 40
1.0
 41
2.5
 42
0.625
 43
3.75
 44
1.25
 45
0.0
 46
0.0
 47
0.0
 48
0.0
 49
2.5
140
2.5
141
2.5
142
0.0
143
0.03937007874
144
1.0
145
0.0
146
1.0
147
0.625
148
0.0
 69
0
 70
0
 71
0
 72
0
 73
0
 74
0
 75
0
 76
0
 77
1
 78
8
 79
3
170
0
171
3
172
1
173
0
174
0
175
0
176
0
177
0
178
0
179
2
271
2
272
2
273
2
274
3
275
0
276
0
277
2
278
44
279
0
280
0
281
0
282
0
283
0
284
8
285
0
286
0
288
0
289
3
290
0
371
-2
372
-2
  0
ENDTAB
  0
TABLE
  2
BLOCK_RECORD
  5
9
330
0
100
AcDbSymbolTable
 70
2
  0
BLOCK_RECORD
  5
17
330
9
100
AcDbSymbolTableRecord
100
AcDbBlockTableRecord
  2
*Model_Space
340
1A
 70
0
280
1
281
0
  0
BLOCK_RECORD
  5
1B
330
9
100
AcDbSymbolTableRecord
100
AcDbBlockTableRecord
  2
*Paper_Space
340
1E
 70
0
280
1
281
0
  0
ENDTAB
  0
ENDSEC
  0
SECTION
  2
BLOCKS
  0
BLOCK
  5
18
330
17
100
AcDbEntity
  8
0
100
AcDbBlockBegin
  2
*Model_Space
 70
0
 10
0.0
 20
0.0
 30
0.0
  3
*Model_Space
  1

  0
ENDBLK
  5
19
330
17
100
AcDbEntity
  8
0
100
AcDbBlockEnd
  0
BLOCK
  5
1C
330
1B
100
AcDbEntity
  8
0
100
AcDbBlockBegin
  2
*Paper_Space
 70
0
 10
0.0
 20
0.0
 30
0.0
  3
*Paper_Space
  1

  0
ENDBLK
  5
1D
330
1B
100
AcDbEntity
  8
0
100
AcDbBlockEnd
  0
ENDSEC
  0
SECTION
  2
ENTITIES
  0
LWPOLYLINE
  5
30
330
17
100
AcDbEntity
  8
TOPPERS_CUT
100
AcDbPolyline
 90
112
 70
1
 10
86.84838885427658
 20
51.749025473396294
 10
87.7132117271452
 20
55.058418378229945
 10
89.98647071516365
 20
57.58275860359445
 10
91.57892907249132
 20
58.29974980310616
 10
94.07240087150856
 20
58.926326524271055
 10
96.24779438171706
 20
61.249613651541964
 10
98.83487394456532
 20
62.477220809998144
 10
101.03368488165795
 20
62.60063257168171
 10
101.63471531894923
 20
62.50702480785068
 10
102.44105656831304
 20
61.91557422701199
 10
103.14101691190902
 20
61.92302522647511
 10
103.94735816127283
 20
61.33157464563643
 10
105.44940204025366
 20
61.14755240345859
 10
107.74288516967206
 20
61.772000267634
 10
110.2459368251419
 20
61.498627975604066
 10
112.45858533266608
 20
60.32211338489509
 10
113.97553121057317
 20
58.73817045552528
 10
114.67762041115861
 20
58.54563278538956
 10
115.28290856242884
 20
58.05204768236083
 10
117.99020660147646
 20
57.38082690812265
 10
120.40816592107315
 20
55.70646950040602
 10
121.02196950030122
 20
54.412929718981886
 10
121.83256846364398
 20
53.421501798945506
 10
121.84853489106497
 20
51.92158677695412
 10
122.25915651521
 20
50.92590114293879
 10
121.7698291261602
 20
49.92063565247087
 10
122.28257394209413
 20
48.72602577735143
 10
121.29433930754195
 20
47.61544380961042
 10
122.09855169991627
 20
47.22398189837058
 10
124.39842140030305
 20
47.24846375374945
 10
124.59308792742824
 20
47.75056428473604
 10
124.79626988251133
 20
47.45271013732723
 10
125.49729465460203
 20
47.36016680199094
 10
126.19193285572433
 20
47.8675894754512
 10
127.19613391769751
 20
47.47825642120083
 10
128.08650307443975
 20
48.387785290848264
 10
128.18011083827076
 20
48.98881572813955
 10
127.77374692810467
 20
49.58452402295717
 10
127.27164639711808
 20
49.779190550082355
 10
127.06633558504556
 20
50.27703336709001
 10
126.87379791490984
 20
49.574944166504565
 10
126.17383757131388
 20
49.567493167041434
 10
125.77705351760035
 20
49.263252448664225
 10
125.58770913294885
 20
48.2611802436805
 10
125.38878489184472
 20
48.15905705189161
 10
125.08667303045698
 20
48.35585243600626
 10
124.97709883920496
 20
49.25473702070636
 10
124.36861740245051
 20
50.048305128133364
 10
124.86326693397397
 20
50.55359894460416
 10
124.95581026931029
 20
51.254623716694866
 10
125.35152989452904
 20
51.65885876987151
 10
126.1621288578718
 20
50.667430849835114
 10
126.95463253680407
 20
51.37590662138896
 10
127.35673873299125
 20
51.18017566576905
 10
127.66310830835789
 20
50.583402942456686
 10
127.96096245576673
 20
50.78658489753974
 10
128.15030684041824
 20
51.78865710252346
 10
128.54496203714228
 20
52.29288649049952
 10
128.2322058908072
 20
53.48962522260844
 10
128.30665394173303
 20
55.89055368628938
 10
131.00650098131752
 20
55.919293255647176
 10
131.32032155614735
 20
54.62256018873885
 10
131.92560970741755
 20
54.12897508571011
 10
132.70959795839195
 20
55.63740553565937
 10
135.08710899518874
 20
57.76283285032091
 10
136.2817188703082
 20
58.27557766625483
 10
138.47840095041136
 20
58.598978097537234
 10
140.0602150227917
 20
60.315912645043205
 10
142.04519971985397
 20
61.73712190212983
 10
144.34187613475655
 20
62.06158676190697
 10
146.64600354912224
 20
61.686091278088135
 10
148.14591857111364
 20
61.70205770550913
 10
151.13191104466486
 20
63.03391691274366
 10
153.83175808424934
 20
63.06265648210147
 10
154.537040570319
 20
62.570135807567475
 10
155.94228339998463
 20
62.085066132496614
 10
158.16451176396137
 20
60.00860252859282
 10
162.18131601185414
 20
58.45127031159134
 10
164.70565623721865
 20
56.17801132357289
 10
165.53967262744553
 20
52.98670803794913
 10
165.56309005432965
 20
50.78683267236177
 10
164.49082751239902
 20
48.17527125413464
 10
162.3111762882116
 20
46.251961466061424
 10
161.51654375228986
 20
45.74347436410643
 10
160.7176535023892
 20
45.63496460134914
 10
160.1230096360663
 20
45.12860635638361
 10
159.4890438591438
 20
38.92150659935609
 10
157.65088835064927
 20
33.10161103958948
 10
154.41600544044692
 20
26.96683047649832
 10
152.73951917574084
 20
24.748859826500492
 10
149.47696112467548
 20
21.213931968194398
 10
145.01340662752224
 20
17.766225302750932
 10
140.34028360431756
 20
15.216338793512827
 10
137.95106385407868
 20
14.190849161644971
 10
130.9674268455399
 20
12.616424145022254
 10
125.56986162336041
 20
12.358956336707804
 10
123.26786306598414
 20
12.534463150927788
 10
118.45855513915913
 20
13.38331959637542
 10
116.4522818722022
 20
13.961997035277307
 10
110.12177035349116
 20
16.794773749292446
 10
106.19431615545048
 20
19.35311374278291
 10
101.54880632940338
 20
23.60390642840047
 10
98.40534038233712
 20
27.670676871840193
 10
95.9575770648879
 20
32.14487565394074
 10
93.89276023072065
 20
38.22324150681103
 10
93.36724227284992
 20
40.61778339952358
 10
93.02893984264126
 20
44.2143861668187
 10
92.62470478946462
 20
44.61010579203746
 10
91.72688463325925
 20
44.40053726598601
 10
90.22058304029947
 20
44.98453684736156
 10
88.90788354597014
 20
46.17063129452314
 10
87.58773305217768
 20
48.056686085280695
  0
LWPOLYLINE
  5
31
330
17
100
AcDbEntity
  8
TOPPERS_CUT
100
AcDbPolyline
 90
63
 70
1
 10
36.294080360378615
 20
9.608523664521284
 10
34.68246229014574
 20
10.691430491399231
 10
33.05913550647081
 20
12.87427500107086
 10
29.69119903442683
 20
19.238786287907892
 10
27.843401725774168
 20
23.71937164097684
 10
27.129603811746655
 20
25.01184699390624
 10
26.523251231981703
 20
25.605426431734394
 10
25.517985741513783
 20
26.094753820784188
 10
18.409872542796702
 20
26.819134076053523
 10
12.396374884399638
 20
28.05519471876206
 10
9.884807800971933
 20
29.12852168918741
 10
9.277390792712245
 20
29.822095461814985
 10
8.561464021695269
 20
31.31455948434324
 10
8.748679549357318
 20
32.516620358925806
 10
10.125182809665144
 20
34.731397723439436
 10
12.006979886443762
 20
36.45152555642961
 10
12.300576319873638
 20
37.05468485071036
 10
15.967369424115649
 20
40.193893083797676
 10
20.32241415851157
 20
44.44048999914182
 10
20.61068844946778
 20
45.5436209674197
 10
19.764963345798844
 20
49.83486193583713
 10
18.677736861236458
 20
58.02375310444269
 10
18.661770433815455
 20
59.523668126434075
 10
19.041523631613224
 20
61.4278182016021
 10
19.431921114358325
 20
62.33202492877585
 10
19.92657064588179
 20
62.83731874524665
 10
21.821140864597204
 20
63.35751456064371
 10
22.721089877792036
 20
63.36709441709631
 10
24.52631004665536
 20
62.88628245600438
 10
31.06106794894422
 20
59.655657259781
 10
32.06952672489634
 20
58.86634686633293
 10
33.474769554561966
 20
58.38127719126207
 10
34.382169567219925
 20
57.690896704118686
 10
36.793742315848206
 20
56.61650530519861
 10
37.594761422738344
 20
56.52502639835704
 10
38.69150582004783
 20
56.83671811619739
 10
42.3700076377319
 20
58.87598866649105
 10
43.46675203504139
 20
59.18768038433139
 10
44.856028437286014
 20
60.20252573125191
 10
48.436664777160125
 20
62.040743183451966
 10
51.12480310330254
 20
63.16942043560344
 10
52.82044908091385
 20
63.58749305921161
 10
54.92245896869125
 20
63.40985738800216
 10
55.42455949967784
 20
63.21519086087699
 10
56.537270324408325
 20
62.02696755672595
 10
57.057466139805385
 20
60.13239733801053
 10
57.079819138194786
 20
58.03251630722259
 10
56.425629219872334
 20
53.72530891138415
 10
54.794913380439766
 20
47.20758186501103
 10
54.72259418650342
 20
44.606664731731236
 10
64.12105917286019
 20
35.40618344539486
 10
65.7465148135246
 20
33.02335026612438
 10
65.96992091000757
 20
30.825603757526483
 10
65.08487389573901
 20
29.41610321388193
 10
63.29668458279142
 20
28.29700581818305
 10
58.50760079736633
 20
27.24596990244159
 10
50.21658643697188
 20
26.35766765898332
 10
47.9262965930377
 20
25.433236790409623
 10
46.256196899299994
 20
22.615300131615243
 10
43.719145475704195
 20
16.68795923758607
 10
40.86933790577332
 20
11.957357075665803
 10
38.88967535118475
 20
10.036176144582052
 10
37.79399538237
 20
9.624490091942283
  0
LWPOLYLINE
  5
32
330
17
100
AcDbEntity
  8
TOPPERS_CUT
100
AcDbPolyline
 90
97
 70
1
 10
6.494270555716528
 20
75.19504160537531
 10
5.781537070183749
 20
76.38752262350528
 10
5.469845352343405
 20
77.48426702081477
 10
5.343240305175647
 20
79.98306096230566
 10
6.204869892560077
 20
83.59243687153759
 10
8.055798542991429
 20
88.2124004137111
 10
8.791887511702834
 20
94.22057592963449
 10
9.765220147328755
 20
96.73107858456746
 10
11.7406249879384
 20
99.05223685484891
 10
13.430948823076033
 20
99.9702811524542
 10
15.624437617694994
 20
100.5936645881349
 10
16.21908148401788
 20
101.10002283310043
 10
15.402095949706744
 20
102.69141676193335
 10
14.897866561730684
 20
103.08607195865741
 10
14.084074312903747
 20
104.37748288309209
 10
13.561749640517217
 20
106.47204177140631
 10
13.633004405958847
 20
109.17295323948557
 10
14.797810283225749
 20
112.48553942980341
 10
18.15716938360635
 20
116.32151472100252
 10
18.446508103057294
 20
117.32465135448095
 10
18.120978814785417
 20
119.72132210418297
 10
18.809230444939327
 20
120.8287107864398
 10
20.40701094474067
 20
121.04573031195439
 10
22.923900170642042
 20
119.4724316675319
 10
24.12383218823515
 20
119.4852048094687
 10
26.829001370293305
 20
119.01397270482937
 10
28.6363503961461
 20
118.33317207413856
 10
30.146909703084816
 20
117.34919515356535
 10
33.18399474438324
 20
113.88132629042744
 10
35.33390391442365
 20
109.20394555324383
 10
36.90826698734086
 20
111.62084044434577
 10
37.80076500107255
 20
112.33038064439435
 10
38.50072534466853
 20
112.33783164385747
 10
39.10494906744402
 20
111.94424087562818
 10
41.02825885551724
 20
109.76458965144077
 10
44.069539667089096
 20
115.2972753487459
 10
45.947079029888776
 20
117.41738052093379
 10
47.43634976693283
 20
118.43329029634904
 10
49.92662828046586
 20
119.3598500219122
 10
53.62109652557094
 20
119.89920555021445
 10
55.8050054637373
 20
121.42253799908997
 10
56.503901378838556
 20
121.52998333335252
 10
57.71021996740004
 20
120.94279046649278
 10
58.11871273455563
 20
120.14709350207629
 10
57.94427034883038
 20
117.74510060990062
 10
58.15596773187129
 20
116.64729178409641
 10
61.19198834467498
 20
113.27941725575795
 10
62.108968213785545
 20
111.68908775541972
 10
62.83128155577093
 20
109.59665772409494
 10
62.95682217444396
 20
107.19785811740346
 10
62.76854221828718
 20
106.0957915776203
 10
61.69521524786181
 20
103.58422449419261
 10
60.316583130564524
 20
101.56943579927783
 10
60.61975942044701
 20
101.27264608036374
 10
62.22392649121675
 20
100.88969959708177
 10
64.73655800313918
 20
99.71637829185701
 10
66.55668017092879
 20
97.83564564357312
 10
67.06623170137851
 20
96.94101877285195
 10
67.99917799791007
 20
93.85077425052236
 10
68.34280257059241
 20
89.75419980923012
 10
68.76087519420058
 20
88.05855383161882
 10
70.09060554444565
 20
85.27255002766644
 10
71.01929412699829
 20
82.58228284453455
 10
71.4522687495327
 20
79.48671617973129
 10
70.97677893091445
 20
77.18152433687084
 10
70.38852163555997
 20
76.07520008310875
 10
69.69601229142711
 20
75.36778874004965
 10
67.20786263488354
 20
74.24124034488763
 10
64.40802126049962
 20
74.21143634703509
 10
61.10075721265546
 20
74.87627055030487
 10
56.47760038499776
 20
77.0271822051345
 10
52.95331681163899
 20
79.28979690820562
 10
49.5205121451218
 20
82.35343071816689
 10
48.816294087546886
 20
82.74595705790145
 10
42.942112674548866
 20
89.6838236411667
 10
42.066645516732905
 20
87.37437408432731
 10
39.68807005144136
 20
85.34894110446521
 10
39.08597518565534
 20
85.54254320309566
 10
37.18821168145572
 20
85.32233039209687
 10
36.38399928908139
 20
85.7137923033367
 10
34.76705907637484
 20
87.29667080421179
 10
34.15538435413622
 20
88.39022191603706
 10
34.04793901987366
 20
89.08911783113831
 10
33.84582149328535
 20
89.28697764374769
 10
33.14799000667883
 20
89.07953797468572
 10
30.981111924428212
 20
85.9562961690194
 10
29.298239088753707
 20
84.33829152781811
 10
29.104636990123254
 20
83.73619666203209
 10
28.1110802130974
 20
83.1255863682882
 10
26.53033056921179
 20
81.3086574859828
 10
23.95389529131086
 20
79.0811069795324
 10
20.87642391091807
 20
76.94822866540771
 10
18.29147320505927
 20
75.5206328373527
 10
15.603334878916849
 20
74.3919555852012
 10
13.009868745100187
 20
73.76431443554159
 10
10.112161892906313
 20
73.53345733959547
 10
8.30800615253772
 20
73.91427496588798
  0
LWPOLYLINE
  5
33
330
17
100
AcDbEntity
  8
TOPPERS_CUT
100
AcDbPolyline
 90
158
 70
1
 10
94.08611455452908
 20
76.42746397115998
 10
93.07446249309275
 20
77.51675736900633
 10
92.36066457906524
 20
78.80923272193573
 10
91.42771828253368
 20
81.89947724426531
 10
91.40110757016535
 20
84.39933561425094
 10
92.17658039318188
 20
86.7077207425956
 10
94.64876362230447
 20
89.334184159749
 10
95.45510487166825
 20
88.74273357891032
 10
96.25505955006368
 20
88.75124900686818
 10
97.84326019341242
 20
89.8682175455776
 10
98.64427930030254
 20
89.77673863873603
 10
99.34956178637219
 20
89.28421796420204
 10
100.44843504067114
 20
89.39592101244354
 10
101.14307324179346
 20
89.90334368590379
 10
101.44412067468646
 20
89.80654263658857
 10
101.85261344184201
 20
89.01084567217211
 10
102.45257945063858
 20
89.01723224314051
 10
102.74936916955266
 20
89.32040853302297
 10
101.53347072453855
 20
90.80755041307756
 10
101.42708981877072
 20
91.40645199337938
 10
100.11545475293613
 20
92.49255210574152
 10
99.09528726354193
 20
94.38180018198328
 10
98.98890635777411
 20
94.98070176228511
 10
99.38036826901394
 20
95.78491415465945
 10
100.27180185425091
 20
96.59444868950744
 10
101.46641172937035
 20
97.10719350544137
 10
103.36311080507524
 20
97.42740065123958
 10
108.2692197812155
 20
96.87959163868496
 10
108.8617347905489
 20
97.58593855324935
 10
108.74151631434957
 20
99.4847664859437
 10
108.02452511483784
 20
101.07722484327137
 10
107.51816686987232
 20
101.67186870959424
 10
106.11185961171195
 20
102.25693271946454
 10
103.5120069069269
 20
102.22925757860148
 10
101.7014645955899
 20
103.21004121369053
 10
100.48024400810212
 20
105.19715476774225
 10
100.56640077247002
 20
106.49814554862948
 10
101.76101064758944
 20
107.01089036456342
 10
102.54712775555333
 20
108.31933214491383
 10
103.4449479117587
 20
108.52890067096527
 10
104.24916030413303
 20
108.13743875972546
 10
105.15868917378046
 20
107.24706960298322
 10
105.76078403956649
 20
107.05346750435277
 10
107.5564243519772
 20
107.47260455645565
 10
108.54678784351886
 20
108.38319785459782
 10
108.73826108515985
 20
109.18528138998269
 10
108.3180596045622
 20
111.08091603719285
 10
107.70319159683939
 20
112.47445015341641
 10
107.68616074092365
 20
114.0743595102072
 10
108.16590827352084
 20
115.97957401386995
 10
108.75629442586481
 20
116.88590959803318
 10
109.24029967244094
 20
118.39114676249824
 10
108.63288266418124
 20
119.08472053512583
 10
106.42023415665707
 20
120.26123512583479
 10
105.70750067112431
 20
121.45371614396478
 10
106.00109710455418
 20
122.05687543824551
 10
107.3903735067988
 20
123.07172078516604
 10
110.98165413162026
 20
123.90999488937184
 10
113.38258259530119
 20
123.83554683844602
 10
117.6919188481291
 20
122.98136825052475
 10
119.20354258356255
 20
121.89739699515205
 10
119.03016462633202
 20
119.39540976817693
 10
119.63864606308645
 20
118.60184166074994
 10
123.83521483917812
 20
118.946530661927
 10
124.73090613839402
 20
119.35608785757731
 10
125.9170005855556
 20
120.66878735190664
 10
125.60743772470471
 20
121.56554307961729
 10
123.6873212221157
 20
123.44521129940645
 10
123.47668826756951
 20
124.44302579041123
 10
123.8702790357988
 20
125.0472495131867
 10
126.2594987860377
 20
126.07273914505456
 10
128.15939114722678
 20
126.09296328645448
 10
130.25395003554104
 20
126.61528795884101
 10
133.46015532009105
 20
126.04938366187591
 10
136.67700488958843
 20
124.4835360169166
 10
137.49079713841536
 20
123.19212509248193
 10
137.50144142336268
 20
122.19218174448767
 10
136.624909837052
 20
119.9827265224477
 10
136.73554845679877
 20
118.9838476029482
 10
137.14191236696485
 20
118.38813930813058
 10
140.0449413616324
 20
118.11902473007956
 10
143.25221107467715
 20
117.45312609831505
 10
148.67638700922498
 20
115.21073553664387
 10
151.79749995790183
 20
113.24384612399209
 10
153.51337007691308
 20
111.76202638641116
 10
153.7186808889856
 20
111.26418356940349
 10
155.94410253844654
 20
108.88773696110141
 10
158.08656070902381
 20
104.91031656751382
 10
158.71207300169397
 20
102.51683910329598
 10
158.83335590638808
 20
100.51801683580223
 10
158.54721047242134
 20
99.21489719792548
 10
157.75257793649956
 20
98.70641009597048
 10
156.94942997261998
 20
98.99787767241091
 10
155.23036656812457
 20
100.77968041439009
 10
154.03149897902617
 20
100.66691293765386
 10
153.2283510151466
 20
100.95838051409427
 10
152.72199277018106
 20
101.55302438041716
 10
152.6145474359185
 20
102.2519202955184
 10
151.9071360928594
 20
102.94442963965125
 10
151.1125035569376
 20
102.43594253769625
 10
149.71151844125094
 20
102.52103487356942
 10
148.49561999623683
 20
104.008176753624
 10
147.69566531784145
 20
103.99966132566615
 10
145.91066929037805
 20
102.58058092556898
 10
145.30963885308677
 20
102.67418868940001
 10
143.70014963984335
 20
103.5571068466791
 10
143.00551143872104
 20
103.04968417321884
 10
142.52257062063967
 20
101.44445267395437
 10
142.1279154239156
 20
100.9402232859783
 10
139.6259281969405
 20
101.11360124320882
 10
138.63237141991465
 20
100.50299094946493
 10
138.43664046429473
 20
100.10088475327777
 10
138.55260122651515
 20
98.60203415978111
 10
138.36219241336892
 20
97.69995628959683
 10
138.0654026944548
 20
97.39677999971434
 10
135.4666144181645
 20
97.26911052405185
 10
134.46454221318078
 20
97.45845490870337
 10
133.76671072657425
 20
97.25101523964138
 10
133.17419571724085
 20
96.544668325077
 10
133.29973633591385
 20
94.14586871838553
 10
132.41149603616108
 20
93.03635117913925
 10
129.9127020946702
 20
92.90974613197149
 10
129.00743093900172
 20
93.40013794951602
 10
128.3095994523952
 20
93.19269828045402
 10
128.11493292527
 20
92.69059774946744
 10
129.04042822233845
 20
90.30031357073383
 10
129.05320136427525
 20
89.10038155314072
 10
128.36175644863712
 20
88.29297587528217
 10
126.86609914062467
 20
87.87703210866349
 10
125.97360112689299
 20
87.16749190861489
 10
126.99057533080297
 20
85.57822683677142
 10
127.79904543715622
 20
84.78678758633387
 10
128.3128546815849
 20
83.49218337641503
 10
127.82352729253509
 20
82.4869178859471
 10
126.6331751313946
 20
81.57419573081548
 10
125.33963534997046
 20
80.96039215158739
 10
124.74712034063705
 20
80.254045237023
 10
125.97046978511428
 20
78.06694301337244
 10
126.19706916708147
 20
75.56921350037626
 10
125.10564691224565
 20
74.75755010853881
 10
122.91002926063723
 20
74.33415534245697
 10
121.51010857344527
 20
74.3192533435307
 10
120.61441727422937
 20
73.9096961478804
 10
119.92510121558072
 20
72.90230180042302
 10
119.44854696846774
 20
70.69710429236198
 10
118.55924224022024
 20
69.68758108791512
 10
116.95933288342944
 20
69.67055023199939
 10
114.84242099672576
 20
71.2481065904008
 10
114.0403374613409
 20
71.43957983204179
 10
111.7404677609541
 20
71.4150979766629
 10
109.6480377296293
 20
70.69278463467754
 10
108.34811137723678
 20
70.678947064246
 10
107.24498040895887
 20
70.96722135520221
 10
106.23971491849098
 20
71.456548744252
 10
103.91429893423057
 20
73.83193092405936
 10
103.10902211336152
 20
74.32338717009863
 10
98.80926571698622
 20
74.27761674482508
 10
97.40615174431005
 20
74.56269775029709
  0
LWPOLYLINE
  5
34
330
17
100
AcDbEntity
  8
TOPPERS_CUT
100
AcDbPolyline
 90
156
 70
1
 10
91.03062451029264
 20
128.59789602409177
 10
91.70610299850975
 20
130.9052167239417
 10
92.98474078100762
 20
132.91894099036173
 10
93.37088054977379
 20
134.22312505673318
 10
94.16125537171659
 20
135.1315894978859
 10
94.84524928789158
 20
136.6389555193404
 10
95.43882872571973
 20
137.24530809910536
 10
96.22281697669413
 20
138.75373854905462
 10
96.10792064296844
 20
140.15259480775185
 10
95.69942787581287
 20
140.94829177216832
 10
94.78989900616544
 20
141.83866092891054
 10
93.1857319353957
 20
142.2216074121925
 10
91.69752562684639
 20
141.10570330197783
 10
90.89650651995625
 20
141.19718220881936
 10
89.98165550783514
 20
142.58752303955873
 10
89.77102255328897
 20
143.58533753056355
 10
90.24864122889669
 20
145.69054070382515
 10
91.52940786838403
 20
147.50427630064632
 10
92.52083578842041
 20
148.31487526398905
 10
94.71326015454464
 20
149.03825303446916
 10
95.10897977976342
 20
149.4424880876458
 10
94.59091282135581
 20
151.13706963676236
 10
93.57074533196162
 20
153.02631771300412
 10
93.06545151549082
 20
153.52096724452758
 10
91.8357155000452
 20
156.30803547697468
 10
91.72188359481423
 20
157.6068974008725
 10
92.10376564960146
 20
159.31105880644168
 10
93.08348485619578
 20
161.2215954525781
 10
94.07171949074798
 20
162.33217742031908
 10
96.95771762949978
 20
163.6629721990589
 10
100.55644925378438
 20
163.80128595966872
 10
101.25002302641195
 20
164.4087029679284
 10
101.85531117768218
 20
163.91511786489968
 10
102.55633594977287
 20
163.82257452956338
 10
102.86164109664483
 20
163.32579614105046
 10
103.36054834214724
 20
163.43111261832354
 10
103.85519787367068
 20
163.93640643479435
 10
103.8424247317339
 20
165.13633845238746
 10
103.3371309152631
 20
165.6309879839109
 10
103.33287320128416
 20
166.03096532310863
 10
102.4265376171209
 20
166.62135147545257
 10
102.91160729219177
 20
168.02659430511818
 10
100.1894072542179
 20
170.09773576654834
 10
99.47135162621144
 20
171.79018845867543
 10
99.01176629130869
 20
177.38561349346432
 10
100.16273459814406
 20
181.9981260361747
 10
100.84779294281375
 20
183.4054977228298
 10
101.73922652805075
 20
184.21503225767782
 10
105.1390339112312
 20
184.25122282649872
 10
105.84325196880611
 20
183.85869648676416
 10
106.73894326802201
 20
184.26825368241447
 10
107.34529584778697
 20
183.6746742445863
 10
107.74420875848993
 20
183.7789262933647
 10
107.83142995135256
 20
184.9799227394525
 10
107.52399594749113
 20
185.67668979756428
 10
107.1867579457772
 20
189.17329823005997
 10
107.57821985701703
 20
189.97751062243432
 10
108.97068954474587
 20
190.69237296495655
 10
111.56309125006779
 20
191.4200084494156
 10
112.2673093076427
 20
191.02748210968105
 10
113.26725265563695
 20
191.03812639462836
 10
114.67462434229205
 20
190.35306804995867
 10
116.39688103227168
 20
188.27128230358122
 10
117.00004032655242
 20
187.97768587015133
 10
117.4149196646764
 20
186.5820228969383
 10
118.21380991457707
 20
186.69053265969558
 10
118.61698053925898
 20
186.39480736927626
 10
120.81579147635162
 20
186.5182191309598
 10
121.51042967747392
 20
187.02564180442005
 10
121.9157291591453
 20
186.52992784440187
 10
122.41676526163712
 20
186.43525565207614
 10
122.91247922165533
 20
186.8405551337475
 10
123.79539737893444
 20
188.45004434699086
 10
125.58465112037678
 20
189.46914740789035
 10
128.68234664216948
 20
189.70213336082594
 10
131.38751582422762
 20
189.2309012561866
 10
133.2735706149852
 20
190.55105174997908
 10
134.46924491859937
 20
190.96380223111356
 10
135.96703108360128
 20
191.17975732813343
 10
137.96798220808452
 20
191.10105156322865
 10
139.6753368991379
 20
190.41918650404315
 10
141.08803072826666
 20
189.2341564853763
 10
141.60822654366373
 20
187.3395862666609
 10
141.7390893048104
 20
184.44081498597228
 10
142.27844483311267
 20
180.74634674086718
 10
142.79544736302552
 20
179.15175952655005
 10
143.60498189787353
 20
178.2603259413131
 10
145.08893049244392
 20
179.77620739072546
 10
146.3814058453733
 20
180.490005304753
 10
147.67813891228167
 20
180.8038258795828
 10
148.5727657830028
 20
181.31337741003253
 10
149.8716277069006
 20
181.4272093152635
 10
151.17261848778787
 20
181.3410525508956
 10
153.4810036161325
 20
180.56557972787908
 10
155.3968624047426
 20
179.0858888472876
 10
157.33400976324737
 20
175.60631127070764
 10
159.35837831461475
 20
173.32773014021552
 10
159.87005870205394
 20
172.23311459989552
 10
159.88921841495912
 20
170.43321657350586
 10
159.59881526701346
 20
169.53007427482683
 10
159.2030956417947
 20
169.12583922165018
 10
158.60525848998762
 20
168.91946398108294
 10
157.79678838363435
 20
169.7109032315205
 10
156.89471051345
 20
169.90131204466672
 10
155.80967482958263
 20
168.4896826440327
 10
155.4245994893112
 20
167.08550424286182
 10
155.56823539239468
 20
162.9868009445801
 10
155.09274557377643
 20
160.68160910171963
 10
153.9183598400569
 20
158.26897192459663
 10
151.34405341914547
 20
155.84143274854733
 10
149.75053063332305
 20
155.22443588383507
 10
147.25599440581107
 20
154.69785349746962
 10
144.6529484155418
 20
154.9701613610048
 10
142.544551956796
 20
155.7477630410108
 10
140.73294521696428
 20
156.8285410108993
 10
139.71809987004374
 20
158.2178174131439
 10
138.20754056310503
 20
159.20179433371717
 10
134.11628826428645
 20
158.35819808703772
 10
133.22059696507057
 20
157.9486408913874
 10
131.6185587512903
 20
158.13159870507053
 10
131.42176336717563
 20
157.8294868436828
 10
132.4664127119487
 20
153.64036906705425
 10
132.4823791393697
 20
152.14045404506288
 10
131.69413317441635
 20
151.0320009343113
 10
130.38569139406596
 20
151.8181180422752
 10
129.3868124745664
 20
151.70747942252842
 10
128.7932330367383
 20
151.10112684276348
 10
128.50495874578206
 20
149.99799587448558
 10
128.72197827129665
 20
148.40021537468425
 10
128.36777135737248
 20
144.09620126433
 10
126.99978352502254
 20
141.08146922142097
 10
125.12330859071758
 20
138.8613697144337
 10
122.83834088925705
 20
137.43696717186288
 10
120.44699228202872
 20
136.61146620959386
 10
119.05984473677356
 20
135.39663219307448
 10
117.07166675422711
 20
134.27540594038615
 10
114.2782119508116
 20
133.64563593373708
 10
112.98999431186112
 20
132.53186068051184
 10
111.90602305648845
 20
131.02023694507838
 10
110.41462346245491
 20
130.204315839262
 10
109.81572188215311
 20
130.09793493349417
 10
107.3935048485775
 20
132.1722696804085
 10
105.90636296852293
 20
130.95637123539439
 10
105.00960724081229
 20
130.64680837454353
 10
103.90860512952386
 20
130.73509399590088
 10
103.20225821495949
 20
131.32760900523428
 10
102.6809979710677
 20
133.32217355874914
 10
102.1757041545969
 20
133.8168230902726
 10
101.47361495401145
 20
134.00936076040833
 10
99.68542564106386
 20
132.89026336470943
 10
97.99935951990516
 20
131.57224172790646
 10
97.50683884537116
 20
130.8669592418368
 10
96.51221763985059
 20
130.3563432828923
 10
94.03258341126488
 20
128.4298402093349
 10
92.64117815203079
 20
127.61498353201326
 10
91.74229356733068
 20
127.5054093407612
  0
LWPOLYLINE
  5
35
330
17
100
AcDbEntity
  8
TOPPERS_CUT
100
AcDbPolyline
 90
101
 70
1
 10
35.97419431860906
 20
124.21161120111553
 10
35.66356702926344
 20
125.20836126362558
 10
35.05508559250902
 20
126.0019293710526
 10
34.24767991465048
 20
126.69337428669071
 10
33.346666472960926
 20
126.78378876503754
 10
32.43607317481876
 20
127.77415225657917
 10
31.436129826824505
 20
127.76350797163184
 10
30.245777665684
 20
126.8507858165002
 10
29.642618371403245
 20
127.14438224993009
 10
29.21709474833194
 20
129.53998857113737
 10
28.911789601459997
 20
130.03676695965032
 10
28.409689070473412
 20
130.2314334867755
 10
28.297986022231914
 20
131.33030674107445
 10
25.261965409428214
 20
134.6981812694129
 10
23.732246389584297
 20
137.48205621637584
 10
22.900358856346894
 20
140.47337083240072
 10
22.870554858494362
 20
143.27321220678465
 10
23.060963671640614
 20
144.1752900769689
 10
22.24291370883474
 20
145.8666783406013
 10
20.424920398034615
 20
147.54742231928634
 10
19.602612721249812
 20
149.63878792211642
 10
19.977043776573915
 20
152.04290967128156
 10
21.451412514691697
 20
154.45874013388874
 10
20.939732127252505
 20
155.55335567420877
 10
19.727026967722598
 20
156.74051454986508
 10
19.111094531505042
 20
158.23404300088805
 10
19.19192915339927
 20
160.03500545577245
 10
20.768421083305945
 20
162.25191167727556
 10
20.8535134191791
 20
163.65289679296225
 10
20.646073750117118
 20
164.35072827956873
 10
19.237637634967292
 20
165.1357809590379
 10
18.428103100119294
 20
166.02721454427484
 10
18.424909814635093
 20
166.32719754867313
 10
19.109968159304806
 20
167.73456923532822
 10
20.10991150729906
 20
167.74521352027554
 10
20.505631132517827
 20
168.14944857345216
 10
20.69071780319041
 20
169.5514981176336
 10
15.51756116228311
 20
176.39682136556257
 10
13.167663322643856
 20
181.0720732457567
 10
12.342162360374852
 20
183.46342185298505
 10
12.229394883638628
 20
184.66228944208342
 10
12.42406141076381
 20
185.16438997307003
 10
14.897309068381116
 20
187.690859055424
 10
17.283335533135794
 20
189.01633169169014
 10
21.375652260449108
 20
189.75993360357015
 10
24.262714827695646
 20
190.99073404751056
 10
26.258343809705224
 20
191.4119999566029
 10
31.160195071866546
 20
191.26416828324597
 10
32.055886371082444
 20
191.6737254788963
 10
34.15150968789144
 20
192.0960558164834
 10
37.54918821408244
 20
192.33223505490318
 10
40.453281637244714
 20
191.96312614205274
 10
42.459554904201624
 20
191.38444870315087
 10
44.25732407360182
 20
191.6035970856549
 10
47.25821854607932
 20
191.53553560569748
 10
50.26656401801994
 20
190.76751378214408
 10
52.57707800335406
 20
189.7920522895287
 10
55.68222452460992
 20
189.3250778988683
 10
58.60121994669847
 20
187.5560482988259
 10
60.72771168985473
 20
185.07854292722965
 10
60.06181305809023
 20
181.8712732141849
 10
59.18634590027426
 20
179.56182365734554
 10
56.1450650887024
 20
174.0291379600404
 10
55.25576036045491
 20
173.01961475559352
 10
53.288870947803126
 20
169.89850180691667
 10
53.39631628206568
 20
169.19960589181545
 10
53.80161576373705
 20
168.70389193179724
 10
55.713216838368204
 20
167.6241783904035
 10
55.72492555181027
 20
166.5242407076098
 10
53.445279992823416
 20
164.59986649104187
 10
53.25167789419296
 20
163.99777162525584
 10
53.97931337865202
 20
161.4053699199339
 10
55.49625925655913
 20
159.8214269905641
 10
56.10899840729248
 20
158.6278815439394
 10
56.12496483471349
 20
157.12796652194803
 10
55.636701874158426
 20
156.02270669668067
 10
53.26131969435107
 20
153.69729071242028
 10
53.27515726478261
 20
152.39736436002775
 10
54.299582468155734
 20
150.1081389445883
 10
54.41234994489196
 20
148.90927135548992
 10
53.534753930086524
 20
146.79981046824938
 10
51.654021281802635
 20
144.9796883004598
 10
50.96896293713293
 20
143.5723166138047
 10
50.6126271662193
 20
139.46829117304932
 10
49.841412057181685
 20
136.75992870550698
 10
47.87239378754045
 20
133.83880442642896
 10
46.48737509927476
 20
132.42398174031072
 10
45.0970342685354
 20
131.50913072818963
 10
44.90662545538915
 20
130.60705285800535
 10
45.12151612391427
 20
129.20926102780285
 10
44.92365631130488
 20
129.00714350121453
 10
44.121572775920015
 20
129.19861674285553
 10
43.72585315070124
 20
128.79438168967891
 10
43.24610561810405
 20
126.88916718601612
 10
42.44827979669811
 20
126.68066308845941
 10
41.33876225745183
 20
127.56890338821218
 10
40.537743150561695
 20
127.66038229505372
 10
39.24952551161123
 20
126.54660704182852
 10
38.44744197622636
 20
126.7380802834695
 10
37.16135319426536
 20
125.42431636064546
 10
36.872014474814414
 20
124.42117972716699
  0
LWPOLYLINE
  5
36
330
17
100
AcDbEntity
  8
TOPPERS_CUT
100
AcDbPolyline
 90
83
 70
1
 10
-1.9466310058176934
 20
219.91339282880685
 10
-2.1498749046062517
 20
229.6117788758564
 10
-3.061532631243148
 20
230.7021367021975
 10
-3.1998463918529736
 20
234.3008683264821
 10
-3.0094375787067227
 20
235.20294619666637
 10
-1.7158977972825906
 20
235.81674977589446
 10
2.983835938290409
 20
235.86677791514688
 10
3.581673090097495
 20
236.07315315571418
 10
3.9763282868215315
 20
236.57738254369025
 10
4.452882533934526
 20
238.78258005175127
 10
5.23687078490893
 20
240.29101050170053
 10
7.113345719213882
 20
242.51111000868778
 10
9.401506706158603
 20
243.63552954686034
 10
12.197090366563584
 20
244.06531088391063
 10
14.39909458914041
 20
243.88873964119588
 10
17.41276220355471
 20
242.62074614364533
 10
19.23181994284957
 20
240.84000783016086
 10
20.248794146759558
 20
239.2507427583174
 10
20.9700430602502
 20
237.25830706179204
 10
21.67638997481458
 20
236.6657920524586
 10
21.97424412222339
 20
236.86897400754165
 10
29.07277746448787
 20
237.04454276546713
 10
31.483285784621415
 20
236.07014570134646
 10
32.38323479781624
 20
236.07972555779907
 10
33.97569315514393
 20
236.79671675731083
 10
43.37516062628991
 20
236.89677303581576
 10
44.677215835671916
 20
236.71062193664844
 10
46.28351176343113
 20
236.12768678376761
 10
46.88241334373295
 20
236.2340676895354
 10
47.378127303751135
 20
236.63936717120677
 10
47.75894493004364
 20
238.44352291157537
 10
49.623711150906516
 20
241.76356010135638
 10
51.10978860246637
 20
243.07945288116989
 10
54.29789860260591
 20
244.21345227579505
 10
57.79876474908055
 20
244.1507129383113
 10
60.510320502107106
 20
243.0795148248754
 10
62.02300866603529
 20
241.8955492347033
 10
63.443153494627175
 20
240.01055887244053
 10
64.47609412595816
 20
236.92137877860563
 10
65.08351113421784
 20
236.22780500597804
 10
65.98665343289687
 20
235.93740185803236
 10
66.99511220884901
 20
235.1480914645843
 10
68.59608599413454
 20
235.0651279857006
 10
70.1045164440838
 20
234.2811397347262
 10
70.1460291553784
 20
230.38136067754857
 10
68.6588872753238
 20
229.16546223253448
 10
68.3833861263044
 20
226.86239924666353
 10
68.69188455866055
 20
226.06563785375232
 10
71.92363612708417
 20
223.09986952160102
 10
72.63424075562747
 20
222.1073771730699
 10
72.94380361647835
 20
221.21062144535927
 10
72.97041432884669
 20
218.7107630753736
 10
71.47588339303448
 20
208.79429307431474
 10
71.58971529826542
 20
207.49543115041692
 10
72.50350188189181
 20
206.20508465447705
 10
72.5322414512496
 20
203.50523761489254
 10
72.04397849069454
 20
202.39997778962518
 10
70.74618099529147
 20
202.1861515495948
 10
37.345944315293885
 20
202.0306211019527
 10
35.95028134208086
 20
201.61574176382874
 10
34.96311113602341
 20
200.4051654612883
 10
33.29407587078044
 20
197.4872344676945
 10
31.80480513373639
 20
196.47132469227924
 10
26.308310005252185
 20
196.11279812067065
 10
20.307585488791922
 20
196.14892674578607
 10
19.601238574227544
 20
196.7414417551195
 10
19.288482427892465
 20
197.9381804872284
 10
19.574627861859206
 20
199.24130012510514
 10
20.457546019138306
 20
200.85078933834853
 10
19.753327961563393
 20
201.2433156780831
 10
15.551437042998055
 20
201.39859835090314
 10
13.044127673549283
 20
202.0719479821308
 10
11.932481277313537
 20
203.16017695148244
 10
11.220812220275489
 20
204.25266363481296
 10
9.162381957076647
 20
209.7310634788867
 10
8.859205667194171
 20
210.02785319780077
 10
7.2082037426561625
 20
214.8105504122575
 10
6.4018624932923585
 20
215.40200099309612
 10
3.095662873942916
 20
215.9668408615665
 10
2.1903917182744195
 20
216.45723267911103
 10
1.3904370398790156
 20
216.44871725115317
 10
-0.3158532226796183
 20
217.03058797553922
 10
-1.3264408556212068
 20
218.01988703858615
  0
LWPOLYLINE
  5
37
330
17
100
AcDbEntity
  8
TOPPERS_CUT
100
AcDbPolyline
 90
132
 70
1
 10
112.43217183691536
 20
194.32942401505156
 10
109.41850422250107
 20
195.59741751260208
 10
107.40265109909153
 20
197.0760439646988
 10
105.47934131101832
 20
199.25569518888625
 10
103.26669280349418
 20
200.4322097795952
 10
101.75294021107125
 20
201.71616970456674
 10
100.32853766850042
 20
204.00113740602725
 10
99.91578718736592
 20
205.1968117096414
 10
100.09235843008064
 20
207.39881593221827
 10
100.57849253364623
 20
208.70406442708446
 10
102.84323609370684
 20
212.02835933084438
 10
102.62728099668698
 20
213.52614549584627
 10
101.81455317635478
 20
214.7175620854815
 10
100.60184801682485
 20
215.90472096113785
 10
99.80082890993472
 20
215.99619986797939
 10
98.71153551208837
 20
214.98454780654305
 10
98.23817455045959
 20
212.47936729408374
 10
97.45525072797992
 20
210.8709425093351
 10
95.65535270159026
 20
210.85178279642986
 10
94.16714639304094
 20
209.73587868621522
 10
93.36825614314026
 20
209.62736892345788
 10
91.65025716713957
 20
211.30917733063765
 10
91.33324330682555
 20
212.9058934019443
 10
91.62364645477123
 20
213.80903570062333
 10
95.58616484943259
 20
217.35141455839252
 10
96.76906601110997
 20
218.9640970571201
 10
97.25626454317029
 20
220.16935121718694
 10
99.33059929008462
 20
222.59156825076258
 10
99.81886225063968
 20
223.69682807602985
 10
99.60716486759875
 20
224.79463690183405
 10
98.89975352453965
 20
225.48714624596693
 10
97.30623073871723
 20
224.87014938125466
 10
96.79455035127805
 20
225.96476492157467
 10
97.17749683456002
 20
227.5689319923444
 10
97.9700005134923
 20
228.27740776389822
 10
97.34555264931687
 20
230.57089089331663
 10
97.33171507888534
 20
231.87081724570916
 10
97.8199780394404
 20
232.9760770709765
 10
98.80714824549786
 20
234.18665337351695
 10
100.40067103132026
 20
234.8036502382293
 10
102.99839487911586
 20
235.03131404869114
 10
104.18874704025636
 20
235.94403620382278
 10
105.36526163096535
 20
238.15668471134694
 10
106.45242617182221
 20
239.36832544238214
 10
107.2129969959125
 20
243.07663125791873
 10
108.48311935045248
 20
245.89031020273418
 10
110.55745409736683
 20
248.3125272363098
 10
113.33387804486661
 20
250.5422065997497
 10
115.82202770141018
 20
251.6687549949117
 10
120.00795219255451
 20
253.01338734408301
 10
124.40450963824506
 20
253.36020520224957
 10
128.30748198090683
 20
253.1017349091459
 10
130.6126738237673
 20
252.62624509052768
 10
131.6179393142352
 20
252.13691770147784
 10
133.9241955855904
 20
251.56143354806017
 10
138.45374464941708
 20
248.80949145593922
 10
140.6749085848991
 20
246.83302218683485
 10
143.71838019716594
 20
242.76518731490046
 10
145.0513038328952
 20
239.67920050654976
 10
145.77787488885951
 20
237.1867931360273
 10
146.58953828069698
 20
236.09537088119146
 10
147.99797439584682
 20
235.31031820172234
 10
152.70196584539875
 20
234.96036900177705
 10
154.60718034906148
 20
234.4806214691799
 10
156.91875876289035
 20
233.4051656417651
 10
158.73675207369047
 20
231.72442166308005
 10
159.5473510370332
 20
230.73299374304366
 10
160.46645976313326
 20
228.94267557310656
 10
161.3026050103496
 20
225.551383617884
 10
161.1345491955927
 20
222.54942471691174
 10
160.56545161314347
 20
219.64320243675996
 10
159.9761298892942
 20
218.63687251779734
 10
159.47722264379183
 20
218.53155604052426
 10
158.76555358675378
 20
219.62404272385479
 10
158.55704948919706
 20
220.42186854526076
 10
156.73054075043908
 20
222.9025672023412
 10
150.60214675831634
 20
225.53748410374692
 10
150.01176060597237
 20
224.63114851958372
 10
149.84051150573129
 20
221.92917262300975
 10
148.0066137112157
 20
215.70929972404542
 10
148.02896670960507
 20
213.6094186932575
 10
148.6502212882963
 20
211.6159185682374
 10
148.6629944302331
 20
210.41598655064428
 10
148.26408151953015
 20
210.31173450186594
 10
147.75772327456463
 20
210.90637836818883
 10
145.03871652207494
 20
212.6775368252207
 10
143.21752992579061
 20
214.65826380830399
 10
141.68993976293615
 20
217.24215008566807
 10
140.64954813214203
 20
221.0312905230989
 10
140.62080856278425
 20
223.7311375626834
 10
141.4803092931792
 20
227.54050214151417
 10
142.364291878953
 20
229.0499970199581
 10
143.4322967069047
 20
232.06153577738297
 10
143.2184704668743
 20
233.35933327278605
 10
140.7802870058777
 20
236.93358304169175
 10
138.7601761684893
 20
238.81218683298616
 10
136.4454044691762
 20
240.1876256647992
 10
134.03808943452685
 20
240.86203972452168
 10
132.46266193311493
 20
238.54513916821912
 10
130.077699896855
 20
237.11967219715353
 10
129.8830333697298
 20
236.61757166616695
 10
130.28833285140118
 20
236.12185770614877
 10
132.19993392603232
 20
235.04214416475503
 10
135.10296292069984
 20
234.773029586704
 10
136.61352222763855
 20
233.78905266613074
 10
136.81670418272162
 20
233.49119851872192
 10
136.62842422656485
 20
232.3891319789388
 10
135.73592621283314
 20
231.6795917788902
 10
135.74657049778048
 20
230.67964843089595
 10
136.3742116474401
 20
228.08618229707932
 10
137.0816229904992
 20
227.39367295294647
 10
138.1847539587771
 20
227.10539866199025
 10
139.09854054240344
 20
225.81505216605032
 10
139.2155657331186
 20
224.21620723775422
 10
137.45292270404462
 20
220.69724580686915
 10
135.57325448425547
 20
218.7771293042801
 10
135.08605595219515
 20
217.57187514421335
 10
135.2062744283945
 20
215.673047211519
 10
135.9264589133904
 20
213.78060584979303
 10
136.143478438905
 20
212.1828253499917
 10
136.0764813874423
 20
209.08193654271477
 10
135.20101422962634
 20
206.77248698587542
 10
134.51382702796712
 20
205.56510396881913
 10
131.83952627225625
 20
203.13650036427515
 10
131.1651122125339
 20
200.72918532962578
 10
129.38863161302837
 20
198.51015025113324
 10
127.00047629128422
 20
197.38466628446594
 10
125.5026901262823
 20
197.16871118744612
 10
124.61338539803481
 20
196.15918798299924
 10
123.81875286211304
 20
195.65070088104426
 10
121.52846301817888
 20
194.72627001247056
 10
116.53513284917601
 20
194.07308257893732
  0
ENDSEC
  0
SECTION
  2
OBJECTS
  0
DICTIONARY
  5
A
330
0
100
AcDbDictionary
281
1
  3
ACAD_COLOR
350
B
  3
ACAD_GROUP
350
C
  3
ACAD_LAYOUT
350
D
  3
ACAD_MATERIAL
350
E
  3
ACAD_MLEADERSTYLE
350
F
  3
ACAD_MLINESTYLE
350
10
  3
ACAD_PLOTSETTINGS
350
11
  3
ACAD_PLOTSTYLENAME
350
12
  3
ACAD_SCALELIST
350
14
  3
ACAD_TABLESTYLE
350
15
  3
ACAD_VISUALSTYLE
350
16
  3
EZDXF_META
350
2D
  0
DICTIONARY
  5
B
330
A
100
AcDbDictionary
281
1
  0
DICTIONARY
  5
C
330
A
100
AcDbDictionary
281
1
  0
DICTIONARY
  5
D
330
A
100
AcDbDictionary
281
1
  3
Model
350
1A
  3
Layout1
350
1E
  0
DICTIONARY
  5
E
330
A
100
AcDbDictionary
281
1
  3
ByBlock
350
1F
  3
ByLayer
350
20
  3
Global
350
21
  0
DICTIONARY
  5
F
330
A
100
AcDbDictionary
281
1
  3
Standard
350
2C
  0
DICTIONARY
  5
10
330
A
100
AcDbDictionary
281
1
  3
Standard
350
22
  0
DICTIONARY
  5
11
330
A
100
AcDbDictionary
281
1
  0
ACDBDICTIONARYWDFLT
  5
12
330
A
100
AcDbDictionary
281
1
  3
Normal
350
13
100
AcDbDictionaryWithDefault
340
13
  0
ACDBPLACEHOLDER
  5
13
330
12
  0
DICTIONARY
  5
14
330
A
100
AcDbDictionary
281
1
  0
DICTIONARY
  5
15
330
A
100
AcDbDictionary
281
1
  0
DICTIONARY
  5
16
330
A
100
AcDbDictionary
281
1
  0
LAYOUT
  5
1A
330
D
100
AcDbPlotSettings
  1

  4
A3
  6

 40
7.5
 41
20.0
 42
7.5
 43
20.0
 44
420.0
 45
297.0
 46
0.0
 47
0.0
 48
0.0
 49
0.0
140
0.0
141
0.0
142
1.0
143
1.0
 70
1024
 72
1
 73
0
 74
5
  7

 75
16
 76
0
 77
2
 78
300
147
1.0
148
0.0
149
0.0
100
AcDbLayout
  1
Model
 70
1
 71
0
 10
0.0
 20
0.0
 11
420.0
 21
297.0
 12
0.0
 22
0.0
 32
0.0
 14
1e+20
 24
1e+20
 34
1e+20
 15
-1e+20
 25
-1e+20
 35
-1e+20
146
0.0
 13
0.0
 23
0.0
 33
0.0
 16
1.0
 26
0.0
 36
0.0
 17
0.0
 27
1.0
 37
0.0
 76
1
330
17
  0
LAYOUT
  5
1E
330
D
100
AcDbPlotSettings
  1

  4
A3
  6

 40
7.5
 41
20.0
 42
7.5
 43
20.0
 44
420.0
 45
297.0
 46
0.0
 47
0.0
 48
0.0
 49
0.0
140
0.0
141
0.0
142
1.0
143
1.0
 70
0
 72
1
 73
0
 74
5
  7

 75
16
 76
0
 77
2
 78
300
147
1.0
148
0.0
149
0.0
100
AcDbLayout
  1
Layout1
 70
1
 71
1
 10
0.0
 20
0.0
 11
420.0
 21
297.0
 12
0.0
 22
0.0
 32
0.0
 14
1e+20
 24
1e+20
 34
1e+20
 15
-1e+20
 25
-1e+20
 35
-1e+20
146
0.0
 13
0.0
 23
0.0
 33
0.0
 16
1.0
 26
0.0
 36
0.0
 17
0.0
 27
1.0
 37
0.0
 76
1
330
1B
  0
MATERIAL
  5
1F
102
{ACAD_REACTORS
330
E
102
}
330
E
100
AcDbMaterial
  1
ByBlock
  2

 70
0
 40
1.0
 71
1
 41
1.0
 91
-1023410177
 42
1.0
 72
1
  3

 73
1
 74
1
 75
1
 44
0.5
 73
0
 45
1.0
 46
1.0
 77
1
  4

 78
1
 79
1
170
1
 48
1.0
171
1
  6

172
1
173
1
174
1
140
1.0
141
1.0
175
1
  7

176
1
177
1
178
1
143
1.0
179
1
  8

270
1
271
1
272
1
145
1.0
146
1.0
273
1
  9

274
1
275
1
276
1
 42
1.0
 72
1
  3

 73
1
 74
1
 75
1
 94
63
  0
MATERIAL
  5
20
102
{ACAD_REACTORS
330
E
102
}
330
E
100
AcDbMaterial
  1
ByLayer
  2

 70
0
 40
1.0
 71
1
 41
1.0
 91
-1023410177
 42
1.0
 72
1
  3

 73
1
 74
1
 75
1
 44
0.5
 73
0
 45
1.0
 46
1.0
 77
1
  4

 78
1
 79
1
170
1
 48
1.0
171
1
  6

172
1
173
1
174
1
140
1.0
141
1.0
175
1
  7

176
1
177
1
178
1
143
1.0
179
1
  8

270
1
271
1
272
1
145
1.0
146
1.0
273
1
  9

274
1
275
1
276
1
 42
1.0
 72
1
  3

 73
1
 74
1
 75
1
 94
63
  0
MATERIAL
  5
21
102
{ACAD_REACTORS
330
E
102
}
330
E
100
AcDbMaterial
  1
Global
  2

 70
0
 40
1.0
 71
1
 41
1.0
 91
-1023410177
 42
1.0
 72
1
  3

 73
1
 74
1
 75
1
 44
0.5
 73
0
 45
1.0
 46
1.0
 77
1
  4

 78
1
 79
1
170
1
 48
1.0
171
1
  6

172
1
173
1
174
1
140
1.0
141
1.0
175
1
  7

176
1
177
1
178
1
143
1.0
179
1
  8

270
1
271
1
272
1
145
1.0
146
1.0
273
1
  9

274
1
275
1
276
1
 42
1.0
 72
1
  3

 73
1
 74
1
 75
1
 94
63
  0
MLINESTYLE
  5
22
102
{ACAD_REACTORS
330
10
102
}
330
10
100
AcDbMlineStyle
  2
Standard
 70
0
  3

 62
256
 51
90.0
 52
90.0
 71
2
 49
0.5
 62
256
  6
BYLAYER
 49
-0.5
 62
256
  6
BYLAYER
  0
MLEADERSTYLE
  5
2C
102
{ACAD_REACTORS
330
F
102
}
330
F
100
AcDbMLeaderStyle
179
2
170
2
171
1
172
0
 90
2
 40
0.0
 41
0.0
173
1
 91
-1056964608
 92
-2
290
1
 42
2.0
291
1
 43
8.0
  3
Standard
 44
4.0
300

342
29
174
1
175
1
176
0
178
1
 93
-1056964608
 45
4.0
292
0
297
0
 46
4.0
 94
-1056964608
 47
1.0
 49
1.0
140
1.0
294
1
141
0.0
177
0
142
1.0
295
0
296
0
143
3.75
271
0
272
9
273
9
  0
DICTIONARY
  5
2D
330
A
100
AcDbDictionary
280
1
281
1
  3
CREATED_BY_EZDXF
350
2E
  3
WRITTEN_BY_EZDXF
350
3A
  0
DICTIONARYVAR
  5
2E
330
2D
100
DictionaryVariables
280
0
  1
1.4.4 @ 2026-08-27T20:13:25.083575+00:00
  0
DICTIONARYVAR
  5
3A
330
2D
100
DictionaryVariables
280
0
  1
1.4.4 @ 2026-08-27T20:13:25.098562+00:00
  0
ENDSEC
  0
EOF
