  0
SECTION
  2
HEADER
  9
$ACADVER
  1
AC1024
  9
$ACADMAINTVER
 70
6
  9
$DWGCODEPAGE
  3
ANSI_1252
  9
$LASTSAVEDBY
  1
ezdxf
  9
$INSBASE
 10
0.0
 20
0.0
 30
0.0
  9
$EXTMIN
 10
1e+20
 20
1e+20
 30
1e+20
  9
$EXTMAX
 10
-1e+20
 20
-1e+20
 30
-1e+20
  9
$LIMMIN
 10
0.0
 20
0.0
  9
$LIMMAX
 10
420.0
 20
297.0
  9
$ORTHOMODE
 70
0
  9
$REGENMODE
 70
1
  9
$FILLMODE
 70
1
  9
$QTEXTMODE
 70
0
  9
$MIRRTEXT
 70
1
  9
$LTSCALE
 40
1.0
  9
$ATTMODE
 70
1
  9
$TEXTSIZE
 40
2.5
  9
$TRACEWID
 40
1.0
  9
$TEXTSTYLE
  7
Standard
  9
$CLAYER
  8
0
  9
$CELTYPE
  6
ByLayer
  9
$CECOLOR
 62
256
  9
$CELTSCALE
 40
1.0
  9
$DISPSILH
 70
0
  9
$DIMSCALE
 40
1.0
  9
$DIMASZ
 40
2.5
  9
$DIMEXO
 40
0.625
  9
$DIMDLI
 40
3.75
  9
$DIMRND
 40
0.0
  9
$DIMDLE
 40
0.0
  9
$DIMEXE
 40
1.25
  9
$DIMTP
 40
0.0
  9
$DIMTM
 40
0.0
  9
$DIMTXT
 40
2.5
  9
$DIMCEN
 40
2.5
  9
$DIMTSZ
 40
0.0
  9
$DIMTOL
 70
0
  9
$DIMLIM
 70
0
  9
$DIMTIH
 70
0
  9
$DIMTOH
 70
0
  9
$DIMSE1
 70
0
  9
$DIMSE2
 70
0
  9
$DIMTAD
 70
1
  9
$DIMZIN
 70
8
  9
$DIMBLK
  1

  9
$DIMASO
 70
1
  9
$DIMSHO
 70
1
  9
$DIMPOST
  1

  9
$DIMAPOST
  1

  9
$DIMALT
 70
0
  9
$DIMALTD
 70
3
  9
$DIMALTF
 40
0.03937007874
  9
$DIMLFAC
 40
1.0
  9
$DIMTOFL
 70
1
  9
$DIMTVP
 40
0.0
  9
$DIMTIX
 70
0
  9
$DIMSOXD
 70
0
  9
$DIMSAH
 70
0
  9
$DIMBLK1
  1

  9
$DIMBLK2
  1

  9
$DIMSTYLE
  2
ISO-25
  9
$DIMCLRD
 70
0
  9
$DIMCLRE
 70
0
  9
$DIMCLRT
 70
0
  9
$DIMTFAC
 40
1.0
  9
$DIMGAP
 40
0.625
  9
$DIMJUST
 70
0
  9
$DIMSD1
 70
0
  9
$DIMSD2
 70
0
  9
$DIMTOLJ
 70
0
  9
$DIMTZIN
 70
8
  9
$DIMALTZ
 70
0
  9
$DIMALTTZ
 70
0
  9
$DIMUPT
 70
0
  9
$DIMDEC
 70
2
  9
$DIMTDEC
 70
2
  9
$DIMALTU
 70
2
  9
$DIMALTTD
 70
3
  9
$DIMTXSTY
  7
Standard
  9
$DIMAUNIT
 70
0
  9
$DIMADEC
 70
0
  9
$DIMALTRND
 40
0.0
  9
$DIMAZIN
 70
0
  9
$DIMDSEP
 70
44
  9
$DIMATFIT
 70
3
  9
$DIMFRAC
 70
0
  9
$DIMLDRBLK
  1

  9
$DIMLUNIT
 70
2
  9
$DIMLWD
 70
-2
  9
$DIMLWE
 70
-2
  9
$DIMTMOVE
 70
0
  9
$DIMFXL
 40
1.0
  9
$DIMFXLON
 70
0
  9
$DIMJOGANG
 40
0.785398163397
  9
$DIMTFILL
 70
0
  9
$DIMTFILLCLR
 70
0
  9
$DIMARCSYM
 70
0
  9
$DIMLTYPE
  6

  9
$DIMLTEX1
  6

  9
$DIMLTEX2
  6

  9
$DIMTXTDIRECTION
 70
0
  9
$LUNITS
 70
2
  9
$LUPREC
 70
4
  9
$SKETCHINC
 40
1.0
  9
$FILLETRAD
 40
10.0
  9
$AUNITS
 70
0
  9
$AUPREC
 70
2
  9
$MENU
  1
.
  9
$ELEVATION
 40
0.0
  9
$PELEVATION
 40
0.0
  9
$THICKNESS
 40
0.0
  9
$LIMCHECK
 70
0
  9
$CHAMFERA
 40
0.0
  9
$CHAMFERB
 40
0.0
  9
$CHAMFERC
 40
0.0
  9
$CHAMFERD
 40
0.0
  9
$SKPOLY
 70
0
  9
$TDCREATE
 40
2461280.634363426
  9
$TDUCREATE
 40
2458532.153996898
  9
$TDUPDATE
 40
2461280.634363426
  9
$TDUUPDATE
 40
2458532.1544311
  9
$TDINDWG
 40
0.0
  9
$TDUSRTIMER
 40
0.0
  9
$USRTIMER
 70
1
  9
$ANGBASE
 50
0.0
  9
$ANGDIR
 70
0
  9
$PDMODE
 70
0
  9
$PDSIZE
 40
0.0
  9
$PLINEWID
 40
0.0
  9
$SPLFRAME
 70
0
  9
$SPLINETYPE
 70
6
  9
$SPLINESEGS
 70
8
  9
$HANDSEED
  5
3B
  9
$SURFTAB1
 70
6
  9
$SURFTAB2
 70
6
  9
$SURFTYPE
 70
6
  9
$SURFU
 70
6
  9
$SURFV
 70
6
  9
$UCSBASE
  2

  9
$UCSNAME
  2

  9
$UCSORG
 10
0.0
 20
0.0
 30
0.0
  9
$UCSXDIR
 10
1.0
 20
0.0
 30
0.0
  9
$UCSYDIR
 10
0.0
 20
1.0
 30
0.0
  9
$UCSORTHOREF
  2

  9
$UCSORTHOVIEW
 70
0
  9
$UCSORGTOP
 10
0.0
 20
0.0
 30
0.0
  9
$UCSORGBOTTOM
 10
0.0
 20
0.0
 30
0.0
  9
$UCSORGLEFT
 10
0.0
 20
0.0
 30
0.0
  9
$UCSORGRIGHT
 10
0.0
 20
0.0
 30
0.0
  9
$UCSORGFRONT
 10
0.0
 20
0.0
 30
0.0
  9
$UCSORGBACK
 10
0.0
 20
0.0
 30
0.0
  9
$PUCSBASE
  2

  9
$PUCSNAME
  2

  9
$PUCSORG
 10
0.0
 20
0.0
 30
0.0
  9
$PUCSXDIR
 10
1.0
 20
0.0
 30
0.0
  9
$PUCSYDIR
 10
0.0
 20
1.0
 30
0.0
  9
$PUCSORTHOREF
  2

  9
$PUCSORTHOVIEW
 70
0
  9
$PUCSORGTOP
 10
0.0
 20
0.0
 30
0.0
  9
$PUCSORGBOTTOM
 10
0.0
 20
0.0
 30
0.0
  9
$PUCSORGLEFT
 10
0.0
 20
0.0
 30
0.0
  9
$PUCSORGRIGHT
 10
0.0
 20
0.0
 30
0.0
  9
$PUCSORGFRONT
 10
0.0
 20
0.0
 30
0.0
  9
$PUCSORGBACK
 10
0.0
 20
0.0
 30
0.0
  9
$USERI1
 70
0
  9
$USERI2
 70
0
  9
$USERI3
 70
0
  9
$USERI4
 70
0
  9
$USERI5
 70
0
  9
$USERR1
 40
0.0
  9
$USERR2
 40
0.0
  9
$USERR3
 40
0.0
  9
$USERR4
 40
0.0
  9
$USERR5
 40
0.0
  9
$WORLDVIEW
 70
1
  9
$SHADEDGE
 70
3
  9
$SHADEDIF
 70
70
  9
$TILEMODE
 70
1
  9
$MAXACTVP
 70
64
  9
$PINSBASE
 10
0.0
 20
0.0
 30
0.0
  9
$PLIMCHECK
 70
0
  9
$PEXTMIN
 10
1e+20
 20
1e+20
 30
1e+20
  9
$PEXTMAX
 10
-1e+20
 20
-1e+20
 30
-1e+20
  9
$PLIMMIN
 10
0.0
 20
0.0
  9
$PLIMMAX
 10
420.0
 20
297.0
  9
$UNITMODE
 70
0
  9
$VISRETAIN
 70
1
  9
$PLINEGEN
 70
0
  9
$PSLTSCALE
 70
1
  9
$TREEDEPTH
 70
3020
  9
$CMLSTYLE
  2
Standard
  9
$CMLJUST
 70
0
  9
$CMLSCALE
 40
20.0
  9
$PROXYGRAPHICS
 70
1
  9
$MEASUREMENT
 70
1
  9
$CELWEIGHT
370
-1
  9
$ENDCAPS
280
0
  9
$JOINSTYLE
280
0
  9
$LWDISPLAY
290
0
  9
$INSUNITS
 70
6
  9
$HYPERLINKBASE
  1

  9
$STYLESHEET
  1

  9
$XEDIT
290
1
  9
$CEPSNTYPE
380
0
  9
$PSTYLEMODE
290
1
  9
$FINGERPRINTGUID
  2
{29960E2A-E3F9-4B57-98B6-98D405DA4535}
  9
$VERSIONGUID
  2
{AC793139-C683-4187-9FBC-AE5DFBEAA130}
  9
$EXTNAMES
290
1
  9
$PSVPSCALE
 40
0.0
  9
$OLESTARTUP
290
0
  9
$SORTENTS
280
127
  9
$INDEXCTL
280
0
  9
$HIDETEXT
280
1
  9
$XCLIPFRAME
280
1
  9
$HALOGAP
280
0
  9
$OBSCOLOR
 70
257
  9
$OBSLTYPE
280
0
  9
$INTERSECTIONDISPLAY
280
0
  9
$INTERSECTIONCOLOR
 70
257
  9
$DIMASSOC
280
2
  9
$PROJECTNAME
  1

  9
$CAMERADISPLAY
290
0
  9
$LENSLENGTH
 40
50.0
  9
$CAMERAHEIGHT
 40
0.0
  9
$STEPSPERSEC
 40
24.0
  9
$STEPSIZE
 40
100.0
  9
$3DDWFPREC
 40
2.0
  9
$PSOLWIDTH
 40
0.005
  9
$PSOLHEIGHT
 40
0.08
  9
$LOFTANG1
 40
1.570796326795
  9
$LOFTANG2
 40
1.570796326795
  9
$LOFTMAG1
 40
0.0
  9
$LOFTMAG2
 40
0.0
  9
$LOFTPARAM
 70
7
  9
$LOFTNORMALS
280
1
  9
$LATITUDE
 40
37.795
  9
$LONGITUDE
 40
-122.394
  9
$NORTHDIRECTION
 40
0.0
  9
$TIMEZONE
 70
-8000
  9
$LIGHTGLYPHDISPLAY
280
1
  9
$TILEMODELIGHTSYNCH
280
1
  9
$CMATERIAL
347
20
  9
$SOLIDHIST
280
0
  9
$SHOWHIST
280
1
  9
$DWFFRAME
280
2
  9
$DGNFRAME
280
2
  9
$REALWORLDSCALE
290
1
  9
$INTERFERECOLOR
 62
256
  9
$CSHADOW
280
0
  9
$SHADOWPLANELOCATION
 40
0.0
  0
ENDSEC
  0
SECTION
  2
CLASSES
  0
CLASS
  1
ACDBDICTIONARYWDFLT
  2
AcDbDictionaryWithDefault
  3
ObjectDBX Classes
 90
0
 91
0
280
0
281
0
  0
CLASS
  1
SUN
  2
AcDbSun
  3
SCENEOE
 90
1153
 91
0
280
0
281
0
  0
CLASS
  1
VISUALSTYLE
  2
AcDbVisualStyle
  3
ObjectDBX Classes
 90
4095
 91
0
280
0
281
0
  0
CLASS
  1
MATERIAL
  2
AcDbMaterial
  3
ObjectDBX Classes
 90
1153
 91
0
280
0
281
0
  0
CLASS
  1
SCALE
  2
AcDbScale
  3
ObjectDBX Classes
 90
1153
 91
0
280
0
281
0
  0
CLASS
  1
TABLESTYLE
  2
AcDbTableStyle
  3
ObjectDBX Classes
 90
4095
 91
0
280
0
281
0
  0
CLASS
  1
MLEADERSTYLE
  2
AcDbMLeaderStyle
  3
ACDB_MLEADERSTYLE_CLASS
 90
4095
 91
0
280
0
281
0
  0
CLASS
  1
DICTIONARYVAR
  2
AcDbDictionaryVar
  3
ObjectDBX Classes
 90
0
 91
0
280
0
281
0
  0
CLASS
  1
CELLSTYLEMAP
  2
AcDbCellStyleMap
  3
ObjectDBX Classes
 90
1152
 91
0
280
0
281
0
  0
CLASS
  1
MENTALRAYRENDERSETTINGS
  2
AcDbMentalRayRenderSettings
  3
SCENEOE
 90
1024
 91
0
280
0
281
0
  0
CLASS
  1
ACDBDETAILVIEWSTYLE
  2
AcDbDetailViewStyle
  3
ObjectDBX Classes
 90
1025
 91
0
280
0
281
0
  0
CLASS
  1
ACDBSECTIONVIEWSTYLE
  2
AcDbSectionViewStyle
  3
ObjectDBX Classes
 90
1025
 91
0
280
0
281
0
  0
CLASS
  1
RASTERVARIABLES
  2
AcDbRasterVariables
  3
ISM
 90
0
 91
0
280
0
281
0
  0
CLASS
  1
ACDBPLACEHOLDER
  2
AcDbPlaceHolder
  3
ObjectDBX Classes
 90
0
 91
0
280
0
281
0
  0
CLASS
  1
LAYOUT
  2
AcDbLayout
  3
ObjectDBX Classes
 90
0
 91
0
280
0
281
0
  0
ENDSEC
  0
SECTION
  2
TABLES
  0
TABLE
  2
VPORT
  5
8
330
0
100
AcDbSymbolTable
 70
1
  0
VPORT
  5
23
330
8
100
AcDbSymbolTableRecord
100
AcDbViewportTableRecord
  2
*Active
 70
0
 10
0.0
 20
0.0
 11
1.0
 21
1.0
 12
0.0
 22
0.0
 13
0.0
 23
0.0
 14
0.5
 24
0.5
 15
0.5
 25
0.5
 16
0.0
 26
0.0
 36
1.0
 17
0.0
 27
0.0
 37
0.0
 40
1000.0
 41
1.34
 42
50.0
 43
0.0
 44
0.0
 50
0.0
 51
0.0
 71
0
 72
1000
 73
1
 74
3
 75
0
 76
0
 77
0
 78
0
281
0
 65
0
146
0.0
  0
ENDTAB
  0
TABLE
  2
LTYPE
  5
2
330
0
100
AcDbSymbolTable
 70
3
  0
LTYPE
  5
24
330
2
100
AcDbSymbolTableRecord
100
AcDbLinetypeTableRecord
  2
ByBlock
 70
0
  3

 72
65
 73
0
 40
0.0
  0
LTYPE
  5
25
330
2
100
AcDbSymbolTableRecord
100
AcDbLinetypeTableRecord
  2
ByLayer
 70
0
  3

 72
65
 73
0
 40
0.0
  0
LTYPE
  5
26
330
2
100
AcDbSymbolTableRecord
100
AcDbLinetypeTableRecord
  2
Continuous
 70
0
  3

 72
65
 73
0
 40
0.0
  0
ENDTAB
  0
TABLE
  2
LAYER
  5
1
330
0
100
AcDbSymbolTable
 70
3
  0
LAYER
  5
27
330
1
100
AcDbSymbolTableRecord
100
AcDbLayerTableRecord
  2
0
 70
0
 62
7
  6
Continuous
370
-3
390
13
347
21
  0
LAYER
  5
28
330
1
100
AcDbSymbolTableRecord
100
AcDbLayerTableRecord
  2
Defpoints
 70
0
 62
7
  6
Continuous
290
0
370
-3
390
13
347
21
  0
LAYER
  5
2F
330
1
100
AcDbSymbolTableRecord
100
AcDbLayerTableRecord
  2
TOPPERS_CUT
 70
0
 62
4
  6
Continuous
370
-3
390
13
347
21
  0
ENDTAB
  0
TABLE
  2
STYLE
  5
5
330
0
100
AcDbSymbolTable
 70
1
  0
STYLE
  5
29
330
5
100
AcDbSymbolTableRecord
100
AcDbTextStyleTableRecord
  2
Standard
 70
0
 40
0.0
 41
1.0
 50
0.0
 71
0
 42
2.5
  3
txt
  4

  0
ENDTAB
  0
TABLE
  2
VIEW
  5
7
330
0
100
AcDbSymbolTable
 70
0
  0
ENDTAB
  0
TABLE
  2
UCS
  5
6
330
0
100
AcDbSymbolTable
 70
0
  0
ENDTAB
  0
TABLE
  2
APPID
  5
3
330
0
100
AcDbSymbolTable
 70
3
  0
APPID
  5
2A
330
3
100
AcDbSymbolTableRecord
100
AcDbRegAppTableRecord
  2
ACAD
 70
0
  0
APPID
  5
38
330
3
100
AcDbSymbolTableRecord
100
AcDbRegAppTableRecord
  2
HATCHBACKGROUNDCOLOR
 70
0
  0
APPID
  5
39
330
3
100
AcDbSymbolTableRecord
100
AcDbRegAppTableRecord
  2
EZDXF
 70
0
  0
ENDTAB
  0
TABLE
  2
DIMSTYLE
  5
4
330
0
100
AcDbSymbolTable
 70
1
100
AcDbDimStyleTable
  0
DIMSTYLE
105
2B
330
4
100
AcDbSymbolTableRecord
100
AcDbDimStyleTableRecord
  2
Standard
 70
0
 40
1.0
 41
2.5
 42
0.625
 43
3.75
 44
1.25
 45
0.0
 46
0.0
 47
0.0
 48
0.0
 49
2.5
140
2.5
141
2.5
142
0.0
143
0.03937007874
144
1.0
145
0.0
146
1.0
147
0.625
148
0.0
 69
0
 70
0
 71
0
 72
0
 73
0
 74
0
 75
0
 76
0
 77
1
 78
8
 79
3
170
0
171
3
172
1
173
0
174
0
175
0
176
0
177
0
178
0
179
2
271
2
272
2
273
2
274
3
275
0
276
0
277
2
278
44
279
0
280
0
281
0
282
0
283
0
284
8
285
0
286
0
288
0
289
3
290
0
371
-2
372
-2
  0
ENDTAB
  0
TABLE
  2
BLOCK_RECORD
  5
9
330
0
100
AcDbSymbolTable
 70
2
  0
BLOCK_RECORD
  5
17
330
9
100
AcDbSymbolTableRecord
100
AcDbBlockTableRecord
  2
*Model_Space
340
1A
 70
0
280
1
281
0
  0
BLOCK_RECORD
  5
1B
330
9
100
AcDbSymbolTableRecord
100
AcDbBlockTableRecord
  2
*Paper_Space
340
1E
 70
0
280
1
281
0
  0
ENDTAB
  0
ENDSEC
  0
SECTION
  2
BLOCKS
  0
BLOCK
  5
18
330
17
100
AcDbEntity
  8
0
100
AcDbBlockBegin
  2
*Model_Space
 70
0
 10
0.0
 20
0.0
 30
0.0
  3
*Model_Space
  1

  0
ENDBLK
  5
19
330
17
100
AcDbEntity
  8
0
100
AcDbBlockEnd
  0
BLOCK
  5
1C
330
1B
100
AcDbEntity
  8
0
100
AcDbBlockBegin
  2
*Paper_Space
 70
0
 10
0.0
 20
0.0
 30
0.0
  3
*Paper_Space
  1

  0
ENDBLK
  5
1D
330
1B
100
AcDbEntity
  8
0
100
AcDbBlockEnd
  0
ENDSEC
  0
SECTION
  2
ENTITIES
  0
LWPOLYLINE
  5
30
330
17
100
AcDbEntity
  8
TOPPERS_CUT
100
AcDbPolyline
 90
108
 70
1
 10
86.3526818006521
 20
50.038966399778616
 10
86.5200884934765
 20
52.94103032036988
 10
87.88741945256545
 20
55.85657590367278
 10
88.88286245354871
 20
56.26778537802062
 10
89.67382418925068
 20
57.07672266400473
 10
91.2647354357957
 20
57.89464772512989
 10
93.45897923115088
 20
58.41933255104472
 10
95.63300053243866
 20
60.74390377635639
 10
98.12160803489681
 20
61.771927462226
 10
100.12035834011178
 20
61.89439058893406
 10
101.32140607826896
 20
61.80787856279028
 10
104.33806882231984
 20
60.34167738673858
 10
105.33800571087363
 20
60.35291210566491
 10
106.33232523996426
 20
60.86411526886815
 10
108.22995838443121
 20
61.08544861253894
 10
110.43318995492746
 20
60.81018392761073
 10
111.94433000668448
 20
59.82709911744642
 10
112.64653277245743
 20
59.6349760429841
 10
113.45771700222676
 20
58.644026929571375
 10
114.25991345685509
 20
58.45302732700168
 10
115.27220853622785
 20
57.36433146851884
 10
116.17215173592626
 20
57.37444271555254
 10
118.68322867623708
 20
56.40259262431458
 10
119.49104249032855
 20
55.71162457746799
 10
120.61007208991248
 20
54.02409005774549
 10
121.33586776543072
 20
51.732099517320194
 10
121.25946698632065
 20
49.631108579464595
 10
120.77410367664795
 20
48.3255732648815
 10
120.68983859428945
 20
46.92453814901354
 10
119.90112380237277
 20
45.91561348531869
 10
120.22919166625472
 20
43.41914167961209
 10
120.84038851831333
 20
42.4259456224141
 10
122.35602245764089
 20
41.04288605682828
 10
123.66268124411661
 20
40.45752905830024
 10
124.4637542268523
 20
40.36652314458592
 10
125.26932109715851
 20
39.875542475450096
 10
126.77034990188183
 20
39.79240086498421
 10
127.5680524689396
 20
40.00137601783604
 10
128.56012505424496
 20
40.71256655875003
 10
130.35551756607126
 20
41.13276380823895
 10
131.63745997090905
 20
42.74726796452926
 10
132.53290928303693
 20
43.157353966984466
 10
133.0272603678507
 20
43.66293977072453
 10
133.3126362998126
 20
44.966228141522365
 10
132.88794516275314
 20
47.16159540877019
 10
132.38011241522779
 20
47.85593387129468
 10
132.16889031859074
 20
48.853623816063205
 10
131.3498417855729
 20
50.54452875146359
 10
131.4296129803609
 20
52.345538622753054
 10
131.81048871360764
 20
54.04992522086504
 10
132.305963270314
 20
54.45551733574973
 10
133.58341178758127
 20
56.46999624746155
 10
135.5709273738699
 20
57.59239626272339
 10
137.3663198856962
 20
58.0125935122123
 10
138.25727531025356
 20
58.822654270089046
 10
139.1549715661667
 20
59.03275289483351
 10
140.04255657504615
 20
60.14279471927638
 10
140.93800588717403
 20
60.5528807217316
 10
141.5312271889505
 20
61.159583686219676
 10
143.3266197007768
 20
61.579780935708584
 10
145.3264934778844
 20
61.602250373561255
 10
147.53084852027328
 20
61.22699199977767
 10
148.82739605971534
 20
61.54157820094804
 10
150.71716490093382
 20
62.462867366606496
 10
152.01483591226852
 20
62.67745987892148
 10
154.2169440108721
 20
62.50218888284866
 10
156.32804619576143
 20
61.52584490404015
 10
158.3481424669364
 20
59.748427942495994
 10
159.35482018684598
 20
59.159700528290045
 10
160.25588685843707
 20
59.069818086468366
 10
161.0625772006359
 20
58.478843728477145
 10
161.9647673441196
 20
58.288967597800095
 10
164.18148057732742
 20
56.81377864660733
 10
165.301633648804
 20
55.026250438029464
 10
165.72969520154135
 20
52.530902104215514
 10
165.65217095053862
 20
50.529904855215285
 10
165.27129521729188
 20
48.8255182571033
 10
163.0006506428266
 20
46.199842493332866
 10
160.81314767882722
 20
45.075195534285754
 10
160.41879028286888
 20
44.57073320243832
 10
160.03679107772948
 20
42.966340293181716
 10
159.77950194308343
 20
39.163209700999396
 10
158.14027671474418
 20
33.74445148063413
 10
156.48195246423012
 20
30.025585970810322
 10
155.10900414567803
 20
27.61000883178435
 10
151.75752801597835
 20
23.272082166653494
 10
146.21180809092348
 20
18.40947067560781
 10
140.34925502091298
 20
15.04339410171492
 10
135.16980569450067
 20
13.185087163901159
 10
129.0803019213562
 20
12.216612178752111
 10
125.08055436714103
 20
12.17167330304678
 10
121.47741115266945
 20
12.431209381478123
 10
114.857605194147
 20
14.156946635961159
 10
108.22094715723503
 20
17.38258922327489
 10
103.27856447140138
 20
21.127299277040287
 10
99.93832775103907
 20
24.689997503377054
 10
99.52936522047648
 20
25.485453126649553
 10
98.3148358196077
 20
26.771889419057892
 10
95.35659830438476
 20
31.938980554651266
 10
93.28819274182655
 20
38.01612613697675
 10
92.52869290952933
 20
43.30792734306344
 10
92.22534142728527
 20
43.60453799395168
 10
90.92205305648744
 20
43.88991392591358
 10
88.30536506785809
 20
45.36060898953581
 10
88.09863685879152
 20
45.95832417888282
 10
87.39081673355544
 20
46.65041569762205
 10
87.281835269559
 20
47.44924173657245
 10
86.67063841750038
 20
48.44243779377045
  0
LWPOLYLINE
  5
31
330
17
100
AcDbEntity
  8
TOPPERS_CUT
100
AcDbPolyline
 90
62
 70
1
 10
35.50306123111042
 20
9.66513715441668
 10
34.29190224591953
 20
10.651592380258878
 10
32.972885268624836
 20
12.336879956196098
 10
29.606808694731946
 20
18.199433026206595
 10
27.241792481285483
 20
23.973227126288045
 10
25.925022447776048
 20
25.45852732451451
 10
25.0205853605071
 20
25.84839083290233
 10
23.720667405387164
 20
25.833785698298094
 10
22.115151024237925
 20
26.31577859229286
 10
13.804440130315086
 20
27.222467313758095
 10
9.685599865069758
 20
28.876297676701586
 10
8.877786050978289
 20
29.56726572354817
 10
8.365459415882425
 20
30.661578941494184
 10
8.739594317773378
 20
32.96592767273845
 10
9.526062165904815
 20
34.17483971414407
 10
13.083143032778418
 20
38.015044878783286
 10
15.957120156053861
 20
40.34748040734338
 10
18.82660339175877
 20
43.079890691325
 10
19.90855841888581
 20
44.69214790383004
 10
18.19181832036588
 20
55.07351599450739
 10
17.958126785876125
 20
58.071079716383494
 10
18.12665695059315
 20
60.8731499481194
 10
19.208611977720192
 20
62.48540716062443
 10
20.504036045269594
 20
62.89998705065019
 10
22.70614414387321
 20
62.72471605457737
 10
24.512771374625842
 20
62.144976415512474
 10
26.926101569866553
 20
60.972015474671124
 10
29.343925652677804
 20
59.39907977840825
 10
30.85057181686429
 20
58.815969723665475
 10
31.658385630955763
 20
58.12500167681888
 10
33.06391463439424
 20
57.64076183903885
 10
35.98170716148238
 20
56.07344350223914
 10
36.68278645536267
 20
55.9813141166322
 10
42.44983972408832
 20
58.94629246321093
 10
43.2475422911461
 20
59.15526761606276
 10
45.33280462250484
 20
60.478778480927986
 10
49.31120621075998
 20
62.42359744488552
 10
51.90317781775142
 20
63.15276353608165
 10
54.20640307710305
 20
62.87862232304608
 10
55.41756206229394
 20
61.89216709720389
 10
56.136616906456354
 20
60.200138689910865
 10
56.17256800702063
 20
57.00034064653871
 10
55.424298203238706
 20
52.39164318405019
 10
54.937811421673416
 20
51.18610155832247
 10
53.99966548721445
 20
45.67521395235026
 10
54.11988167013724
 20
43.87645102484606
 10
57.053402803722236
 20
40.90922104407103
 10
58.86901780961593
 20
39.52953189416312
 10
64.53607269907519
 20
33.592824988827815
 10
65.46073228041153
 20
31.40307508104316
 10
65.27422656541238
 20
30.200903870993336
 10
64.58775240613632
 20
28.99311530148035
 10
62.30137922517419
 20
27.76735118168523
 10
59.10832201315784
 20
27.13143794798869
 10
50.02013104624463
 20
26.029265117205266
 10
47.43040638303846
 20
25.100111648298387
 10
46.05408764880845
 20
22.984515575838547
 10
43.42391330705645
 20
16.754573125703914
 10
40.28478274588651
 20
11.31896282694915
 10
38.89835276462279
 20
10.103309954187731
 10
37.80516301856942
 20
9.490989630236488
 10
36.50636853534211
 20
9.376390806776875
  0
LWPOLYLINE
  5
32
330
17
100
AcDbEntity
  8
TOPPERS_CUT
100
AcDbPolyline
 90
105
 70
1
 10
69.3661269572896
 20
75.44973094068604
 10
67.87857981527787
 20
74.33294828488737
 10
66.8831368142946
 20
73.92173881053951
 10
63.1844937985382
 20
73.7801766616567
 10
59.97570798002499
 20
74.54417507193548
 10
55.75462708213901
 20
76.3968693406971
 10
53.942382491923205
 20
77.47657742403888
 10
49.40334497718897
 20
80.92580029880865
 10
44.14075873072177
 20
86.46702633629299
 10
43.32395714148923
 20
87.95794389398262
 10
42.61613701625314
 20
88.65003541272183
 10
41.912810778587584
 20
88.94215217603953
 10
41.22184273174099
 20
88.13433836194807
 10
40.44099224307273
 20
86.42545787626555
 10
39.34892596891198
 20
85.71314386345892
 10
38.659081393958026
 20
84.80533636051209
 10
36.35585613460639
 20
85.07947757354765
 10
34.74696933777925
 20
85.86145153410857
 10
33.93803205179515
 20
86.65241326981052
 10
33.12010699066998
 20
88.24332451635554
 10
32.615644658822546
 20
88.6376819123139
 10
31.915688836834892
 20
88.62981760906546
 10
31.028103827955437
 20
87.51977578462258
 10
30.54049357449751
 20
86.41422784775024
 10
28.957446631200934
 20
84.8963469646374
 10
28.764200084845974
 20
84.29413788771987
 10
27.772127499540613
 20
83.58294734680588
 10
25.60035314203809
 20
81.05838874378345
 10
23.917312509886138
 20
79.539384388778
 10
22.922992980795506
 20
79.02818122557477
 10
20.644484103081812
 20
77.102461283792
 10
19.05581980032207
 20
76.08454884495606
 10
16.37059533583105
 20
74.75429714873503
 10
13.482013077951375
 20
73.72177957529487
 10
10.986664744137421
 20
73.29371802255751
 10
7.483515218521236
 20
73.55437757288149
 10
6.073492327512223
 20
74.43859216608304
 10
5.055579888676294
 20
76.0272564688428
 10
4.637629582972644
 20
77.62266160295832
 10
4.517413400049866
 20
79.42142453046253
 10
5.6645344873606565
 20
84.13460956937696
 10
6.738625211239267
 20
86.44682260386966
 10
7.219494633341398
 20
88.15233267387427
 10
7.659919067308733
 20
93.45761554267256
 10
8.1419119613035
 20
95.0631319238218
 10
9.612607024925728
 20
97.67981991245117
 10
11.096783751259554
 20
99.09658363481599
 10
13.086546281333446
 20
100.01899627236706
 10
14.383093820775482
 20
100.33358247353743
 10
14.971821234981428
 20
101.34026019344704
 10
13.04273087752075
 20
103.91875013772687
 10
12.413558475180007
 20
106.51184521661094
 10
12.393335981112608
 20
108.31173161600778
 10
12.968581732606955
 20
110.51833360218193
 10
14.338159635481171
 20
113.23389180777403
 10
16.80991505954983
 20
115.76182082647435
 10
17.200902039830282
 20
116.56626422488793
 10
16.971704392911057
 20
119.16385319134254
 10
17.557061391439102
 20
120.47051197781828
 10
18.25364679774886
 20
120.77835734763282
 10
19.453571064013413
 20
120.79183901034442
 10
20.96471111577044
 20
119.80875420018012
 10
21.866901259254124
 20
119.61887806950308
 10
22.572474440704944
 20
119.1267739284746
 10
25.274550983585463
 20
118.95712029186492
 10
28.08785593424769
 20
117.78865323859414
 10
30.109075677315314
 20
115.9112425881946
 10
31.42696918271738
 20
114.32594870111275
 10
33.16505993760837
 20
110.94526230220458
 10
34.282966065299675
 20
109.35772147133748
 10
35.26605087546397
 20
110.86886152309451
 10
36.65360432862032
 20
111.98452070700054
 10
37.55467100021137
 20
111.89463826517888
 10
38.664712824654245
 20
111.00705325629943
 10
39.3781503093535
 20
109.81499329328331
 10
39.98035938627105
 20
109.62174674692832
 10
41.83754754260319
 20
113.4428528893928
 10
43.80708757860968
 20
116.16515192634071
 10
45.78673886164988
 20
117.98750776359023
 10
48.274222892215406
 20
119.1155251383152
 10
52.86719174820706
 20
119.76716697850861
 10
53.95476413479728
 20
120.87945574673677
 10
54.651349541107024
 20
121.18730111655134
 10
55.45017558005743
 20
121.2962825805478
 10
56.153501817723
 20
121.00416581723009
 10
56.65908762146306
 20
120.50981473241636
 10
56.870309718100145
 20
119.51212478764782
 10
57.004007563734525
 20
116.51343759387908
 10
59.73754131960877
 20
113.54396066931876
 10
61.167786704685184
 20
110.8598596767204
 10
61.68797764302949
 20
109.06559063678674
 10
61.80594688216699
 20
107.46681508699328
 10
61.528435253453516
 20
105.4635708942078
 10
60.455468001467544
 20
103.05136417085971
 10
59.36789561487733
 20
101.93907540263157
 10
59.47463013508851
 20
101.34023674139193
 10
59.88134572186583
 20
100.74476849583019
 10
62.28905855764337
 20
100.07177599926572
 10
64.40465463010321
 20
98.69545726503573
 10
65.52143728590188
 20
97.20791012302399
 10
66.64720771684162
 20
94.92041347016922
 10
67.51905942881318
 20
88.529805158566
 10
69.78071153772636
 20
83.05486865315805
 10
70.4098839400671
 20
80.46177357427398
 10
70.24360071913534
 20
77.45971596482732
  0
LWPOLYLINE
  5
33
330
17
100
AcDbEntity
  8
TOPPERS_CUT
100
AcDbPolyline
 90
153
 70
1
 10
94.27017284174228
 20
75.22950699767482
 10
92.45006394827806
 20
77.00917090300426
 10
91.22542330037557
 20
79.19555039511101
 10
90.70073847446074
 20
81.38979419046619
 10
90.6726516771449
 20
83.88963641185069
 10
91.346767645602
 20
86.19735555877284
 10
93.92188717420393
 20
88.42642698279965
 10
95.22517554500176
 20
88.14105105083776
 10
96.91608048040214
 20
88.96009958385557
 10
99.41929311746455
 20
88.68820531460526
 10
99.91701461795617
 20
88.89381005177918
 10
101.818018178101
 20
88.81516232888383
 10
102.21349904595198
 20
89.21963097187589
 10
102.30787537534421
 20
89.7207228880454
 10
100.78999449223139
 20
91.303769831342
 10
99.6821996115738
 20
91.99136746251068
 10
98.36205916238646
 20
93.77664872730328
 10
98.25532464217527
 20
94.37548738854292
 10
98.64406467867046
 20
95.37991816466726
 10
99.93274791486405
 20
96.39446018782527
 10
102.22586192718198
 20
97.02026217448812
 10
104.0257483265788
 20
97.04048466855552
 10
107.032299823596
 20
96.47422669220224
 10
107.83224933443903
 20
96.4832144673433
 10
108.32884736303802
 20
96.78881289337261
 10
108.31311875654117
 20
98.18872453734792
 10
107.78618698684106
 20
100.58295571041387
 10
106.77501537936094
 20
101.57165788004133
 10
105.6694674424886
 20
102.05926813349927
 10
103.27186585374477
 20
101.83231743036531
 10
101.56410883995486
 20
102.5131742301782
 10
100.45294354361938
 20
103.50075292791303
 10
99.9439873242014
 20
104.2950850792929
 10
99.73164175567169
 20
105.39276871291682
 10
99.92151788634875
 20
106.29495885640048
 10
100.91808435922465
 20
106.60617464189298
 10
102.30002045291782
 20
108.22180227007591
 10
103.20333406829414
 20
107.93193245054344
 10
104.8167147526918
 20
106.74998373456103
 10
107.11432265258027
 20
106.97581096580237
 10
107.90303744449697
 20
107.98473562949721
 10
108.286160121529
 20
109.48913484989843
 10
107.16038969058926
 20
111.7766315027532
 10
107.13230289327342
 20
114.27647372413772
 10
107.90753602247852
 20
116.48532265409713
 10
108.59625712553984
 20
117.49312384589935
 10
108.58277546282822
 20
118.69304811216391
 10
105.96945788987678
 20
119.86376210921999
 10
104.95603933861139
 20
121.05245165655822
 10
105.74250718674281
 20
122.26136369796384
 10
107.13343105557706
 20
123.07704181530373
 10
109.82651982331652
 20
123.7073376895371
 10
113.32742240514744
 20
123.64666551692389
 10
116.03286936370584
 20
123.17703081374809
 10
118.04060744406186
 20
122.49954442961311
 10
118.85291514572387
 20
121.408601627345
 10
118.68101456532895
 20
118.90651246217524
 10
119.48770490752777
 20
118.31553810418404
 10
121.18198025860606
 20
118.8346055706357
 10
123.68069900809792
 20
118.96268605680692
 10
124.47727810326307
 20
119.27165489851411
 10
125.26823983896504
 20
120.08059218449822
 10
125.65473293167494
 20
121.28501033833331
 10
124.4446974183767
 20
122.17147187532012
 10
123.5312725559667
 20
123.36128489455098
 10
123.51442047757719
 20
124.86119022738168
 10
126.00302798003534
 20
125.8892139132513
 10
127.70404416246943
 20
125.80831924657068
 10
129.1994556077296
 20
126.2251460803817
 10
133.10257988876728
 20
125.96898041762827
 10
135.71477398982614
 20
124.89826010942754
 10
137.22816098536842
 20
123.7151879215525
 10
137.44387696957602
 20
122.31752322136245
 10
136.85739649915536
 20
121.11085812374208
 10
136.48101465347912
 20
119.00649677020859
 10
136.88660676836383
 20
118.51102221350223
 10
140.1920158600545
 20
118.04812834168222
 10
143.20418471653485
 20
116.98190192105203
 10
144.40523245469208
 20
116.89538989490825
 10
145.61302102420504
 20
116.20891573563222
 10
147.41964825495768
 20
115.62917609656733
 10
149.3307630621362
 20
114.65058517397355
 10
150.1385768762277
 20
113.95961712712696
 10
151.3441185019554
 20
113.47313034556169
 10
153.96979426572585
 20
111.20248577109642
 10
156.09662505711202
 20
108.8262301483126
 10
158.23806098310243
 20
105.15005657040885
 10
159.07396159450974
 20
101.95924630217777
 10
159.0964310323624
 20
99.95937252507017
 10
158.3110866561236
 20
98.65046679480918
 10
157.41001998453254
 20
98.74034923663086
 10
155.3910471852502
 20
100.41777250931963
 10
153.89114185241948
 20
100.40092043093014
 10
153.28780930360932
 20
100.69416066614049
 10
152.77323572472818
 20
101.98846126179726
 10
152.2676499209881
 20
102.48281234661098
 10
151.56657062710784
 20
102.57494173221794
 10
150.8711086926907
 20
102.16710267354799
 10
149.86892486035165
 20
102.35585533233241
 10
148.34992050534618
 20
104.03889596448437
 10
147.46008855268147
 20
103.12884151775225
 10
146.06804121195458
 20
102.41315708926773
 10
145.06585737961552
 20
102.60190974805214
 10
143.4536001671105
 20
103.6838647751792
 10
142.95924908229676
 20
103.17827897143914
 10
142.6761200941201
 20
101.67500322293054
 10
141.9873989910588
 20
100.66720203112831
 10
140.98858557439763
 20
100.5559736233466
 10
139.08421159857488
 20
100.93460241280808
 10
138.48874335301315
 20
100.52788682603077
 10
138.51008931897314
 20
98.62800673777856
 10
137.928102736123
 20
97.02136688473668
 10
135.9304759028007
 20
96.79891006917326
 10
133.5272569545937
 20
97.07192781031618
 10
132.64079541760688
 20
95.86189229701793
 10
132.9609989782404
 20
94.06537631329901
 10
132.76999937567072
 20
93.2631798586707
 10
132.07453744125357
 20
92.85534080000076
 10
128.07591335893105
 20
92.71040823544004
 10
127.78154965182804
 20
92.20706937548525
 10
128.90619661087518
 20
90.01956641148585
 10
128.8196845847314
 20
88.81851867332867
 10
128.0275993771368
 20
88.10957507619995
 10
127.52763093285989
 20
88.10395771673679
 10
126.23445380909575
 20
87.48939044900027
 10
125.54460923414179
 20
86.58158294605343
 10
127.26697138253591
 20
84.60080819112059
 10
127.98490275480572
 20
83.00877347268296
 10
127.29842859552964
 20
81.80098490316996
 10
125.61089407580714
 20
80.68195530358602
 10
125.11204910342289
 20
80.57634425526747
 10
124.52332168921696
 20
79.56966653535788
 10
125.75020928090471
 20
77.18329966554037
 10
125.9614313775418
 20
76.18560972077185
 10
125.77267871875738
 20
75.18342588843278
 10
124.87947635041476
 20
74.57335250826681
 10
122.5852388662042
 20
74.04754421045934
 10
121.58417850575776
 20
74.1363031803884
 10
120.38987159895638
 20
73.6228530733999
 10
119.40229290122154
 20
72.51168777706438
 10
119.31578087507776
 20
71.3106400389072
 10
118.9281643104752
 20
70.2062155739275
 10
117.53948738542621
 20
69.19055007887684
 10
115.93509447616964
 20
69.57254928401622
 10
113.72062818674704
 20
70.84775085749821
 10
111.51964356003604
 20
70.92302816471566
 10
109.92648536970577
 20
70.30509048130126
 10
108.6288143583711
 20
70.09049796898627
 10
107.12666208175514
 20
70.27363326830752
 10
105.81887982338678
 20
70.95898395569095
 10
102.58762456702091
 20
73.72285614307731
 10
97.38458233086327
 20
73.96441667122653
 10
95.37796772239989
 20
74.54190936650613
  0
LWPOLYLINE
  5
34
330
17
100
AcDbEntity
  8
TOPPERS_CUT
100
AcDbPolyline
 90
158
 70
1
 10
90.37831142209703
 20
127.88910645200296
 10
90.55582936195512
 20
129.89122717289584
 10
91.43217965190823
 20
132.0012058858925
 10
92.61412836789066
 20
133.6145865702902
 10
93.0983682056707
 20
135.02011557372867
 10
95.26340173181742
 20
138.14463630988334
 10
95.45552480627973
 20
138.84683907565628
 10
95.13644471753882
 20
140.54336137051982
 10
93.81855121213677
 20
142.12865525760168
 10
93.11634844636384
 20
142.32077833206398
 10
92.11753502970268
 20
142.20954992428227
 10
90.43000050998019
 20
141.09052032469836
 10
89.52219300703334
 20
141.78036489965228
 10
89.1109835326855
 20
142.77580790063556
 10
88.99638470922588
 20
144.07460238386287
 10
89.67162414957559
 20
146.28232784192966
 10
91.3524178379423
 20
148.00131957464586
 10
93.6410379626897
 20
149.02709631673022
 10
94.33200600953629
 20
149.8349101308217
 10
94.11741349722129
 20
151.13258114215637
 10
92.79614957614133
 20
153.01785609580435
 10
92.5871744232895
 20
153.8155586628621
 10
91.97822451501615
 20
154.60876734234935
 10
90.95357124482442
 20
156.79739377824137
 10
91.12659529711199
 20
159.19948925455574
 10
91.51421186171454
 20
160.30391371953544
 10
92.69616057769697
 20
161.9172944039331
 10
93.78485643617981
 20
162.9295894833059
 10
96.77343238291486
 20
163.9632305286387
 10
97.57562883754318
 20
163.77223092606897
 10
98.27333771574555
 20
163.98008260702818
 10
99.97435389817964
 20
163.89918794034753
 10
100.76868604955949
 20
164.40814415976553
 10
100.95294482077338
 20
165.8103027475261
 10
101.25067894355426
 20
166.01366054091477
 10
100.83497558163587
 20
167.40907829731955
 10
101.33382055402014
 20
167.5146893456381
 10
101.73716572511957
 20
167.21920216664248
 10
102.32252272364761
 20
168.5258609531182
 10
100.51140160532445
 20
169.50557534760463
 10
99.2979956763483
 20
170.69201795115757
 10
98.24413213694811
 20
175.48048029728946
 10
98.31491555659503
 20
178.08143967942198
 10
98.98004374991105
 20
181.18910833718718
 10
99.95414078493428
 20
183.50019789978722
 10
101.5394346720161
 20
184.8180914051893
 10
103.84378340326036
 20
184.44395650329835
 10
104.74260313106615
 20
184.55406143918742
 10
105.6470402183351
 20
184.16419793079962
 10
106.43687848214442
 20
185.07312890563907
 10
107.0525692217736
 20
183.67995809301956
 10
107.06717435637782
 20
182.3800401378996
 10
107.36940236672922
 20
182.18342317586678
 10
107.7648832345802
 20
182.58789181885885
 10
107.53343864387573
 20
185.3854681630242
 10
107.02223548067249
 20
186.3797876921148
 10
106.68630331354208
 20
189.57621531980905
 10
107.3739009447108
 20
190.68401020046667
 10
108.76707175733029
 20
191.29970094009582
 10
111.06243271343348
 20
191.72551554904788
 10
113.06680037811161
 20
191.34801023147904
 10
114.57569348608338
 20
190.5649127990255
 10
115.99807456791136
 20
188.58076762841478
 10
116.71600594018113
 20
186.98873290997716
 10
117.42045564973935
 20
186.59662245780405
 10
117.91817715023096
 20
186.80222719497797
 10
119.41920595495428
 20
186.7190855845121
 10
121.01348761717718
 20
187.23702957907113
 10
122.21678229911966
 20
186.95053017521658
 10
122.9099972897515
 20
187.5583566115973
 10
123.49423081638693
 20
188.96500908692843
 10
125.18401227989466
 20
189.8840513088016
 10
127.78047777445666
 20
190.21324264457618
 10
130.2848138834117
 20
189.8413546864705
 10
130.88814643222184
 20
189.54811445126018
 10
131.78808963192026
 20
189.55822569829388
 10
132.77454485776246
 20
190.76938468348476
 10
133.57000048103495
 20
191.17834721404734
 10
135.6653740594274
 20
191.60191487921415
 10
137.56637761957225
 20
191.5232671563188
 10
139.1718940007215
 20
191.04127426232407
 10
140.78527468511916
 20
189.8593255463416
 10
141.29872479210763
 20
188.66501863954025
 10
142.06047156819017
 20
183.17323005574278
 10
142.0784471184723
 20
181.5733310340567
 10
142.80986015345366
 20
178.78137204935453
 10
143.31993984476426
 20
177.8870462091193
 10
144.40751223135447
 20
178.99933497734742
 10
144.79849921163492
 20
179.803778375761
 10
146.18829960857653
 20
180.71945018195626
 10
148.27805582750582
 20
181.64298629139998
 10
150.07681875501
 20
181.76320247432278
 10
152.38116748625424
 20
181.3890675724318
 10
153.9889308111888
 20
180.7070873007263
 10
155.60343496747907
 20
179.42514489588848
 10
157.44376635501072
 20
175.8455945911622
 10
159.6728377790375
 20
173.27047506256028
 10
160.18853482981132
 20
171.87618077804814
 10
160.19976954873763
 20
170.87624388949433
 10
159.90989972920516
 20
169.97293027411803
 10
159.11781452161057
 20
169.2639866769893
 10
157.60667446985354
 20
170.2470714871536
 10
156.80784843090314
 20
170.13809002315713
 10
156.41124409115952
 20
169.83361506902048
 10
155.6315170743839
 20
168.0247408944826
 10
155.78543741408566
 20
163.226167301317
 10
155.3135557671246
 20
160.7207077204693
 10
154.33608831642348
 20
158.7095992244354
 10
152.0620733262803
 20
156.3839045272311
 10
149.7734532015329
 20
155.35812778514676
 10
147.7791967838885
 20
154.8356899030172
 10
145.17711392986334
 20
155.0064670115195
 10
141.96271075188696
 20
156.27043386607517
 10
140.55156438898533
 20
157.25464214813206
 10
139.13143025094263
 20
159.03879994103204
 10
138.22699316367365
 20
159.42866344941987
 10
135.7305213579671
 20
159.1005955855379
 10
133.0396795340129
 20
158.27031233359378
 10
131.33753987968618
 20
158.45120068912973
 10
130.5499485596621
 20
157.34228233657953
 10
131.25776868489817
 20
156.65019081784027
 10
132.28916278644573
 20
153.861602248816
 10
132.20714464787247
 20
152.2605797552373
 10
131.51730007291852
 20
151.35277225229044
 10
130.71060973071968
 20
151.94374661028166
 10
129.90841327609138
 20
152.13474621285133
 10
129.01071702017822
 20
151.9246475881069
 10
128.6152361523272
 20
151.52017894511485
 10
128.22537264393944
 20
150.61574185784588
 10
128.27031151964474
 20
146.61599430363069
 10
128.09391705167928
 20
144.51387989388246
 10
127.708547430862
 20
143.209468051192
 10
126.63333323509076
 20
140.99724870555468
 10
124.45931193380295
 20
138.67267748024304
 10
122.3729261305516
 20
137.44916030423317
 10
120.0809355901263
 20
136.72336462871493
 10
118.59563539189985
 20
135.4065945952055
 10
116.70699002257395
 20
134.3853117406917
 10
113.11732847081399
 20
133.44492355285848
 10
112.03649691557958
 20
131.73267265149804
 10
110.05459868875414
 20
130.1103041919593
 10
109.4557600275145
 20
130.00356967174815
 10
108.8524274787043
 20
130.29680990695846
 10
107.4367872282321
 20
131.68099294443692
 10
107.02894816956216
 20
132.37645487885405
 10
106.33236276325242
 20
132.06860950903948
 10
105.93800536729407
 20
131.56414717719204
 10
103.64826177065402
 20
130.63836412396307
 10
102.63933710695918
 20
131.42707891587978
 10
102.32138049011091
 20
133.02360752188793
 10
101.41357298716406
 20
133.71345209684188
 10
100.411389154825
 20
133.90220475562631
 10
98.03063964447065
 20
132.17534871966168
 10
97.24080138066132
 20
131.26641774482218
 10
96.24648185157068
 20
130.755214581619
 10
93.96797297385699
 20
128.82949463983618
 10
92.37930867109725
 20
127.81158220100026
 10
90.9816439709072
 20
127.59586621679261
  0
LWPOLYLINE
  5
35
330
17
100
AcDbEntity
  8
TOPPERS_CUT
100
AcDbPolyline
 90
100
 70
1
 10
34.91327132035509
 20
124.46575626364088
 10
33.088668539320324
 20
126.64539492439182
 10
31.583145847026465
 20
127.12851129027925
 10
30.875325721790375
 20
127.82060280901844
 10
28.883316247931212
 20
127.09817754917815
 10
28.283354114798936
 20
127.09143671782233
 10
27.86203339341739
 20
128.98682291850403
 10
27.457564750425338
 20
129.38230378635498
 10
26.35651070112353
 20
129.46993928439142
 10
26.64638052065597
 20
130.3732528997677
 10
26.529534753411088
 20
131.8720347607058
 10
24.30383374506217
 20
134.14717322274157
 10
22.364632140567792
 20
137.62560636671984
 10
21.637712993156935
 20
140.0175905960005
 10
21.686026974951186
 20
144.6184237552406
 10
21.072583179107312
 20
145.81160719014935
 10
19.861424193916424
 20
146.79806241599155
 10
19.04911649225442
 20
147.88900521825968
 10
18.435672696410542
 20
149.08218865316843
 10
18.325567760521462
 20
149.9810083809742
 10
18.799696351267798
 20
152.2864805841111
 10
19.982768539142853
 20
153.79986757965338
 10
20.169274254142014
 20
155.00203878970322
 10
19.45696024133539
 20
156.09410506386396
 10
18.142437151611226
 20
157.37941788437968
 10
17.71774601455177
 20
159.57478515162748
 10
18.2053562680097
 20
160.68033308849982
 10
19.6816686910951
 20
162.79705263285229
 10
19.665940084598237
 20
164.1969642768276
 10
18.85700279861413
 20
164.98792601252958
 10
18.053682872093198
 20
165.27891930395464
 10
17.03914084893517
 20
166.56760254014824
 10
17.231263923397492
 20
167.26980530592118
 10
18.22445998059549
 20
167.8810021579798
 10
19.310908895293068
 20
169.09328461506328
 10
19.39966786522211
 20
170.09434497550973
 10
17.47507139533197
 20
172.27286016436807
 10
13.814631114336105
 20
177.63207437442375
 10
11.769818461523185
 20
181.60935249078628
 10
11.147386890538243
 20
183.60248543653807
 10
11.030541123293364
 20
185.1012672974761
 10
12.713581755445318
 20
186.62027165248156
 10
13.1056922076184
 20
187.32472136203978
 10
14.692109566592876
 20
188.54262117858644
 10
17.679562041435297
 20
189.67625591277462
 10
19.677188874757626
 20
189.89871272833804
 10
21.666951404831515
 20
190.82112536588915
 10
24.25892301182295
 20
191.55029145708528
 10
27.856448866831357
 20
191.79072382293083
 10
30.059680437327604
 20
191.5154591380026
 10
31.352857561091735
 20
192.13002640573913
 10
34.54703824500072
 20
192.6659459505803
 10
37.44797869369936
 20
192.59853294661124
 10
39.952314802654385
 20
192.2266449885056
 10
41.35784380609286
 20
191.74240515072557
 10
43.75544539483671
 20
191.9693558538595
 10
46.25641108811383
 20
191.89744896231997
 10
48.964104990457514
 20
191.22782688143337
 10
50.77410263688804
 20
190.34810617580237
 10
53.07732789623967
 20
190.0739649627668
 10
55.58615789276523
 20
189.3021022492396
 10
56.795069934170854
 20
188.51563440110814
 10
58.918530309879124
 20
186.43935984489048
 10
59.5286036900451
 20
185.54615747654788
 10
59.44096819200869
 20
184.44510342724607
 10
58.86909285619223
 20
181.93852037450577
 10
56.819781625397766
 20
177.4152114662684
 10
52.298714970534625
 20
170.3639735393307
 10
52.51106053906436
 20
169.2662899057068
 10
53.1166400316598
 20
168.7730622927857
 10
54.119947335891496
 20
168.48431594514588
 10
54.42442229002817
 20
168.08771160540226
 10
54.537897641595144
 20
166.88891081103034
 10
53.94692328360394
 20
166.0822204688315
 10
52.85373353755055
 20
165.46990014488026
 10
51.963901584885846
 20
164.55984569814814
 10
53.0031599896818
 20
161.0713013071362
 10
54.31655960751334
 20
159.88598217547587
 10
54.6277753930058
 20
158.88941570259996
 10
54.6412570557174
 20
157.6894914363354
 10
54.25701090679274
 20
156.28508590478958
 10
52.18185982246772
 20
154.06163184022594
 10
52.19758842896458
 20
152.66172019625063
 10
52.70991506406044
 20
151.56740697830463
 10
53.02899515280135
 20
149.87088468344103
 10
52.84698332537272
 20
148.2687387179697
 10
52.45936676077016
 20
147.16431425298998
 10
49.69549457338381
 20
143.93305899662414
 10
49.33933522177499
 20
140.02881124369378
 10
48.76745988595854
 20
137.5222281909535
 10
46.31255654027938
 20
133.4943938394225
 10
43.34195614382646
 20
130.8608537724036
 10
43.65654234499683
 20
129.56430623296157
 10
42.56559954272872
 20
128.7519985312996
 10
41.487014931279575
 20
126.83976025222842
 10
40.58594825968853
 20
126.92964269405009
 10
39.77925791748969
 20
127.52061705204127
 10
38.980431878539285
 20
127.41163558804485
 10
37.38839716010165
 20
126.69370421577506
 10
35.60873325477222
 20
124.87359532231082
  0
LWPOLYLINE
  5
36
330
17
100
AcDbEntity
  8
TOPPERS_CUT
100
AcDbPolyline
 90
88
 70
1
 10
-2.6573407693232305
 20
219.54966187971723
 10
-3.010125014843133
 20
224.24599484024216
 10
-2.9663049206194168
 20
229.24680275490374
 10
-4.097692711022324
 20
232.0342678520354
 10
-4.0302797070533085
 20
234.93520830073402
 10
-3.242688387029238
 20
236.0441266532843
 10
-1.7450299979838106
 20
236.26096610938458
 10
2.555822094690144
 20
236.20928171191244
 10
3.0479262357186094
 20
236.91485489336324
 10
3.23443195071777
 20
238.11702610341308
 10
4.013035495600774
 20
240.02589396680636
 10
5.094990522727818
 20
241.63815117931136
 10
6.379179871350887
 20
243.05266795789095
 10
8.866663901916409
 20
244.18068533261595
 10
12.263078907321416
 20
244.51886444353158
 10
13.866348344685388
 20
244.23685892724762
 10
16.379672228781477
 20
243.0650214582989
 10
18.705366925985775
 20
240.79100646815567
 10
19.21881703297427
 20
239.5966995613543
 10
19.33004544075598
 20
238.59788614469318
 10
20.142353142417985
 20
237.50694334242507
 10
28.84405101662128
 20
237.40469801937337
 10
30.15295674688228
 20
236.6193536431346
 10
31.45175123010958
 20
236.7339524665942
 10
33.1437796374026
 20
237.45300731075662
 10
41.943224256676004
 20
237.55187283730834
 10
44.85202900862308
 20
236.7845040113517
 10
45.95083611413962
 20
236.896855891026
 10
46.541810472130834
 20
237.70354623322487
 10
47.604666477083114
 20
241.0156961562713
 10
49.77756430647826
 20
243.44026107043842
 10
51.66958009148205
 20
244.16156285838605
 10
52.1650546481884
 20
244.56715497327076
 10
53.661589565341195
 20
244.8839881182264
 10
57.26360930792013
 20
244.72444572865044
 10
59.77580972012358
 20
243.6526019485571
 10
61.29144365945115
 20
242.26954238297125
 10
62.305985682609176
 20
240.98085914677768
 10
63.33962672794197
 20
237.99228320004264
 10
63.94970010810793
 20
237.09908083169998
 10
64.95413088423227
 20
236.7103407952048
 10
65.86193838717912
 20
236.0204962202509
 10
68.46739165688216
 20
235.5497380451824
 10
69.17970566968879
 20
234.45767177102167
 10
69.01342244875701
 20
231.45561416157503
 10
68.72018221354668
 20
230.8522816127648
 10
67.53261613810109
 20
229.73886937264405
 10
67.45509188709838
 20
227.73787212364385
 10
67.56070293541691
 20
227.23902715125956
 10
68.47525126971956
 20
225.94922044317337
 10
69.4830524615218
 20
225.26049934011203
 10
71.50764262026732
 20
223.08310762314636
 10
71.92222251029307
 20
221.78768355559697
 10
71.94581542003837
 20
219.68781608963394
 10
70.36501073011604
 20
209.06938604878897
 10
70.47399219411248
 20
208.27056000983853
 10
71.59302179369644
 20
206.58302549011609
 10
71.70762061715604
 20
205.28423100688877
 10
71.51886795837162
 20
204.28204717454975
 10
70.93238748795093
 20
203.0753820769294
 10
68.33592199338896
 20
202.74619074115478
 10
35.83684964349798
 20
202.48105606490432
 10
34.94027685947746
 20
202.17096375130453
 10
34.24706186884559
 20
201.56313731492378
 10
32.38313288115765
 20
198.34199330559164
 10
31.593294617348317
 20
197.43306233075214
 10
30.200123804728797
 20
196.81737159112302
 10
26.302616883154265
 20
196.57356880959952
 10
19.30193519138506
 20
196.59491946597058
 10
18.497491792971484
 20
196.98590644625102
 10
18.188522951264282
 20
197.78248554141618
 10
18.46603457997775
 20
199.78572973420165
 10
19.256996315679725
 20
200.5946670201858
 10
20.85015450601
 20
201.2126047036002
 10
20.54680302376596
 20
201.50921535448842
 10
17.84360300899281
 20
201.77886267995345
 10
16.64480221462089
 20
201.6653873283865
 10
13.341640066715465
 20
201.92829382249573
 10
11.834993902528971
 20
202.51140387723848
 10
10.622711445445452
 20
203.59785279193608
 10
10.2148723867755
 20
204.2933147263532
 10
6.294900717759315
 20
214.94994750195875
 10
5.284852582171821
 20
215.8386559827308
 10
2.5805290955060385
 20
216.20829699705126
 10
1.9760730748032276
 20
216.60153092111696
 10
0.8750190255014193
 20
216.68916641915334
 10
-1.3327064325653644
 20
217.36440585950308
 10
-2.243884351190113
 20
218.3542315010232
  0
LWPOLYLINE
  5
37
330
17
100
AcDbEntity
  8
TOPPERS_CUT
100
AcDbPolyline
 90
134
 70
1
 10
110.42090212027378
 20
195.41854120534114
 10
108.50978731309525
 20
196.3971321279349
 10
106.28970366420947
 20
198.1723021456938
 10
104.66958214845602
 20
199.9542129948085
 10
102.95957819088088
 20
200.83505717233214
 10
101.34507403459055
 20
202.11699957716996
 10
99.61821799862591
 20
204.4977490875243
 10
99.19577380535172
 20
206.4931289770613
 10
99.56766176345742
 20
208.99746508601638
 10
102.12705268556248
 20
212.6264481540185
 10
101.9090897575696
 20
214.2241002319193
 10
100.68894299723763
 20
216.01050496860452
 10
99.58002464468741
 20
216.79809628862859
 10
98.98006251155513
 20
216.7913554572728
 10
98.38459426599337
 20
216.3846398704955
 10
97.60037336164721
 20
214.97574045137907
 10
97.12736824279351
 20
212.57027455938683
 10
96.44089408351745
 20
211.36248598987382
 10
95.33759309043037
 20
211.65010886562104
 10
93.84330511706284
 20
211.13328834295461
 10
93.05121990946824
 20
210.42434474582586
 10
91.44233311264111
 20
211.2063187063868
 10
90.62777846719385
 20
212.4972488863657
 10
90.51205617184158
 20
213.89603705844834
 10
90.90191968022941
 20
214.80047414571732
 10
94.76684591691757
 20
217.94409390404675
 10
96.6330218483908
 20
220.96525053566816
 10
97.91833466890651
 20
222.27977362539235
 10
99.09803644110366
 20
224.0931416875008
 10
99.08455477839206
 20
225.29306595376534
 10
98.57672203086672
 20
225.98740441628985
 10
97.77340210434578
 20
226.27839770771487
 10
96.97794648107329
 20
225.8694351771523
 10
96.0723859219117
 20
226.3592923743955
 10
96.15777447616286
 20
227.66033380140811
 10
97.24422339086041
 20
228.8726162584916
 10
96.61842140419759
 20
231.16573027080955
 10
96.79593934405568
 20
233.16785099170238
 10
97.68015393725723
 20
234.5778738827114
 10
98.47336261674447
 20
235.18682379098473
 10
100.06764427896735
 20
235.7047677855438
 10
101.86640720647156
 20
235.82498396846654
 10
102.96072042441756
 20
236.33731060356246
 10
103.94942259404502
 20
237.34848221104258
 10
104.92913698853144
 20
239.15960332936575
 10
105.82009241308876
 20
239.96966408724242
 10
106.57622652011912
 20
243.8784057277433
 10
107.74806398906784
 20
246.3917296118394
 10
109.7198509688596
 20
248.91404127107657
 10
112.39608765820955
 20
251.04424247814063
 10
117.86990069172487
 20
253.40588827590918
 10
121.66292003687349
 20
254.04854234096152
 10
125.36268652452254
 20
254.09011080098895
 10
130.0702542039738
 20
253.44295815795505
 10
133.5835149766237
 20
252.28235540793267
 10
138.5169098873163
 20
249.33759486501032
 10
140.4370124696359
 20
247.55905443157354
 10
143.48288548289526
 20
243.493017345282
 10
145.02211233196812
 20
240.0100903137332
 10
145.6467908467383
 20
237.81696999027062
 10
146.6602093980037
 20
236.62828044293238
 10
147.66688711791332
 20
236.03955302872646
 10
148.569077261397
 20
235.84967689804938
 10
151.37002402124023
 20
235.78114042218772
 10
154.27545835750942
 20
235.31375266279719
 10
156.7887822416055
 20
234.1419151938485
 10
159.5189455818019
 20
231.47241933585434
 10
160.64359254084897
 20
229.28491637185493
 10
161.3806229352935
 20
225.99298894287585
 10
161.0289574712552
 20
221.68876643452398
 10
160.15710106887266
 20
219.1788129661058
 10
159.35827502992225
 20
219.0698315021094
 10
158.5347326093339
 20
221.16071119293127
 10
156.60676572376588
 20
223.63920744835576
 10
150.2779530566685
 20
226.1682646293597
 10
149.88808954828067
 20
225.26382754209075
 10
149.72180632734893
 20
222.26176993264409
 10
147.98483435393956
 20
216.64190086267544
 10
148.014044623148
 20
214.04206495243562
 10
148.74096377055884
 20
211.6500807231549
 10
148.544346808526
 20
211.34785271280353
 10
147.94550814728638
 20
211.24111819259232
 10
145.52656059258248
 20
212.91404757771056
 10
143.5042173776222
 20
214.89145191696548
 10
141.67175029333902
 20
217.77104639970412
 10
140.7437202963248
 20
220.2607773740549
 10
140.42576367947652
 20
221.85730598006307
 10
140.40104729783857
 20
224.0571671348814
 10
141.25380467804638
 20
228.26701331384106
 10
142.04139599807047
 20
229.3759316663913
 10
142.42564214699513
 20
230.78033719793717
 10
143.01436956120108
 20
231.78701491784673
 10
143.20536916377074
 20
232.58921137247503
 10
142.9885297076705
 20
234.0868697615205
 10
140.54823618700658
 20
237.65967923489097
 10
138.32702906622822
 20
239.53484294150525
 10
134.60366966883387
 20
241.59314194744078
 10
133.70372646913546
 20
241.58303070040705
 10
132.1274203571947
 20
239.465187684162
 10
130.93311345039328
 20
238.95173757717347
 10
129.75116473441088
 20
237.33835689277575
 10
131.3667923625938
 20
235.95642079908262
 10
132.17011228911474
 20
235.66542750765757
 10
134.56996082164386
 20
235.69239083308076
 10
136.28221172300428
 20
234.6115592778463
 10
136.69229772545947
 20
233.71610996571843
 10
136.29906380139377
 20
233.11165394501563
 10
135.20250363966247
 20
232.79931468763053
 10
135.31485551933685
 20
231.70050758211397
 10
136.2473794039216
 20
228.81080185234168
 10
137.15406343497582
 20
228.22095096624312
 10
137.95625988960415
 20
228.0299513636734
 10
138.66969737430338
 20
226.83789140065727
 10
138.88091947094048
 20
225.84020145588875
 10
138.796654388582
 20
224.4391663400208
 10
136.93272540089404
 20
221.2180223306886
 10
136.04064650444406
 20
220.5079552616673
 10
134.86431514792477
 20
218.3946061329927
 10
134.98902521841808
 20
216.19586845006697
 10
135.81818499846958
 20
213.60502031496816
 10
135.95412978788923
 20
210.40634574348869
 10
134.89015031104435
 20
207.19418950929753
 10
134.20255267987565
 20
206.08639462864
 10
131.6274331512737
 20
203.85732320461315
 10
131.13982289781578
 20
202.7517752677408
 10
130.95444065470923
 20
201.4496103688356
 10
129.9702323726523
 20
200.03846400593397
 10
128.2849447967151
 20
198.71944702863925
 10
124.79752387759576
 20
197.58019493498793
 10
124.00768561378644
 20
196.67126396014845
 10
123.01448955658846
 20
196.06006710808984
 10
120.6236287992004
 20
195.2331542718236
 10
116.42951122673762
 20
194.6860000080561
 10
113.42970056107622
 20
194.6522958512771
  0
ENDSEC
  0
SECTION
  2
OBJECTS
  0
DICTIONARY
  5
A
330
0
100
AcDbDictionary
281
1
  3
ACAD_COLOR
350
B
  3
ACAD_GROUP
350
C
  3
ACAD_LAYOUT
350
D
  3
ACAD_MATERIAL
350
E
  3
ACAD_MLEADERSTYLE
350
F
  3
ACAD_MLINESTYLE
350
10
  3
ACAD_PLOTSETTINGS
350
11
  3
ACAD_PLOTSTYLENAME
350
12
  3
ACAD_SCALELIST
350
14
  3
ACAD_TABLESTYLE
350
15
  3
ACAD_VISUALSTYLE
350
16
  3
EZDXF_META
350
2D
  0
DICTIONARY
  5
B
330
A
100
AcDbDictionary
281
1
  0
DICTIONARY
  5
C
330
A
100
AcDbDictionary
281
1
  0
DICTIONARY
  5
D
330
A
100
AcDbDictionary
281
1
  3
Model
350
1A
  3
Layout1
350
1E
  0
DICTIONARY
  5
E
330
A
100
AcDbDictionary
281
1
  3
ByBlock
350
1F
  3
ByLayer
350
20
  3
Global
350
21
  0
DICTIONARY
  5
F
330
A
100
AcDbDictionary
281
1
  3
Standard
350
2C
  0
DICTIONARY
  5
10
330
A
100
AcDbDictionary
281
1
  3
Standard
350
22
  0
DICTIONARY
  5
11
330
A
100
AcDbDictionary
281
1
  0
ACDBDICTIONARYWDFLT
  5
12
330
A
100
AcDbDictionary
281
1
  3
Normal
350
13
100
AcDbDictionaryWithDefault
340
13
  0
ACDBPLACEHOLDER
  5
13
330
12
  0
DICTIONARY
  5
14
330
A
100
AcDbDictionary
281
1
  0
DICTIONARY
  5
15
330
A
100
AcDbDictionary
281
1
  0
DICTIONARY
  5
16
330
A
100
AcDbDictionary
281
1
  0
LAYOUT
  5
1A
330
D
100
AcDbPlotSettings
  1

  4
A3
  6

 40
7.5
 41
20.0
 42
7.5
 43
20.0
 44
420.0
 45
297.0
 46
0.0
 47
0.0
 48
0.0
 49
0.0
140
0.0
141
0.0
142
1.0
143
1.0
 70
1024
 72
1
 73
0
 74
5
  7

 75
16
 76
0
 77
2
 78
300
147
1.0
148
0.0
149
0.0
100
AcDbLayout
  1
Model
 70
1
 71
0
 10
0.0
 20
0.0
 11
420.0
 21
297.0
 12
0.0
 22
0.0
 32
0.0
 14
1e+20
 24
1e+20
 34
1e+20
 15
-1e+20
 25
-1e+20
 35
-1e+20
146
0.0
 13
0.0
 23
0.0
 33
0.0
 16
1.0
 26
0.0
 36
0.0
 17
0.0
 27
1.0
 37
0.0
 76
1
330
17
  0
LAYOUT
  5
1E
330
D
100
AcDbPlotSettings
  1

  4
A3
  6

 40
7.5
 41
20.0
 42
7.5
 43
20.0
 44
420.0
 45
297.0
 46
0.0
 47
0.0
 48
0.0
 49
0.0
140
0.0
141
0.0
142
1.0
143
1.0
 70
0
 72
1
 73
0
 74
5
  7

 75
16
 76
0
 77
2
 78
300
147
1.0
148
0.0
149
0.0
100
AcDbLayout
  1
Layout1
 70
1
 71
1
 10
0.0
 20
0.0
 11
420.0
 21
297.0
 12
0.0
 22
0.0
 32
0.0
 14
1e+20
 24
1e+20
 34
1e+20
 15
-1e+20
 25
-1e+20
 35
-1e+20
146
0.0
 13
0.0
 23
0.0
 33
0.0
 16
1.0
 26
0.0
 36
0.0
 17
0.0
 27
1.0
 37
0.0
 76
1
330
1B
  0
MATERIAL
  5
1F
102
{ACAD_REACTORS
330
E
102
}
330
E
100
AcDbMaterial
  1
ByBlock
  2

 70
0
 40
1.0
 71
1
 41
1.0
 91
-1023410177
 42
1.0
 72
1
  3

 73
1
 74
1
 75
1
 44
0.5
 73
0
 45
1.0
 46
1.0
 77
1
  4

 78
1
 79
1
170
1
 48
1.0
171
1
  6

172
1
173
1
174
1
140
1.0
141
1.0
175
1
  7

176
1
177
1
178
1
143
1.0
179
1
  8

270
1
271
1
272
1
145
1.0
146
1.0
273
1
  9

274
1
275
1
276
1
 42
1.0
 72
1
  3

 73
1
 74
1
 75
1
 94
63
  0
MATERIAL
  5
20
102
{ACAD_REACTORS
330
E
102
}
330
E
100
AcDbMaterial
  1
ByLayer
  2

 70
0
 40
1.0
 71
1
 41
1.0
 91
-1023410177
 42
1.0
 72
1
  3

 73
1
 74
1
 75
1
 44
0.5
 73
0
 45
1.0
 46
1.0
 77
1
  4

 78
1
 79
1
170
1
 48
1.0
171
1
  6

172
1
173
1
174
1
140
1.0
141
1.0
175
1
  7

176
1
177
1
178
1
143
1.0
179
1
  8

270
1
271
1
272
1
145
1.0
146
1.0
273
1
  9

274
1
275
1
276
1
 42
1.0
 72
1
  3

 73
1
 74
1
 75
1
 94
63
  0
MATERIAL
  5
21
102
{ACAD_REACTORS
330
E
102
}
330
E
100
AcDbMaterial
  1
Global
  2

 70
0
 40
1.0
 71
1
 41
1.0
 91
-1023410177
 42
1.0
 72
1
  3

 73
1
 74
1
 75
1
 44
0.5
 73
0
 45
1.0
 46
1.0
 77
1
  4

 78
1
 79
1
170
1
 48
1.0
171
1
  6

172
1
173
1
174
1
140
1.0
141
1.0
175
1
  7

176
1
177
1
178
1
143
1.0
179
1
  8

270
1
271
1
272
1
145
1.0
146
1.0
273
1
  9

274
1
275
1
276
1
 42
1.0
 72
1
  3

 73
1
 74
1
 75
1
 94
63
  0
MLINESTYLE
  5
22
102
{ACAD_REACTORS
330
10
102
}
330
10
100
AcDbMlineStyle
  2
Standard
 70
0
  3

 62
256
 51
90.0
 52
90.0
 71
2
 49
0.5
 62
256
  6
BYLAYER
 49
-0.5
 62
256
  6
BYLAYER
  0
MLEADERSTYLE
  5
2C
102
{ACAD_REACTORS
330
F
102
}
330
F
100
AcDbMLeaderStyle
179
2
170
2
171
1
172
0
 90
2
 40
0.0
 41
0.0
173
1
 91
-1056964608
 92
-2
290
1
 42
2.0
291
1
 43
8.0
  3
Standard
 44
4.0
300

342
29
174
1
175
1
176
0
178
1
 93
-1056964608
 45
4.0
292
0
297
0
 46
4.0
 94
-1056964608
 47
1.0
 49
1.0
140
1.0
294
1
141
0.0
177
0
142
1.0
295
0
296
0
143
3.75
271
0
272
9
273
9
  0
DICTIONARY
  5
2D
330
A
100
AcDbDictionary
280
1
281
1
  3
CREATED_BY_EZDXF
350
2E
  3
WRITTEN_BY_EZDXF
350
3A
  0
DICTIONARYVAR
  5
2E
330
2D
100
DictionaryVariables
280
0
  1
1.4.4 @ 2026-08-27T20:13:29.204330+00:00
  0
DICTIONARYVAR
  5
3A
330
2D
100
DictionaryVariables
280
0
  1
1.4.4 @ 2026-08-27T20:13:29.216389+00:00
  0
ENDSEC
  0
EOF
