  0
SECTION
  2
HEADER
  9
$ACADVER
  1
AC1024
  9
$ACADMAINTVER
 70
6
  9
$DWGCODEPAGE
  3
ANSI_1252
  9
$LASTSAVEDBY
  1
ezdxf
  9
$INSBASE
 10
0.0
 20
0.0
 30
0.0
  9
$EXTMIN
 10
1e+20
 20
1e+20
 30
1e+20
  9
$EXTMAX
 10
-1e+20
 20
-1e+20
 30
-1e+20
  9
$LIMMIN
 10
0.0
 20
0.0
  9
$LIMMAX
 10
420.0
 20
297.0
  9
$ORTHOMODE
 70
0
  9
$REGENMODE
 70
1
  9
$FILLMODE
 70
1
  9
$QTEXTMODE
 70
0
  9
$MIRRTEXT
 70
1
  9
$LTSCALE
 40
1.0
  9
$ATTMODE
 70
1
  9
$TEXTSIZE
 40
2.5
  9
$TRACEWID
 40
1.0
  9
$TEXTSTYLE
  7
Standard
  9
$CLAYER
  8
0
  9
$CELTYPE
  6
ByLayer
  9
$CECOLOR
 62
256
  9
$CELTSCALE
 40
1.0
  9
$DISPSILH
 70
0
  9
$DIMSCALE
 40
1.0
  9
$DIMASZ
 40
2.5
  9
$DIMEXO
 40
0.625
  9
$DIMDLI
 40
3.75
  9
$DIMRND
 40
0.0
  9
$DIMDLE
 40
0.0
  9
$DIMEXE
 40
1.25
  9
$DIMTP
 40
0.0
  9
$DIMTM
 40
0.0
  9
$DIMTXT
 40
2.5
  9
$DIMCEN
 40
2.5
  9
$DIMTSZ
 40
0.0
  9
$DIMTOL
 70
0
  9
$DIMLIM
 70
0
  9
$DIMTIH
 70
0
  9
$DIMTOH
 70
0
  9
$DIMSE1
 70
0
  9
$DIMSE2
 70
0
  9
$DIMTAD
 70
1
  9
$DIMZIN
 70
8
  9
$DIMBLK
  1

  9
$DIMASO
 70
1
  9
$DIMSHO
 70
1
  9
$DIMPOST
  1

  9
$DIMAPOST
  1

  9
$DIMALT
 70
0
  9
$DIMALTD
 70
3
  9
$DIMALTF
 40
0.03937007874
  9
$DIMLFAC
 40
1.0
  9
$DIMTOFL
 70
1
  9
$DIMTVP
 40
0.0
  9
$DIMTIX
 70
0
  9
$DIMSOXD
 70
0
  9
$DIMSAH
 70
0
  9
$DIMBLK1
  1

  9
$DIMBLK2
  1

  9
$DIMSTYLE
  2
ISO-25
  9
$DIMCLRD
 70
0
  9
$DIMCLRE
 70
0
  9
$DIMCLRT
 70
0
  9
$DIMTFAC
 40
1.0
  9
$DIMGAP
 40
0.625
  9
$DIMJUST
 70
0
  9
$DIMSD1
 70
0
  9
$DIMSD2
 70
0
  9
$DIMTOLJ
 70
0
  9
$DIMTZIN
 70
8
  9
$DIMALTZ
 70
0
  9
$DIMALTTZ
 70
0
  9
$DIMUPT
 70
0
  9
$DIMDEC
 70
2
  9
$DIMTDEC
 70
2
  9
$DIMALTU
 70
2
  9
$DIMALTTD
 70
3
  9
$DIMTXSTY
  7
Standard
  9
$DIMAUNIT
 70
0
  9
$DIMADEC
 70
0
  9
$DIMALTRND
 40
0.0
  9
$DIMAZIN
 70
0
  9
$DIMDSEP
 70
44
  9
$DIMATFIT
 70
3
  9
$DIMFRAC
 70
0
  9
$DIMLDRBLK
  1

  9
$DIMLUNIT
 70
2
  9
$DIMLWD
 70
-2
  9
$DIMLWE
 70
-2
  9
$DIMTMOVE
 70
0
  9
$DIMFXL
 40
1.0
  9
$DIMFXLON
 70
0
  9
$DIMJOGANG
 40
0.785398163397
  9
$DIMTFILL
 70
0
  9
$DIMTFILLCLR
 70
0
  9
$DIMARCSYM
 70
0
  9
$DIMLTYPE
  6

  9
$DIMLTEX1
  6

  9
$DIMLTEX2
  6

  9
$DIMTXTDIRECTION
 70
0
  9
$LUNITS
 70
2
  9
$LUPREC
 70
4
  9
$SKETCHINC
 40
1.0
  9
$FILLETRAD
 40
10.0
  9
$AUNITS
 70
0
  9
$AUPREC
 70
2
  9
$MENU
  1
.
  9
$ELEVATION
 40
0.0
  9
$PELEVATION
 40
0.0
  9
$THICKNESS
 40
0.0
  9
$LIMCHECK
 70
0
  9
$CHAMFERA
 40
0.0
  9
$CHAMFERB
 40
0.0
  9
$CHAMFERC
 40
0.0
  9
$CHAMFERD
 40
0.0
  9
$SKPOLY
 70
0
  9
$TDCREATE
 40
2461280.634212963
  9
$TDUCREATE
 40
2458532.153996898
  9
$TDUPDATE
 40
2461280.634212963
  9
$TDUUPDATE
 40
2458532.1544311
  9
$TDINDWG
 40
0.0
  9
$TDUSRTIMER
 40
0.0
  9
$USRTIMER
 70
1
  9
$ANGBASE
 50
0.0
  9
$ANGDIR
 70
0
  9
$PDMODE
 70
0
  9
$PDSIZE
 40
0.0
  9
$PLINEWID
 40
0.0
  9
$SPLFRAME
 70
0
  9
$SPLINETYPE
 70
6
  9
$SPLINESEGS
 70
8
  9
$HANDSEED
  5
3B
  9
$SURFTAB1
 70
6
  9
$SURFTAB2
 70
6
  9
$SURFTYPE
 70
6
  9
$SURFU
 70
6
  9
$SURFV
 70
6
  9
$UCSBASE
  2

  9
$UCSNAME
  2

  9
$UCSORG
 10
0.0
 20
0.0
 30
0.0
  9
$UCSXDIR
 10
1.0
 20
0.0
 30
0.0
  9
$UCSYDIR
 10
0.0
 20
1.0
 30
0.0
  9
$UCSORTHOREF
  2

  9
$UCSORTHOVIEW
 70
0
  9
$UCSORGTOP
 10
0.0
 20
0.0
 30
0.0
  9
$UCSORGBOTTOM
 10
0.0
 20
0.0
 30
0.0
  9
$UCSORGLEFT
 10
0.0
 20
0.0
 30
0.0
  9
$UCSORGRIGHT
 10
0.0
 20
0.0
 30
0.0
  9
$UCSORGFRONT
 10
0.0
 20
0.0
 30
0.0
  9
$UCSORGBACK
 10
0.0
 20
0.0
 30
0.0
  9
$PUCSBASE
  2

  9
$PUCSNAME
  2

  9
$PUCSORG
 10
0.0
 20
0.0
 30
0.0
  9
$PUCSXDIR
 10
1.0
 20
0.0
 30
0.0
  9
$PUCSYDIR
 10
0.0
 20
1.0
 30
0.0
  9
$PUCSORTHOREF
  2

  9
$PUCSORTHOVIEW
 70
0
  9
$PUCSORGTOP
 10
0.0
 20
0.0
 30
0.0
  9
$PUCSORGBOTTOM
 10
0.0
 20
0.0
 30
0.0
  9
$PUCSORGLEFT
 10
0.0
 20
0.0
 30
0.0
  9
$PUCSORGRIGHT
 10
0.0
 20
0.0
 30
0.0
  9
$PUCSORGFRONT
 10
0.0
 20
0.0
 30
0.0
  9
$PUCSORGBACK
 10
0.0
 20
0.0
 30
0.0
  9
$USERI1
 70
0
  9
$USERI2
 70
0
  9
$USERI3
 70
0
  9
$USERI4
 70
0
  9
$USERI5
 70
0
  9
$USERR1
 40
0.0
  9
$USERR2
 40
0.0
  9
$USERR3
 40
0.0
  9
$USERR4
 40
0.0
  9
$USERR5
 40
0.0
  9
$WORLDVIEW
 70
1
  9
$SHADEDGE
 70
3
  9
$SHADEDIF
 70
70
  9
$TILEMODE
 70
1
  9
$MAXACTVP
 70
64
  9
$PINSBASE
 10
0.0
 20
0.0
 30
0.0
  9
$PLIMCHECK
 70
0
  9
$PEXTMIN
 10
1e+20
 20
1e+20
 30
1e+20
  9
$PEXTMAX
 10
-1e+20
 20
-1e+20
 30
-1e+20
  9
$PLIMMIN
 10
0.0
 20
0.0
  9
$PLIMMAX
 10
420.0
 20
297.0
  9
$UNITMODE
 70
0
  9
$VISRETAIN
 70
1
  9
$PLINEGEN
 70
0
  9
$PSLTSCALE
 70
1
  9
$TREEDEPTH
 70
3020
  9
$CMLSTYLE
  2
Standard
  9
$CMLJUST
 70
0
  9
$CMLSCALE
 40
20.0
  9
$PROXYGRAPHICS
 70
1
  9
$MEASUREMENT
 70
1
  9
$CELWEIGHT
370
-1
  9
$ENDCAPS
280
0
  9
$JOINSTYLE
280
0
  9
$LWDISPLAY
290
0
  9
$INSUNITS
 70
6
  9
$HYPERLINKBASE
  1

  9
$STYLESHEET
  1

  9
$XEDIT
290
1
  9
$CEPSNTYPE
380
0
  9
$PSTYLEMODE
290
1
  9
$FINGERPRINTGUID
  2
{0D481F7C-097C-4DA7-BB7E-972B6F3CD5EF}
  9
$VERSIONGUID
  2
{11EBE0A7-1DBB-4755-B5B6-9EBA6F4BC34A}
  9
$EXTNAMES
290
1
  9
$PSVPSCALE
 40
0.0
  9
$OLESTARTUP
290
0
  9
$SORTENTS
280
127
  9
$INDEXCTL
280
0
  9
$HIDETEXT
280
1
  9
$XCLIPFRAME
280
1
  9
$HALOGAP
280
0
  9
$OBSCOLOR
 70
257
  9
$OBSLTYPE
280
0
  9
$INTERSECTIONDISPLAY
280
0
  9
$INTERSECTIONCOLOR
 70
257
  9
$DIMASSOC
280
2
  9
$PROJECTNAME
  1

  9
$CAMERADISPLAY
290
0
  9
$LENSLENGTH
 40
50.0
  9
$CAMERAHEIGHT
 40
0.0
  9
$STEPSPERSEC
 40
24.0
  9
$STEPSIZE
 40
100.0
  9
$3DDWFPREC
 40
2.0
  9
$PSOLWIDTH
 40
0.005
  9
$PSOLHEIGHT
 40
0.08
  9
$LOFTANG1
 40
1.570796326795
  9
$LOFTANG2
 40
1.570796326795
  9
$LOFTMAG1
 40
0.0
  9
$LOFTMAG2
 40
0.0
  9
$LOFTPARAM
 70
7
  9
$LOFTNORMALS
280
1
  9
$LATITUDE
 40
37.795
  9
$LONGITUDE
 40
-122.394
  9
$NORTHDIRECTION
 40
0.0
  9
$TIMEZONE
 70
-8000
  9
$LIGHTGLYPHDISPLAY
280
1
  9
$TILEMODELIGHTSYNCH
280
1
  9
$CMATERIAL
347
20
  9
$SOLIDHIST
280
0
  9
$SHOWHIST
280
1
  9
$DWFFRAME
280
2
  9
$DGNFRAME
280
2
  9
$REALWORLDSCALE
290
1
  9
$INTERFERECOLOR
 62
256
  9
$CSHADOW
280
0
  9
$SHADOWPLANELOCATION
 40
0.0
  0
ENDSEC
  0
SECTION
  2
CLASSES
  0
CLASS
  1
ACDBDICTIONARYWDFLT
  2
AcDbDictionaryWithDefault
  3
ObjectDBX Classes
 90
0
 91
0
280
0
281
0
  0
CLASS
  1
SUN
  2
AcDbSun
  3
SCENEOE
 90
1153
 91
0
280
0
281
0
  0
CLASS
  1
VISUALSTYLE
  2
AcDbVisualStyle
  3
ObjectDBX Classes
 90
4095
 91
0
280
0
281
0
  0
CLASS
  1
MATERIAL
  2
AcDbMaterial
  3
ObjectDBX Classes
 90
1153
 91
0
280
0
281
0
  0
CLASS
  1
SCALE
  2
AcDbScale
  3
ObjectDBX Classes
 90
1153
 91
0
280
0
281
0
  0
CLASS
  1
TABLESTYLE
  2
AcDbTableStyle
  3
ObjectDBX Classes
 90
4095
 91
0
280
0
281
0
  0
CLASS
  1
MLEADERSTYLE
  2
AcDbMLeaderStyle
  3
ACDB_MLEADERSTYLE_CLASS
 90
4095
 91
0
280
0
281
0
  0
CLASS
  1
DICTIONARYVAR
  2
AcDbDictionaryVar
  3
ObjectDBX Classes
 90
0
 91
0
280
0
281
0
  0
CLASS
  1
CELLSTYLEMAP
  2
AcDbCellStyleMap
  3
ObjectDBX Classes
 90
1152
 91
0
280
0
281
0
  0
CLASS
  1
MENTALRAYRENDERSETTINGS
  2
AcDbMentalRayRenderSettings
  3
SCENEOE
 90
1024
 91
0
280
0
281
0
  0
CLASS
  1
ACDBDETAILVIEWSTYLE
  2
AcDbDetailViewStyle
  3
ObjectDBX Classes
 90
1025
 91
0
280
0
281
0
  0
CLASS
  1
ACDBSECTIONVIEWSTYLE
  2
AcDbSectionViewStyle
  3
ObjectDBX Classes
 90
1025
 91
0
280
0
281
0
  0
CLASS
  1
RASTERVARIABLES
  2
AcDbRasterVariables
  3
ISM
 90
0
 91
0
280
0
281
0
  0
CLASS
  1
ACDBPLACEHOLDER
  2
AcDbPlaceHolder
  3
ObjectDBX Classes
 90
0
 91
0
280
0
281
0
  0
CLASS
  1
LAYOUT
  2
AcDbLayout
  3
ObjectDBX Classes
 90
0
 91
0
280
0
281
0
  0
ENDSEC
  0
SECTION
  2
TABLES
  0
TABLE
  2
VPORT
  5
8
330
0
100
AcDbSymbolTable
 70
1
  0
VPORT
  5
23
330
8
100
AcDbSymbolTableRecord
100
AcDbViewportTableRecord
  2
*Active
 70
0
 10
0.0
 20
0.0
 11
1.0
 21
1.0
 12
0.0
 22
0.0
 13
0.0
 23
0.0
 14
0.5
 24
0.5
 15
0.5
 25
0.5
 16
0.0
 26
0.0
 36
1.0
 17
0.0
 27
0.0
 37
0.0
 40
1000.0
 41
1.34
 42
50.0
 43
0.0
 44
0.0
 50
0.0
 51
0.0
 71
0
 72
1000
 73
1
 74
3
 75
0
 76
0
 77
0
 78
0
281
0
 65
0
146
0.0
  0
ENDTAB
  0
TABLE
  2
LTYPE
  5
2
330
0
100
AcDbSymbolTable
 70
3
  0
LTYPE
  5
24
330
2
100
AcDbSymbolTableRecord
100
AcDbLinetypeTableRecord
  2
ByBlock
 70
0
  3

 72
65
 73
0
 40
0.0
  0
LTYPE
  5
25
330
2
100
AcDbSymbolTableRecord
100
AcDbLinetypeTableRecord
  2
ByLayer
 70
0
  3

 72
65
 73
0
 40
0.0
  0
LTYPE
  5
26
330
2
100
AcDbSymbolTableRecord
100
AcDbLinetypeTableRecord
  2
Continuous
 70
0
  3

 72
65
 73
0
 40
0.0
  0
ENDTAB
  0
TABLE
  2
LAYER
  5
1
330
0
100
AcDbSymbolTable
 70
3
  0
LAYER
  5
27
330
1
100
AcDbSymbolTableRecord
100
AcDbLayerTableRecord
  2
0
 70
0
 62
7
  6
Continuous
370
-3
390
13
347
21
  0
LAYER
  5
28
330
1
100
AcDbSymbolTableRecord
100
AcDbLayerTableRecord
  2
Defpoints
 70
0
 62
7
  6
Continuous
290
0
370
-3
390
13
347
21
  0
LAYER
  5
2F
330
1
100
AcDbSymbolTableRecord
100
AcDbLayerTableRecord
  2
TOPPERS_CUT
 70
0
 62
4
  6
Continuous
370
-3
390
13
347
21
  0
ENDTAB
  0
TABLE
  2
STYLE
  5
5
330
0
100
AcDbSymbolTable
 70
1
  0
STYLE
  5
29
330
5
100
AcDbSymbolTableRecord
100
AcDbTextStyleTableRecord
  2
Standard
 70
0
 40
0.0
 41
1.0
 50
0.0
 71
0
 42
2.5
  3
txt
  4

  0
ENDTAB
  0
TABLE
  2
VIEW
  5
7
330
0
100
AcDbSymbolTable
 70
0
  0
ENDTAB
  0
TABLE
  2
UCS
  5
6
330
0
100
AcDbSymbolTable
 70
0
  0
ENDTAB
  0
TABLE
  2
APPID
  5
3
330
0
100
AcDbSymbolTable
 70
3
  0
APPID
  5
2A
330
3
100
AcDbSymbolTableRecord
100
AcDbRegAppTableRecord
  2
ACAD
 70
0
  0
APPID
  5
38
330
3
100
AcDbSymbolTableRecord
100
AcDbRegAppTableRecord
  2
HATCHBACKGROUNDCOLOR
 70
0
  0
APPID
  5
39
330
3
100
AcDbSymbolTableRecord
100
AcDbRegAppTableRecord
  2
EZDXF
 70
0
  0
ENDTAB
  0
TABLE
  2
DIMSTYLE
  5
4
330
0
100
AcDbSymbolTable
 70
1
100
AcDbDimStyleTable
  0
DIMSTYLE
105
2B
330
4
100
AcDbSymbolTableRecord
100
AcDbDimStyleTableRecord
  2
Standard
 70
0
 40
1.0
 41
2.5
 42
0.625
 43
3.75
 44
1.25
 45
0.0
 46
0.0
 47
0.0
 48
0.0
 49
2.5
140
2.5
141
2.5
142
0.0
143
0.03937007874
144
1.0
145
0.0
146
1.0
147
0.625
148
0.0
 69
0
 70
0
 71
0
 72
0
 73
0
 74
0
 75
0
 76
0
 77
1
 78
8
 79
3
170
0
171
3
172
1
173
0
174
0
175
0
176
0
177
0
178
0
179
2
271
2
272
2
273
2
274
3
275
0
276
0
277
2
278
44
279
0
280
0
281
0
282
0
283
0
284
8
285
0
286
0
288
0
289
3
290
0
371
-2
372
-2
  0
ENDTAB
  0
TABLE
  2
BLOCK_RECORD
  5
9
330
0
100
AcDbSymbolTable
 70
2
  0
BLOCK_RECORD
  5
17
330
9
100
AcDbSymbolTableRecord
100
AcDbBlockTableRecord
  2
*Model_Space
340
1A
 70
0
280
1
281
0
  0
BLOCK_RECORD
  5
1B
330
9
100
AcDbSymbolTableRecord
100
AcDbBlockTableRecord
  2
*Paper_Space
340
1E
 70
0
280
1
281
0
  0
ENDTAB
  0
ENDSEC
  0
SECTION
  2
BLOCKS
  0
BLOCK
  5
18
330
17
100
AcDbEntity
  8
0
100
AcDbBlockBegin
  2
*Model_Space
 70
0
 10
0.0
 20
0.0
 30
0.0
  3
*Model_Space
  1

  0
ENDBLK
  5
19
330
17
100
AcDbEntity
  8
0
100
AcDbBlockEnd
  0
BLOCK
  5
1C
330
1B
100
AcDbEntity
  8
0
100
AcDbBlockBegin
  2
*Paper_Space
 70
0
 10
0.0
 20
0.0
 30
0.0
  3
*Paper_Space
  1

  0
ENDBLK
  5
1D
330
1B
100
AcDbEntity
  8
0
100
AcDbBlockEnd
  0
ENDSEC
  0
SECTION
  2
ENTITIES
  0
LWPOLYLINE
  5
30
330
17
100
AcDbEntity
  8
TOPPERS_CUT
100
AcDbPolyline
 90
108
 70
1
 10
86.57352662981125
 20
51.16558370807907
 10
86.55966034002077
 20
52.36550359124105
 10
87.52492785151289
 20
55.376858540638054
 10
90.19585948489716
 20
57.907890782587415
 10
91.48999507090993
 20
58.42287921451125
 10
93.68522609344339
 20
58.848274040181124
 10
96.35384667852927
 20
61.579292929324154
 10
97.74682006398965
 20
62.195430208994026
 10
100.04319993426915
 20
62.52198723521629
 10
101.24427534158033
 20
62.43586020140992
 10
102.05115507525022
 20
61.84514445302259
 10
102.85110166402487
 20
61.854388646216236
 10
104.46023903476782
 20
61.07293044382891
 10
105.46017227073612
 20
61.08448568532098
 10
107.25311895058385
 20
61.705245061587675
 10
109.55412091746018
 20
61.6318287934226
 10
111.86667812582857
 20
60.558479289289195
 10
113.58736406166042
 20
58.778243375082766
 10
114.49077054647951
 20
58.48866312163513
 10
115.2976502801494
 20
57.89794737324779
 10
117.60211881947336
 20
57.52455113429221
 10
119.92160917273698
 20
55.85124168857784
 10
121.24694391077836
 20
53.666410383387245
 10
121.57234541285138
 20
51.47002383670457
 10
121.28623173185137
 20
50.266637381094974
 10
121.60123351658153
 20
48.970190746783786
 10
120.81399769344816
 20
47.86101999402499
 10
120.91976863779102
 20
47.36220890019004
 10
121.22321518102915
 20
47.065695501847166
 10
122.12431061754982
 20
46.976101895593196
 10
122.63121038042922
 20
46.38191957475824
 10
123.62421047150228
 20
46.993434757831295
 10
123.93574568378486
 20
45.9969680943106
 10
124.3391855506198
 20
45.70161022011693
 10
125.02296147770873
 20
47.109605419517024
 10
125.52408361984207
 20
47.01538971666622
 10
125.92867901082624
 20
46.620038518875724
 10
126.82284130245168
 20
47.13040485420274
 10
127.52972771252476
 20
46.538533581666194
 10
128.31696353565812
 20
47.647704334425
 10
129.11459907613437
 20
47.856935174812314
 10
130.11684336040108
 20
47.66850376911072
 10
130.5133500823408
 20
47.973105836498036
 10
130.5098835098932
 20
48.273085807288524
 10
130.00529479531218
 20
48.667281480929816
 10
129.79721947907407
 20
49.36492369780923
 10
129.29147524034389
 20
49.85911269504735
 10
128.79497519480736
 20
49.553355103510825
 10
128.4065571419121
 20
48.548799770945685
 10
128.1695937219438
 20
51.74627507774587
 10
128.36495827254066
 20
52.1485594204316
 10
128.86608041467403
 20
52.05434371758081
 10
129.17646010280737
 20
51.15787037765695
 10
129.47297350115025
 20
51.46131692089506
 10
129.4671958804042
 20
51.961283538879215
 10
130.06600029783598
 20
52.068210007371285
 10
130.5613448192233
 20
52.473960922504645
 10
131.142816374417
 20
54.08078724494919
 10
131.838147542998
 20
54.48884920838096
 10
132.8184368684298
 20
56.200290951019156
 10
134.89865275342672
 20
57.92444345929863
 10
138.58685048501744
 20
58.96713108878758
 10
140.26478202732864
 20
60.88664814766389
 10
142.15194441002717
 20
62.008529666063964
 10
144.55062865220188
 20
62.136255569241754
 10
147.65504378030047
 20
61.772103523479835
 10
150.34099722762443
 20
63.003222558670394
 10
152.138566004069
 20
63.22400864054977
 10
153.64077690631987
 20
63.041354855594214
 10
154.34650779224373
 20
62.549476906654505
 10
155.34990760065966
 20
62.26105217735608
 10
157.8763177460122
 20
59.99009383835912
 10
159.2843129454123
 20
59.3063179112702
 10
160.2854017055298
 20
59.217879829165426
 10
161.1899637144981
 20
58.82830625212097
 10
163.00370982903155
 20
57.649185803644706
 10
164.31864484973002
 20
56.36429441082559
 10
165.04286412204118
 20
54.27252328433658
 10
165.2844496386063
 20
50.67507468314907
 10
164.30993793392054
 20
48.46366632252671
 10
162.03435749832676
 20
46.33722947156151
 10
160.34024861792665
 20
45.817618943040834
 10
159.84490409653932
 20
45.411868027907474
 10
159.21890437691076
 20
39.00420664866583
 10
157.38605162922494
 20
33.182638921214696
 10
154.25444119892953
 20
27.24605605622704
 10
151.69274708233576
 20
23.91623274965224
 10
149.22180209614513
 20
21.387511556001296
 10
144.9602214784052
 20
18.038044338889982
 10
140.28942337308428
 20
15.483901613956487
 10
137.70230772520796
 20
14.353931426511972
 10
131.31891235309965
 20
12.880071350607107
 10
126.22271942210887
 20
12.521159648207075
 10
120.21503133725454
 20
13.151781464432494
 10
116.10259430414321
 20
14.204331533880168
 10
109.66835586946982
 20
17.130177696235876
 10
105.63742377356797
 20
19.78377646738205
 10
101.3914832165328
 20
23.734977396988622
 10
98.24546921906278
 20
27.698889092236463
 10
95.69132649412929
 20
32.36968719755736
 10
93.62212857324025
 20
38.34617613038311
 10
93.09442937567515
 20
40.74023827596102
 10
92.65054616361797
 20
44.53536247604378
 10
92.34709962037985
 20
44.831875874386654
 10
91.55061960405283
 20
44.522651710402506
 10
89.94379328160828
 20
45.104123265596186
 10
88.73116263280504
 20
46.19018353537085
 10
87.41276103965893
 20
47.77505489898046
  0
LWPOLYLINE
  5
31
330
17
100
AcDbEntity
  8
TOPPERS_CUT
100
AcDbPolyline
 90
58
 70
1
 10
36.14953429604968
 20
9.680152565028923
 10
34.332321609068615
 20
11.159252984295671
 10
32.80815574798281
 20
13.241779917591026
 10
29.535571371484195
 20
19.50438253141678
 10
27.173326624699918
 20
24.877444950213913
 10
26.5664335382237
 20
25.47047174689966
 10
24.75846504443628
 20
26.14962557739176
 10
17.148572733734248
 20
26.96174565442353
 10
12.035046940505378
 20
28.10273380597597
 10
9.722489732136989
 20
29.176083310109355
 10
9.317894341152835
 20
29.57143450789986
 10
8.59945268958771
 20
31.163239016404713
 10
8.782106474543273
 20
32.6654499186556
 10
9.564720201079824
 20
34.17459396580172
 10
11.736840740629152
 20
36.59985526340821
 10
20.24498016216931
 20
44.59870290438964
 10
20.429944995423288
 20
45.900927159446866
 10
19.579155344083542
 20
50.291389204513784
 10
18.697166540715223
 20
57.381670986695156
 10
18.757872043239026
 20
60.78259951313662
 10
19.14397904783587
 20
61.98714149289543
 10
19.933525919267662
 20
62.89632559846056
 10
20.828843735042316
 20
63.30669861019074
 10
22.22643921709954
 20
63.522862595473306
 10
24.032096662588533
 20
63.04369541217486
 10
26.745782689493456
 20
61.874974681041465
 10
30.66978831690322
 20
59.820180327327066
 10
31.376674726976272
 20
59.22830905479052
 10
36.405229010548005
 20
56.78625217233008
 10
37.50631109426235
 20
56.69896961437452
 10
38.90159552802116
 20
57.11512024685074
 10
42.77938018946266
 20
59.06005883700959
 10
44.665387048011965
 20
60.2819336790065
 10
49.73615844772019
 20
62.84069850053682
 10
52.62672063883464
 20
63.67415528963845
 10
54.730047006815724
 20
63.398441325981295
 10
56.14381982696184
 20
62.21469878090822
 10
56.65765273473647
 20
61.02055651849228
 10
56.791156258660294
 20
58.121905658333375
 10
56.14204605604757
 20
53.714110751028365
 10
54.51842414874908
 20
47.09490748310098
 10
54.54615672833004
 20
44.69506771677703
 10
56.47145140795239
 20
42.517169556481676
 10
61.62426502225427
 20
37.97640840263698
 10
64.76565692312748
 20
34.41247000177646
 10
65.68986284263231
 20
32.323009923585865
 10
65.70257360827358
 20
31.22308336402072
 10
65.41414887897514
 20
30.219683555604785
 10
64.4257708844989
 20
29.20819507814441
 10
63.03510854733692
 20
28.392071151280867
 10
57.04821989716832
 20
27.22281314276332
 10
50.35675588522508
 20
26.44543975958866
 10
47.96616031209477
 20
25.617760591233054
 10
46.1974796393804
 20
22.897141419432888
 10
43.56814687536756
 20
16.76634952799761
 10
40.72265012607217
 20
12.033153118619547
 10
39.43891425740225
 20
10.618224774324222
 10
38.54590748992601
 20
10.007865115400374
  0
LWPOLYLINE
  5
32
330
17
100
AcDbEntity
  8
TOPPERS_CUT
100
AcDbPolyline
 90
98
 70
1
 10
6.391135562790654
 20
75.14065748847392
 10
5.468085167435041
 20
77.1301242430677
 10
5.332270595212804
 20
80.22876175042026
 10
5.807971206063621
 20
82.33439916669974
 10
7.848899269987536
 20
87.45832467727148
 10
8.415349011241531
 20
90.36506420647483
 10
8.672574588511377
 20
94.0682837520052
 10
9.643619720749523
 20
96.57967208341805
 10
11.41807801420994
 20
98.80032463723406
 10
13.00757147441638
 20
99.71875293599284
 10
14.801673678413309
 20
100.23951898866271
 10
15.99234936838163
 20
101.05333186722785
 10
15.988882795934009
 20
101.35331183801834
 10
14.567021306743447
 20
103.23700764826924
 10
13.748586331581489
 20
104.82765663262487
 10
13.428962450254483
 20
106.52407656132341
 10
13.50237871841956
 20
108.82507852819973
 10
14.760693055806925
 20
112.43985999162533
 10
18.115400616280127
 20
116.37888743297478
 10
18.302676497832515
 20
117.48112504083834
 10
17.981897092356306
 20
119.27753829313367
 10
18.56799074414681
 20
120.48439132119088
 10
19.463308559921465
 20
120.89476433292107
 10
20.163261825099283
 20
120.90285300196551
 10
21.3701148531565
 20
120.31675935017502
 10
22.582745501959746
 20
119.23069908040034
 10
23.681516537375682
 20
119.34340316963844
 10
26.687093866026657
 20
118.87810227613049
 10
29.30194209348395
 20
117.60823269725105
 10
30.614566065884038
 20
116.5233279516256
 10
32.8456183370429
 20
113.8489297457937
 10
35.000943291738274
 20
109.07351622027913
 10
36.18006374021452
 20
110.88726233481259
 10
37.36611733358602
 20
112.10104850776504
 10
38.36605056955433
 20
112.11260374925709
 10
39.98327660934173
 20
110.63119228169197
 10
40.69594064016083
 20
109.53935439117126
 10
42.45537711968156
 20
113.05992015174607
 10
43.92869991820227
 20
115.37709945671129
 10
45.01360466382773
 20
116.68972342911135
 10
46.994982749377044
 20
118.3127270896448
 10
49.484416121954965
 20
119.24155510574644
 10
53.178391474291686
 20
119.78427611725124
 10
55.360911731183876
 20
121.30959750248626
 10
56.3608449671522
 20
121.32115274397832
 10
57.16541365252366
 20
120.93042364278465
 10
57.78155093219355
 20
119.53745025732425
 10
57.713912284774494
 20
116.73648167246377
 10
59.63920696439684
 20
114.55858351216841
 10
61.469130417019166
 20
111.97955653333652
 10
62.08526769668905
 20
110.58658314787613
 10
62.5060404257621
 20
108.79132541972999
 10
62.52568433629862
 20
107.09143891858386
 10
62.04882820129859
 20
105.08579482590119
 10
61.267369998911235
 20
103.47665745515826
 10
59.98825622683817
 20
101.6617558164756
 10
60.3928516178223
 20
101.2664046186851
 10
61.8985290925208
 20
100.78377086293905
 10
64.61452616772414
 20
99.41506348461199
 10
66.23637430410837
 20
97.5336787226595
 10
67.1605802236132
 20
95.4442186444689
 10
67.58019742853703
 20
93.7489542399196
 10
68.03563588208627
 20
88.95389680386853
 10
68.55409088645773
 20
87.35978124706527
 10
69.78058782505147
 20
85.07380109412863
 10
70.92673535058488
 20
81.08677891589666
 10
71.0440615364198
 20
79.5880345860934
 10
70.76488100031503
 20
77.7846881889028
 10
70.18225392097214
 20
76.27785519005509
 10
68.99620032760063
 20
75.06406901710264
 10
66.80559140166402
 20
74.23870089704545
 10
64.00577834095274
 20
74.20634622086767
 10
59.793347984244555
 20
75.25774076616614
 10
57.078506433190434
 20
76.52645482089636
 10
52.34299897551394
 20
79.57193821738541
 10
49.00739804819312
 20
82.63359895196336
 10
48.40397153416451
 20
82.92664577785861
 10
45.26257963329131
 20
86.49058417871912
 10
43.534960552564215
 20
88.87078003450657
 10
42.726925294745115
 20
89.56148910649073
 10
42.33157409695462
 20
89.15689371550658
 10
41.85009586535777
 20
87.55122291721125
 10
40.07101547530053
 20
85.73054365778256
 10
39.37452878257032
 20
85.42247501794762
 10
36.874695692649546
 20
85.39358691421747
 10
36.1701203308749
 20
85.78547153956033
 10
34.45058991919226
 20
87.46571413016996
 10
33.527539523836644
 20
89.45518088476372
 10
32.63568828050961
 20
88.74482790224303
 10
30.669332008899982
 20
85.8219110349508
 10
29.284447292484032
 20
84.5058204901031
 10
28.99140046658878
 20
83.90239397607449
 10
25.530921961772712
 20
80.46217762856
 10
20.77168577434704
 20
76.90694614350899
 10
16.59623219041347
 20
74.75855433370886
 10
13.506838876254562
 20
73.82279317271197
 10
9.810552475619428
 20
73.48005880840083
 10
7.602610687444697
 20
74.1545905422961
  0
LWPOLYLINE
  5
33
330
17
100
AcDbEntity
  8
TOPPERS_CUT
100
AcDbPolyline
 90
169
 70
1
 10
93.68068496622747
 20
76.54940336511865
 10
92.05652578154483
 20
78.63077477426482
 10
91.12307566884637
 20
81.52018144123005
 10
91.08378784777334
 20
84.91995444352231
 10
91.86062395356386
 20
86.9290651086526
 10
94.3350355122021
 20
89.15780633151306
 10
95.04076639812594
 20
88.66592838257334
 10
96.03954410994506
 20
88.77747694766224
 10
96.83024650552603
 20
89.58666772963053
 10
97.52673319825625
 20
89.89473636946548
 10
98.93357287350712
 20
89.31095376597338
 10
100.03349943307225
 20
89.32366453161467
 10
100.72767507750405
 20
89.83171981864326
 10
101.12764837189137
 20
89.83634191524008
 10
101.73569698251681
 20
89.14332179495752
 10
102.33450139994859
 20
89.25024826344958
 10
102.63101479829145
 20
89.55369480668769
 10
101.62299289327869
 20
90.24209283037344
 10
100.9080178141612
 20
91.5339173680878
 10
99.89999590914843
 20
92.22231539177355
 10
98.67927659130073
 20
94.00832892672604
 10
98.56541697791343
 20
95.20709328573881
 10
99.45264612464364
 20
96.3174195626468
 10
102.34089726745967
 20
97.35086299894212
 10
103.94079044500897
 20
97.36935138532941
 10
107.24750326859964
 20
96.80752374067225
 10
107.94630100962827
 20
96.91560573331353
 10
108.34165220741875
 20
97.32020112429768
 10
108.32316382103144
 20
98.92009430184699
 10
107.90470214025682
 20
100.51536538279944
 10
107.08973373754247
 20
101.80603439636461
 10
105.78288738588844
 20
102.3909725240059
 10
103.083067648774
 20
102.35977337197733
 10
101.57623464992629
 20
102.94240045132021
 10
100.5635906483167
 20
104.0307717693933
 10
99.84630452090079
 20
105.52258295430131
 10
100.23356704964684
 20
106.62713161046327
 10
101.12888486542148
 20
107.03750462219348
 10
102.31262741049457
 20
108.4512774423396
 10
103.71831156159624
 20
107.96748816244433
 10
104.62749566716136
 20
107.17794129101253
 10
105.6297399514281
 20
106.98950988531094
 10
107.3250043559774
 20
107.40912709023478
 10
108.20645588196157
 20
109.01941998512693
 10
107.88683200063456
 20
110.71583991382545
 10
107.16839034906945
 20
112.3076444223303
 10
107.14643539023453
 20
114.20751757067009
 10
107.72328484883137
 20
116.21431718750196
 10
108.79663435296477
 20
118.52687439587035
 10
107.98859909514567
 20
119.2175834678545
 10
106.2794684008059
 20
119.99788614609265
 10
105.47027761883757
 20
120.78858854167363
 10
105.25642468185345
 20
121.9861973765372
 10
106.94244489320909
 20
123.2057611702357
 10
108.34119589941551
 20
123.32193183192142
 10
110.23413590286006
 20
123.94384673233733
 10
111.03639353993313
 20
123.75310427833733
 10
112.83511784052689
 20
123.87389703661987
 10
116.24182398771438
 20
123.3132249161119
 10
117.64750813881608
 20
122.82943563621663
 10
118.65553004382882
 20
122.14103761253091
 10
118.86822745666375
 20
121.04342210126417
 10
118.6890402441558
 20
119.2412312282228
 10
119.4970755019749
 20
118.55052215623861
 10
123.48987530095292
 20
119.1967030637879
 10
124.38519311672755
 20
119.60707607551805
 10
125.37010453875621
 20
120.91854452376894
 10
125.26433359441334
 20
121.4173556176039
 10
123.8517162984164
 20
122.50110483908013
 10
123.03559237155287
 20
123.89176717624211
 10
122.92751037891159
 20
124.59056491727074
 10
123.42054385200052
 20
125.19630247959776
 10
125.90882170042923
 20
126.22512381929623
 10
127.51102592627694
 20
126.04362555848988
 10
129.10514148308022
 20
126.56208056286133
 10
130.10507471904853
 20
126.5736358043534
 10
130.80849455667396
 20
126.28174450260735
 10
131.80727226849308
 20
126.39329306769625
 10
133.61292971398206
 20
125.91412588439782
 10
136.12778461784254
 20
124.64310078136918
 10
136.94044197225847
 20
123.55241841499769
 10
136.95661931034735
 20
122.15251188464205
 10
136.17978320455683
 20
120.14340121951179
 10
136.29595386624254
 20
118.74465021330533
 10
136.7017047813759
 20
118.24930569191801
 10
138.50042908196968
 20
118.37009845020057
 10
142.10827740050004
 20
117.71174405439417
 10
143.01399493361754
 20
117.22217715375291
 10
145.22078119764308
 20
116.64763874345445
 10
146.52993859759553
 20
115.86271396861949
 10
148.03446054814484
 20
115.48007353647026
 10
148.54020478687502
 20
114.98588453923215
 10
151.3585062339736
 20
113.41834603786063
 10
154.7987225814881
 20
109.95786753304455
 10
157.55285195361526
 20
105.28938047602207
 10
158.28515989497083
 20
102.49765608435526
 10
158.40248608080577
 20
100.99891175455198
 10
158.1209944964026
 20
99.39555200455507
 10
157.42681885197084
 20
98.88749671752646
 10
156.5234123671517
 20
99.17707697097408
 10
154.80272643131985
 20
100.95731288518054
 10
153.60280654815787
 20
100.94344659539007
 10
152.39595352010068
 20
101.52954024718056
 10
152.18441163141495
 20
102.52716243485047
 10
151.67751186853553
 20
103.12134475568544
 10
150.88218737635773
 20
102.71212726810445
 10
149.08115202746555
 20
102.79132115701557
 10
148.1661903011544
 20
104.0808346464315
 10
147.36508818823054
 20
104.17158377683468
 10
146.37208809715744
 20
103.56006859376161
 10
145.78137234877013
 20
102.75318886009174
 10
145.28140573078596
 20
102.74741123934571
 10
143.3665107685065
 20
104.02536948726959
 10
142.66655750332868
 20
104.01728081822515
 10
142.3700441049858
 20
103.71383427498702
 10
141.98509262453814
 20
102.40929897163139
 10
141.995492341881
 20
101.50935905925992
 10
141.69897894353815
 20
101.2059125160218
 10
138.49803706429034
 20
101.26892906684401
 10
137.9096323642014
 20
100.26206268598047
 10
138.12232977703636
 20
99.16444717471373
 10
137.73968934488713
 20
97.65992522416444
 10
137.23972272690298
 20
97.65414760341841
 10
136.83628286006802
 20
97.94950547761206
 10
136.14210721563626
 20
97.44145019058347
 10
134.33991634259488
 20
97.62063740309142
 10
132.94463190883607
 20
97.2044867706152
 10
132.54928071104555
 20
96.79989137963105
 10
132.26201150589634
 20
95.69649824761828
 10
132.7769999378202
 20
94.40236266160551
 10
131.99091963883603
 20
93.19319858524987
 10
129.9922086910486
 20
93.07009477866892
 10
129.29109990172157
 20
93.1619994332213
 10
128.68651786354377
 20
93.55503958271338
 10
127.88772679891831
 20
93.4458020659229
 10
127.69005120002305
 20
93.24350437043083
 10
127.60392416621671
 20
92.04242896311965
 10
128.31658819703583
 20
90.95059107259894
 10
128.73158330536282
 20
89.65529996243697
 10
127.94550300637863
 20
88.44613588608135
 10
126.24908307768014
 20
88.12651200475435
 10
125.45722515794994
 20
87.41731454638285
 10
125.97221358987379
 20
86.1231789603701
 10
127.18484423867702
 20
85.03711869059542
 10
127.41140794130244
 20
82.73958329616673
 10
126.1242055001849
 20
81.6246349226619
 10
124.92890771361976
 20
81.21079533848409
 10
124.23704311748638
 20
80.50275340426182
 10
125.56815547627377
 20
77.81795548108707
 10
125.79125260645158
 20
75.82040005744885
 10
124.90055688727372
 20
75.01005375133134
 10
122.80531918833712
 20
74.58581444981067
 10
121.60424378102593
 20
74.67194148361703
 10
120.01243927252108
 20
73.9534998320519
 10
119.51940579943216
 20
73.34776226972488
 10
119.14485403632739
 20
71.14328705399777
 10
118.55182723964165
 20
70.53639396752155
 10
118.35877373734323
 20
69.93412297764215
 10
116.3589072654066
 20
69.91101249465802
 10
115.54971648343829
 20
70.701714890239
 10
113.64059914190484
 20
71.47970652017872
 10
111.639577145819
 20
71.55658936079143
 10
109.94662378956812
 20
70.93698550867393
 10
107.44679069964734
 20
70.90809740494377
 10
105.93995770079962
 20
71.49072448428664
 10
102.80665446897088
 20
74.35470961996934
 10
98.40579270656109
 20
74.40385988100108
 10
96.902426280161
 20
74.68650698955348
 10
95.696728776253
 20
75.17260731774715
  0
LWPOLYLINE
  5
34
330
17
100
AcDbEntity
  8
TOPPERS_CUT
100
AcDbPolyline
 90
153
 70
1
 10
90.79036568325576
 20
127.61941466766766
 10
90.573046173824
 20
129.11700347332174
 10
91.3475712313161
 20
131.32610078564568
 10
92.7243672786876
 20
133.3421445956712
 10
93.20931208273208
 20
134.64783542317602
 10
94.3849659587607
 20
136.76156150849994
 10
95.1745128301925
 20
137.67074561406508
 10
95.66061315838617
 20
138.87644311797308
 10
95.34214480120838
 20
140.47286972307478
 10
94.53064297094167
 20
141.46355876584943
 10
92.62383667770663
 20
142.04156374859548
 10
92.02503226027486
 20
141.93463728010343
 10
91.13549206524623
 20
141.0242976503891
 10
90.43669432421761
 20
140.9162156577478
 10
89.82980123774138
 20
141.50924245443355
 10
89.21597500636992
 20
142.7022291927003
 10
89.29401337113183
 20
144.60325786518928
 10
90.270836124116
 20
146.61467957861797
 10
91.16037631914463
 20
147.5250192083323
 10
93.44635647208126
 20
148.75151614692604
 10
94.33589666710988
 20
149.66185577664038
 10
94.0197393582305
 20
151.05829573454838
 10
92.7990200403828
 20
152.84430926950088
 10
91.05637914571602
 20
156.5244183320471
 10
91.03904628347793
 20
158.0243181859996
 10
91.71588906567162
 20
160.03227332698066
 10
92.5996516399542
 20
161.44257957467914
 10
94.18336747941461
 20
162.86097449142207
 10
96.37397640535123
 20
163.6863426114793
 10
99.17494499021173
 20
163.61870396406024
 10
100.4725471486721
 20
163.8337124251936
 10
100.86789834646262
 20
164.23830781617772
 10
101.07135156610389
 20
163.94063889368567
 10
102.37819791775793
 20
163.35570076604438
 10
103.17814450653259
 20
163.36494495923802
 10
103.67348902791991
 20
163.77069587437137
 10
103.556162842085
 20
165.26944020417463
 10
103.04926307920559
 20
165.8636225250096
 10
102.84118776296748
 20
166.561264741889
 10
102.23660572478967
 20
166.95430489138107
 10
101.52625274226898
 20
167.8461561347081
 10
101.42048179792613
 20
168.34496722854306
 10
99.09174725146883
 20
170.81822326303208
 10
98.66750794994817
 20
172.91346096196872
 10
98.51436051548784
 20
177.51199832327376
 10
98.98428350559263
 20
180.1176023575374
 10
99.75880856308473
 20
182.32669966986134
 10
100.34605773902445
 20
183.43355937432173
 10
101.43789562954514
 20
184.1462234051408
 10
103.33892430203414
 20
184.0681850403789
 10
104.74576397728501
 20
183.4844024368868
 10
106.34912372728195
 20
183.20291085248363
 10
106.6606589395645
 20
182.20644418896293
 10
107.1687142265931
 20
181.51226854453114
 10
107.96403871877092
 20
181.9214860321121
 10
108.04438813183124
 20
183.62252805740746
 10
107.63632616839945
 20
184.31785922598846
 10
107.51899998256454
 20
185.8166035557917
 10
107.01210021968514
 20
186.41078587662668
 10
106.798247282701
 20
187.60839471149023
 10
106.77744784801527
 20
189.40827453623317
 10
107.07049467391055
 20
190.01170105026182
 10
108.46231253522174
 20
190.7278316535285
 10
111.0563613279933
 20
191.25784189939205
 10
111.86093001336477
 20
190.86711279819838
 10
112.9608565729299
 20
190.87982356383966
 10
114.36769624818078
 20
190.29604096034754
 10
115.88839553681899
 20
188.5134939978427
 10
117.01374362766667
 20
186.32635164435368
 10
117.8113791681429
 20
186.53558248474098
 10
120.41236110580974
 20
186.46563278902352
 10
121.01000999909232
 20
186.67255258111243
 10
122.01225428335901
 20
186.48412117541085
 10
122.7052744036416
 20
187.09216978603627
 10
123.09022588408922
 20
188.3967050893919
 10
124.97738826678776
 20
189.51858660779197
 10
127.97487692639427
 20
189.75323897946186
 10
130.27934546571822
 20
189.37984274050626
 10
130.88277197974682
 20
189.086795914611
 10
132.06882557311835
 20
190.30058208756347
 10
133.26181231138509
 20
190.91440831893493
 10
135.05822556368042
 20
191.23518772441113
 10
137.5592141777504
 20
191.1640825045445
 10
139.66947369062672
 20
190.28840859930634
 10
140.78557758828077
 20
188.90121283459197
 10
141.09942384886173
 20
187.7047595238776
 10
141.5617954473062
 20
182.30974214624558
 10
142.29988100940784
 20
179.01805113659458
 10
142.60332755264596
 20
178.7215377382517
 10
143.89630761450954
 20
179.33651949377239
 10
144.68701001009052
 20
180.14571027574067
 10
148.26943679733836
 20
181.68720899906458
 10
150.57043876421466
 20
181.61379273089952
 10
152.2761028861068
 20
181.13347002345185
 10
153.48295591416405
 20
180.54737637166136
 10
154.996722057907
 20
179.36478935073748
 10
155.7093860887261
 20
178.27295146021677
 10
156.43129431273883
 20
176.38116698092142
 10
158.9646376029866
 20
173.5102487003435
 10
159.47615946246282
 20
172.5160930851212
 10
159.59001907585014
 20
171.31732872610846
 10
159.2085341678501
 20
169.71281345196232
 10
158.31668292452306
 20
169.00246046944164
 10
156.80407230492935
 20
170.08505416676869
 10
156.404099010542
 20
170.08043207017187
 10
155.41687654021496
 20
168.96895026911466
 10
155.0423247771102
 20
166.76447505338754
 10
155.18507249422765
 20
163.065877604454
 10
154.9989521368245
 20
161.8636466729936
 10
154.12790032818316
 20
159.35341386572998
 10
152.55227315776722
 20
157.23506568380918
 10
151.16507739305285
 20
156.11896178615515
 10
149.1756106384591
 20
155.19591139079955
 10
147.58149508165582
 20
154.6774563864281
 10
144.3782421541096
 20
154.94045958444397
 10
141.56571832775705
 20
156.00803146783133
 10
140.0542632323125
 20
156.99063184156154
 10
137.72783973415363
 20
159.26390122885692
 10
132.94087096714702
 20
158.10850951012984
 10
130.938693446912
 20
158.28538567433935
 10
130.34682217437546
 20
157.57849926426633
 10
130.35259979512148
 20
157.07853264628218
 10
130.85718850970247
 20
156.68433697264086
 10
131.88600984940095
 20
154.19605912421216
 10
131.90912033238507
 20
152.19619265227556
 10
131.32187115644535
 20
151.08933294781517
 10
129.61158493795637
 20
151.96962894965012
 10
128.81394939748014
 20
151.76039810926278
 10
128.32091592439122
 20
151.1546605469358
 10
128.03018014679438
 20
150.35124738571352
 10
128.25327727697217
 20
148.3536919620753
 10
127.70647144625471
 20
143.7470659317258
 10
126.24123731677841
 20
140.7299333615828
 10
124.0679612530799
 20
138.40466538757312
 10
121.68314330069563
 20
137.07701960123336
 10
119.98787889614633
 20
136.65740239630952
 10
118.80066977862562
 20
135.5436095469539
 10
116.81466959647949
 20
134.32057918080778
 10
112.92764074184433
 20
133.1755871794236
 10
111.84620256866651
 20
131.56298323623304
 10
109.96366228256481
 20
130.04112842344563
 10
108.96257352244729
 20
130.12956650555037
 10
106.93959656752654
 20
132.10632249450288
 10
105.65008307811058
 20
131.19136076819171
 10
104.45594081569463
 20
130.6775278604171
 10
102.95372991344377
 20
130.86018164537262
 10
102.54682347416119
 20
131.4555194903568
 10
102.22719959283418
 20
133.1519394190553
 10
101.11802884007538
 20
133.9391752421887
 10
99.22971093322766
 20
132.91728704738543
 10
97.05296829708152
 20
130.89199904416628
 10
92.4902521844019
 20
127.63905857820416
 10
91.89260329111931
 20
127.43213878611525
  0
LWPOLYLINE
  5
35
330
17
100
AcDbEntity
  8
TOPPERS_CUT
100
AcDbPolyline
 90
104
 70
1
 10
35.62871678228113
 20
123.98176562940066
 10
35.01489055090967
 20
125.17475236766738
 10
34.00109102515087
 20
126.36311700933729
 10
33.40113108356989
 20
126.35618386444204
 10
32.49656907460158
 20
126.74575744148652
 10
31.586229444887238
 20
127.63529763651516
 10
29.900209233531587
 20
126.41573384281665
 10
29.095640548160112
 20
126.80646294401033
 10
29.075996637623597
 20
128.50634944515645
 10
28.87138789383311
 20
128.90401169124536
 10
28.467948026998165
 20
129.199369565439
 10
27.571474687074307
 20
128.88898987730568
 10
27.06919702079174
 20
129.0831989037533
 10
27.541431059194927
 20
131.4888162908233
 10
24.80579007345508
 20
134.55741017029646
 10
23.273535543324822
 20
137.33989036876966
 10
22.540072077820014
 20
140.23160808403333
 10
22.592688911299373
 20
144.33248987565258
 10
21.980018204077112
 20
145.4254832903225
 10
19.753588029515072
 20
147.69990820176707
 10
19.127051032502333
 20
149.99282149959896
 10
19.703900491099184
 20
151.99962111643083
 10
20.787649712575437
 20
153.4122384124277
 10
21.07376339357545
 20
154.61562486803732
 10
18.94848206675945
 20
156.79121198003426
 10
18.738095702222928
 20
157.68884084410735
 10
18.716140743388003
 20
159.58871399244714
 10
20.191774590207128
 20
161.70590665021868
 10
20.480199319505555
 20
162.70930645863461
 10
20.366339706118247
 20
163.90807081764737
 10
19.860595467388055
 20
164.4022598148855
 10
18.75489128707688
 20
164.88951566722838
 10
18.038760683810168
 20
166.28133352853956
 10
18.726003183346712
 20
167.38934875714915
 10
19.92361201821027
 20
167.6032016941333
 10
20.412023394702366
 20
168.60891255084766
 10
19.288986352153085
 20
170.596068257143
 10
15.022246360432192
 20
176.34714901149252
 10
13.796904945987672
 20
178.53313584083233
 10
12.254250698514554
 20
182.215555951677
 10
11.939248913784377
 20
183.5120025859882
 10
12.025375947590728
 20
184.71307799329935
 10
14.397483134333715
 20
187.14065033920426
 10
16.38348331647986
 20
188.36368070535036
 10
17.677618902492632
 20
188.87866913727422
 10
20.872783160994405
 20
189.31561920443616
 10
22.662263268394504
 20
190.23635855149337
 10
25.653974307254998
 20
190.9709775411474
 10
29.152585108994884
 20
191.11141420996643
 10
30.255978241007647
 20
190.82414500481724
 10
34.144162619792
 20
191.8691436826046
 10
37.34279345074139
 20
192.00611377897604
 10
39.34497097097643
 20
191.8292376147665
 10
42.15402822488136
 20
191.06164570216964
 10
45.65148350247203
 20
191.30207569458554
 10
48.6559053069738
 20
190.93676812467442
 10
51.46958465747555
 20
189.76920291769022
 10
54.676304157469396
 20
189.20621974888385
 10
56.183137156317095
 20
188.62359266954098
 10
57.99688327085054
 20
187.4444722210647
 10
59.11414269265377
 20
185.9572831327535
 10
60.12447564596496
 20
185.0688984618741
 10
59.94875500590463
 20
182.96672761804223
 10
58.88696074326331
 20
179.65423717370555
 10
55.65651251352028
 20
173.61650546097184
 10
53.29480504412014
 20
170.28899320269542
 10
53.00753583897093
 20
169.18560007068268
 10
53.21445563105982
 20
168.5879511774001
 10
55.12472849674248
 20
167.70996622386355
 10
55.43626370902505
 20
166.71349956034285
 10
54.35251448754879
 20
165.30088226434594
 10
53.25952107287888
 20
164.68821155712368
 10
52.86532539923759
 20
164.18362284254272
 10
53.70109323663765
 20
161.0930740042346
 10
54.9137238854409
 20
160.00701373445995
 10
55.73215886060285
 20
158.4163647501043
 10
55.74949172284096
 20
156.9164648961518
 10
54.86919572100599
 20
155.20617867766282
 10
53.28663540569479
 20
153.68779043732303
 10
52.89706182865033
 20
152.78322842835476
 10
54.13973610533295
 20
149.09734174506247
 10
53.465204371437665
 20
146.88939995688773
 10
51.38961058303755
 20
144.76527415422095
 10
50.603530284053384
 20
143.5561100778653
 10
50.35092680338037
 20
139.45291723794762
 10
49.87407066838034
 20
137.44727314526497
 10
48.1123231405612
 20
134.1266940318838
 10
46.234404951056334
 20
132.20486592470908
 10
44.94489146164039
 20
131.2899041983979
 10
44.74952691104355
 20
130.8876198557122
 10
44.758771104237205
 20
130.08767326693754
 10
45.065684219922936
 20
129.4911798978042
 10
44.97377956537055
 20
128.79007110847712
 10
44.67842169117689
 20
128.3866312416422
 10
43.8726974816562
 20
128.87735366643273
 10
43.575028559164124
 20
128.6739004467914
 10
42.90511892186568
 20
126.06598536422935
 10
42.206321180837065
 20
125.95790337158807
 10
41.49712372246559
 20
126.74976129131828
 10
40.49372391404966
 20
127.03818602061672
 10
39.5018793471258
 20
126.3266775139468
 10
38.304270512262235
 20
126.11282457696271
 10
37.51010154423362
 20
125.60361376578487
 10
36.42981889520499
 20
123.89101649899749
  0
LWPOLYLINE
  5
36
330
17
100
AcDbEntity
  8
TOPPERS_CUT
100
AcDbPolyline
 90
87
 70
1
 10
-2.274662912143518
 20
219.25014342466005
 10
-2.5254926219022726
 20
223.64753861462222
 10
-2.4855865540641875
 20
228.84834696580666
 10
-3.29824390848011
 20
229.93902933217814
 10
-3.6086235966134637
 20
230.835502672102
 10
-3.643289321089663
 20
233.83530238000694
 10
-3.4537023912388607
 20
234.7375533406768
 10
-2.5618511479118267
 20
235.44790632319751
 10
-1.864208931032421
 20
235.6559816394356
 10
2.6354906308249832
 20
235.7079802261499
 10
3.233139524107558
 20
235.91490001823877
 10
4.78681173568859
 20
239.93312134849938
 10
6.463587753850588
 20
241.95263173097246
 10
8.151919013504653
 20
242.9722088774773
 10
10.94364340517148
 20
243.70451681883293
 10
12.24240108778108
 20
243.81953195636947
 10
14.648018474851062
 20
243.34729791796622
 10
16.5559802922353
 20
242.66929961162336
 10
18.676639522454472
 20
240.89368579401372
 10
19.695061144810094
 20
239.3053478579565
 10
20.72388248450857
 20
236.81707000952778
 10
21.128477875492724
 20
236.42171881173726
 10
22.626066681146778
 20
236.63903832116907
 10
28.325686126166158
 20
236.70490319767381
 10
29.527917057626546
 20
236.5187828402706
 10
31.03590558062346
 20
235.83616243733096
 10
31.93584549299494
 20
235.8465621546738
 10
33.328818878455344
 20
236.46269943434368
 10
44.12809782691311
 20
236.58749604245799
 10
45.63493082576082
 20
236.00486896311514
 10
46.43487741453547
 20
236.01411315630875
 10
46.92906641177359
 20
236.51985739503894
 10
47.404767022624405
 20
238.62549481131842
 10
48.67925869810067
 20
240.8403697443884
 10
50.65601468705316
 20
242.86334669930915
 10
53.34427918267554
 20
243.89447908730602
 10
56.54291001362492
 20
244.03144918367752
 10
59.55195391472351
 20
243.26616831937903
 10
61.064564534317256
 20
242.18357462205205
 10
62.88986589034276
 20
240.00452093760745
 10
64.02676922268253
 20
236.8174453481501
 10
64.735966681054
 20
236.0255874284199
 10
65.53937984227626
 20
235.73485165082306
 10
66.4485639478414
 20
234.94530477939128
 10
68.85071476246375
 20
234.77305071177858
 10
69.65643897198444
 20
234.28232828698805
 10
69.7015044138035
 20
230.38258866671163
 10
68.41430197268596
 20
229.26764029320685
 10
67.83976356238753
 20
227.0608540291813
 10
68.35590751846058
 20
225.66672511957168
 10
69.16163172798124
 20
225.1760026947812
 10
71.48805522614012
 20
222.90273330748582
 10
72.40648352489892
 20
221.31323984727936
 10
72.53305390392751
 20
219.01454892870146
 10
71.05102418959729
 20
208.79674153543743
 10
71.06720152768618
 20
207.39683500508175
 10
71.97985220569893
 20
206.3073081628595
 10
72.086778674191
 20
205.70850374542766
 10
72.02029555092116
 20
202.80754183697042
 10
71.22843763119096
 20
202.09834437859894
 10
69.53086217834324
 20
201.87871382086877
 10
58.52813001024418
 20
202.0515861352465
 10
36.830734313881024
 20
201.70084407127186
 10
35.7342743267635
 20
201.38815333484007
 10
35.04125420648092
 20
200.78010472421462
 10
33.27835115451258
 20
197.55951893443032
 10
32.29112868418553
 20
196.44803713337313
 10
30.69816865153147
 20
195.82958880540482
 10
24.29975146548348
 20
195.65564193625875
 10
19.99772750252132
 20
195.80594104503655
 10
19.19200329300064
 20
196.29666346982705
 10
18.982772452613325
 20
197.09429901030325
 10
18.964284066226018
 20
198.69419218785256
 10
20.050344336000684
 20
199.90682283665583
 10
19.94457339165782
 20
200.40563393049078
 10
19.539978000673663
 20
200.80098512828127
 10
18.837713687197432
 20
200.9928831064305
 10
14.937974066921019
 20
200.94781766461142
 10
12.125450240568469
 20
202.01538954799878
 10
11.110495190660473
 20
203.30374751326553
 10
10.490891338542971
 20
204.99670086951636
 10
10.085140423409614
 20
205.49204539090374
 10
6.782512419031623
 20
214.3544744182471
 10
5.573348342675995
 20
215.14055471723123
 10
0.9644112640281065
 20
215.8873471951424
 10
-0.7447194303116766
 20
216.66764987338053
 10
-1.552754688130773
 20
217.35835894536473
  0
LWPOLYLINE
  5
37
330
17
100
AcDbEntity
  8
TOPPERS_CUT
100
AcDbPolyline
 90
135
 70
1
 10
110.81824238387583
 20
194.55531052978904
 10
108.00109646092645
 20
196.02285570756374
 10
104.46088678981512
 20
199.4821786882306
 10
102.04486968540229
 20
200.8543526390053
 10
100.93338788434508
 20
201.8415751093323
 10
99.50574877440847
 20
204.22523753756735
 10
99.27802954763385
 20
206.6227662555929
 10
100.14908135627516
 20
209.13299906285656
 10
101.43166170079587
 20
210.6479207307487
 10
102.21311990318321
 20
212.25705810149165
 10
101.69235385051334
 20
214.05116030548857
 10
100.47625662926245
 20
215.43720054605373
 10
99.27171464950366
 20
215.82330755065055
 10
98.37870788202743
 20
215.2129478917267
 10
97.8087915683258
 20
212.60618833331387
 10
97.02733336593846
 20
210.99705096257094
 10
96.13086002601462
 20
210.6866712744376
 10
95.32744686479234
 20
210.9774070520344
 10
94.23907554671926
 20
209.96476305042484
 10
92.84263558881125
 20
209.64860574154545
 10
92.03691137929056
 20
210.13932816633593
 10
91.02311185353177
 20
211.3276928080058
 10
90.81272548899526
 20
212.2253216720789
 10
90.89654147450318
 20
213.62638372658375
 10
95.05466219619865
 20
217.27467539033637
 10
96.43145824357016
 20
219.29071920036185
 10
96.91755857176383
 20
220.4964167042699
 10
98.10476768928454
 20
221.6102095536255
 10
98.8908479882687
 20
222.8193736299811
 10
99.18042824171634
 20
223.7227801148002
 10
99.07234624907507
 20
224.42157785582882
 10
98.46198659015121
 20
225.31458462330505
 10
97.66204000137657
 20
225.30534043011139
 10
96.86671550919874
 20
224.89612294253047
 10
96.25288927782728
 20
226.08910968079718
 10
96.53669191052887
 20
227.49248278360042
 10
97.52391438085591
 20
228.60396458465766
 10
96.80547272929078
 20
230.1957690931625
 10
96.78351777045586
 20
232.0956422415023
 10
98.3568338925734
 20
234.41397707061674
 10
99.95210497352588
 20
234.83243875139132
 10
102.54962033874509
 20
235.06246902646438
 10
103.64030270511657
 20
235.8751263808803
 10
104.814801056996
 20
238.08884578980104
 10
105.90086132677065
 20
239.3014764386043
 10
106.46384449557704
 20
242.50819593859813
 10
108.0232943279041
 20
246.02645065087455
 10
110.19425934330422
 20
248.55170527207787
 10
113.06864419632977
 20
250.78506859153512
 10
115.05811095092356
 20
251.7081189868908
 10
119.3428020516476
 20
253.05771973206546
 10
124.13785948769866
 20
253.5131581856147
 10
128.04106568042272
 20
253.25824365664326
 10
133.35804469329287
 20
251.8195865825988
 10
136.5786304830772
 20
250.05668353063044
 10
140.11075148514408
 20
247.29731381514134
 10
143.25907653091252
 20
243.13341547269988
 10
144.69711535819198
 20
239.84981313209332
 10
145.42595672709996
 20
237.358068711217
 10
146.3386074051127
 20
236.26854186899473
 10
147.64660928091595
 20
235.5836104177566
 10
152.8520397286972
 20
235.1437310555312
 10
154.85883934552908
 20
234.5668815969343
 10
156.6691188876149
 20
233.68774111924853
 10
159.19899560541506
 20
231.11680280946112
 10
160.32665474456115
 20
228.72967380877844
 10
160.96936907966278
 20
225.03685398059093
 10
160.5144679034977
 20
221.1313367395685
 10
160.03414519605005
 20
219.4256726176763
 10
159.44227392351348
 20
218.71878620760327
 10
159.04230062912617
 20
218.71416411100645
 10
158.3296365983071
 20
219.80600200152713
 10
158.0181013860245
 20
220.8024686650478
 10
156.39163115304348
 20
223.08382672138765
 10
154.4802027632116
 20
224.06180499852098
 10
150.1608459380114
 20
225.71200396125124
 10
149.67012351322086
 20
224.9062797517306
 10
149.40480926690657
 20
221.90301347137802
 10
148.73374410545892
 20
219.3950917124128
 10
148.0511237025192
 20
217.88710318941588
 10
147.48120738881758
 20
215.280343631003
 10
147.59737805050332
 20
213.88159262479658
 10
148.43430141205258
 20
210.69105046289164
 10
147.63551034742713
 20
210.58181294610117
 10
144.71143795598567
 20
212.6481625413076
 10
142.58384558087124
 20
215.02373630049823
 10
141.86655945345535
 20
216.51554748540624
 10
141.15620647093468
 20
217.40739872873328
 10
140.32852730257906
 20
219.79799430186358
 10
140.00197027635681
 20
222.0943741721431
 10
139.98694846241713
 20
223.39428737890188
 10
140.93719415996958
 20
227.7055555350577
 10
142.7908463423411
 20
231.7272434377659
 10
142.773513480103
 20
233.22714329171836
 10
141.95392298079182
 20
234.91778559967082
 10
141.14473219882353
 20
235.7084879952518
 10
140.32976379610918
 20
236.99915700881698
 10
137.9045024985027
 20
239.17127754836628
 10
135.9919185845216
 20
240.24924914909653
 10
133.582834625004
 20
241.02146315829017
 10
132.70022757487064
 20
239.51116358699488
 10
131.90952517928963
 20
238.70197280502657
 10
129.42818047575616
 20
237.07319152374708
 10
130.0362290863816
 20
236.38017140346454
 10
132.14995517170553
 20
235.20451752743588
 10
134.45095713858186
 20
235.13110125927082
 10
136.2647032531153
 20
233.95198081079457
 10
136.28088059120418
 20
232.55207428043892
 10
135.68438722207082
 20
232.2451611647532
 10
135.19250927313112
 20
231.53943027882934
 10
135.92828378693432
 20
228.447725916372
 10
136.23404137847086
 20
227.95122587083546
 10
137.8397121767662
 20
227.46974763923862
 10
138.65583610362972
 20
226.0790853020766
 10
138.76738466871865
 20
225.08030759025755
 10
138.68010211076307
 20
223.9792255065432
 10
137.11487465768997
 20
220.96093741225096
 10
135.2369564681851
 20
219.03910930507624
 10
134.653173864693
 20
217.63226962982534
 10
134.7751221471248
 20
215.73355200563478
 10
135.3947259992423
 20
214.04059864938387
 10
135.7155054047185
 20
212.24418539708853
 10
135.65017780559785
 20
209.2432301650344
 10
134.77797047280734
 20
206.83299068136756
 10
134.18956577271842
 20
205.8261243005041
 10
131.32095854043888
 20
203.09279436306264
 10
130.74642013014045
 20
200.8860080990371
 10
129.9603398311563
 20
199.67684402268145
 10
129.07079963612767
 20
198.7665043929671
 10
127.28363057702597
 20
197.64577839871626
 10
124.98956175504489
 20
197.11923472530034
 10
123.40584591558448
 20
195.70083980855742
 10
120.51875029691764
 20
194.56740304866528
 10
114.8249084726443
 20
194.00157155417634
 10
112.2227710108283
 20
194.17151457349064
  0
ENDSEC
  0
SECTION
  2
OBJECTS
  0
DICTIONARY
  5
A
330
0
100
AcDbDictionary
281
1
  3
ACAD_COLOR
350
B
  3
ACAD_GROUP
350
C
  3
ACAD_LAYOUT
350
D
  3
ACAD_MATERIAL
350
E
  3
ACAD_MLEADERSTYLE
350
F
  3
ACAD_MLINESTYLE
350
10
  3
ACAD_PLOTSETTINGS
350
11
  3
ACAD_PLOTSTYLENAME
350
12
  3
ACAD_SCALELIST
350
14
  3
ACAD_TABLESTYLE
350
15
  3
ACAD_VISUALSTYLE
350
16
  3
EZDXF_META
350
2D
  0
DICTIONARY
  5
B
330
A
100
AcDbDictionary
281
1
  0
DICTIONARY
  5
C
330
A
100
AcDbDictionary
281
1
  0
DICTIONARY
  5
D
330
A
100
AcDbDictionary
281
1
  3
Model
350
1A
  3
Layout1
350
1E
  0
DICTIONARY
  5
E
330
A
100
AcDbDictionary
281
1
  3
ByBlock
350
1F
  3
ByLayer
350
20
  3
Global
350
21
  0
DICTIONARY
  5
F
330
A
100
AcDbDictionary
281
1
  3
Standard
350
2C
  0
DICTIONARY
  5
10
330
A
100
AcDbDictionary
281
1
  3
Standard
350
22
  0
DICTIONARY
  5
11
330
A
100
AcDbDictionary
281
1
  0
ACDBDICTIONARYWDFLT
  5
12
330
A
100
AcDbDictionary
281
1
  3
Normal
350
13
100
AcDbDictionaryWithDefault
340
13
  0
ACDBPLACEHOLDER
  5
13
330
12
  0
DICTIONARY
  5
14
330
A
100
AcDbDictionary
281
1
  0
DICTIONARY
  5
15
330
A
100
AcDbDictionary
281
1
  0
DICTIONARY
  5
16
330
A
100
AcDbDictionary
281
1
  0
LAYOUT
  5
1A
330
D
100
AcDbPlotSettings
  1

  4
A3
  6

 40
7.5
 41
20.0
 42
7.5
 43
20.0
 44
420.0
 45
297.0
 46
0.0
 47
0.0
 48
0.0
 49
0.0
140
0.0
141
0.0
142
1.0
143
1.0
 70
1024
 72
1
 73
0
 74
5
  7

 75
16
 76
0
 77
2
 78
300
147
1.0
148
0.0
149
0.0
100
AcDbLayout
  1
Model
 70
1
 71
0
 10
0.0
 20
0.0
 11
420.0
 21
297.0
 12
0.0
 22
0.0
 32
0.0
 14
1e+20
 24
1e+20
 34
1e+20
 15
-1e+20
 25
-1e+20
 35
-1e+20
146
0.0
 13
0.0
 23
0.0
 33
0.0
 16
1.0
 26
0.0
 36
0.0
 17
0.0
 27
1.0
 37
0.0
 76
1
330
17
  0
LAYOUT
  5
1E
330
D
100
AcDbPlotSettings
  1

  4
A3
  6

 40
7.5
 41
20.0
 42
7.5
 43
20.0
 44
420.0
 45
297.0
 46
0.0
 47
0.0
 48
0.0
 49
0.0
140
0.0
141
0.0
142
1.0
143
1.0
 70
0
 72
1
 73
0
 74
5
  7

 75
16
 76
0
 77
2
 78
300
147
1.0
148
0.0
149
0.0
100
AcDbLayout
  1
Layout1
 70
1
 71
1
 10
0.0
 20
0.0
 11
420.0
 21
297.0
 12
0.0
 22
0.0
 32
0.0
 14
1e+20
 24
1e+20
 34
1e+20
 15
-1e+20
 25
-1e+20
 35
-1e+20
146
0.0
 13
0.0
 23
0.0
 33
0.0
 16
1.0
 26
0.0
 36
0.0
 17
0.0
 27
1.0
 37
0.0
 76
1
330
1B
  0
MATERIAL
  5
1F
102
{ACAD_REACTORS
330
E
102
}
330
E
100
AcDbMaterial
  1
ByBlock
  2

 70
0
 40
1.0
 71
1
 41
1.0
 91
-1023410177
 42
1.0
 72
1
  3

 73
1
 74
1
 75
1
 44
0.5
 73
0
 45
1.0
 46
1.0
 77
1
  4

 78
1
 79
1
170
1
 48
1.0
171
1
  6

172
1
173
1
174
1
140
1.0
141
1.0
175
1
  7

176
1
177
1
178
1
143
1.0
179
1
  8

270
1
271
1
272
1
145
1.0
146
1.0
273
1
  9

274
1
275
1
276
1
 42
1.0
 72
1
  3

 73
1
 74
1
 75
1
 94
63
  0
MATERIAL
  5
20
102
{ACAD_REACTORS
330
E
102
}
330
E
100
AcDbMaterial
  1
ByLayer
  2

 70
0
 40
1.0
 71
1
 41
1.0
 91
-1023410177
 42
1.0
 72
1
  3

 73
1
 74
1
 75
1
 44
0.5
 73
0
 45
1.0
 46
1.0
 77
1
  4

 78
1
 79
1
170
1
 48
1.0
171
1
  6

172
1
173
1
174
1
140
1.0
141
1.0
175
1
  7

176
1
177
1
178
1
143
1.0
179
1
  8

270
1
271
1
272
1
145
1.0
146
1.0
273
1
  9

274
1
275
1
276
1
 42
1.0
 72
1
  3

 73
1
 74
1
 75
1
 94
63
  0
MATERIAL
  5
21
102
{ACAD_REACTORS
330
E
102
}
330
E
100
AcDbMaterial
  1
Global
  2

 70
0
 40
1.0
 71
1
 41
1.0
 91
-1023410177
 42
1.0
 72
1
  3

 73
1
 74
1
 75
1
 44
0.5
 73
0
 45
1.0
 46
1.0
 77
1
  4

 78
1
 79
1
170
1
 48
1.0
171
1
  6

172
1
173
1
174
1
140
1.0
141
1.0
175
1
  7

176
1
177
1
178
1
143
1.0
179
1
  8

270
1
271
1
272
1
145
1.0
146
1.0
273
1
  9

274
1
275
1
276
1
 42
1.0
 72
1
  3

 73
1
 74
1
 75
1
 94
63
  0
MLINESTYLE
  5
22
102
{ACAD_REACTORS
330
10
102
}
330
10
100
AcDbMlineStyle
  2
Standard
 70
0
  3

 62
256
 51
90.0
 52
90.0
 71
2
 49
0.5
 62
256
  6
BYLAYER
 49
-0.5
 62
256
  6
BYLAYER
  0
MLEADERSTYLE
  5
2C
102
{ACAD_REACTORS
330
F
102
}
330
F
100
AcDbMLeaderStyle
179
2
170
2
171
1
172
0
 90
2
 40
0.0
 41
0.0
173
1
 91
-1056964608
 92
-2
290
1
 42
2.0
291
1
 43
8.0
  3
Standard
 44
4.0
300

342
29
174
1
175
1
176
0
178
1
 93
-1056964608
 45
4.0
292
0
297
0
 46
4.0
 94
-1056964608
 47
1.0
 49
1.0
140
1.0
294
1
141
0.0
177
0
142
1.0
295
0
296
0
143
3.75
271
0
272
9
273
9
  0
DICTIONARY
  5
2D
330
A
100
AcDbDictionary
280
1
281
1
  3
CREATED_BY_EZDXF
350
2E
  3
WRITTEN_BY_EZDXF
350
3A
  0
DICTIONARYVAR
  5
2E
330
2D
100
DictionaryVariables
280
0
  1
1.4.4 @ 2026-08-27T20:13:16.693626+00:00
  0
DICTIONARYVAR
  5
3A
330
2D
100
DictionaryVariables
280
0
  1
1.4.4 @ 2026-08-27T20:13:16.718148+00:00
  0
ENDSEC
  0
EOF
