  0
SECTION
  2
HEADER
  9
$ACADVER
  1
AC1024
  9
$ACADMAINTVER
 70
6
  9
$DWGCODEPAGE
  3
ANSI_1252
  9
$LASTSAVEDBY
  1
ezdxf
  9
$INSBASE
 10
0.0
 20
0.0
 30
0.0
  9
$EXTMIN
 10
1e+20
 20
1e+20
 30
1e+20
  9
$EXTMAX
 10
-1e+20
 20
-1e+20
 30
-1e+20
  9
$LIMMIN
 10
0.0
 20
0.0
  9
$LIMMAX
 10
420.0
 20
297.0
  9
$ORTHOMODE
 70
0
  9
$REGENMODE
 70
1
  9
$FILLMODE
 70
1
  9
$QTEXTMODE
 70
0
  9
$MIRRTEXT
 70
1
  9
$LTSCALE
 40
1.0
  9
$ATTMODE
 70
1
  9
$TEXTSIZE
 40
2.5
  9
$TRACEWID
 40
1.0
  9
$TEXTSTYLE
  7
Standard
  9
$CLAYER
  8
0
  9
$CELTYPE
  6
ByLayer
  9
$CECOLOR
 62
256
  9
$CELTSCALE
 40
1.0
  9
$DISPSILH
 70
0
  9
$DIMSCALE
 40
1.0
  9
$DIMASZ
 40
2.5
  9
$DIMEXO
 40
0.625
  9
$DIMDLI
 40
3.75
  9
$DIMRND
 40
0.0
  9
$DIMDLE
 40
0.0
  9
$DIMEXE
 40
1.25
  9
$DIMTP
 40
0.0
  9
$DIMTM
 40
0.0
  9
$DIMTXT
 40
2.5
  9
$DIMCEN
 40
2.5
  9
$DIMTSZ
 40
0.0
  9
$DIMTOL
 70
0
  9
$DIMLIM
 70
0
  9
$DIMTIH
 70
0
  9
$DIMTOH
 70
0
  9
$DIMSE1
 70
0
  9
$DIMSE2
 70
0
  9
$DIMTAD
 70
1
  9
$DIMZIN
 70
8
  9
$DIMBLK
  1

  9
$DIMASO
 70
1
  9
$DIMSHO
 70
1
  9
$DIMPOST
  1

  9
$DIMAPOST
  1

  9
$DIMALT
 70
0
  9
$DIMALTD
 70
3
  9
$DIMALTF
 40
0.03937007874
  9
$DIMLFAC
 40
1.0
  9
$DIMTOFL
 70
1
  9
$DIMTVP
 40
0.0
  9
$DIMTIX
 70
0
  9
$DIMSOXD
 70
0
  9
$DIMSAH
 70
0
  9
$DIMBLK1
  1

  9
$DIMBLK2
  1

  9
$DIMSTYLE
  2
ISO-25
  9
$DIMCLRD
 70
0
  9
$DIMCLRE
 70
0
  9
$DIMCLRT
 70
0
  9
$DIMTFAC
 40
1.0
  9
$DIMGAP
 40
0.625
  9
$DIMJUST
 70
0
  9
$DIMSD1
 70
0
  9
$DIMSD2
 70
0
  9
$DIMTOLJ
 70
0
  9
$DIMTZIN
 70
8
  9
$DIMALTZ
 70
0
  9
$DIMALTTZ
 70
0
  9
$DIMUPT
 70
0
  9
$DIMDEC
 70
2
  9
$DIMTDEC
 70
2
  9
$DIMALTU
 70
2
  9
$DIMALTTD
 70
3
  9
$DIMTXSTY
  7
Standard
  9
$DIMAUNIT
 70
0
  9
$DIMADEC
 70
0
  9
$DIMALTRND
 40
0.0
  9
$DIMAZIN
 70
0
  9
$DIMDSEP
 70
44
  9
$DIMATFIT
 70
3
  9
$DIMFRAC
 70
0
  9
$DIMLDRBLK
  1

  9
$DIMLUNIT
 70
2
  9
$DIMLWD
 70
-2
  9
$DIMLWE
 70
-2
  9
$DIMTMOVE
 70
0
  9
$DIMFXL
 40
1.0
  9
$DIMFXLON
 70
0
  9
$DIMJOGANG
 40
0.785398163397
  9
$DIMTFILL
 70
0
  9
$DIMTFILLCLR
 70
0
  9
$DIMARCSYM
 70
0
  9
$DIMLTYPE
  6

  9
$DIMLTEX1
  6

  9
$DIMLTEX2
  6

  9
$DIMTXTDIRECTION
 70
0
  9
$LUNITS
 70
2
  9
$LUPREC
 70
4
  9
$SKETCHINC
 40
1.0
  9
$FILLETRAD
 40
10.0
  9
$AUNITS
 70
0
  9
$AUPREC
 70
2
  9
$MENU
  1
.
  9
$ELEVATION
 40
0.0
  9
$PELEVATION
 40
0.0
  9
$THICKNESS
 40
0.0
  9
$LIMCHECK
 70
0
  9
$CHAMFERA
 40
0.0
  9
$CHAMFERB
 40
0.0
  9
$CHAMFERC
 40
0.0
  9
$CHAMFERD
 40
0.0
  9
$SKPOLY
 70
0
  9
$TDCREATE
 40
2461280.6340046297
  9
$TDUCREATE
 40
2458532.153996898
  9
$TDUPDATE
 40
2461280.6340046297
  9
$TDUUPDATE
 40
2458532.1544311
  9
$TDINDWG
 40
0.0
  9
$TDUSRTIMER
 40
0.0
  9
$USRTIMER
 70
1
  9
$ANGBASE
 50
0.0
  9
$ANGDIR
 70
0
  9
$PDMODE
 70
0
  9
$PDSIZE
 40
0.0
  9
$PLINEWID
 40
0.0
  9
$SPLFRAME
 70
0
  9
$SPLINETYPE
 70
6
  9
$SPLINESEGS
 70
8
  9
$HANDSEED
  5
3B
  9
$SURFTAB1
 70
6
  9
$SURFTAB2
 70
6
  9
$SURFTYPE
 70
6
  9
$SURFU
 70
6
  9
$SURFV
 70
6
  9
$UCSBASE
  2

  9
$UCSNAME
  2

  9
$UCSORG
 10
0.0
 20
0.0
 30
0.0
  9
$UCSXDIR
 10
1.0
 20
0.0
 30
0.0
  9
$UCSYDIR
 10
0.0
 20
1.0
 30
0.0
  9
$UCSORTHOREF
  2

  9
$UCSORTHOVIEW
 70
0
  9
$UCSORGTOP
 10
0.0
 20
0.0
 30
0.0
  9
$UCSORGBOTTOM
 10
0.0
 20
0.0
 30
0.0
  9
$UCSORGLEFT
 10
0.0
 20
0.0
 30
0.0
  9
$UCSORGRIGHT
 10
0.0
 20
0.0
 30
0.0
  9
$UCSORGFRONT
 10
0.0
 20
0.0
 30
0.0
  9
$UCSORGBACK
 10
0.0
 20
0.0
 30
0.0
  9
$PUCSBASE
  2

  9
$PUCSNAME
  2

  9
$PUCSORG
 10
0.0
 20
0.0
 30
0.0
  9
$PUCSXDIR
 10
1.0
 20
0.0
 30
0.0
  9
$PUCSYDIR
 10
0.0
 20
1.0
 30
0.0
  9
$PUCSORTHOREF
  2

  9
$PUCSORTHOVIEW
 70
0
  9
$PUCSORGTOP
 10
0.0
 20
0.0
 30
0.0
  9
$PUCSORGBOTTOM
 10
0.0
 20
0.0
 30
0.0
  9
$PUCSORGLEFT
 10
0.0
 20
0.0
 30
0.0
  9
$PUCSORGRIGHT
 10
0.0
 20
0.0
 30
0.0
  9
$PUCSORGFRONT
 10
0.0
 20
0.0
 30
0.0
  9
$PUCSORGBACK
 10
0.0
 20
0.0
 30
0.0
  9
$USERI1
 70
0
  9
$USERI2
 70
0
  9
$USERI3
 70
0
  9
$USERI4
 70
0
  9
$USERI5
 70
0
  9
$USERR1
 40
0.0
  9
$USERR2
 40
0.0
  9
$USERR3
 40
0.0
  9
$USERR4
 40
0.0
  9
$USERR5
 40
0.0
  9
$WORLDVIEW
 70
1
  9
$SHADEDGE
 70
3
  9
$SHADEDIF
 70
70
  9
$TILEMODE
 70
1
  9
$MAXACTVP
 70
64
  9
$PINSBASE
 10
0.0
 20
0.0
 30
0.0
  9
$PLIMCHECK
 70
0
  9
$PEXTMIN
 10
1e+20
 20
1e+20
 30
1e+20
  9
$PEXTMAX
 10
-1e+20
 20
-1e+20
 30
-1e+20
  9
$PLIMMIN
 10
0.0
 20
0.0
  9
$PLIMMAX
 10
420.0
 20
297.0
  9
$UNITMODE
 70
0
  9
$VISRETAIN
 70
1
  9
$PLINEGEN
 70
0
  9
$PSLTSCALE
 70
1
  9
$TREEDEPTH
 70
3020
  9
$CMLSTYLE
  2
Standard
  9
$CMLJUST
 70
0
  9
$CMLSCALE
 40
20.0
  9
$PROXYGRAPHICS
 70
1
  9
$MEASUREMENT
 70
1
  9
$CELWEIGHT
370
-1
  9
$ENDCAPS
280
0
  9
$JOINSTYLE
280
0
  9
$LWDISPLAY
290
0
  9
$INSUNITS
 70
6
  9
$HYPERLINKBASE
  1

  9
$STYLESHEET
  1

  9
$XEDIT
290
1
  9
$CEPSNTYPE
380
0
  9
$PSTYLEMODE
290
1
  9
$FINGERPRINTGUID
  2
{A8ACCF93-6A57-4BA2-92A9-68E96A02F611}
  9
$VERSIONGUID
  2
{BDF32872-57C9-4653-98C2-27F0A6234D58}
  9
$EXTNAMES
290
1
  9
$PSVPSCALE
 40
0.0
  9
$OLESTARTUP
290
0
  9
$SORTENTS
280
127
  9
$INDEXCTL
280
0
  9
$HIDETEXT
280
1
  9
$XCLIPFRAME
280
1
  9
$HALOGAP
280
0
  9
$OBSCOLOR
 70
257
  9
$OBSLTYPE
280
0
  9
$INTERSECTIONDISPLAY
280
0
  9
$INTERSECTIONCOLOR
 70
257
  9
$DIMASSOC
280
2
  9
$PROJECTNAME
  1

  9
$CAMERADISPLAY
290
0
  9
$LENSLENGTH
 40
50.0
  9
$CAMERAHEIGHT
 40
0.0
  9
$STEPSPERSEC
 40
24.0
  9
$STEPSIZE
 40
100.0
  9
$3DDWFPREC
 40
2.0
  9
$PSOLWIDTH
 40
0.005
  9
$PSOLHEIGHT
 40
0.08
  9
$LOFTANG1
 40
1.570796326795
  9
$LOFTANG2
 40
1.570796326795
  9
$LOFTMAG1
 40
0.0
  9
$LOFTMAG2
 40
0.0
  9
$LOFTPARAM
 70
7
  9
$LOFTNORMALS
280
1
  9
$LATITUDE
 40
37.795
  9
$LONGITUDE
 40
-122.394
  9
$NORTHDIRECTION
 40
0.0
  9
$TIMEZONE
 70
-8000
  9
$LIGHTGLYPHDISPLAY
280
1
  9
$TILEMODELIGHTSYNCH
280
1
  9
$CMATERIAL
347
20
  9
$SOLIDHIST
280
0
  9
$SHOWHIST
280
1
  9
$DWFFRAME
280
2
  9
$DGNFRAME
280
2
  9
$REALWORLDSCALE
290
1
  9
$INTERFERECOLOR
 62
256
  9
$CSHADOW
280
0
  9
$SHADOWPLANELOCATION
 40
0.0
  0
ENDSEC
  0
SECTION
  2
CLASSES
  0
CLASS
  1
ACDBDICTIONARYWDFLT
  2
AcDbDictionaryWithDefault
  3
ObjectDBX Classes
 90
0
 91
0
280
0
281
0
  0
CLASS
  1
SUN
  2
AcDbSun
  3
SCENEOE
 90
1153
 91
0
280
0
281
0
  0
CLASS
  1
VISUALSTYLE
  2
AcDbVisualStyle
  3
ObjectDBX Classes
 90
4095
 91
0
280
0
281
0
  0
CLASS
  1
MATERIAL
  2
AcDbMaterial
  3
ObjectDBX Classes
 90
1153
 91
0
280
0
281
0
  0
CLASS
  1
SCALE
  2
AcDbScale
  3
ObjectDBX Classes
 90
1153
 91
0
280
0
281
0
  0
CLASS
  1
TABLESTYLE
  2
AcDbTableStyle
  3
ObjectDBX Classes
 90
4095
 91
0
280
0
281
0
  0
CLASS
  1
MLEADERSTYLE
  2
AcDbMLeaderStyle
  3
ACDB_MLEADERSTYLE_CLASS
 90
4095
 91
0
280
0
281
0
  0
CLASS
  1
DICTIONARYVAR
  2
AcDbDictionaryVar
  3
ObjectDBX Classes
 90
0
 91
0
280
0
281
0
  0
CLASS
  1
CELLSTYLEMAP
  2
AcDbCellStyleMap
  3
ObjectDBX Classes
 90
1152
 91
0
280
0
281
0
  0
CLASS
  1
MENTALRAYRENDERSETTINGS
  2
AcDbMentalRayRenderSettings
  3
SCENEOE
 90
1024
 91
0
280
0
281
0
  0
CLASS
  1
ACDBDETAILVIEWSTYLE
  2
AcDbDetailViewStyle
  3
ObjectDBX Classes
 90
1025
 91
0
280
0
281
0
  0
CLASS
  1
ACDBSECTIONVIEWSTYLE
  2
AcDbSectionViewStyle
  3
ObjectDBX Classes
 90
1025
 91
0
280
0
281
0
  0
CLASS
  1
RASTERVARIABLES
  2
AcDbRasterVariables
  3
ISM
 90
0
 91
0
280
0
281
0
  0
CLASS
  1
ACDBPLACEHOLDER
  2
AcDbPlaceHolder
  3
ObjectDBX Classes
 90
0
 91
0
280
0
281
0
  0
CLASS
  1
LAYOUT
  2
AcDbLayout
  3
ObjectDBX Classes
 90
0
 91
0
280
0
281
0
  0
ENDSEC
  0
SECTION
  2
TABLES
  0
TABLE
  2
VPORT
  5
8
330
0
100
AcDbSymbolTable
 70
1
  0
VPORT
  5
23
330
8
100
AcDbSymbolTableRecord
100
AcDbViewportTableRecord
  2
*Active
 70
0
 10
0.0
 20
0.0
 11
1.0
 21
1.0
 12
0.0
 22
0.0
 13
0.0
 23
0.0
 14
0.5
 24
0.5
 15
0.5
 25
0.5
 16
0.0
 26
0.0
 36
1.0
 17
0.0
 27
0.0
 37
0.0
 40
1000.0
 41
1.34
 42
50.0
 43
0.0
 44
0.0
 50
0.0
 51
0.0
 71
0
 72
1000
 73
1
 74
3
 75
0
 76
0
 77
0
 78
0
281
0
 65
0
146
0.0
  0
ENDTAB
  0
TABLE
  2
LTYPE
  5
2
330
0
100
AcDbSymbolTable
 70
3
  0
LTYPE
  5
24
330
2
100
AcDbSymbolTableRecord
100
AcDbLinetypeTableRecord
  2
ByBlock
 70
0
  3

 72
65
 73
0
 40
0.0
  0
LTYPE
  5
25
330
2
100
AcDbSymbolTableRecord
100
AcDbLinetypeTableRecord
  2
ByLayer
 70
0
  3

 72
65
 73
0
 40
0.0
  0
LTYPE
  5
26
330
2
100
AcDbSymbolTableRecord
100
AcDbLinetypeTableRecord
  2
Continuous
 70
0
  3

 72
65
 73
0
 40
0.0
  0
ENDTAB
  0
TABLE
  2
LAYER
  5
1
330
0
100
AcDbSymbolTable
 70
3
  0
LAYER
  5
27
330
1
100
AcDbSymbolTableRecord
100
AcDbLayerTableRecord
  2
0
 70
0
 62
7
  6
Continuous
370
-3
390
13
347
21
  0
LAYER
  5
28
330
1
100
AcDbSymbolTableRecord
100
AcDbLayerTableRecord
  2
Defpoints
 70
0
 62
7
  6
Continuous
290
0
370
-3
390
13
347
21
  0
LAYER
  5
2F
330
1
100
AcDbSymbolTableRecord
100
AcDbLayerTableRecord
  2
TOPPERS_CUT
 70
0
 62
4
  6
Continuous
370
-3
390
13
347
21
  0
ENDTAB
  0
TABLE
  2
STYLE
  5
5
330
0
100
AcDbSymbolTable
 70
1
  0
STYLE
  5
29
330
5
100
AcDbSymbolTableRecord
100
AcDbTextStyleTableRecord
  2
Standard
 70
0
 40
0.0
 41
1.0
 50
0.0
 71
0
 42
2.5
  3
txt
  4

  0
ENDTAB
  0
TABLE
  2
VIEW
  5
7
330
0
100
AcDbSymbolTable
 70
0
  0
ENDTAB
  0
TABLE
  2
UCS
  5
6
330
0
100
AcDbSymbolTable
 70
0
  0
ENDTAB
  0
TABLE
  2
APPID
  5
3
330
0
100
AcDbSymbolTable
 70
3
  0
APPID
  5
2A
330
3
100
AcDbSymbolTableRecord
100
AcDbRegAppTableRecord
  2
ACAD
 70
0
  0
APPID
  5
38
330
3
100
AcDbSymbolTableRecord
100
AcDbRegAppTableRecord
  2
HATCHBACKGROUNDCOLOR
 70
0
  0
APPID
  5
39
330
3
100
AcDbSymbolTableRecord
100
AcDbRegAppTableRecord
  2
EZDXF
 70
0
  0
ENDTAB
  0
TABLE
  2
DIMSTYLE
  5
4
330
0
100
AcDbSymbolTable
 70
1
100
AcDbDimStyleTable
  0
DIMSTYLE
105
2B
330
4
100
AcDbSymbolTableRecord
100
AcDbDimStyleTableRecord
  2
Standard
 70
0
 40
1.0
 41
2.5
 42
0.625
 43
3.75
 44
1.25
 45
0.0
 46
0.0
 47
0.0
 48
0.0
 49
2.5
140
2.5
141
2.5
142
0.0
143
0.03937007874
144
1.0
145
0.0
146
1.0
147
0.625
148
0.0
 69
0
 70
0
 71
0
 72
0
 73
0
 74
0
 75
0
 76
0
 77
1
 78
8
 79
3
170
0
171
3
172
1
173
0
174
0
175
0
176
0
177
0
178
0
179
2
271
2
272
2
273
2
274
3
275
0
276
0
277
2
278
44
279
0
280
0
281
0
282
0
283
0
284
8
285
0
286
0
288
0
289
3
290
0
371
-2
372
-2
  0
ENDTAB
  0
TABLE
  2
BLOCK_RECORD
  5
9
330
0
100
AcDbSymbolTable
 70
2
  0
BLOCK_RECORD
  5
17
330
9
100
AcDbSymbolTableRecord
100
AcDbBlockTableRecord
  2
*Model_Space
340
1A
 70
0
280
1
281
0
  0
BLOCK_RECORD
  5
1B
330
9
100
AcDbSymbolTableRecord
100
AcDbBlockTableRecord
  2
*Paper_Space
340
1E
 70
0
280
1
281
0
  0
ENDTAB
  0
ENDSEC
  0
SECTION
  2
BLOCKS
  0
BLOCK
  5
18
330
17
100
AcDbEntity
  8
0
100
AcDbBlockBegin
  2
*Model_Space
 70
0
 10
0.0
 20
0.0
 30
0.0
  3
*Model_Space
  1

  0
ENDBLK
  5
19
330
17
100
AcDbEntity
  8
0
100
AcDbBlockEnd
  0
BLOCK
  5
1C
330
1B
100
AcDbEntity
  8
0
100
AcDbBlockBegin
  2
*Paper_Space
 70
0
 10
0.0
 20
0.0
 30
0.0
  3
*Paper_Space
  1

  0
ENDBLK
  5
1D
330
1B
100
AcDbEntity
  8
0
100
AcDbBlockEnd
  0
ENDSEC
  0
SECTION
  2
ENTITIES
  0
LWPOLYLINE
  5
30
330
17
100
AcDbEntity
  8
TOPPERS_CUT
100
AcDbPolyline
 90
105
 70
1
 10
86.56914618264607
 20
51.055807816340966
 10
86.63931687730754
 20
53.35691104601379
 10
87.50682720463348
 20
55.86836995110916
 10
89.48202443434295
 20
57.794141459816274
 10
90.77154267336768
 20
58.61092950528621
 10
93.46483291510427
 20
59.14589461981841
 10
96.42698047924159
 20
62.084547680027335
 10
97.82037999512389
 20
62.6026575034615
 10
99.41765238216024
 20
62.823385665713616
 10
101.31878923464714
 20
62.74802872763735
 10
104.63666369838286
 20
61.39093291565854
 10
107.92601382333729
 20
62.233652178202384
 10
111.33999019880837
 20
61.177827709966735
 10
112.04900728485964
 20
60.48696247586721
 10
112.85282972179259
 20
60.19736017980732
 10
113.66702464555513
 20
59.10782512937557
 10
114.56824555507717
 20
59.01950258276234
 10
115.27855920198215
 20
58.228645754366354
 10
117.78612842451643
 20
57.661110209929845
 10
118.39385735541751
 20
57.06894000927313
 10
119.60153585209748
 20
56.48454917373856
 10
121.342882902456
 20
53.30685969076391
 10
121.5610179430007
 20
51.909570492320526
 10
121.48177132236336
 20
50.30840842272308
 10
120.80646481850818
 20
48.399492205114015
 10
121.31549871596648
 20
47.706033849307104
 10
122.41540625322781
 20
47.720296018697766
 10
122.82055887382853
 20
47.32551588492661
 10
123.31662716274987
 20
47.631973472084546
 10
123.91657672852878
 20
47.63975283720672
 10
124.52430565942984
 20
47.04758263654999
 10
125.31386592697216
 20
47.85788787775143
 10
126.11898492475882
 20
47.468293987395064
 10
127.01631615171978
 20
47.6799462236713
 10
127.72662979862473
 20
46.8890893952753
 10
128.50970726189854
 20
48.199352607959156
 10
129.40703848885954
 20
48.41100484423539
 10
130.50824258697452
 20
48.32527541932957
 10
130.70433609300642
 20
48.627843323926406
 10
130.09660716210533
 20
49.22001352458314
 10
129.78107364897153
 20
50.41602297357986
 10
129.08242904974983
 20
50.3069554533075
 10
128.59673324765805
 20
49.2005651117777
 10
128.2656410042799
 20
51.596473692332225
 10
128.45525170604333
 20
52.39899956841149
 10
129.05520127182223
 20
52.406778933533666
 10
129.36295541983387
 20
51.810719050315846
 10
129.75384587104392
 20
52.51584645380602
 10
130.25250728167265
 20
52.62232085237099
 10
130.7459824488866
 20
53.12876162812189
 10
131.22130576414878
 20
55.03508472402357
 10
131.81866220822027
 20
55.242847277738704
 10
132.7991297383797
 20
56.755686800722934
 10
135.27687806127898
 20
58.48795792510557
 10
138.4636434702295
 20
59.52936381538867
 10
140.04276400531407
 20
61.14997429779156
 10
141.52967231122437
 20
62.16933865356184
 10
144.02427592522173
 20
62.601719052090175
 10
146.33186195916304
 20
62.03159038594629
 10
147.33177790212787
 20
62.04455599448325
 10
148.423906074267
 20
62.6587677296528
 10
150.61464522281378
 20
63.3872332285095
 10
153.81567280115496
 20
63.3287315815313
 10
155.42720735758198
 20
62.449552206522085
 10
157.9568181146291
 20
60.18215955904535
 10
159.564462988495
 20
59.60295496692557
 10
160.56567549231355
 20
59.51592898116606
 10
161.17340442321463
 20
58.92375878050933
 10
162.07721845444408
 20
58.63545304530313
 10
163.59524422084309
 20
57.25501913795781
 10
164.8236676911822
 20
55.07076279367951
 10
165.15216681285295
 20
52.87483740171795
 10
165.0742167530693
 20
51.17368373782402
 10
164.30280833747875
 20
48.96349617647181
 10
162.23280575688761
 20
46.636461729725056
 10
161.43676268507681
 20
46.32611446000603
 10
160.2355669926653
 20
46.410547324058165
 10
159.74209182545138
 20
45.90410654830727
 10
159.3225206268981
 20
39.69814489765677
 10
157.59657589822206
 20
33.97528592739065
 10
154.57463012625283
 20
27.93559688313703
 10
152.0189317435699
 20
24.502172094860477
 10
149.75024253523947
 20
22.07255293210985
 10
147.0802903888694
 20
19.737739120240924
 10
143.80909211586675
 20
17.495137537546302
 10
142.3169975665417
 20
16.875739558961957
 10
140.53141103859565
 20
15.752493926334102
 10
136.4525006460989
 20
14.09946942258882
 10
129.86861415277534
 20
12.813997274687068
 10
124.56905965506166
 20
12.745279549441175
 10
121.46543054930957
 20
13.005060945866052
 10
114.94263882467158
 20
14.720633187712519
 10
111.01703543003478
 20
16.669899200348056
 10
110.01322980450887
 20
16.956908374700543
 10
106.58369469879338
 20
19.212631974494013
 10
103.75410915885682
 20
21.476134939409654
 10
101.72834605585322
 20
23.450035608265416
 10
98.57804075936806
 20
27.309514399363714
 10
95.81862591409298
 20
31.87412059395219
 10
93.43065310722251
 20
38.64372810647809
 10
92.89698455354399
 20
41.2370267539182
 10
92.65810453934014
 20
44.23418146110533
 10
89.13895032615775
 20
45.68867574567323
 10
87.40797576262881
 20
48.06643247427601
 10
86.78728122319077
 20
49.65851861789758
  0
LWPOLYLINE
  5
31
330
17
100
AcDbEntity
  8
TOPPERS_CUT
100
AcDbPolyline
 90
63
 70
1
 10
36.0985402371861
 20
9.897966090879926
 10
34.989556773948905
 20
10.583645081564658
 10
33.161183737830875
 20
12.760122060720779
 10
30.190116656279553
 20
18.222059482270218
 10
28.029354815929672
 20
22.894436636277348
 10
27.713821302795868
 20
24.090446085274067
 10
26.390592481575048
 20
25.873439491512734
 10
25.585473483788384
 20
26.2630333818691
 10
22.579242850625384
 20
26.724094527740636
 10
15.469467168745448
 20
27.431971461500087
 10
12.25806710357469
 20
28.29040586285017
 10
9.945294826218596
 20
29.26050090618
 10
9.23757430102103
 20
29.85137454598303
 10
8.723354160147954
 20
30.944799278975875
 10
8.896109570813305
 20
33.047215880909434
 10
9.777882067529916
 20
34.45876724874348
 10
11.753079297239372
 20
36.3845387574506
 10
12.637444915663375
 20
37.59610693669167
 10
16.49562714590798
 20
40.84640382747331
 10
20.34473345017671
 20
44.796641878330334
 10
20.09937063170438
 20
48.29375455699988
 10
18.91389007809912
 20
54.87893761117717
 10
18.546494130817468
 20
60.07461083203325
 10
19.119215918668754
 20
62.1822136773816
 10
20.306149441689605
 20
63.197688350590795
 10
21.302175702093358
 20
63.5106287420172
 10
23.60457549261988
 20
63.34046645305924
 10
26.218619113719125
 20
62.27426949799402
 10
28.940433694237033
 20
60.60941953800358
 10
35.68525014198083
 20
57.19658331482428
 10
37.590276677028804
 20
56.82125159385856
 10
41.07053406460031
 20
58.36650513818519
 10
42.06137408158928
 20
59.079411906797546
 10
43.554765191768055
 20
59.5988182910854
 10
46.13250510896381
 20
61.332385976321724
 10
48.61673623613156
 20
62.564699129221935
 10
52.000891711967654
 20
63.80868132980542
 10
53.29948587696826
 20
63.92552821519994
 10
54.50197813023347
 20
63.74110375685133
 10
56.018707335778764
 20
62.460661443802486
 10
56.427749638940575
 20
61.76590652714187
 10
56.67700213997399
 20
57.96881906558286
 10
56.31722914925264
 20
54.86389339897708
 10
54.79515729173066
 20
48.8436527675289
 10
54.44446022698518
 20
45.038785940847724
 10
55.05737540130103
 20
44.04664936300506
 10
58.096020055806434
 20
41.085798359721416
 10
60.62303769114616
 20
39.01838890083765
 10
63.96813993280949
 20
35.561469608632684
 10
65.29136875403033
 20
33.77847620239402
 10
65.70689386146061
 20
32.583763314250994
 10
65.62894380167695
 20
30.882609650357068
 10
65.33674838390968
 20
30.278770402017074
 10
64.24980645518532
 20
29.26459228966158
 10
63.25637331648896
 20
28.751668709642196
 10
60.665667790756245
 20
28.01801696737071
 10
51.87937310120261
 20
26.904003669280616
 10
48.09136156561948
 20
25.954810008171812
 10
47.20310626463439
 20
25.043216611820192
 10
45.44993375803073
 20
21.42018112178024
 10
43.707133738256644
 20
16.99721287736841
 10
40.47742541257226
 20
11.554880277186296
 10
38.09837212311578
 20
9.923897307953848
  0
LWPOLYLINE
  5
32
330
17
100
AcDbEntity
  8
TOPPERS_CUT
100
AcDbPolyline
 90
107
 70
1
 10
6.550408754070547
 20
75.12033898436269
 10
5.836205424604501
 20
76.21117059564816
 10
5.420680317174212
 20
77.40588348379117
 10
5.280495336413149
 20
80.50432634612848
 10
6.718134329882998
 20
85.32337128516517
 10
7.789517528363009
 20
87.53744852907847
 10
8.697377650715431
 20
94.64981733266579
 10
9.764871166634354
 20
97.16386935946855
 10
11.245296668276174
 20
98.68319168672126
 10
11.43879705260066
 20
99.18574277991107
 10
13.126985107957626
 20
100.10770866309227
 10
14.821655967583073
 20
100.52971657479102
 10
16.1085810849004
 20
101.54648780885393
 10
14.69054691279788
 20
102.92821827705295
 10
13.764691347055603
 20
104.91638111529937
 10
13.649141022514765
 20
106.11498368600348
 10
13.23491247593817
 20
107.20970497985004
 10
13.316752218282911
 20
108.6108838608545
 10
13.694677060956016
 20
110.3159272073095
 10
14.567373631696753
 20
112.42741973521895
 10
17.52303839156561
 20
115.86603076691028
 10
18.011327315364767
 20
116.7724379198471
 10
17.877625138872183
 20
119.37092281070201
 10
17.96983736804649
 20
119.97216893733462
 10
18.55811788614213
 20
120.87987265112515
 10
20.255381867474966
 20
121.10189737423096
 10
22.677221665103417
 20
119.43315773167942
 10
23.775832641511045
 20
119.54741149536657
 10
26.680775119523872
 20
119.1850453829378
 10
28.49229286454385
 20
118.30845912963598
 10
30.006428948381767
 20
117.22800000518012
 10
32.64510722570124
 20
114.26196275848167
 10
35.10843697064796
 20
109.39349209844268
 10
35.6967174887436
 20
110.3011958122332
 10
35.886328190507
 20
111.10372168831245
 10
37.56803344159548
 20
112.52564554297608
 10
38.570542506267714
 20
112.33862796292007
 10
40.0937545160815
 20
110.55822767838882
 10
40.79758535871798
 20
110.26732882147522
 10
41.77675632802369
 20
111.88015993875592
 10
42.453359392732544
 20
113.6890845620685
 10
42.8494360873574
 20
113.99424558837275
 10
43.92600552925219
 20
115.8083564551001
 10
45.70121957036868
 20
117.73153484209983
 10
47.08943284283619
 20
118.64961104271995
 10
49.57755365256502
 20
119.58194941273071
 10
53.07207320952718
 20
120.02729541979599
 10
55.45112649898366
 20
121.65827838902844
 10
56.35105084765202
 20
121.66994743671171
 10
57.26005112229625
 20
120.98167532431958
 10
57.67816935143394
 20
119.58697924758357
 10
57.489855210524226
 20
118.68446177720784
 10
57.61059177847985
 20
117.0858928293178
 10
58.12092223679184
 20
116.29244287921442
 10
59.63894800319084
 20
114.91200897186908
 10
59.74542240175581
 20
114.41334756124036
 10
61.168642817273124
 20
112.63165071585539
 10
62.31004030185271
 20
109.44618186775855
 10
62.43207343066204
 20
107.747621325572
 10
62.05933483140372
 20
105.64261160193107
 10
61.47624055672286
 20
104.33494151095461
 10
59.804907792463936
 20
102.11308490191911
 10
60.412636723365026
 20
101.52091470126237
 10
64.23306228029055
 20
99.97031850495907
 10
66.26271506585525
 20
97.69644305321387
 10
67.29763815186988
 20
95.00963561574576
 10
67.75724632832583
 20
90.41520852152227
 10
68.39090647630084
 20
87.82320643493587
 10
69.4154570754859
 20
85.93633175183962
 10
70.65943927606938
 20
82.55217627600352
 10
70.88146399917518
 20
80.85491229467068
 10
70.7190810753394
 20
77.95256293836526
 10
70.13598680065854
 20
76.64489284738877
 10
69.05034143278787
 20
75.5307231407368
 10
66.7635003725057
 20
74.50098629813695
 10
63.96373573220414
 20
74.46468259423345
 10
60.05109794610431
 20
75.41403266390415
 10
57.33576616985489
 20
76.57892465241217
 10
52.697256006605734
 20
79.51903068203669
 10
48.04578023481963
 20
83.45905265462602
 10
42.760644315058514
 20
89.99107671380177
 10
41.98534621690687
 20
88.08086393533901
 10
40.40752224267595
 20
86.36026185863965
 10
39.51537725912978
 20
85.74864324517748
 10
37.91421518953233
 20
85.82788986581483
 10
37.11817211772155
 20
85.5175425960958
 10
35.404052845290664
 20
86.59540859884429
 10
34.492459448939044
 20
87.4836638998294
 10
33.97694274721227
 20
88.67708022711871
 10
33.571790126611546
 20
89.07186036088987
 10
32.871848966536156
 20
89.062784434914
 10
31.295321553158942
 20
87.24219076391813
 10
30.709634156770694
 20
86.13450386153463
 10
29.227912094275176
 20
84.71517312857841
 10
29.034411709950696
 20
84.2126220353886
 10
28.33965679329009
 20
83.8035797322268
 10
25.677484012042207
 20
80.86881635457897
 10
24.585355839903055
 20
80.2546046194094
 10
24.193168827839294
 20
79.64946881021572
 10
23.397125756028508
 20
79.33912154049669
 10
22.608862049339905
 20
78.42882470499877
 10
21.023258709986813
 20
77.30817219407831
 10
16.55345786628004
 20
74.95002028684286
 10
13.565379085068784
 20
74.01119911256362
 10
11.76942007029316
 20
73.68788623430763
 10
9.369621807177541
 20
73.65676877381892
 10
7.460705589568472
 20
74.3320752776741
  0
LWPOLYLINE
  5
33
330
17
100
AcDbEntity
  8
TOPPERS_CUT
100
AcDbPolyline
 90
151
 70
1
 10
94.6468930118341
 20
75.96263431357949
 10
92.31726544337995
 20
78.2326200827636
 10
91.2888251616338
 20
80.41946954874929
 10
90.86033444566655
 20
82.61409837985715
 10
90.83829291115372
 20
84.31395548289738
 10
91.30972654385482
 20
86.52025336168853
 10
93.67451766392065
 20
89.2511438681823
 10
94.47315385743882
 20
89.36150794930835
 10
95.37696788866826
 20
89.07320221410217
 10
96.17430752133275
 20
89.2835578895247
 10
96.96516434972874
 20
89.99387153642965
 10
97.96508029269359
 20
90.00683714496661
 10
99.17016566766618
 20
89.62242949802503
 10
100.76354837214146
 20
90.14313244316659
 10
101.76994711937476
 20
89.65614008022114
 10
102.36600700259258
 20
89.96389422823276
 10
101.65698991654133
 20
90.65475946233228
 10
101.65180367312655
 20
91.05472583951821
 10
99.93120159642717
 20
92.63254981374912
 10
98.4066930257597
 20
94.51294169257689
 10
98.49112588981181
 20
95.71413738498839
 10
99.57547469682879
 20
96.92829868593684
 10
100.37022120778587
 20
97.33863754995237
 10
102.26487525600429
 20
97.76323858335851
 10
104.264707141934
 20
97.78916980043243
 10
107.6709041522829
 20
97.33329489797568
 10
108.26177779208595
 20
98.04101542317325
 10
107.62033827898877
 20
101.23296707553855
 10
106.60486360577957
 20
102.41990059855941
 10
105.69975301369644
 20
102.80819792806207
 10
103.10256468369523
 20
102.57450415727301
 10
101.6949029984223
 20
103.15630187110017
 10
100.78590272377805
 20
103.84457398349232
 10
99.97041123916183
 20
105.03410062822054
 10
99.76005556373929
 20
105.83144026088503
 10
99.9457765829416
 20
106.93394091985374
 10
100.94050628249167
 20
107.34687290557663
 10
101.62748183403008
 20
108.35586477451736
 10
102.320940189837
 20
108.86489867197565
 10
103.32474581536292
 20
108.57788949762316
 10
104.83758533834714
 20
107.59742196746376
 10
106.73612906912665
 20
107.72204821798047
 10
107.62697749181913
 20
108.43365842573913
 10
107.90491074019573
 20
110.13740521134044
 10
107.69196194306582
 20
111.13472803259788
 10
107.07645364704256
 20
112.32684779903352
 10
106.94793771396476
 20
114.52536631270247
 10
107.23105720575617
 20
115.82914672111785
 10
108.20504193164712
 20
117.8419442155845
 10
108.3894663899957
 20
119.0444364688497
 10
107.98431376939497
 20
119.43921660262086
 10
106.27538074037889
 20
120.1171162281834
 10
105.05992287857671
 20
121.30145662949685
 10
105.24564389777905
 20
122.40395728846559
 10
107.0299338648714
 20
123.62719451538992
 10
108.72719784620422
 20
123.84921923849572
 10
109.6219359514578
 20
124.26085466336492
 10
113.22292990698493
 20
124.20753925980151
 10
116.12916894585143
 20
123.74518155307626
 10
118.44453434491493
 20
122.57510332115346
 10
118.75747473634135
 20
121.57907706074971
 10
118.47824492711102
 20
119.97532186944485
 10
118.88858379112654
 20
119.18057535848777
 10
122.38699303064978
 20
119.32594658266365
 10
124.07907076856782
 20
119.94793768295537
 10
125.35821652076297
 20
121.56465848279716
 10
123.84148731521768
 20
122.845100795846
 10
122.71305543917504
 20
125.03065370097802
 10
123.50520882842473
 20
125.64097575358646
 10
125.99203307729988
 20
126.67330571789373
 10
127.59449170775102
 20
126.4940675029599
 10
128.9878912236333
 20
127.01217732639404
 10
130.7890364818237
 20
126.93552382746411
 10
133.296605704358
 20
126.3679882830276
 10
135.5106829482713
 20
125.29660508454758
 10
136.62485265492327
 20
124.21095971667691
 10
136.84298769546803
 20
122.81367051823354
 10
135.97029112472725
 20
120.70217799032409
 10
135.9871464158253
 20
119.4022872644698
 10
136.69746006273027
 20
118.6114304360738
 10
137.99346110602346
 20
118.92826051006132
 10
141.60223442667277
 20
118.27499554071899
 10
143.2124724222461
 20
117.49580776000623
 10
145.01750736299758
 20
117.11917947818684
 10
149.14439050708103
 20
115.07251499296221
 10
151.06108608981228
 20
113.79725892332814
 10
154.60617152006859
 20
110.34293275283055
 10
156.75137463017413
 20
106.87045473038124
 10
157.78240803362766
 20
104.48362207580257
 10
158.32126283072097
 20
101.49035705117653
 10
158.13943149407973
 20
100.08788160931837
 10
157.44986282083394
 20
99.27887292897061
 10
156.74862509990484
 20
99.36978859729123
 10
155.842217946968
 20
99.8580775210904
 10
155.43187908295252
 20
100.65282403204746
 10
154.9267348680553
 20
101.04630760496494
 10
152.6217419558214
 20
101.41645308251586
 10
151.6971829509328
 20
103.3046243264658
 10
149.20257933693546
 20
102.87224392793743
 10
147.68455357053648
 20
104.2526778352828
 10
146.78592578272182
 20
104.14101719330304
 10
145.89767048173672
 20
103.22942379695141
 10
144.89905109962558
 20
103.11646659411797
 10
143.38750813749505
 20
103.99694252998088
 10
142.68886353827335
 20
103.88787500970855
 10
141.81746352838633
 20
101.6763908875026
 10
140.32018273564645
 20
101.45695928610421
 10
138.51644435574863
 20
101.73359597362713
 10
137.92816383765302
 20
100.82589225983659
 10
138.04371416219385
 20
99.62728968913248
 10
137.76318779210982
 20
98.12352609212414
 10
136.27109324278473
 20
97.50412811353979
 10
132.8661927932895
 20
97.86001142170007
 10
132.37920043034404
 20
96.85361267446673
 10
132.50641980256813
 20
94.75508575509427
 10
132.1207155947729
 20
93.64999197441816
 10
128.0223567894707
 20
93.49684138512013
 10
127.63016977740695
 20
92.89170557592645
 10
127.63665258167543
 20
92.39174760444403
 10
128.2469746342839
 20
91.59959421519434
 10
128.561211586564
 20
90.5035763604941
 10
128.2780920947726
 20
89.19979595207872
 10
126.28733613481879
 20
88.4739235749294
 10
125.49518274556911
 20
87.86360152232093
 10
125.80941969784922
 20
86.7675836676207
 10
127.3339282685167
 20
84.88719178879293
 10
127.55465643076882
 20
83.28991940175658
 10
126.56900265719464
 20
82.1770462559583
 10
125.17560314131234
 20
81.65893643252414
 10
124.38344975206265
 20
81.04861437991566
 10
124.49640695489606
 20
80.04999499780453
 10
125.52355067578853
 20
77.96313712611531
 10
125.84427043233714
 20
76.36716129993266
 10
124.55993843672718
 20
75.15040687727681
 10
122.66398782765509
 20
74.82579743816711
 10
121.66277532383656
 20
74.91282342392665
 10
120.06939261936127
 20
74.39212047878509
 10
119.57721401300103
 20
73.78568810873772
 10
119.10578038029992
 20
71.57939022994657
 10
118.4213979504689
 20
70.37041517241289
 10
117.62535487865811
 20
70.06006790269387
 10
116.12288784250345
 20
70.2406026784814
 10
114.70744679210831
 20
71.42234995808747
 10
113.20238663424627
 20
71.80286792246797
 10
111.50252953120605
 20
71.78082638795513
 10
109.11310375492
 20
70.94977617309453
 10
108.11318781195516
 20
70.93681056455759
 10
106.10428000004958
 20
71.61082050755905
 10
102.66437240750459
 20
74.66647686172439
 10
97.36222478808352
 20
74.79774232507147
 10
95.85586806936779
 20
75.27825188374845
  0
LWPOLYLINE
  5
34
330
17
100
AcDbEntity
  8
TOPPERS_CUT
100
AcDbPolyline
 90
162
 70
1
 10
90.67036563442078
 20
128.1154600281722
 10
90.45612027643715
 20
129.21277444372615
 10
90.64313785649315
 20
130.21528350839836
 10
91.81062296670856
 20
132.73063209605482
 10
92.79498017942906
 20
133.9434968361496
 10
93.18068438722433
 20
135.04859061682572
 10
95.23901792013223
 20
138.27554941224082
 10
95.6247221279275
 20
139.38064319291692
 10
95.61694276280532
 20
139.98059275869582
 10
95.10012950022487
 20
141.27400068028163
 10
93.88207851671531
 20
142.65832427018807
 10
93.07955264063604
 20
142.84793497195147
 10
92.0809332585249
 20
142.73497776911802
 10
90.4966264800255
 20
141.51433366390106
 10
89.78890595482794
 20
142.1052073037041
 10
89.27468581395486
 20
143.19863203669695
 10
89.15783892856032
 20
144.49722620169752
 10
90.42142595051112
 20
147.31384613309712
 10
91.80834266212494
 20
148.33191392801373
 10
93.69781046692857
 20
149.15648133860583
 10
94.4847776127635
 20
150.16676976840023
 10
94.16924409962968
 20
151.36277921739696
 10
92.02404098952415
 20
154.83525723984627
 10
91.09818542378187
 20
156.8234200780927
 10
91.07355076756166
 20
158.7232603697259
 10
91.74885727141682
 20
160.63217658733498
 10
92.53452785639804
 20
161.74245661142587
 10
94.01624991889355
 20
163.16178734438208
 10
96.70435391721534
 20
164.09671883610022
 10
97.30689660470165
 20
163.90451501262945
 10
99.90408493470285
 20
164.13820878341852
 10
100.49755169621326
 20
164.6459461200231
 10
100.77418838373617
 20
166.4496844999209
 10
100.65474837663427
 20
167.94826185351445
 10
101.44301208332288
 20
168.8585586890124
 10
100.43531677523586
 20
169.44554264625432
 10
99.2159692308726
 20
170.92985783045725
 10
98.48231748860113
 20
173.52056335618994
 10
98.25121683951944
 20
175.9177684975982
 10
98.4226756893311
 20
178.12017669382823
 10
98.98632155120652
 20
180.92772069925195
 10
100.24861201230362
 20
183.84433222494803
 10
101.43813865703186
 20
184.65982370956425
 10
103.0393007266293
 20
184.5805770889269
 10
104.14309794645173
 20
184.29486447542814
 10
104.64824216134892
 20
183.90138090251068
 10
105.94294664378845
 20
184.31820257079465
 10
106.3325405341448
 20
185.1233215685813
 10
106.7415828373066
 20
184.4285666519207
 10
107.14284577534625
 20
184.33376130103903
 10
107.34023584223182
 20
184.53633761133935
 10
107.42855838884502
 20
185.43755852086142
 10
106.91563480882564
 20
186.43099165955778
 10
106.58972880886226
 20
188.42693386292638
 10
106.57157695691053
 20
189.82681618307714
 10
107.16245059671357
 20
190.53453670827471
 10
108.45456195744569
 20
191.15134156515165
 10
110.9478690105893
 20
191.6837135579765
 10
111.85297960267243
 20
191.2954162284738
 10
112.85419210649097
 20
191.2083902427143
 10
114.46443010206428
 20
190.42920246200157
 10
115.07734527638017
 20
189.4370658841589
 10
116.3953878541862
 20
188.05403885510617
 10
116.60315040790132
 20
187.45668241103465
 10
117.10699806194484
 20
187.1631904324137
 10
117.70046482345526
 20
187.67092776901828
 10
118.60557541553842
 20
187.2826304395156
 10
119.3977288047881
 20
187.89295249212407
 10
120.20284780257478
 20
187.5033586017677
 10
120.40023786946033
 20
187.70593491206807
 10
120.0924837214487
 20
188.3019947952859
 10
120.18469595062302
 20
188.9032409219185
 10
120.59373825378484
 20
188.2084860052579
 10
121.2949759747139
 20
188.11757033693726
 10
122.00269649991148
 20
187.52669669713424
 10
122.19490032338226
 20
188.12923938462055
 10
123.18185065781014
 20
189.14212093612235
 10
124.57265705198506
 20
189.86021394814946
 10
127.56851519831851
 20
190.1990855566498
 10
130.07478785999905
 20
189.73154160650978
 10
130.9798984520822
 20
189.34324427700713
 10
132.26293388683845
 20
190.65999029395945
 10
133.3537654981239
 20
191.3741936234255
 10
137.35213270912956
 20
191.52604765186985
 10
139.16235389329586
 20
190.7494529928645
 10
140.3829979985128
 20
189.16514621436508
 10
140.6985315116466
 20
187.96913676536838
 10
141.39053689803794
 20
180.87751293544017
 10
142.01641768089075
 20
178.8854604146327
 10
142.52285845664167
 20
178.39198524741875
 10
143.21761337330227
 20
178.80102755058056
 10
144.89413238097595
 20
180.62291778243008
 10
148.07830466821912
 20
181.86430686130618
 10
150.07813655414878
 20
181.8902380783801
 10
151.48190855686065
 20
181.60841514744237
 10
152.98956183643008
 20
181.02791399446892
 10
154.5049944811217
 20
179.84746327571656
 10
155.21790124973404
 20
178.85662325872758
 10
156.2502312140413
 20
176.36979900985244
 10
157.56438410928624
 20
175.2867467636892
 10
158.89150261306813
 20
173.20377857456106
 10
159.02390822870703
 20
170.70528527800266
 10
158.23694108287214
 20
169.69499684820826
 10
156.6228134047377
 20
170.77415941181044
 10
155.72677873863046
 20
170.4625155812377
 10
155.03591350453092
 20
169.75349849518645
 10
154.55410738500026
 20
168.3471333707672
 10
154.61893542768507
 20
163.34755365594302
 10
154.24490026757306
 20
161.3425355265985
 10
153.17481362994673
 20
159.02846668838873
 10
151.7930831617477
 20
157.6104325162862
 10
150.60485307787317
 20
156.6949494373735
 10
148.4167070510338
 20
155.76650074992386
 10
145.0195859666607
 20
155.5224344923052
 10
143.41453421450217
 20
155.901655895832
 10
141.10176193714608
 20
156.8717509391618
 10
140.0927700682054
 20
157.55872649070028
 10
137.76054937804383
 20
160.02869544847735
 10
136.96061662367197
 20
160.01832296164778
 10
132.1765788276851
 20
158.75618890911258
 10
130.47412860293747
 20
158.9341305631927
 10
130.08064503001998
 20
158.4289863482955
 10
129.8910343282566
 20
157.62646047221622
 10
130.70263613031176
 20
156.73690861037744
 10
131.52590698005014
 20
154.94743239987028
 10
131.64664354800578
 20
153.34886345198026
 10
131.36611717792178
 20
151.84509985497192
 10
130.56488786269617
 20
151.9347189624388
 10
129.9571589317951
 20
152.52688916309552
 10
129.255921210866
 20
152.61780483141615
 10
128.85725139453376
 20
152.51262699370488
 10
128.06898768784518
 20
151.60233015820694
 10
127.67939379748881
 20
150.79721116042032
 10
127.80272348715182
 20
148.99865902393728
 10
127.35851763237831
 20
144.69253766492
 10
125.99882869869211
 20
141.57464638977723
 10
124.12621618498656
 20
139.45018825333085
 10
121.64717130123358
 20
137.8179087232447
 10
119.4564321526868
 20
137.089443224388
 10
118.6668718851445
 20
136.27913798318656
 10
116.78259032375567
 20
135.05460419540853
 10
114.29057983146575
 20
134.4222406082872
 10
113.39713828706586
 20
133.9106135891215
 10
112.79718872128694
 20
133.90283422399938
 10
111.52322921250659
 20
131.88614704697162
 10
109.64024421197144
 20
130.5616216648971
 10
109.03899808533883
 20
130.6538338940714
 10
108.03000621639812
 20
131.34080944560984
 10
106.91065026633134
 20
132.82642119066645
 10
106.11331063366688
 20
132.61606551524392
 10
105.32375036612457
 20
131.80576027404248
 10
104.03034244453875
 20
131.28894701146197
 10
103.02912994072021
 20
131.3759729972215
 10
102.72526547526968
 20
131.6720580975499
 10
102.19807972585964
 20
133.76539877350757
 10
101.28907945121541
 20
134.45367088589973
 10
100.38915510254705
 20
134.44200183821644
 10
98.01269493479796
 20
132.611035680391
 10
97.12573619466657
 20
131.59945068974292
 10
94.54669971661713
 20
129.96587459880305
 10
93.95582607681409
 20
129.2581540736055
 10
92.17023954886804
 20
128.13490844097765
  0
LWPOLYLINE
  5
35
330
17
100
AcDbEntity
  8
TOPPERS_CUT
100
AcDbPolyline
 90
103
 70
1
 10
35.713885596965426
 20
124.40260372974483
 10
33.98420759429019
 20
126.68036886405113
 10
32.479147436428136
 20
127.06088682843165
 10
31.666249073519303
 20
128.05043028456691
 10
30.076756051605127
 20
127.22975255653589
 10
29.176831702936774
 20
127.21808350885264
 10
28.852222263827098
 20
129.11403411792475
 10
28.34578148807619
 20
129.6075092851387
 10
27.24587395081487
 20
129.59324711574803
 10
27.52899344260627
 20
130.8970275241634
 10
27.413443118065437
 20
132.09563009486754
 10
24.777357962453358
 20
134.861684152973
 10
23.23988378324891
 20
137.74199197476557
 10
22.39586795985137
 20
141.13133369401646
 10
22.58288553990738
 20
142.1338427586887
 10
22.449183363414797
 20
144.7323276495436
 10
22.0362513776919
 20
145.72705734909363
 10
19.90790355868442
 20
147.89964464568868
 10
19.180734620681413
 20
149.99039219993898
 10
19.556066341647124
 20
151.89541873498698
 10
20.7339239386921
 20
153.61083456827154
 10
21.11573846392629
 20
155.0159031318371
 10
18.98609408406512
 20
157.2884820227286
 10
18.774441847788886
 20
158.18581324968957
 10
18.847205664157748
 20
160.28693329076944
 10
20.223749888942
 20
162.10493384005787
 10
20.395208738753656
 20
164.30734203628793
 10
19.98875955729924
 20
164.8021137643556
 10
18.78108106061925
 20
165.38650459989012
 10
18.065581170299513
 20
166.57732780547207
 10
18.75126016098424
 20
167.68631126870926
 10
20.14725279857393
 20
168.00443790355047
 10
20.635541722373087
 20
168.9108450564873
 10
20.229092540918668
 20
169.40561678455495
 10
20.018736865496134
 20
170.2029564172194
 10
16.459389265849175
 20
174.7571901249783
 10
13.803855697431658
 20
179.02311809753104
 10
12.466364706820176
 20
181.90601904103102
 10
11.940475518263835
 20
183.89936812269224
 10
12.024908382315965
 20
185.10056381510373
 10
13.311833499633298
 20
186.1173350491666
 10
14.194902557203605
 20
187.4288948227042
 10
16.27916730718542
 20
188.6560217321896
 10
17.672566823067715
 20
189.17413155562377
 10
20.66712840854745
 20
189.6129947584206
 10
22.655291246793873
 20
190.53885032416287
 10
24.74733536189786
 20
191.1660276678694
 10
26.744574126120153
 20
191.39194207353626
 10
30.646839425390418
 20
191.24252475823747
 10
34.73352918300931
 20
192.29559969620385
 10
38.334523138536426
 20
192.24228429264042
 10
42.14587276948609
 20
191.3916292564125
 10
43.84313675081893
 20
191.6136539795183
 10
47.345435672903264
 20
191.4590504208047
 10
51.26325970241787
 20
190.10973397394807
 10
55.474575710553474
 20
189.26426518113493
 10
57.086110266980484
 20
188.38508580612572
 10
58.200279973632476
 20
187.29944043825506
 10
58.81319514794833
 20
186.3073038604124
 10
59.72219542259256
 20
185.6190317480203
 10
59.8390423079871
 20
184.32043758301967
 10
58.787107522312525
 20
180.60648642465912
 10
57.23002852174075
 20
177.28601883921598
 10
55.56647512260402
 20
174.4642126644016
 10
53.11076833421758
 20
171.03208443697875
 10
52.43157214780133
 20
169.42314300225914
 10
53.245767071563854
 20
168.33360795182736
 10
54.04440326508203
 20
168.44397203295344
 10
54.848225702014986
 20
168.15436973689353
 10
55.05728481658383
 20
167.45702169852555
 10
54.86767411482043
 20
166.65449582244628
 10
53.979418813835345
 20
165.74290242609467
 10
53.084680708581764
 20
165.33126700122546
 10
52.49251050792505
 20
164.7235380703244
 10
53.53650951991555
 20
161.33678947278088
 10
54.8519589760142
 20
160.15374563232112
 10
55.467467272037446
 20
158.96162586588548
 10
55.293415300518404
 20
156.9592008582484
 10
54.41293936465549
 20
155.44765789611787
 10
52.83381882957089
 20
153.82704741371498
 10
52.74679284381135
 20
152.82583490989646
 10
53.78301249067969
 20
150.03903587813187
 10
53.51026548571785
 20
147.93532271534463
 10
52.72718802244403
 20
146.62505950266078
 10
51.24546595994851
 20
145.20572876970454
 10
50.4597953749673
 20
144.09544874561362
 10
50.207793343664605
 20
140.39187007408265
 10
49.73895283267088
 20
137.98558900669855
 10
47.88449217091705
 20
134.4612485501014
 10
46.305371635832444
 20
132.8406380676985
 10
44.81975989077584
 20
131.72128211763174
 10
44.62885262815875
 20
131.01874783584896
 10
44.74569951355328
 20
129.72015367084833
 10
44.648301040964185
 20
129.5188739214017
 10
43.9457667591814
 20
129.7097811840188
 10
43.55098662541025
 20
129.30462856341808
 10
42.28739960345945
 20
126.48800863201845
 10
40.77456008047523
 20
127.46847616217788
 10
39.87463573180687
 20
127.45680711449461
 10
38.986380430821775
 20
126.54521371814299
 10
38.182557993888814
 20
126.83481601420286
 10
36.89692943742518
 20
125.7180531858435
 10
36.41253019618712
 20
124.5116712500172
  0
LWPOLYLINE
  5
36
330
17
100
AcDbEntity
  8
TOPPERS_CUT
100
AcDbPolyline
 90
85
 70
1
 10
-2.3290160845426398
 20
220.01739145450583
 10
-2.445706561375286
 20
229.01663494118944
 10
-3.5715453157105324
 20
231.0022046577284
 10
-3.7065440530568097
 20
233.70068114287977
 10
-3.426017682972799
 20
235.20444473988817
 10
-1.7365330667621381
 20
236.0264190287729
 10
0.8645449458001437
 20
235.9601380166725
 10
3.1617584929118845
 20
236.18994210490047
 10
3.5552420658293413
 20
236.69508631979767
 10
3.931870347648748
 20
238.50012126054918
 10
4.9071516343933625
 20
240.4129271607193
 10
6.483679047770579
 20
242.23352083171517
 10
7.9705873536808785
 20
243.25288518748545
 10
10.861267662303046
 20
243.99042661231806
 10
12.361141576750306
 20
244.00987502512348
 10
15.972508019106996
 20
243.1566268671882
 10
18.5995172487432
 20
241.0905139691581
 10
20.031813590236375
 20
238.6088759636977
 10
20.55121997452424
 20
237.11548485351895
 10
21.056364189421444
 20
236.72200128060155
 10
26.95586825291401
 20
236.79849837096958
 10
27.95319107417145
 20
237.0114471680995
 10
29.355666516029622
 20
236.82961583145828
 10
30.162082074669975
 20
236.34003034680546
 10
31.464565922231664
 20
236.1569024493105
 10
33.15664366014971
 20
236.77889354960226
 10
44.257007187913146
 20
236.82282021006603
 10
45.86465206177906
 20
236.24361561794626
 10
46.85808520047543
 20
236.75653919796565
 10
47.42562074491193
 20
239.2641084204999
 10
47.91909591212586
 20
239.77054919625084
 10
48.79697872628139
 20
241.48207534697434
 10
50.67348092254806
 20
243.3065587005313
 10
53.36158492086986
 20
244.24149019224942
 10
57.06127390983977
 20
244.28946294383618
 10
59.168876755188116
 20
243.7167411559849
 10
60.884292588472704
 20
242.53888355893992
 10
62.61137746944055
 20
240.4611016132266
 10
63.855359670024015
 20
237.0769461373905
 10
64.36309700662862
 20
236.48347937588
 10
66.27979258935986
 20
235.20822330624597
 10
68.68088741332919
 20
235.1393491724382
 10
69.38860793852675
 20
234.54847553263517
 10
69.60285329651036
 20
233.45116111708126
 10
69.43398756840611
 20
231.0487697322582
 10
68.7444188951603
 20
230.23976105191045
 10
68.0496639784997
 20
229.83071874874867
 10
67.58212002835967
 20
227.32444608706805
 10
68.09893329094014
 20
226.03103816548227
 10
69.00663700473066
 20
225.44275764738663
 10
71.54013744433885
 20
222.87539021702045
 10
72.1608319837769
 20
221.2833040733989
 10
72.18417007914343
 20
219.48345537606218
 10
70.63471403513195
 20
207.86238890315718
 10
71.64889214748743
 20
206.7754469744328
 10
71.75406998519871
 20
206.3767771581006
 10
71.69556833822051
 20
203.1757495797594
 10
70.80212679382063
 20
202.66412256059374
 10
70.10348219459893
 20
202.55505504032138
 10
37.10495951590549
 20
202.22718155289814
 10
35.41158521713375
 20
201.7051820469029
 10
34.52462647700236
 20
200.6935970562548
 10
32.961064672162095
 20
197.8730874422941
 10
32.172800965473485
 20
196.96279060679618
 10
30.680706416148404
 20
196.34339262821183
 10
27.782246742404062
 20
196.20580076915817
 10
19.981605826424605
 20
196.20466061686636
 10
19.175190267784256
 20
196.6942461015192
 10
18.94408961870258
 20
199.09145124292743
 10
19.932336513984158
 20
200.00434120013273
 10
21.632193617024384
 20
200.02638273464555
 10
22.328245094538683
 20
200.3354334435109
 10
21.924389034791663
 20
200.63022198298557
 10
20.018065938889983
 20
201.10554529824776
 10
19.71290491258575
 20
201.5016219928726
 10
14.813316792058028
 20
201.4380905110415
 10
13.308256634195981
 20
201.818608475422
 10
11.999289982365816
 20
202.50169434439937
 10
10.879934032299053
 20
203.98730608945596
 10
6.738945127386818
 20
214.83452743362486
 10
5.929936447039073
 20
215.52409610687064
 10
1.0199758396817848
 20
216.26049737941145
 10
-0.6902537501880126
 20
217.0383885992705
 10
-1.4979658696820615
 20
217.62796567821982
 10
-2.0108894497014425
 20
218.62139881691618
  0
LWPOLYLINE
  5
37
330
17
100
AcDbEntity
  8
TOPPERS_CUT
100
AcDbPolyline
 90
138
 70
1
 10
109.89868375518401
 20
195.47042853270594
 10
107.78330154471348
 20
196.6430998863361
 10
104.54078401905403
 20
199.9013325508018
 10
102.12283390398666
 20
201.27009741046388
 10
100.80608788703432
 20
202.55313284522012
 10
99.4789693832524
 20
204.63610103434826
 10
99.2660205861225
 20
205.6334238556057
 10
99.43099663166566
 20
208.3357900233181
 10
100.01538746720021
 20
209.54346851999813
 10
101.49321984713463
 20
211.26277403584376
 10
102.17371259440459
 20
212.77172387626692
 10
101.54783181155176
 20
214.7637763970744
 10
99.3220855199552
 20
216.7350839442228
 10
97.93646536919508
 20
215.61702455500972
 10
96.8845305835205
 20
211.90307339664915
 10
96.1923687885673
 20
211.2940479048944
 10
95.28855475733785
 20
211.58235364010056
 10
93.70295141798476
 20
210.4617011291801
 10
92.80562019102379
 20
210.25004889290386
 10
91.49535697833993
 20
211.03312635617766
 10
90.98761964173534
 20
211.62659311768812
 10
90.67467925030893
 20
212.62261937809188
 10
90.65782395921087
 20
213.92251010394617
 10
93.7199631176447
 20
216.8624597250088
 10
94.81079472893015
 20
217.57666305447484
 10
95.39648212531839
 20
218.68434995685834
 10
96.28344086544979
 20
219.69593494750643
 10
96.76784010668786
 20
220.90231688333273
 10
98.0508755414441
 20
222.21906290028505
 10
99.02874994989611
 20
223.93188561186224
 10
99.11966561821671
 20
224.63312333279137
 10
98.40416572789698
 20
225.82394653837326
 10
97.40424978493215
 20
225.8109809298363
 10
96.80818990171431
 20
225.5032267818247
 10
95.9926984170981
 20
226.6927534265529
 10
96.37710606403968
 20
227.8978388015255
 10
97.46145487105665
 20
229.11200010247398
 10
96.74076873732211
 20
230.70278968524184
 10
96.7161340811019
 20
232.60262997687505
 10
97.40051651093293
 20
233.81160503440873
 10
98.28877181191804
 20
234.7231984307604
 10
99.78216292209682
 20
235.2426048150482
 10
102.37805469124432
 20
235.57629018013375
 10
103.56758133597255
 20
236.39178166475
 10
104.54156606186345
 20
238.40457915921667
 10
105.82460149661969
 20
239.72132517616896
 10
106.18826416990214
 20
242.52627605988528
 10
106.76487564031451
 20
244.33390412234422
 10
107.93625043309103
 20
246.54927792711118
 10
110.0049564528285
 20
248.97630396815447
 10
112.974883382088
 20
251.31500746258445
 10
118.64847303991367
 20
253.38874331717483
 10
120.84310187102153
 20
253.81723403314203
 10
124.24151951624829
 20
253.96130869646422
 10
127.04387727825724
 20
253.79762921177476
 10
132.96412631540892
 20
252.27426079339907
 10
136.28718702255944
 20
250.51719860423432
 10
137.80132310639735
 20
249.4367394797784
 10
141.2464169423572
 20
245.98111674842716
 10
143.49290820761289
 20
242.40994369253502
 10
145.0524239213302
 20
237.82977876770224
 10
145.96661043938917
 20
236.74154027812415
 10
146.77302599802954
 20
236.2519547934713
 10
148.27808615589157
 20
235.8714368290908
 10
153.1828605198341
 20
235.53500193373603
 10
155.69691254663684
 20
234.4675084178171
 10
157.41232837992143
 20
233.28965082077207
 10
159.03942166659277
 20
231.21057231420505
 10
160.28470042802996
 20
227.72642524407246
 10
160.4352578956206
 20
223.82804962736327
 10
159.77680668286348
 20
220.61924268389993
 10
159.09112769217876
 20
219.51025922066273
 10
158.38340716698116
 20
220.10113286046575
 10
157.96788205955087
 20
221.29584574860877
 10
156.33560252946475
 20
223.77489063236172
 10
151.00622713211607
 20
226.005979575935
 10
149.90372647314734
 20
226.19170059513732
 10
149.11416620560504
 20
225.3813953539359
 10
149.1323180575568
 20
223.9815130337851
 10
148.76217258000588
 20
221.67652012155116
 10
147.22454199223952
 20
216.85617862166083
 10
147.15307473672436
 20
214.65506698628442
 10
147.8828367964348
 20
212.36433624344122
 10
147.89709896582542
 20
211.2644287061799
 10
146.28686097025212
 20
212.0436164868926
 10
144.671436731264
 20
213.22277064479127
 10
142.7443686617032
 20
215.29795946879716
 10
141.2133772867672
 20
217.6783093191074
 10
140.28233547761016
 20
220.06643853453974
 10
139.9629122819153
 20
221.56242276642593
 10
139.8305066662764
 20
224.06091606298432
 10
140.20454182638838
 20
226.06593419232883
 10
140.9707639985642
 20
228.67608813086696
 10
141.6577395501026
 20
229.68507999980767
 10
142.81225905178107
 20
233.20034453042894
 10
142.39673394435076
 20
234.39505741857198
 10
140.15413236165614
 20
237.66625569157463
 10
137.92708950920587
 20
239.7375548330195
 10
135.91169889303185
 20
240.9115227475034
 10
134.40404561346242
 20
241.49202390047685
 10
133.40283310964386
 20
241.57904988623636
 10
132.02758544571333
 20
239.66105774265142
 10
129.74463406799225
 20
238.3313461171621
 10
129.34985393422107
 20
237.92619349656138
 10
129.25764170504678
 20
237.32494736992876
 10
129.66409088650119
 20
236.83017564186116
 10
131.07434569348155
 20
236.04839473944102
 10
134.08057632664455
 20
235.58733359356947
 10
135.79339903822174
 20
234.6094591851175
 10
136.11282223391663
 20
233.1134749532313
 10
135.31418604039845
 20
233.00311087210525
 10
134.52851545541722
 20
231.89283084801437
 10
135.03754935287552
 20
231.19937249220743
 10
135.66861637914312
 20
228.80735359421402
 10
136.17765027660144
 20
228.11389523840708
 10
136.9762864701196
 20
228.22425931953313
 10
137.9904645824751
 20
227.13731739080882
 10
138.40080344649058
 20
226.3425708798517
 10
138.51635377103145
 20
225.14396830914762
 10
137.15536827649154
 20
222.12606862830134
 10
134.78928059557202
 20
219.49516971610404
 10
134.30488135433396
 20
218.28878778027774
 10
134.32692288884678
 20
216.58893067723753
 10
135.48128598196337
 20
212.40354588617583
 10
135.5020309556225
 20
210.8036803774321
 10
134.44490992653314
 20
207.4896955962575
 10
132.77357716227422
 20
205.267838987222
 10
131.2892619780713
 20
204.04849144285876
 10
130.51915012333444
 20
201.73831228721005
 10
129.8347676935034
 20
200.52933722967637
 10
128.84911391992924
 20
199.4164640838781
 10
126.8648407642439
 20
198.19063373524634
 10
124.76890696657884
 20
197.8634311744293
 10
123.88065166559372
 20
196.95183777807767
 10
121.9963701042049
 20
195.72730399029965
 10
120.30299580543313
 20
195.20530448430438
 10
115.60987367776686
 20
194.64440815269825
 10
111.90759156708955
 20
194.79641858970444
  0
ENDSEC
  0
SECTION
  2
OBJECTS
  0
DICTIONARY
  5
A
330
0
100
AcDbDictionary
281
1
  3
ACAD_COLOR
350
B
  3
ACAD_GROUP
350
C
  3
ACAD_LAYOUT
350
D
  3
ACAD_MATERIAL
350
E
  3
ACAD_MLEADERSTYLE
350
F
  3
ACAD_MLINESTYLE
350
10
  3
ACAD_PLOTSETTINGS
350
11
  3
ACAD_PLOTSTYLENAME
350
12
  3
ACAD_SCALELIST
350
14
  3
ACAD_TABLESTYLE
350
15
  3
ACAD_VISUALSTYLE
350
16
  3
EZDXF_META
350
2D
  0
DICTIONARY
  5
B
330
A
100
AcDbDictionary
281
1
  0
DICTIONARY
  5
C
330
A
100
AcDbDictionary
281
1
  0
DICTIONARY
  5
D
330
A
100
AcDbDictionary
281
1
  3
Model
350
1A
  3
Layout1
350
1E
  0
DICTIONARY
  5
E
330
A
100
AcDbDictionary
281
1
  3
ByBlock
350
1F
  3
ByLayer
350
20
  3
Global
350
21
  0
DICTIONARY
  5
F
330
A
100
AcDbDictionary
281
1
  3
Standard
350
2C
  0
DICTIONARY
  5
10
330
A
100
AcDbDictionary
281
1
  3
Standard
350
22
  0
DICTIONARY
  5
11
330
A
100
AcDbDictionary
281
1
  0
ACDBDICTIONARYWDFLT
  5
12
330
A
100
AcDbDictionary
281
1
  3
Normal
350
13
100
AcDbDictionaryWithDefault
340
13
  0
ACDBPLACEHOLDER
  5
13
330
12
  0
DICTIONARY
  5
14
330
A
100
AcDbDictionary
281
1
  0
DICTIONARY
  5
15
330
A
100
AcDbDictionary
281
1
  0
DICTIONARY
  5
16
330
A
100
AcDbDictionary
281
1
  0
LAYOUT
  5
1A
330
D
100
AcDbPlotSettings
  1

  4
A3
  6

 40
7.5
 41
20.0
 42
7.5
 43
20.0
 44
420.0
 45
297.0
 46
0.0
 47
0.0
 48
0.0
 49
0.0
140
0.0
141
0.0
142
1.0
143
1.0
 70
1024
 72
1
 73
0
 74
5
  7

 75
16
 76
0
 77
2
 78
300
147
1.0
148
0.0
149
0.0
100
AcDbLayout
  1
Model
 70
1
 71
0
 10
0.0
 20
0.0
 11
420.0
 21
297.0
 12
0.0
 22
0.0
 32
0.0
 14
1e+20
 24
1e+20
 34
1e+20
 15
-1e+20
 25
-1e+20
 35
-1e+20
146
0.0
 13
0.0
 23
0.0
 33
0.0
 16
1.0
 26
0.0
 36
0.0
 17
0.0
 27
1.0
 37
0.0
 76
1
330
17
  0
LAYOUT
  5
1E
330
D
100
AcDbPlotSettings
  1

  4
A3
  6

 40
7.5
 41
20.0
 42
7.5
 43
20.0
 44
420.0
 45
297.0
 46
0.0
 47
0.0
 48
0.0
 49
0.0
140
0.0
141
0.0
142
1.0
143
1.0
 70
0
 72
1
 73
0
 74
5
  7

 75
16
 76
0
 77
2
 78
300
147
1.0
148
0.0
149
0.0
100
AcDbLayout
  1
Layout1
 70
1
 71
1
 10
0.0
 20
0.0
 11
420.0
 21
297.0
 12
0.0
 22
0.0
 32
0.0
 14
1e+20
 24
1e+20
 34
1e+20
 15
-1e+20
 25
-1e+20
 35
-1e+20
146
0.0
 13
0.0
 23
0.0
 33
0.0
 16
1.0
 26
0.0
 36
0.0
 17
0.0
 27
1.0
 37
0.0
 76
1
330
1B
  0
MATERIAL
  5
1F
102
{ACAD_REACTORS
330
E
102
}
330
E
100
AcDbMaterial
  1
ByBlock
  2

 70
0
 40
1.0
 71
1
 41
1.0
 91
-1023410177
 42
1.0
 72
1
  3

 73
1
 74
1
 75
1
 44
0.5
 73
0
 45
1.0
 46
1.0
 77
1
  4

 78
1
 79
1
170
1
 48
1.0
171
1
  6

172
1
173
1
174
1
140
1.0
141
1.0
175
1
  7

176
1
177
1
178
1
143
1.0
179
1
  8

270
1
271
1
272
1
145
1.0
146
1.0
273
1
  9

274
1
275
1
276
1
 42
1.0
 72
1
  3

 73
1
 74
1
 75
1
 94
63
  0
MATERIAL
  5
20
102
{ACAD_REACTORS
330
E
102
}
330
E
100
AcDbMaterial
  1
ByLayer
  2

 70
0
 40
1.0
 71
1
 41
1.0
 91
-1023410177
 42
1.0
 72
1
  3

 73
1
 74
1
 75
1
 44
0.5
 73
0
 45
1.0
 46
1.0
 77
1
  4

 78
1
 79
1
170
1
 48
1.0
171
1
  6

172
1
173
1
174
1
140
1.0
141
1.0
175
1
  7

176
1
177
1
178
1
143
1.0
179
1
  8

270
1
271
1
272
1
145
1.0
146
1.0
273
1
  9

274
1
275
1
276
1
 42
1.0
 72
1
  3

 73
1
 74
1
 75
1
 94
63
  0
MATERIAL
  5
21
102
{ACAD_REACTORS
330
E
102
}
330
E
100
AcDbMaterial
  1
Global
  2

 70
0
 40
1.0
 71
1
 41
1.0
 91
-1023410177
 42
1.0
 72
1
  3

 73
1
 74
1
 75
1
 44
0.5
 73
0
 45
1.0
 46
1.0
 77
1
  4

 78
1
 79
1
170
1
 48
1.0
171
1
  6

172
1
173
1
174
1
140
1.0
141
1.0
175
1
  7

176
1
177
1
178
1
143
1.0
179
1
  8

270
1
271
1
272
1
145
1.0
146
1.0
273
1
  9

274
1
275
1
276
1
 42
1.0
 72
1
  3

 73
1
 74
1
 75
1
 94
63
  0
MLINESTYLE
  5
22
102
{ACAD_REACTORS
330
10
102
}
330
10
100
AcDbMlineStyle
  2
Standard
 70
0
  3

 62
256
 51
90.0
 52
90.0
 71
2
 49
0.5
 62
256
  6
BYLAYER
 49
-0.5
 62
256
  6
BYLAYER
  0
MLEADERSTYLE
  5
2C
102
{ACAD_REACTORS
330
F
102
}
330
F
100
AcDbMLeaderStyle
179
2
170
2
171
1
172
0
 90
2
 40
0.0
 41
0.0
173
1
 91
-1056964608
 92
-2
290
1
 42
2.0
291
1
 43
8.0
  3
Standard
 44
4.0
300

342
29
174
1
175
1
176
0
178
1
 93
-1056964608
 45
4.0
292
0
297
0
 46
4.0
 94
-1056964608
 47
1.0
 49
1.0
140
1.0
294
1
141
0.0
177
0
142
1.0
295
0
296
0
143
3.75
271
0
272
9
273
9
  0
DICTIONARY
  5
2D
330
A
100
AcDbDictionary
280
1
281
1
  3
CREATED_BY_EZDXF
350
2E
  3
WRITTEN_BY_EZDXF
350
3A
  0
DICTIONARYVAR
  5
2E
330
2D
100
DictionaryVariables
280
0
  1
1.4.4 @ 2026-08-27T20:12:58.670451+00:00
  0
DICTIONARYVAR
  5
3A
330
2D
100
DictionaryVariables
280
0
  1
1.4.4 @ 2026-08-27T20:12:58.681494+00:00
  0
ENDSEC
  0
EOF
