  0
SECTION
  2
HEADER
  9
$ACADVER
  1
AC1024
  9
$ACADMAINTVER
 70
6
  9
$DWGCODEPAGE
  3
ANSI_1252
  9
$LASTSAVEDBY
  1
ezdxf
  9
$INSBASE
 10
0.0
 20
0.0
 30
0.0
  9
$EXTMIN
 10
1e+20
 20
1e+20
 30
1e+20
  9
$EXTMAX
 10
-1e+20
 20
-1e+20
 30
-1e+20
  9
$LIMMIN
 10
0.0
 20
0.0
  9
$LIMMAX
 10
420.0
 20
297.0
  9
$ORTHOMODE
 70
0
  9
$REGENMODE
 70
1
  9
$FILLMODE
 70
1
  9
$QTEXTMODE
 70
0
  9
$MIRRTEXT
 70
1
  9
$LTSCALE
 40
1.0
  9
$ATTMODE
 70
1
  9
$TEXTSIZE
 40
2.5
  9
$TRACEWID
 40
1.0
  9
$TEXTSTYLE
  7
Standard
  9
$CLAYER
  8
0
  9
$CELTYPE
  6
ByLayer
  9
$CECOLOR
 62
256
  9
$CELTSCALE
 40
1.0
  9
$DISPSILH
 70
0
  9
$DIMSCALE
 40
1.0
  9
$DIMASZ
 40
2.5
  9
$DIMEXO
 40
0.625
  9
$DIMDLI
 40
3.75
  9
$DIMRND
 40
0.0
  9
$DIMDLE
 40
0.0
  9
$DIMEXE
 40
1.25
  9
$DIMTP
 40
0.0
  9
$DIMTM
 40
0.0
  9
$DIMTXT
 40
2.5
  9
$DIMCEN
 40
2.5
  9
$DIMTSZ
 40
0.0
  9
$DIMTOL
 70
0
  9
$DIMLIM
 70
0
  9
$DIMTIH
 70
0
  9
$DIMTOH
 70
0
  9
$DIMSE1
 70
0
  9
$DIMSE2
 70
0
  9
$DIMTAD
 70
1
  9
$DIMZIN
 70
8
  9
$DIMBLK
  1

  9
$DIMASO
 70
1
  9
$DIMSHO
 70
1
  9
$DIMPOST
  1

  9
$DIMAPOST
  1

  9
$DIMALT
 70
0
  9
$DIMALTD
 70
3
  9
$DIMALTF
 40
0.03937007874
  9
$DIMLFAC
 40
1.0
  9
$DIMTOFL
 70
1
  9
$DIMTVP
 40
0.0
  9
$DIMTIX
 70
0
  9
$DIMSOXD
 70
0
  9
$DIMSAH
 70
0
  9
$DIMBLK1
  1

  9
$DIMBLK2
  1

  9
$DIMSTYLE
  2
ISO-25
  9
$DIMCLRD
 70
0
  9
$DIMCLRE
 70
0
  9
$DIMCLRT
 70
0
  9
$DIMTFAC
 40
1.0
  9
$DIMGAP
 40
0.625
  9
$DIMJUST
 70
0
  9
$DIMSD1
 70
0
  9
$DIMSD2
 70
0
  9
$DIMTOLJ
 70
0
  9
$DIMTZIN
 70
8
  9
$DIMALTZ
 70
0
  9
$DIMALTTZ
 70
0
  9
$DIMUPT
 70
0
  9
$DIMDEC
 70
2
  9
$DIMTDEC
 70
2
  9
$DIMALTU
 70
2
  9
$DIMALTTD
 70
3
  9
$DIMTXSTY
  7
Standard
  9
$DIMAUNIT
 70
0
  9
$DIMADEC
 70
0
  9
$DIMALTRND
 40
0.0
  9
$DIMAZIN
 70
0
  9
$DIMDSEP
 70
44
  9
$DIMATFIT
 70
3
  9
$DIMFRAC
 70
0
  9
$DIMLDRBLK
  1

  9
$DIMLUNIT
 70
2
  9
$DIMLWD
 70
-2
  9
$DIMLWE
 70
-2
  9
$DIMTMOVE
 70
0
  9
$DIMFXL
 40
1.0
  9
$DIMFXLON
 70
0
  9
$DIMJOGANG
 40
0.785398163397
  9
$DIMTFILL
 70
0
  9
$DIMTFILLCLR
 70
0
  9
$DIMARCSYM
 70
0
  9
$DIMLTYPE
  6

  9
$DIMLTEX1
  6

  9
$DIMLTEX2
  6

  9
$DIMTXTDIRECTION
 70
0
  9
$LUNITS
 70
2
  9
$LUPREC
 70
4
  9
$SKETCHINC
 40
1.0
  9
$FILLETRAD
 40
10.0
  9
$AUNITS
 70
0
  9
$AUPREC
 70
2
  9
$MENU
  1
.
  9
$ELEVATION
 40
0.0
  9
$PELEVATION
 40
0.0
  9
$THICKNESS
 40
0.0
  9
$LIMCHECK
 70
0
  9
$CHAMFERA
 40
0.0
  9
$CHAMFERB
 40
0.0
  9
$CHAMFERC
 40
0.0
  9
$CHAMFERD
 40
0.0
  9
$SKPOLY
 70
0
  9
$TDCREATE
 40
2461280.6341203703
  9
$TDUCREATE
 40
2458532.153996898
  9
$TDUPDATE
 40
2461280.6341203703
  9
$TDUUPDATE
 40
2458532.1544311
  9
$TDINDWG
 40
0.0
  9
$TDUSRTIMER
 40
0.0
  9
$USRTIMER
 70
1
  9
$ANGBASE
 50
0.0
  9
$ANGDIR
 70
0
  9
$PDMODE
 70
0
  9
$PDSIZE
 40
0.0
  9
$PLINEWID
 40
0.0
  9
$SPLFRAME
 70
0
  9
$SPLINETYPE
 70
6
  9
$SPLINESEGS
 70
8
  9
$HANDSEED
  5
3B
  9
$SURFTAB1
 70
6
  9
$SURFTAB2
 70
6
  9
$SURFTYPE
 70
6
  9
$SURFU
 70
6
  9
$SURFV
 70
6
  9
$UCSBASE
  2

  9
$UCSNAME
  2

  9
$UCSORG
 10
0.0
 20
0.0
 30
0.0
  9
$UCSXDIR
 10
1.0
 20
0.0
 30
0.0
  9
$UCSYDIR
 10
0.0
 20
1.0
 30
0.0
  9
$UCSORTHOREF
  2

  9
$UCSORTHOVIEW
 70
0
  9
$UCSORGTOP
 10
0.0
 20
0.0
 30
0.0
  9
$UCSORGBOTTOM
 10
0.0
 20
0.0
 30
0.0
  9
$UCSORGLEFT
 10
0.0
 20
0.0
 30
0.0
  9
$UCSORGRIGHT
 10
0.0
 20
0.0
 30
0.0
  9
$UCSORGFRONT
 10
0.0
 20
0.0
 30
0.0
  9
$UCSORGBACK
 10
0.0
 20
0.0
 30
0.0
  9
$PUCSBASE
  2

  9
$PUCSNAME
  2

  9
$PUCSORG
 10
0.0
 20
0.0
 30
0.0
  9
$PUCSXDIR
 10
1.0
 20
0.0
 30
0.0
  9
$PUCSYDIR
 10
0.0
 20
1.0
 30
0.0
  9
$PUCSORTHOREF
  2

  9
$PUCSORTHOVIEW
 70
0
  9
$PUCSORGTOP
 10
0.0
 20
0.0
 30
0.0
  9
$PUCSORGBOTTOM
 10
0.0
 20
0.0
 30
0.0
  9
$PUCSORGLEFT
 10
0.0
 20
0.0
 30
0.0
  9
$PUCSORGRIGHT
 10
0.0
 20
0.0
 30
0.0
  9
$PUCSORGFRONT
 10
0.0
 20
0.0
 30
0.0
  9
$PUCSORGBACK
 10
0.0
 20
0.0
 30
0.0
  9
$USERI1
 70
0
  9
$USERI2
 70
0
  9
$USERI3
 70
0
  9
$USERI4
 70
0
  9
$USERI5
 70
0
  9
$USERR1
 40
0.0
  9
$USERR2
 40
0.0
  9
$USERR3
 40
0.0
  9
$USERR4
 40
0.0
  9
$USERR5
 40
0.0
  9
$WORLDVIEW
 70
1
  9
$SHADEDGE
 70
3
  9
$SHADEDIF
 70
70
  9
$TILEMODE
 70
1
  9
$MAXACTVP
 70
64
  9
$PINSBASE
 10
0.0
 20
0.0
 30
0.0
  9
$PLIMCHECK
 70
0
  9
$PEXTMIN
 10
1e+20
 20
1e+20
 30
1e+20
  9
$PEXTMAX
 10
-1e+20
 20
-1e+20
 30
-1e+20
  9
$PLIMMIN
 10
0.0
 20
0.0
  9
$PLIMMAX
 10
420.0
 20
297.0
  9
$UNITMODE
 70
0
  9
$VISRETAIN
 70
1
  9
$PLINEGEN
 70
0
  9
$PSLTSCALE
 70
1
  9
$TREEDEPTH
 70
3020
  9
$CMLSTYLE
  2
Standard
  9
$CMLJUST
 70
0
  9
$CMLSCALE
 40
20.0
  9
$PROXYGRAPHICS
 70
1
  9
$MEASUREMENT
 70
1
  9
$CELWEIGHT
370
-1
  9
$ENDCAPS
280
0
  9
$JOINSTYLE
280
0
  9
$LWDISPLAY
290
0
  9
$INSUNITS
 70
6
  9
$HYPERLINKBASE
  1

  9
$STYLESHEET
  1

  9
$XEDIT
290
1
  9
$CEPSNTYPE
380
0
  9
$PSTYLEMODE
290
1
  9
$FINGERPRINTGUID
  2
{49432C0F-33BD-4D48-B8B5-EB19CDCA2069}
  9
$VERSIONGUID
  2
{CFABE3D7-8377-4CDD-B3A7-68B374720D08}
  9
$EXTNAMES
290
1
  9
$PSVPSCALE
 40
0.0
  9
$OLESTARTUP
290
0
  9
$SORTENTS
280
127
  9
$INDEXCTL
280
0
  9
$HIDETEXT
280
1
  9
$XCLIPFRAME
280
1
  9
$HALOGAP
280
0
  9
$OBSCOLOR
 70
257
  9
$OBSLTYPE
280
0
  9
$INTERSECTIONDISPLAY
280
0
  9
$INTERSECTIONCOLOR
 70
257
  9
$DIMASSOC
280
2
  9
$PROJECTNAME
  1

  9
$CAMERADISPLAY
290
0
  9
$LENSLENGTH
 40
50.0
  9
$CAMERAHEIGHT
 40
0.0
  9
$STEPSPERSEC
 40
24.0
  9
$STEPSIZE
 40
100.0
  9
$3DDWFPREC
 40
2.0
  9
$PSOLWIDTH
 40
0.005
  9
$PSOLHEIGHT
 40
0.08
  9
$LOFTANG1
 40
1.570796326795
  9
$LOFTANG2
 40
1.570796326795
  9
$LOFTMAG1
 40
0.0
  9
$LOFTMAG2
 40
0.0
  9
$LOFTPARAM
 70
7
  9
$LOFTNORMALS
280
1
  9
$LATITUDE
 40
37.795
  9
$LONGITUDE
 40
-122.394
  9
$NORTHDIRECTION
 40
0.0
  9
$TIMEZONE
 70
-8000
  9
$LIGHTGLYPHDISPLAY
280
1
  9
$TILEMODELIGHTSYNCH
280
1
  9
$CMATERIAL
347
20
  9
$SOLIDHIST
280
0
  9
$SHOWHIST
280
1
  9
$DWFFRAME
280
2
  9
$DGNFRAME
280
2
  9
$REALWORLDSCALE
290
1
  9
$INTERFERECOLOR
 62
256
  9
$CSHADOW
280
0
  9
$SHADOWPLANELOCATION
 40
0.0
  0
ENDSEC
  0
SECTION
  2
CLASSES
  0
CLASS
  1
ACDBDICTIONARYWDFLT
  2
AcDbDictionaryWithDefault
  3
ObjectDBX Classes
 90
0
 91
0
280
0
281
0
  0
CLASS
  1
SUN
  2
AcDbSun
  3
SCENEOE
 90
1153
 91
0
280
0
281
0
  0
CLASS
  1
VISUALSTYLE
  2
AcDbVisualStyle
  3
ObjectDBX Classes
 90
4095
 91
0
280
0
281
0
  0
CLASS
  1
MATERIAL
  2
AcDbMaterial
  3
ObjectDBX Classes
 90
1153
 91
0
280
0
281
0
  0
CLASS
  1
SCALE
  2
AcDbScale
  3
ObjectDBX Classes
 90
1153
 91
0
280
0
281
0
  0
CLASS
  1
TABLESTYLE
  2
AcDbTableStyle
  3
ObjectDBX Classes
 90
4095
 91
0
280
0
281
0
  0
CLASS
  1
MLEADERSTYLE
  2
AcDbMLeaderStyle
  3
ACDB_MLEADERSTYLE_CLASS
 90
4095
 91
0
280
0
281
0
  0
CLASS
  1
DICTIONARYVAR
  2
AcDbDictionaryVar
  3
ObjectDBX Classes
 90
0
 91
0
280
0
281
0
  0
CLASS
  1
CELLSTYLEMAP
  2
AcDbCellStyleMap
  3
ObjectDBX Classes
 90
1152
 91
0
280
0
281
0
  0
CLASS
  1
MENTALRAYRENDERSETTINGS
  2
AcDbMentalRayRenderSettings
  3
SCENEOE
 90
1024
 91
0
280
0
281
0
  0
CLASS
  1
ACDBDETAILVIEWSTYLE
  2
AcDbDetailViewStyle
  3
ObjectDBX Classes
 90
1025
 91
0
280
0
281
0
  0
CLASS
  1
ACDBSECTIONVIEWSTYLE
  2
AcDbSectionViewStyle
  3
ObjectDBX Classes
 90
1025
 91
0
280
0
281
0
  0
CLASS
  1
RASTERVARIABLES
  2
AcDbRasterVariables
  3
ISM
 90
0
 91
0
280
0
281
0
  0
CLASS
  1
ACDBPLACEHOLDER
  2
AcDbPlaceHolder
  3
ObjectDBX Classes
 90
0
 91
0
280
0
281
0
  0
CLASS
  1
LAYOUT
  2
AcDbLayout
  3
ObjectDBX Classes
 90
0
 91
0
280
0
281
0
  0
ENDSEC
  0
SECTION
  2
TABLES
  0
TABLE
  2
VPORT
  5
8
330
0
100
AcDbSymbolTable
 70
1
  0
VPORT
  5
23
330
8
100
AcDbSymbolTableRecord
100
AcDbViewportTableRecord
  2
*Active
 70
0
 10
0.0
 20
0.0
 11
1.0
 21
1.0
 12
0.0
 22
0.0
 13
0.0
 23
0.0
 14
0.5
 24
0.5
 15
0.5
 25
0.5
 16
0.0
 26
0.0
 36
1.0
 17
0.0
 27
0.0
 37
0.0
 40
1000.0
 41
1.34
 42
50.0
 43
0.0
 44
0.0
 50
0.0
 51
0.0
 71
0
 72
1000
 73
1
 74
3
 75
0
 76
0
 77
0
 78
0
281
0
 65
0
146
0.0
  0
ENDTAB
  0
TABLE
  2
LTYPE
  5
2
330
0
100
AcDbSymbolTable
 70
3
  0
LTYPE
  5
24
330
2
100
AcDbSymbolTableRecord
100
AcDbLinetypeTableRecord
  2
ByBlock
 70
0
  3

 72
65
 73
0
 40
0.0
  0
LTYPE
  5
25
330
2
100
AcDbSymbolTableRecord
100
AcDbLinetypeTableRecord
  2
ByLayer
 70
0
  3

 72
65
 73
0
 40
0.0
  0
LTYPE
  5
26
330
2
100
AcDbSymbolTableRecord
100
AcDbLinetypeTableRecord
  2
Continuous
 70
0
  3

 72
65
 73
0
 40
0.0
  0
ENDTAB
  0
TABLE
  2
LAYER
  5
1
330
0
100
AcDbSymbolTable
 70
3
  0
LAYER
  5
27
330
1
100
AcDbSymbolTableRecord
100
AcDbLayerTableRecord
  2
0
 70
0
 62
7
  6
Continuous
370
-3
390
13
347
21
  0
LAYER
  5
28
330
1
100
AcDbSymbolTableRecord
100
AcDbLayerTableRecord
  2
Defpoints
 70
0
 62
7
  6
Continuous
290
0
370
-3
390
13
347
21
  0
LAYER
  5
2F
330
1
100
AcDbSymbolTableRecord
100
AcDbLayerTableRecord
  2
TOPPERS_CUT
 70
0
 62
4
  6
Continuous
370
-3
390
13
347
21
  0
ENDTAB
  0
TABLE
  2
STYLE
  5
5
330
0
100
AcDbSymbolTable
 70
1
  0
STYLE
  5
29
330
5
100
AcDbSymbolTableRecord
100
AcDbTextStyleTableRecord
  2
Standard
 70
0
 40
0.0
 41
1.0
 50
0.0
 71
0
 42
2.5
  3
txt
  4

  0
ENDTAB
  0
TABLE
  2
VIEW
  5
7
330
0
100
AcDbSymbolTable
 70
0
  0
ENDTAB
  0
TABLE
  2
UCS
  5
6
330
0
100
AcDbSymbolTable
 70
0
  0
ENDTAB
  0
TABLE
  2
APPID
  5
3
330
0
100
AcDbSymbolTable
 70
3
  0
APPID
  5
2A
330
3
100
AcDbSymbolTableRecord
100
AcDbRegAppTableRecord
  2
ACAD
 70
0
  0
APPID
  5
38
330
3
100
AcDbSymbolTableRecord
100
AcDbRegAppTableRecord
  2
HATCHBACKGROUNDCOLOR
 70
0
  0
APPID
  5
39
330
3
100
AcDbSymbolTableRecord
100
AcDbRegAppTableRecord
  2
EZDXF
 70
0
  0
ENDTAB
  0
TABLE
  2
DIMSTYLE
  5
4
330
0
100
AcDbSymbolTable
 70
1
100
AcDbDimStyleTable
  0
DIMSTYLE
105
2B
330
4
100
AcDbSymbolTableRecord
100
AcDbDimStyleTableRecord
  2
Standard
 70
0
 40
1.0
 41
2.5
 42
0.625
 43
3.75
 44
1.25
 45
0.0
 46
0.0
 47
0.0
 48
0.0
 49
2.5
140
2.5
141
2.5
142
0.0
143
0.03937007874
144
1.0
145
0.0
146
1.0
147
0.625
148
0.0
 69
0
 70
0
 71
0
 72
0
 73
0
 74
0
 75
0
 76
0
 77
1
 78
8
 79
3
170
0
171
3
172
1
173
0
174
0
175
0
176
0
177
0
178
0
179
2
271
2
272
2
273
2
274
3
275
0
276
0
277
2
278
44
279
0
280
0
281
0
282
0
283
0
284
8
285
0
286
0
288
0
289
3
290
0
371
-2
372
-2
  0
ENDTAB
  0
TABLE
  2
BLOCK_RECORD
  5
9
330
0
100
AcDbSymbolTable
 70
2
  0
BLOCK_RECORD
  5
17
330
9
100
AcDbSymbolTableRecord
100
AcDbBlockTableRecord
  2
*Model_Space
340
1A
 70
0
280
1
281
0
  0
BLOCK_RECORD
  5
1B
330
9
100
AcDbSymbolTableRecord
100
AcDbBlockTableRecord
  2
*Paper_Space
340
1E
 70
0
280
1
281
0
  0
ENDTAB
  0
ENDSEC
  0
SECTION
  2
BLOCKS
  0
BLOCK
  5
18
330
17
100
AcDbEntity
  8
0
100
AcDbBlockBegin
  2
*Model_Space
 70
0
 10
0.0
 20
0.0
 30
0.0
  3
*Model_Space
  1

  0
ENDBLK
  5
19
330
17
100
AcDbEntity
  8
0
100
AcDbBlockEnd
  0
BLOCK
  5
1C
330
1B
100
AcDbEntity
  8
0
100
AcDbBlockBegin
  2
*Paper_Space
 70
0
 10
0.0
 20
0.0
 30
0.0
  3
*Paper_Space
  1

  0
ENDBLK
  5
1D
330
1B
100
AcDbEntity
  8
0
100
AcDbBlockEnd
  0
ENDSEC
  0
SECTION
  2
ENTITIES
  0
LWPOLYLINE
  5
30
330
17
100
AcDbEntity
  8
TOPPERS_CUT
100
AcDbPolyline
 90
140
 70
1
 10
86.50541865391122
 20
52.08222479881433
 10
87.26592114906585
 20
55.291840968212725
 10
88.05353641005252
 20
56.30162421260773
 10
90.62869098884556
 20
58.33351468586685
 10
93.7198287758583
 20
59.0716658774949
 10
95.39505170351363
 20
61.09246476473182
 10
97.38134343423704
 20
62.21702919617174
 10
99.1762771427249
 20
62.63918199094402
 10
101.17735765481123
 20
62.56383755420027
 10
101.98345889250157
 20
62.073734713365695
 10
102.88462294208622
 20
61.984833893705925
 10
104.29437580920913
 20
61.20214822650689
 10
105.49428467739278
 20
61.21693700786983
 10
107.48550600190386
 20
61.94153181658184
 10
110.29145535323362
 20
61.476076944685495
 10
112.60730186372882
 20
60.20452083509882
 10
113.4207974921006
 20
59.11446356017242
 10
114.22320153445021
 20
58.92433793638376
 10
115.13422477161016
 20
58.035497871268205
 10
117.53897210176513
 20
57.66510581126619
 10
119.55484139521441
 20
56.38985250633878
 10
120.06835980654027
 20
55.296098036071626
 10
121.08430504316986
 20
54.0085207466751
 10
121.40893022915398
 20
52.01236982837641
 10
121.22126940225914
 20
51.00998097466286
 10
121.34098018309169
 20
49.41133488219822
 10
120.45583731331688
 20
48.20033442799236
 10
120.76937091327882
 20
47.1041151608314
 10
119.98052325384523
 20
46.19432432211836
 10
119.89901682486695
 20
44.69320583844187
 10
120.41007043929899
 20
43.79943617953869
 10
121.51984608937596
 20
43.01305331699892
 10
122.03213210225495
 20
42.019291252413765
 10
123.33573057146131
 20
41.73533521517769
 10
124.04307180191657
 20
41.144007570214235
 10
125.14791785820591
 20
40.75759433040237
 10
127.64772800025521
 20
40.78840429157514
 10
129.33773970927342
 20
41.60929431062841
 10
130.72530940435192
 20
42.62647194570488
 10
130.3105510002611
 20
43.82145122010089
 10
130.0081089863214
 20
44.0177388361241
 10
129.51430895014607
 20
43.51161481547969
 10
128.7143697046903
 20
43.5017556279044
 10
128.10455608302317
 20
44.29430048267871
 10
127.99223969287209
 20
45.29299214105152
 10
127.58487567946277
 20
45.88801698135571
 10
125.48996475392899
 20
45.46216699124269
 10
125.1010867172233
 20
44.557305746317304
 10
124.68509591468558
 20
45.8522774263953
 10
123.58148225684315
 20
46.13869826052519
 10
123.1876746263498
 20
45.633806638327684
 10
122.08775816384812
 20
45.62025025541166
 10
121.26933294168866
 20
47.11027715306595
 10
121.96681498456867
 20
47.31888875355828
 10
122.67538861347082
 20
46.627568702912846
 10
123.46670106979825
 20
47.33737473026194
 10
123.66915067805601
 20
47.13985471579182
 10
123.68024226407822
 20
46.239923064654064
 10
124.4826463064278
 20
46.04979744086541
 10
124.77646153123916
 20
46.55345666461601
 10
124.7690671405577
 20
47.15341109870784
 10
125.06534716226288
 20
47.45708551109449
 10
125.87514559529393
 20
46.667005453213996
 10
126.56646564593936
 20
47.375579082116175
 10
126.86644286298528
 20
47.37927627745691
 10
127.17874406450031
 20
46.38304941597792
 10
127.48118607844006
 20
46.186761799954716
 10
127.77623370169833
 20
46.59042861802333
 10
127.866366919805
 20
47.39160026192602
 10
128.3601669559803
 20
47.89772428257044
 10
130.76121709079456
 20
47.827309439614325
 10
131.06612390162812
 20
47.43103701222717
 10
131.76853553829574
 20
47.2396789899916
 10
131.77100033518957
 20
47.039694178627656
 10
131.3759603062493
 20
46.634794962112124
 10
131.18706708090755
 20
45.73239851408056
 10
130.49697942870904
 20
44.92383247949641
 10
130.5006766240498
 20
44.6238552624505
 10
131.3154046508685
 20
43.433805581842115
 10
131.9153590849603
 20
43.441199972523584
 10
132.8980295635233
 20
44.8534176365403
 10
132.9684444064794
 20
47.254467771354534
 10
132.35863078481228
 20
48.04701262612885
 10
131.94263998227456
 20
49.34198430620684
 10
130.3304375068939
 20
50.32218998787598
 10
130.22428310897735
 20
50.820919617838925
 10
129.71939148677984
 20
51.21472724833227
 10
129.71076469765148
 20
51.91467408810606
 10
130.8045191679186
 20
52.428192499431944
 10
131.18353801704902
 20
54.13299298981311
 10
131.87609046614133
 20
54.74157421303331
 10
133.14887897417492
 20
56.95742831784654
 10
134.9339534950875
 20
58.179520358074605
 10
138.4213637094874
 20
59.22257836053622
 10
140.29780384695357
 20
61.145849638984984
 10
141.2891011146449
 20
61.8581204632279
 10
144.18271888718755
 20
62.393822046598174
 10
147.28987785401017
 20
61.83207196436058
 10
149.67613920746146
 20
62.96156598958813
 10
151.7710501329952
 20
63.38741597970115
 10
153.37216102235368
 20
63.30714194916976
 10
155.0806587080756
 20
62.628145882993444
 10
157.8100312242147
 20
60.26160290469271
 10
159.31977649701955
 20
59.4801496359406
 10
160.1197157424753
 20
59.49000882351589
 10
161.1282665884234
 20
58.8023859682112
 10
161.83067822509105
 20
58.61102794597563
 10
164.05269432213885
 20
56.83827740953217
 10
164.9797387391086
 20
54.64953607055098
 10
165.3105259173273
 20
52.15342312384242
 10
165.2265546914552
 20
50.85228945152988
 10
164.4512634149376
 20
48.84258215031515
 10
161.98226323406112
 20
46.311962047093076
 10
160.2848571343614
 20
46.091026462131644
 10
159.88858470697423
 20
45.78611965129809
 10
159.26751136780274
 20
39.37797889852351
 10
157.53666237855424
 20
33.756221008288676
 10
154.5108417092278
 20
27.71847231551613
 10
151.75542069422139
 20
24.08423855445163
 10
149.97897296243718
 20
22.16219967444977
 10
145.1274086234501
 20
18.202108328954225
 10
140.25982310465312
 20
15.541918257324317
 10
137.87232935275492
 20
14.512416637778736
 10
130.69259451880353
 20
12.823805458689597
 10
124.99425979337802
 20
12.6535663415337
 10
119.7860279087871
 20
13.289428462068134
 10
115.3703408789705
 20
14.535104204269686
 10
109.83871620684235
 20
17.067124837420852
 10
106.814296067445
 20
19.030000997652962
 10
101.35555103516678
 20
23.763086954254426
 10
98.2052581227023
 20
27.82457123536103
 10
95.75121485467089
 20
32.194659522641935
 10
93.88849923160294
 20
37.272089040378106
 10
93.04296124361146
 20
40.96194886303578
 10
92.91092647830979
 20
43.56051901232014
 10
92.59739287834785
 20
44.6567382794811
 10
92.29371846596122
 20
44.953018301186276
 10
91.39748401016419
 20
44.641949498118166
 10
89.38654431050256
 20
45.51723318031769
 10
87.35835103258417
 20
47.79241054206483
  0
LWPOLYLINE
  5
31
330
17
100
AcDbEntity
  8
TOPPERS_CUT
100
AcDbPolyline
 90
61
 70
1
 10
36.0219695100205
 20
9.856860827189426
 10
34.303612636723315
 20
11.335796138821518
 10
32.777846184108604
 20
13.417150681439262
 10
29.396758499107403
 20
19.97598030770135
 10
27.74635167187251
 20
24.055950565511623
 10
26.8279340440311
 20
25.544745064719002
 10
25.921840400658787
 20
26.033615507106664
 10
23.01466624520014
 20
26.597830386238076
 10
17.2077123249643
 20
27.12630571040907
 10
11.993318448138831
 20
28.262129859353365
 10
9.47748712627969
 20
29.53122117204623
 10
8.762751505142955
 20
30.72250325110151
 10
8.647970318098052
 20
31.92117972083826
 10
8.83932834033362
 20
32.62359135750589
 10
9.622014007532641
 20
34.033344224628785
 10
12.678644638031887
 20
37.57128277535204
 10
16.34139169485752
 20
40.61665368834691
 10
20.491776795623903
 20
44.66811065039604
 10
20.468361225132593
 20
46.56796635835351
 10
18.96741087293829
 20
54.75009004601846
 10
18.702108943888064
 20
60.04722275026914
 10
19.079895394571558
 20
61.85201564633229
 10
20.562527901544378
 20
63.27039530258355
 10
22.861120833782827
 20
63.39873287254447
 10
25.67323217734715
 20
62.43331597223827
 10
28.795179925532672
 20
60.67165702181702
 10
30.70489482106543
 20
59.895133346852546
 10
31.312243645838727
 20
59.30257330344218
 10
36.94509312209575
 20
56.67179266305595
 10
37.745032367551524
 20
56.68165185063124
 10
38.840019236265576
 20
57.09517785627514
 10
41.818840633127245
 20
58.832020706276
 10
43.610077146274364
 20
59.554150718094206
 10
44.997646841352854
 20
60.57132835317067
 10
49.86892955549054
 20
62.93154120775466
 10
52.5588653213285
 20
63.764755211277034
 10
54.66117063754372
 20
63.59065076729822
 10
56.074620700007344
 20
62.50798788305328
 10
56.48568190875743
 20
61.612985825703184
 10
56.80168030561318
 20
60.316781747178275
 10
56.83125786833905
 20
57.91696401081094
 10
56.0892413498881
 20
53.20746175618298
 10
54.6546723823448
 20
47.8893782783348
 10
54.38920232181239
 20
45.085893723898856
 10
54.799031132115566
 20
44.290884072230725
 10
60.26024096128759
 20
39.35781330426532
 10
64.61783713261721
 20
34.711163370429816
 10
65.43379755788283
 20
33.42112128413946
 10
65.74609875939784
 20
32.42489442266048
 10
65.76088754076076
 20
31.22498555447682
 10
65.47200190973706
 20
30.32135670799833
 10
64.38564183015139
 20
29.207883862580626
 10
62.99437493973217
 20
28.49068344455007
 10
59.50449992843843
 20
27.647610253452406
 10
49.91755296743823
 20
26.529375945729235
 10
48.02755644705606
 20
25.70602112978215
 10
47.042421171599266
 20
24.49378827712938
 10
43.442526435566094
 20
16.34880467435395
 10
40.20562936885348
 20
11.208522835825319
 10
38.71929966653992
 20
10.090120396619964
 10
37.724305203507846
 20
9.677826789422966
  0
LWPOLYLINE
  5
32
330
17
100
AcDbEntity
  8
TOPPERS_CUT
100
AcDbPolyline
 90
97
 70
1
 10
6.618152900696761
 20
74.89942818738254
 10
5.491123672363028
 20
77.08570472946988
 10
5.273885282742332
 20
78.48313361212368
 10
5.349229719486084
 20
80.48421412421003
 10
6.30725222911083
 20
83.89627990186618
 10
7.764004368698525
 20
87.41450007743887
 10
8.420817262830447
 20
90.92286106543625
 10
8.677660534234478
 20
94.426292459646
 10
9.648007028328333
 20
96.83843418048244
 10
11.420757564771787
 20
99.06045027753022
 10
13.01077686810805
 20
99.88010789813657
 10
14.505733359549984
 20
100.29856349756813
 10
15.598255431370214
 20
100.91207431457597
 10
15.992063061863544
 20
101.4169659367735
 10
15.072413035575224
 20
103.00575284166287
 10
14.466296609248834
 20
103.49832047939124
 10
13.74786379277137
 20
104.98957977549244
 10
13.32078140421144
 20
107.18448310670817
 10
13.492421051296432
 20
109.48677323428737
 10
14.852877980542885
 20
112.7037837943672
 10
18.10456382861843
 20
116.64415676471216
 10
17.968831867976043
 20
119.54270413104246
 10
18.357709904681734
 20
120.44756537596784
 10
19.151487157902956
 20
120.957386591953
 10
20.0514188090407
 20
120.96847817797519
 10
20.855055249837207
 20
120.67836014850457
 10
22.37096251487663
 20
119.3969448513426
 10
26.575573147307097
 20
119.04873596338498
 10
28.990179665037356
 20
117.87840465792718
 10
30.506086930076776
 20
116.59698936076518
 10
32.43305540386628
 20
114.42057200625311
 10
33.761301842010866
 20
112.13676785537761
 10
34.69204345432139
 20
109.6480492993505
 10
34.99448546826113
 20
109.4517616833273
 10
35.7833331276947
 20
110.36155252204033
 10
35.97592354837718
 20
110.963971753026
 10
37.35979604811495
 20
112.28112660514837
 10
38.2597276992527
 20
112.29221819117058
 10
39.876859768421
 20
110.91204288677355
 10
40.59159538955773
 20
109.72076080771826
 10
43.821098065588885
 20
115.46099708033871
 10
45.400025782902944
 20
117.18058635208281
 10
47.08387549968663
 20
118.50143839954595
 10
49.57259405571373
 20
119.43218001185646
 10
53.166158668030164
 20
119.97650838435511
 10
54.556193160002486
 20
120.79370120806766
 10
55.24751321064791
 20
121.50227483696983
 10
56.14744486178565
 20
121.51336642299202
 10
57.15353091083993
 20
121.02572837905127
 10
57.670746517506544
 20
119.63199669173821
 10
57.60402886989117
 20
116.93096933987806
 10
60.54571018186333
 20
113.56696710165143
 10
61.87518901845483
 20
111.18317054509396
 10
62.3997990158029
 20
109.18948442368905
 10
62.518277398188545
 20
107.69083073690642
 10
62.04666053405764
 20
105.38484341398649
 10
61.267672062199345
 20
103.67511332981769
 10
59.88872915624923
 20
101.9579888549674
 10
60.29362837276475
 20
101.56294882602715
 10
64.21551536640605
 20
99.81114906318119
 10
66.44615825258221
 20
97.33845168696392
 10
67.48551905970308
 20
94.15101868960994
 10
67.83355981617852
 20
90.25501206335376
 10
68.25817740784463
 20
88.26009354350197
 10
69.69381064235264
 20
85.37756735698153
 10
70.627017051557
 20
82.68886398959049
 10
70.94917744064732
 20
80.89269788265572
 10
70.78369978579687
 20
78.09044572666669
 10
70.30099133564377
 20
76.68439005488453
 10
69.21709605295192
 20
75.37093239810288
 10
66.82960230105371
 20
74.3414307785573
 10
64.02981494195849
 20
74.3069236220438
 10
59.81657752039964
 20
75.35507934977521
 10
57.30197859698742
 20
76.5241782567861
 10
52.36291396826965
 20
79.66354771471057
 10
51.34943352853391
 20
80.75114019274316
 10
50.84700670323022
 20
80.94496301187255
 10
48.42130859947777
 20
83.01522596846809
 10
45.27717767924785
 20
86.57674822116483
 10
43.44650441579957
 20
89.05437519116974
 10
42.63793838121542
 20
89.74446284336827
 10
42.341658359510234
 20
89.4407884309816
 10
41.765119495909715
 20
87.53353833234267
 10
39.98620696723171
 20
85.81148426370476
 10
39.488709735715666
 20
85.60533746010626
 10
37.68761403499327
 20
85.68314669374384
 10
36.89137198487822
 20
85.37331028912263
 10
35.175479908474856
 20
86.65226078939077
 10
34.363216678549975
 20
87.6423256586352
 10
33.438637058474
 20
89.63108218625244
 10
28.908000710130306
 20
83.97481713950411
 10
25.25141564553923
 20
80.4294841980994
 10
20.99117895151559
 20
77.17673408305912
 10
16.519865860105803
 20
74.82145082226278
 10
13.431192869986873
 20
73.88331481927078
 10
9.735171055094643
 20
73.53773885968917
 10
8.230355376077423
 20
73.91922250571339
  0
LWPOLYLINE
  5
33
330
17
100
AcDbEntity
  8
TOPPERS_CUT
100
AcDbPolyline
 90
163
 70
1
 10
94.41025269102121
 20
76.08146642945232
 10
92.48698141257242
 20
77.95790656691848
 10
91.87347059556458
 20
79.05042863873871
 10
91.14517859151182
 20
81.34162718029567
 10
90.92794020189112
 20
82.73905606294946
 10
90.99958744329413
 20
85.04011379208174
 10
91.77487871981171
 20
87.04982109329646
 10
94.1488160887939
 20
89.17923917534374
 10
95.85238418072815
 20
88.90021273189531
 10
97.3387138830417
 20
90.01861517110066
 10
99.0459791703167
 20
89.43961151060631
 10
100.04343843024259
 20
89.65192030643937
 10
100.73722327778185
 20
90.1605091239776
 10
101.13842529895665
 20
90.06544631208327
 10
101.64578171804797
 20
89.47165387022599
 10
102.64200857952694
 20
89.78395507174102
 10
101.43347292221492
 20
90.4691131301519
 10
101.32608612585148
 20
91.06783516579682
 10
99.50403965153158
 20
92.84551529602791
 10
98.58685442213708
 20
94.23431738955333
 10
98.57083324232724
 20
95.53421866341895
 10
99.55720091623094
 20
96.64645911038976
 10
101.84716705934102
 20
97.47474352012449
 10
104.44696960707229
 20
97.50678587974417
 10
106.35175490881738
 20
97.1302318275076
 10
107.95163339972893
 20
97.14995020265818
 10
108.34420863177536
 20
97.75483423053764
 10
108.33065224885934
 20
98.85475069303934
 10
107.80604225151126
 20
100.84843681444423
 10
106.79009701488171
 20
102.13601410384074
 10
105.48403374878151
 20
102.61995495244078
 10
102.98545600517912
 20
102.48915258558603
 10
101.47694313082117
 20
103.17061344865616
 10
100.6671446977901
 20
103.96069350653666
 10
99.74256507771413
 20
105.9494500341539
 10
100.13267551286674
 20
106.75431887339732
 10
101.02644517176994
 20
107.26537248782935
 10
102.20910046169683
 20
108.68005494873992
 10
103.61392373503209
 20
108.29733890426876
 10
104.52494697219204
 20
107.40849883915322
 10
105.92607305018657
 20
107.32576001172802
 10
107.22227712871147
 20
107.64175840858377
 10
108.00619519435739
 20
108.95151887002469
 10
108.19755321659298
 20
109.65393050669232
 10
107.05943240223704
 20
112.74013869991742
 10
107.03971402708646
 20
114.34001719082899
 10
108.68412699356898
 20
118.86062622011521
 10
108.27922777705346
 20
119.25566624905544
 10
106.16829567170983
 20
120.12971753280809
 10
105.25604003610299
 20
121.11855000360558
 10
105.24125125474006
 20
122.31845887178925
 10
106.82757336273559
 20
123.4380937094415
 10
108.32622704951825
 20
123.55657209182714
 10
110.21868836679425
 20
124.17994209641029
 10
110.92110000346187
 20
123.98858407417472
 10
112.61973850160848
 20
124.10952725345419
 10
116.02687468547701
 20
123.55147436655731
 10
117.43293035725917
 20
123.0687659164042
 10
118.44024880476036
 20
122.48113546678148
 10
118.75378240472227
 20
121.38491619962053
 10
118.57844556229657
 20
119.38260328908727
 10
118.98580957570591
 20
118.7875784487831
 10
119.48700400256268
 20
118.69374803533567
 10
120.58199087127673
 20
119.10727404097956
 10
123.47930583916009
 20
119.34299840730394
 10
124.47183550529834
 20
119.9552768258649
 10
125.35574597662625
 20
121.26626968575272
 10
125.25082397715664
 20
121.66500691003371
 10
123.43000990128364
 20
123.34269463458281
 10
122.91156189617013
 20
124.83641872757785
 10
123.30413712821655
 20
125.44130275545733
 10
125.89284808992561
 20
126.37327676621476
 10
127.59518378341298
 20
126.19424272844829
 10
128.88892306504405
 20
126.71022593666801
 10
131.89116003239704
 20
126.5472130787114
 10
133.09476609592144
 20
126.2620246430284
 10
135.8105822291445
 20
124.99539812722935
 10
136.82529506732718
 20
123.8078132435148
 10
136.93884385592517
 20
122.70912917946002
 10
136.06479257217254
 20
120.59819707411641
 10
136.0820461504293
 20
119.19830339456882
 10
136.48941016383864
 20
118.60327855426462
 10
139.79162434823755
 20
118.44396289164872
 10
144.8097306090398
 20
117.0056967287647
 10
146.42070068597354
 20
116.12548345277753
 10
147.52431434381597
 20
115.83906261864763
 10
149.94508285378078
 20
114.16876928477996
 10
151.25237851832787
 20
113.584836030498
 10
154.7964790612857
 20
110.02824337158889
 10
157.45173953912797
 20
105.56062747551982
 10
158.18372873852144
 20
102.96945171691694
 10
158.31083391003546
 20
100.77085119036045
 10
158.12317308314064
 20
99.76846233664692
 10
157.4306206340483
 20
99.1598811134267
 10
156.02333256381922
 20
99.74258196926178
 10
154.80617011737883
 20
101.12768686744646
 10
153.707486053324
 20
101.01413807884846
 10
153.0050744166564
 20
101.20549610108404
 10
152.29773318620113
 20
101.7968237460475
 10
151.9854319846861
 20
102.79305060752647
 10
151.47930796404168
 20
103.28685064370177
 10
150.78429071805553
 20
102.87825423184552
 10
149.0831874230151
 20
102.95729586393
 10
148.1672345920675
 20
104.24610555177344
 10
147.0673181295658
 20
104.23254916885742
 10
146.56982089804978
 20
104.02640236525892
 10
145.7822056370631
 20
103.01661912086391
 10
144.88227398592534
 20
103.00552753484172
 10
143.87125834308344
 20
103.89313520151033
 10
142.86886948936993
 20
104.08079602840519
 10
142.27630944595953
 20
103.47344720363189
 10
141.99605060406418
 20
101.86987151737961
 10
141.60224297357087
 20
101.36497989518209
 10
138.99997562894578
 20
101.53292234692636
 10
138.40125359330085
 20
101.42553555056291
 10
138.00621356436062
 20
101.0206363340474
 10
137.93949591674522
 20
98.31960898218725
 10
137.5456882862519
 20
97.81471735998971
 10
136.7432842439023
 20
98.00484298377839
 10
136.14825940359813
 20
97.59747897036904
 10
133.9459616817009
 20
97.77035101590093
 10
132.94973482022192
 20
97.45804981438592
 10
132.55469479128166
 20
97.05315059787037
 10
132.16828155146982
 20
95.94830454158105
 10
132.6805675643488
 20
94.95454247699588
 10
132.29661912143075
 20
93.6497116093426
 10
131.99910670127866
 20
93.44602960263794
 10
129.90049858040416
 20
93.32015682957082
 10
127.89572087297707
 20
93.69547848336049
 10
127.59944085127188
 20
93.39180407097385
 10
127.511772430059
 20
92.3906476157072
 10
128.12158605172613
 20
91.5981027609329
 10
128.64249885373349
 20
89.90439385657393
 10
128.05610080255767
 20
88.79708300339078
 10
126.26239949251672
 20
88.27493780293653
 10
125.46985463774243
 20
87.6651241812694
 10
125.78338823770437
 20
86.56890491410844
 10
127.09807829293293
 20
85.38501722573463
 10
127.52639307993975
 20
83.0901214888369
 10
126.34127299311902
 20
81.87542383929032
 10
124.64879648720698
 20
81.25451863160099
 10
124.25498885671364
 20
80.7496270094035
 10
124.97958366542566
 20
78.75840568489244
 10
125.4881724829639
 20
78.06462083735319
 10
125.81156527050113
 20
76.16846232473645
 10
124.72520519091547
 20
75.05498947931873
 10
122.52906946125279
 20
74.72789949644078
 10
121.42792060030419
 20
74.81433551920674
 10
120.13541371712003
 20
74.19835990530507
 10
119.54285367370967
 20
73.59101108053177
 10
119.07123680957875
 20
71.28502375761185
 10
118.08610153412198
 20
70.07279090495908
 10
117.08740987574916
 20
69.960474514808
 10
115.88380381222476
 20
70.24566295049098
 10
115.27399019055765
 20
71.0382078052653
 10
114.06668693169252
 20
71.62337345799419
 10
111.46565198551434
 20
71.69132350405647
 10
108.57573140831244
 20
70.8556447036403
 10
107.07214812774211
 20
71.13713594398254
 10
105.96606967300588
 20
71.62354158947637
 10
102.62934833209347
 20
74.58264461118748
 10
98.92962932186052
 20
74.53704586865176
 10
96.82609160719838
 20
74.81114271831254
  0
LWPOLYLINE
  5
34
330
17
100
AcDbEntity
  8
TOPPERS_CUT
100
AcDbPolyline
 90
156
 70
1
 10
90.76963332816835
 20
128.04054543067042
 10
90.45733212665331
 20
129.0367722921494
 10
91.22892620783014
 20
131.34645681041005
 10
92.50417951275756
 20
133.36232610385932
 10
93.08564797014573
 20
134.86960657977036
 10
93.8732632311324
 20
135.87938982416534
 10
94.35720407973241
 20
137.18545309026558
 10
95.04852413037784
 20
137.89402671916773
 10
95.63368978310675
 20
139.10132997803288
 10
95.31399419091025
 20
140.69751127360368
 10
94.39927375840958
 20
141.88632855576515
 10
93.49318011503726
 20
142.37519899815283
 10
92.59201606545261
 20
142.46409981781258
 10
91.89330162412571
 20
142.35548062300225
 10
91.00446155901017
 20
141.4444573858423
 10
90.30574711768327
 20
141.33583819103194
 10
89.28610468571298
 20
142.92339269747438
 10
89.26392151366858
 20
144.72325599974988
 10
90.23673280465627
 20
146.93541290922238
 10
92.61313497053227
 20
148.8648461799057
 10
93.5093694263293
 20
149.1759149829738
 10
94.39944188989175
 20
149.9869458144518
 10
93.8785290878844
 20
151.68065471881079
 10
92.04169383220157
 20
154.6582437172255
 10
91.01342461110292
 20
156.94574506344176
 10
90.99863582973998
 20
158.14565393162542
 10
91.57640709178742
 20
159.95291162458238
 10
92.55538037500965
 20
161.66510650564504
 10
94.13800528766444
 20
163.08471856034322
 10
96.52796383645648
 20
163.91423536852483
 10
100.32644285392452
 20
164.06105891518942
 10
100.72271528131166
 20
164.36596572602298
 10
102.53120537271555
 20
163.6882020582936
 10
103.2249902202548
 20
164.19679087583182
 10
103.41018625025579
 20
165.3991645409093
 10
102.90159743271754
 20
166.09294938844855
 10
102.89420304203608
 20
166.69290382254036
 10
103.38430588287068
 20
167.49900506023073
 10
103.08063147048401
 20
167.7952850819359
 10
102.28808661570972
 20
167.1854714602688
 10
101.77210340749
 20
168.47921074189986
 10
100.15620373676862
 20
169.75939364061492
 10
98.93287929809364
 20
171.64446056720945
 10
98.49963491729916
 20
174.33932592683504
 10
98.54293699442323
 20
178.94020898665266
 10
100.18365276556501
 20
183.7607952329848
 10
101.17495003325635
 20
184.47306605722773
 10
102.87358853140297
 20
184.5940092365072
 10
104.98082344140587
 20
184.01993516980048
 10
106.18073230958953
 20
184.03472395116341
 10
106.60042030746797
 20
182.4397750540395
 10
107.00655192243042
 20
181.9447426194173
 10
107.79909677720472
 20
182.5545562410844
 10
107.88306800307684
 20
183.85568991339693
 10
107.5781611922433
 20
184.2519623407841
 10
107.35476081038806
 20
186.14935325184777
 10
106.94986159387251
 20
186.544393280788
 10
106.61291242341926
 20
189.54046825590643
 10
107.00302285857188
 20
190.34533709514983
 10
108.3942897489911
 20
191.06253751318042
 10
110.78794549312389
 20
191.5920771043161
 10
111.79279914373123
 20
191.20443146605734
 10
112.5915059907401
 20
191.31428305931462
 10
114.30123607490891
 20
190.53529458745632
 10
115.62208812237202
 20
188.85144487067265
 10
116.44421053987222
 20
187.06144075597243
 10
116.84910975638775
 20
186.66640072703217
 10
119.24523029741434
 20
186.99595550680397
 10
120.24638675268095
 20
186.9082870855911
 10
120.84264399143208
 20
187.2156586933185
 10
121.84749764203943
 20
186.8280130550597
 10
122.54005009113175
 20
187.43659427827993
 10
122.92523093249672
 20
188.64143274025122
 10
123.32027096143698
 20
189.04633195676678
 10
124.91029026477322
 20
189.8659895773731
 10
127.60762042129264
 20
190.09924914680363
 10
130.71601178656215
 20
189.43750665888405
 10
132.10111668474684
 20
190.65466910532447
 10
133.29363116224903
 20
191.26941232077925
 10
135.88973651463954
 20
191.60143189744485
 10
137.29086259263408
 20
191.51869307001965
 10
139.70423671191742
 20
190.44835417024382
 10
140.62018954286503
 20
189.15954448240038
 10
140.93495554127384
 20
187.96333280955747
 10
141.07191990036316
 20
184.9647930375452
 10
141.61501587441492
 20
181.4712208309107
 10
142.24085067589186
 20
179.3787747022708
 10
143.1481767177111
 20
178.78991185420114
 10
144.8270968407071
 20
180.51073352439215
 10
148.11082504840235
 20
181.85130394700587
 10
150.01068075635982
 20
181.87471951749717
 10
152.6191100932195
 20
181.20681503734306
 10
153.82764575053153
 20
180.52165697893219
 10
154.94111859594923
 20
179.4352968993465
 10
156.17183742530565
 20
176.95027553866015
 10
158.91353392591387
 20
173.5838085035397
 10
159.32952472845162
 20
172.2888368234617
 10
159.24925069792022
 20
170.68772593410324
 10
158.8591402627676
 20
169.88285709485982
 10
158.0653630095464
 20
169.37303587887467
 10
157.15310737393952
 20
170.3618683496722
 10
156.35193573003684
 20
170.45200156777886
 10
155.0717528313218
 20
168.8361018970575
 10
154.7877967940857
 20
167.5325034278511
 10
154.94078233298484
 20
163.23406238197322
 10
154.4667006719601
 20
161.12805987041727
 10
153.29636936650232
 20
158.71345335268703
 10
151.71620925074131
 20
157.0938564866249
 10
150.72491198305
 20
156.38158566238195
 10
147.73869619550686
 20
155.24469724647295
 10
144.93890883641166
 20
155.21019008995944
 10
142.73044912227988
 20
155.8830241639012
 10
140.3146102061027
 20
157.153347875041
 10
137.68276529875178
 20
159.72110806315257
 10
135.68661438045305
 20
159.39648287716844
 10
132.7979262016981
 20
158.46081167107027
 10
130.99559810252873
 20
158.63861331038981
 10
130.21044763843594
 20
157.42884525463086
 10
130.8165640647623
 20
156.9362776169025
 10
131.74607327862591
 20
154.54755146655734
 10
131.8620868641177
 20
153.24888259113862
 10
131.67319363877598
 20
152.34648614310703
 10
131.18432319638833
 20
151.44039249973474
 10
129.7745703292654
 20
152.22307816693376
 10
128.7758786708926
 20
152.11076177678268
 10
128.18331862748224
 20
151.50341295200937
 10
127.89196819956472
 20
150.79976891689486
 10
128.02400296486636
 20
148.2011987676105
 10
127.66839968622727
 20
144.59654256927186
 10
126.40547036576898
 20
141.58074921900283
 10
125.22527987273588
 20
139.96608194672837
 10
124.23644740193834
 20
139.05382631112153
 10
121.45637841799373
 20
137.41944066369646
 10
120.75643157821992
 20
137.41081387456808
 10
119.76143711518785
 20
136.99852026737108
 10
118.47632462268514
 20
135.7825902193776
 10
116.4900328919617
 20
134.65802578793767
 10
114.39635436487485
 20
134.13218339214268
 10
112.80510266309167
 20
133.41251817721832
 10
111.72490457574057
 20
131.79908330339074
 10
109.94106245327491
 20
130.4769988574807
 10
109.04113080213718
 20
130.46590727145852
 10
107.62891313812045
 20
131.44857775002146
 10
106.71542510406668
 20
132.53740262650095
 10
105.3290878074351
 20
131.42023258574253
 10
104.43408575008498
 20
131.0091713769924
 10
103.43416169326527
 20
130.9968473925233
 10
102.62806045557495
 20
131.4869502333579
 10
102.20344286390883
 20
133.48186875320965
 10
100.99367480814989
 20
134.26701921730253
 10
99.00738307742647
 20
133.14245478586264
 10
96.93095812859636
 20
131.21671871052
 10
95.9371960640112
 20
130.70443269764104
 10
93.46203389090013
 20
128.67377462282883
 10
92.07199939892782
 20
127.85658179911631
 10
91.27329255191894
 20
127.74673020585905
  0
LWPOLYLINE
  5
35
330
17
100
AcDbEntity
  8
TOPPERS_CUT
100
AcDbPolyline
 90
104
 70
1
 10
35.61202974357408
 20
124.26049691183444
 10
34.9960541296724
 20
125.55300379501861
 10
33.88011648736087
 20
126.83934868596823
 10
32.980184836223124
 20
126.82825709994601
 10
31.766719585123447
 20
127.91338478108477
 10
31.266757556713582
 20
127.90722278885023
 10
29.77919545595311
 20
126.88881275532685
 10
29.273071435308697
 20
127.38261279150213
 10
28.948446249324565
 20
129.37876370980086
 10
28.54477943125595
 20
129.67381133305912
 10
27.548552569776962
 20
129.3615101315441
 10
27.147350548602162
 20
129.45657294343843
 10
27.53499618686094
 20
130.4614265940458
 10
27.618967412733063
 20
131.76256026635832
 10
24.779743303336705
 20
134.92781009166794
 10
23.34780726416941
 20
137.51035906114245
 10
22.50596647151866
 20
140.9002416667542
 10
22.661584938793812
 20
144.502433068199
 10
22.04684172333905
 20
145.6949475457012
 10
19.818663634056712
 20
147.96766011055453
 10
19.296518433602458
 20
149.76136142059545
 10
19.474320072922
 20
151.56368951976478
 10
21.04092380576696
 20
154.28320284832859
 10
20.929839814062785
 20
155.18190210101943
 10
19.004103738720193
 20
157.25832704984956
 10
18.690570138758254
 20
158.3545463170105
 10
18.674548958948414
 20
159.65444759087615
 10
19.953499459216562
 20
161.37033966727952
 10
20.339912699028424
 20
162.47518572356884
 10
20.417721932666005
 20
164.27628142429123
 10
18.705527051603372
 20
165.25525470751347
 10
17.990791430466636
 20
166.44653678656874
 10
18.57842188008936
 20
167.45385523406995
 10
20.077075566872026
 20
167.57233361645558
 10
20.37335558857721
 20
167.87600802884225
 10
20.562248813918956
 20
168.7784044768738
 10
19.64259878763063
 20
170.36719138176315
 10
14.965307024104533
 20
176.61002261116948
 10
13.533370984937239
 20
179.192571580644
 10
11.879266962361607
 20
183.5725190555002
 10
11.862013384104852
 20
184.9724127350478
 10
14.133493550511256
 20
187.3005832300121
 10
16.21731289002282
 20
188.62636487126287
 10
17.511052171653905
 20
189.14234807948256
 10
20.805871965371335
 20
189.58298685095852
 10
22.395891268707597
 20
190.40264447156488
 10
25.485796657273443
 20
191.24078806887488
 10
27.383187568337085
 20
191.46418845073012
 10
30.686634151182894
 20
191.20488038243226
 10
32.379110657094955
 20
191.8257855901216
 10
34.77399879967463
 20
192.25533277557534
 10
37.57378615876984
 20
192.28983993208885
 10
39.67732387343199
 20
192.01574308242806
 10
41.985775993245724
 20
191.3441414069332
 10
45.48304539522091
 20
191.58726016393905
 10
47.88656032692897
 20
191.31686050961898
 10
51.30232329992585
 20
190.05886078294833
 10
55.211886309098055
 20
189.3069850769221
 10
57.62895762372214
 20
187.93666896010035
 10
59.95836051713335
 20
185.56519638801197
 10
59.976846493837016
 20
184.0653103027824
 10
58.631178345953494
 20
179.64839087451887
 10
55.40290806836926
 20
173.80816219621641
 10
53.04375948074998
 20
170.4788352459855
 10
52.55981863214997
 20
169.1727719798853
 10
53.06840744968821
 20
168.47898713234605
 10
54.6719831359405
 20
168.19872829045073
 10
55.18426914881947
 20
167.20496622586555
 10
55.189198742607104
 20
166.80499660313768
 10
53.905318648551315
 20
165.48907414946217
 10
53.0103165912012
 20
165.07801294071209
 10
52.51774895347281
 20
164.47189651438572
 10
53.55834215904059
 20
161.18447111134975
 10
54.87303221426915
 20
160.00058342297592
 10
55.487775429723925
 20
158.80806894547374
 10
55.503796609533765
 20
157.50816767160808
 10
55.21737577540388
 20
156.40455401376568
 10
54.43099291286412
 20
155.29477836368866
 10
53.04712041312634
 20
153.9776235115663
 10
52.65824237642066
 20
153.07276226664092
 10
52.87055117225373
 20
152.07530300671502
 10
53.69020879286006
 20
150.48528370337874
 10
53.90498238558695
 20
149.28783963208892
 10
53.32967592043333
 20
147.28059712776798
 10
51.25694816694396
 20
145.05488383537948
 10
50.47179770285111
 20
143.84511577962056
 10
50.03099079989298
 20
139.03931831465133
 10
49.35815672595122
 20
136.83085860051955
 10
48.5754710587522
 20
135.42110573339667
 10
46.70396051507368
 20
133.09786483222
 10
44.82135838537297
 20
131.67455558218109
 10
44.62630316779668
 20
131.2721211625594
 10
44.747246347076135
 20
129.57348266441278
 10
44.55219112949983
 20
129.17104824479105
 10
43.649794681468265
 20
129.3599414701328
 10
43.35351465976308
 20
129.05626705774617
 10
42.781905389950204
 20
126.74904733637933
 10
42.08442334707022
 20
126.54043573588703
 10
41.57706692797889
 20
127.1342281777443
 10
40.369763669113766
 20
127.7193938304732
 10
39.27970639418736
 20
126.90589820210141
 10
38.08349472134443
 20
126.59113220369257
 10
37.489702279487155
 20
126.08377578460122
 10
36.313208981794794
 20
124.16913129528083
  0
LWPOLYLINE
  5
36
330
17
100
AcDbEntity
  8
TOPPERS_CUT
100
AcDbPolyline
 90
83
 70
1
 10
-2.157201659039966
 20
218.9022168838203
 10
-2.6163264072195793
 20
223.69692276276731
 10
-2.4816587135419166
 20
228.99898506080567
 10
-3.5000687470653005
 20
230.4865471615661
 10
-3.711145144451443
 20
231.38401401581004
 10
-3.6542866844113546
 20
234.88498061312598
 10
-2.8654390249777775
 20
235.794771451839
 10
-1.9679721707338522
 20
236.00584784922518
 10
3.0304157149178335
 20
236.16746017725262
 10
3.4242233454111664
 20
236.67235179945018
 10
3.8032421945415678
 20
238.37715228983134
 10
4.582230666399857
 20
240.08688237400014
 10
6.25622119560825
 20
242.20767366691902
 10
7.7437832963687185
 20
243.22608370044244
 10
10.033749439478786
 20
244.0543681101771
 10
12.332342371717228
 20
244.1827056801381
 10
16.246834974677064
 20
243.03086035138395
 10
18.470083470171755
 20
241.15811740925855
 10
19.48972590214205
 20
239.57056290281608
 10
20.41677031911184
 20
237.3818215638349
 10
21.02535154233205
 20
236.68926911474256
 10
21.721601186765117
 20
236.99787312091684
 10
28.421092367457238
 20
237.08044381685986
 10
30.832001689846766
 20
236.21008972844803
 10
31.831925746666485
 20
236.2224137129171
 10
33.22442503553262
 20
236.83962172526572
 10
44.12482965331447
 20
236.87396075029702
 10
44.9296984925579
 20
236.4838503151444
 10
46.13207215763538
 20
236.2986542851434
 10
46.72709699793957
 20
236.70601829855272
 10
47.10241865172923
 20
238.71079600597986
 10
47.79127390548084
 20
239.61935444624595
 10
48.472734768550986
 20
241.12786732060394
 10
50.64545492772232
 20
243.35481301143938
 10
52.636676252233386
 20
244.07940782015135
 10
55.131556800495034
 20
244.51018740405203
 10
57.1351021094752
 20
244.23485815594435
 10
59.543546634970916
 20
243.56448887889638
 10
61.15821390724538
 20
242.3842983858633
 10
61.46681791341969
 20
241.68804874143024
 10
62.785205163988984
 20
240.2041838360105
 10
63.823333572662946
 20
237.11674324433847
 10
64.53313960001203
 20
236.3254307880111
 10
66.24533448107466
 20
235.34645750478884
 10
68.64884941278272
 20
235.0760578504688
 10
69.45618304891997
 20
234.48596260395226
 10
69.50054939300875
 20
230.88623599940124
 10
68.21420450205915
 20
229.77029835708973
 10
67.646292427587
 20
227.16310141867697
 10
68.0598184332309
 20
226.06811454996296
 10
71.29531497001443
 20
223.20777153548693
 10
72.21619739474967
 20
221.51899222491562
 10
72.24700735592243
 20
219.01918208286628
 10
70.77036870970198
 20
209.00022313951848
 10
70.78515749106491
 20
207.8003142713348
 10
71.80110272769448
 20
206.5127369819383
 10
71.74301186920748
 20
203.11176279030437
 10
71.54672425318427
 20
202.80932077636467
 10
70.65048979738725
 20
202.49825197329653
 10
36.55307945983482
 20
202.0780041028999
 10
35.55685259835584
 20
201.76570290138488
 10
34.8643001492635
 20
201.15712167816469
 10
33.005113590054094
 20
197.8339567201683
 10
32.017513517703485
 20
196.82170867887947
 10
31.321263873270414
 20
196.51310467270517
 10
27.325264841332267
 20
196.1638315177828
 10
19.824602016737465
 20
196.17139403994645
 10
19.014803583706403
 20
196.96147409782697
 10
18.98769081787436
 20
199.16130702283033
 10
19.777770875754847
 20
199.9711054558614
 10
21.67762658371231
 20
199.9945210263527
 10
21.875146598182432
 20
200.19697063461047
 10
20.669075737764217
 20
200.6821438816574
 10
19.86913649230844
 20
200.67228469408212
 10
19.260555269088236
 20
201.36483714317444
 10
15.160866636127384
 20
201.3143088068511
 10
12.248762886881087
 20
202.27849330871038
 10
10.72422883271329
 20
204.25985544564617
 10
6.693890775743824
 20
214.81098690850564
 10
5.685339929795728
 20
215.49860976381038
 10
2.3794285500561
 20
215.95790264347215
 10
0.07097643024236859
 20
216.62950431896698
 10
-1.338776436880526
 20
217.412189986166
  0
LWPOLYLINE
  5
37
330
17
100
AcDbEntity
  8
TOPPERS_CUT
100
AcDbPolyline
 90
138
 70
1
 10
111.74966519808933
 20
194.70416566492636
 10
110.14239231649636
 20
195.28440172386763
 10
107.62532859619027
 20
196.65348544224247
 10
104.68734447955887
 20
199.71751046342314
 10
102.67517238145031
 20
200.69278655130466
 10
101.96783115099505
 20
201.28411419626812
 10
100.03963027875861
 20
203.56052395646216
 10
99.31996506383425
 20
205.15177565824533
 10
99.2928522980022
 20
207.35160858324872
 10
100.06814357451977
 20
209.3613158844634
 10
101.34832647323482
 20
210.97721555518478
 10
102.22607495232816
 20
212.78817044348253
 10
101.70639454876775
 20
214.3818869421595
 10
100.38677489975153
 20
215.96574425326122
 10
99.18193643778021
 20
216.35092509462615
 10
98.19063917008887
 20
215.63865427038326
 10
97.8968239452775
 20
215.1349950466327
 10
97.52396708838167
 20
212.93023252784164
 10
96.74374621807647
 20
211.3204948493548
 10
95.74505455970366
 20
211.20817845920374
 10
95.142635328718
 20
211.40076887988621
 10
93.85629043776838
 20
210.28483123757468
 10
92.65884636647854
 20
210.0700576448478
 10
91.75152032465934
 20
210.65892049291742
 10
90.93925709473446
 20
211.64898536216182
 10
90.72941309579521
 20
212.4464598107238
 10
90.71215951753847
 20
213.84635349027138
 10
94.86500941519867
 20
217.69782564095664
 10
96.14395991546682
 20
219.41371771736
 10
96.7266607713019
 20
220.82100578758906
 10
97.81548564778139
 20
221.73449382164281
 10
98.99197894547373
 20
223.6491383109632
 10
99.0796473666866
 20
224.65029476622985
 10
98.7698109620654
 20
225.44653681634486
 10
98.26491933986789
 20
225.8403444468382
 10
97.86494971714001
 20
225.83541485305054
 10
96.6712028411909
 20
225.3206640432778
 10
96.15768442986503
 20
226.41441851354494
 10
96.34288045986604
 20
227.61679217862243
 10
97.32801573532282
 20
228.82902503127517
 10
96.70218093384587
 20
230.92147115991511
 10
96.6836949571422
 20
232.4213572451447
 10
98.2552282837748
 20
234.74090095098063
 10
100.04892959381574
 20
235.2630461514349
 10
102.14753771469023
 20
235.38891892450198
 10
102.8437873591233
 20
235.6975229306763
 10
103.53510740976874
 20
236.40609655957846
 10
104.41285588886208
 20
238.21705144787614
 10
105.79426359170603
 20
239.7341911113625
 10
106.3547812754967
 20
242.9413424838671
 10
107.81276581353131
 20
246.3595702537578
 10
109.78303636444488
 20
248.78403595906335
 10
112.65447096494313
 20
251.11960084470905
 10
115.1407247240764
 20
252.25032726838353
 10
119.32438458290937
 20
253.60198927701944
 10
122.52044436939175
 20
253.94140324436654
 10
127.92373147155897
 20
253.70797554345376
 10
129.92850917898605
 20
253.3326538896641
 10
130.63338561254747
 20
252.94131105606462
 10
133.24181494940714
 20
252.27340657591049
 10
137.37108114509385
 20
249.9241171758665
 10
139.99922885710407
 20
247.65633420480086
 10
143.0495293638866
 20
243.59361752524734
 10
144.59378179320495
 20
240.0123768974
 10
145.22084899312884
 20
237.81993836307805
 10
146.2355618313115
 20
236.63235347936353
 10
147.4428650901766
 20
236.04718782663463
 10
149.3464179934748
 20
235.77062618008
 10
151.44625851279622
 20
235.79650654746516
 10
154.6558746821946
 20
235.03600405231055
 10
156.26561236068144
 20
234.25578318200533
 10
157.27539560507645
 20
233.46816792101862
 10
158.89745726803238
 20
231.68802299389375
 10
159.92079689534344
 20
229.8004912704054
 10
160.65648329007766
 20
226.90933829475657
 10
160.77989126625093
 20
225.010714985246
 10
159.93911474056492
 20
220.19998792648917
 10
159.15149947957823
 20
219.19020468209413
 10
158.8502898640854
 20
219.28649989243536
 10
158.23801144552448
 20
220.27902955857365
 10
157.92324544711562
 20
221.47524123141662
 10
156.29625419037203
 20
223.65535578126938
 10
149.86346546865923
 20
226.2762772340803
 10
149.3770598231654
 20
225.17019877934408
 10
149.21158216831498
 20
222.36794662335507
 10
147.38443796872522
 20
216.44497911762738
 10
147.41155073455727
 20
214.245146192624
 10
148.03615313758735
 20
212.25269246966604
 10
147.9509495132683
 20
211.05155120303547
 10
147.6509722962224
 20
211.04785400769475
 10
144.82653696818892
 20
213.01319496482066
 10
142.80080848716437
 20
215.08838751520383
 10
141.06643043405734
 20
217.8672241007016
 10
140.019675236255
 20
221.6546115321474
 10
139.98886527508225
 20
224.1544216741967
 10
140.83950098834356
 20
228.1652094874978
 10
141.72094666277764
 20
229.67618715874954
 10
142.6912931568715
 20
232.08832887958602
 10
142.88018638221322
 20
232.99072532761755
 10
142.05313437092542
 20
235.18069906504564
 10
140.12246870179516
 20
237.65709363660363
 10
137.7967630037247
 20
239.72858899164612
 10
135.98334331853317
 20
240.8063222821034
 10
133.37368158322664
 20
241.5742191679395
 10
131.70338824935897
 20
239.1534506579747
 10
130.9071461992439
 20
238.84361425335345
 10
129.12453647522517
 20
237.42153740176144
 10
129.6331252927634
 20
236.72775255422226
 10
131.74775459344775
 20
235.55372405342368
 10
134.24879713394395
 20
235.48454160891453
 10
136.0634492175824
 20
234.30681591277522
 10
135.98071039015718
 20
232.9056898347807
 10
135.28199594883026
 20
232.79707063997034
 10
134.89311791212458
 20
231.89220939504497
 10
135.73249390788152
 20
228.70231160079715
 10
136.14109031973777
 20
228.007294354811
 10
137.44468878894415
 20
227.72333831757493
 10
138.46309882246754
 20
226.2357762168145
 10
138.38652198727686
 20
224.33468811041007
 10
136.72362304409066
 20
221.3139651663534
 10
134.84841530507143
 20
219.2907014822227
 10
134.3657068549183
 20
217.8846458104405
 10
134.58910723677357
 20
215.98725489937686
 10
135.3149344439325
 20
213.89604116918386
 10
135.5432644195754
 20
211.5986806353923
 10
135.36915997559657
 20
209.4963753191771
 10
134.6852343156326
 20
208.18784725618306
 10
134.59510109752594
 20
207.38667561228038
 10
132.82358295952938
 20
205.06466710955064
 10
131.04343803240448
 20
203.4426054465947
 10
130.56812397293282
 20
201.43659534072071
 10
129.98049352331012
 20
200.42927689321954
 10
128.89536584217134
 20
199.21581164211983
 10
126.7103216985309
 20
197.98879000810413
 10
124.81416318591417
 20
197.66539722056692
 10
124.02531552648058
 20
196.75560638185388
 10
120.7452845141261
 20
195.11505874219426
 10
115.15310418661713
 20
194.4460899950754
  0
ENDSEC
  0
SECTION
  2
OBJECTS
  0
DICTIONARY
  5
A
330
0
100
AcDbDictionary
281
1
  3
ACAD_COLOR
350
B
  3
ACAD_GROUP
350
C
  3
ACAD_LAYOUT
350
D
  3
ACAD_MATERIAL
350
E
  3
ACAD_MLEADERSTYLE
350
F
  3
ACAD_MLINESTYLE
350
10
  3
ACAD_PLOTSETTINGS
350
11
  3
ACAD_PLOTSTYLENAME
350
12
  3
ACAD_SCALELIST
350
14
  3
ACAD_TABLESTYLE
350
15
  3
ACAD_VISUALSTYLE
350
16
  3
EZDXF_META
350
2D
  0
DICTIONARY
  5
B
330
A
100
AcDbDictionary
281
1
  0
DICTIONARY
  5
C
330
A
100
AcDbDictionary
281
1
  0
DICTIONARY
  5
D
330
A
100
AcDbDictionary
281
1
  3
Model
350
1A
  3
Layout1
350
1E
  0
DICTIONARY
  5
E
330
A
100
AcDbDictionary
281
1
  3
ByBlock
350
1F
  3
ByLayer
350
20
  3
Global
350
21
  0
DICTIONARY
  5
F
330
A
100
AcDbDictionary
281
1
  3
Standard
350
2C
  0
DICTIONARY
  5
10
330
A
100
AcDbDictionary
281
1
  3
Standard
350
22
  0
DICTIONARY
  5
11
330
A
100
AcDbDictionary
281
1
  0
ACDBDICTIONARYWDFLT
  5
12
330
A
100
AcDbDictionary
281
1
  3
Normal
350
13
100
AcDbDictionaryWithDefault
340
13
  0
ACDBPLACEHOLDER
  5
13
330
12
  0
DICTIONARY
  5
14
330
A
100
AcDbDictionary
281
1
  0
DICTIONARY
  5
15
330
A
100
AcDbDictionary
281
1
  0
DICTIONARY
  5
16
330
A
100
AcDbDictionary
281
1
  0
LAYOUT
  5
1A
330
D
100
AcDbPlotSettings
  1

  4
A3
  6

 40
7.5
 41
20.0
 42
7.5
 43
20.0
 44
420.0
 45
297.0
 46
0.0
 47
0.0
 48
0.0
 49
0.0
140
0.0
141
0.0
142
1.0
143
1.0
 70
1024
 72
1
 73
0
 74
5
  7

 75
16
 76
0
 77
2
 78
300
147
1.0
148
0.0
149
0.0
100
AcDbLayout
  1
Model
 70
1
 71
0
 10
0.0
 20
0.0
 11
420.0
 21
297.0
 12
0.0
 22
0.0
 32
0.0
 14
1e+20
 24
1e+20
 34
1e+20
 15
-1e+20
 25
-1e+20
 35
-1e+20
146
0.0
 13
0.0
 23
0.0
 33
0.0
 16
1.0
 26
0.0
 36
0.0
 17
0.0
 27
1.0
 37
0.0
 76
1
330
17
  0
LAYOUT
  5
1E
330
D
100
AcDbPlotSettings
  1

  4
A3
  6

 40
7.5
 41
20.0
 42
7.5
 43
20.0
 44
420.0
 45
297.0
 46
0.0
 47
0.0
 48
0.0
 49
0.0
140
0.0
141
0.0
142
1.0
143
1.0
 70
0
 72
1
 73
0
 74
5
  7

 75
16
 76
0
 77
2
 78
300
147
1.0
148
0.0
149
0.0
100
AcDbLayout
  1
Layout1
 70
1
 71
1
 10
0.0
 20
0.0
 11
420.0
 21
297.0
 12
0.0
 22
0.0
 32
0.0
 14
1e+20
 24
1e+20
 34
1e+20
 15
-1e+20
 25
-1e+20
 35
-1e+20
146
0.0
 13
0.0
 23
0.0
 33
0.0
 16
1.0
 26
0.0
 36
0.0
 17
0.0
 27
1.0
 37
0.0
 76
1
330
1B
  0
MATERIAL
  5
1F
102
{ACAD_REACTORS
330
E
102
}
330
E
100
AcDbMaterial
  1
ByBlock
  2

 70
0
 40
1.0
 71
1
 41
1.0
 91
-1023410177
 42
1.0
 72
1
  3

 73
1
 74
1
 75
1
 44
0.5
 73
0
 45
1.0
 46
1.0
 77
1
  4

 78
1
 79
1
170
1
 48
1.0
171
1
  6

172
1
173
1
174
1
140
1.0
141
1.0
175
1
  7

176
1
177
1
178
1
143
1.0
179
1
  8

270
1
271
1
272
1
145
1.0
146
1.0
273
1
  9

274
1
275
1
276
1
 42
1.0
 72
1
  3

 73
1
 74
1
 75
1
 94
63
  0
MATERIAL
  5
20
102
{ACAD_REACTORS
330
E
102
}
330
E
100
AcDbMaterial
  1
ByLayer
  2

 70
0
 40
1.0
 71
1
 41
1.0
 91
-1023410177
 42
1.0
 72
1
  3

 73
1
 74
1
 75
1
 44
0.5
 73
0
 45
1.0
 46
1.0
 77
1
  4

 78
1
 79
1
170
1
 48
1.0
171
1
  6

172
1
173
1
174
1
140
1.0
141
1.0
175
1
  7

176
1
177
1
178
1
143
1.0
179
1
  8

270
1
271
1
272
1
145
1.0
146
1.0
273
1
  9

274
1
275
1
276
1
 42
1.0
 72
1
  3

 73
1
 74
1
 75
1
 94
63
  0
MATERIAL
  5
21
102
{ACAD_REACTORS
330
E
102
}
330
E
100
AcDbMaterial
  1
Global
  2

 70
0
 40
1.0
 71
1
 41
1.0
 91
-1023410177
 42
1.0
 72
1
  3

 73
1
 74
1
 75
1
 44
0.5
 73
0
 45
1.0
 46
1.0
 77
1
  4

 78
1
 79
1
170
1
 48
1.0
171
1
  6

172
1
173
1
174
1
140
1.0
141
1.0
175
1
  7

176
1
177
1
178
1
143
1.0
179
1
  8

270
1
271
1
272
1
145
1.0
146
1.0
273
1
  9

274
1
275
1
276
1
 42
1.0
 72
1
  3

 73
1
 74
1
 75
1
 94
63
  0
MLINESTYLE
  5
22
102
{ACAD_REACTORS
330
10
102
}
330
10
100
AcDbMlineStyle
  2
Standard
 70
0
  3

 62
256
 51
90.0
 52
90.0
 71
2
 49
0.5
 62
256
  6
BYLAYER
 49
-0.5
 62
256
  6
BYLAYER
  0
MLEADERSTYLE
  5
2C
102
{ACAD_REACTORS
330
F
102
}
330
F
100
AcDbMLeaderStyle
179
2
170
2
171
1
172
0
 90
2
 40
0.0
 41
0.0
173
1
 91
-1056964608
 92
-2
290
1
 42
2.0
291
1
 43
8.0
  3
Standard
 44
4.0
300

342
29
174
1
175
1
176
0
178
1
 93
-1056964608
 45
4.0
292
0
297
0
 46
4.0
 94
-1056964608
 47
1.0
 49
1.0
140
1.0
294
1
141
0.0
177
0
142
1.0
295
0
296
0
143
3.75
271
0
272
9
273
9
  0
DICTIONARY
  5
2D
330
A
100
AcDbDictionary
280
1
281
1
  3
CREATED_BY_EZDXF
350
2E
  3
WRITTEN_BY_EZDXF
350
3A
  0
DICTIONARYVAR
  5
2E
330
2D
100
DictionaryVariables
280
0
  1
1.4.4 @ 2026-08-27T20:13:08.234237+00:00
  0
DICTIONARYVAR
  5
3A
330
2D
100
DictionaryVariables
280
0
  1
1.4.4 @ 2026-08-27T20:13:08.247384+00:00
  0
ENDSEC
  0
EOF
