  0
SECTION
  2
HEADER
  9
$ACADVER
  1
AC1024
  9
$ACADMAINTVER
 70
6
  9
$DWGCODEPAGE
  3
ANSI_1252
  9
$LASTSAVEDBY
  1
ezdxf
  9
$INSBASE
 10
0.0
 20
0.0
 30
0.0
  9
$EXTMIN
 10
1e+20
 20
1e+20
 30
1e+20
  9
$EXTMAX
 10
-1e+20
 20
-1e+20
 30
-1e+20
  9
$LIMMIN
 10
0.0
 20
0.0
  9
$LIMMAX
 10
420.0
 20
297.0
  9
$ORTHOMODE
 70
0
  9
$REGENMODE
 70
1
  9
$FILLMODE
 70
1
  9
$QTEXTMODE
 70
0
  9
$MIRRTEXT
 70
1
  9
$LTSCALE
 40
1.0
  9
$ATTMODE
 70
1
  9
$TEXTSIZE
 40
2.5
  9
$TRACEWID
 40
1.0
  9
$TEXTSTYLE
  7
Standard
  9
$CLAYER
  8
0
  9
$CELTYPE
  6
ByLayer
  9
$CECOLOR
 62
256
  9
$CELTSCALE
 40
1.0
  9
$DISPSILH
 70
0
  9
$DIMSCALE
 40
1.0
  9
$DIMASZ
 40
2.5
  9
$DIMEXO
 40
0.625
  9
$DIMDLI
 40
3.75
  9
$DIMRND
 40
0.0
  9
$DIMDLE
 40
0.0
  9
$DIMEXE
 40
1.25
  9
$DIMTP
 40
0.0
  9
$DIMTM
 40
0.0
  9
$DIMTXT
 40
2.5
  9
$DIMCEN
 40
2.5
  9
$DIMTSZ
 40
0.0
  9
$DIMTOL
 70
0
  9
$DIMLIM
 70
0
  9
$DIMTIH
 70
0
  9
$DIMTOH
 70
0
  9
$DIMSE1
 70
0
  9
$DIMSE2
 70
0
  9
$DIMTAD
 70
1
  9
$DIMZIN
 70
8
  9
$DIMBLK
  1

  9
$DIMASO
 70
1
  9
$DIMSHO
 70
1
  9
$DIMPOST
  1

  9
$DIMAPOST
  1

  9
$DIMALT
 70
0
  9
$DIMALTD
 70
3
  9
$DIMALTF
 40
0.03937007874
  9
$DIMLFAC
 40
1.0
  9
$DIMTOFL
 70
1
  9
$DIMTVP
 40
0.0
  9
$DIMTIX
 70
0
  9
$DIMSOXD
 70
0
  9
$DIMSAH
 70
0
  9
$DIMBLK1
  1

  9
$DIMBLK2
  1

  9
$DIMSTYLE
  2
ISO-25
  9
$DIMCLRD
 70
0
  9
$DIMCLRE
 70
0
  9
$DIMCLRT
 70
0
  9
$DIMTFAC
 40
1.0
  9
$DIMGAP
 40
0.625
  9
$DIMJUST
 70
0
  9
$DIMSD1
 70
0
  9
$DIMSD2
 70
0
  9
$DIMTOLJ
 70
0
  9
$DIMTZIN
 70
8
  9
$DIMALTZ
 70
0
  9
$DIMALTTZ
 70
0
  9
$DIMUPT
 70
0
  9
$DIMDEC
 70
2
  9
$DIMTDEC
 70
2
  9
$DIMALTU
 70
2
  9
$DIMALTTD
 70
3
  9
$DIMTXSTY
  7
Standard
  9
$DIMAUNIT
 70
0
  9
$DIMADEC
 70
0
  9
$DIMALTRND
 40
0.0
  9
$DIMAZIN
 70
0
  9
$DIMDSEP
 70
44
  9
$DIMATFIT
 70
3
  9
$DIMFRAC
 70
0
  9
$DIMLDRBLK
  1

  9
$DIMLUNIT
 70
2
  9
$DIMLWD
 70
-2
  9
$DIMLWE
 70
-2
  9
$DIMTMOVE
 70
0
  9
$DIMFXL
 40
1.0
  9
$DIMFXLON
 70
0
  9
$DIMJOGANG
 40
0.785398163397
  9
$DIMTFILL
 70
0
  9
$DIMTFILLCLR
 70
0
  9
$DIMARCSYM
 70
0
  9
$DIMLTYPE
  6

  9
$DIMLTEX1
  6

  9
$DIMLTEX2
  6

  9
$DIMTXTDIRECTION
 70
0
  9
$LUNITS
 70
2
  9
$LUPREC
 70
4
  9
$SKETCHINC
 40
1.0
  9
$FILLETRAD
 40
10.0
  9
$AUNITS
 70
0
  9
$AUPREC
 70
2
  9
$MENU
  1
.
  9
$ELEVATION
 40
0.0
  9
$PELEVATION
 40
0.0
  9
$THICKNESS
 40
0.0
  9
$LIMCHECK
 70
0
  9
$CHAMFERA
 40
0.0
  9
$CHAMFERB
 40
0.0
  9
$CHAMFERC
 40
0.0
  9
$CHAMFERD
 40
0.0
  9
$SKPOLY
 70
0
  9
$TDCREATE
 40
2461280.6340625
  9
$TDUCREATE
 40
2458532.153996898
  9
$TDUPDATE
 40
2461280.6340625
  9
$TDUUPDATE
 40
2458532.1544311
  9
$TDINDWG
 40
0.0
  9
$TDUSRTIMER
 40
0.0
  9
$USRTIMER
 70
1
  9
$ANGBASE
 50
0.0
  9
$ANGDIR
 70
0
  9
$PDMODE
 70
0
  9
$PDSIZE
 40
0.0
  9
$PLINEWID
 40
0.0
  9
$SPLFRAME
 70
0
  9
$SPLINETYPE
 70
6
  9
$SPLINESEGS
 70
8
  9
$HANDSEED
  5
3B
  9
$SURFTAB1
 70
6
  9
$SURFTAB2
 70
6
  9
$SURFTYPE
 70
6
  9
$SURFU
 70
6
  9
$SURFV
 70
6
  9
$UCSBASE
  2

  9
$UCSNAME
  2

  9
$UCSORG
 10
0.0
 20
0.0
 30
0.0
  9
$UCSXDIR
 10
1.0
 20
0.0
 30
0.0
  9
$UCSYDIR
 10
0.0
 20
1.0
 30
0.0
  9
$UCSORTHOREF
  2

  9
$UCSORTHOVIEW
 70
0
  9
$UCSORGTOP
 10
0.0
 20
0.0
 30
0.0
  9
$UCSORGBOTTOM
 10
0.0
 20
0.0
 30
0.0
  9
$UCSORGLEFT
 10
0.0
 20
0.0
 30
0.0
  9
$UCSORGRIGHT
 10
0.0
 20
0.0
 30
0.0
  9
$UCSORGFRONT
 10
0.0
 20
0.0
 30
0.0
  9
$UCSORGBACK
 10
0.0
 20
0.0
 30
0.0
  9
$PUCSBASE
  2

  9
$PUCSNAME
  2

  9
$PUCSORG
 10
0.0
 20
0.0
 30
0.0
  9
$PUCSXDIR
 10
1.0
 20
0.0
 30
0.0
  9
$PUCSYDIR
 10
0.0
 20
1.0
 30
0.0
  9
$PUCSORTHOREF
  2

  9
$PUCSORTHOVIEW
 70
0
  9
$PUCSORGTOP
 10
0.0
 20
0.0
 30
0.0
  9
$PUCSORGBOTTOM
 10
0.0
 20
0.0
 30
0.0
  9
$PUCSORGLEFT
 10
0.0
 20
0.0
 30
0.0
  9
$PUCSORGRIGHT
 10
0.0
 20
0.0
 30
0.0
  9
$PUCSORGFRONT
 10
0.0
 20
0.0
 30
0.0
  9
$PUCSORGBACK
 10
0.0
 20
0.0
 30
0.0
  9
$USERI1
 70
0
  9
$USERI2
 70
0
  9
$USERI3
 70
0
  9
$USERI4
 70
0
  9
$USERI5
 70
0
  9
$USERR1
 40
0.0
  9
$USERR2
 40
0.0
  9
$USERR3
 40
0.0
  9
$USERR4
 40
0.0
  9
$USERR5
 40
0.0
  9
$WORLDVIEW
 70
1
  9
$SHADEDGE
 70
3
  9
$SHADEDIF
 70
70
  9
$TILEMODE
 70
1
  9
$MAXACTVP
 70
64
  9
$PINSBASE
 10
0.0
 20
0.0
 30
0.0
  9
$PLIMCHECK
 70
0
  9
$PEXTMIN
 10
1e+20
 20
1e+20
 30
1e+20
  9
$PEXTMAX
 10
-1e+20
 20
-1e+20
 30
-1e+20
  9
$PLIMMIN
 10
0.0
 20
0.0
  9
$PLIMMAX
 10
420.0
 20
297.0
  9
$UNITMODE
 70
0
  9
$VISRETAIN
 70
1
  9
$PLINEGEN
 70
0
  9
$PSLTSCALE
 70
1
  9
$TREEDEPTH
 70
3020
  9
$CMLSTYLE
  2
Standard
  9
$CMLJUST
 70
0
  9
$CMLSCALE
 40
20.0
  9
$PROXYGRAPHICS
 70
1
  9
$MEASUREMENT
 70
1
  9
$CELWEIGHT
370
-1
  9
$ENDCAPS
280
0
  9
$JOINSTYLE
280
0
  9
$LWDISPLAY
290
0
  9
$INSUNITS
 70
6
  9
$HYPERLINKBASE
  1

  9
$STYLESHEET
  1

  9
$XEDIT
290
1
  9
$CEPSNTYPE
380
0
  9
$PSTYLEMODE
290
1
  9
$FINGERPRINTGUID
  2
{0ACF1E0F-E805-4C30-AD5C-3FFAE4877FB7}
  9
$VERSIONGUID
  2
{586CB306-56F6-46C0-AC26-27D8C3FB9502}
  9
$EXTNAMES
290
1
  9
$PSVPSCALE
 40
0.0
  9
$OLESTARTUP
290
0
  9
$SORTENTS
280
127
  9
$INDEXCTL
280
0
  9
$HIDETEXT
280
1
  9
$XCLIPFRAME
280
1
  9
$HALOGAP
280
0
  9
$OBSCOLOR
 70
257
  9
$OBSLTYPE
280
0
  9
$INTERSECTIONDISPLAY
280
0
  9
$INTERSECTIONCOLOR
 70
257
  9
$DIMASSOC
280
2
  9
$PROJECTNAME
  1

  9
$CAMERADISPLAY
290
0
  9
$LENSLENGTH
 40
50.0
  9
$CAMERAHEIGHT
 40
0.0
  9
$STEPSPERSEC
 40
24.0
  9
$STEPSIZE
 40
100.0
  9
$3DDWFPREC
 40
2.0
  9
$PSOLWIDTH
 40
0.005
  9
$PSOLHEIGHT
 40
0.08
  9
$LOFTANG1
 40
1.570796326795
  9
$LOFTANG2
 40
1.570796326795
  9
$LOFTMAG1
 40
0.0
  9
$LOFTMAG2
 40
0.0
  9
$LOFTPARAM
 70
7
  9
$LOFTNORMALS
280
1
  9
$LATITUDE
 40
37.795
  9
$LONGITUDE
 40
-122.394
  9
$NORTHDIRECTION
 40
0.0
  9
$TIMEZONE
 70
-8000
  9
$LIGHTGLYPHDISPLAY
280
1
  9
$TILEMODELIGHTSYNCH
280
1
  9
$CMATERIAL
347
20
  9
$SOLIDHIST
280
0
  9
$SHOWHIST
280
1
  9
$DWFFRAME
280
2
  9
$DGNFRAME
280
2
  9
$REALWORLDSCALE
290
1
  9
$INTERFERECOLOR
 62
256
  9
$CSHADOW
280
0
  9
$SHADOWPLANELOCATION
 40
0.0
  0
ENDSEC
  0
SECTION
  2
CLASSES
  0
CLASS
  1
ACDBDICTIONARYWDFLT
  2
AcDbDictionaryWithDefault
  3
ObjectDBX Classes
 90
0
 91
0
280
0
281
0
  0
CLASS
  1
SUN
  2
AcDbSun
  3
SCENEOE
 90
1153
 91
0
280
0
281
0
  0
CLASS
  1
VISUALSTYLE
  2
AcDbVisualStyle
  3
ObjectDBX Classes
 90
4095
 91
0
280
0
281
0
  0
CLASS
  1
MATERIAL
  2
AcDbMaterial
  3
ObjectDBX Classes
 90
1153
 91
0
280
0
281
0
  0
CLASS
  1
SCALE
  2
AcDbScale
  3
ObjectDBX Classes
 90
1153
 91
0
280
0
281
0
  0
CLASS
  1
TABLESTYLE
  2
AcDbTableStyle
  3
ObjectDBX Classes
 90
4095
 91
0
280
0
281
0
  0
CLASS
  1
MLEADERSTYLE
  2
AcDbMLeaderStyle
  3
ACDB_MLEADERSTYLE_CLASS
 90
4095
 91
0
280
0
281
0
  0
CLASS
  1
DICTIONARYVAR
  2
AcDbDictionaryVar
  3
ObjectDBX Classes
 90
0
 91
0
280
0
281
0
  0
CLASS
  1
CELLSTYLEMAP
  2
AcDbCellStyleMap
  3
ObjectDBX Classes
 90
1152
 91
0
280
0
281
0
  0
CLASS
  1
MENTALRAYRENDERSETTINGS
  2
AcDbMentalRayRenderSettings
  3
SCENEOE
 90
1024
 91
0
280
0
281
0
  0
CLASS
  1
ACDBDETAILVIEWSTYLE
  2
AcDbDetailViewStyle
  3
ObjectDBX Classes
 90
1025
 91
0
280
0
281
0
  0
CLASS
  1
ACDBSECTIONVIEWSTYLE
  2
AcDbSectionViewStyle
  3
ObjectDBX Classes
 90
1025
 91
0
280
0
281
0
  0
CLASS
  1
RASTERVARIABLES
  2
AcDbRasterVariables
  3
ISM
 90
0
 91
0
280
0
281
0
  0
CLASS
  1
ACDBPLACEHOLDER
  2
AcDbPlaceHolder
  3
ObjectDBX Classes
 90
0
 91
0
280
0
281
0
  0
CLASS
  1
LAYOUT
  2
AcDbLayout
  3
ObjectDBX Classes
 90
0
 91
0
280
0
281
0
  0
ENDSEC
  0
SECTION
  2
TABLES
  0
TABLE
  2
VPORT
  5
8
330
0
100
AcDbSymbolTable
 70
1
  0
VPORT
  5
23
330
8
100
AcDbSymbolTableRecord
100
AcDbViewportTableRecord
  2
*Active
 70
0
 10
0.0
 20
0.0
 11
1.0
 21
1.0
 12
0.0
 22
0.0
 13
0.0
 23
0.0
 14
0.5
 24
0.5
 15
0.5
 25
0.5
 16
0.0
 26
0.0
 36
1.0
 17
0.0
 27
0.0
 37
0.0
 40
1000.0
 41
1.34
 42
50.0
 43
0.0
 44
0.0
 50
0.0
 51
0.0
 71
0
 72
1000
 73
1
 74
3
 75
0
 76
0
 77
0
 78
0
281
0
 65
0
146
0.0
  0
ENDTAB
  0
TABLE
  2
LTYPE
  5
2
330
0
100
AcDbSymbolTable
 70
3
  0
LTYPE
  5
24
330
2
100
AcDbSymbolTableRecord
100
AcDbLinetypeTableRecord
  2
ByBlock
 70
0
  3

 72
65
 73
0
 40
0.0
  0
LTYPE
  5
25
330
2
100
AcDbSymbolTableRecord
100
AcDbLinetypeTableRecord
  2
ByLayer
 70
0
  3

 72
65
 73
0
 40
0.0
  0
LTYPE
  5
26
330
2
100
AcDbSymbolTableRecord
100
AcDbLinetypeTableRecord
  2
Continuous
 70
0
  3

 72
65
 73
0
 40
0.0
  0
ENDTAB
  0
TABLE
  2
LAYER
  5
1
330
0
100
AcDbSymbolTable
 70
3
  0
LAYER
  5
27
330
1
100
AcDbSymbolTableRecord
100
AcDbLayerTableRecord
  2
0
 70
0
 62
7
  6
Continuous
370
-3
390
13
347
21
  0
LAYER
  5
28
330
1
100
AcDbSymbolTableRecord
100
AcDbLayerTableRecord
  2
Defpoints
 70
0
 62
7
  6
Continuous
290
0
370
-3
390
13
347
21
  0
LAYER
  5
2F
330
1
100
AcDbSymbolTableRecord
100
AcDbLayerTableRecord
  2
TOPPERS_CUT
 70
0
 62
4
  6
Continuous
370
-3
390
13
347
21
  0
ENDTAB
  0
TABLE
  2
STYLE
  5
5
330
0
100
AcDbSymbolTable
 70
1
  0
STYLE
  5
29
330
5
100
AcDbSymbolTableRecord
100
AcDbTextStyleTableRecord
  2
Standard
 70
0
 40
0.0
 41
1.0
 50
0.0
 71
0
 42
2.5
  3
txt
  4

  0
ENDTAB
  0
TABLE
  2
VIEW
  5
7
330
0
100
AcDbSymbolTable
 70
0
  0
ENDTAB
  0
TABLE
  2
UCS
  5
6
330
0
100
AcDbSymbolTable
 70
0
  0
ENDTAB
  0
TABLE
  2
APPID
  5
3
330
0
100
AcDbSymbolTable
 70
3
  0
APPID
  5
2A
330
3
100
AcDbSymbolTableRecord
100
AcDbRegAppTableRecord
  2
ACAD
 70
0
  0
APPID
  5
38
330
3
100
AcDbSymbolTableRecord
100
AcDbRegAppTableRecord
  2
HATCHBACKGROUNDCOLOR
 70
0
  0
APPID
  5
39
330
3
100
AcDbSymbolTableRecord
100
AcDbRegAppTableRecord
  2
EZDXF
 70
0
  0
ENDTAB
  0
TABLE
  2
DIMSTYLE
  5
4
330
0
100
AcDbSymbolTable
 70
1
100
AcDbDimStyleTable
  0
DIMSTYLE
105
2B
330
4
100
AcDbSymbolTableRecord
100
AcDbDimStyleTableRecord
  2
Standard
 70
0
 40
1.0
 41
2.5
 42
0.625
 43
3.75
 44
1.25
 45
0.0
 46
0.0
 47
0.0
 48
0.0
 49
2.5
140
2.5
141
2.5
142
0.0
143
0.03937007874
144
1.0
145
0.0
146
1.0
147
0.625
148
0.0
 69
0
 70
0
 71
0
 72
0
 73
0
 74
0
 75
0
 76
0
 77
1
 78
8
 79
3
170
0
171
3
172
1
173
0
174
0
175
0
176
0
177
0
178
0
179
2
271
2
272
2
273
2
274
3
275
0
276
0
277
2
278
44
279
0
280
0
281
0
282
0
283
0
284
8
285
0
286
0
288
0
289
3
290
0
371
-2
372
-2
  0
ENDTAB
  0
TABLE
  2
BLOCK_RECORD
  5
9
330
0
100
AcDbSymbolTable
 70
2
  0
BLOCK_RECORD
  5
17
330
9
100
AcDbSymbolTableRecord
100
AcDbBlockTableRecord
  2
*Model_Space
340
1A
 70
0
280
1
281
0
  0
BLOCK_RECORD
  5
1B
330
9
100
AcDbSymbolTableRecord
100
AcDbBlockTableRecord
  2
*Paper_Space
340
1E
 70
0
280
1
281
0
  0
ENDTAB
  0
ENDSEC
  0
SECTION
  2
BLOCKS
  0
BLOCK
  5
18
330
17
100
AcDbEntity
  8
0
100
AcDbBlockBegin
  2
*Model_Space
 70
0
 10
0.0
 20
0.0
 30
0.0
  3
*Model_Space
  1

  0
ENDBLK
  5
19
330
17
100
AcDbEntity
  8
0
100
AcDbBlockEnd
  0
BLOCK
  5
1C
330
1B
100
AcDbEntity
  8
0
100
AcDbBlockBegin
  2
*Paper_Space
 70
0
 10
0.0
 20
0.0
 30
0.0
  3
*Paper_Space
  1

  0
ENDBLK
  5
1D
330
1B
100
AcDbEntity
  8
0
100
AcDbBlockEnd
  0
ENDSEC
  0
SECTION
  2
ENTITIES
  0
LWPOLYLINE
  5
30
330
17
100
AcDbEntity
  8
TOPPERS_CUT
100
AcDbPolyline
 90
127
 70
1
 10
86.47838211300027
 20
50.7930443206418
 10
86.45542098779025
 20
52.69290557524148
 10
87.32272629888112
 20
55.40358473319314
 10
89.19962642827078
 20
57.32640711300286
 10
90.38866247712899
 20
58.24084315478799
 10
93.48118522140952
 20
58.87826222895161
 10
95.45445260758706
 20
61.10227118186706
 10
96.34713600443636
 20
61.713103689998036
 10
97.83977558694875
 20
62.33118707977426
 10
99.33724909055796
 20
62.54929967910847
 10
101.13832612782136
 20
62.47105962643376
 10
102.04551128796122
 20
61.88197976323862
 10
102.94665404673
 20
61.79286338809601
 10
104.25622695786032
 20
61.00863205077668
 10
105.45493084891226
 20
61.12312651167774
 10
107.64631083442396
 20
61.849661960983966
 10
110.25337185394251
 20
61.281126262450414
 10
112.67011532043368
 20
59.91023202248435
 10
113.3833574867236
 20
58.81877171068824
 10
114.28570872576661
 20
58.62966263793512
 10
115.19531084645489
 20
57.840597379518954
 10
116.09524512494947
 20
57.851473701986855
 10
116.8000279293199
 20
57.45996227346429
 10
117.7011706880887
 20
57.370845898321704
 10
119.11194477710373
 20
56.487830343666076
 10
120.64083876784245
 20
54.10613280512702
 10
121.1589294600082
 20
52.612284742340435
 10
121.09398269034982
 20
49.711288031361434
 10
120.51577914962256
 20
47.90416859272699
 10
121.12540317747933
 20
47.111477893488185
 10
122.02654593624811
 20
47.02236151834558
 10
121.93138715973448
 20
46.62118224762933
 10
121.03991224315935
 20
45.910357041887856
 10
120.33875487961159
 20
46.00189037757888
 10
120.04240222760268
 20
45.69828684392472
 10
119.95570281300851
 20
44.59715868993489
 10
120.26534874803374
 20
43.80084254987345
 10
121.47734592210197
 20
42.815417337058896
 10
121.68579067924247
 20
42.117885414333756
 10
122.09059539078135
 20
41.72274854498856
 10
122.99294662982439
 20
41.53363947223544
 10
124.40251223856521
 20
40.75061661519034
 10
127.70347973998624
 20
40.69050376662882
 10
128.79373157150815
 20
41.50373863052922
 10
129.2936950595607
 20
41.50978103190028
 10
130.68271650363994
 20
42.426634034233835
 10
130.4730632662252
 20
43.224158654569486
 10
130.0670500744121
 20
43.71928822152519
 10
129.2719424146249
 20
43.30964958888946
 10
128.6707777486876
 20
43.4023914048547
 10
128.26476455687452
 20
43.8975209718104
 10
128.04786043781453
 20
45.295001777809105
 10
127.64063876572723
 20
45.89012404237532
 10
127.24066797528519
 20
45.88529012127847
 10
126.74553840832948
 20
45.47927692946538
 10
125.8456041298349
 20
45.46840060699747
 10
125.16015700985186
 20
44.260028873751864
 10
124.955337693534
 20
44.65758270364549
 10
124.92633416695291
 20
47.057407446297724
 10
125.32388799684654
 20
47.26222676261558
 10
126.03350472231378
 20
46.470744543650994
 10
126.8237784610042
 20
47.28035396672876
 10
127.12738199465835
 20
46.984001314719876
 10
127.13584135657781
 20
46.284052431446305
 10
127.54064606811671
 20
45.888915562101104
 10
127.83579023985139
 20
46.29251179336579
 10
127.92611509526819
 20
47.09366185452408
 10
128.41761922140125
 20
47.799653139168704
 10
130.41626469333724
 20
47.92381544226345
 10
130.79931675994035
 20
49.328547129907435
 10
130.39451204840142
 20
49.72368399925263
 10
130.38242724565933
 20
50.723610975357715
 10
129.77401169807678
 20
51.41630897698602
 10
129.76917777697994
 20
51.81627976742806
 10
130.56307695649295
 20
52.32591109767431
 10
131.33643197134435
 20
54.535418287299215
 10
131.93034575563635
 20
55.042632656997036
 10
132.7145770929557
 20
56.35220556812735
 10
134.89508075599952
 20
57.97867529592817
 10
138.38153188935104
 20
59.1208917792412
 10
139.8620866691213
 20
60.738902145122516
 10
141.5486692454836
 20
61.85936598349973
 10
143.94366006703902
 20
62.28834030052285
 10
146.25074299372602
 20
61.71617916116666
 10
147.1506772722206
 20
61.72705548363457
 10
150.33473335219216
 20
63.06563192134597
 10
153.634492373339
 20
63.10551177039497
 10
155.34645303545975
 20
62.12612895895147
 10
157.87527400230357
 20
59.75651622315453
 10
160.58353619970683
 20
59.08919630728468
 10
160.98954939151992
 20
58.594066740328984
 10
161.79311641322664
 20
58.303756489691146
 10
163.71110487193954
 20
56.82682715074352
 10
164.73761841407725
 20
54.63907260605443
 10
165.06780851376408
 20
52.14288060661431
 10
164.88474184238203
 20
50.74056587951876
 10
164.1101783472564
 20
48.631051387504364
 10
162.13328552025624
 20
46.70702052742043
 10
162.03812674374257
 20
46.305841256704184
 10
160.24067514730183
 20
46.084103216547355
 10
159.54918562594773
 20
45.37569497135431
 10
159.1217309543479
 20
39.37009071335267
 10
157.7774232804145
 20
34.75350789943025
 10
154.85256812910035
 20
28.517706239352286
 10
151.70476645735513
 20
24.179348873325587
 10
146.7619301497176
 20
19.419268071921042
 10
143.48754921432925
 20
17.279541573051347
 10
138.41813364304852
 20
14.718091638803802
 10
135.52922173481164
 20
13.78311143235707
 10
129.04298967314486
 20
12.604640540817694
 10
125.24326716394549
 20
12.558718290397646
 10
121.53870343125978
 20
12.913975310693848
 10
115.31982049502078
 20
14.438932695460872
 10
109.98999551480847
 20
16.87470068119039
 10
106.6648584079032
 20
18.934667481962105
 10
103.33247041935265
 20
21.594590468396877
 10
101.40964803954294
 20
23.471490597786538
 10
98.46393755841811
 20
27.236167179033764
 10
95.70733615004639
 20
31.903194999324008
 10
93.32411896608406
 20
38.77489608814231
 10
92.55528670718041
 20
44.46602049002188
 10
92.35288435141096
 20
44.66358892469448
 10
91.45415855319058
 20
44.55271990461606
 10
90.54818187332495
 20
45.041807070200704
 10
89.84702450977717
 20
45.13334040589173
 10
88.23022262417004
 20
46.51390248805148
 10
87.41819624054384
 20
47.50416162196288
  0
LWPOLYLINE
  5
31
330
17
100
AcDbEntity
  8
TOPPERS_CUT
100
AcDbPolyline
 90
64
 70
1
 10
36.17031775764289
 20
9.782086506696256
 10
34.35473895708896
 20
11.06023893069707
 10
32.828261926898655
 20
13.241951074015109
 10
29.449951687928063
 20
19.70159656964925
 10
27.69811117675829
 20
23.98073840223957
 10
26.678848516265806
 20
25.56853676126561
 10
26.0740584095059
 20
25.961256670062376
 10
22.865832724050108
 20
26.622534184561168
 10
21.16595686467144
 20
26.601990019899567
 10
19.46124708419593
 20
26.981416645680003
 10
17.260199256490502
 20
27.054822777257858
 10
12.146069915063963
 20
28.19310265459917
 10
9.430556836015446
 20
29.460378756132076
 10
8.714897709177125
 20
30.751824463149223
 10
8.601611728550285
 20
31.850535656590615
 10
8.791929281577609
 20
32.65289419802311
 10
10.462801614375191
 20
35.07326310533695
 10
11.650629182959191
 20
36.08769184473259
 10
12.634845915499536
 20
37.39968171641134
 10
17.088595057552425
 20
41.25378583795024
 10
20.447258446986556
 20
44.69462588603078
 10
20.425505802050743
 20
46.494494443019946
 10
18.926512653018236
 20
54.67697692324278
 10
18.658852362441355
 20
60.27415102888291
 10
19.1382716858323
 20
61.980069289632624
 10
20.32489077414209
 20
63.09449072663879
 10
20.822437301646218
 20
63.300518523230856
 10
23.32346322218317
 20
63.23073783247564
 10
27.344923771539367
 20
61.47920848645494
 10
28.85689903843913
 20
60.49740871446302
 10
30.46524156212677
 20
59.816795515576835
 10
31.172441327045618
 20
59.22529869183327
 10
36.102295516815886
 20
56.78469678500689
 10
37.70459563913247
 20
56.60404707417327
 10
43.27276621819151
 20
59.27153210740238
 10
45.15691722922644
 20
60.59439830154903
 10
48.636117480932676
 20
62.33657097052511
 10
51.821382041178445
 20
63.57515471062601
 10
54.42119217905171
 20
63.60657519775551
 10
55.835591708889375
 20
62.423581550268366
 10
56.24402186125089
 20
61.72846658809165
 10
56.67783009937087
 20
58.93350497609422
 10
56.32015611852624
 20
55.42892663862953
 10
54.701248437519766
 20
48.70887173406377
 10
54.24720719988727
 20
44.90310682349334
 10
54.6556373522488
 20
44.20799186131662
 10
58.096477400329334
 20
40.849328471882494
 10
61.12767881577413
 20
38.285772742235594
 10
63.76132640132531
 20
35.51739769627083
 10
65.18539377335668
 20
33.5344624678996
 10
65.49624818865611
 20
32.63815363022765
 10
65.61436809037981
 20
31.13947164634421
 10
65.42163357680406
 20
30.537098500132732
 10
64.5349925813258
 20
29.426302503949216
 10
62.94598574202555
 20
28.507032541067236
 10
57.35968795885333
 20
27.339437971995768
 10
49.868694999984584
 20
26.54885306815632
 10
47.977293107304384
 20
25.82594305967272
 10
46.89308367715353
 20
24.512744707719765
 10
43.4863922419
 20
16.771010182113105
 10
40.93975523609207
 20
12.339911000121166
 10
39.85554580594121
 20
11.02671264816821
 10
38.76529397441929
 20
10.213477784267802
 10
37.770200919411046
 20
9.801422191083644
  0
LWPOLYLINE
  5
32
330
17
100
AcDbEntity
  8
TOPPERS_CUT
100
AcDbPolyline
 90
91
 70
1
 10
6.378463910437905
 20
75.12682955727973
 10
5.457985467281716
 20
76.81582909419049
 10
5.219328703285918
 20
80.01317845717838
 10
5.78786440181947
 20
82.62023947669692
 10
7.827287037929584
 20
87.64525244298085
 10
8.64504465777777
 20
94.45563220296341
 10
9.518392370239697
 20
96.66634787286253
 10
11.49045127614302
 20
98.99034952338849
 10
13.676997340557904
 20
100.11685576313677
 10
14.575723138778281
 20
100.22772478321517
 10
15.863543404972791
 20
101.24336200288502
 10
14.540677210826138
 20
103.12751301391998
 10
13.617781807121526
 20
105.01649794605173
 10
13.297259549628397
 20
106.71274836460778
 10
13.463407497171485
 20
109.51496085825048
 10
14.923418112280142
 20
112.83284708351047
 10
17.29303084807708
 20
115.36166805035433
 10
17.979686448334316
 20
116.47004708598938
 10
17.8482732635943
 20
119.06864874358844
 10
18.037382336347413
 20
119.97099998263145
 10
18.431310725418392
 20
120.47579739178084
 10
20.027568446363915
 20
120.79511116899978
 10
22.54793005128826
 20
119.1254473164764
 10
23.646641244729658
 20
119.23873329710322
 10
26.651256094141793
 20
118.87501691488755
 10
28.764396026978822
 20
117.80047532693038
 10
29.873983542888123
 20
117.01382702906264
 10
32.407638430828804
 20
114.24424350282365
 10
33.426901091321284
 20
112.65644514379763
 10
34.96908836507635
 20
109.17482793154298
 10
35.84968695918355
 20
110.78558741577902
 10
37.332658699502225
 20
112.20361238643932
 10
38.333794155881534
 20
112.11570449157095
 10
40.66142124723014
 20
109.84366749283609
 10
42.3202087772856
 20
113.26396337625502
 10
43.79351267541058
 20
115.48192992779941
 10
45.07649902050825
 20
116.89753793791131
 10
46.859448853658456
 20
118.31918834939424
 10
49.647159584010616
 20
119.35295277317728
 10
52.84330046672428
 20
119.69160223478359
 10
55.322573742325424
 20
121.42169010101755
 10
56.22371650109422
 20
121.33257372587494
 10
57.13090166123409
 20
120.74349386267981
 10
57.54537421496667
 20
119.54841541245052
 10
57.361099063310405
 20
118.24609338296548
 10
57.47921896503409
 20
116.74741139908205
 10
59.50445100300273
 20
114.67173435474558
 10
59.711687279869025
 20
114.07419512963092
 10
61.13333769135197
 20
112.29124529648072
 10
62.27434569439079
 20
108.90478686073973
 10
62.39004863556604
 20
107.6060902720773
 10
62.01545593088245
 20
105.50140970115976
 10
61.333634251722074
 20
103.99305987508265
 10
59.86033035359708
 20
101.77509332353823
 10
60.36633624302069
 20
101.28117223685673
 10
64.18660291688165
 20
99.62721862789812
 10
66.21425191539872
 20
97.35155618834064
 10
67.14439820074861
 20
94.86261507054579
 10
67.70357722223753
 20
89.96901528900187
 10
68.23012727632275
 20
87.77521834294171
 10
69.76748062898096
 20
84.69357192112909
 10
70.59884269699454
 20
82.10342962544954
 10
70.82299769769979
 20
80.10599263378776
 10
70.64839038823723
 20
78.00372902341863
 10
70.16534562402364
 20
76.59778885550044
 10
68.98114349626228
 20
75.28338202327328
 10
66.69339625396267
 20
74.2556600008613
 10
64.7947434796372
 20
74.13270617804076
 10
59.981800711316396
 20
75.1746187985942
 10
57.16629493465738
 20
76.4406864198529
 10
52.53037643634757
 20
79.38487725555446
 10
48.38837902471926
 20
82.83507398067961
 10
45.955925314663304
 20
85.5058732895823
 10
42.604201641725375
 20
89.76567943778522
 10
41.82842966632553
 20
87.75615764338133
 10
40.15030645188268
 20
85.93574492173056
 10
39.45519148970596
 20
85.52731476936903
 10
37.65411445244257
 20
85.60555482204373
 10
36.95779100999164
 20
85.29711736729271
 10
35.243413387322434
 20
86.47648557395723
 10
34.33139430608573
 20
87.46553622759441
 10
33.50849159999162
 20
89.35572964000042
 10
32.81216815754068
 20
89.0472921852494
 10
28.874092747105102
 20
83.89932539614493
 10
28.178977784928385
 20
83.49089524378341
 10
25.41422817978625
 20
80.5572695654007
 10
20.955645116636514
 20
77.10313623430383
 10
16.483768770470448
 20
74.74892257692258
 10
13.294878769402043
 20
73.81031692965323
 10
9.798759793856837
 20
73.46804202722427
 10
8.194042710991834
 20
73.84867713327893
  0
LWPOLYLINE
  5
33
330
17
100
AcDbEntity
  8
TOPPERS_CUT
100
AcDbPolyline
 90
163
 70
1
 10
94.47686442639383
 20
75.79152988841831
 10
92.3516396908147
 20
77.86599845248057
 10
91.11909835208486
 20
80.55129952467378
 10
90.78044889047854
 20
83.74744040738746
 10
91.25020037167579
 20
86.25330024902127
 10
91.83928023487094
 20
87.16048540916111
 10
93.52223737041065
 20
88.58092734036987
 10
94.21856081286158
 20
88.88936479512087
 10
95.3208974471256
 20
88.70267268291619
 10
97.5086519918147
 20
89.72918622505394
 10
98.71339828423767
 20
89.34371719790245
 10
99.61333256273227
 20
89.35459352037034
 10
101.00718792790835
 20
89.87147573226187
 10
101.61439499521667
 20
89.27877042824407
 10
102.50949535261441
 20
89.68961754115402
 10
99.57345271368328
 20
92.65435254151717
 10
98.35420465796977
 20
94.23973393999478
 10
98.43969559228972
 20
95.44085479159511
 10
99.1287681530954
 20
96.34924843200918
 10
100.02266003021893
 20
96.86008824252963
 10
102.4152338912259
 20
97.48904795477378
 10
107.02214886295462
 20
96.94468186172446
 10
107.81967348329026
 20
97.15433509913917
 10
108.11481765502495
 20
97.55793133040386
 10
107.7834190750639
 20
100.15411602745446
 10
107.16775264583609
 20
101.44677021474583
 10
105.75577007654684
 20
102.42977846701197
 10
103.0571757213373
 20
102.29715680199772
 10
101.44883319764965
 20
102.97777000088392
 10
100.64043225484609
 20
103.66805104196378
 10
99.82598891067147
 20
104.8582955710962
 10
99.61391871270834
 20
105.8558055866529
 10
99.80665322628408
 20
106.45817873286437
 10
100.99810623569071
 20
107.17262937942849
 10
101.48840188154958
 20
107.97861336168361
 10
102.28109258078838
 20
108.58823738954035
 10
103.38584617560085
 20
108.20155988211465
 10
104.59663486939485
 20
107.3161273669106
 10
105.29779223294263
 20
107.2245940312196
 10
106.99404265149865
 20
107.54511628871273
 10
107.58553947524224
 20
108.25231605363156
 10
107.97100850239374
 20
109.45706234605453
 10
107.65652864627165
 20
110.65334927655799
 10
107.04327917759227
 20
111.74601806862833
 10
106.91186599285224
 20
114.34461972622739
 10
107.09976658533117
 20
115.3469636628809
 10
108.17309969301411
 20
117.56009629332843
 10
108.45857602255509
 20
118.7636341054772
 10
107.55139086241525
 20
119.35271396867236
 10
106.14545069449704
 20
119.83575873288594
 10
105.0310292574909
 20
121.0223778211957
 10
105.21651288942137
 20
122.22470715307027
 10
106.90309546578371
 20
123.34517099144747
 10
110.29559630289575
 20
123.98621550643372
 10
110.99796214671775
 20
123.79468947313221
 10
112.89661492104324
 20
123.91764329595273
 10
116.0024309483401
 20
123.45514269640076
 10
118.31555627639814
 20
122.38301806899202
 10
118.62641069169759
 20
121.48670923132006
 10
118.44334402031555
 20
120.08439450422449
 10
118.65541421827865
 20
119.0868844886678
 10
119.15900314715384
 20
118.79294879720734
 10
120.25892282086946
 20
118.80624208022368
 10
120.95524626332039
 20
119.11467953497467
 10
123.4526467430347
 20
119.344876937051
 10
124.24775440282194
 20
119.75451556968673
 10
125.23197113536227
 20
121.0665054413655
 10
125.22834569453964
 20
121.36648353419703
 10
123.71395346709146
 20
122.54826870140997
 10
122.99950282052737
 20
123.7397217108166
 10
122.6874399249537
 20
124.73602324609905
 10
123.38013792658201
 20
125.34443879368159
 10
124.17887102719187
 20
125.4540993334858
 10
124.77278481148387
 20
125.96131370318362
 10
125.66909364915583
 20
126.27216811848305
 10
126.76780484259723
 20
126.3854540991099
 10
127.67015608164022
 20
126.19634502635677
 10
128.66524913664847
 20
126.60840061954093
 10
131.16627505718543
 20
126.53861992878574
 10
133.17217141076668
 20
126.06282604621742
 10
135.6876990945942
 20
124.79313298413608
 10
136.60092665610512
 20
123.7040896328884
 10
136.71662959728036
 20
122.40539304422596
 10
135.9384406613321
 20
120.59585664504309
 10
135.95656786544527
 20
119.09596618088544
 10
136.56498341302782
 20
118.40326817925714
 10
137.862471521416
 20
118.61896381804293
 10
141.47066799731385
 20
117.96252022464098
 10
143.0802190012757
 20
117.18191432814429
 10
144.68372760386652
 20
116.90127191970016
 10
149.21119404264633
 20
114.65582148699795
 10
150.1207961633346
 20
113.86675622858179
 10
151.02556436292602
 20
113.47766176060766
 10
154.77121642493495
 20
109.72265302155411
 10
156.70974904830942
 20
106.54584782322783
 10
157.63626989283665
 20
104.35688479826452
 10
158.1640284271961
 20
102.06309515459385
 10
158.08941381534402
 20
99.96204002449893
 10
157.40154973481256
 20
98.95365368647435
 10
156.70039237126477
 20
99.04518702216538
 10
155.79441569139914
 20
99.53427418775001
 10
154.87997964961397
 20
100.72331023660823
 10
152.4741125055907
 20
101.19427019807969
 10
151.5512171018861
 20
103.08325513021148
 10
150.75490096182466
 20
102.77360919518625
 10
149.05623358272018
 20
102.65307233291415
 10
148.2429987188198
 20
103.74332416443606
 10
147.23944630189206
 20
104.03121745452547
 10
146.5419143791669
 20
103.82277269738498
 10
145.75284912075074
 20
102.91317057669669
 10
144.95411602014087
 20
102.80351003689248
 10
143.44214075324112
 20
103.7853098088844
 10
142.5422064747465
 20
103.77443348641648
 10
142.05311930916187
 20
102.86845680655085
 10
141.96762837484192
 20
101.66733595495052
 10
141.67127572283303
 20
101.36373242129636
 10
140.67376570727635
 20
101.1516622233332
 10
138.370308221412
 20
101.42384526985788
 10
137.87880409527892
 20
100.71785398521325
 10
137.80902340452369
 20
98.21682806467629
 10
137.61266345012535
 20
97.91443301129634
 10
136.81393034951546
 20
97.80477247149213
 10
136.11881538733874
 20
97.39634231913061
 10
134.61650796263268
 20
97.57820051023845
 10
132.71906366858138
 20
97.35525398980741
 10
132.13602620675732
 20
95.948105341615
 10
132.4517145431536
 20
94.65182571350101
 10
131.9674612986658
 20
93.34587824319331
 10
127.86655221636067
 20
93.39632324956115
 10
127.571408044626
 20
92.99272701829646
 10
127.48108318920917
 20
92.1915769571382
 10
128.09070721706593
 20
91.39888625789938
 10
128.50638825107274
 20
90.1038151100596
 10
128.12212770419544
 20
88.79907612002611
 10
126.12952463363051
 20
88.17495032887884
 10
125.3356254541175
 20
87.66531899863259
 10
125.7513064881243
 20
86.37024785079281
 10
127.17174841933304
 20
84.68729071525311
 10
127.39227797921566
 20
82.98983181642286
 10
126.3068600687906
 20
81.77662616208042
 10
125.21056583589761
 20
81.46335478623256
 10
124.1203140043757
 20
80.65011992233215
 10
125.56130010024603
 20
77.26728692741378
 10
125.67700304142129
 20
75.96859033875137
 10
125.08550621767775
 20
75.26139057383253
 10
124.48917547283732
 20
74.95416159935573
 10
122.49294696144975
 20
74.63001390103997
 10
121.39181880745994
 20
74.71671331563414
 10
119.99796344228385
 20
74.19983110374262
 10
119.40646661854028
 20
73.49263133882378
 10
119.03187391385669
 20
71.38795076790623
 10
118.24764257653737
 20
70.07837785677592
 10
117.55011065381223
 20
69.86993309963542
 10
115.94781053149563
 20
70.05058281046904
 10
114.83580605503789
 20
71.03721650355781
 10
112.72870852357194
 20
71.61179460346243
 10
111.5287961522458
 20
71.59729284017189
 10
108.93865385656625
 20
70.7659307721583
 10
106.83518176592293
 20
71.04053077923137
 10
105.93041356633151
 20
71.42962524720551
 10
102.49319895907358
 20
74.48831054380811
 10
99.19343993792675
 20
74.44843069475913
 10
96.7899897544519
 20
74.71940526100957
  0
LWPOLYLINE
  5
34
330
17
100
AcDbEntity
  8
TOPPERS_CUT
100
AcDbPolyline
 90
161
 70
1
 10
90.54507022183425
 20
128.04783088966593
 10
90.52694301772107
 20
129.5477213538236
 10
91.20513925605881
 20
131.35604927273224
 10
92.6772346739096
 20
133.67400852188712
 10
92.96512796399901
 20
134.67756093881485
 10
94.43480642130135
 20
137.1955055831908
 10
95.12508746238123
 20
138.00390652599432
 10
95.50934800925852
 20
139.30864551602784
 10
94.89005613920806
 20
140.90127779615074
 10
93.67685048486562
 20
141.98669570657574
 10
92.97448464104363
 20
142.1782217398773
 10
91.97576614521275
 20
142.06614423952468
 10
90.38917626646092
 20
140.94688888142167
 10
89.47957414577263
 20
141.73595413983784
 10
88.96510889442953
 20
142.92982410979292
 10
89.04334894710425
 20
144.7309011470563
 10
89.72275366571621
 20
146.43923636835444
 10
91.10573270842437
 20
147.85605285874053
 10
93.29227877283927
 20
148.98255909848882
 10
93.98135133364494
 20
149.89095273890288
 10
93.76686417513336
 20
151.08844814968057
 10
91.72713037387419
 20
154.36403756534315
 10
90.79940104907271
 20
156.65299328791698
 10
90.97159139798687
 20
158.95524229350713
 10
91.45584464247466
 20
160.2611897638148
 10
92.6364213294134
 20
161.8755746888735
 10
94.221802727891
 20
163.09482274458702
 10
96.61316810862375
 20
163.82377515444168
 10
97.31553395244575
 20
163.63224912114012
 10
98.0130658751709
 20
163.84069387828063
 10
100.31289792021262
 20
163.86848892458752
 10
100.70924326983203
 20
164.17330093851587
 10
100.794734204152
 20
165.3744217901162
 10
100.9056032242304
 20
164.47569599189586
 10
101.31040793576929
 20
164.08055912255065
 10
101.81037142382185
 20
164.08660152392173
 10
102.41516153058174
 20
163.69388161512492
 10
102.81150688020116
 20
163.99869362905332
 10
102.20550829316704
 20
164.4914062354606
 10
102.19342349042492
 20
165.4913332115657
 10
102.68734457710642
 20
165.9973391009893
 10
102.58010099785062
 20
166.59608680637817
 10
102.27770594447068
 20
166.79244676077653
 10
101.68862608127553
 20
165.88526160063668
 10
101.18624563267454
 20
166.07920459448664
 10
101.27657048809138
 20
166.8803546556449
 10
101.87048427238335
 20
167.38756902534274
 10
101.46688804111868
 20
167.68271319707742
 10
100.77056459866776
 20
167.3742757423264
 10
100.85726401326193
 20
168.47540389631624
 10
98.92839923208116
 20
170.85226751375845
 10
98.1776941772907
 20
175.04350145148038
 10
98.24143246667487
 20
178.04449086006986
 10
98.90391846144786
 20
181.15272384791515
 10
100.46996417553808
 20
183.97185506539682
 10
101.36506453293582
 20
184.38270217830674
 10
104.16727702657852
 20
184.21655423076368
 10
104.67207443572791
 20
183.8226258416927
 10
105.56838327339986
 20
184.13348025699213
 10
106.16108857741764
 20
184.74068732430047
 10
106.73687515759647
 20
186.74779215815593
 10
106.50305231469751
 20
189.54517073070178
 10
107.09334065816688
 20
190.35236319323113
 10
108.48598754306875
 20
190.96923810273316
 10
110.58220875206682
 20
191.29459428132313
 10
112.88566623793118
 20
191.02241123479845
 10
114.2928148861236
 20
190.43937377297436
 10
115.00484857213928
 20
189.44790615878873
 10
116.21805422648174
 20
188.36248824836372
 10
116.43012442444486
 20
187.364978232807
 10
116.93854727441689
 20
186.6710717509045
 10
117.73607189475256
 20
186.88072498831923
 10
120.13831359795321
 20
186.70974311967927
 10
121.03583091589937
 20
186.92060483736822
 10
121.83818945733188
 20
186.73028728434087
 10
122.43210324162388
 20
187.2375016540387
 10
122.81757226877536
 20
188.4422479464617
 10
123.31028487518265
 20
189.04824653349579
 10
125.00170137264183
 20
189.76873958143096
 10
127.59909454996667
 20
190.0001454637815
 10
130.80852871569667
 20
189.23887525167217
 10
132.19271623867905
 20
190.55569904444778
 10
133.2853850307494
 20
191.16894851312716
 10
134.38288774391657
 20
191.3822271913645
 10
137.38387715250607
 20
191.31848890198034
 10
138.9910111959195
 20
190.73786840070468
 10
140.6138554828977
 20
188.8573428304924
 10
141.5104754857187
 20
180.86759486384534
 10
142.43820481052018
 20
178.57863914127148
 10
143.12727737132582
 20
179.48703278168554
 10
144.02358620899776
 20
179.797887196985
 10
144.61629151301557
 20
180.40509426429335
 10
148.10032568581863
 20
181.74729614282737
 10
149.9001942428078
 20
181.76904878776318
 10
151.4037101477881
 20
181.48719789904484
 10
153.11204536908627
 20
180.80779318043287
 10
154.72643029414496
 20
179.62721649349413
 10
155.43967246043485
 20
178.53575618169802
 10
156.26740908762582
 20
176.24559197884997
 10
157.68301709773772
 20
174.9626056337523
 10
159.00709177215856
 20
172.97846192510687
 10
159.23366373341224
 20
170.7810395382241
 10
159.0421377001107
 20
170.07867369440208
 10
158.25307244169454
 20
169.1690715737138
 10
157.55191507814675
 20
169.26060490940486
 10
156.54111177957375
 20
170.14845438515732
 10
155.84478833712282
 20
169.8400169304063
 10
155.25208303310504
 20
169.232809863098
 10
154.77145522943985
 20
167.62688429995876
 10
154.92703801966414
 20
163.0284286901495
 10
154.0645666296701
 20
159.9177787417558
 10
152.6900469488814
 20
157.80101336809614
 10
150.9083055960054
 20
156.2793702590027
 10
146.8279406783619
 20
154.62993940599182
 10
143.82211734867553
 20
155.09364848581805
 10
141.00782005229073
 20
156.25972340946623
 10
139.59462900272726
 20
157.34272435934287
 10
139.18619885036577
 20
158.03783932151958
 10
137.87179201813856
 20
159.22204144928094
 10
136.0719234611494
 20
159.20028880434512
 10
133.78175925830138
 20
158.37255217715418
 10
130.38563298036667
 20
158.03148575499944
 10
129.99533003211835
 20
157.22671025301852
 10
130.8025224946477
 20
156.63642190954917
 10
131.8350784381565
 20
153.9487038768075
 10
131.46411117429554
 20
151.54404521305844
 10
131.06897430495036
 20
151.13924050151954
 10
130.46660115873888
 20
151.33197501509528
 10
129.6582002159353
 20
152.0222560561752
 10
129.05824403027225
 20
152.0150051745299
 10
128.16676911369714
 20
151.30417996878842
 10
127.7764661654488
 20
150.4994044668075
 10
128.00666356752512
 20
148.0020039870932
 10
127.55020536934418
 20
144.39622447174378
 10
126.57928191982019
 20
141.9843149263494
 10
124.90961806729679
 20
139.46395332142507
 10
124.21692006566852
 20
138.8555377738425
 10
121.83401404685526
 20
137.4266364807143
 10
119.8402024960161
 20
136.90250338717752
 10
118.55359071009579
 20
135.7868734698972
 10
116.66702273851244
 20
134.66399267097154
 10
112.67939963683418
 20
133.61572648389796
 10
111.40245569310757
 20
131.70015498573352
 10
109.61829737968317
 20
130.37849727186108
 10
109.11833389163061
 20
130.37245487049
 10
107.80755250022608
 20
131.25667890541985
 10
106.89190797816673
 20
132.54570765188856
 10
106.09438335783109
 20
132.33605441447386
 10
105.2041169215302
 20
131.52523651112188
 10
104.30901656413243
 20
131.11438939821193
 10
103.00911149519581
 20
131.0986791546472
 10
102.60551526393115
 20
131.39382332638186
 10
102.08138217039436
 20
133.38763487722102
 10
101.1729885299803
 20
134.07670743802666
 10
100.37304694909622
 20
134.067039595833
 10
97.69620523882246
 20
132.13454937382954
 10
97.00592419774259
 20
131.326148431026
 10
95.81326270806174
 20
130.71169048207238
 10
93.83395292051316
 20
128.9876450172095
 10
92.24615456148712
 20
127.96838235671703
 10
91.04865915070943
 20
127.75389519820544
  0
LWPOLYLINE
  5
35
330
17
100
AcDbEntity
  8
TOPPERS_CUT
100
AcDbPolyline
 90
106
 70
1
 10
35.68895908271338
 20
124.08461619797681
 10
34.362467447744095
 20
126.26874530184327
 10
33.85767003859469
 20
126.66267369091426
 10
32.3529456533402
 20
127.0445172772431
 10
32.144500896199695
 20
127.74204919996828
 10
31.539710789439795
 20
128.13476910876506
 10
29.854336693351673
 20
126.91431257277732
 10
29.053186632193377
 20
127.00463742819413
 10
28.82540619066549
 20
129.30205251268745
 10
28.4206014791266
 20
129.69718938203263
 10
27.22431454862312
 20
129.38270952591054
 10
27.496497595147776
 20
131.6861670117749
 10
24.864058489870803
 20
134.35454936012917
 10
23.126719741991575
 20
137.43377882139336
 10
22.284481351510088
 20
140.92385539556753
 10
22.44216993713369
 20
144.4260167724838
 10
21.930121646339025
 20
145.41990134721783
 10
20.3133197607319
 20
146.80046342937757
 10
19.49887641655728
 20
147.99070795850997
 10
19.080778422002066
 20
149.4857645015708
 10
19.067485138985738
 20
150.58568417528642
 10
19.35537842907515
 20
151.58923659221415
 10
20.731106590138047
 20
153.6060092682633
 10
20.91659022206853
 20
154.80833860013783
 10
18.79015700621516
 20
156.9827998618106
 10
18.47446866981888
 20
158.27907948992458
 10
18.461175386802548
 20
159.3789991636402
 10
18.75027715716617
 20
160.2825588829574
 10
20.03084654171541
 20
161.8981522882903
 10
20.221164094742736
 20
162.70051082972282
 10
20.104252673293256
 20
164.09920011599576
 10
18.391083530898264
 20
165.17857562504975
 10
17.776625581944664
 20
166.3712371147306
 10
18.762050794759222
 20
167.58323428879885
 10
19.760769290590105
 20
167.69531178915148
 10
20.348640673511046
 20
168.70248964690182
 10
19.326961052470136
 20
170.4902734011489
 10
15.159585555083373
 20
176.04031677609476
 10
13.62827460379622
 20
178.62199970985483
 10
11.981260711333805
 20
182.50237923227732
 10
11.769190513370665
 20
183.499889247834
 10
11.85226448714221
 20
184.90099549465535
 10
12.843732101327825
 20
185.61302918067105
 10
14.124301485877064
 20
187.22862258600395
 10
16.109653674796718
 20
188.4527045628143
 10
17.503509039972794
 20
188.96958677470582
 10
20.59844874480175
 20
189.4070204536484
 10
22.586217894269826
 20
190.43111703523775
 10
25.577539460665633
 20
191.16732032673767
 10
28.27613381587518
 20
191.29994199175192
 10
30.379605906518528
 20
191.02534198467882
 10
33.06974089980859
 20
191.85791253296662
 10
36.5658598753538
 20
192.20018743539555
 10
38.86810888094395
 20
192.0279970864814
 10
41.77756495384242
 20
191.26310143354948
 10
46.076042470820134
 20
191.41505878295112
 10
49.08307428078069
 20
190.8513570055144
 10
51.294998430954024
 20
189.87801659544195
 10
55.40557535545283
 20
189.02763000819004
 10
57.41993107095357
 20
187.85188724234814
 10
58.739171824277584
 20
186.26771432414478
 10
59.74876664257638
 20
185.4798575460028
 10
59.86567806402586
 20
184.08116825972988
 10
58.715313383942416
 20
179.96696589440845
 10
55.48927165952252
 20
173.82753149111835
 10
53.03175102885719
 20
170.29757506789522
 10
52.84385043637828
 20
169.29523113124168
 10
53.2522805887398
 20
168.60011616906496
 10
53.75224407679235
 20
168.60615857043604
 10
54.65822075665801
 20
168.1170714048514
 10
55.17147752772689
 20
167.02319413250686
 10
54.88116727708905
 20
166.21962711080013
 10
52.70308057459365
 20
164.39317198777832
 10
53.44049234636778
 20
161.30185772377197
 10
54.958510014638605
 20
159.82009446372751
 10
55.47176678570749
 20
158.72621719138294
 10
55.49110247009487
 20
157.1263340296148
 10
55.006849225607084
 20
155.8203865593071
 10
53.12994909621741
 20
153.8975641794974
 10
52.739646147969076
 20
153.09278867751647
 10
52.95534178675484
 20
151.79530056912827
 10
53.466181597275295
 20
150.90140869200474
 10
53.88427959183052
 20
149.40635214894394
 10
53.409694189536424
 20
147.3004630977522
 10
52.62425437194288
 20
146.09088288423237
 10
51.33764258602258
 20
144.975252966952
 10
50.45341855109275
 20
143.66447157554748
 10
49.82114456317505
 20
138.05642114743944
 10
48.652652678978434
 20
135.44210924627566
 10
47.8672128613849
 20
134.23252903275585
 10
46.48423381867672
 20
132.81571254236974
 10
44.7988597225886
 20
131.59525600638202
 10
44.508549471950765
 20
130.79168898467532
 10
44.62666937367445
 20
129.29300700079187
 10
44.529093636612366
 20
129.09181312529662
 10
43.724318134631446
 20
129.482116073545
 10
43.23039704794995
 20
128.9761101841214
 10
42.94733767895739
 20
127.57258697675161
 10
42.16431482191227
 20
126.16302136801077
 10
41.4534896161708
 20
127.05449628458587
 10
40.54630445603094
 20
127.64357614778103
 10
39.646370177536355
 20
127.63269982531313
 10
38.85972187966861
 20
126.52311230940381
 10
37.95616216035138
 20
126.81221407976746
 10
36.77075155231581
 20
125.5977999451508
 10
36.38528252516431
 20
124.39305365272784
  0
LWPOLYLINE
  5
36
330
17
100
AcDbEntity
  8
TOPPERS_CUT
100
AcDbPolyline
 90
81
 70
1
 10
-2.46364617532172
 20
219.2304974121658
 10
-2.6808614595307754
 20
228.92858060011105
 10
-3.803742258456407
 20
230.81514857169435
 10
-3.7508802915401582
 20
234.71607225877847
 10
-3.4581530803539
 20
235.31965388526413
 10
-2.164290412788332
 20
235.83532761688147
 10
2.435373677295117
 20
235.89091770949523
 10
2.9329202047992418
 20
236.09694550608725
 10
3.3268485938702215
 20
236.60174291523668
 10
3.6074910023143625
 20
238.20525151782743
 10
4.6808241099973085
 20
240.41838414827498
 10
6.5565157591127585
 20
242.44119922569521
 10
7.350414938625777
 20
242.9508305559415
 10
10.339319544473161
 20
243.88701924266243
 10
12.437957714019657
 20
244.01239002603137
 10
16.150980808624848
 20
242.9571841224616
 10
18.677384814920252
 20
240.78755678188568
 10
20.421974444444754
 20
237.10837113495845
 10
21.027973031478872
 20
236.61565852855114
 10
22.625439232698604
 20
236.83497960815953
 10
27.925052206055618
 20
236.89902906269276
 10
30.83571675922831
 20
236.03414071215033
 10
31.735651037722896
 20
236.04501703461824
 10
32.629542914846425
 20
236.55585684513866
 10
33.627052930403096
 20
236.76792704310182
 10
43.527538474117776
 20
236.78757389263828
 10
44.833485944425455
 20
236.30332064815053
 10
46.23459219124681
 20
236.22024667437896
 10
46.7285132779283
 20
236.72625256380252
 10
47.10431446288611
 20
238.73094043710958
 10
48.96671282898522
 20
241.8536751882454
 10
50.64846148425071
 20
243.37410981706466
 10
53.638574570372306
 20
244.2103058061751
 10
55.93719813513983
 20
244.33809355009248
 10
57.13952746701436
 20
244.152609918162
 10
59.34782617636506
 20
243.4792476009211
 10
61.265814635077916
 20
242.00231826197347
 10
62.58626386867614
 20
240.31815264615958
 10
63.30433995606289
 20
238.8267215439214
 10
63.723646430892316
 20
237.23167230325006
 10
64.43447163663379
 20
236.340197386675
 10
66.24884195691351
 20
235.16203766028465
 10
68.55109096250366
 20
234.9898473113705
 10
69.45948460291773
 20
234.30077475056487
 10
69.50178141251514
 20
230.80103033419704
 10
68.11880236980697
 20
229.3842138438109
 10
67.6478424083355
 20
226.97834669978766
 10
68.16230765967859
 20
225.78447672983256
 10
68.86709046404901
 20
225.39296530131
 10
71.59952226693649
 20
222.72579143322997
 10
72.22002261726115
 20
221.03316645549657
 10
72.24177526219697
 20
219.23329789850737
 10
70.76878252922106
 20
208.7147289650165
 10
70.78207581223738
 20
207.6148092913009
 10
71.49169253770464
 20
206.82332707233627
 10
71.80133847272987
 20
206.02701093227483
 10
71.73880866361992
 20
202.92602882607486
 10
70.84733374704481
 20
202.21520362033334
 10
67.2488051133407
 20
202.07170563285123
 10
66.7464246647397
 20
202.2656486267012
 10
36.74861538158678
 20
201.90310454443764
 10
35.25476731880019
 20
201.38501385227192
 10
32.40815222016073
 20
196.95028922945735
 10
30.917929598196782
 20
196.13222044446007
 10
27.72058023520889
 20
195.8935636804643
 10
19.91994134131492
 20
195.8992949166863
 10
19.012756181175064
 20
196.48837477988144
 10
18.80189446348614
 20
197.3858920978276
 10
18.78376725937296
 20
198.88578256198525
 10
19.96917786740854
 20
200.10019669660193
 10
19.861934288152757
 20
200.69894440199076
 10
19.55833075449859
 20
200.99529705399965
 10
18.75597221306609
 20
201.18561460702696
 10
14.55627891342468
 20
201.13485843551007
 10
12.549174079569216
 20
201.7106450156889
 10
10.828754055528947
 20
203.38997671040596
 10
6.593703662786325
 20
214.53961115154033
 10
5.785302719982764
 20
215.22989219262027
 10
2.3795085998543732
 20
215.68876735134958
 10
-0.7323498288135472
 20
216.6512314389541
 10
-1.6407434692276177
 20
217.34030399975978
  0
LWPOLYLINE
  5
37
330
17
100
AcDbEntity
  8
TOPPERS_CUT
100
AcDbPolyline
 90
141
 70
1
 10
110.54112042274362
 20
194.69434600008046
 10
107.9243915610314
 20
196.0628232794981
 10
106.20759697781378
 20
197.44217688138363
 10
104.5847526908356
 20
199.32270245159592
 10
102.16800922434439
 20
200.69359669156196
 10
100.54999885846306
 20
202.1741514713322
 10
99.32591688165272
 20
204.1595036602519
 10
99.09088555847954
 20
207.05687493040824
 10
99.37636188802054
 20
208.26041274255698
 10
99.96181631039305
 20
209.4675759955284
 10
101.44116260988909
 20
211.1855790590202
 10
101.9254158543769
 20
212.49152652932793
 10
101.40369972138852
 20
214.28535268494602
 10
100.08687592861294
 20
215.6695402079284
 10
99.082115031411
 20
216.05742619562835
 10
98.08943893695117
 20
215.44538520722318
 10
96.83787307898301
 20
211.429967059238
 10
96.14638355762892
 20
210.72155881404493
 10
95.24040687776328
 20
211.2106459796296
 10
94.15136352651558
 20
210.2974184181187
 10
92.7575081613395
 20
209.78053620622714
 10
91.5491364280939
 20
210.4659833262102
 10
90.83951970262663
 20
211.25746554517482
 10
90.51053808321403
 20
213.6536648470044
 10
91.2008191242939
 20
214.46206578980795
 10
92.19349521875372
 20
215.07410677821312
 10
93.27770464890457
 20
216.3873051301661
 10
94.6655176127096
 20
217.40415083011015
 10
96.72548441348131
 20
220.72928793701539
 10
98.10846345618948
 20
222.14610442740155
 10
98.98664508974827
 20
223.9568493068586
 10
98.77578337205935
 20
224.85436662480475
 10
98.36977018024623
 20
225.3494961917605
 10
97.46741894120323
 20
225.5386052645136
 10
96.67231128141599
 20
225.12896663187786
 10
95.9590691151261
 20
226.22042694367397
 10
96.24212848411867
 20
227.62395015104372
 10
97.22755369693321
 20
228.83594732511196
 10
96.61309574797961
 20
230.02860881479282
 10
96.58409222139854
 20
232.42843355744503
 10
97.17075512404526
 20
233.5356041128059
 10
98.25738151474454
 20
234.64881706953787
 10
99.65244536019483
 20
235.0657065838189
 10
101.94986044468814
 20
235.2934870253468
 10
103.04494619730687
 20
235.7067510988051
 10
103.4400830666521
 20
236.11155581034404
 10
104.02191204820197
 20
237.61869715614694
 10
105.5988340847601
 20
239.53789409513402
 10
105.87222561155895
 20
241.74135888338787
 10
106.54679640907409
 20
243.84966489512803
 10
107.8164894711554
 20
246.36519257895552
 10
109.68855567944824
 20
248.6879857492073
 10
112.86052695667767
 20
251.02648916302383
 10
115.24705841631358
 20
252.15541236332052
 10
118.53473263471827
 20
253.1952191884746
 10
123.02836162582014
 20
253.74956428886668
 10
127.93162924955774
 20
253.5088017294715
 10
133.14937672941747
 20
252.07175223957287
 10
136.4720968757743
 20
250.21177083402216
 10
140.00567873982007
 20
247.45427211052532
 10
143.05621583965225
 20
243.29083321911025
 10
144.39358379708943
 20
240.2067698367492
 10
145.12374468721833
 20
237.715411758406
 10
145.93697955111872
 20
236.62515992688404
 10
147.24655246224907
 20
235.84092858956473
 10
152.1510285662609
 20
235.50017333255906
 10
154.05693222223164
 20
235.02317096971652
 10
156.5712514257849
 20
233.85347060524572
 10
159.00249665556663
 20
231.28266399395352
 10
160.2362464745707
 20
228.4973702241498
 10
160.66522079159384
 20
226.10237940259444
 10
160.506323725696
 20
222.70021072328868
 10
159.93778802716244
 20
220.09314970377017
 10
159.1523482095689
 20
218.88356949025032
 10
158.74996045857844
 20
219.0787209643745
 10
157.8355244167933
 20
220.26775701323268
 10
157.21623254674287
 20
221.86038929335558
 10
155.99819297130358
 20
223.3457779942227
 10
154.3874334870675
 20
224.22637658832986
 10
152.48032135082255
 20
224.80337164878296
 10
150.06599484487978
 20
225.97428049352797
 10
149.76722523232246
 20
225.87066235509482
 10
149.1769368888531
 20
225.06346989256545
 10
149.29868223139943
 20
223.2648098158505
 10
148.92288104644163
 20
221.26012194254344
 10
147.28342920077355
 20
216.23994289735637
 10
147.3100157668062
 20
214.0401035499252
 10
148.14742023619084
 20
210.94999776619306
 10
147.94985180151826
 20
210.74759541042363
 10
147.34868713558097
 20
210.84033722638887
 10
144.6259231748872
 20
212.70756951358482
 10
142.70068383452906
 20
214.78445503819552
 10
141.17178984379032
 20
217.16615257673453
 10
139.82354556388523
 20
221.1501502375902
 10
139.6933408594194
 20
223.64875919757873
 10
140.74008740106973
 20
228.06173117545745
 10
142.00978046315103
 20
230.577258859285
 10
142.58315008278143
 20
232.78434908836147
 10
141.65421227770577
 20
235.17329750854577
 10
140.84460285462802
 20
235.9635712472362
 10
140.2313533859486
 20
237.05624003930652
 10
137.90493477487422
 20
239.22828434043086
 10
135.990571756984
 20
240.40523558654695
 10
133.47987799425334
 20
241.27495785818624
 10
131.80658870090735
 20
239.05457434609343
 10
129.52246689943038
 20
237.7268742308499
 10
129.2273227276957
 20
237.32327799958526
 10
129.83694675555245
 20
236.53058730034644
 10
131.34529658162958
 20
235.84876562118606
 10
132.9512221447688
 20
235.3681378175209
 10
134.45232108920067
 20
235.2862723240236
 10
135.8630951782157
 20
234.40325676936794
 10
136.1691156724183
 20
233.90691872213802
 10
136.1824089554346
 20
232.8069990484224
 10
134.8957971695143
 20
231.69136913114207
 10
135.62716653991737
 20
229.1000183551883
 10
136.13679787016363
 20
228.30611917567526
 10
136.93794793132193
 20
228.21579432025845
 10
137.4427453404713
 20
227.8218659311875
 10
138.56683461967117
 20
225.83530526199365
 10
138.5825448632359
 20
224.535400193057
 10
136.92254885290623
 20
221.21509700724854
 10
135.14322446057867
 20
219.4934685029341
 10
134.36261856408197
 20
217.88391749897224
 10
134.58919052533565
 20
215.68649511208946
 10
135.53142161342765
 20
212.1976270181895
 10
135.46043244239823
 20
209.79659379526305
 10
134.59191865103315
 20
207.18590733492186
 10
133.9064715310501
 20
205.9775356016763
 10
131.13809648508536
 20
203.34388801612513
 10
130.66109412224282
 20
201.4379843601544
 10
129.9756470022598
 20
200.2296126269088
 10
128.98901330917104
 20
199.11760815045105
 10
127.50120764775552
 20
198.09955397023276
 10
125.8085826700221
 20
197.47905361990811
 10
125.00864108913804
 20
197.46938577771442
 10
122.7305616890321
 20
195.64172217441836
 10
120.04163517601626
 20
194.70915892852005
 10
118.74173010707962
 20
194.6934486849553
 10
116.64671737835579
 20
194.2680998087548
 10
112.44702407871436
 20
194.21734363723795
  0
ENDSEC
  0
SECTION
  2
OBJECTS
  0
DICTIONARY
  5
A
330
0
100
AcDbDictionary
281
1
  3
ACAD_COLOR
350
B
  3
ACAD_GROUP
350
C
  3
ACAD_LAYOUT
350
D
  3
ACAD_MATERIAL
350
E
  3
ACAD_MLEADERSTYLE
350
F
  3
ACAD_MLINESTYLE
350
10
  3
ACAD_PLOTSETTINGS
350
11
  3
ACAD_PLOTSTYLENAME
350
12
  3
ACAD_SCALELIST
350
14
  3
ACAD_TABLESTYLE
350
15
  3
ACAD_VISUALSTYLE
350
16
  3
EZDXF_META
350
2D
  0
DICTIONARY
  5
B
330
A
100
AcDbDictionary
281
1
  0
DICTIONARY
  5
C
330
A
100
AcDbDictionary
281
1
  0
DICTIONARY
  5
D
330
A
100
AcDbDictionary
281
1
  3
Model
350
1A
  3
Layout1
350
1E
  0
DICTIONARY
  5
E
330
A
100
AcDbDictionary
281
1
  3
ByBlock
350
1F
  3
ByLayer
350
20
  3
Global
350
21
  0
DICTIONARY
  5
F
330
A
100
AcDbDictionary
281
1
  3
Standard
350
2C
  0
DICTIONARY
  5
10
330
A
100
AcDbDictionary
281
1
  3
Standard
350
22
  0
DICTIONARY
  5
11
330
A
100
AcDbDictionary
281
1
  0
ACDBDICTIONARYWDFLT
  5
12
330
A
100
AcDbDictionary
281
1
  3
Normal
350
13
100
AcDbDictionaryWithDefault
340
13
  0
ACDBPLACEHOLDER
  5
13
330
12
  0
DICTIONARY
  5
14
330
A
100
AcDbDictionary
281
1
  0
DICTIONARY
  5
15
330
A
100
AcDbDictionary
281
1
  0
DICTIONARY
  5
16
330
A
100
AcDbDictionary
281
1
  0
LAYOUT
  5
1A
330
D
100
AcDbPlotSettings
  1

  4
A3
  6

 40
7.5
 41
20.0
 42
7.5
 43
20.0
 44
420.0
 45
297.0
 46
0.0
 47
0.0
 48
0.0
 49
0.0
140
0.0
141
0.0
142
1.0
143
1.0
 70
1024
 72
1
 73
0
 74
5
  7

 75
16
 76
0
 77
2
 78
300
147
1.0
148
0.0
149
0.0
100
AcDbLayout
  1
Model
 70
1
 71
0
 10
0.0
 20
0.0
 11
420.0
 21
297.0
 12
0.0
 22
0.0
 32
0.0
 14
1e+20
 24
1e+20
 34
1e+20
 15
-1e+20
 25
-1e+20
 35
-1e+20
146
0.0
 13
0.0
 23
0.0
 33
0.0
 16
1.0
 26
0.0
 36
0.0
 17
0.0
 27
1.0
 37
0.0
 76
1
330
17
  0
LAYOUT
  5
1E
330
D
100
AcDbPlotSettings
  1

  4
A3
  6

 40
7.5
 41
20.0
 42
7.5
 43
20.0
 44
420.0
 45
297.0
 46
0.0
 47
0.0
 48
0.0
 49
0.0
140
0.0
141
0.0
142
1.0
143
1.0
 70
0
 72
1
 73
0
 74
5
  7

 75
16
 76
0
 77
2
 78
300
147
1.0
148
0.0
149
0.0
100
AcDbLayout
  1
Layout1
 70
1
 71
1
 10
0.0
 20
0.0
 11
420.0
 21
297.0
 12
0.0
 22
0.0
 32
0.0
 14
1e+20
 24
1e+20
 34
1e+20
 15
-1e+20
 25
-1e+20
 35
-1e+20
146
0.0
 13
0.0
 23
0.0
 33
0.0
 16
1.0
 26
0.0
 36
0.0
 17
0.0
 27
1.0
 37
0.0
 76
1
330
1B
  0
MATERIAL
  5
1F
102
{ACAD_REACTORS
330
E
102
}
330
E
100
AcDbMaterial
  1
ByBlock
  2

 70
0
 40
1.0
 71
1
 41
1.0
 91
-1023410177
 42
1.0
 72
1
  3

 73
1
 74
1
 75
1
 44
0.5
 73
0
 45
1.0
 46
1.0
 77
1
  4

 78
1
 79
1
170
1
 48
1.0
171
1
  6

172
1
173
1
174
1
140
1.0
141
1.0
175
1
  7

176
1
177
1
178
1
143
1.0
179
1
  8

270
1
271
1
272
1
145
1.0
146
1.0
273
1
  9

274
1
275
1
276
1
 42
1.0
 72
1
  3

 73
1
 74
1
 75
1
 94
63
  0
MATERIAL
  5
20
102
{ACAD_REACTORS
330
E
102
}
330
E
100
AcDbMaterial
  1
ByLayer
  2

 70
0
 40
1.0
 71
1
 41
1.0
 91
-1023410177
 42
1.0
 72
1
  3

 73
1
 74
1
 75
1
 44
0.5
 73
0
 45
1.0
 46
1.0
 77
1
  4

 78
1
 79
1
170
1
 48
1.0
171
1
  6

172
1
173
1
174
1
140
1.0
141
1.0
175
1
  7

176
1
177
1
178
1
143
1.0
179
1
  8

270
1
271
1
272
1
145
1.0
146
1.0
273
1
  9

274
1
275
1
276
1
 42
1.0
 72
1
  3

 73
1
 74
1
 75
1
 94
63
  0
MATERIAL
  5
21
102
{ACAD_REACTORS
330
E
102
}
330
E
100
AcDbMaterial
  1
Global
  2

 70
0
 40
1.0
 71
1
 41
1.0
 91
-1023410177
 42
1.0
 72
1
  3

 73
1
 74
1
 75
1
 44
0.5
 73
0
 45
1.0
 46
1.0
 77
1
  4

 78
1
 79
1
170
1
 48
1.0
171
1
  6

172
1
173
1
174
1
140
1.0
141
1.0
175
1
  7

176
1
177
1
178
1
143
1.0
179
1
  8

270
1
271
1
272
1
145
1.0
146
1.0
273
1
  9

274
1
275
1
276
1
 42
1.0
 72
1
  3

 73
1
 74
1
 75
1
 94
63
  0
MLINESTYLE
  5
22
102
{ACAD_REACTORS
330
10
102
}
330
10
100
AcDbMlineStyle
  2
Standard
 70
0
  3

 62
256
 51
90.0
 52
90.0
 71
2
 49
0.5
 62
256
  6
BYLAYER
 49
-0.5
 62
256
  6
BYLAYER
  0
MLEADERSTYLE
  5
2C
102
{ACAD_REACTORS
330
F
102
}
330
F
100
AcDbMLeaderStyle
179
2
170
2
171
1
172
0
 90
2
 40
0.0
 41
0.0
173
1
 91
-1056964608
 92
-2
290
1
 42
2.0
291
1
 43
8.0
  3
Standard
 44
4.0
300

342
29
174
1
175
1
176
0
178
1
 93
-1056964608
 45
4.0
292
0
297
0
 46
4.0
 94
-1056964608
 47
1.0
 49
1.0
140
1.0
294
1
141
0.0
177
0
142
1.0
295
0
296
0
143
3.75
271
0
272
9
273
9
  0
DICTIONARY
  5
2D
330
A
100
AcDbDictionary
280
1
281
1
  3
CREATED_BY_EZDXF
350
2E
  3
WRITTEN_BY_EZDXF
350
3A
  0
DICTIONARYVAR
  5
2E
330
2D
100
DictionaryVariables
280
0
  1
1.4.4 @ 2026-08-27T20:13:03.523586+00:00
  0
DICTIONARYVAR
  5
3A
330
2D
100
DictionaryVariables
280
0
  1
1.4.4 @ 2026-08-27T20:13:03.534250+00:00
  0
ENDSEC
  0
EOF
