  0
SECTION
  2
HEADER
  9
$ACADVER
  1
AC1024
  9
$ACADMAINTVER
 70
6
  9
$DWGCODEPAGE
  3
ANSI_1252
  9
$LASTSAVEDBY
  1
ezdxf
  9
$INSBASE
 10
0.0
 20
0.0
 30
0.0
  9
$EXTMIN
 10
1e+20
 20
1e+20
 30
1e+20
  9
$EXTMAX
 10
-1e+20
 20
-1e+20
 30
-1e+20
  9
$LIMMIN
 10
0.0
 20
0.0
  9
$LIMMAX
 10
420.0
 20
297.0
  9
$ORTHOMODE
 70
0
  9
$REGENMODE
 70
1
  9
$FILLMODE
 70
1
  9
$QTEXTMODE
 70
0
  9
$MIRRTEXT
 70
1
  9
$LTSCALE
 40
1.0
  9
$ATTMODE
 70
1
  9
$TEXTSIZE
 40
2.5
  9
$TRACEWID
 40
1.0
  9
$TEXTSTYLE
  7
Standard
  9
$CLAYER
  8
0
  9
$CELTYPE
  6
ByLayer
  9
$CECOLOR
 62
256
  9
$CELTSCALE
 40
1.0
  9
$DISPSILH
 70
0
  9
$DIMSCALE
 40
1.0
  9
$DIMASZ
 40
2.5
  9
$DIMEXO
 40
0.625
  9
$DIMDLI
 40
3.75
  9
$DIMRND
 40
0.0
  9
$DIMDLE
 40
0.0
  9
$DIMEXE
 40
1.25
  9
$DIMTP
 40
0.0
  9
$DIMTM
 40
0.0
  9
$DIMTXT
 40
2.5
  9
$DIMCEN
 40
2.5
  9
$DIMTSZ
 40
0.0
  9
$DIMTOL
 70
0
  9
$DIMLIM
 70
0
  9
$DIMTIH
 70
0
  9
$DIMTOH
 70
0
  9
$DIMSE1
 70
0
  9
$DIMSE2
 70
0
  9
$DIMTAD
 70
1
  9
$DIMZIN
 70
8
  9
$DIMBLK
  1

  9
$DIMASO
 70
1
  9
$DIMSHO
 70
1
  9
$DIMPOST
  1

  9
$DIMAPOST
  1

  9
$DIMALT
 70
0
  9
$DIMALTD
 70
3
  9
$DIMALTF
 40
0.03937007874
  9
$DIMLFAC
 40
1.0
  9
$DIMTOFL
 70
1
  9
$DIMTVP
 40
0.0
  9
$DIMTIX
 70
0
  9
$DIMSOXD
 70
0
  9
$DIMSAH
 70
0
  9
$DIMBLK1
  1

  9
$DIMBLK2
  1

  9
$DIMSTYLE
  2
ISO-25
  9
$DIMCLRD
 70
0
  9
$DIMCLRE
 70
0
  9
$DIMCLRT
 70
0
  9
$DIMTFAC
 40
1.0
  9
$DIMGAP
 40
0.625
  9
$DIMJUST
 70
0
  9
$DIMSD1
 70
0
  9
$DIMSD2
 70
0
  9
$DIMTOLJ
 70
0
  9
$DIMTZIN
 70
8
  9
$DIMALTZ
 70
0
  9
$DIMALTTZ
 70
0
  9
$DIMUPT
 70
0
  9
$DIMDEC
 70
2
  9
$DIMTDEC
 70
2
  9
$DIMALTU
 70
2
  9
$DIMALTTD
 70
3
  9
$DIMTXSTY
  7
Standard
  9
$DIMAUNIT
 70
0
  9
$DIMADEC
 70
0
  9
$DIMALTRND
 40
0.0
  9
$DIMAZIN
 70
0
  9
$DIMDSEP
 70
44
  9
$DIMATFIT
 70
3
  9
$DIMFRAC
 70
0
  9
$DIMLDRBLK
  1

  9
$DIMLUNIT
 70
2
  9
$DIMLWD
 70
-2
  9
$DIMLWE
 70
-2
  9
$DIMTMOVE
 70
0
  9
$DIMFXL
 40
1.0
  9
$DIMFXLON
 70
0
  9
$DIMJOGANG
 40
0.785398163397
  9
$DIMTFILL
 70
0
  9
$DIMTFILLCLR
 70
0
  9
$DIMARCSYM
 70
0
  9
$DIMLTYPE
  6

  9
$DIMLTEX1
  6

  9
$DIMLTEX2
  6

  9
$DIMTXTDIRECTION
 70
0
  9
$LUNITS
 70
2
  9
$LUPREC
 70
4
  9
$SKETCHINC
 40
1.0
  9
$FILLETRAD
 40
10.0
  9
$AUNITS
 70
0
  9
$AUPREC
 70
2
  9
$MENU
  1
.
  9
$ELEVATION
 40
0.0
  9
$PELEVATION
 40
0.0
  9
$THICKNESS
 40
0.0
  9
$LIMCHECK
 70
0
  9
$CHAMFERA
 40
0.0
  9
$CHAMFERB
 40
0.0
  9
$CHAMFERC
 40
0.0
  9
$CHAMFERD
 40
0.0
  9
$SKPOLY
 70
0
  9
$TDCREATE
 40
2461280.634398148
  9
$TDUCREATE
 40
2458532.153996898
  9
$TDUPDATE
 40
2461280.634398148
  9
$TDUUPDATE
 40
2458532.1544311
  9
$TDINDWG
 40
0.0
  9
$TDUSRTIMER
 40
0.0
  9
$USRTIMER
 70
1
  9
$ANGBASE
 50
0.0
  9
$ANGDIR
 70
0
  9
$PDMODE
 70
0
  9
$PDSIZE
 40
0.0
  9
$PLINEWID
 40
0.0
  9
$SPLFRAME
 70
0
  9
$SPLINETYPE
 70
6
  9
$SPLINESEGS
 70
8
  9
$HANDSEED
  5
3B
  9
$SURFTAB1
 70
6
  9
$SURFTAB2
 70
6
  9
$SURFTYPE
 70
6
  9
$SURFU
 70
6
  9
$SURFV
 70
6
  9
$UCSBASE
  2

  9
$UCSNAME
  2

  9
$UCSORG
 10
0.0
 20
0.0
 30
0.0
  9
$UCSXDIR
 10
1.0
 20
0.0
 30
0.0
  9
$UCSYDIR
 10
0.0
 20
1.0
 30
0.0
  9
$UCSORTHOREF
  2

  9
$UCSORTHOVIEW
 70
0
  9
$UCSORGTOP
 10
0.0
 20
0.0
 30
0.0
  9
$UCSORGBOTTOM
 10
0.0
 20
0.0
 30
0.0
  9
$UCSORGLEFT
 10
0.0
 20
0.0
 30
0.0
  9
$UCSORGRIGHT
 10
0.0
 20
0.0
 30
0.0
  9
$UCSORGFRONT
 10
0.0
 20
0.0
 30
0.0
  9
$UCSORGBACK
 10
0.0
 20
0.0
 30
0.0
  9
$PUCSBASE
  2

  9
$PUCSNAME
  2

  9
$PUCSORG
 10
0.0
 20
0.0
 30
0.0
  9
$PUCSXDIR
 10
1.0
 20
0.0
 30
0.0
  9
$PUCSYDIR
 10
0.0
 20
1.0
 30
0.0
  9
$PUCSORTHOREF
  2

  9
$PUCSORTHOVIEW
 70
0
  9
$PUCSORGTOP
 10
0.0
 20
0.0
 30
0.0
  9
$PUCSORGBOTTOM
 10
0.0
 20
0.0
 30
0.0
  9
$PUCSORGLEFT
 10
0.0
 20
0.0
 30
0.0
  9
$PUCSORGRIGHT
 10
0.0
 20
0.0
 30
0.0
  9
$PUCSORGFRONT
 10
0.0
 20
0.0
 30
0.0
  9
$PUCSORGBACK
 10
0.0
 20
0.0
 30
0.0
  9
$USERI1
 70
0
  9
$USERI2
 70
0
  9
$USERI3
 70
0
  9
$USERI4
 70
0
  9
$USERI5
 70
0
  9
$USERR1
 40
0.0
  9
$USERR2
 40
0.0
  9
$USERR3
 40
0.0
  9
$USERR4
 40
0.0
  9
$USERR5
 40
0.0
  9
$WORLDVIEW
 70
1
  9
$SHADEDGE
 70
3
  9
$SHADEDIF
 70
70
  9
$TILEMODE
 70
1
  9
$MAXACTVP
 70
64
  9
$PINSBASE
 10
0.0
 20
0.0
 30
0.0
  9
$PLIMCHECK
 70
0
  9
$PEXTMIN
 10
1e+20
 20
1e+20
 30
1e+20
  9
$PEXTMAX
 10
-1e+20
 20
-1e+20
 30
-1e+20
  9
$PLIMMIN
 10
0.0
 20
0.0
  9
$PLIMMAX
 10
420.0
 20
297.0
  9
$UNITMODE
 70
0
  9
$VISRETAIN
 70
1
  9
$PLINEGEN
 70
0
  9
$PSLTSCALE
 70
1
  9
$TREEDEPTH
 70
3020
  9
$CMLSTYLE
  2
Standard
  9
$CMLJUST
 70
0
  9
$CMLSCALE
 40
20.0
  9
$PROXYGRAPHICS
 70
1
  9
$MEASUREMENT
 70
1
  9
$CELWEIGHT
370
-1
  9
$ENDCAPS
280
0
  9
$JOINSTYLE
280
0
  9
$LWDISPLAY
290
0
  9
$INSUNITS
 70
6
  9
$HYPERLINKBASE
  1

  9
$STYLESHEET
  1

  9
$XEDIT
290
1
  9
$CEPSNTYPE
380
0
  9
$PSTYLEMODE
290
1
  9
$FINGERPRINTGUID
  2
{4A6040F0-FB7E-4F2F-A932-2D82B24A475F}
  9
$VERSIONGUID
  2
{BBD7A18E-8DBE-4DD9-8E2A-7E25746B8A5C}
  9
$EXTNAMES
290
1
  9
$PSVPSCALE
 40
0.0
  9
$OLESTARTUP
290
0
  9
$SORTENTS
280
127
  9
$INDEXCTL
280
0
  9
$HIDETEXT
280
1
  9
$XCLIPFRAME
280
1
  9
$HALOGAP
280
0
  9
$OBSCOLOR
 70
257
  9
$OBSLTYPE
280
0
  9
$INTERSECTIONDISPLAY
280
0
  9
$INTERSECTIONCOLOR
 70
257
  9
$DIMASSOC
280
2
  9
$PROJECTNAME
  1

  9
$CAMERADISPLAY
290
0
  9
$LENSLENGTH
 40
50.0
  9
$CAMERAHEIGHT
 40
0.0
  9
$STEPSPERSEC
 40
24.0
  9
$STEPSIZE
 40
100.0
  9
$3DDWFPREC
 40
2.0
  9
$PSOLWIDTH
 40
0.005
  9
$PSOLHEIGHT
 40
0.08
  9
$LOFTANG1
 40
1.570796326795
  9
$LOFTANG2
 40
1.570796326795
  9
$LOFTMAG1
 40
0.0
  9
$LOFTMAG2
 40
0.0
  9
$LOFTPARAM
 70
7
  9
$LOFTNORMALS
280
1
  9
$LATITUDE
 40
37.795
  9
$LONGITUDE
 40
-122.394
  9
$NORTHDIRECTION
 40
0.0
  9
$TIMEZONE
 70
-8000
  9
$LIGHTGLYPHDISPLAY
280
1
  9
$TILEMODELIGHTSYNCH
280
1
  9
$CMATERIAL
347
20
  9
$SOLIDHIST
280
0
  9
$SHOWHIST
280
1
  9
$DWFFRAME
280
2
  9
$DGNFRAME
280
2
  9
$REALWORLDSCALE
290
1
  9
$INTERFERECOLOR
 62
256
  9
$CSHADOW
280
0
  9
$SHADOWPLANELOCATION
 40
0.0
  0
ENDSEC
  0
SECTION
  2
CLASSES
  0
CLASS
  1
ACDBDICTIONARYWDFLT
  2
AcDbDictionaryWithDefault
  3
ObjectDBX Classes
 90
0
 91
0
280
0
281
0
  0
CLASS
  1
SUN
  2
AcDbSun
  3
SCENEOE
 90
1153
 91
0
280
0
281
0
  0
CLASS
  1
VISUALSTYLE
  2
AcDbVisualStyle
  3
ObjectDBX Classes
 90
4095
 91
0
280
0
281
0
  0
CLASS
  1
MATERIAL
  2
AcDbMaterial
  3
ObjectDBX Classes
 90
1153
 91
0
280
0
281
0
  0
CLASS
  1
SCALE
  2
AcDbScale
  3
ObjectDBX Classes
 90
1153
 91
0
280
0
281
0
  0
CLASS
  1
TABLESTYLE
  2
AcDbTableStyle
  3
ObjectDBX Classes
 90
4095
 91
0
280
0
281
0
  0
CLASS
  1
MLEADERSTYLE
  2
AcDbMLeaderStyle
  3
ACDB_MLEADERSTYLE_CLASS
 90
4095
 91
0
280
0
281
0
  0
CLASS
  1
DICTIONARYVAR
  2
AcDbDictionaryVar
  3
ObjectDBX Classes
 90
0
 91
0
280
0
281
0
  0
CLASS
  1
CELLSTYLEMAP
  2
AcDbCellStyleMap
  3
ObjectDBX Classes
 90
1152
 91
0
280
0
281
0
  0
CLASS
  1
MENTALRAYRENDERSETTINGS
  2
AcDbMentalRayRenderSettings
  3
SCENEOE
 90
1024
 91
0
280
0
281
0
  0
CLASS
  1
ACDBDETAILVIEWSTYLE
  2
AcDbDetailViewStyle
  3
ObjectDBX Classes
 90
1025
 91
0
280
0
281
0
  0
CLASS
  1
ACDBSECTIONVIEWSTYLE
  2
AcDbSectionViewStyle
  3
ObjectDBX Classes
 90
1025
 91
0
280
0
281
0
  0
CLASS
  1
RASTERVARIABLES
  2
AcDbRasterVariables
  3
ISM
 90
0
 91
0
280
0
281
0
  0
CLASS
  1
ACDBPLACEHOLDER
  2
AcDbPlaceHolder
  3
ObjectDBX Classes
 90
0
 91
0
280
0
281
0
  0
CLASS
  1
LAYOUT
  2
AcDbLayout
  3
ObjectDBX Classes
 90
0
 91
0
280
0
281
0
  0
ENDSEC
  0
SECTION
  2
TABLES
  0
TABLE
  2
VPORT
  5
8
330
0
100
AcDbSymbolTable
 70
1
  0
VPORT
  5
23
330
8
100
AcDbSymbolTableRecord
100
AcDbViewportTableRecord
  2
*Active
 70
0
 10
0.0
 20
0.0
 11
1.0
 21
1.0
 12
0.0
 22
0.0
 13
0.0
 23
0.0
 14
0.5
 24
0.5
 15
0.5
 25
0.5
 16
0.0
 26
0.0
 36
1.0
 17
0.0
 27
0.0
 37
0.0
 40
1000.0
 41
1.34
 42
50.0
 43
0.0
 44
0.0
 50
0.0
 51
0.0
 71
0
 72
1000
 73
1
 74
3
 75
0
 76
0
 77
0
 78
0
281
0
 65
0
146
0.0
  0
ENDTAB
  0
TABLE
  2
LTYPE
  5
2
330
0
100
AcDbSymbolTable
 70
3
  0
LTYPE
  5
24
330
2
100
AcDbSymbolTableRecord
100
AcDbLinetypeTableRecord
  2
ByBlock
 70
0
  3

 72
65
 73
0
 40
0.0
  0
LTYPE
  5
25
330
2
100
AcDbSymbolTableRecord
100
AcDbLinetypeTableRecord
  2
ByLayer
 70
0
  3

 72
65
 73
0
 40
0.0
  0
LTYPE
  5
26
330
2
100
AcDbSymbolTableRecord
100
AcDbLinetypeTableRecord
  2
Continuous
 70
0
  3

 72
65
 73
0
 40
0.0
  0
ENDTAB
  0
TABLE
  2
LAYER
  5
1
330
0
100
AcDbSymbolTable
 70
3
  0
LAYER
  5
27
330
1
100
AcDbSymbolTableRecord
100
AcDbLayerTableRecord
  2
0
 70
0
 62
7
  6
Continuous
370
-3
390
13
347
21
  0
LAYER
  5
28
330
1
100
AcDbSymbolTableRecord
100
AcDbLayerTableRecord
  2
Defpoints
 70
0
 62
7
  6
Continuous
290
0
370
-3
390
13
347
21
  0
LAYER
  5
2F
330
1
100
AcDbSymbolTableRecord
100
AcDbLayerTableRecord
  2
TOPPERS_CUT
 70
0
 62
4
  6
Continuous
370
-3
390
13
347
21
  0
ENDTAB
  0
TABLE
  2
STYLE
  5
5
330
0
100
AcDbSymbolTable
 70
1
  0
STYLE
  5
29
330
5
100
AcDbSymbolTableRecord
100
AcDbTextStyleTableRecord
  2
Standard
 70
0
 40
0.0
 41
1.0
 50
0.0
 71
0
 42
2.5
  3
txt
  4

  0
ENDTAB
  0
TABLE
  2
VIEW
  5
7
330
0
100
AcDbSymbolTable
 70
0
  0
ENDTAB
  0
TABLE
  2
UCS
  5
6
330
0
100
AcDbSymbolTable
 70
0
  0
ENDTAB
  0
TABLE
  2
APPID
  5
3
330
0
100
AcDbSymbolTable
 70
3
  0
APPID
  5
2A
330
3
100
AcDbSymbolTableRecord
100
AcDbRegAppTableRecord
  2
ACAD
 70
0
  0
APPID
  5
38
330
3
100
AcDbSymbolTableRecord
100
AcDbRegAppTableRecord
  2
HATCHBACKGROUNDCOLOR
 70
0
  0
APPID
  5
39
330
3
100
AcDbSymbolTableRecord
100
AcDbRegAppTableRecord
  2
EZDXF
 70
0
  0
ENDTAB
  0
TABLE
  2
DIMSTYLE
  5
4
330
0
100
AcDbSymbolTable
 70
1
100
AcDbDimStyleTable
  0
DIMSTYLE
105
2B
330
4
100
AcDbSymbolTableRecord
100
AcDbDimStyleTableRecord
  2
Standard
 70
0
 40
1.0
 41
2.5
 42
0.625
 43
3.75
 44
1.25
 45
0.0
 46
0.0
 47
0.0
 48
0.0
 49
2.5
140
2.5
141
2.5
142
0.0
143
0.03937007874
144
1.0
145
0.0
146
1.0
147
0.625
148
0.0
 69
0
 70
0
 71
0
 72
0
 73
0
 74
0
 75
0
 76
0
 77
1
 78
8
 79
3
170
0
171
3
172
1
173
0
174
0
175
0
176
0
177
0
178
0
179
2
271
2
272
2
273
2
274
3
275
0
276
0
277
2
278
44
279
0
280
0
281
0
282
0
283
0
284
8
285
0
286
0
288
0
289
3
290
0
371
-2
372
-2
  0
ENDTAB
  0
TABLE
  2
BLOCK_RECORD
  5
9
330
0
100
AcDbSymbolTable
 70
2
  0
BLOCK_RECORD
  5
17
330
9
100
AcDbSymbolTableRecord
100
AcDbBlockTableRecord
  2
*Model_Space
340
1A
 70
0
280
1
281
0
  0
BLOCK_RECORD
  5
1B
330
9
100
AcDbSymbolTableRecord
100
AcDbBlockTableRecord
  2
*Paper_Space
340
1E
 70
0
280
1
281
0
  0
ENDTAB
  0
ENDSEC
  0
SECTION
  2
BLOCKS
  0
BLOCK
  5
18
330
17
100
AcDbEntity
  8
0
100
AcDbBlockBegin
  2
*Model_Space
 70
0
 10
0.0
 20
0.0
 30
0.0
  3
*Model_Space
  1

  0
ENDBLK
  5
19
330
17
100
AcDbEntity
  8
0
100
AcDbBlockEnd
  0
BLOCK
  5
1C
330
1B
100
AcDbEntity
  8
0
100
AcDbBlockBegin
  2
*Paper_Space
 70
0
 10
0.0
 20
0.0
 30
0.0
  3
*Paper_Space
  1

  0
ENDBLK
  5
1D
330
1B
100
AcDbEntity
  8
0
100
AcDbBlockEnd
  0
ENDSEC
  0
SECTION
  2
ENTITIES
  0
LWPOLYLINE
  5
30
330
17
100
AcDbEntity
  8
TOPPERS_CUT
100
AcDbPolyline
 90
106
 70
1
 10
165.86956715999273
 20
50.54070615720225
 10
165.2866850819458
 20
48.23630851723391
 10
163.30458524003862
 20
45.82150413246241
 10
162.30907410091092
 20
45.214085354457765
 10
160.80985910132054
 20
45.102935073292265
 10
160.21954165965002
 20
43.79850979062575
 10
159.8574730712094
 20
38.695676622936986
 10
158.4924579800175
 20
33.9853970345454
 10
157.41182033240668
 20
31.377290005574736
 10
155.34236337292938
 20
27.26178907702777
 10
152.4706979185235
 20
23.440331564772517
 10
150.4863674675293
 20
21.325518887191574
 10
146.21251010381386
 20
17.793643573053906
 10
140.23795619632293
 20
14.349125376486398
 10
136.84697261784493
 20
13.123878311404138
 10
133.35301765818733
 20
12.297876652880259
 10
130.05608302454073
 20
11.873351010001823
 10
126.65692054607685
 20
11.748073537951582
 10
121.85482262194098
 20
12.012375499749108
 10
119.55116851833498
 20
12.495260342065869
 10
114.13867767074505
 20
14.155062385911837
 10
108.71726438680687
 20
17.01483125852
 10
104.9972911830065
 20
19.687245777827833
 10
103.18544435806552
 20
21.27381789498838
 10
100.36247213038742
 20
24.352913184478133
 10
99.95653489656783
 20
25.149916924870183
 10
98.64541778664014
 20
26.640209488112323
 10
97.02613006953598
 20
29.22824103529942
 10
95.2994097530781
 20
32.81550140342598
 10
93.66153362691509
 20
37.90346384386766
 10
93.14221550284294
 20
40.499674291040655
 10
93.02139924896684
 20
43.298853355123434
 10
92.71917693268922
 20
43.59661445322693
 10
91.21773132401175
 20
43.78545587925197
 10
88.60665014959167
 20
45.2660824697835
 10
88.50293523204971
 20
45.76532511207206
 10
87.7984933637643
 20
46.36010377191668
 10
87.69254783713528
 20
47.15933812139579
 10
87.08661613185535
 20
47.95485478906313
 10
86.88141690585849
 20
48.653348366449706
 10
86.7553958974459
 20
52.15250808064377
 10
87.73603630932651
 20
54.759871573252084
 10
88.52857883154444
 20
55.76579222145275
 10
89.32632610829884
 20
56.07173221954215
 10
90.2196094026093
 20
56.978399168374985
 10
94.00983838764566
 20
58.30661761463684
 10
95.79789204899127
 20
59.91995704084216
 10
95.99416883863987
 20
60.42143029221779
 10
99.88513859576877
 20
61.650395039111814
 10
101.78731668372932
 20
61.364530522806014
 10
104.79764326470777
 20
59.98687531345407
 10
105.79687208564727
 20
60.094307912807814
 10
107.49236387488625
 20
60.706931445348935
 10
109.69230306095028
 20
60.723289245320736
 10
111.59745529436023
 20
60.03743578609419
 10
113.20484642966673
 20
59.049360010590036
 10
114.01077260640702
 20
58.25533041564741
 10
114.8122375649732
 20
58.06128423508587
 10
115.6196508144382
 20
57.06726016868288
 10
117.92404845440656
 20
56.484378090635936
 10
119.93291560535847
 20
55.29928198912082
 10
120.34108344826514
 20
54.20228654153823
 10
120.84478730872779
 20
53.70601804469908
 10
121.3581571419011
 20
51.90978548336754
 10
121.47302510487839
 20
49.91058430512624
 10
120.98939672619926
 20
47.706927437250435
 10
121.50127948664786
 20
46.11068934737928
 10
122.1953118458603
 20
46.91587198775723
 10
122.49530355305087
 20
46.918102596844285
 10
123.20048895769862
 20
46.22332670126949
 10
123.99377501627889
 20
47.12925011373997
 10
124.80044472938155
 20
46.235223283067164
 10
125.19448538140345
 20
47.03817531435804
 10
125.5929872515995
 20
47.241143931267835
 10
126.39668281925272
 20
46.74710604351576
 10
127.19294302328242
 20
47.25304051306551
 10
128.09589229030348
 20
46.859743397405964
 10
128.79215525860297
 20
47.364934330593364
 10
129.59362021716916
 20
47.170888150031836
 10
131.09283521675957
 20
47.282038431197336
 10
132.19503541887866
 20
46.990225623992686
 10
132.488335298808
 20
47.89243135465141
 10
131.78166282143553
 20
48.78720172168657
 10
131.3712643694418
 20
50.184188876459714
 10
131.5549010409304
 20
52.385615135248464
 10
132.0452212468707
 20
53.68929688155263
 10
132.5422332800722
 20
54.09300350628513
 10
133.8273266173175
 20
56.1026141935994
 10
136.219081374856
 20
57.220428659327936
 10
137.91606023681967
 20
57.633057720408694
 10
138.61009259603213
 20
58.438240360786644
 10
139.5085806448791
 20
58.6449266595082
 10
140.301123167097
 20
59.65084730770887
 10
142.19289174598458
 20
60.76494409162564
 10
144.89058650161246
 20
61.08501128059976
 10
147.69422678386937
 20
60.60584412009477
 10
150.8844723545246
 20
61.92960134818251
 10
152.88292999640356
 20
62.144466546889966
 10
154.38437560508103
 20
61.95562512086492
 10
155.78879812347773
 20
61.36605121555679
 10
157.49841710360144
 20
60.07872726922443
 10
158.40657112515902
 20
58.98544950345361
 10
162.2176191283413
 20
57.51374534927032
 10
163.92649457210268
 20
56.32641863866816
 10
165.44504151711428
 20
53.83764079084889
 10
165.8599011872821
 20
51.84067022169463
  0
LWPOLYLINE
  5
31
330
17
100
AcDbEntity
  8
TOPPERS_CUT
100
AcDbPolyline
 90
57
 70
1
 10
36.47205403561149
 20
9.37745073169458
 10
35.06614444449009
 20
10.167019108463084
 10
33.149839165644806
 20
12.352831103642377
 10
29.905315440537656
 20
18.32887208385803
 10
27.66745589999354
 20
23.412373306125577
 10
26.354108180978773
 20
25.202657576558266
 10
25.45041537759535
 20
25.695951927947995
 10
23.046764038259177
 20
26.178093233902395
 10
14.138087621924603
 20
27.311885326415034
 10
11.129991650033201
 20
28.38954882857641
 10
9.422603278996537
 20
29.376881067718216
 10
8.513705721076631
 20
30.570156069219223
 10
8.404042512635838
 20
31.86937659734925
 10
8.697342392565197
 20
32.771582328007966
 10
9.981692193448133
 20
34.88119025105243
 10
13.355574435591953
 20
38.40637373792891
 10
18.423461394250054
 20
42.74417522880687
 10
19.810039039950237
 20
44.55453498102314
 10
19.788476485441954
 20
47.45445481719845
 10
19.065446208097676
 20
50.54916437029766
 10
18.107475250262365
 20
58.342256929990775
 10
18.38739147566934
 20
61.04441290379278
 10
18.879198754334357
 20
62.14810017863657
 10
19.57471818627151
 20
62.75328834755417
 10
21.071702576774843
 20
63.16443033591022
 10
22.973137128373036
 20
62.97856305533459
 10
26.584934196457304
 20
61.40537459269642
 10
29.799716467070265
 20
59.429223041688104
 10
35.32038345037628
 20
56.670194941172475
 10
36.82331613177845
 20
56.281359043687054
 10
38.42029775801196
 20
56.69324456840546
 10
49.47835288777046
 20
62.3756223055171
 10
52.272327197316756
 20
63.1964192095045
 10
54.17376174891494
 20
63.01055192892888
 10
54.87597300811329
 20
62.7157649762748
 10
55.681899184853606
 20
61.92173538133217
 10
56.39526348948726
 20
60.12698989272535
 10
56.327238317338335
 20
55.82636521996511
 10
54.492722038352056
 20
47.01248128482423
 10
54.306854757776435
 20
45.11104673322604
 10
54.5150281292227
 20
44.01256421291873
 10
56.33059263597545
 20
41.92600591710726
 10
60.65947169050516
 20
38.05808578721137
 10
64.18688578646871
 20
34.384211837877
 10
65.50246411457053
 20
32.293935860253754
 10
65.70840687692973
 20
31.495445047136997
 10
65.61956268663486
 20
29.99474297482189
 10
65.02775817223967
 20
28.890312163615743
 10
62.63674695106353
 20
27.672500462157036
 10
58.44281134129466
 20
26.84129404909668
 10
50.748972480969385
 20
25.984063863353903
 10
47.954998171423085
 20
25.163266959366503
 10
46.66767422509073
 20
23.453647979242778
 10
44.013848114841764
 20
17.233743882187834
 10
41.25035879615201
 20
12.31306031326292
 10
39.76304037835929
 20
10.601954260414484
 10
37.872015335834064
 20
9.387860240767546
  0
LWPOLYLINE
  5
32
330
17
100
AcDbEntity
  8
TOPPERS_CUT
100
AcDbPolyline
 90
99
 70
1
 10
69.68336262297863
 20
75.22620912480838
 10
68.0915857512816
 20
74.11434294997868
 10
65.49537530410862
 20
73.59502482590655
 10
63.694681524602956
 20
73.68163840711435
 10
60.68955969816098
 20
74.35931296635499
 10
56.0740725909631
 20
76.42505224402052
 10
51.45040658377932
 20
79.59076111471809
 10
48.22967602226752
 20
82.36689055156788
 10
44.9029999341267
 20
85.94225433789676
 10
43.79039022293465
 20
87.63402844532398
 10
42.48150372209401
 20
88.82432930137557
 10
41.68598705442667
 20
88.21839759609563
 10
40.89864928674523
 20
86.51249629778368
 10
39.704630748881875
 20
85.70359597559396
 10
39.11133916176196
 20
84.79915963584817
 10
38.10913619537307
 20
85.09171597941517
 10
35.90919700930903
 20
85.07535817944338
 10
34.19660388373588
 20
86.76267106869646
 10
32.580290312081154
 20
88.95071367296282
 10
30.50191091625559
 20
86.03517957317806
 10
25.937727818060175
 20
81.20110958546094
 10
23.45192411569033
 20
79.28257369752859
 10
22.757891756477882
 20
78.47739105715064
 10
19.17509260652544
 20
76.15068732631167
 10
14.5900904901841
 20
74.11653993903968
 10
11.694631872182908
 20
73.4949939701503
 10
8.093987849533955
 20
73.56822389683572
 10
6.487340250589829
 20
74.45630243660969
 10
5.579929765394632
 20
75.44958296665034
 10
4.868052533485674
 20
77.04433398379679
 10
4.745005670522497
 20
80.1435047550701
 10
5.424910838850205
 20
82.84863487432155
 10
6.701825276109595
 20
85.95821515466784
 10
7.481727680167486
 20
88.66408881028164
 10
7.943049967975962
 20
93.86766275006293
 10
9.221451477960061
 20
96.77724855894886
 10
10.610259732747307
 20
98.28761660397458
 10
11.802791197885963
 20
99.29651139762467
 10
14.595278434707549
 20
100.31730277307243
 10
15.190057094552165
 20
101.02174464135784
 10
15.286336648470575
 20
101.5224743563711
 10
13.977450147629938
 20
102.71277521242271
 10
12.861122754626118
 20
104.90453549850083
 10
12.635848046845695
 20
108.30295444060236
 10
13.416493987265941
 20
110.90883086048595
 10
14.700100251786523
 20
113.11843601926061
 10
16.585920539775266
 20
115.03251068901884
 10
17.47548615227395
 20
116.43916381650259
 10
17.25690327175472
 20
118.93760763703247
 10
17.55094668804643
 20
119.73981613196099
 10
18.4457170550816
 20
120.44648860933346
 10
19.9464191273967
 20
120.35764441903859
 10
21.655294571158077
 20
119.17031770843644
 10
24.45670424432792
 20
118.99114225512201
 10
27.46405667985697
 20
118.01347598869081
 10
28.971450579433263
 20
117.02465667682426
 10
30.683300168644053
 20
115.43734102330139
 10
32.40109804875369
 20
113.050047483937
 10
34.227072064579396
 20
109.56352788790298
 10
34.82779901532285
 20
109.46799187034692
 10
36.51213775912652
 20
111.5805739388408
 10
37.510623043703646
 20
111.7880037739247
 10
38.212834302901996
 20
111.49321682127065
 10
38.81727893545722
 20
110.89769462506368
 10
39.42692832254893
 20
109.60219177874542
 10
40.0306294187418
 20
109.10666681826862
 10
40.526897915580946
 20
109.6103706787313
 10
42.10082991458147
 20
113.12217051108539
 10
43.09039276281034
 20
114.52956717493153
 10
46.46427500495415
 20
118.054750661808
 10
50.45524199781324
 20
119.28445894506437
 10
53.054426590435654
 20
119.40378812621577
 10
54.346211754942125
 20
120.51342369195842
 10
55.34320996679454
 20
120.9208479985027
 10
56.043934153268175
 20
120.82605551730899
 10
56.646891713098704
 20
120.43052779256239
 10
57.254310491103354
 20
119.43501665343467
 10
57.3647172359065
 20
118.03579888957447
 10
57.17364520079438
 20
116.83434498808757
 10
57.37958796315358
 20
116.03585417497081
 10
60.50552604347168
 20
112.55900055164739
 10
61.723337744930404
 20
110.16798933047123
 10
62.032251888469204
 20
108.97025311079611
 10
61.95902196178379
 20
105.36960908814713
 10
60.976150940816105
 20
103.06223730272939
 10
59.685109312671976
 20
101.85260450125658
 10
59.692544676295526
 20
100.85263214395474
 10
59.99476699257315
 20
100.55487104585126
 10
61.59695337334315
 20
100.26677592045837
 10
62.80063788391711
 20
99.77571217815571
 10
64.7102513355012
 20
98.48987530454806
 10
66.22582413506339
 20
96.40108639964953
 10
67.03992921178961
 20
94.50708721167489
 10
67.88749342482177
 20
88.113212415842
 10
69.00902557236208
 20
85.22147147965258
 10
69.61570081400436
 20
84.32595757625506
 10
70.6402098712639
 20
81.03348416078255
 10
70.66697718030868
 20
77.43358367449595
 10
70.4736745361095
 20
76.53212148019959
  0
LWPOLYLINE
  5
33
330
17
100
AcDbEntity
  8
TOPPERS_CUT
100
AcDbPolyline
 90
158
 70
1
 10
94.48416415678881
 20
75.21061167121195
 10
92.67008672276077
 20
77.09717549556305
 10
91.45078794857736
 20
79.68818118819956
 10
91.13964319595149
 20
81.18590911506526
 10
91.12105478689263
 20
83.68584000831984
 10
91.70542393766428
 20
85.79024317682783
 10
93.39422389964207
 20
87.3028418309406
 10
94.88897768105832
 20
88.0139755264872
 10
95.79043987535469
 20
87.82067288228802
 10
97.38444735613879
 20
88.63254734992717
 10
98.38516324980297
 20
88.53998547782052
 10
98.88738003754096
 20
88.24371145244176
 10
100.48510520013683
 20
88.55559974142997
 10
102.28579897964248
 20
88.46898616022217
 10
102.48430637837814
 20
88.67046770440726
 10
102.57835532320951
 20
89.47118912661107
 10
102.0746514627468
 20
89.96745762345022
 10
101.8701957731123
 20
90.56595396510662
 10
100.46354264562855
 20
91.45551957760529
 10
98.95094399151577
 20
93.1443195395831
 10
98.84128078307498
 20
94.44354006771312
 10
99.23532143509686
 20
95.246492099004
 10
100.72784460742608
 20
96.25761750174115
 10
102.52482070511996
 20
96.67099009918427
 10
104.92475436264435
 20
96.68883497188078
 10
107.52914370980325
 20
96.10818350292091
 10
108.42837529501256
 20
96.21487256591227
 10
108.72539285675366
 20
96.61709211792008
 10
108.71423981131834
 20
98.11705065387284
 10
108.30012367751287
 20
100.0140239872969
 10
107.08974733967773
 20
101.40506285117121
 10
106.58827408830209
 20
101.6013396408198
 10
103.5883570163966
 20
101.57903354994916
 10
102.28467527009244
 20
102.06935375588947
 10
100.97653230561416
 20
103.15965737621086
 10
100.26688568279226
 20
104.45441668616677
 10
100.35647340944948
 20
105.85512152275169
 10
101.35421515766424
 20
106.16254859356577
 10
102.14527060715746
 20
107.36846371322683
 10
103.04152804691732
 20
107.87514171913892
 10
105.45335828623942
 20
106.29303082015251
 10
106.05185462789579
 20
106.49748650978702
 10
107.15256775729017
 20
106.40566817404275
 10
107.75032056258419
 20
106.71012109940739
 10
108.34435568606648
 20
107.51456020342297
 10
108.62947666600992
 20
109.51673552711372
 10
107.92354772499979
 20
110.31150865841872
 10
107.61537711782337
 20
111.40924764236365
 10
107.59753224512686
 20
113.80918129988807
 10
107.88785797960679
 20
115.11137597346752
 10
109.06997993567248
 20
117.52023206734016
 10
108.46181762130547
 20
118.61574044219806
 10
106.45443754307826
 20
119.60084207225282
 10
105.345545513698
 20
120.7926300010291
 10
107.03360193931344
 20
122.40522589087206
 10
109.32833360657119
 20
123.12230787731751
 10
111.32679124845012
 20
123.33717307602497
 10
114.72818433600108
 20
123.16245884088467
 10
118.73699620155665
 20
121.99223346661663
 10
119.34367144319894
 20
121.09671956321911
 10
119.06226814506726
 20
118.59455806087746
 10
119.36523399770724
 20
118.1967997270438
 10
120.26743972836596
 20
117.90349984711445
 10
121.76442411886929
 20
118.3146418354705
 10
124.2636114757615
 20
118.43322748025955
 10
125.75390403900364
 20
119.74434459018725
 10
126.14497054557611
 20
120.94728556439887
 10
124.83831465382255
 20
121.8375947132599
 10
123.82793278744775
 20
123.23012064985895
 10
123.91900758682968
 20
124.43083101498348
 10
125.91226047417217
 20
125.34567686380221
 10
127.11074023020964
 20
125.55459377161083
 10
128.31145059533418
 20
125.46351897222891
 10
131.10914258669226
 20
125.78432969756541
 10
133.61130408903392
 20
125.50292639943373
 10
136.01867311018185
 20
124.5207989148284
 10
137.42755684675268
 20
123.33124159513916
 10
137.73647099029148
 20
122.13350537546401
 10
136.76103533294736
 20
118.82616123274443
 10
137.4699384194069
 20
117.6313991585187
 10
139.06915065472748
 20
117.74329297604655
 10
140.2706045562144
 20
117.55222094093445
 10
143.37795422747362
 20
116.57529821086561
 10
144.87939983615107
 20
116.38645678484056
 10
146.4860474350952
 20
115.4983782450666
 10
147.38750962939156
 20
115.30507560086741
 10
148.39268674122985
 20
114.61253031437968
 10
149.69636848753402
 20
114.12221010843936
 10
150.30081312008926
 20
113.52668791223239
 10
151.50449763066325
 20
113.03562416992972
 10
155.5333849780024
 20
109.16547343094676
 10
158.0638008621135
 20
105.08417517506811
 10
158.6756808582923
 20
103.48868062155933
 10
159.1987166641762
 20
100.3924839957354
 10
159.0106187745135
 20
98.79104115132776
 10
158.41509657830653
 20
98.18659651877253
 10
158.01585117174818
 20
98.08362513759293
 10
157.31363991254983
 20
98.378412090247
 10
155.60104678697667
 20
100.06572497950008
 10
153.90109377956355
 20
100.05308486134005
 10
153.49961776391814
 20
100.25010518735101
 10
152.78774053200914
 20
101.84485620449746
 10
152.28478020790882
 20
102.24112746560641
 10
151.48777646751677
 20
101.83519023178684
 10
149.8870771594715
 20
101.92329088571935
 10
148.97743606518924
 20
103.21656312295056
 10
148.17745817934775
 20
103.21061483205172
 10
146.48568407192053
 20
102.09800512085967
 10
145.68570618607907
 20
102.09205682996082
 10
144.68201614696548
 20
102.58460764498818
 10
144.07757151441024
 20
103.18012984119517
 10
143.18280114737507
 20
102.47345736382269
 10
143.09023927526843
 20
101.4727414701585
 10
142.39843752514304
 20
100.36756712259002
 10
141.39995224056594
 20
100.16013728750609
 10
139.19703890905248
 20
100.54376843045503
 10
138.80002411158117
 20
100.14080534208486
 10
138.71712821218514
 20
97.84012538392831
 10
138.32606170561266
 20
96.63718440971668
 10
135.62762341362242
 20
96.41711445647273
 10
134.0254370328524
 20
96.70520958186562
 10
133.62693516265637
 20
96.50224096495583
 10
132.83439264043847
 20
95.49632031675516
 10
133.25148291969336
 20
93.19935804041036
 10
132.55670702411857
 20
92.4941726357626
 10
128.55681759491122
 20
92.46443118126841
 10
128.26203064225717
 20
91.76221992207006
 10
129.27761726316845
 20
89.66971333535976
 10
129.1850553910618
 20
88.66899744169558
 10
128.49102303184935
 20
87.86381480131762
 10
126.49702660814452
 20
87.04896618822906
 10
125.90373502102462
 20
86.14452984848329
 10
127.81929676350755
 20
84.05871508903417
 10
128.22969521550127
 20
82.66172793426102
 10
127.63937777383076
 20
81.35730265159451
 10
125.34762025202244
 20
80.24023172222834
 10
124.95209252727584
 20
79.63727416239782
 10
124.95729728181234
 20
78.93729351228653
 10
126.27659329172593
 20
76.34703135601238
 10
126.18849263779343
 20
74.74633204796709
 10
125.4922296694939
 20
74.24114111477971
 10
123.39600540097183
 20
73.72554067251933
 10
122.09529780011708
 20
73.8158719355389
 10
120.59980048233847
 20
73.20473547572249
 10
120.00502182249386
 20
72.50029360743707
 10
119.81618039646881
 20
70.9988479987596
 10
119.32437311780379
 20
69.89516072391582
 10
118.03258795329732
 20
68.7855251581732
 10
116.42965803616497
 20
69.17361751929624
 10
114.92152060022632
 20
70.26243406689295
 10
114.0193148695676
 20
70.5557339468223
 10
112.21862109006194
 20
70.64234752803011
 10
109.9238894228042
 20
69.92526554158466
 10
108.1239391796609
 20
69.9118818870623
 10
106.11730263779604
 20
70.79698628138685
 10
103.29804809192967
 20
73.37609539222568
 10
97.69522874559
 20
73.73444629885455
 10
95.79082004854239
 20
74.32030252235091
  0
LWPOLYLINE
  5
34
330
17
100
AcDbEntity
  8
TOPPERS_CUT
100
AcDbPolyline
 90
158
 70
1
 10
90.89463955954912
 20
127.58537003023268
 10
90.98274021348162
 20
129.18606933827795
 10
91.96412416172458
 20
131.6934355951561
 10
93.4484684340679
 20
133.80453059092525
 10
93.84027847700273
 20
134.9074743294067
 10
95.91717080010359
 20
138.02300290065182
 10
96.00750206312316
 20
139.32371050150658
 10
95.60007775657888
 20
140.32070871335898
 10
94.48895511811153
 20
141.81248834932586
 10
93.48600861536029
 20
142.20504192862305
 10
92.58603349378863
 20
142.19835010136185
 10
92.08753438786242
 20
141.9946379480897
 10
91.3949891013747
 20
140.98946083625137
 10
91.0957409305465
 20
140.88723299143413
 10
90.39352967134815
 20
141.18201994408818
 10
89.58314227643373
 20
142.57603295341193
 10
89.57273276736075
 20
143.9759942536345
 10
90.35709638959278
 20
146.08188449486718
 10
92.04515281520821
 20
147.69448038471015
 10
94.23840017401105
 20
148.6108133062536
 10
94.93168899686114
 20
149.5159931823617
 10
94.72202855269018
 20
150.8144701741294
 10
93.71313375904009
 20
152.00700163926805
 10
91.78716250748418
 20
155.49277769893973
 10
91.46932592759713
 20
157.89048074737707
 10
91.9551849153633
 20
159.79414590806232
 10
93.54026995979915
 20
161.80598720446366
 10
94.93279589639818
 20
162.81636907083845
 10
97.52751927084645
 20
163.53568166637098
 10
101.02742252140287
 20
163.56170543905338
 10
101.42518085523655
 20
163.86467129169336
 10
101.7117889079047
 20
165.6668521439237
 10
101.59915155401451
 20
167.36606161497448
 10
102.49243484832493
 20
168.27272856380733
 10
101.28726326502627
 20
168.96378677757033
 10
100.07837399991581
 20
170.1548311699843
 10
99.15757986019824
 20
172.94806194316823
 10
99.02263641543738
 20
177.64718848612452
 10
99.50552125775414
 20
179.95084258973048
 10
100.78094862228882
 20
183.26041734153713
 10
102.37272549398584
 20
184.37228351636685
 10
103.87342756630096
 20
184.28343932607197
 10
105.67783902761839
 20
183.69683956621327
 10
106.7778086206504
 20
183.70501846619916
 10
107.37258728049503
 20
184.40946033448455
 10
107.87852175004477
 20
183.61320013045489
 10
107.78893402338755
 20
182.21249529386995
 10
108.1918971117577
 20
181.81548049639864
 10
108.68890914495921
 20
182.21918712113114
 10
108.27925422932788
 20
183.5161770401741
 10
108.36958549234744
 20
184.81688464102882
 10
107.96513533125258
 20
185.41389390996054
 10
107.43763830719453
 20
189.1100739501655
 10
108.2279502203254
 20
190.41598630555674
 10
109.4241993672758
 20
190.92489492055591
 10
112.2204042859092
 20
191.44570011735277
 10
113.22409432502279
 20
190.9531493023254
 10
113.92407497513406
 20
190.95835405686188
 10
115.6322068825331
 20
189.8710245819899
 10
116.13962842480755
 20
188.87476990649984
 10
117.35000476264273
 20
187.48373104262552
 10
117.65668829709446
 20
186.58598653014093
 10
118.15964862119479
 20
186.18971526903198
 10
118.8559115894943
 20
186.69490620221939
 10
119.45738207660011
 20
186.49937294893317
 10
120.45512382481488
 20
186.80680001974724
 10
121.35658601911125
 20
186.61349737554806
 10
122.05284898741074
 20
187.11868830873544
 10
123.05653902652436
 20
186.6261374937081
 10
123.85056862146698
 20
187.4320636704484
 10
124.14238142867164
 20
188.53426387256746
 10
125.93489630819138
 20
189.5476198843917
 10
129.13332077883257
 20
189.77140751944742
 10
131.33697764670836
 20
189.2877791407683
 10
131.93993520653888
 20
188.89225141602168
 10
133.23023329832066
 20
190.20188145322467
 10
134.5242490719142
 20
191.01152531177678
 10
136.82195488462133
 20
191.32861835530147
 10
138.12266248547607
 20
191.2382870922819
 10
140.3292934988013
 20
190.35466977068205
 10
141.23596044763414
 20
189.4613864763716
 10
141.7433819899086
 20
188.46513180088155
 10
142.3909517314804
 20
182.06976993232394
 10
143.11472554518704
 20
178.87506314349451
 10
143.51991924264425
 20
178.17805663883266
 10
144.21841282003084
 20
178.38325586482955
 10
146.3049711158423
 20
180.1988203715823
 10
148.39970831163967
 20
180.91441528530302
 10
149.19596851566934
 20
181.42034975485277
 10
150.89592152308245
 20
181.4329898730128
 10
152.49810790385249
 20
181.1448947476199
 10
154.50474444571734
 20
180.2597903532954
 10
155.81288741019563
 20
179.16948673297395
 10
156.52030342393044
 20
178.1747191302086
 10
157.43589280911155
 20
176.08146900713592
 10
159.95887332959913
 20
173.00014310855912
 10
160.3648105634187
 20
172.2031393681671
 10
160.37596360885402
 20
170.70318083221431
 10
159.8856434029137
 20
169.39949908591015
 10
159.1878933618895
 20
169.09430262418314
 10
158.28122641305666
 20
169.9875859184936
 10
157.48050499085284
 20
170.08163486332495
 10
156.2924347438883
 20
168.47275665529375
 10
155.90359884640287
 20
166.96982397389158
 10
155.9378015190712
 20
162.36995113030315
 10
155.0601324883702
 20
159.36334223113644
 10
154.46758443761263
 20
158.3589086556605
 10
152.7810150847219
 20
156.54631829435715
 10
151.58699654685853
 20
155.73741797216744
 10
149.19375471659535
 20
154.8195979778993
 10
145.79459223813146
 20
154.69432050584902
 10
142.58575825841734
 20
155.87049417101588
 10
141.17836159457121
 20
156.86005701924475
 10
138.65835521953306
 20
159.54139397490084
 10
133.86889741355722
 20
158.10574292928524
 10
131.36747944757795
 20
158.28714899168673
 10
130.87715924163763
 20
156.9834672453826
 10
131.7845697268328
 20
155.99018671534196
 10
132.49570342237942
 20
154.49543293392568
 10
132.61131492171904
 20
152.3962345199542
 10
132.31875857815203
 20
151.3940315535653
 10
132.0202539436862
 20
151.19180647301786
 10
130.71508512465735
 20
151.88212115041853
 10
130.01510447454606
 20
151.87691639588206
 10
129.21958780687874
 20
151.27098469060212
 10
128.62927036520824
 20
149.9665594079356
 10
128.84636617300276
 20
147.66811005886612
 10
128.37240376703426
 20
144.16448912649793
 10
127.58952721752694
 20
141.85860441380484
 10
126.10592648154599
 20
139.6475121823055
 10
124.4171265195682
 20
138.13491352819273
 10
122.5253579406806
 20
137.02081674427598
 10
121.62612635547131
 20
136.91412768128458
 10
120.42987720852088
 20
136.4052190662854
 10
119.13883558037676
 20
135.19558626481262
 10
117.54557163595503
 20
134.28371456144328
 10
115.9500770824462
 20
133.67183456526453
 10
113.55237403400888
 20
133.35399798537745
 10
112.56652886759177
 20
131.44661514288043
 10
111.57176126482643
 20
130.7391991291456
 10
111.07697984071199
 20
130.03550079722254
 10
110.37922979968778
 20
129.7303043354955
 10
109.07703512610833
 20
130.02063006997543
 10
107.96814309672807
 20
131.21241799875173
 10
106.9637095212521
 20
131.80496604950932
 10
106.46744102441296
 20
131.3012621890466
 10
104.57418537280066
 20
130.38715987659023
 10
103.67421025122901
 20
130.38046804932904
 10
102.96753777385655
 20
131.27523841636418
 10
102.96010241023298
 20
132.27521077366603
 10
102.6556494848683
 20
132.87296357896005
 10
101.95120761658289
 20
133.46774223880468
 10
101.14899912165437
 20
133.7617856550964
 10
99.95423704742865
 20
133.05288256863687
 10
97.86842228797954
 20
131.13732082615394
 10
96.87216761248948
 20
130.62989928387944
 10
92.99458150988298
 20
127.60098429384213
 10
91.69684805447766
 20
127.29132661394097
  0
LWPOLYLINE
  5
35
330
17
100
AcDbEntity
  8
TOPPERS_CUT
100
AcDbPolyline
 90
102
 70
1
 10
35.61847429162837
 20
124.17427734994506
 10
34.81626579669984
 20
124.46832076623677
 10
34.51032579861045
 20
125.26606804299118
 10
33.30069299713764
 20
126.5571096711353
 10
32.99995775358473
 20
126.65487629777843
 10
32.302951248922874
 20
126.24968260032122
 10
32.098495559288374
 20
126.84817894197761
 10
31.49405092673315
 20
127.44370113818457
 10
30.593332268799145
 20
127.53700654665356
 10
28.998581251652695
 20
126.82512931474461
 10
28.28298633793196
 20
128.919866510542
 10
27.379293534548545
 20
129.41316086193171
 10
26.579315648707073
 20
129.40721257103286
 10
27.171120163102266
 20
130.51164338223901
 10
26.965177400743066
 20
131.31013419535574
 10
26.25627431428353
 20
132.50489626958148
 10
24.54368118871038
 20
134.19220915883457
 10
23.22810286060855
 20
136.2824851364578
 10
22.413997783882344
 20
138.17648432443247
 10
21.8931925870855
 20
140.97268924306582
 10
21.966422513770915
 20
144.57333326571478
 10
19.141219677005722
 20
147.95242026239507
 10
18.73156476137438
 20
149.24941018143804
 10
18.721898788663772
 20
150.54937424593044
 10
19.014455132230772
 20
151.55157721231933
 10
19.606259646625972
 20
152.65600802352546
 10
20.697306803309736
 20
153.86415375227358
 10
20.48838989550111
 20
155.06263350831108
 10
18.371346608833104
 20
157.34695566649583
 10
18.15425080103858
 20
159.64540501556533
 10
19.542315519463475
 20
161.25577029632126
 10
20.22965605141473
 20
162.96092805827084
 10
20.225938369602954
 20
163.46091423692175
 10
19.217043575952864
 20
164.65344570206042
 10
17.911874756924
 20
165.34376037946106
 10
17.70295784911538
 20
166.5422401354986
 10
18.098485573861986
 20
167.14519769532907
 10
19.696210736457854
 20
167.4570859843173
 10
20.185787406035804
 20
168.86076496635164
 10
14.424974987702274
 20
177.01815672357247
 10
12.190833128969926
 20
181.6016717671891
 10
11.670771468535435
 20
184.29787945009227
 10
11.86556118545932
 20
184.99934717292825
 10
12.861072324587024
 20
185.60676595093292
 10
14.34764720601739
 20
187.41786923951153
 10
15.442412044512926
 20
188.1260287896087
 10
18.234899281334513
 20
189.14682016505648
 10
20.23335692321347
 20
189.36168536376394
 10
24.820589648641878
 20
191.09584104384538
 10
26.4190583476001
 20
191.3077320971034
 10
30.520432085262325
 20
191.13822261649958
 10
33.41440363053881
 20
191.95976305684934
 10
35.61211220751578
 20
192.2761125640117
 10
38.41277834432326
 20
192.19693434642744
 10
42.42010313715415
 20
191.22670344361978
 10
44.817806185591486
 20
191.54454002350684
 10
46.61775642873478
 20
191.55792367802923
 10
48.319940045234965
 20
191.2705720889987
 10
51.42952032558126
 20
189.9936576517393
 10
53.130216869356715
 20
189.90630053416916
 10
56.639042556261394
 20
188.73235747808937
 10
57.64421966809972
 20
188.03981219160164
 10
60.06348527104534
 20
185.45772893531338
 10
59.788030263812495
 20
182.1555895471303
 10
59.19473867669258
 20
181.2511532073845
 10
58.214098264811966
 20
178.6437897147762
 10
56.141667159885245
 20
174.92827772914995
 10
52.38415377479248
 20
169.20018091076003
 10
52.88934470797989
 20
168.50391794246053
 10
54.99449141285021
 20
167.81955155595867
 10
55.00564445828553
 20
166.31959302000593
 10
54.2116148633429
 20
165.51366684326564
 10
52.41984352018551
 20
164.40031359571122
 10
53.13395136118153
 20
162.50557087137423
 10
53.44583965016976
 20
160.90784570877835
 10
54.75323907828569
 20
159.91753932418712
 10
55.056948467287995
 20
159.4197837546233
 10
55.36660614718917
 20
158.12205029921796
 10
55.27701842053195
 20
156.72134546263305
 10
54.4881935801258
 20
155.21543863578145
 10
53.49416951372281
 20
154.40802538631644
 10
52.703857600591945
 20
153.1021130309252
 10
52.81352080903274
 20
151.80289250279517
 10
53.628369422121295
 20
149.80889607909037
 10
53.54249937727586
 20
147.90820506385452
 10
52.65442083750188
 20
146.30155746491042
 10
50.273075589036345
 20
143.7837816989593
 10
49.5169663485738
 20
137.87799649997964
 10
48.434841628238296
 20
135.46988394246935
 10
47.049751055262824
 20
133.4595297187927
 10
44.0699094651409
 20
130.73729826320712
 10
44.18254681903112
 20
129.03808879215637
 10
42.78927734606974
 20
128.12770416151176
 10
42.29523945831765
 20
127.32400859385851
 10
42.104167423205546
 20
126.12255469237161
 10
41.40269970036955
 20
126.31734440929547
 10
40.797511531451974
 20
127.01286384123264
 10
39.69456779297054
 20
127.40467388416748
 10
38.99904836103338
 20
126.7994857152499
 10
38.80277157138479
 20
126.29801246387426
 10
38.10204738491115
 20
126.39280494506798
 10
37.00653901005326
 20
125.78464263070096
  0
LWPOLYLINE
  5
36
330
17
100
AcDbEntity
  8
TOPPERS_CUT
100
AcDbPolyline
 90
91
 70
1
 10
-1.9898393824956113
 20
219.29727531883108
 10
-2.0641930187310753
 20
229.2969988918494
 10
-2.8738368772831526
 20
230.59101466544297
 10
-3.079779639642356
 20
231.38950547855976
 10
-3.0065497129569403
 20
234.9901495012087
 10
-2.1132664186464813
 20
235.8968164500415
 10
3.5858324816116145
 20
236.03919525842593
 10
4.082100978450758
 20
236.54289911888858
 10
4.368709031118924
 20
238.34507997111896
 10
5.255300498168191
 20
240.15172204152344
 10
7.933663308374858
 20
243.07171735948236
 10
11.82463306550375
 20
244.30068210637637
 10
14.125313023660322
 20
244.21778620698032
 10
14.72827058349084
 20
243.82225848223374
 10
16.531938508445915
 20
243.33565595810518
 10
18.34081118793747
 20
242.1490727838654
 10
19.549700453047926
 20
240.95802839145145
 10
20.25934707586982
 20
239.66326908149557
 10
20.263808294043947
 20
239.06328566711446
 10
20.77271690904312
 20
237.86703652016405
 10
21.57938662214578
 20
236.97300968949125
 10
24.07783044267565
 20
237.1915925700104
 10
29.27843023700754
 20
237.13025922512276
 10
31.48506125033277
 20
236.24664190352286
 10
32.88353547783063
 20
236.45704588405619
 10
34.37903279560925
 20
237.06818234387265
 10
42.878797832674834
 20
237.13138293467279
 10
46.38390583776773
 20
236.45742605724385
 10
47.182396650884485
 20
236.6633688196031
 10
47.5794114483558
 20
237.06633190797325
 10
48.75409804079794
 20
240.47516035914774
 10
49.84588873384406
 20
241.58330885216566
 10
50.041421987130306
 20
242.18477933927147
 10
51.63171178610262
 20
243.49663998556147
 10
54.62344995802223
 20
244.61891566946414
 10
57.82336150138809
 20
244.64270883305954
 10
60.932198245372035
 20
243.46579163153032
 10
62.44256629039775
 20
242.07698337674304
 10
63.95888262632229
 20
239.88819723611437
 10
64.5767109133999
 20
237.49272479676407
 10
65.08264538294966
 20
236.69646459273434
 10
65.88411034151584
 20
236.5024184121729
 10
66.89077452607886
 20
235.60987865422476
 10
69.19219802059779
 20
235.42698551909857
 10
70.09663436034357
 20
234.83369393197867
 10
70.30034651361571
 20
234.33519482605243
 10
70.22414244148088
 20
231.1345397463242
 10
68.73608048732578
 20
229.52343092920597
 10
68.55318735219959
 20
227.22200743468701
 10
69.36431828347636
 20
225.7279971896331
 10
70.57023340313741
 20
224.9369417401399
 10
72.58653591771288
 20
222.75187328132296
 10
72.89396298852698
 20
221.75413153310825
 10
72.91552554303527
 20
218.8542116969329
 10
71.28769556277054
 20
209.14183971294506
 10
71.39958938029841
 20
207.5426274776245
 10
72.40774063758613
 20
206.45009324821604
 10
72.51963445511399
 20
204.85088101289548
 10
72.32781888363954
 20
203.74942434713873
 10
71.93452176797999
 20
202.84647508011764
 10
70.53679107684448
 20
202.53607386385414
 10
36.93846340786523
 20
202.1862484103728
 10
35.841467960282635
 20
201.77808056746616
 10
35.04669482897765
 20
201.07215162645605
 10
33.36904791243517
 20
198.05959443639054
 10
32.178747056383585
 20
196.75070793554988
 10
28.58330778827111
 20
196.12395721212403
 10
22.68272734382794
 20
196.18008580247528
 10
21.1842558805999
 20
195.96893828557958
 10
19.682066735560085
 20
196.25777694733483
 10
19.0768785666425
 20
196.953296379272
 10
19.159774466038527
 20
199.25397633742855
 10
19.45530495505495
 20
199.8561903608967
 10
20.65378471109244
 20
200.06510726870533
 10
20.949315200108863
 20
200.6673212921735
 10
22.04482357496675
 20
201.2754836065405
 10
21.042620608577856
 20
201.5680399501075
 10
20.547095648101063
 20
200.96433885391463
 10
20.14710670518033
 20
200.96136470846523
 10
18.843424958876177
 20
201.45168491440552
 10
15.044273537491563
 20
201.32343329690588
 10
13.842819636004654
 20
201.51450533201796
 10
12.136174801330345
 20
202.40184033542957
 10
11.228020779772795
 20
203.4951181012004
 10
9.601297699045094
 20
207.08312200568935
 10
9.290152946419223
 20
208.58084993255503
 10
7.044114505889203
 20
214.76432074785458
 10
6.238188329148899
 20
215.5583503427972
 10
3.636029591077069
 20
215.8390101045665
 10
0.4301697568123643
 20
216.61519482681265
 10
-1.1772213784941157
 20
217.60327060231685
  0
LWPOLYLINE
  5
37
330
17
100
AcDbEntity
  8
TOPPERS_CUT
100
AcDbPolyline
 90
139
 70
1
 10
111.19292108320022
 20
195.13816247574601
 10
109.18479746861067
 20
196.22326134153093
 10
107.67591649630965
 20
197.4120751248578
 10
105.55887320964163
 20
199.6963972830426
 10
103.95296914705989
 20
200.48447858708636
 10
102.04186862275108
 20
201.9703099321544
 10
100.62703659528141
 20
203.95984513768508
 10
100.1106926166587
 20
206.15606664193734
 10
100.49432375960762
 20
208.35897997345077
 10
101.38165876301925
 20
210.06562480812508
 10
102.47344945606537
 20
211.173773301143
 10
103.0645104340982
 20
212.37820134807936
 10
103.05707507047464
 20
213.37817370538113
 10
102.64816369120567
 20
214.57516638869396
 10
100.63260471299256
 20
216.6602376117807
 10
99.83337036351344
 20
216.5542920851517
 10
98.74455381591675
 20
215.04615464921304
 10
97.67283860465422
 20
211.23808079148017
 10
97.07359872663545
 20
211.1336223375759
 10
96.47064116680494
 20
211.52915006232246
 10
94.87440307693377
 20
211.0172673018739
 10
93.88112254689314
 20
210.10985681667867
 10
92.3744721836792
 20
210.998678892815
 10
91.76705340567456
 20
211.9941900319427
 10
91.5551623524165
 20
213.59265873090095
 10
91.94994654080077
 20
214.29561352646164
 10
94.8297908951925
 20
217.0171014456849
 10
95.72604833495237
 20
217.52377945159702
 10
97.7021998859607
 20
220.73856172220994
 10
99.0917516771103
 20
222.14893253150544
 10
100.27833485135011
 20
223.957805210997
 10
100.16867164290933
 20
225.25702573912707
 10
99.66422424608427
 20
225.85329147169637
 10
98.66276481605773
 20
226.04585057953324
 10
97.86576107566569
 20
225.6399133457136
 10
97.26429058855987
 20
225.8354465989999
 10
97.06132197165009
 20
226.23394846919592
 10
97.25239400676222
 20
227.43540237068282
 10
98.44343839917615
 20
228.64429163579325
 10
97.72412580364366
 20
231.23901501024156
 10
97.9129672296687
 20
232.740460618919
 10
98.80253284216738
 20
234.1471137464028
 10
99.69730320920254
 20
234.85378622377524
 10
101.29354129907371
 20
235.36566898422384
 10
102.79349983502645
 20
235.37682202965917
 10
104.38750731581055
 20
236.18869649729828
 10
105.18004983802845
 20
237.19461714549897
 10
105.37409601859001
 20
237.99608210406512
 10
107.05992183511839
 20
239.90866970109863
 10
107.73239163982252
 20
243.61377217765192
 10
109.0130237588937
 20
246.22336627934732
 10
110.99512360080087
 20
248.6381706641188
 10
113.87868563700438
 20
250.85967240469114
 10
116.0704459230825
 20
251.97599979769493
 10
119.06218409500211
 20
253.0982754815976
 10
122.35763165592405
 20
253.72279559593636
 10
124.25683559843515
 20
253.83692002255128
 10
128.75894181538047
 20
253.57038745166673
 10
131.5633256339997
 20
252.99122305543156
 10
132.367021201653
 20
252.49718516767948
 10
134.67141884162132
 20
251.91430308963254
 10
138.28693359151737
 20
249.84112844834345
 10
141.50766415302917
 20
247.06499901149363
 10
144.23510036315125
 20
243.38517677126043
 10
146.47816465823183
 20
237.60169489888162
 10
147.38706221615172
 20
236.4084198973806
 10
148.79297180727315
 20
235.61885152061208
 10
152.89508908129773
 20
235.3493448042781
 10
155.2987404206339
 20
234.86720349832368
 10
157.8083372865991
 20
233.58582784289018
 10
160.3276001252749
 20
231.00448812296426
 10
161.24095890136894
 20
229.21122970708217
 10
161.9639891787132
 20
226.11652015398295
 10
161.98109051504736
 20
223.81658373218875
 10
161.20936701097537
 20
220.01074048354295
 10
160.41831156148217
 20
218.8048253638819
 10
159.71238262047206
 20
219.5995984951869
 10
159.3027277048407
 20
220.89658841422983
 10
157.58492982473106
 20
223.28388195359426
 10
154.57460324375262
 20
224.66153716294616
 10
151.16577479257813
 20
225.8362237553883
 10
150.66876275937662
 20
225.43251713065578
 10
150.58363625089353
 20
223.43182887968973
 10
150.10149494493913
 20
221.0281775403536
 10
148.53871599137392
 20
216.01641917204674
 10
148.5550737913457
 20
213.81647998598268
 10
149.27289931415353
 20
211.4217510829948
 10
148.87588451668222
 20
211.0187879946246
 10
146.16331903380723
 20
212.6986655202542
 10
143.94627851140905
 20
214.9822441420766
 10
142.52921587485233
 20
217.27177105479785
 10
141.5091680357669
 20
219.96426105588927
 10
141.19430560132926
 20
221.96197516140586
 10
141.18315255589394
 20
223.4619336973586
 10
141.7593428066797
 20
226.66630645889865
 10
144.11615135518753
 20
232.48399100394576
 10
144.00723168310907
 20
233.68321429634557
 10
143.49906660447226
 20
234.77946620756583
 10
141.782012260725
 20
237.06676251120007
 10
139.6664560467817
 20
239.15109019792445
 10
138.05832137511285
 20
240.2391632091588
 10
135.75020605333276
 20
241.32203146585667
 10
134.7502336960309
 20
241.3145961022331
 10
133.16589218795744
 20
239.2027575701016
 10
132.36740137484065
 20
238.99681480774234
 10
131.17412637333967
 20
238.08791724982242
 10
130.882313566135
 20
236.9857170477034
 10
132.39268161116073
 20
235.5969087929161
 10
135.69482099934382
 20
235.3214537856833
 10
137.3044427437374
 20
234.0333863029886
 10
137.50741136064715
 20
233.63488443279252
 10
137.31262164372328
 20
232.93341670995656
 10
136.11637249677284
 20
232.4245080949574
 10
136.1252949331211
 20
231.2245412661952
 10
136.52974509421597
 20
230.62753199726347
 10
137.0475761455634
 20
228.2313160215509
 10
137.45053923393354
 20
227.83430122407952
 10
138.35125789186753
 20
227.74099581561055
 10
139.05644329651534
 20
227.04621992003575
 10
139.76757699206192
 20
225.55146613861953
 10
139.77649942841018
 20
224.3514993098573
 10
138.5943774723445
 20
221.94264321598467
 10
136.80781088372356
 20
220.12930931831897
 10
135.62122770948378
 20
218.3204366388274
 10
135.53312705555123
 20
216.71973733078212
 10
136.66432517580216
 20
212.5280323301003
 10
136.682913584861
 20
210.02810143684573
 10
135.605993619062
 20
206.92000822922415
 10
134.81419463320645
 20
205.8140903452933
 10
132.42987523929148
 20
203.69630352226295
 10
131.54923206314103
 20
201.089683566017
 10
130.85743031301567
 20
199.98450921844852
 10
129.66638592060173
 20
198.77561995333807
 10
127.77313026898943
 20
197.86151764088166
 10
126.07540787066338
 20
197.54888581553107
 10
124.68436900678907
 20
196.3385094776959
 10
122.6926031921713
 20
195.22366915741682
 10
117.09870628217989
 20
194.38205323528348
 10
113.89879473881402
 20
194.35826007168814
  0
ENDSEC
  0
SECTION
  2
OBJECTS
  0
DICTIONARY
  5
A
330
0
100
AcDbDictionary
281
1
  3
ACAD_COLOR
350
B
  3
ACAD_GROUP
350
C
  3
ACAD_LAYOUT
350
D
  3
ACAD_MATERIAL
350
E
  3
ACAD_MLEADERSTYLE
350
F
  3
ACAD_MLINESTYLE
350
10
  3
ACAD_PLOTSETTINGS
350
11
  3
ACAD_PLOTSTYLENAME
350
12
  3
ACAD_SCALELIST
350
14
  3
ACAD_TABLESTYLE
350
15
  3
ACAD_VISUALSTYLE
350
16
  3
EZDXF_META
350
2D
  0
DICTIONARY
  5
B
330
A
100
AcDbDictionary
281
1
  0
DICTIONARY
  5
C
330
A
100
AcDbDictionary
281
1
  0
DICTIONARY
  5
D
330
A
100
AcDbDictionary
281
1
  3
Model
350
1A
  3
Layout1
350
1E
  0
DICTIONARY
  5
E
330
A
100
AcDbDictionary
281
1
  3
ByBlock
350
1F
  3
ByLayer
350
20
  3
Global
350
21
  0
DICTIONARY
  5
F
330
A
100
AcDbDictionary
281
1
  3
Standard
350
2C
  0
DICTIONARY
  5
10
330
A
100
AcDbDictionary
281
1
  3
Standard
350
22
  0
DICTIONARY
  5
11
330
A
100
AcDbDictionary
281
1
  0
ACDBDICTIONARYWDFLT
  5
12
330
A
100
AcDbDictionary
281
1
  3
Normal
350
13
100
AcDbDictionaryWithDefault
340
13
  0
ACDBPLACEHOLDER
  5
13
330
12
  0
DICTIONARY
  5
14
330
A
100
AcDbDictionary
281
1
  0
DICTIONARY
  5
15
330
A
100
AcDbDictionary
281
1
  0
DICTIONARY
  5
16
330
A
100
AcDbDictionary
281
1
  0
LAYOUT
  5
1A
330
D
100
AcDbPlotSettings
  1

  4
A3
  6

 40
7.5
 41
20.0
 42
7.5
 43
20.0
 44
420.0
 45
297.0
 46
0.0
 47
0.0
 48
0.0
 49
0.0
140
0.0
141
0.0
142
1.0
143
1.0
 70
1024
 72
1
 73
0
 74
5
  7

 75
16
 76
0
 77
2
 78
300
147
1.0
148
0.0
149
0.0
100
AcDbLayout
  1
Model
 70
1
 71
0
 10
0.0
 20
0.0
 11
420.0
 21
297.0
 12
0.0
 22
0.0
 32
0.0
 14
1e+20
 24
1e+20
 34
1e+20
 15
-1e+20
 25
-1e+20
 35
-1e+20
146
0.0
 13
0.0
 23
0.0
 33
0.0
 16
1.0
 26
0.0
 36
0.0
 17
0.0
 27
1.0
 37
0.0
 76
1
330
17
  0
LAYOUT
  5
1E
330
D
100
AcDbPlotSettings
  1

  4
A3
  6

 40
7.5
 41
20.0
 42
7.5
 43
20.0
 44
420.0
 45
297.0
 46
0.0
 47
0.0
 48
0.0
 49
0.0
140
0.0
141
0.0
142
1.0
143
1.0
 70
0
 72
1
 73
0
 74
5
  7

 75
16
 76
0
 77
2
 78
300
147
1.0
148
0.0
149
0.0
100
AcDbLayout
  1
Layout1
 70
1
 71
1
 10
0.0
 20
0.0
 11
420.0
 21
297.0
 12
0.0
 22
0.0
 32
0.0
 14
1e+20
 24
1e+20
 34
1e+20
 15
-1e+20
 25
-1e+20
 35
-1e+20
146
0.0
 13
0.0
 23
0.0
 33
0.0
 16
1.0
 26
0.0
 36
0.0
 17
0.0
 27
1.0
 37
0.0
 76
1
330
1B
  0
MATERIAL
  5
1F
102
{ACAD_REACTORS
330
E
102
}
330
E
100
AcDbMaterial
  1
ByBlock
  2

 70
0
 40
1.0
 71
1
 41
1.0
 91
-1023410177
 42
1.0
 72
1
  3

 73
1
 74
1
 75
1
 44
0.5
 73
0
 45
1.0
 46
1.0
 77
1
  4

 78
1
 79
1
170
1
 48
1.0
171
1
  6

172
1
173
1
174
1
140
1.0
141
1.0
175
1
  7

176
1
177
1
178
1
143
1.0
179
1
  8

270
1
271
1
272
1
145
1.0
146
1.0
273
1
  9

274
1
275
1
276
1
 42
1.0
 72
1
  3

 73
1
 74
1
 75
1
 94
63
  0
MATERIAL
  5
20
102
{ACAD_REACTORS
330
E
102
}
330
E
100
AcDbMaterial
  1
ByLayer
  2

 70
0
 40
1.0
 71
1
 41
1.0
 91
-1023410177
 42
1.0
 72
1
  3

 73
1
 74
1
 75
1
 44
0.5
 73
0
 45
1.0
 46
1.0
 77
1
  4

 78
1
 79
1
170
1
 48
1.0
171
1
  6

172
1
173
1
174
1
140
1.0
141
1.0
175
1
  7

176
1
177
1
178
1
143
1.0
179
1
  8

270
1
271
1
272
1
145
1.0
146
1.0
273
1
  9

274
1
275
1
276
1
 42
1.0
 72
1
  3

 73
1
 74
1
 75
1
 94
63
  0
MATERIAL
  5
21
102
{ACAD_REACTORS
330
E
102
}
330
E
100
AcDbMaterial
  1
Global
  2

 70
0
 40
1.0
 71
1
 41
1.0
 91
-1023410177
 42
1.0
 72
1
  3

 73
1
 74
1
 75
1
 44
0.5
 73
0
 45
1.0
 46
1.0
 77
1
  4

 78
1
 79
1
170
1
 48
1.0
171
1
  6

172
1
173
1
174
1
140
1.0
141
1.0
175
1
  7

176
1
177
1
178
1
143
1.0
179
1
  8

270
1
271
1
272
1
145
1.0
146
1.0
273
1
  9

274
1
275
1
276
1
 42
1.0
 72
1
  3

 73
1
 74
1
 75
1
 94
63
  0
MLINESTYLE
  5
22
102
{ACAD_REACTORS
330
10
102
}
330
10
100
AcDbMlineStyle
  2
Standard
 70
0
  3

 62
256
 51
90.0
 52
90.0
 71
2
 49
0.5
 62
256
  6
BYLAYER
 49
-0.5
 62
256
  6
BYLAYER
  0
MLEADERSTYLE
  5
2C
102
{ACAD_REACTORS
330
F
102
}
330
F
100
AcDbMLeaderStyle
179
2
170
2
171
1
172
0
 90
2
 40
0.0
 41
0.0
173
1
 91
-1056964608
 92
-2
290
1
 42
2.0
291
1
 43
8.0
  3
Standard
 44
4.0
300

342
29
174
1
175
1
176
0
178
1
 93
-1056964608
 45
4.0
292
0
297
0
 46
4.0
 94
-1056964608
 47
1.0
 49
1.0
140
1.0
294
1
141
0.0
177
0
142
1.0
295
0
296
0
143
3.75
271
0
272
9
273
9
  0
DICTIONARY
  5
2D
330
A
100
AcDbDictionary
280
1
281
1
  3
CREATED_BY_EZDXF
350
2E
  3
WRITTEN_BY_EZDXF
350
3A
  0
DICTIONARYVAR
  5
2E
330
2D
100
DictionaryVariables
280
0
  1
1.4.4 @ 2026-08-27T20:13:32.929800+00:00
  0
DICTIONARYVAR
  5
3A
330
2D
100
DictionaryVariables
280
0
  1
1.4.4 @ 2026-08-27T20:13:32.939623+00:00
  0
ENDSEC
  0
EOF
