  0
SECTION
  2
HEADER
  9
$ACADVER
  1
AC1024
  9
$ACADMAINTVER
 70
6
  9
$DWGCODEPAGE
  3
ANSI_1252
  9
$LASTSAVEDBY
  1
ezdxf
  9
$INSBASE
 10
0.0
 20
0.0
 30
0.0
  9
$EXTMIN
 10
1e+20
 20
1e+20
 30
1e+20
  9
$EXTMAX
 10
-1e+20
 20
-1e+20
 30
-1e+20
  9
$LIMMIN
 10
0.0
 20
0.0
  9
$LIMMAX
 10
420.0
 20
297.0
  9
$ORTHOMODE
 70
0
  9
$REGENMODE
 70
1
  9
$FILLMODE
 70
1
  9
$QTEXTMODE
 70
0
  9
$MIRRTEXT
 70
1
  9
$LTSCALE
 40
1.0
  9
$ATTMODE
 70
1
  9
$TEXTSIZE
 40
2.5
  9
$TRACEWID
 40
1.0
  9
$TEXTSTYLE
  7
Standard
  9
$CLAYER
  8
0
  9
$CELTYPE
  6
ByLayer
  9
$CECOLOR
 62
256
  9
$CELTSCALE
 40
1.0
  9
$DISPSILH
 70
0
  9
$DIMSCALE
 40
1.0
  9
$DIMASZ
 40
2.5
  9
$DIMEXO
 40
0.625
  9
$DIMDLI
 40
3.75
  9
$DIMRND
 40
0.0
  9
$DIMDLE
 40
0.0
  9
$DIMEXE
 40
1.25
  9
$DIMTP
 40
0.0
  9
$DIMTM
 40
0.0
  9
$DIMTXT
 40
2.5
  9
$DIMCEN
 40
2.5
  9
$DIMTSZ
 40
0.0
  9
$DIMTOL
 70
0
  9
$DIMLIM
 70
0
  9
$DIMTIH
 70
0
  9
$DIMTOH
 70
0
  9
$DIMSE1
 70
0
  9
$DIMSE2
 70
0
  9
$DIMTAD
 70
1
  9
$DIMZIN
 70
8
  9
$DIMBLK
  1

  9
$DIMASO
 70
1
  9
$DIMSHO
 70
1
  9
$DIMPOST
  1

  9
$DIMAPOST
  1

  9
$DIMALT
 70
0
  9
$DIMALTD
 70
3
  9
$DIMALTF
 40
0.03937007874
  9
$DIMLFAC
 40
1.0
  9
$DIMTOFL
 70
1
  9
$DIMTVP
 40
0.0
  9
$DIMTIX
 70
0
  9
$DIMSOXD
 70
0
  9
$DIMSAH
 70
0
  9
$DIMBLK1
  1

  9
$DIMBLK2
  1

  9
$DIMSTYLE
  2
ISO-25
  9
$DIMCLRD
 70
0
  9
$DIMCLRE
 70
0
  9
$DIMCLRT
 70
0
  9
$DIMTFAC
 40
1.0
  9
$DIMGAP
 40
0.625
  9
$DIMJUST
 70
0
  9
$DIMSD1
 70
0
  9
$DIMSD2
 70
0
  9
$DIMTOLJ
 70
0
  9
$DIMTZIN
 70
8
  9
$DIMALTZ
 70
0
  9
$DIMALTTZ
 70
0
  9
$DIMUPT
 70
0
  9
$DIMDEC
 70
2
  9
$DIMTDEC
 70
2
  9
$DIMALTU
 70
2
  9
$DIMALTTD
 70
3
  9
$DIMTXSTY
  7
Standard
  9
$DIMAUNIT
 70
0
  9
$DIMADEC
 70
0
  9
$DIMALTRND
 40
0.0
  9
$DIMAZIN
 70
0
  9
$DIMDSEP
 70
44
  9
$DIMATFIT
 70
3
  9
$DIMFRAC
 70
0
  9
$DIMLDRBLK
  1

  9
$DIMLUNIT
 70
2
  9
$DIMLWD
 70
-2
  9
$DIMLWE
 70
-2
  9
$DIMTMOVE
 70
0
  9
$DIMFXL
 40
1.0
  9
$DIMFXLON
 70
0
  9
$DIMJOGANG
 40
0.785398163397
  9
$DIMTFILL
 70
0
  9
$DIMTFILLCLR
 70
0
  9
$DIMARCSYM
 70
0
  9
$DIMLTYPE
  6

  9
$DIMLTEX1
  6

  9
$DIMLTEX2
  6

  9
$DIMTXTDIRECTION
 70
0
  9
$LUNITS
 70
2
  9
$LUPREC
 70
4
  9
$SKETCHINC
 40
1.0
  9
$FILLETRAD
 40
10.0
  9
$AUNITS
 70
0
  9
$AUPREC
 70
2
  9
$MENU
  1
.
  9
$ELEVATION
 40
0.0
  9
$PELEVATION
 40
0.0
  9
$THICKNESS
 40
0.0
  9
$LIMCHECK
 70
0
  9
$CHAMFERA
 40
0.0
  9
$CHAMFERB
 40
0.0
  9
$CHAMFERC
 40
0.0
  9
$CHAMFERD
 40
0.0
  9
$SKPOLY
 70
0
  9
$TDCREATE
 40
2461280.6342708333
  9
$TDUCREATE
 40
2458532.153996898
  9
$TDUPDATE
 40
2461280.6342708333
  9
$TDUUPDATE
 40
2458532.1544311
  9
$TDINDWG
 40
0.0
  9
$TDUSRTIMER
 40
0.0
  9
$USRTIMER
 70
1
  9
$ANGBASE
 50
0.0
  9
$ANGDIR
 70
0
  9
$PDMODE
 70
0
  9
$PDSIZE
 40
0.0
  9
$PLINEWID
 40
0.0
  9
$SPLFRAME
 70
0
  9
$SPLINETYPE
 70
6
  9
$SPLINESEGS
 70
8
  9
$HANDSEED
  5
3B
  9
$SURFTAB1
 70
6
  9
$SURFTAB2
 70
6
  9
$SURFTYPE
 70
6
  9
$SURFU
 70
6
  9
$SURFV
 70
6
  9
$UCSBASE
  2

  9
$UCSNAME
  2

  9
$UCSORG
 10
0.0
 20
0.0
 30
0.0
  9
$UCSXDIR
 10
1.0
 20
0.0
 30
0.0
  9
$UCSYDIR
 10
0.0
 20
1.0
 30
0.0
  9
$UCSORTHOREF
  2

  9
$UCSORTHOVIEW
 70
0
  9
$UCSORGTOP
 10
0.0
 20
0.0
 30
0.0
  9
$UCSORGBOTTOM
 10
0.0
 20
0.0
 30
0.0
  9
$UCSORGLEFT
 10
0.0
 20
0.0
 30
0.0
  9
$UCSORGRIGHT
 10
0.0
 20
0.0
 30
0.0
  9
$UCSORGFRONT
 10
0.0
 20
0.0
 30
0.0
  9
$UCSORGBACK
 10
0.0
 20
0.0
 30
0.0
  9
$PUCSBASE
  2

  9
$PUCSNAME
  2

  9
$PUCSORG
 10
0.0
 20
0.0
 30
0.0
  9
$PUCSXDIR
 10
1.0
 20
0.0
 30
0.0
  9
$PUCSYDIR
 10
0.0
 20
1.0
 30
0.0
  9
$PUCSORTHOREF
  2

  9
$PUCSORTHOVIEW
 70
0
  9
$PUCSORGTOP
 10
0.0
 20
0.0
 30
0.0
  9
$PUCSORGBOTTOM
 10
0.0
 20
0.0
 30
0.0
  9
$PUCSORGLEFT
 10
0.0
 20
0.0
 30
0.0
  9
$PUCSORGRIGHT
 10
0.0
 20
0.0
 30
0.0
  9
$PUCSORGFRONT
 10
0.0
 20
0.0
 30
0.0
  9
$PUCSORGBACK
 10
0.0
 20
0.0
 30
0.0
  9
$USERI1
 70
0
  9
$USERI2
 70
0
  9
$USERI3
 70
0
  9
$USERI4
 70
0
  9
$USERI5
 70
0
  9
$USERR1
 40
0.0
  9
$USERR2
 40
0.0
  9
$USERR3
 40
0.0
  9
$USERR4
 40
0.0
  9
$USERR5
 40
0.0
  9
$WORLDVIEW
 70
1
  9
$SHADEDGE
 70
3
  9
$SHADEDIF
 70
70
  9
$TILEMODE
 70
1
  9
$MAXACTVP
 70
64
  9
$PINSBASE
 10
0.0
 20
0.0
 30
0.0
  9
$PLIMCHECK
 70
0
  9
$PEXTMIN
 10
1e+20
 20
1e+20
 30
1e+20
  9
$PEXTMAX
 10
-1e+20
 20
-1e+20
 30
-1e+20
  9
$PLIMMIN
 10
0.0
 20
0.0
  9
$PLIMMAX
 10
420.0
 20
297.0
  9
$UNITMODE
 70
0
  9
$VISRETAIN
 70
1
  9
$PLINEGEN
 70
0
  9
$PSLTSCALE
 70
1
  9
$TREEDEPTH
 70
3020
  9
$CMLSTYLE
  2
Standard
  9
$CMLJUST
 70
0
  9
$CMLSCALE
 40
20.0
  9
$PROXYGRAPHICS
 70
1
  9
$MEASUREMENT
 70
1
  9
$CELWEIGHT
370
-1
  9
$ENDCAPS
280
0
  9
$JOINSTYLE
280
0
  9
$LWDISPLAY
290
0
  9
$INSUNITS
 70
6
  9
$HYPERLINKBASE
  1

  9
$STYLESHEET
  1

  9
$XEDIT
290
1
  9
$CEPSNTYPE
380
0
  9
$PSTYLEMODE
290
1
  9
$FINGERPRINTGUID
  2
{E83C019A-3E04-44C3-A1AF-8964C5DCDF09}
  9
$VERSIONGUID
  2
{C8EC8500-A8F1-4B44-A618-0E008BA39570}
  9
$EXTNAMES
290
1
  9
$PSVPSCALE
 40
0.0
  9
$OLESTARTUP
290
0
  9
$SORTENTS
280
127
  9
$INDEXCTL
280
0
  9
$HIDETEXT
280
1
  9
$XCLIPFRAME
280
1
  9
$HALOGAP
280
0
  9
$OBSCOLOR
 70
257
  9
$OBSLTYPE
280
0
  9
$INTERSECTIONDISPLAY
280
0
  9
$INTERSECTIONCOLOR
 70
257
  9
$DIMASSOC
280
2
  9
$PROJECTNAME
  1

  9
$CAMERADISPLAY
290
0
  9
$LENSLENGTH
 40
50.0
  9
$CAMERAHEIGHT
 40
0.0
  9
$STEPSPERSEC
 40
24.0
  9
$STEPSIZE
 40
100.0
  9
$3DDWFPREC
 40
2.0
  9
$PSOLWIDTH
 40
0.005
  9
$PSOLHEIGHT
 40
0.08
  9
$LOFTANG1
 40
1.570796326795
  9
$LOFTANG2
 40
1.570796326795
  9
$LOFTMAG1
 40
0.0
  9
$LOFTMAG2
 40
0.0
  9
$LOFTPARAM
 70
7
  9
$LOFTNORMALS
280
1
  9
$LATITUDE
 40
37.795
  9
$LONGITUDE
 40
-122.394
  9
$NORTHDIRECTION
 40
0.0
  9
$TIMEZONE
 70
-8000
  9
$LIGHTGLYPHDISPLAY
280
1
  9
$TILEMODELIGHTSYNCH
280
1
  9
$CMATERIAL
347
20
  9
$SOLIDHIST
280
0
  9
$SHOWHIST
280
1
  9
$DWFFRAME
280
2
  9
$DGNFRAME
280
2
  9
$REALWORLDSCALE
290
1
  9
$INTERFERECOLOR
 62
256
  9
$CSHADOW
280
0
  9
$SHADOWPLANELOCATION
 40
0.0
  0
ENDSEC
  0
SECTION
  2
CLASSES
  0
CLASS
  1
ACDBDICTIONARYWDFLT
  2
AcDbDictionaryWithDefault
  3
ObjectDBX Classes
 90
0
 91
0
280
0
281
0
  0
CLASS
  1
SUN
  2
AcDbSun
  3
SCENEOE
 90
1153
 91
0
280
0
281
0
  0
CLASS
  1
VISUALSTYLE
  2
AcDbVisualStyle
  3
ObjectDBX Classes
 90
4095
 91
0
280
0
281
0
  0
CLASS
  1
MATERIAL
  2
AcDbMaterial
  3
ObjectDBX Classes
 90
1153
 91
0
280
0
281
0
  0
CLASS
  1
SCALE
  2
AcDbScale
  3
ObjectDBX Classes
 90
1153
 91
0
280
0
281
0
  0
CLASS
  1
TABLESTYLE
  2
AcDbTableStyle
  3
ObjectDBX Classes
 90
4095
 91
0
280
0
281
0
  0
CLASS
  1
MLEADERSTYLE
  2
AcDbMLeaderStyle
  3
ACDB_MLEADERSTYLE_CLASS
 90
4095
 91
0
280
0
281
0
  0
CLASS
  1
DICTIONARYVAR
  2
AcDbDictionaryVar
  3
ObjectDBX Classes
 90
0
 91
0
280
0
281
0
  0
CLASS
  1
CELLSTYLEMAP
  2
AcDbCellStyleMap
  3
ObjectDBX Classes
 90
1152
 91
0
280
0
281
0
  0
CLASS
  1
MENTALRAYRENDERSETTINGS
  2
AcDbMentalRayRenderSettings
  3
SCENEOE
 90
1024
 91
0
280
0
281
0
  0
CLASS
  1
ACDBDETAILVIEWSTYLE
  2
AcDbDetailViewStyle
  3
ObjectDBX Classes
 90
1025
 91
0
280
0
281
0
  0
CLASS
  1
ACDBSECTIONVIEWSTYLE
  2
AcDbSectionViewStyle
  3
ObjectDBX Classes
 90
1025
 91
0
280
0
281
0
  0
CLASS
  1
RASTERVARIABLES
  2
AcDbRasterVariables
  3
ISM
 90
0
 91
0
280
0
281
0
  0
CLASS
  1
ACDBPLACEHOLDER
  2
AcDbPlaceHolder
  3
ObjectDBX Classes
 90
0
 91
0
280
0
281
0
  0
CLASS
  1
LAYOUT
  2
AcDbLayout
  3
ObjectDBX Classes
 90
0
 91
0
280
0
281
0
  0
ENDSEC
  0
SECTION
  2
TABLES
  0
TABLE
  2
VPORT
  5
8
330
0
100
AcDbSymbolTable
 70
1
  0
VPORT
  5
23
330
8
100
AcDbSymbolTableRecord
100
AcDbViewportTableRecord
  2
*Active
 70
0
 10
0.0
 20
0.0
 11
1.0
 21
1.0
 12
0.0
 22
0.0
 13
0.0
 23
0.0
 14
0.5
 24
0.5
 15
0.5
 25
0.5
 16
0.0
 26
0.0
 36
1.0
 17
0.0
 27
0.0
 37
0.0
 40
1000.0
 41
1.34
 42
50.0
 43
0.0
 44
0.0
 50
0.0
 51
0.0
 71
0
 72
1000
 73
1
 74
3
 75
0
 76
0
 77
0
 78
0
281
0
 65
0
146
0.0
  0
ENDTAB
  0
TABLE
  2
LTYPE
  5
2
330
0
100
AcDbSymbolTable
 70
3
  0
LTYPE
  5
24
330
2
100
AcDbSymbolTableRecord
100
AcDbLinetypeTableRecord
  2
ByBlock
 70
0
  3

 72
65
 73
0
 40
0.0
  0
LTYPE
  5
25
330
2
100
AcDbSymbolTableRecord
100
AcDbLinetypeTableRecord
  2
ByLayer
 70
0
  3

 72
65
 73
0
 40
0.0
  0
LTYPE
  5
26
330
2
100
AcDbSymbolTableRecord
100
AcDbLinetypeTableRecord
  2
Continuous
 70
0
  3

 72
65
 73
0
 40
0.0
  0
ENDTAB
  0
TABLE
  2
LAYER
  5
1
330
0
100
AcDbSymbolTable
 70
3
  0
LAYER
  5
27
330
1
100
AcDbSymbolTableRecord
100
AcDbLayerTableRecord
  2
0
 70
0
 62
7
  6
Continuous
370
-3
390
13
347
21
  0
LAYER
  5
28
330
1
100
AcDbSymbolTableRecord
100
AcDbLayerTableRecord
  2
Defpoints
 70
0
 62
7
  6
Continuous
290
0
370
-3
390
13
347
21
  0
LAYER
  5
2F
330
1
100
AcDbSymbolTableRecord
100
AcDbLayerTableRecord
  2
TOPPERS_CUT
 70
0
 62
4
  6
Continuous
370
-3
390
13
347
21
  0
ENDTAB
  0
TABLE
  2
STYLE
  5
5
330
0
100
AcDbSymbolTable
 70
1
  0
STYLE
  5
29
330
5
100
AcDbSymbolTableRecord
100
AcDbTextStyleTableRecord
  2
Standard
 70
0
 40
0.0
 41
1.0
 50
0.0
 71
0
 42
2.5
  3
txt
  4

  0
ENDTAB
  0
TABLE
  2
VIEW
  5
7
330
0
100
AcDbSymbolTable
 70
0
  0
ENDTAB
  0
TABLE
  2
UCS
  5
6
330
0
100
AcDbSymbolTable
 70
0
  0
ENDTAB
  0
TABLE
  2
APPID
  5
3
330
0
100
AcDbSymbolTable
 70
3
  0
APPID
  5
2A
330
3
100
AcDbSymbolTableRecord
100
AcDbRegAppTableRecord
  2
ACAD
 70
0
  0
APPID
  5
38
330
3
100
AcDbSymbolTableRecord
100
AcDbRegAppTableRecord
  2
HATCHBACKGROUNDCOLOR
 70
0
  0
APPID
  5
39
330
3
100
AcDbSymbolTableRecord
100
AcDbRegAppTableRecord
  2
EZDXF
 70
0
  0
ENDTAB
  0
TABLE
  2
DIMSTYLE
  5
4
330
0
100
AcDbSymbolTable
 70
1
100
AcDbDimStyleTable
  0
DIMSTYLE
105
2B
330
4
100
AcDbSymbolTableRecord
100
AcDbDimStyleTableRecord
  2
Standard
 70
0
 40
1.0
 41
2.5
 42
0.625
 43
3.75
 44
1.25
 45
0.0
 46
0.0
 47
0.0
 48
0.0
 49
2.5
140
2.5
141
2.5
142
0.0
143
0.03937007874
144
1.0
145
0.0
146
1.0
147
0.625
148
0.0
 69
0
 70
0
 71
0
 72
0
 73
0
 74
0
 75
0
 76
0
 77
1
 78
8
 79
3
170
0
171
3
172
1
173
0
174
0
175
0
176
0
177
0
178
0
179
2
271
2
272
2
273
2
274
3
275
0
276
0
277
2
278
44
279
0
280
0
281
0
282
0
283
0
284
8
285
0
286
0
288
0
289
3
290
0
371
-2
372
-2
  0
ENDTAB
  0
TABLE
  2
BLOCK_RECORD
  5
9
330
0
100
AcDbSymbolTable
 70
2
  0
BLOCK_RECORD
  5
17
330
9
100
AcDbSymbolTableRecord
100
AcDbBlockTableRecord
  2
*Model_Space
340
1A
 70
0
280
1
281
0
  0
BLOCK_RECORD
  5
1B
330
9
100
AcDbSymbolTableRecord
100
AcDbBlockTableRecord
  2
*Paper_Space
340
1E
 70
0
280
1
281
0
  0
ENDTAB
  0
ENDSEC
  0
SECTION
  2
BLOCKS
  0
BLOCK
  5
18
330
17
100
AcDbEntity
  8
0
100
AcDbBlockBegin
  2
*Model_Space
 70
0
 10
0.0
 20
0.0
 30
0.0
  3
*Model_Space
  1

  0
ENDBLK
  5
19
330
17
100
AcDbEntity
  8
0
100
AcDbBlockEnd
  0
BLOCK
  5
1C
330
1B
100
AcDbEntity
  8
0
100
AcDbBlockBegin
  2
*Paper_Space
 70
0
 10
0.0
 20
0.0
 30
0.0
  3
*Paper_Space
  1

  0
ENDBLK
  5
1D
330
1B
100
AcDbEntity
  8
0
100
AcDbBlockEnd
  0
ENDSEC
  0
SECTION
  2
ENTITIES
  0
LWPOLYLINE
  5
30
330
17
100
AcDbEntity
  8
TOPPERS_CUT
100
AcDbPolyline
 90
158
 70
1
 10
86.48657922072678
 20
50.01162656399295
 10
86.45850711267163
 20
52.5114689503744
 10
87.2281387996141
 20
55.22028180224403
 10
87.72024708663494
 20
55.925852092041865
 10
90.89421900179244
 20
58.261639385823436
 10
93.58843435747339
 20
58.79192573979931
 10
94.9726257133361
 20
60.207557856683835
 10
95.36474030490169
 20
60.91200526215946
 10
97.0545271687412
 20
61.8310375547343
 10
99.34876774260113
 20
62.356832371421355
 10
101.14977714511798
 20
62.27705059376582
 10
104.36754154884154
 20
60.713083764792316
 10
107.15950483133334
 20
61.44448039400091
 10
108.55941656770695
 20
61.460200774511804
 10
110.4637883186457
 20
61.08156079481272
 10
111.77493520278611
 20
60.09622133644882
 10
112.57825341939481
 20
59.8052233246607
 10
113.38943182625891
 20
58.81426944468577
 10
114.1916271585454
 20
58.62326512835291
 10
115.00168268108735
 20
57.73230494383324
 10
115.90162594018469
 20
57.742410902733106
 10
117.10604182293659
 20
57.355910732778554
 10
119.11714457526382
 20
56.37843146467011
 10
119.93393740373901
 20
54.88750910741889
 10
120.74399292628092
 20
53.99654892289923
 10
121.25743601542369
 20
52.80223899904716
 10
121.2888767764455
 20
50.00241552629994
 10
121.49672435761147
 20
49.304705426757536
 10
120.70800363719145
 20
48.2957853976273
 10
120.81922617586879
 20
47.296971327396925
 10
121.02145933542371
 20
47.099229705130824
 10
121.91915682587664
 20
47.3093230549412
 10
122.62584999999667
 20
46.71722107246511
 10
123.42018514202773
 20
47.226172624319055
 10
124.13249273775882
 20
46.134102164566656
 10
124.62909256206846
 20
46.43969767254346
 10
124.62347814045742
 20
46.93966614981976
 10
125.01896138498964
 20
47.344132468929615
 10
125.72902321207633
 20
46.452049400087745
 10
126.0290042984421
 20
46.45541805305436
 10
126.61998339659598
 20
47.262104922629675
 10
126.8210936718287
 20
47.16435699581883
 10
126.73232881959552
 20
46.16329715694404
 10
126.33796845938551
 20
45.658837142378914
 10
125.34252304212177
 20
45.247633517335814
 10
125.05377079897805
 20
44.24432790981661
 10
124.741437985068
 20
45.34088990685783
 10
124.33809455028036
 20
45.63637945593478
 10
123.73925526187102
 20
45.529648454546276
 10
123.44264282847186
 20
45.226298715213886
 10
123.44713436576069
 20
44.82632393339286
 10
123.44376571279406
 20
45.126305019758625
 10
123.04042227800642
 20
45.42179456883558
 10
122.24159559868656
 20
45.31281779880266
 10
121.75397884895453
 20
44.207272727183785
 10
121.53939396185532
 20
45.50494499945772
 10
120.92932583022392
 20
46.398150952621805
 10
119.93500329728238
 20
45.88695363212345
 10
120.05071737324855
 20
44.48816478007204
 10
120.55966892510246
 20
43.69382963804101
 10
121.36635579467777
 20
43.102850539887115
 10
121.67981149291003
 20
41.90629484739063
 10
122.98534395543943
 20
41.42092386630303
 10
123.49092685432677
 20
40.92656981063778
 10
124.19088272251358
 20
40.93443000089322
 10
124.99532382344447
 20
40.54343829364985
 10
127.2951788189154
 20
40.569264633060605
 10
129.18832172663207
 20
41.19056160791409
 10
130.37140280726206
 20
42.70394165160945
 10
130.35905107971777
 20
43.80387230161729
 10
129.75572025401962
 20
44.09711608204982
 10
129.7489829480864
 20
44.697078254781374
 10
129.44451032443177
 20
45.09368438363578
 10
129.14340635374379
 20
45.19030942612442
 10
128.750168877856
 20
44.58585571610404
 10
129.05688727015502
 20
43.98926219633911
 10
129.55797863175354
 20
43.894882922494894
 10
129.56247016904234
 20
43.494908140673864
 10
128.76364348972248
 20
43.38593137064095
 10
128.15694401105767
 20
43.979156237439256
 10
127.73451154279253
 20
45.97453860925559
 10
127.92102432183655
 20
47.176708723363106
 10
128.2165138709135
 20
47.580052158150764
 10
128.61648865273452
 20
47.584543695439585
 10
129.12094866729964
 20
47.19018333522959
 10
129.6164256072871
 20
47.595772538661656
 10
130.81410418410582
 20
47.80923454143866
 10
131.72190763345856
 20
47.119384632151714
 10
131.22755357779332
 20
46.61380173326438
 10
131.0410407987493
 20
45.41163161915687
 10
130.34894512081792
 20
44.70381556071461
 10
131.26573164474834
 20
43.214016087785595
 10
131.66682931089161
 20
43.11851392961917
 10
132.36004787314516
 20
43.72633629260617
 10
132.8499103915216
 20
44.631893973314526
 10
132.6218508925559
 20
47.12949059105158
 10
132.01964295117995
 20
47.32274067602885
 10
131.90729752818038
 20
48.42154844171448
 10
131.19948146973815
 20
49.11364411964584
 10
130.27595763987446
 20
51.2034057653064
 10
129.87149132076462
 20
51.5988890098386
 10
130.66358069415122
 20
52.30782795260308
 10
131.04446644249475
 20
54.01221231263129
 10
131.9354266270144
 20
54.822267835173214
 10
133.11401617035557
 20
56.735622660689614
 10
135.00154465646122
 20
57.85688811281939
 10
138.58672019666182
 20
59.19722998933719
 10
139.67205335048098
 20
60.50949975779982
 10
141.46071102545355
 20
61.52964863015213
 10
142.95724780431578
 20
61.846472981351006
 10
144.75713432251044
 20
61.866684899150734
 10
147.16259743504767
 20
61.39366564560741
 10
150.34779819342725
 20
62.7295159848364
 10
151.74546416115646
 20
62.9452237562578
 10
153.54759644799555
 20
62.76544828314702
 10
156.16427579466534
 20
61.29473784369552
 10
157.88325765088226
 20
59.61393405443365
 10
159.4898940840996
 20
59.03193803085742
 10
160.18984995228644
 20
59.03979822111287
 10
160.8976660107287
 20
58.34770254318149
 10
162.00208819802535
 20
57.96007948890475
 10
163.5143453573985
 20
56.876992103730004
 10
164.84233550637205
 20
54.39174721353724
 10
165.16252851053753
 20
52.59522934830922
 10
165.18161754401507
 20
50.895336525569824
 10
164.5063651309168
 20
48.6876150352987
 10
162.03571773691274
 20
46.05970684540681
 10
161.23913682623729
 20
45.750742684463376
 10
160.33694779849554
 20
45.94062411647403
 10
159.64485212056417
 20
45.23280805803178
 10
159.21225670262032
 20
39.22757190910524
 10
157.96062268755685
 20
34.91324550834044
 10
155.62028686570764
 20
29.586630425478784
 10
153.85296399285698
 20
26.666601339476568
 10
151.58567264273003
 20
23.74095783186332
 10
149.50938560893596
 20
21.617509656536548
 10
146.14104072447898
 20
18.779508116834283
 10
143.6591644872528
 20
17.151536881494973
 10
139.9807325575302
 20
15.210109947923408
 10
135.79784061324244
 20
13.663043374561841
 10
132.60590254892963
 20
12.92715520806441
 10
129.2106084407397
 20
12.48900235928834
 10
124.61089844979783
 20
12.43734968046682
 10
121.00663387611966
 20
12.796900626688402
 10
114.78793572441616
 20
14.427174621450963
 10
109.66018514814282
 20
16.86974990739986
 10
106.63791659804092
 20
18.83593728683882
 10
103.30780677131781
 20
21.49871188149796
 10
101.48770833532343
 20
23.278386481892888
 10
98.24187182354468
 20
27.342195697247853
 10
95.59038306288645
 20
31.912710695812354
 10
93.3141656289607
 20
38.68757853168136
 10
92.55357400737469
 20
44.079377896009866
 10
92.2502242680423
 20
44.37599032940902
 10
91.35140389326719
 20
44.265890675053896
 10
89.13919086570723
 20
45.34111786997319
 10
87.31572377674624
 20
47.420773556733884
 10
86.79105184438139
 20
49.61502043513853
  0
LWPOLYLINE
  5
31
330
17
100
AcDbEntity
  8
TOPPERS_CUT
100
AcDbPolyline
 90
55
 70
1
 10
35.93445673013902
 20
9.841452159385106
 10
34.21772064256651
 20
11.322268557736463
 10
33.6054067422907
 20
12.415461901811062
 10
32.6942346399713
 20
13.40529289746378
 10
30.7471932847887
 20
17.5836933044627
 10
29.11473051216056
 20
20.465544323509878
 10
27.98111333248651
 20
23.45300345962335
 10
26.55649814102434
 20
25.63714437912813
 10
25.350959373950207
 20
26.123638244537943
 10
15.336992332235686
 20
27.311267853235602
 10
12.328198394000282
 20
28.07753088721146
 10
9.411537960964688
 20
29.544872673696336
 10
8.69249305930036
 20
31.236905306180272
 10
8.974507996510825
 20
32.84017308643103
 10
9.7598600639642
 20
34.14907420192704
 10
12.72261574498912
 20
37.482552681616774
 10
16.487566758300517
 20
40.62502684497365
 10
20.44352208794478
 20
44.569696340617
 10
20.419941517178433
 20
46.669563945177416
 10
18.927953266383845
 20
54.8533265919977
 10
18.669575890718566
 20
60.05075298702671
 10
19.051584523384285
 20
61.65514365159968
 10
20.535769574702265
 20
63.07189865280641
 10
22.533397715163016
 20
63.29434373016105
 10
25.544437422042837
 20
62.32809330527467
 10
34.80112450435915
 20
57.33172019469955
 10
37.11108545872996
 20
56.45760327501298
 10
38.90535755531357
 20
56.97778367008899
 10
49.244066129261256
 20
62.494223194182474
 10
52.432635540607464
 20
63.530092447045675
 10
54.33363863857958
 20
63.451433553712356
 10
55.94701237773019
 20
62.269475357404566
 10
56.45820969822855
 20
61.27515282446302
 10
56.786262892649496
 20
58.77867909104818
 10
56.04919485105101
 20
53.17004907097606
 10
54.61104805694354
 20
47.653552556103755
 10
54.342507731599554
 20
44.8503604303899
 10
54.95369874755316
 20
43.85716078177056
 10
57.886079561099656
 20
40.98990725891207
 10
61.21731227214499
 20
38.227138968797675
 10
64.7620069859673
 20
34.266692101864585
 10
65.27095853782124
 20
33.472356959833554
 10
65.68665370015319
 20
32.076936760748765
 10
65.40800741590934
 20
30.173687894132236
 10
64.32042849344577
 20
29.061405516580116
 10
62.92837694732761
 20
28.34572926788241
 10
60.53526556233466
 20
27.718817871417894
 10
51.2470807282177
 20
26.614452674900065
 10
49.251698356401356
 20
26.19202020663489
 10
48.05738843254929
 20
25.678577117492114
 10
47.06980320554098
 20
24.567417624262205
 10
43.265494250173504
 20
16.02416102199918
 10
40.31733606533727
 20
11.390764501391088
 10
38.533169927653525
 20
9.970640847217748
 10
37.53660162606756
 20
9.659430917629901
  0
LWPOLYLINE
  5
32
330
17
100
AcDbEntity
  8
TOPPERS_CUT
100
AcDbPolyline
 90
94
 70
1
 10
6.503022672078733
 20
74.81506749119538
 10
5.479505146759804
 20
76.90370625253372
 10
5.342456268671715
 20
80.20237531823503
 10
5.722219132693023
 20
82.00675337371851
 10
7.860321794987323
 20
87.53111007884627
 10
8.782779731307624
 20
94.44190390848117
 10
9.756890346449447
 20
96.75298774717417
 10
11.93092530705437
 20
99.07754619773367
 10
13.721828750671364
 20
99.89770767917545
 10
15.118371834078356
 20
100.21340914605214
 10
15.904846785853943
 20
101.42231656609289
 10
14.791441523979618
 20
102.60988918401172
 10
13.665684534561015
 20
104.89739245193839
 10
13.342122877428896
 20
106.99389140353219
 10
13.517406813250858
 20
109.19599847219226
 10
15.17575291606859
 20
112.91485423751435
 10
17.252039949862667
 20
115.0383024128411
 10
18.03851490163825
 20
116.2472098328819
 10
17.908203329483403
 20
118.94591672585163
 10
18.494690890348473
 20
120.15257837724798
 10
19.19015522124645
 20
120.56041334932445
 10
19.990104784888516
 20
120.56939642390212
 10
22.407919624970027
 20
118.99644652035094
 10
25.208865982039466
 20
118.92789358591749
 10
26.6121463713797
 20
118.64363288006261
 10
28.42101596415201
 20
117.86389523422028
 10
30.03438970330263
 20
116.6819370379125
 10
32.972384938460145
 20
113.3147150377777
 10
34.921672062287165
 20
108.93632723986828
 10
36.10026160562833
 20
110.84968206538467
 10
37.288957107869365
 20
111.86309363180374
 10
38.188900366966685
 20
111.87319959070359
 10
38.994464352219794
 20
111.38221418800495
 10
40.61682116594806
 20
109.40030642805512
 10
43.55711916052884
 20
114.73365881685001
 10
46.819855927919534
 20
118.07050594950636
 10
49.508456861989444
 20
119.10076078075852
 10
52.9048738545016
 20
119.43891993407934
 10
55.18900846946165
 20
120.8646580098637
 10
56.28893911946949
 20
120.87700973740797
 10
57.094503104722584
 20
120.38602433470938
 10
57.60682330954317
 20
119.29170810631254
 10
57.639386954887165
 20
116.39189093811005
 10
57.946105347186176
 20
115.79529741834513
 10
60.171792986612616
 20
113.52014587796273
 10
61.18857320599831
 20
112.03146928935594
 10
62.2221966902171
 20
109.04288726892025
 10
62.34801672508312
 20
106.74415515777153
 10
62.063756019228244
 20
105.34087476843129
 10
61.18739333089726
 20
103.23090120497099
 10
60.002066481622855
 20
101.91750855218615
 10
60.81436777280919
 20
100.82656097675599
 10
63.727659552878166
 20
99.65920027663688
 10
64.93881274156334
 20
98.67273793395078
 10
66.05334088775987
 20
97.3851716205767
 10
67.08022706604542
 20
94.99655177287256
 10
68.05652645905282
 20
88.20708644081486
 10
69.69572653761419
 20
84.72527324903614
 10
70.52262532498922
 20
82.33440763268759
 10
70.84394121347694
 20
80.4378960720043
 10
70.57876954109958
 20
77.33472285992468
 10
70.28777152931147
 20
76.531404643316
 10
69.40130288208061
 20
75.32137433895304
 10
67.51377439597499
 20
74.20010888682326
 10
63.71513685299739
 20
74.05744558712414
 10
62.412973043434604
 20
74.24283548184596
 10
59.10082936586681
 20
75.30571094922098
 10
56.4863957878414
 20
76.57643399776195
 10
52.45633009293149
 20
79.23134840216565
 10
47.710588149323854
 20
83.2783143526875
 10
44.872586609621585
 20
86.6466592371445
 10
43.55021088225908
 20
88.63193565006097
 10
42.641284548584096
 20
89.42177925480317
 10
42.34354923086274
 20
89.21842321092603
 10
41.76379897593092
 20
87.41179938679815
 10
40.082995186669045
 20
85.69281753058124
 10
39.68414328917022
 20
85.58833229783716
 10
39.290905813282436
 20
84.98387858781676
 10
38.88643949417256
 20
85.37936183234898
 10
37.28654036688844
 20
85.36139568319366
 10
36.788817658256555
 20
85.15579387067211
 10
36.48322215027975
 20
85.65239369498178
 10
35.2754376145612
 20
86.33887495130212
 10
34.26314893246434
 20
87.4275767580879
 10
33.442987451022546
 20
89.21848020170488
 10
32.354285644236775
 20
88.20619151960801
 10
30.483600422964248
 20
85.58502063564937
 10
27.418605277839657
 20
82.45040666254795
 10
27.026490686274077
 20
81.74595925707231
 10
22.071721286399438
 20
77.69006722275162
 10
17.10347727465832
 20
74.83409953389405
 10
13.217197763769729
 20
73.59038269986488
 10
9.618547611702637
 20
73.44996516881017
 10
7.411949005753714
 20
74.02522388645318
  0
LWPOLYLINE
  5
33
330
17
100
AcDbEntity
  8
TOPPERS_CUT
100
AcDbPolyline
 90
152
 70
1
 10
94.60195990545012
 20
75.40435379723867
 10
92.58075119422303
 20
77.28177632444444
 10
91.04379057976132
 20
80.56472500963487
 10
90.80450223757356
 20
84.06225858192448
 10
91.38088383953877
 20
86.16886349241815
 10
93.65378961127672
 20
88.59453852275512
 10
95.75478010015937
 20
88.51812539806619
 10
97.34232749989921
 20
89.63602219722935
 10
97.74230228172026
 20
89.64051373451818
 10
98.74897654220608
 20
89.05178040500871
 10
99.6477969169812
 20
89.16188005936382
 10
100.64099656560055
 20
89.77307107531745
 10
101.5488000149533
 20
89.0832211660305
 10
102.34313515698435
 20
89.59217271788444
 10
100.82301780735574
 20
91.37521597124598
 10
99.81634354686993
 20
91.96394930075546
 10
98.2928575442747
 20
94.04697364048278
 10
98.57824113445179
 20
95.35026033436776
 10
99.66694294123756
 20
96.36254901646463
 10
102.0589314419083
 20
97.08945410838439
 10
104.25879274192398
 20
97.11415756347296
 10
107.06535352060446
 20
96.5456361517632
 10
107.76418650446905
 20
96.65349003747392
 10
108.06079893786821
 20
96.95683977680629
 10
108.1484409057792
 20
98.05789331113634
 10
107.41704427657059
 20
100.84985659362813
 10
106.30588478334069
 20
101.83744182063643
 10
105.70367684196472
 20
102.03069190561372
 10
103.10384076012801
 20
102.00149691323634
 10
101.4960814425884
 20
102.68348663226782
 10
100.58827799323565
 20
103.37333654155478
 10
99.97708697728203
 20
104.36653619017413
 10
99.66026262608315
 20
105.86307296903638
 10
100.05462298629314
 20
106.36753298360149
 10
100.75121020151335
 20
106.6753742602227
 10
102.2331494841869
 20
108.29211665233993
 10
103.03534481647338
 20
108.1011123360071
 10
104.6498414399462
 20
106.81916044424403
 10
107.04744436222798
 20
107.04609705888751
 10
107.63842346038189
 20
107.85278392846283
 10
108.01930920872539
 20
109.55716828849106
 10
106.99579168340647
 20
111.64580704982941
 10
106.9677195753513
 20
114.14564943621085
 10
107.64409487277176
 20
116.25337723102673
 10
108.43056982454735
 20
117.46228465106749
 10
108.42158674996969
 20
118.26223421470954
 10
108.11486835767066
 20
118.85882773447449
 10
105.60267424374493
 20
119.93068627642715
 10
104.89148953233605
 20
120.92276304072429
 10
105.67796448411164
 20
122.13167046076504
 10
106.96889945045234
 20
122.94621752059581
 10
108.16882379591546
 20
122.95969213246228
 10
109.66199192181107
 20
123.57649757002693
 10
113.26288784252259
 20
123.51692771017113
 10
117.9771890251084
 20
122.2697852323965
 10
118.68949662083949
 20
121.17771477264412
 10
118.31647106275143
 20
118.77337454442909
 10
119.32314532323726
 20
118.1846412149196
 10
120.8185592177773
 20
118.60145926157375
 10
123.41614953096962
 20
118.83064164486163
 10
124.902580350932
 20
120.04740925515782
 10
125.28908052088653
 20
121.25182513790978
 10
123.47459650650319
 20
122.5315312610284
 10
122.86228260622738
 20
123.62472460510298
 10
123.24878277618193
 20
124.82914048785494
 10
126.03737740570709
 20
125.8605182034293
 10
127.4384120264029
 20
125.77624488848494
 10
130.43485423709404
 20
126.10991250451693
 10
132.7392007698538
 20
125.73576406210664
 10
135.0491617242246
 20
124.86164714242008
 10
136.56478753656435
 20
123.4785786708796
 10
136.77824953934137
 20
122.2809000940609
 10
135.90974704126586
 20
119.4709706624138
 10
135.9153614628769
 20
118.97100218513751
 10
136.5254295945083
 20
118.07779623197341
 10
138.2241995329255
 20
118.1968789609062
 10
139.9274610086315
 20
117.91598690801796
 10
140.9330123847951
 20
117.42724727396373
 10
143.94068343870828
 20
116.76097793544311
 10
148.8662008554267
 20
114.51614427176033
 10
151.9918317539505
 20
112.25109869027781
 10
154.7231022922643
 20
109.48159309423015
 10
157.16898924040092
 20
105.40880080429751
 10
157.68355521386593
 20
104.1144971849902
 10
158.2127186835196
 20
101.52027552476453
 10
158.13630555883068
 20
99.4192850358819
 10
157.34533906976625
 20
98.61035239766218
 10
155.93869002745942
 20
99.19459418988282
 10
154.82303899694068
 20
100.58215419871217
 10
153.12314617420128
 20
100.56306516523465
 10
152.62093192828058
 20
100.75743813453413
 10
151.59853728728385
 20
102.74608320041723
 10
150.70196268115316
 20
102.43599615515159
 10
149.0020698584138
 20
102.41690712167409
 10
148.08865198744996
 20
103.6067255082373
 10
147.28645665516348
 20
103.79772982457015
 10
146.58874655562107
 20
103.58988224340422
 10
145.7989029508789
 20
102.68095590972924
 10
144.90120546042596
 20
102.47086255991886
 10
143.28783172127535
 20
103.65282075622663
 10
142.29463207265601
 20
103.04162974027301
 10
142.1092421779342
 20
101.73946593071024
 10
141.61825677523555
 20
100.93390194545714
 10
140.8205529802379
 20
100.72493147996897
 10
138.4162127520229
 20
101.09795703805703
 10
137.82298788522456
 20
100.49125755939224
 10
137.84993710895753
 20
98.09140886846603
 10
137.5578162128472
 20
97.38808434731261
 10
136.86235188194922
 20
96.98024937523613
 10
135.06246536375457
 20
96.96003745743641
 10
134.4591345380564
 20
97.25328123786895
 10
132.8603582950945
 20
97.13532139325837
 10
131.97501253218584
 20
95.82529739344015
 10
132.38733904155114
 20
94.72985828072113
 10
132.40081365341763
 20
93.52993393525803
 10
131.9064595977524
 20
93.02435103637072
 10
128.70666134318412
 20
92.98841873806009
 10
127.80447231544238
 20
93.17830017007074
 10
127.31460979706597
 20
92.27274248936237
 10
127.92355504437515
 20
91.47953023165356
 10
128.5403604819398
 20
89.98636210575793
 10
128.35160193425136
 20
88.98417938256092
 10
127.95724157404136
 20
88.47971936799581
 10
125.86523415973639
 20
87.75618292904265
 10
125.4708737995264
 20
87.25172291447754
 10
125.48097975842627
 20
86.35177965538021
 10
127.10109080351012
 20
84.56985928634087
 10
127.51903173448648
 20
82.97445169634555
 10
126.53369227612257
 20
81.66330481220514
 10
124.64167225272811
 20
80.94201414189641
 10
124.34505981932894
 20
80.638664402564
 10
124.25854073574017
 20
79.4376171727787
 10
125.48316853629183
 20
77.2512304846295
 10
125.69887630771325
 20
75.85356451690029
 10
124.71129108070492
 20
74.74240502367039
 10
122.41592762252283
 20
74.31660390243859
 10
121.31487408819278
 20
74.40424587034957
 10
119.82170596229714
 20
73.7874404327849
 10
119.33072055959852
 20
72.98187644753182
 10
119.05095139103246
 20
71.17862127637055
 10
118.55547445104499
 20
70.77303207293848
 10
118.36334725038994
 20
70.07083043610726
 10
117.56788922403669
 20
69.66187257970857
 10
115.86575063265289
 20
69.84277093714157
 10
114.05014373394734
 20
71.22247075571546
 10
111.54917846324368
 20
71.29439234311555
 10
109.35717735348344
 20
70.56973301984019
 10
108.15837589234255
 20
70.45626471251845
 10
105.95065440207141
 20
71.1315171256167
 10
102.61717592238169
 20
74.09427280664161
 10
97.71523907642961
 20
74.239238865764
 10
96.01085471640138
 20
74.6201246141075
  0
LWPOLYLINE
  5
34
330
17
100
AcDbEntity
  8
TOPPERS_CUT
100
AcDbPolyline
 90
141
 70
1
 10
90.51603494832405
 20
127.56176187360624
 10
90.59357095733516
 20
129.56275866703362
 10
92.55302103084088
 20
133.18498938986707
 10
93.1350170544171
 20
134.79162582308442
 10
93.92486065915931
 20
135.70055215675944
 10
94.50797956705777
 20
137.20719489452154
 10
95.10120443385607
 20
137.81389437318632
 10
95.39220244564419
 20
138.617212589795
 10
95.38097360242213
 20
139.6171495443476
 10
94.86977628192376
 20
140.61147207728914
 10
93.5552607448167
 20
141.8967926220188
 10
92.75418829685245
 20
141.9878032428964
 10
90.36893710211493
 20
140.66093597824508
 10
89.45776499979553
 20
141.6507669738978
 10
89.04319272178581
 20
142.94619347752734
 10
89.22633684786322
 20
144.44834467800064
 10
90.20269323164946
 20
146.55944112578314
 10
92.18796964456592
 20
147.8818168531456
 10
92.78007162704205
 20
148.58851002726567
 10
93.37778803112917
 20
148.79523472410943
 10
94.16650875154917
 20
149.80415475323966
 10
93.8508072846725
 20
151.20069783664664
 10
92.83851860257563
 20
152.28939964343243
 10
91.61164503337957
 20
154.67577372249215
 10
90.88923147874861
 20
156.66778744134186
 10
90.87463398255993
 20
157.96770548226021
 10
91.84986748202395
 20
160.178795625498
 10
94.12052748511752
 20
162.80445804674545
 10
96.61363256556574
 20
163.4324923275322
 10
100.11341190649979
 20
163.47179327880943
 10
100.70775965762029
 20
163.97849906201895
 10
100.59316846597633
 20
165.2772942186151
 10
100.77968124502037
 20
166.4794643327226
 10
100.5561132833435
 20
168.57708616863863
 10
98.93151070097083
 20
170.75898131949901
 10
98.40234723131715
 20
173.3532029797247
 10
98.27428142780671
 20
175.85192248178393
 10
98.63607814267272
 20
179.25619966455153
 10
99.70232226301435
 20
182.26836225575357
 10
100.38655775069024
 20
183.67613418238264
 10
100.78428676386687
 20
183.88061311058198
 10
103.18188968614865
 20
184.10754972522545
 10
103.88296843865768
 20
184.01541622002566
 10
104.58966161277772
 20
183.42331423754953
 10
105.08963009005402
 20
183.4289286591606
 10
105.48623621890845
 20
183.73340128281518
 10
106.28730866687269
 20
183.64239066193758
 10
106.49964778532748
 20
182.54470578057416
 10
107.00635356853704
 20
181.95035802945364
 10
107.70181789943504
 20
182.3581930015301
 10
107.36927316772524
 20
185.254641516766
 10
106.85695296290467
 20
186.3489577451628
 10
106.64124519148325
 20
187.74662371289202
 10
106.72327273778322
 20
189.34764572449834
 10
107.1176330979932
 20
189.85210573906346
 10
109.10964681684293
 20
190.5745192936944
 10
111.70948289867962
 20
190.60371428607178
 10
113.5127380698409
 20
190.32394511750573
 10
114.619406025782
 20
189.7363346723185
 10
116.13952337541059
 20
187.95329141895692
 10
116.65296646455337
 20
186.75898149510485
 10
117.15630359479626
 20
186.46461483035011
 10
117.65402630342814
 20
186.67021664287165
 10
121.95375520800425
 20
186.71850066872656
 10
123.2323384468007
 20
188.63297837856516
 10
124.92437107928463
 20
189.3520232802295
 10
127.82194247884271
 20
189.584574316484
 10
130.92960722821115
 20
188.9194278622856
 10
132.5149088593066
 20
190.2373120523593
 10
133.4103605811151
 20
190.64739279308017
 10
137.30786893522577
 20
190.89117267255676
 10
139.61895277391875
 20
189.91706205741497
 10
140.63348722466006
 20
188.62837285971867
 10
141.05928834589184
 20
186.33300940153657
 10
141.300822456724
 20
182.6354884383364
 10
142.03783350754364
 20
179.34355667856835
 10
142.5467850593976
 20
178.5492215365373
 10
143.2489866962288
 20
178.3570943358822
 10
144.53318435663627
 20
179.77160356844453
 10
146.52182942251937
 20
180.79399820944127
 10
148.11611412819246
 20
181.31193283587288
 10
150.41596912366342
 20
181.33775917528362
 10
151.4181518468604
 20
181.14900062759517
 10
153.72923568555342
 20
180.17489001245335
 10
155.2471072665376
 20
178.5918341500023
 10
156.27399344482316
 20
176.2032143022982
 10
157.38627582237527
 20
175.11563537983463
 10
159.11424075316984
 20
172.63488202693068
 10
159.34005448349112
 20
170.3372728001042
 10
158.95018566056996
 20
169.43283800371802
 10
158.15697340286113
 20
168.8238927564088
 10
156.44472885257744
 20
169.90473437293912
 10
155.16053119217
 20
168.49022514037682
 10
154.77964544382647
 20
166.7858407803486
 10
155.01781090169203
 20
163.38830090351422
 10
154.35378733181585
 20
160.18064245869053
 10
152.88307689236436
 20
157.5639631120207
 10
150.9022920167367
 20
155.8416126028372
 10
148.214813966989
 20
154.71136407612977
 10
145.21724887197567
 20
154.47769015555303
 10
143.51398739626967
 20
154.75858220844128
 10
140.7984372384668
 20
156.1281760681153
 10
137.76493984514283
 20
159.09430040210685
 10
136.16616360218092
 20
158.97634055749626
 10
135.2718347646946
 20
158.46626612132013
 10
133.57418771059966
 20
158.24718969693208
 10
132.87872337970165
 20
157.83935472485558
 10
130.37888099332022
 20
157.8112826168004
 10
129.9856435174324
 20
157.20682890678003
 10
130.79457615565212
 20
156.41586241771566
 10
131.8237081025821
 20
153.82725517910097
 10
131.64842416676012
 20
151.62514811044088
 10
131.25630957519454
 20
150.92070070496527
 10
129.44856286674445
 20
151.60044465535233
 10
128.65085907174677
 20
151.39147418986417
 10
128.0587570892707
 20
150.68478101574414
 10
127.81604310333748
 20
145.58173389455933
 10
127.2441530386611
 20
143.07515420224462
 10
126.17004872806402
 20
140.7629474792294
 10
123.9971366517813
 20
138.33839533321466
 10
121.51301464591074
 20
136.91041148878588
 10
119.81649047613796
 20
136.59134136894255
 10
118.5300470470861
 20
135.3768195272908
 10
116.64251856098046
 20
134.255554075161
 10
115.04935673962959
 20
133.63762575327414
 10
112.85398697690273
 20
133.21294751636455
 10
111.87201617150546
 20
131.60181954585838
 10
110.09121868678832
 20
129.88171480531926
 10
109.09240461655796
 20
129.77049226664192
 10
108.38908009540452
 20
130.06261316275226
 10
106.76896905032065
 20
131.84453353179157
 10
105.0780593021589
 20
131.025494934672
 10
104.38484073990537
 20
130.41767257168502
 10
103.28603297421971
 20
130.30532714868548
 10
102.27374429212287
 20
131.39402895547124
 10
102.05691363637925
 20
132.89168861865568
 10
101.35134334658139
 20
133.38379690567655
 10
100.3491606233844
 20
133.57255545336497
 10
94.60005608147874
 20
129.00771186719035
 10
92.1181798442526
 20
127.37974063185104
 10
91.31935316493272
 20
127.27076386181814
  0
LWPOLYLINE
  5
35
330
17
100
AcDbEntity
  8
TOPPERS_CUT
100
AcDbPolyline
 90
109
 70
1
 10
35.555434746242604
 20
123.74437724182417
 10
34.94087507732236
 20
125.03755797680927
 10
33.92634062658109
 20
126.32624717450555
 10
33.128636831583435
 20
126.11727670901739
 10
31.511894439466197
 20
127.59921599169095
 10
30.219836588803286
 20
126.88466262731545
 10
29.82547622859329
 20
126.38020261275032
 10
29.116537285828826
 20
127.17229198613695
 10
28.99857744121826
 20
128.7710682290989
 10
28.393000846875672
 20
129.26429940044193
 10
27.294193081190038
 20
129.1519539774424
 10
27.091959921635112
 20
129.3496955997085
 10
27.48070586023407
 20
130.3541240915499
 10
27.464985479723175
 20
131.7540358279235
 10
25.039310449386214
 20
134.02694159966148
 10
23.919167881578648
 20
135.81447639031188
 10
23.09788351581465
 20
137.7053735293841
 10
22.46423481341689
 20
140.69844708710863
 10
22.52268178895049
 20
144.3993367032754
 10
22.012607352774335
 20
145.29366554076168
 10
20.295871265201843
 20
146.77448193911303
 10
19.271230855560706
 20
148.96311439590664
 10
19.2543875907276
 20
150.46301982773554
 10
19.642010645004355
 20
151.5674420150322
 10
21.019464694933834
 20
153.58303630464826
 10
20.904873503289885
 20
154.88183146124442
 10
19.49036427072758
 20
156.16602912165186
 10
18.7791795593187
 20
157.158105885949
 10
18.653359524452682
 20
159.45683799709775
 10
20.13305303848183
 20
161.2735677801255
 10
20.510570133858725
 20
163.27793322651945
 10
19.8982562335829
 20
164.37112657059407
 10
18.79271116196402
 20
164.8587433203261
 10
18.287128263076692
 20
165.35309737599135
 10
18.17478284007716
 20
166.451905141677
 10
18.66801401142021
 20
167.05748173601955
 10
19.46908645938448
 20
166.96647111514196
 10
20.163427905960255
 20
167.4742997826737
 10
20.34881780068208
 20
168.7764635922365
 10
14.557100645311388
 20
176.91194221320185
 10
12.305586666474184
 20
181.48694874905522
 10
11.776423196820515
 20
184.08117040928087
 10
12.067421208608632
 20
184.88448862588956
 10
12.96175004609492
 20
185.39456306206574
 10
14.441443560124071
 20
187.21129284509348
 10
16.92668845031684
 20
188.539282994067
 10
20.919698962593927
 20
189.18416053968684
 10
22.609485826433456
 20
190.10319283226167
 10
25.40144910892524
 20
190.83458946147027
 10
29.3000803473581
 20
190.9783756454916
 10
30.70336073669834
 20
190.69411493963673
 10
33.9919238434998
 20
191.73110707682213
 10
37.29059290920111
 20
191.86815595491024
 10
38.89273780512966
 20
191.686134713155
 10
42.202635714053045
 20
190.82324663669053
 10
44.29913466564685
 20
191.14680829382266
 10
47.90227635500277
 20
190.88725104305632
 10
51.41777607644771
 20
189.52664025795997
 10
55.02540930309247
 20
188.8671082253726
 10
56.53317492517679
 20
188.1839956220189
 10
58.35102759252675
 20
186.6043084125345
 10
59.062212303935624
 20
185.61223164823735
 10
59.56442654985633
 20
185.41785867893788
 10
59.97563017489942
 20
184.4224132616741
 10
59.60260461681137
 20
182.01807303345907
 10
58.82735850825785
 20
179.80922865886575
 10
56.381414569342326
 20
174.98145916895817
 10
52.54678773727526
 20
169.13803234398713
 10
52.85912055118531
 20
168.0414703469459
 10
53.1624702905177
 20
167.74485791354675
 10
53.96017408551536
 20
167.95382837903492
 10
54.76349230212404
 20
167.6628303672468
 10
55.17132727420053
 20
166.96736603634884
 10
54.88482079970123
 20
165.7640730379191
 10
52.69955699587424
 20
164.4394515419122
 10
52.714154492062924
 20
163.13953350099385
 10
53.224228928239086
 20
162.24520466350754
 10
53.238826424427785
 20
160.9452866225892
 10
54.44997961311295
 20
159.95882427990307
 10
55.263403788621495
 20
158.76788300901765
 10
55.38922382348752
 20
156.4691508978689
 10
54.9016070737555
 20
155.36360582625005
 10
52.72869499747279
 20
152.93905368023528
 10
52.84328618911674
 20
151.64025852363915
 10
53.765687134658194
 20
149.65049057343384
 10
53.4926552720254
 20
147.247273229541
 10
52.70730320457202
 20
145.938372114045
 10
50.53326824396709
 20
143.61381366348547
 10
50.24339311650118
 20
142.71050175142156
 10
50.08495244551233
 20
139.0084892509326
 10
48.824335355871206
 20
135.49411241380986
 10
47.14914598822037
 20
133.27516208031665
 10
44.869502910549144
 20
131.44944922271125
 10
44.57625913011662
 20
130.84611839701307
 10
44.600962585205174
 20
128.64625709699737
 10
43.795398599952065
 20
129.13724249969601
 10
43.39879247109766
 20
128.83276987604143
 10
42.91342149001006
 20
127.52723741351204
 10
42.92914187052095
 20
126.12732567713843
 10
42.1314380755233
 20
125.91835521165027
 10
41.321382552981376
 20
126.80931539616991
 10
40.216960365684706
 20
127.19693845044667
 10
39.62148973024198
 20
126.7902263626924
 10
39.628227036175225
 20
126.19026418996086
 10
39.42936252958691
 20
126.08802472586117
 10
38.028327908891086
 20
126.17229804080554
 10
37.53172808458142
 20
125.86670253282873
 10
36.74413024848363
 20
124.7577888082432
 10
36.45425512101772
 20
123.85447689617929
  0
LWPOLYLINE
  5
36
330
17
100
AcDbEntity
  8
TOPPERS_CUT
100
AcDbPolyline
 90
97
 70
1
 10
-2.214606013544846
 20
218.8262578553459
 10
-2.5538880511878643
 20
222.32266854331328
 10
-2.6291213007757315
 20
229.02224613881558
 10
-3.4402997076398676
 20
230.01320001879054
 10
-3.64927017312804
 20
230.81090381378817
 10
-3.685202471438663
 20
234.01070206835644
 10
-3.494198155105802
 20
234.8128974006429
 10
-1.7044175958110153
 20
235.73305257753995
 10
0.8965413703479073
 20
235.66225387446207
 10
3.0930340173969686
 20
235.9869384159164
 10
3.487394377606967
 20
236.49139843048155
 10
3.867157241628275
 20
238.29577648596506
 10
4.846882278381132
 20
240.10689184738172
 10
6.4254466035433335
 20
242.02473821018697
 10
7.914123192150138
 20
243.04151842957262
 10
10.008376375099527
 20
243.5650674776153
 10
12.007127399882487
 20
243.68751885951468
 10
14.510338439230562
 20
243.41560988120403
 10
15.815870901759956
 20
242.93023890011645
 10
17.428121756588364
 20
241.84827439926397
 10
18.742637293695417
 20
240.56295385453427
 10
20.482953952034258
 20
236.9822698516225
 10
20.988536850921584
 20
236.48791579595724
 10
28.08696634392271
 20
236.6676342782892
 10
29.389130153485485
 20
236.48224438356738
 10
30.69578550033708
 20
235.89687970702448
 10
31.895709845800184
 20
235.910354318891
 10
33.38887797169582
 20
236.52715975645566
 10
43.88933887882014
 20
236.54506891483211
 10
45.797079282725505
 20
235.86644784876722
 10
46.49478938226789
 20
236.0742954299332
 10
46.8902726268001
 20
236.47876174904303
 10
47.363291880343425
 20
238.88422486158032
 10
47.956516747141734
 20
239.4909243402451
 10
49.033989710705434
 20
241.50314997689458
 10
49.924949895225105
 20
242.3132054994365
 10
52.21020739450736
 20
243.6389498797656
 10
53.90560867995792
 20
244.05801369506412
 10
56.505444761794635
 20
244.08720868744155
 10
58.812037063198815
 20
243.5130728541207
 10
60.725391888715215
 20
242.33448331077958
 10
62.548858977676204
 20
240.25482762401884
 10
63.16229576227423
 20
239.06164058448903
 10
63.788084274416555
 20
236.76852289495133
 10
64.39590663740356
 20
236.07530433269773
 10
65.50145170902242
 20
235.58768758296569
 10
66.4103780426974
 20
234.79784397822354
 10
68.31025825634731
 20
234.81917878034545
 10
68.91246619772328
 20
234.6259286953682
 10
69.4180490966106
 20
234.13157463970293
 10
69.62589667777657
 20
233.43386454016053
 10
69.5550979746987
 20
230.8329055740016
 10
67.97765653385869
 20
228.8150655157411
 10
67.70237890258149
 20
226.6118355627588
 10
68.11358252762457
 20
225.61639014549505
 10
68.91914651287769
 20
225.12540474279643
 10
71.44706100731432
 20
222.65363446447014
 10
72.27059114172273
 20
220.5627499344874
 10
72.28631152223362
 20
219.16283819811377
 10
70.71330462790363
 20
207.84446157819207
 10
71.02339167316924
 20
206.94788697206135
 10
71.63009115183405
 20
206.354662105263
 10
71.8368158486778
 20
205.75694570117588
 10
71.76938579856655
 20
202.85600564865123
 10
71.57388994494487
 20
202.45378509818576
 10
70.67956110745857
 20
201.9437106620096
 10
67.58087943266777
 20
201.80890755256593
 10
66.9786714912918
 20
202.00215763754323
 10
38.47934540222098
 20
201.7821293011695
 10
36.48171726176023
 20
201.55968422381483
 10
35.1862907581307
 20
201.14511194580513
 10
32.43475131123837
 20
196.81394228020721
 10
30.744964447398836
 20
195.89490998763236
 10
25.548660936692027
 20
195.5365389165118
 10
19.946768222553153
 20
195.67364478537874
 10
19.241197932755306
 20
196.16575307239958
 10
18.933356656134084
 20
196.8623402876198
 10
18.909776085367735
 20
198.9622078921802
 10
19.99847789215351
 20
199.97449657427708
 10
21.59949990375985
 20
199.89246902797714
 10
22.198339192169193
 20
199.99920002936562
 10
22.494951625568348
 20
200.30254976869804
 10
21.891620799870175
 20
200.59579354913052
 10
19.99061770189806
 20
200.67445244246386
 10
18.88619551460139
 20
201.06207549674065
 10
17.387412967094726
 20
200.94523853645225
 10
13.484290191373029
 20
201.201427134252
 10
12.27762853997669
 20
201.78791469511705
 10
11.672051945634104
 20
202.2811458664601
 10
10.756388306025881
 20
203.67095164393385
 10
9.207075964019902
 20
208.05383097913213
 10
8.492522599644403
 20
209.345888829795
 10
7.35216811403711
 20
212.93331013864002
 10
6.5331295169175245
 20
214.62421988680177
 10
5.827559227119682
 20
215.1163281738226
 10
0.11556685862568301
 20
216.15225441746466
 10
-1.5978005759801914
 20
217.33308972945025
  0
LWPOLYLINE
  5
37
330
17
100
AcDbEntity
  8
TOPPERS_CUT
100
AcDbPolyline
 90
148
 70
1
 10
110.96685742624898
 20
194.39561452311614
 10
108.65577358755596
 20
195.369725138258
 10
106.33458378996306
 20
197.24377901249713
 10
104.61335616510175
 20
199.12457019266952
 10
101.99555393410974
 20
200.69527432757627
 10
100.47880523744774
 20
202.17833649457202
 10
99.45753348077324
 20
204.06698786499987
 10
99.24407147799624
 20
205.26466644181855
 10
99.418232529496
 20
207.5667672059339
 10
100.20021594398273
 20
209.1756494077957
 10
101.58216153120105
 20
210.7912689155907
 10
102.16415755477729
 20
212.39790534880814
 10
102.15854313316625
 20
212.89787382608444
 10
101.44174400014634
 20
214.38991906765781
 10
100.22834504281676
 20
215.57636880125443
 10
98.92505834893178
 20
215.86175239143154
 10
98.32958771348906
 20
215.45504030367724
 10
97.46220809973573
 20
212.54511717657493
 10
96.68134756957119
 20
210.83624127925782
 10
96.28474144071677
 20
210.53176865560323
 10
95.27919006455315
 20
211.02050828965747
 10
94.68708808207705
 20
210.3138151155374
 10
93.69388843345772
 20
209.70262409958377
 10
92.7950680586826
 20
209.59252444522872
 10
91.48728982750879
 20
210.27788281722678
 10
90.97833827565485
 20
211.07221795925784
 10
90.76936781016667
 20
211.86992175425547
 10
90.84914958782221
 20
213.6709311567723
 10
94.90959015021055
 20
217.21674875491686
 10
95.49720059539783
 20
218.3234167108579
 10
96.38703789559528
 20
219.23346592885514
 10
97.07127338327119
 20
220.64123785548423
 10
98.35771681232308
 20
221.85575969713597
 10
99.0453209529656
 20
222.96355053739927
 10
99.13071715223217
 20
224.26459146263988
 10
98.82399875993315
 20
224.86118498240475
 10
97.71620791966986
 20
225.5487891230473
 10
96.82075619786136
 20
225.13870838232637
 10
96.309558877363
 20
226.13303091526797
 10
96.69156751002872
 20
227.73742157984094
 10
97.28591526114924
 20
228.2441273630505
 10
97.48028823044874
 20
228.74634160897114
 10
96.76685775039542
 20
229.93840576417878
 10
96.83990222211773
 20
232.33937733942722
 10
97.52750636276025
 20
233.44716817969046
 10
98.4184665472799
 20
234.25722370223244
 10
100.01162836863081
 20
234.87515202411927
 10
102.2103667843243
 20
234.99984917466313
 10
103.1058185061328
 20
235.409929915384
 10
103.69904337293107
 20
236.01662939404878
 10
104.18441435401868
 20
237.32216185657816
 10
105.86184949031394
 20
239.3411247991609
 10
106.13488135294673
 20
241.7443421430537
 10
106.91012746150027
 20
243.953186517647
 10
107.98647754074177
 20
246.06540584975173
 10
109.76278348817007
 20
248.18548537211186
 10
113.03338044581619
 20
250.82237663658142
 10
115.32200659806509
 20
251.84813993054476
 10
118.61056970486652
 20
252.88513206773018
 10
121.00480397418168
 20
253.41204976873945
 10
122.80356760805414
 20
253.53225538199445
 10
126.40446352876563
 20
253.47268552213865
 10
128.40770609083742
 20
253.19516212221697
 10
133.32311754865597
 20
251.8502717176315
 10
136.03979059078105
 20
250.3806841625022
 10
138.1565014601746
 20
248.90435930143968
 10
140.17658728707949
 20
247.1269304696892
 10
141.49447147715316
 20
245.5416288385937
 10
143.6325171486686
 20
242.16542376388128
 10
145.49079365161802
 20
236.98596351800757
 10
146.4008428696152
 20
236.09612621781017
 10
147.30640055032356
 20
235.6062636994337
 10
148.30858327352055
 20
235.41750515174527
 10
152.21058316492002
 20
235.26131024940082
 10
155.52272684248788
 20
234.1984347820258
 10
157.336087972549
 20
233.0187223543624
 10
159.15843217718776
 20
231.039060363057
 10
159.97522500566294
 20
229.54813800580573
 10
160.81110686761565
 20
226.35732282581517
 10
160.74816835479322
 20
223.0564079914694
 10
159.9886426267506
 20
219.44765188050246
 10
159.29766983314147
 20
218.63984212660495
 10
158.69209323879886
 20
219.133073297948
 10
157.86968598871266
 20
221.12396413247552
 10
156.1450897108847
 20
223.3047363990137
 10
150.11739587551403
 20
225.7372057260627
 10
149.4264230819049
 20
224.92939597216522
 10
149.355624378827
 20
222.32843700600628
 10
147.4287379506653
 20
215.80638911497036
 10
147.44894986846504
 20
214.00650259677568
 10
148.38482542587298
 20
210.8168103011073
 10
147.78823190610802
 20
210.51009190880828
 10
146.98379080517714
 20
210.90108361605166
 10
144.6637238919065
 20
212.67514379483555
 10
142.74026310749022
 20
214.75367659727402
 10
141.21116268328396
 20
217.33666941427768
 10
140.06968531335446
 20
221.02408441857796
 10
140.03824455233266
 20
223.82390789132518
 10
141.08989117648562
 20
228.13598852344558
 10
141.97523693939425
 20
229.44601252326373
 10
142.8482309747586
 20
231.85596717308985
 10
142.8325105942477
 20
233.25587890946343
 10
141.91235541735065
 20
235.04565946875823
 10
140.80007303979852
 20
236.13323839122182
 10
140.28887571930017
 20
237.12756092416333
 10
138.2676670080731
 20
239.00498345136913
 10
135.85097505231377
 20
240.47793965946502
 10
133.5455056352318
 20
240.95208179733055
 10
132.85902437891147
 20
239.74429726161202
 10
131.7703225721257
 20
238.73200857951514
 10
129.68056092646515
 20
237.80848474965146
 10
129.28507768193293
 20
237.4040184305416
 10
129.29406075651062
 20
236.60406886689952
 10
129.59853338016518
 20
236.2074627380451
 10
130.2996121326742
 20
236.11532923284534
 10
131.91074010318042
 20
235.13335842744806
 10
134.41170537388408
 20
235.06143684004797
 10
136.12507280848996
 20
233.88060152806239
 10
136.13967030467865
 20
232.580683487144
 10
135.54195390059152
 20
232.37395879030026
 10
134.7498645272049
 20
231.6650198475358
 10
135.6790027786796
 20
229.07528972459895
 10
135.90257074035645
 20
226.97766788868293
 10
136.30479129082192
 20
226.78217203506125
 10
136.79689957784277
 20
227.4877423248591
 10
137.49910121467397
 20
227.29561512420406
 10
138.3080338528937
 20
226.50464863513963
 10
138.61812089815933
 20
225.60807402900892
 10
138.63271839434805
 20
224.3081559880906
 10
137.16762237650758
 20
221.1915081641445
 10
135.0913353427135
 20
219.06805998881768
 10
134.40709985503756
 20
217.6602880621886
 10
134.63179070103666
 20
215.46267253081731
 10
135.56878914276678
 20
212.17298653969368
 10
135.50135909265552
 20
209.272046487169
 10
134.91487153179048
 20
208.06538483577265
 10
134.82386091091286
 20
207.2643123878084
 10
133.34865893417256
 20
205.04760782295958
 10
131.1701324362788
 20
203.12302415422113
 10
130.69374452976885
 20
201.01754212804968
 10
130.0061403891263
 20
199.90975128778638
 10
129.01855516211802
 20
198.79859179455644
 10
127.62987226896648
 20
197.782934459493
 10
124.93790268192996
 20
197.0526607146066
 10
123.25373023970147
 20
195.63365994475546
 10
119.9674129015444
 20
194.39668041665954
 10
114.77223227515981
 20
193.93831565008375
 10
112.77123548173245
 20
194.01585165909484
  0
ENDSEC
  0
SECTION
  2
OBJECTS
  0
DICTIONARY
  5
A
330
0
100
AcDbDictionary
281
1
  3
ACAD_COLOR
350
B
  3
ACAD_GROUP
350
C
  3
ACAD_LAYOUT
350
D
  3
ACAD_MATERIAL
350
E
  3
ACAD_MLEADERSTYLE
350
F
  3
ACAD_MLINESTYLE
350
10
  3
ACAD_PLOTSETTINGS
350
11
  3
ACAD_PLOTSTYLENAME
350
12
  3
ACAD_SCALELIST
350
14
  3
ACAD_TABLESTYLE
350
15
  3
ACAD_VISUALSTYLE
350
16
  3
EZDXF_META
350
2D
  0
DICTIONARY
  5
B
330
A
100
AcDbDictionary
281
1
  0
DICTIONARY
  5
C
330
A
100
AcDbDictionary
281
1
  0
DICTIONARY
  5
D
330
A
100
AcDbDictionary
281
1
  3
Model
350
1A
  3
Layout1
350
1E
  0
DICTIONARY
  5
E
330
A
100
AcDbDictionary
281
1
  3
ByBlock
350
1F
  3
ByLayer
350
20
  3
Global
350
21
  0
DICTIONARY
  5
F
330
A
100
AcDbDictionary
281
1
  3
Standard
350
2C
  0
DICTIONARY
  5
10
330
A
100
AcDbDictionary
281
1
  3
Standard
350
22
  0
DICTIONARY
  5
11
330
A
100
AcDbDictionary
281
1
  0
ACDBDICTIONARYWDFLT
  5
12
330
A
100
AcDbDictionary
281
1
  3
Normal
350
13
100
AcDbDictionaryWithDefault
340
13
  0
ACDBPLACEHOLDER
  5
13
330
12
  0
DICTIONARY
  5
14
330
A
100
AcDbDictionary
281
1
  0
DICTIONARY
  5
15
330
A
100
AcDbDictionary
281
1
  0
DICTIONARY
  5
16
330
A
100
AcDbDictionary
281
1
  0
LAYOUT
  5
1A
330
D
100
AcDbPlotSettings
  1

  4
A3
  6

 40
7.5
 41
20.0
 42
7.5
 43
20.0
 44
420.0
 45
297.0
 46
0.0
 47
0.0
 48
0.0
 49
0.0
140
0.0
141
0.0
142
1.0
143
1.0
 70
1024
 72
1
 73
0
 74
5
  7

 75
16
 76
0
 77
2
 78
300
147
1.0
148
0.0
149
0.0
100
AcDbLayout
  1
Model
 70
1
 71
0
 10
0.0
 20
0.0
 11
420.0
 21
297.0
 12
0.0
 22
0.0
 32
0.0
 14
1e+20
 24
1e+20
 34
1e+20
 15
-1e+20
 25
-1e+20
 35
-1e+20
146
0.0
 13
0.0
 23
0.0
 33
0.0
 16
1.0
 26
0.0
 36
0.0
 17
0.0
 27
1.0
 37
0.0
 76
1
330
17
  0
LAYOUT
  5
1E
330
D
100
AcDbPlotSettings
  1

  4
A3
  6

 40
7.5
 41
20.0
 42
7.5
 43
20.0
 44
420.0
 45
297.0
 46
0.0
 47
0.0
 48
0.0
 49
0.0
140
0.0
141
0.0
142
1.0
143
1.0
 70
0
 72
1
 73
0
 74
5
  7

 75
16
 76
0
 77
2
 78
300
147
1.0
148
0.0
149
0.0
100
AcDbLayout
  1
Layout1
 70
1
 71
1
 10
0.0
 20
0.0
 11
420.0
 21
297.0
 12
0.0
 22
0.0
 32
0.0
 14
1e+20
 24
1e+20
 34
1e+20
 15
-1e+20
 25
-1e+20
 35
-1e+20
146
0.0
 13
0.0
 23
0.0
 33
0.0
 16
1.0
 26
0.0
 36
0.0
 17
0.0
 27
1.0
 37
0.0
 76
1
330
1B
  0
MATERIAL
  5
1F
102
{ACAD_REACTORS
330
E
102
}
330
E
100
AcDbMaterial
  1
ByBlock
  2

 70
0
 40
1.0
 71
1
 41
1.0
 91
-1023410177
 42
1.0
 72
1
  3

 73
1
 74
1
 75
1
 44
0.5
 73
0
 45
1.0
 46
1.0
 77
1
  4

 78
1
 79
1
170
1
 48
1.0
171
1
  6

172
1
173
1
174
1
140
1.0
141
1.0
175
1
  7

176
1
177
1
178
1
143
1.0
179
1
  8

270
1
271
1
272
1
145
1.0
146
1.0
273
1
  9

274
1
275
1
276
1
 42
1.0
 72
1
  3

 73
1
 74
1
 75
1
 94
63
  0
MATERIAL
  5
20
102
{ACAD_REACTORS
330
E
102
}
330
E
100
AcDbMaterial
  1
ByLayer
  2

 70
0
 40
1.0
 71
1
 41
1.0
 91
-1023410177
 42
1.0
 72
1
  3

 73
1
 74
1
 75
1
 44
0.5
 73
0
 45
1.0
 46
1.0
 77
1
  4

 78
1
 79
1
170
1
 48
1.0
171
1
  6

172
1
173
1
174
1
140
1.0
141
1.0
175
1
  7

176
1
177
1
178
1
143
1.0
179
1
  8

270
1
271
1
272
1
145
1.0
146
1.0
273
1
  9

274
1
275
1
276
1
 42
1.0
 72
1
  3

 73
1
 74
1
 75
1
 94
63
  0
MATERIAL
  5
21
102
{ACAD_REACTORS
330
E
102
}
330
E
100
AcDbMaterial
  1
Global
  2

 70
0
 40
1.0
 71
1
 41
1.0
 91
-1023410177
 42
1.0
 72
1
  3

 73
1
 74
1
 75
1
 44
0.5
 73
0
 45
1.0
 46
1.0
 77
1
  4

 78
1
 79
1
170
1
 48
1.0
171
1
  6

172
1
173
1
174
1
140
1.0
141
1.0
175
1
  7

176
1
177
1
178
1
143
1.0
179
1
  8

270
1
271
1
272
1
145
1.0
146
1.0
273
1
  9

274
1
275
1
276
1
 42
1.0
 72
1
  3

 73
1
 74
1
 75
1
 94
63
  0
MLINESTYLE
  5
22
102
{ACAD_REACTORS
330
10
102
}
330
10
100
AcDbMlineStyle
  2
Standard
 70
0
  3

 62
256
 51
90.0
 52
90.0
 71
2
 49
0.5
 62
256
  6
BYLAYER
 49
-0.5
 62
256
  6
BYLAYER
  0
MLEADERSTYLE
  5
2C
102
{ACAD_REACTORS
330
F
102
}
330
F
100
AcDbMLeaderStyle
179
2
170
2
171
1
172
0
 90
2
 40
0.0
 41
0.0
173
1
 91
-1056964608
 92
-2
290
1
 42
2.0
291
1
 43
8.0
  3
Standard
 44
4.0
300

342
29
174
1
175
1
176
0
178
1
 93
-1056964608
 45
4.0
292
0
297
0
 46
4.0
 94
-1056964608
 47
1.0
 49
1.0
140
1.0
294
1
141
0.0
177
0
142
1.0
295
0
296
0
143
3.75
271
0
272
9
273
9
  0
DICTIONARY
  5
2D
330
A
100
AcDbDictionary
280
1
281
1
  3
CREATED_BY_EZDXF
350
2E
  3
WRITTEN_BY_EZDXF
350
3A
  0
DICTIONARYVAR
  5
2E
330
2D
100
DictionaryVariables
280
0
  1
1.4.4 @ 2026-08-27T20:13:21.022924+00:00
  0
DICTIONARYVAR
  5
3A
330
2D
100
DictionaryVariables
280
0
  1
1.4.4 @ 2026-08-27T20:13:21.032730+00:00
  0
ENDSEC
  0
EOF
