  0
SECTION
  2
HEADER
  9
$ACADVER
  1
AC1024
  9
$ACADMAINTVER
 70
6
  9
$DWGCODEPAGE
  3
ANSI_1252
  9
$LASTSAVEDBY
  1
ezdxf
  9
$INSBASE
 10
0.0
 20
0.0
 30
0.0
  9
$EXTMIN
 10
1e+20
 20
1e+20
 30
1e+20
  9
$EXTMAX
 10
-1e+20
 20
-1e+20
 30
-1e+20
  9
$LIMMIN
 10
0.0
 20
0.0
  9
$LIMMAX
 10
420.0
 20
297.0
  9
$ORTHOMODE
 70
0
  9
$REGENMODE
 70
1
  9
$FILLMODE
 70
1
  9
$QTEXTMODE
 70
0
  9
$MIRRTEXT
 70
1
  9
$LTSCALE
 40
1.0
  9
$ATTMODE
 70
1
  9
$TEXTSIZE
 40
2.5
  9
$TRACEWID
 40
1.0
  9
$TEXTSTYLE
  7
Standard
  9
$CLAYER
  8
0
  9
$CELTYPE
  6
ByLayer
  9
$CECOLOR
 62
256
  9
$CELTSCALE
 40
1.0
  9
$DISPSILH
 70
0
  9
$DIMSCALE
 40
1.0
  9
$DIMASZ
 40
2.5
  9
$DIMEXO
 40
0.625
  9
$DIMDLI
 40
3.75
  9
$DIMRND
 40
0.0
  9
$DIMDLE
 40
0.0
  9
$DIMEXE
 40
1.25
  9
$DIMTP
 40
0.0
  9
$DIMTM
 40
0.0
  9
$DIMTXT
 40
2.5
  9
$DIMCEN
 40
2.5
  9
$DIMTSZ
 40
0.0
  9
$DIMTOL
 70
0
  9
$DIMLIM
 70
0
  9
$DIMTIH
 70
0
  9
$DIMTOH
 70
0
  9
$DIMSE1
 70
0
  9
$DIMSE2
 70
0
  9
$DIMTAD
 70
1
  9
$DIMZIN
 70
8
  9
$DIMBLK
  1

  9
$DIMASO
 70
1
  9
$DIMSHO
 70
1
  9
$DIMPOST
  1

  9
$DIMAPOST
  1

  9
$DIMALT
 70
0
  9
$DIMALTD
 70
3
  9
$DIMALTF
 40
0.03937007874
  9
$DIMLFAC
 40
1.0
  9
$DIMTOFL
 70
1
  9
$DIMTVP
 40
0.0
  9
$DIMTIX
 70
0
  9
$DIMSOXD
 70
0
  9
$DIMSAH
 70
0
  9
$DIMBLK1
  1

  9
$DIMBLK2
  1

  9
$DIMSTYLE
  2
ISO-25
  9
$DIMCLRD
 70
0
  9
$DIMCLRE
 70
0
  9
$DIMCLRT
 70
0
  9
$DIMTFAC
 40
1.0
  9
$DIMGAP
 40
0.625
  9
$DIMJUST
 70
0
  9
$DIMSD1
 70
0
  9
$DIMSD2
 70
0
  9
$DIMTOLJ
 70
0
  9
$DIMTZIN
 70
8
  9
$DIMALTZ
 70
0
  9
$DIMALTTZ
 70
0
  9
$DIMUPT
 70
0
  9
$DIMDEC
 70
2
  9
$DIMTDEC
 70
2
  9
$DIMALTU
 70
2
  9
$DIMALTTD
 70
3
  9
$DIMTXSTY
  7
Standard
  9
$DIMAUNIT
 70
0
  9
$DIMADEC
 70
0
  9
$DIMALTRND
 40
0.0
  9
$DIMAZIN
 70
0
  9
$DIMDSEP
 70
44
  9
$DIMATFIT
 70
3
  9
$DIMFRAC
 70
0
  9
$DIMLDRBLK
  1

  9
$DIMLUNIT
 70
2
  9
$DIMLWD
 70
-2
  9
$DIMLWE
 70
-2
  9
$DIMTMOVE
 70
0
  9
$DIMFXL
 40
1.0
  9
$DIMFXLON
 70
0
  9
$DIMJOGANG
 40
0.785398163397
  9
$DIMTFILL
 70
0
  9
$DIMTFILLCLR
 70
0
  9
$DIMARCSYM
 70
0
  9
$DIMLTYPE
  6

  9
$DIMLTEX1
  6

  9
$DIMLTEX2
  6

  9
$DIMTXTDIRECTION
 70
0
  9
$LUNITS
 70
2
  9
$LUPREC
 70
4
  9
$SKETCHINC
 40
1.0
  9
$FILLETRAD
 40
10.0
  9
$AUNITS
 70
0
  9
$AUPREC
 70
2
  9
$MENU
  1
.
  9
$ELEVATION
 40
0.0
  9
$PELEVATION
 40
0.0
  9
$THICKNESS
 40
0.0
  9
$LIMCHECK
 70
0
  9
$CHAMFERA
 40
0.0
  9
$CHAMFERB
 40
0.0
  9
$CHAMFERC
 40
0.0
  9
$CHAMFERD
 40
0.0
  9
$SKPOLY
 70
0
  9
$TDCREATE
 40
2461280.634166667
  9
$TDUCREATE
 40
2458532.153996898
  9
$TDUPDATE
 40
2461280.634166667
  9
$TDUUPDATE
 40
2458532.1544311
  9
$TDINDWG
 40
0.0
  9
$TDUSRTIMER
 40
0.0
  9
$USRTIMER
 70
1
  9
$ANGBASE
 50
0.0
  9
$ANGDIR
 70
0
  9
$PDMODE
 70
0
  9
$PDSIZE
 40
0.0
  9
$PLINEWID
 40
0.0
  9
$SPLFRAME
 70
0
  9
$SPLINETYPE
 70
6
  9
$SPLINESEGS
 70
8
  9
$HANDSEED
  5
3B
  9
$SURFTAB1
 70
6
  9
$SURFTAB2
 70
6
  9
$SURFTYPE
 70
6
  9
$SURFU
 70
6
  9
$SURFV
 70
6
  9
$UCSBASE
  2

  9
$UCSNAME
  2

  9
$UCSORG
 10
0.0
 20
0.0
 30
0.0
  9
$UCSXDIR
 10
1.0
 20
0.0
 30
0.0
  9
$UCSYDIR
 10
0.0
 20
1.0
 30
0.0
  9
$UCSORTHOREF
  2

  9
$UCSORTHOVIEW
 70
0
  9
$UCSORGTOP
 10
0.0
 20
0.0
 30
0.0
  9
$UCSORGBOTTOM
 10
0.0
 20
0.0
 30
0.0
  9
$UCSORGLEFT
 10
0.0
 20
0.0
 30
0.0
  9
$UCSORGRIGHT
 10
0.0
 20
0.0
 30
0.0
  9
$UCSORGFRONT
 10
0.0
 20
0.0
 30
0.0
  9
$UCSORGBACK
 10
0.0
 20
0.0
 30
0.0
  9
$PUCSBASE
  2

  9
$PUCSNAME
  2

  9
$PUCSORG
 10
0.0
 20
0.0
 30
0.0
  9
$PUCSXDIR
 10
1.0
 20
0.0
 30
0.0
  9
$PUCSYDIR
 10
0.0
 20
1.0
 30
0.0
  9
$PUCSORTHOREF
  2

  9
$PUCSORTHOVIEW
 70
0
  9
$PUCSORGTOP
 10
0.0
 20
0.0
 30
0.0
  9
$PUCSORGBOTTOM
 10
0.0
 20
0.0
 30
0.0
  9
$PUCSORGLEFT
 10
0.0
 20
0.0
 30
0.0
  9
$PUCSORGRIGHT
 10
0.0
 20
0.0
 30
0.0
  9
$PUCSORGFRONT
 10
0.0
 20
0.0
 30
0.0
  9
$PUCSORGBACK
 10
0.0
 20
0.0
 30
0.0
  9
$USERI1
 70
0
  9
$USERI2
 70
0
  9
$USERI3
 70
0
  9
$USERI4
 70
0
  9
$USERI5
 70
0
  9
$USERR1
 40
0.0
  9
$USERR2
 40
0.0
  9
$USERR3
 40
0.0
  9
$USERR4
 40
0.0
  9
$USERR5
 40
0.0
  9
$WORLDVIEW
 70
1
  9
$SHADEDGE
 70
3
  9
$SHADEDIF
 70
70
  9
$TILEMODE
 70
1
  9
$MAXACTVP
 70
64
  9
$PINSBASE
 10
0.0
 20
0.0
 30
0.0
  9
$PLIMCHECK
 70
0
  9
$PEXTMIN
 10
1e+20
 20
1e+20
 30
1e+20
  9
$PEXTMAX
 10
-1e+20
 20
-1e+20
 30
-1e+20
  9
$PLIMMIN
 10
0.0
 20
0.0
  9
$PLIMMAX
 10
420.0
 20
297.0
  9
$UNITMODE
 70
0
  9
$VISRETAIN
 70
1
  9
$PLINEGEN
 70
0
  9
$PSLTSCALE
 70
1
  9
$TREEDEPTH
 70
3020
  9
$CMLSTYLE
  2
Standard
  9
$CMLJUST
 70
0
  9
$CMLSCALE
 40
20.0
  9
$PROXYGRAPHICS
 70
1
  9
$MEASUREMENT
 70
1
  9
$CELWEIGHT
370
-1
  9
$ENDCAPS
280
0
  9
$JOINSTYLE
280
0
  9
$LWDISPLAY
290
0
  9
$INSUNITS
 70
6
  9
$HYPERLINKBASE
  1

  9
$STYLESHEET
  1

  9
$XEDIT
290
1
  9
$CEPSNTYPE
380
0
  9
$PSTYLEMODE
290
1
  9
$FINGERPRINTGUID
  2
{DB32040F-2021-48A5-8313-EFC19D152428}
  9
$VERSIONGUID
  2
{BE1B3E34-069E-4968-B977-63B6261FA0BD}
  9
$EXTNAMES
290
1
  9
$PSVPSCALE
 40
0.0
  9
$OLESTARTUP
290
0
  9
$SORTENTS
280
127
  9
$INDEXCTL
280
0
  9
$HIDETEXT
280
1
  9
$XCLIPFRAME
280
1
  9
$HALOGAP
280
0
  9
$OBSCOLOR
 70
257
  9
$OBSLTYPE
280
0
  9
$INTERSECTIONDISPLAY
280
0
  9
$INTERSECTIONCOLOR
 70
257
  9
$DIMASSOC
280
2
  9
$PROJECTNAME
  1

  9
$CAMERADISPLAY
290
0
  9
$LENSLENGTH
 40
50.0
  9
$CAMERAHEIGHT
 40
0.0
  9
$STEPSPERSEC
 40
24.0
  9
$STEPSIZE
 40
100.0
  9
$3DDWFPREC
 40
2.0
  9
$PSOLWIDTH
 40
0.005
  9
$PSOLHEIGHT
 40
0.08
  9
$LOFTANG1
 40
1.570796326795
  9
$LOFTANG2
 40
1.570796326795
  9
$LOFTMAG1
 40
0.0
  9
$LOFTMAG2
 40
0.0
  9
$LOFTPARAM
 70
7
  9
$LOFTNORMALS
280
1
  9
$LATITUDE
 40
37.795
  9
$LONGITUDE
 40
-122.394
  9
$NORTHDIRECTION
 40
0.0
  9
$TIMEZONE
 70
-8000
  9
$LIGHTGLYPHDISPLAY
280
1
  9
$TILEMODELIGHTSYNCH
280
1
  9
$CMATERIAL
347
20
  9
$SOLIDHIST
280
0
  9
$SHOWHIST
280
1
  9
$DWFFRAME
280
2
  9
$DGNFRAME
280
2
  9
$REALWORLDSCALE
290
1
  9
$INTERFERECOLOR
 62
256
  9
$CSHADOW
280
0
  9
$SHADOWPLANELOCATION
 40
0.0
  0
ENDSEC
  0
SECTION
  2
CLASSES
  0
CLASS
  1
ACDBDICTIONARYWDFLT
  2
AcDbDictionaryWithDefault
  3
ObjectDBX Classes
 90
0
 91
0
280
0
281
0
  0
CLASS
  1
SUN
  2
AcDbSun
  3
SCENEOE
 90
1153
 91
0
280
0
281
0
  0
CLASS
  1
VISUALSTYLE
  2
AcDbVisualStyle
  3
ObjectDBX Classes
 90
4095
 91
0
280
0
281
0
  0
CLASS
  1
MATERIAL
  2
AcDbMaterial
  3
ObjectDBX Classes
 90
1153
 91
0
280
0
281
0
  0
CLASS
  1
SCALE
  2
AcDbScale
  3
ObjectDBX Classes
 90
1153
 91
0
280
0
281
0
  0
CLASS
  1
TABLESTYLE
  2
AcDbTableStyle
  3
ObjectDBX Classes
 90
4095
 91
0
280
0
281
0
  0
CLASS
  1
MLEADERSTYLE
  2
AcDbMLeaderStyle
  3
ACDB_MLEADERSTYLE_CLASS
 90
4095
 91
0
280
0
281
0
  0
CLASS
  1
DICTIONARYVAR
  2
AcDbDictionaryVar
  3
ObjectDBX Classes
 90
0
 91
0
280
0
281
0
  0
CLASS
  1
CELLSTYLEMAP
  2
AcDbCellStyleMap
  3
ObjectDBX Classes
 90
1152
 91
0
280
0
281
0
  0
CLASS
  1
MENTALRAYRENDERSETTINGS
  2
AcDbMentalRayRenderSettings
  3
SCENEOE
 90
1024
 91
0
280
0
281
0
  0
CLASS
  1
ACDBDETAILVIEWSTYLE
  2
AcDbDetailViewStyle
  3
ObjectDBX Classes
 90
1025
 91
0
280
0
281
0
  0
CLASS
  1
ACDBSECTIONVIEWSTYLE
  2
AcDbSectionViewStyle
  3
ObjectDBX Classes
 90
1025
 91
0
280
0
281
0
  0
CLASS
  1
RASTERVARIABLES
  2
AcDbRasterVariables
  3
ISM
 90
0
 91
0
280
0
281
0
  0
CLASS
  1
ACDBPLACEHOLDER
  2
AcDbPlaceHolder
  3
ObjectDBX Classes
 90
0
 91
0
280
0
281
0
  0
CLASS
  1
LAYOUT
  2
AcDbLayout
  3
ObjectDBX Classes
 90
0
 91
0
280
0
281
0
  0
ENDSEC
  0
SECTION
  2
TABLES
  0
TABLE
  2
VPORT
  5
8
330
0
100
AcDbSymbolTable
 70
1
  0
VPORT
  5
23
330
8
100
AcDbSymbolTableRecord
100
AcDbViewportTableRecord
  2
*Active
 70
0
 10
0.0
 20
0.0
 11
1.0
 21
1.0
 12
0.0
 22
0.0
 13
0.0
 23
0.0
 14
0.5
 24
0.5
 15
0.5
 25
0.5
 16
0.0
 26
0.0
 36
1.0
 17
0.0
 27
0.0
 37
0.0
 40
1000.0
 41
1.34
 42
50.0
 43
0.0
 44
0.0
 50
0.0
 51
0.0
 71
0
 72
1000
 73
1
 74
3
 75
0
 76
0
 77
0
 78
0
281
0
 65
0
146
0.0
  0
ENDTAB
  0
TABLE
  2
LTYPE
  5
2
330
0
100
AcDbSymbolTable
 70
3
  0
LTYPE
  5
24
330
2
100
AcDbSymbolTableRecord
100
AcDbLinetypeTableRecord
  2
ByBlock
 70
0
  3

 72
65
 73
0
 40
0.0
  0
LTYPE
  5
25
330
2
100
AcDbSymbolTableRecord
100
AcDbLinetypeTableRecord
  2
ByLayer
 70
0
  3

 72
65
 73
0
 40
0.0
  0
LTYPE
  5
26
330
2
100
AcDbSymbolTableRecord
100
AcDbLinetypeTableRecord
  2
Continuous
 70
0
  3

 72
65
 73
0
 40
0.0
  0
ENDTAB
  0
TABLE
  2
LAYER
  5
1
330
0
100
AcDbSymbolTable
 70
3
  0
LAYER
  5
27
330
1
100
AcDbSymbolTableRecord
100
AcDbLayerTableRecord
  2
0
 70
0
 62
7
  6
Continuous
370
-3
390
13
347
21
  0
LAYER
  5
28
330
1
100
AcDbSymbolTableRecord
100
AcDbLayerTableRecord
  2
Defpoints
 70
0
 62
7
  6
Continuous
290
0
370
-3
390
13
347
21
  0
LAYER
  5
2F
330
1
100
AcDbSymbolTableRecord
100
AcDbLayerTableRecord
  2
TOPPERS_CUT
 70
0
 62
4
  6
Continuous
370
-3
390
13
347
21
  0
ENDTAB
  0
TABLE
  2
STYLE
  5
5
330
0
100
AcDbSymbolTable
 70
1
  0
STYLE
  5
29
330
5
100
AcDbSymbolTableRecord
100
AcDbTextStyleTableRecord
  2
Standard
 70
0
 40
0.0
 41
1.0
 50
0.0
 71
0
 42
2.5
  3
txt
  4

  0
ENDTAB
  0
TABLE
  2
VIEW
  5
7
330
0
100
AcDbSymbolTable
 70
0
  0
ENDTAB
  0
TABLE
  2
UCS
  5
6
330
0
100
AcDbSymbolTable
 70
0
  0
ENDTAB
  0
TABLE
  2
APPID
  5
3
330
0
100
AcDbSymbolTable
 70
3
  0
APPID
  5
2A
330
3
100
AcDbSymbolTableRecord
100
AcDbRegAppTableRecord
  2
ACAD
 70
0
  0
APPID
  5
38
330
3
100
AcDbSymbolTableRecord
100
AcDbRegAppTableRecord
  2
HATCHBACKGROUNDCOLOR
 70
0
  0
APPID
  5
39
330
3
100
AcDbSymbolTableRecord
100
AcDbRegAppTableRecord
  2
EZDXF
 70
0
  0
ENDTAB
  0
TABLE
  2
DIMSTYLE
  5
4
330
0
100
AcDbSymbolTable
 70
1
100
AcDbDimStyleTable
  0
DIMSTYLE
105
2B
330
4
100
AcDbSymbolTableRecord
100
AcDbDimStyleTableRecord
  2
Standard
 70
0
 40
1.0
 41
2.5
 42
0.625
 43
3.75
 44
1.25
 45
0.0
 46
0.0
 47
0.0
 48
0.0
 49
2.5
140
2.5
141
2.5
142
0.0
143
0.03937007874
144
1.0
145
0.0
146
1.0
147
0.625
148
0.0
 69
0
 70
0
 71
0
 72
0
 73
0
 74
0
 75
0
 76
0
 77
1
 78
8
 79
3
170
0
171
3
172
1
173
0
174
0
175
0
176
0
177
0
178
0
179
2
271
2
272
2
273
2
274
3
275
0
276
0
277
2
278
44
279
0
280
0
281
0
282
0
283
0
284
8
285
0
286
0
288
0
289
3
290
0
371
-2
372
-2
  0
ENDTAB
  0
TABLE
  2
BLOCK_RECORD
  5
9
330
0
100
AcDbSymbolTable
 70
2
  0
BLOCK_RECORD
  5
17
330
9
100
AcDbSymbolTableRecord
100
AcDbBlockTableRecord
  2
*Model_Space
340
1A
 70
0
280
1
281
0
  0
BLOCK_RECORD
  5
1B
330
9
100
AcDbSymbolTableRecord
100
AcDbBlockTableRecord
  2
*Paper_Space
340
1E
 70
0
280
1
281
0
  0
ENDTAB
  0
ENDSEC
  0
SECTION
  2
BLOCKS
  0
BLOCK
  5
18
330
17
100
AcDbEntity
  8
0
100
AcDbBlockBegin
  2
*Model_Space
 70
0
 10
0.0
 20
0.0
 30
0.0
  3
*Model_Space
  1

  0
ENDBLK
  5
19
330
17
100
AcDbEntity
  8
0
100
AcDbBlockEnd
  0
BLOCK
  5
1C
330
1B
100
AcDbEntity
  8
0
100
AcDbBlockBegin
  2
*Paper_Space
 70
0
 10
0.0
 20
0.0
 30
0.0
  3
*Paper_Space
  1

  0
ENDBLK
  5
1D
330
1B
100
AcDbEntity
  8
0
100
AcDbBlockEnd
  0
ENDSEC
  0
SECTION
  2
ENTITIES
  0
LWPOLYLINE
  5
30
330
17
100
AcDbEntity
  8
TOPPERS_CUT
100
AcDbPolyline
 90
108
 70
1
 10
86.60911226073547
 20
50.053229079574244
 10
86.48040705804844
 20
52.55191572875642
 10
87.34704201614487
 20
55.462060716451234
 10
87.74012480403785
 20
56.06661503316917
 10
90.31468694787559
 20
58.296330209490485
 10
93.40644319463843
 20
59.031886672722905
 10
95.48103831425699
 20
61.25585948947558
 10
96.37408812636914
 20
61.86615616576215
 10
98.06593670531826
 20
62.585634022202385
 10
99.46354742930454
 20
62.801699438682235
 10
101.26457718840732
 20
62.7223785282855
 10
101.97027338188279
 20
62.23045080746241
 10
103.07249777899244
 20
62.04309718882574
 10
104.38045134535841
 20
61.35807348979735
 10
105.48037879864061
 20
61.37070668084836
 10
107.47335606403499
 20
61.99363654818593
 10
110.88002266020779
 20
61.43272416418964
 10
112.59254373360402
 20
60.352320733440806
 10
113.60511097309339
 20
59.26387799929589
 10
114.30736175082771
 20
59.07193049300431
 10
115.21763864164579
 20
58.18232609663333
 10
116.01758588039647
 20
58.191513871943165
 10
116.92326888355963
 20
57.70188309494752
 10
117.72436459422406
 20
57.61107746541351
 10
119.33574379086272
 20
56.62951896759478
 10
121.16663381972242
 20
53.950369531258296
 10
121.59072534928605
 20
51.85510191719264
 10
121.39877784299446
 20
51.15285113945833
 10
121.61828867521551
 20
49.455260200940565
 10
121.02636754954858
 20
48.74841553555134
 10
120.834420043257
 20
48.04616475781703
 10
121.13899414544343
 20
47.64963655418286
 10
121.93894138419412
 20
47.65882432949269
 10
122.64348910575589
 20
47.26689001351344
 10
123.64112621036679
 20
47.47836154233839
 10
124.34911934766974
 20
46.786447011827626
 10
125.03988540626679
 20
47.59443355397441
 10
125.94327146560249
 20
47.304789586666445
 10
126.83976669345584
 20
47.61510604842151
 10
127.54546288693132
 20
47.123178327598424
 10
128.23622894552835
 20
47.93116486974521
 10
130.43493538017904
 20
48.05642465669105
 10
130.83031511189947
 20
48.46099216372131
 10
130.72572781940073
 20
48.85981731118292
 10
129.91774127725392
 20
49.550583369779964
 10
130.30967559323318
 20
50.255131091341724
 10
130.3016362898371
 20
50.955084925248585
 10
129.79822384987673
 20
51.24932278021144
 10
129.40743800581123
 20
50.444781653805855
 10
128.70748417190435
 20
50.43674235040976
 10
128.2983227772192
 20
51.232095701505536
 10
128.2891350019094
 20
52.032042940256225
 10
128.69025709319845
 20
51.9366434230673
 10
128.99827661112604
 20
51.24013500490163
 10
129.49939210725896
 20
51.14588395962643
 10
129.69133961355053
 20
51.84813473736075
 10
130.58324095374897
 20
52.55842481849114
 10
131.16138041645118
 20
54.465190342006416
 10
131.9544368237195
 20
55.07433854637925
 10
133.2313816484148
 20
57.089136778134446
 10
135.01748127263915
 20
58.30973013070758
 10
138.4057723181923
 20
59.34871222421268
 10
139.8884463121439
 20
60.86584037557615
 10
141.37571419375047
 20
61.98299490756426
 10
142.37220282644768
 20
62.29445984123305
 10
144.67090266594215
 20
62.420868100092626
 10
147.47531188922449
 20
62.05305169430166
 10
150.8613059909502
 20
63.292020597494435
 10
153.66112132657761
 20
63.32417781107881
 10
155.37019698423268
 20
62.54375459486149
 10
157.89529848743058
 20
60.37261148614027
 10
158.5975492651649
 20
60.18066397984869
 10
159.3043939305541
 20
59.588742854181774
 10
160.40546985575003
 20
59.50138264038894
 10
162.01570058047497
 20
58.61981754741405
 10
164.03509269988507
 20
56.94289910334339
 10
165.06029313042546
 20
54.75452891591626
 10
165.38439125514523
 20
52.658112829936876
 10
165.30736728857596
 20
50.65709626114641
 10
164.53038948809984
 20
48.64804038895986
 10
162.1581110977772
 20
46.22063534677832
 10
161.26276434183757
 20
45.81032548017943
 10
160.46166863117318
 20
45.90113110971344
 10
160.06743737136645
 20
45.39657019783935
 10
159.5317913694722
 20
39.79004869510214
 10
158.0916108363285
 20
34.57316456451672
 10
155.84803764869292
 20
29.647072873153
 10
154.7687826898578
 20
27.834558394912943
 10
151.12300489058106
 20
23.092374906444707
 10
145.8750356699755
 20
18.5318026770445
 10
139.5156542769504
 20
14.95853130503165
 10
136.1296601752247
 20
13.719562401838871
 10
129.24274843205097
 20
12.54039038650946
 10
125.1430188334537
 20
12.493303038046625
 10
121.83979105786591
 20
12.75538367942512
 10
116.42521706142027
 20
13.993280459053699
 10
109.99233346591663
 20
16.819586997046386
 10
106.36500756560906
 20
19.178083724404267
 10
103.33649362245077
 20
21.64346468808835
 10
100.80679823159794
 20
24.214581416184906
 10
98.37020541410658
 20
27.386807045258205
 10
95.82098600072038
 20
31.65781165569998
 10
93.3384543066799
 20
38.82977347852675
 10
92.57533451751803
 20
44.32137144154166
 10
92.3730507640029
 20
44.51906130740188
 10
91.57540046907967
 20
44.309886722404386
 10
89.16177708986285
 20
45.48224425460096
 10
87.43891976924309
 20
47.462588328944314
  0
LWPOLYLINE
  5
31
330
17
100
AcDbEntity
  8
TOPPERS_CUT
100
AcDbPolyline
 90
58
 70
1
 10
36.16956101688632
 20
9.671281747639934
 10
35.365019890480724
 20
10.062067591705459
 10
34.35360112290508
 20
11.050516921006544
 10
32.62500144271667
 20
13.530828019569089
 10
29.454000633906624
 20
19.69481649056139
 10
27.498999290014797
 20
24.472678956704716
 10
26.484135106697977
 20
25.76110850053731
 10
22.474062665720968
 20
26.615110267582736
 10
15.265349741654921
 20
27.332367528545035
 10
12.055224539428604
 20
28.195557070900275
 10
9.74274303696936
 20
29.269069670166743
 10
9.237033653181538
 20
29.76329433481728
 10
8.619846145412605
 20
31.256304575992466
 10
8.802605876394363
 20
32.75850259247747
 10
9.685319441282976
 20
34.26873991235856
 10
11.563373166955042
 20
36.190435570752285
 10
12.054152415864404
 20
36.99612516907162
 10
16.411368768185284
 20
40.74641391249758
 10
20.46515949023347
 20
44.793237454713875
 10
20.447932411527557
 20
46.293138527371426
 10
18.949256159133267
 20
54.87649273714918
 10
18.687251866104297
 20
60.27383965488889
 10
19.166546395876384
 20
62.07946330164659
 10
20.552672400725363
 20
63.29546276656481
 10
22.750230363462308
 20
63.520715958354494
 10
25.661523823070844
 20
62.55408759541423
 10
30.69105433501959
 20
60.01168266516087
 10
31.29790559556497
 20
59.41861306758021
 10
36.92854500849047
 20
56.78310556396538
 10
37.92847905692883
 20
56.79459028310265
 10
49.95762425629565
 20
63.03315308013773
 10
52.14943985946396
 20
63.75837329614659
 10
54.55043004762977
 20
63.685943217232214
 10
56.06181583942458
 20
62.703236247499774
 10
56.67670640336606
 20
61.41021281601227
 10
56.92033514577539
 20
57.61276037577394
 10
56.07781809786725
 20
52.60275388635856
 10
54.92383611629032
 20
48.58923602964036
 10
54.56405901389544
 20
45.08487297245118
 10
54.97322040858061
 20
44.289519621355396
 10
58.41204421833778
 20
40.9287919017317
 10
61.340564756652235
 20
38.462262466133886
 10
64.68284057730676
 20
34.80040606006496
 10
65.49771795093592
 20
33.50967957240489
 10
65.80918288460471
 20
32.51319093970771
 10
65.8252614913969
 20
31.113283271894005
 10
65.53561752408893
 20
30.209897212558293
 10
64.3483298570139
 20
29.09618809631136
 10
62.95646149259628
 20
28.380155655612317
 10
60.96233575528819
 20
27.857219193118585
 10
49.977991357344635
 20
26.430973019638667
 10
48.28499430648178
 20
25.81148856804227
 10
47.10115205514793
 20
24.397799237263833
 10
43.29788090699143
 20
15.953562825746186
 10
41.13937098932123
 20
12.328533869266064
 10
40.1532186038476
 20
11.11712829200275
 10
38.76594412708489
 20
10.001122231928363
 10
37.86944889923154
 20
9.690805770173304
  0
LWPOLYLINE
  5
32
330
17
100
AcDbEntity
  8
TOPPERS_CUT
100
AcDbPolyline
 90
100
 70
1
 10
6.7192047232136245
 20
74.83735048111298
 10
5.906624293411929
 20
75.92809015908537
 10
5.494017482985578
 20
77.02342372471266
 10
5.260724987799803
 20
79.92093552135645
 10
5.829676675192175
 20
82.6276482836224
 10
7.9640686826741005
 20
88.3525387418231
 10
8.692810662773676
 20
94.56131761745078
 10
9.764026318212684
 20
97.07378592959769
 10
11.53978969521346
 20
99.19431992576537
 10
13.229341330335128
 20
100.11378459189326
 10
14.62580358240766
 20
100.42984341321696
 10
15.914233126240253
 20
101.44470759653379
 10
14.593646368823283
 20
103.22965874884437
 10
13.774175107539222
 20
104.92035885587977
 10
13.350083577975596
 20
107.01562646994542
 10
13.523655533647531
 20
109.31777172518113
 10
14.8845151563945
 20
112.73362609666376
 10
18.040662178675614
 20
116.57012658196882
 10
18.006208021263785
 20
119.56992872728392
 10
18.493541854431964
 20
120.67559854013476
 10
19.188901800683908
 20
121.08361146290619
 10
20.087693972364708
 20
121.19394111497358
 10
21.09337038037171
 20
120.70545880989167
 10
22.60820158790772
 20
119.42277162562773
 10
23.70698056927619
 20
119.53539822152257
 10
26.711376602246197
 20
119.16987875955904
 10
28.319310383143677
 20
118.48830047627182
 10
30.03297992845363
 20
117.30790364067919
 10
32.76840448856277
 20
114.23911683219089
 10
35.02223757507237
 20
109.56469318663258
 10
36.006093016718545
 20
110.97608557358356
 10
37.48991548258391
 20
112.39322032010318
 10
38.2898627213346
 20
112.40240809541301
 10
40.00582921047201
 20
111.02202445013268
 10
40.71726776351615
 20
110.03012970509042
 10
41.896516127195085
 20
111.84379265524419
 10
42.47810100563846
 20
113.45057796422796
 10
43.952735696194
 20
115.66765994949826
 10
45.23657135237168
 20
117.08249775219042
 10
47.020374032768544
 20
118.50307791445123
 10
49.70871124441486
 20
119.53402070456025
 10
53.003899716606554
 20
119.97189389708862
 10
55.38536588223898
 20
121.59935170051946
 10
56.38529993067734
 20
121.61083641965675
 10
57.292131405754255
 20
121.02121223781725
 10
57.80588009293816
 20
119.82703373925987
 10
57.73689542976497
 20
117.12606333656257
 10
58.24719870120771
 20
116.23186505253666
 10
59.6631849758136
 20
114.84803599151515
 10
61.28834583541699
 20
112.66655663557037
 10
62.31469473787108
 20
110.37819304329942
 10
62.63419897493598
 20
108.68175057669536
 10
62.651426053641885
 20
107.18184950403784
 10
62.270976456799914
 20
105.4773677340377
 10
61.3928567795662
 20
103.56715679478127
 10
60.21016300014609
 20
102.05347405915899
 10
60.91700766553531
 20
101.46155293349206
 10
64.33515898084538
 20
99.90070650105741
 10
66.25800311115285
 20
97.92265937054151
 10
67.28435201360693
 20
95.63429577827054
 10
67.70270118360193
 20
94.03899518842408
 10
67.94173603835634
 20
90.6415163675611
 10
68.36812451174742
 20
88.34626194380776
 10
69.90362821373053
 20
85.26369347235475
 10
70.83572607090943
 20
82.47421438395087
 10
71.1586757237155
 20
80.47779170281532
 10
70.88855577894091
 20
77.8745177611344
 10
69.71390130291687
 20
75.66088119160526
 10
67.22899631669944
 20
74.33225513079219
 10
63.62923374232132
 20
74.290910141898
 10
59.81685116720452
 20
75.34719566245855
 10
56.80097041509724
 20
76.71264917286042
 10
52.46794832131417
 20
79.5630736210414
 10
47.62002906843345
 20
83.7076699726236
 10
43.863997965438855
 20
88.56485334916366
 10
42.75258579301937
 20
89.55215420655102
 10
42.456050994229045
 20
89.24872857627834
 10
41.875614587699395
 20
87.54194986245074
 10
39.69872911940955
 20
85.51681538347201
 10
39.40908515210159
 20
84.61342932413629
 10
38.999923757416425
 20
85.40878267523208
 10
37.59886761768898
 20
85.49269747328373
 10
37.104642953038436
 20
84.9869880894959
 10
37.010391907763236
 20
84.485872593363
 10
36.79892037893829
 20
85.48350969797391
 10
34.98296048495705
 20
86.86274487134051
 10
34.47610262925549
 20
87.45696294083488
 10
33.75662477281527
 20
89.14881151978402
 10
33.3555026815262
 20
89.24421103697296
 10
32.36590488031138
 20
88.33278567424114
 10
29.015513407911232
 20
83.99402122088944
 10
27.431697537202034
 20
82.57573800245606
 10
27.138608154152887
 20
81.97233215765188
 10
22.184876788510174
 20
77.91517236821203
 10
19.305740542486014
 20
76.08198539552487
 10
18.110413572014888
 20
75.66823011318479
 10
17.018525422128782
 20
74.95564308822694
 10
13.431396038801674
 20
73.81437064605053
 10
11.233838076064727
 20
73.58911745426086
 10
8.430577324696122
 20
73.85694045520799
  0
LWPOLYLINE
  5
33
330
17
100
AcDbEntity
  8
TOPPERS_CUT
100
AcDbPolyline
 90
163
 70
1
 10
94.61340758094589
 20
75.84685729327961
 10
92.48942816903704
 20
77.9226008848119
 10
91.87683454892301
 20
79.01563750661174
 10
91.15046586100043
 20
81.30744651462388
 10
91.01257288300357
 20
84.60608040255676
 10
91.68726033480843
 20
86.81397461251726
 10
93.17223127258751
 20
88.13111595419304
 10
93.56301711665303
 20
88.93565708059865
 10
94.2595255348187
 20
89.24367659852625
 10
94.96292478446675
 20
88.95173568739084
 10
95.96285883290511
 20
88.96322040652811
 10
97.45012671451164
 20
90.08037493851621
 10
98.35121583001991
 20
89.99071778089595
 10
99.25689883318307
 20
89.50108700390031
 10
100.64991566951441
 20
90.1171260397555
 10
101.24987609857743
 20
90.12401687123787
 10
101.65674054943514
 20
89.52865032982977
 10
102.5532357772885
 20
89.83896679158484
 10
101.54526242545403
 20
90.5274359063544
 10
101.54066853779912
 20
90.92740952572976
 10
99.51897947456158
 20
92.8043147794881
 10
98.50066987550356
 20
94.3927245378522
 10
98.68572655031278
 20
95.69493574464954
 10
99.8730142173878
 20
96.80864486089646
 10
101.56601126825066
 20
97.42812931249286
 10
103.66357582614378
 20
97.65223403236881
 10
107.07024242231657
 20
97.09132164837253
 10
108.26671786470145
 20
97.40508352586878
 10
108.24604537025434
 20
99.20496481305783
 10
107.6242639748305
 20
101.09794867360834
 10
106.31056804889587
 20
102.28293939685594
 10
105.70831067600541
 20
102.47603537506124
 10
103.20962402682323
 20
102.34733017237421
 10
101.60169024592575
 20
103.02890845566142
 10
100.69256182702141
 20
103.81851944718858
 10
99.8719420938236
 20
105.6092129590678
 10
100.060444184374
 20
106.6114439513336
 10
100.95349399648616
 20
107.22174062762019
 10
102.23732965266386
 20
108.63657843031235
 10
103.23841217301597
 20
108.5480697446058
 10
104.65095303188066
 20
107.46422089811578
 10
105.35320380961498
 20
107.2722733918242
 10
107.04964627621902
 20
107.59177762888908
 10
107.84040573965987
 20
108.4009126429496
 10
108.22430075224304
 20
109.80541419841822
 10
107.19795184978894
 20
112.09377779068919
 10
107.16694310811829
 20
114.79359972147279
 10
107.74737951464792
 20
116.50037843530035
 10
108.53239661852017
 20
117.80948047358007
 10
108.71975023715683
 20
118.9117048706897
 10
108.01405404368136
 20
119.40363259151279
 10
106.10614004825236
 20
120.0817654590588
 10
105.19356621360683
 20
121.17135666511747
 10
105.28092642739963
 20
122.2724325903134
 10
107.06702605162397
 20
123.49302594288656
 10
108.5657786523678
 20
123.61024642643629
 10
109.95994396061288
 20
124.12629205744766
 10
113.16088138752937
 20
124.06304975384312
 10
116.06643248756927
 20
123.59638841512204
 10
117.77321120139683
 20
123.0159520085924
 10
118.68233962030119
 20
122.22634101706524
 10
118.88921726147123
 20
121.62867753182968
 10
118.81449023872942
 20
119.42767415335156
 10
119.42248997118854
 20
118.73461115092707
 10
120.81780375134733
 20
119.15066337709459
 10
123.51532873830345
 20
119.38165892845291
 10
124.31068208939924
 20
119.79082032313809
 10
125.39453093588926
 20
121.20336118200278
 10
125.28879517147678
 20
121.70217973430826
 10
123.87625431261206
 20
122.78602858079826
 10
123.16366728765419
 20
123.87791673068436
 10
122.95219575882925
 20
124.87555383529528
 10
123.4464204234798
 20
125.3812632190831
 10
125.63593908282064
 20
126.30647024477965
 10
127.7358005845412
 20
126.3305881549679
 10
129.13111436470004
 20
126.74664038113545
 10
131.7332398344672
 20
126.5765138412047
 10
133.3377281996235
 20
126.19491577244898
 10
135.95248686044172
 20
124.92486177923604
 10
136.9662025718448
 20
123.73642564024729
 10
137.07882916773966
 20
122.6376466588788
 10
136.20415490624714
 20
120.42745550509085
 10
136.2190850411256
 20
119.12754124212097
 10
136.72594289682712
 20
118.53332317262661
 10
138.52467571210246
 20
118.65398907191752
 10
141.23024000245468
 20
118.18503078936901
 10
142.73818037850833
 20
117.50230403416806
 10
144.84378423979754
 20
117.02645492013717
 10
146.4540149645225
 20
116.14488982716227
 10
147.55738783354587
 20
115.85754280368175
 10
150.07674697717513
 20
114.18636671917974
 10
151.3835520716274
 20
113.60133642499518
 10
154.82237588138457
 20
110.24060870537149
 10
157.57617599211335
 20
105.57192741938184
 10
158.41172586018962
 20
102.4813196445327
 10
158.43469529846416
 20
100.48145154765596
 10
158.24504473600004
 20
99.57921396023399
 10
157.45198832873172
 20
98.97006575586116
 10
155.94404795267806
 20
99.65279251106209
 10
154.93033224127495
 20
100.84122865005085
 10
153.229295887016
 20
100.92169803236132
 10
152.72588344705565
 20
101.21593588732419
 10
151.6041350274126
 20
103.10317738830608
 10
150.90762660924696
 20
102.79515787037846
 10
149.10659685014417
 20
102.8744787807752
 10
148.1928745435849
 20
104.0640633916777
 10
147.29293389999037
 20
104.05372714445416
 10
146.79526381959866
 20
103.84799797519784
 10
146.0056528280715
 20
102.9388695562935
 10
145.00686725154688
 20
102.82739143231238
 10
143.39319111108074
 20
104.00893673981878
 10
142.59898623189872
 20
103.49978194028976
 10
142.21853663505675
 20
101.79530017028964
 10
141.82430537525002
 20
101.29073925841554
 10
138.6233679483335
 20
101.3539815620201
 10
138.22683974469936
 20
101.04940745983369
 10
138.0314468226666
 20
100.64713689663088
 10
138.15785508152618
 20
98.34843705713635
 10
137.76592076554692
 20
97.6438893355746
 10
136.67058719991965
 20
97.23128252514826
 10
135.4706663417936
 20
97.21750086218353
 10
134.56613181054416
 20
97.60713823433531
 10
133.06852768171407
 20
97.38992434594172
 10
132.3846524545994
 20
95.98197737473193
 10
132.79266537737084
 20
95.28661742847999
 10
132.51220918537268
 20
93.58328413039357
 10
132.0156875768947
 20
93.27756155629342
 10
129.31586564611112
 20
93.24655281462279
 10
128.81360167806446
 20
93.4407972647418
 10
128.01595138314124
 20
93.23162267974433
 10
127.62516553907571
 20
92.42708155333871
 10
128.02973304610597
 20
92.03170182161828
 10
128.85150125121748
 20
90.14101490489521
 10
128.66070221683964
 20
89.33877072231707
 10
128.06878109117272
 20
88.63192605692784
 10
126.27464216355229
 20
88.11128653826157
 10
125.77926902698803
 20
87.70557055931758
 10
125.99303749964042
 20
86.507946645019
 10
127.20559154881748
 20
85.42180085470153
 10
127.7319734270524
 20
83.12769490286192
 10
126.64582763673491
 20
81.91514085368487
 10
125.74933240888159
 20
81.60482439192982
 10
124.55859932606536
 20
80.79109549021439
 10
124.97809696797405
 20
79.09580149552409
 10
125.58954211617436
 20
78.10275827856809
 10
125.91249176898046
 20
76.10633559743255
 10
125.02518431643689
 20
74.9960718969268
 10
121.42886715779996
 20
74.6547466935011
 10
120.33468206408641
 20
74.1421464782309
 10
119.6450644774031
 20
73.23416653124028
 10
119.1692153633722
 20
71.12856266995107
 10
118.28190791082868
 20
70.01829896944534
 10
117.58425102074929
 20
69.81027285636156
 10
116.68316190524104
 20
69.89993001398184
 10
115.67863396914774
 20
70.28841891421992
 10
114.76835707832967
 20
71.17802331059089
 10
113.86382254708023
 20
71.56766068274268
 10
111.46398083082818
 20
71.54009735681322
 10
108.77219820344067
 20
70.80913478123573
 10
106.96887150051043
 20
71.08844250132013
 10
105.96319509250343
 20
71.57692480640205
 10
102.73010045200256
 20
74.43998244563402
 10
97.22701776985038
 20
74.6767967049105
  0
LWPOLYLINE
  5
34
330
17
100
AcDbEntity
  8
TOPPERS_CUT
100
AcDbPolyline
 90
157
 70
1
 10
90.81411628697728
 20
128.00666352052298
 10
90.69919274725497
 20
129.3054293115791
 10
91.47502207581739
 20
131.4144785886095
 10
94.02546630946685
 20
135.7440552666514
 10
94.60819965982395
 20
137.2508471707913
 10
95.69319697822769
 20
138.5633946248122
 10
95.88169906877809
 20
139.565625617078
 10
95.06107933558029
 20
141.35631912895724
 10
93.94966716316081
 20
142.3436199863446
 10
92.24748233698814
 20
142.52408277349892
 10
91.25673606385959
 20
141.71265081561094
 10
90.4602342408501
 20
141.4034828257696
 10
89.85223450839098
 20
142.0965458281941
 10
89.44077616987836
 20
143.09188598897754
 10
89.5200970802751
 20
144.89291574808033
 10
90.39706828559507
 20
146.9031200921806
 10
92.97507584517399
 20
148.83285505397043
 10
93.87157107302733
 20
149.14317151572547
 10
94.56233713162437
 20
149.95115805787228
 10
94.14628490545684
 20
151.34647183803105
 10
91.59476854824318
 20
155.8174632581605
 10
91.18101326590309
 20
157.01279022863167
 10
91.16723160293836
 20
158.21271108675768
 10
91.94191245958704
 20
160.4217537686319
 10
92.6292331024429
 20
161.5297205253102
 10
94.01306216346443
 20
162.94570679991608
 10
96.60370291409434
 20
163.77551430842374
 10
99.80234339718339
 20
163.91225881450683
 10
100.49655487152161
 20
164.4202651421221
 10
100.6885023778132
 20
165.12251591985643
 10
100.65864210805627
 20
167.72234444579618
 10
101.54824650442724
 20
168.63262133661425
 10
99.82998307146238
 20
170.21299179158225
 10
99.01166028209205
 20
171.8036984937738
 10
98.69445298885462
 20
173.30015415069016
 10
98.55196612320286
 20
176.99876165799841
 10
99.01403357426904
 20
180.30428637741366
 10
100.4737381299461
 20
183.82128262565385
 10
101.36678794205827
 20
184.43157930194042
 10
103.26666263409118
 20
184.45340026830124
 10
104.67346113338724
 20
183.8695184460304
 10
106.37564595955992
 20
183.6890556588761
 10
106.68711089322872
 20
182.69256702617892
 10
107.19396874893025
 20
182.09834895668453
 10
107.88703175135474
 20
182.70634868914365
 10
107.55374585132513
 20
185.6027120138737
 10
107.04229410796867
 20
186.59690370274345
 10
106.82852563531628
 20
187.79452761704204
 10
106.80670466895545
 20
189.69440230907492
 10
107.19978745684844
 20
190.29895662579287
 10
108.69164922610987
 20
191.01613753840564
 10
111.28688386439471
 20
191.4459714275379
 10
114.49815753853474
 20
190.4827884803388
 10
116.02217652138059
 20
188.40015405732416
 10
116.72787271485609
 20
187.90822633650106
 10
116.73246660251098
 20
187.5082527171257
 10
117.03589223278368
 20
187.2117179183354
 10
117.63011030227806
 20
187.71857577403696
 10
118.33006413618492
 20
187.72661507743305
 10
118.63463823837135
 20
187.33008687379888
 10
118.83232810423155
 20
187.532370627314
 10
118.52430858630393
 20
188.2288790454797
 10
118.61855963157916
 20
188.7299945416126
 10
119.02657255435058
 20
188.03463459536064
 10
119.62653298341361
 20
188.041525426843
 10
120.2173056371668
 20
188.84836349707606
 10
120.82530536962591
 20
188.15530049465158
 10
121.5264076754465
 20
188.06334639320383
 10
121.63214343985896
 20
187.5645278408984
 10
121.93442059821794
 20
187.36798644695187
 10
122.22521303743963
 20
188.17137910144376
 10
122.72403158974507
 20
188.27711486585625
 10
123.21710778248189
 20
188.88281765448792
 10
124.31014440428173
 20
189.4954112746019
 10
125.30663303697892
 20
189.8068762082707
 10
128.10529990069261
 20
189.93902682669892
 10
129.90862660362285
 20
189.65971910661452
 10
130.91545148354356
 20
189.07124339668877
 10
132.200435611635
 20
190.3860877945371
 10
133.193478828591
 20
190.9975329427374
 10
134.58994108066352
 20
191.31359176406107
 10
137.38975641629094
 20
191.34574897764546
 10
139.09653513011853
 20
190.7653125711158
 10
139.80223132359404
 20
190.27338485029273
 10
140.71825057398075
 20
188.88381342970257
 10
141.49170661036618
 20
182.49227482309314
 10
142.12497272492732
 20
179.59935691410425
 10
142.63642446828376
 20
178.60516522523451
 10
143.33752677410433
 20
178.51321112378676
 10
144.8179038242285
 20
180.2303260848379
 10
148.40043931990073
 20
181.77157214638967
 10
150.10032720224592
 20
181.79109616892305
 10
152.50705974998036
 20
181.21869906578948
 10
154.01614859794773
 20
180.43597890574466
 10
154.9264254887658
 20
179.54637450937372
 10
156.5642195394202
 20
176.26496770014674
 10
158.8950765924991
 20
173.59156062337888
 10
159.30883187483917
 20
172.39623365290777
 10
159.32491048163135
 20
170.99632598509407
 10
159.03641498623713
 20
169.9929465209145
 10
158.24335857896878
 20
169.3837983165417
 10
157.2330882833069
 20
170.27225424099893
 10
156.5308375055726
 20
170.46420174729047
 10
155.34469831041127
 20
169.25049922619974
 10
154.86540378063918
 20
167.44487557944203
 10
155.01248453394584
 20
163.34629445275849
 10
154.5377838918287
 20
161.14069718662543
 10
153.56426469740606
 20
158.82936415607992
 10
151.8839008375942
 20
157.10995225120132
 10
150.89200609255195
 20
156.3985136981572
 10
148.30366228574945
 20
155.3687193799619
 10
147.30602518113852
 20
155.15724785113696
 10
145.10502180266045
 20
155.23197487387878
 10
141.3891872166463
 20
156.5893890808846
 10
139.9777948296953
 20
157.57324452253076
 10
137.9538088226303
 20
159.65013658597678
 10
135.95623766958101
 20
159.42718033801452
 10
132.96677177148948
 20
158.49278553700816
 10
131.06460013562912
 20
158.67095138033503
 10
130.37038866129092
 20
158.16294505271975
 10
130.17844115499935
 20
157.46069427498543
 10
130.88643429230228
 20
156.76877974447467
 10
131.70935096932755
 20
154.77809942290776
 10
131.8323138124459
 20
152.77937979794478
 10
131.3472769231052
 20
151.47372317540626
 10
129.9370330080679
 20
152.3575852122086
 10
128.83825402669947
 20
152.24495861631374
 10
128.24633290103253
 20
151.53811395092453
 10
127.85899247270818
 20
150.43359260998741
 10
128.0853941364116
 20
148.13604124240663
 10
127.72676550593044
 20
144.5316847803736
 10
126.36246046744229
 20
141.4158106234225
 10
125.08207022700579
 20
139.7009926061988
 10
124.09132395387726
 20
138.88956064831086
 10
121.70756084441737
 20
137.46208965456768
 10
120.70877526789272
 20
137.35061153058658
 10
119.81342851195309
 20
136.94030166398767
 10
118.62614084487807
 20
135.82659254774074
 10
116.73889934389618
 20
134.7048441280977
 10
112.85178974603757
 20
133.5601262701801
 10
111.87023124821883
 20
131.94874707354145
 10
110.18642197266581
 20
130.5293153831944
 10
109.28762980098502
 20
130.41898573112698
 10
107.57281178376134
 20
131.69937597156348
 10
106.96136663556103
 20
132.69241918851952
 10
106.16601328446525
 20
132.28325779383434
 10
105.57409215879832
 20
131.57641312844513
 10
104.47990706508476
 20
131.06381291317493
 10
103.57996642149024
 20
131.05347666595137
 10
102.87541869992847
 20
131.44541098193062
 10
102.25019188876344
 20
133.63837505701264
 10
100.94338679431121
 20
134.22340535119721
 10
99.25383515918953
 20
133.30394068506934
 10
97.07694969089968
 20
131.27880620609056
 10
96.08275800202996
 20
130.76735446273412
 10
95.68852674222326
 20
130.26279355086
 10
92.21632089861843
 20
127.8227553176275
  0
LWPOLYLINE
  5
35
330
17
100
AcDbEntity
  8
TOPPERS_CUT
100
AcDbPolyline
 90
107
 70
1
 10
35.65450791441883
 20
124.17291806914253
 10
35.04076582239107
 20
125.36594809578621
 10
33.92475976231668
 20
126.7532225725489
 10
33.12481252356599
 20
126.74403479723908
 10
31.611129787943714
 20
127.9267285766592
 10
29.925023568563226
 20
126.7072836959998
 10
29.118185498330167
 20
127.29805634975301
 10
28.99866807095296
 20
128.99679576018448
 10
28.49410715907886
 20
129.3910270199912
 10
27.395328177710393
 20
129.27840042409636
 10
27.0919025474377
 20
129.5749352228867
 10
27.579236380605874
 20
130.68060503573753
 10
27.66544812248498
 20
131.8816743657773
 10
25.23689460838971
 20
134.35394616094374
 10
23.399113748047647
 20
137.63305602634324
 10
22.558969992316484
 20
141.1236374205677
 10
22.71761181310996
 20
144.72569693877327
 10
22.003876316238372
 20
145.91757849350319
 10
19.878748432415797
 20
148.09331548987933
 10
19.35696044183579
 20
149.98744782234357
 10
19.539720172817546
 20
151.4896458388286
 10
21.01320639145936
 20
153.80672122894276
 10
21.1994115381823
 20
155.00893903089622
 10
19.682283386818835
 20
156.49161302484785
 10
18.866257541275957
 20
157.88233291735176
 10
18.842139631087676
 20
159.98219441907233
 10
20.220226332540562
 20
161.89814771789742
 10
20.606418288951176
 20
163.1026624636783
 10
20.491494749228877
 20
164.4014282547345
 10
18.67898027098882
 20
165.4806832135696
 10
18.265224988648736
 20
166.67601018404073
 10
18.855997642401938
 20
167.48284825427376
 10
19.757086757910194
 20
167.3931910966535
 10
20.25475683830192
 20
167.5989202659098
 10
20.739793727642642
 20
168.9045768884483
 10
17.790600694881093
 20
173.17098761123518
 10
16.57460122996287
 20
174.55711361608417
 10
13.721956186303975
 20
179.12465302531626
 10
12.592168463264851
 20
181.711848360205
 10
11.958902348703733
 20
184.6047662691939
 10
12.053153393978928
 20
185.1058817653268
 10
13.045048139021201
 20
185.81732031837095
 10
14.426580256215269
 20
187.43329340266453
 10
16.412666690127267
 20
188.6561836990651
 10
17.706838593528502
 20
189.17108085816272
 10
21.002027065720192
 20
189.6089540506911
 10
22.89156551052954
 20
190.53071566064645
 10
24.984536180767737
 20
191.15479399989778
 10
26.98210733381701
 20
191.37775024785998
 10
30.88414706655409
 20
191.2225538428077
 10
34.87239854117028
 20
192.26842676779515
 10
38.47330958746211
 20
192.20977835184553
 10
41.983415004219935
 20
191.35003422523147
 10
47.48305227063095
 20
191.41320018048648
 10
49.68979800867772
 20
190.83850613352547
 10
51.700002352777986
 20
189.96153492820548
 10
55.3078042305522
 20
189.30292608319286
 10
56.916886483363406
 20
188.5213543950618
 10
58.63514991632826
 20
186.94098394009376
 10
59.24544659261484
 20
186.0479341279816
 10
60.151129595778
 20
185.558303350986
 10
60.16605973065647
 20
184.25838908801612
 10
58.913232816149424
 20
180.14372935454037
 10
56.369679413982325
 20
175.21419224743545
 10
53.4181130890438
 20
170.98001508658248
 10
52.73653480575659
 20
169.37208130568501
 10
53.247986549113044
 20
168.37788961681525
 10
54.850177970441884
 20
168.19627835774727
 10
55.26048783704077
 20
167.30093160180766
 10
54.97084386973281
 20
166.3975455424719
 10
53.981246068518
 20
165.4861201797401
 10
52.88706097480444
 20
164.97351996446994
 10
52.695113468512865
 20
164.27126918673562
 10
53.41344285303936
 20
162.67941401263033
 10
53.73065014627679
 20
161.18295835571396
 10
55.04549454412512
 20
159.89797422762254
 10
55.55694628748158
 20
158.90378253875284
 10
55.479922320912294
 20
156.90276596996236
 10
54.696053688953796
 20
155.49367052683886
 10
53.21223122308843
 20
154.0765357803192
 10
52.82259385093664
 20
153.17200124906975
 10
53.036362323589046
 20
151.9743773347712
 10
53.96156934928558
 20
149.78485867543034
 10
53.77880961830382
 20
148.28266065894533
 10
53.391469189979475
 20
147.17813931800822
 10
52.60415514227979
 20
146.06902408941622
 10
51.31687407036092
 20
144.95416650125554
 10
50.628404955591336
 20
143.94619314942108
 10
50.34220640402456
 20
142.74282687555387
 10
50.088165066042166
 20
138.73964526605923
 10
49.508877131426246
 20
136.9328731473878
 10
48.726156971381464
 20
135.42378429942045
 10
46.85269713336431
 20
133.10211502165137
 10
44.87005611519349
 20
131.57924451071926
 10
44.79877450819285
 20
129.07826091770963
 10
44.60108464233263
 20
128.8759771641945
 10
43.89538844885714
 20
129.3679048850176
 10
43.597705178153085
 20
129.16447265958874
 10
43.21036474982874
 20
128.0599513186516
 10
43.02990196267444
 20
126.35776649247893
 10
42.23110319583748
 20
126.24858531232528
 10
41.42081970986324
 20
127.13933818060998
 10
40.41744024568369
 20
127.42783367600423
 10
39.42669397255514
 20
126.61640171811625
 10
38.127928181499
 20
126.50147817839397
 10
37.23717531321429
 20
125.69119469241971
 10
36.45445515316952
 20
124.18210584445235
  0
LWPOLYLINE
  5
36
330
17
100
AcDbEntity
  8
TOPPERS_CUT
100
AcDbPolyline
 90
88
 70
1
 10
-2.145604700447736
 20
219.74509752688746
 10
-2.359373173100141
 20
220.94272144118608
 10
-2.2512641165106824
 20
228.94449077252042
 10
-3.476451356738729
 20
231.1305640161201
 10
-3.420099884616545
 20
234.9314618720996
 10
-2.5293470163318377
 20
235.74174535807387
 10
-1.7328451933223288
 20
236.05091334791518
 10
3.1656831721119305
 20
236.2071818765317
 10
3.7564558258651273
 20
237.01401994676476
 10
4.04035743360445
 20
238.41737303031965
 10
4.820780649821771
 20
240.1264486879747
 10
6.49655062197871
 20
242.2458342122286
 10
8.183805313272925
 20
243.3652856880442
 10
10.47561432128507
 20
244.0916543759668
 10
12.574327351091908
 20
244.21576569099892
 10
16.38785839812243
 20
243.0594867655945
 10
17.900392661830978
 20
241.97678639101824
 10
18.811818024562786
 20
240.98718858980337
 10
20.240437490219687
 20
238.5034320754997
 10
20.756483121231057
 20
237.1092667672546
 10
21.26104403310515
 20
236.7150355074479
 10
21.758714113496875
 20
236.9207646767042
 10
27.059513042133936
 20
236.88164028328796
 10
28.157143551588682
 20
237.09426028402657
 10
29.56049663514358
 20
236.8103586762873
 10
30.466179638306745
 20
236.3207278992917
 10
31.868384249947912
 20
236.1368196963962
 10
33.4602394240532
 20
236.85514908092267
 10
43.15959969390534
 20
236.9665508565543
 10
46.26743454746036
 20
236.30219965197298
 10
46.96279449371231
 20
236.7102125747444
 10
47.43634666391576
 20
239.0158032457213
 10
47.9305713285663
 20
239.52151262950912
 10
48.80983947771373
 20
241.3317301639217
 10
50.787886608229634
 20
243.25457429422917
 10
53.67621062956361
 20
244.28781402816563
 10
56.274890683589625
 20
244.4176677027664
 10
59.282732132300815
 20
243.75216802627133
 10
61.19753695921217
 20
242.47407472966233
 10
62.82154934690184
 20
240.39258877856142
 10
63.95822790142332
 20
237.20543301460967
 10
64.56737610579617
 20
236.41237660734132
 10
65.47191063704561
 20
236.0227392351895
 10
66.38103905594996
 20
235.23312824366235
 10
68.48204902958426
 20
235.15725274900677
 10
69.69000919110638
 20
234.4710805780647
 10
69.73020570808684
 20
230.97131140853043
 10
68.3452281751516
 20
229.65531853876837
 10
67.77397954393176
 20
227.1485925861901
 10
68.28772823111568
 20
225.95441408763264
 10
69.39569498779397
 20
225.2670934447768
 10
71.419680994859
 20
223.19020138133078
 10
72.33684871715943
 20
221.70063655589684
 10
72.46096003219155
 20
219.60192352608996
 10
70.8965918356662
 20
207.78317773198393
 10
71.70687532164044
 20
206.8924248636992
 10
72.01604331148177
 20
206.09592304068968
 10
71.94935559213603
 20
203.1949658283047
 10
71.65396926525945
 20
202.79154679318816
 10
70.25750701318691
 20
202.47548797186445
 10
36.759716390501694
 20
202.09074988076569
 10
35.564389420030565
 20
201.67699459842564
 10
34.87247488951981
 20
200.96900146112267
 10
33.30473762560279
 20
198.1508105748756
 10
32.218591835285324
 20
196.9382565256986
 10
31.423238484189547
 20
196.5290951310134
 10
27.528089582934832
 20
196.08433110700267
 10
20.02628727581964
 20
196.19818252316077
 10
19.21944920558658
 20
196.78895517691396
 10
19.00912614867536
 20
197.68659887668105
 10
19.091892474813285
 20
199.1876484212523
 10
20.0814902760281
 20
200.09907378398412
 10
20.982579391536355
 20
200.00941662636382
 10
21.979068024233534
 20
200.3208815600326
 10
20.873398211382696
 20
200.80821539320078
 10
20.073450972632003
 20
200.79902761789097
 10
19.266612902398947
 20
201.38980027164416
 10
15.065741427044085
 20
201.44155785611144
 10
12.556718530638351
 20
202.21279329701892
 10
10.933854614862415
 20
204.19428584327602
 10
10.722383086037464
 20
205.1919229478869
 10
10.11093793783717
 20
206.18496616484293
 10
6.912373803097658
 20
214.7487963520873
 10
6.305522542552273
 20
215.34186594966795
 10
5.602123292904235
 20
215.63380686080342
 10
1.3943609860670094
 20
216.28552487433367
 10
-0.6146948861195416
 20
217.06250267480982
 10
-1.4226814282663272
 20
217.75326873340686
  0
LWPOLYLINE
  5
37
330
17
100
AcDbEntity
  8
TOPPERS_CUT
100
AcDbPolyline
 90
143
 70
1
 10
111.24783581932797
 20
194.84574719222832
 10
107.928529436948
 20
196.50773550142054
 10
104.89312466230736
 20
199.57307689416763
 10
102.77948149762203
 20
200.7488798421054
 10
101.26465029008605
 20
202.03156702636937
 10
100.1463472861842
 20
203.61882831281974
 10
99.42342401400279
 20
205.61065710630038
 10
99.59699596967472
 20
207.91280236153608
 10
100.27972272487565
 20
209.4207427375897
 10
101.56240990913962
 20
210.93557394512573
 10
102.34398159727067
 20
212.54465619793692
 10
102.33479382196086
 20
213.3446034366876
 10
101.82219360669066
 20
214.43878853040118
 10
100.4039103882573
 20
216.02260440111036
 10
99.2993890473202
 20
216.4099448294347
 10
98.20864936934781
 20
215.597364399633
 10
97.54085274902533
 20
212.78950976060952
 10
97.0558158596846
 20
211.48385313807097
 10
96.75813258898056
 20
211.28042091264214
 10
95.25708304440928
 20
211.36318723878003
 10
94.16864031026435
 20
210.3506199992907
 10
92.97216486787951
 20
210.0368581217944
 10
92.06648186471634
 20
210.52648889879006
 10
91.15505650198453
 20
211.51608670000488
 10
90.9275063663674
 20
213.9136314724295
 10
92.71130904676427
 20
215.33421163469035
 10
93.6974614322379
 20
216.54561721195364
 10
94.88819451505411
 20
217.359346113669
 10
96.46397108236722
 20
219.47758316600925
 10
96.94900797170793
 20
220.78323978854777
 10
98.13744411069669
 20
221.79695549995085
 10
99.21669906953181
 20
223.60946997819093
 10
99.30520775523836
 20
224.61055249854303
 10
98.99603976539703
 20
225.4070543215525
 10
98.49033038160921
 20
225.90127898620307
 10
97.39155140024073
 20
225.78865239030824
 10
96.89502979176274
 20
225.48292981620813
 10
96.38242957649256
 20
226.57711490992165
 10
96.6674796561456
 20
227.8804745886327
 10
97.65478051353296
 20
228.99188676105217
 10
97.03988994959148
 20
230.2849101925397
 10
96.91463016264564
 20
232.48361662719034
 10
97.50310587257138
 20
233.49044150711111
 10
98.78809000066279
 20
234.80528590495942
 10
102.48210362031611
 20
235.34774638998655
 10
103.86937809707881
 20
236.46375245006092
 10
104.84634270724261
 20
238.47510526607493
 10
106.13132683533404
 20
239.78994966392324
 10
106.49799476921127
 20
242.69435229204947
 10
108.05654425781844
 20
246.31249041704717
 10
110.32653229946979
 20
248.93873379700267
 10
113.00108784815136
 20
251.16959744523774
 10
114.09756988569238
 20
251.48221085082022
 10
115.09061310264838
 20
252.09365599902057
 10
119.57423771382882
 20
253.545244902952
 10
122.07177589109729
 20
253.77394351048284
 10
127.57256162942201
 20
253.73711606089404
 10
133.39055466098418
 20
252.20383295438887
 10
136.81215139203545
 20
250.34300630742268
 10
140.245232842224
 20
247.48224561201823
 10
143.18983198733062
 20
243.61580850860668
 10
144.72992957696863
 20
240.13326641777832
 10
145.4585952087187
 20
237.64147060007855
 10
146.3711690433642
 20
236.55187939401986
 10
146.97572336008216
 20
236.15879660612686
 10
148.1790896339494
 20
235.87259805456011
 10
152.28226464828785
 20
235.61970518849142
 10
154.08673982313184
 20
235.24040406356318
 10
156.70149848395005
 20
233.9703500703502
 10
157.7106203076982
 20
233.1818875507368
 10
159.23119387480284
 20
231.39923334225364
 10
160.46442041842698
 20
228.51320626474717
 10
160.88851194799062
 20
226.4179386506815
 10
160.8206757567312
 20
223.61697484314035
 10
160.06207350687467
 20
220.0080244934524
 10
159.37130744827763
 20
219.2000379513056
 10
158.96903688507484
 20
219.39543087333837
 10
158.14612020804958
 20
221.38611119490528
 10
156.31867559493105
 20
223.76528041671025
 10
150.19151457352757
 20
226.09506534622497
 10
149.6995868527045
 20
225.38936915274945
 10
149.43291232367108
 20
222.48611499653703
 10
147.60079747454813
 20
216.5646831443898
 10
147.52492197989258
 20
214.46367317075556
 10
148.15014879105757
 20
212.2707090956735
 10
148.0639370491785
 20
211.06963976563375
 10
147.763956834647
 20
211.06619434989256
 10
147.45938273246057
 20
211.46272255352673
 10
144.63889490238606
 20
213.2304466271314
 10
142.81604417692242
 20
215.20964222956098
 10
141.38857318317926
 20
217.5934053390209
 10
140.35648192115653
 20
220.38173595551106
 10
140.1415649765904
 20
221.67935327465347
 10
140.1128531787472
 20
224.1791883957494
 10
141.0656998787227
 20
228.29040271348399
 10
141.7541689934923
 20
229.29837606531842
 10
142.82423617701755
 20
231.9108377823092
 10
143.0104413237405
 20
233.11305558426267
 10
142.18637617480155
 20
235.2037293106734
 10
140.4612219103543
 20
237.38406019470443
 10
138.2361006216879
 20
239.55864871916683
 10
136.1213089850889
 20
240.83444507194844
 10
133.6134345605969
 20
241.50568710801213
 10
131.93881306035365
 20
239.28630817891434
 10
129.85158474968412
 20
238.16226281544382
 10
129.35736008503358
 20
237.65655343165605
 10
129.26310903975838
 20
237.1554379355231
 10
129.56883161385852
 20
236.65891632704512
 10
130.37107579643666
 20
236.46811729266724
 10
131.98245499307532
 20
235.48655879484855
 10
134.48343858608496
 20
235.41527718784792
 10
136.29825000815248
 20
234.1360354193251
 10
136.11204486142952
 20
232.9338176173716
 10
135.51323290428024
 20
232.82693338104542
 10
134.9247571943545
 20
231.8201085011247
 10
135.74882234329348
 20
229.72943477471395
 10
136.07521741184073
 20
227.4330318790469
 10
136.27750116535586
 20
227.23534201318665
 10
136.8705707629365
 20
227.84219327373208
 10
137.47282813582697
 20
227.64909729552673
 10
138.38310502664507
 20
226.75949289915576
 10
138.69227301648638
 20
225.96299107614627
 10
138.7083516232786
 20
224.56308340833252
 10
137.04406637025892
 20
221.44376383564023
 10
135.06831618357046
 20
219.32093289564514
 10
134.48443436129963
 20
217.91413439634908
 10
134.70739060926184
 20
215.91656324329978
 10
135.64752776983684
 20
212.42713032098905
 10
135.57854310666366
 20
209.7261599182917
 10
135.08776385775428
 20
208.9204703199724
 10
134.803862250015
 20
207.5171172364175
 10
133.1303892216855
 20
205.1977449024759
 10
131.34773501320234
 20
203.67717133537127
 10
130.77418943815508
 20
201.37043219248065
 10
129.98802386236912
 20
200.16132355904477
 10
128.99957453306803
 20
199.14990479146914
 10
127.21232643693
 20
198.02930484373988
 10
125.01706541802048
 20
197.60406484226252
 10
124.32629935942346
 20
196.7960783001157
 10
122.63789619621551
 20
195.776620229144
 10
120.3472356601171
 20
194.95025813637756
 10
116.95205378308155
 20
194.51123647193546
 10
112.95231758932812
 20
194.46529759538635
  0
ENDSEC
  0
SECTION
  2
OBJECTS
  0
DICTIONARY
  5
A
330
0
100
AcDbDictionary
281
1
  3
ACAD_COLOR
350
B
  3
ACAD_GROUP
350
C
  3
ACAD_LAYOUT
350
D
  3
ACAD_MATERIAL
350
E
  3
ACAD_MLEADERSTYLE
350
F
  3
ACAD_MLINESTYLE
350
10
  3
ACAD_PLOTSETTINGS
350
11
  3
ACAD_PLOTSTYLENAME
350
12
  3
ACAD_SCALELIST
350
14
  3
ACAD_TABLESTYLE
350
15
  3
ACAD_VISUALSTYLE
350
16
  3
EZDXF_META
350
2D
  0
DICTIONARY
  5
B
330
A
100
AcDbDictionary
281
1
  0
DICTIONARY
  5
C
330
A
100
AcDbDictionary
281
1
  0
DICTIONARY
  5
D
330
A
100
AcDbDictionary
281
1
  3
Model
350
1A
  3
Layout1
350
1E
  0
DICTIONARY
  5
E
330
A
100
AcDbDictionary
281
1
  3
ByBlock
350
1F
  3
ByLayer
350
20
  3
Global
350
21
  0
DICTIONARY
  5
F
330
A
100
AcDbDictionary
281
1
  3
Standard
350
2C
  0
DICTIONARY
  5
10
330
A
100
AcDbDictionary
281
1
  3
Standard
350
22
  0
DICTIONARY
  5
11
330
A
100
AcDbDictionary
281
1
  0
ACDBDICTIONARYWDFLT
  5
12
330
A
100
AcDbDictionary
281
1
  3
Normal
350
13
100
AcDbDictionaryWithDefault
340
13
  0
ACDBPLACEHOLDER
  5
13
330
12
  0
DICTIONARY
  5
14
330
A
100
AcDbDictionary
281
1
  0
DICTIONARY
  5
15
330
A
100
AcDbDictionary
281
1
  0
DICTIONARY
  5
16
330
A
100
AcDbDictionary
281
1
  0
LAYOUT
  5
1A
330
D
100
AcDbPlotSettings
  1

  4
A3
  6

 40
7.5
 41
20.0
 42
7.5
 43
20.0
 44
420.0
 45
297.0
 46
0.0
 47
0.0
 48
0.0
 49
0.0
140
0.0
141
0.0
142
1.0
143
1.0
 70
1024
 72
1
 73
0
 74
5
  7

 75
16
 76
0
 77
2
 78
300
147
1.0
148
0.0
149
0.0
100
AcDbLayout
  1
Model
 70
1
 71
0
 10
0.0
 20
0.0
 11
420.0
 21
297.0
 12
0.0
 22
0.0
 32
0.0
 14
1e+20
 24
1e+20
 34
1e+20
 15
-1e+20
 25
-1e+20
 35
-1e+20
146
0.0
 13
0.0
 23
0.0
 33
0.0
 16
1.0
 26
0.0
 36
0.0
 17
0.0
 27
1.0
 37
0.0
 76
1
330
17
  0
LAYOUT
  5
1E
330
D
100
AcDbPlotSettings
  1

  4
A3
  6

 40
7.5
 41
20.0
 42
7.5
 43
20.0
 44
420.0
 45
297.0
 46
0.0
 47
0.0
 48
0.0
 49
0.0
140
0.0
141
0.0
142
1.0
143
1.0
 70
0
 72
1
 73
0
 74
5
  7

 75
16
 76
0
 77
2
 78
300
147
1.0
148
0.0
149
0.0
100
AcDbLayout
  1
Layout1
 70
1
 71
1
 10
0.0
 20
0.0
 11
420.0
 21
297.0
 12
0.0
 22
0.0
 32
0.0
 14
1e+20
 24
1e+20
 34
1e+20
 15
-1e+20
 25
-1e+20
 35
-1e+20
146
0.0
 13
0.0
 23
0.0
 33
0.0
 16
1.0
 26
0.0
 36
0.0
 17
0.0
 27
1.0
 37
0.0
 76
1
330
1B
  0
MATERIAL
  5
1F
102
{ACAD_REACTORS
330
E
102
}
330
E
100
AcDbMaterial
  1
ByBlock
  2

 70
0
 40
1.0
 71
1
 41
1.0
 91
-1023410177
 42
1.0
 72
1
  3

 73
1
 74
1
 75
1
 44
0.5
 73
0
 45
1.0
 46
1.0
 77
1
  4

 78
1
 79
1
170
1
 48
1.0
171
1
  6

172
1
173
1
174
1
140
1.0
141
1.0
175
1
  7

176
1
177
1
178
1
143
1.0
179
1
  8

270
1
271
1
272
1
145
1.0
146
1.0
273
1
  9

274
1
275
1
276
1
 42
1.0
 72
1
  3

 73
1
 74
1
 75
1
 94
63
  0
MATERIAL
  5
20
102
{ACAD_REACTORS
330
E
102
}
330
E
100
AcDbMaterial
  1
ByLayer
  2

 70
0
 40
1.0
 71
1
 41
1.0
 91
-1023410177
 42
1.0
 72
1
  3

 73
1
 74
1
 75
1
 44
0.5
 73
0
 45
1.0
 46
1.0
 77
1
  4

 78
1
 79
1
170
1
 48
1.0
171
1
  6

172
1
173
1
174
1
140
1.0
141
1.0
175
1
  7

176
1
177
1
178
1
143
1.0
179
1
  8

270
1
271
1
272
1
145
1.0
146
1.0
273
1
  9

274
1
275
1
276
1
 42
1.0
 72
1
  3

 73
1
 74
1
 75
1
 94
63
  0
MATERIAL
  5
21
102
{ACAD_REACTORS
330
E
102
}
330
E
100
AcDbMaterial
  1
Global
  2

 70
0
 40
1.0
 71
1
 41
1.0
 91
-1023410177
 42
1.0
 72
1
  3

 73
1
 74
1
 75
1
 44
0.5
 73
0
 45
1.0
 46
1.0
 77
1
  4

 78
1
 79
1
170
1
 48
1.0
171
1
  6

172
1
173
1
174
1
140
1.0
141
1.0
175
1
  7

176
1
177
1
178
1
143
1.0
179
1
  8

270
1
271
1
272
1
145
1.0
146
1.0
273
1
  9

274
1
275
1
276
1
 42
1.0
 72
1
  3

 73
1
 74
1
 75
1
 94
63
  0
MLINESTYLE
  5
22
102
{ACAD_REACTORS
330
10
102
}
330
10
100
AcDbMlineStyle
  2
Standard
 70
0
  3

 62
256
 51
90.0
 52
90.0
 71
2
 49
0.5
 62
256
  6
BYLAYER
 49
-0.5
 62
256
  6
BYLAYER
  0
MLEADERSTYLE
  5
2C
102
{ACAD_REACTORS
330
F
102
}
330
F
100
AcDbMLeaderStyle
179
2
170
2
171
1
172
0
 90
2
 40
0.0
 41
0.0
173
1
 91
-1056964608
 92
-2
290
1
 42
2.0
291
1
 43
8.0
  3
Standard
 44
4.0
300

342
29
174
1
175
1
176
0
178
1
 93
-1056964608
 45
4.0
292
0
297
0
 46
4.0
 94
-1056964608
 47
1.0
 49
1.0
140
1.0
294
1
141
0.0
177
0
142
1.0
295
0
296
0
143
3.75
271
0
272
9
273
9
  0
DICTIONARY
  5
2D
330
A
100
AcDbDictionary
280
1
281
1
  3
CREATED_BY_EZDXF
350
2E
  3
WRITTEN_BY_EZDXF
350
3A
  0
DICTIONARYVAR
  5
2E
330
2D
100
DictionaryVariables
280
0
  1
1.4.4 @ 2026-08-27T20:13:12.439112+00:00
  0
DICTIONARYVAR
  5
3A
330
2D
100
DictionaryVariables
280
0
  1
1.4.4 @ 2026-08-27T20:13:12.450266+00:00
  0
ENDSEC
  0
EOF
