  0
SECTION
  2
HEADER
  9
$ACADVER
  1
AC1024
  9
$ACADMAINTVER
 70
6
  9
$DWGCODEPAGE
  3
ANSI_1252
  9
$LASTSAVEDBY
  1
ezdxf
  9
$INSBASE
 10
0.0
 20
0.0
 30
0.0
  9
$EXTMIN
 10
1e+20
 20
1e+20
 30
1e+20
  9
$EXTMAX
 10
-1e+20
 20
-1e+20
 30
-1e+20
  9
$LIMMIN
 10
0.0
 20
0.0
  9
$LIMMAX
 10
420.0
 20
297.0
  9
$ORTHOMODE
 70
0
  9
$REGENMODE
 70
1
  9
$FILLMODE
 70
1
  9
$QTEXTMODE
 70
0
  9
$MIRRTEXT
 70
1
  9
$LTSCALE
 40
1.0
  9
$ATTMODE
 70
1
  9
$TEXTSIZE
 40
2.5
  9
$TRACEWID
 40
1.0
  9
$TEXTSTYLE
  7
Standard
  9
$CLAYER
  8
0
  9
$CELTYPE
  6
ByLayer
  9
$CECOLOR
 62
256
  9
$CELTSCALE
 40
1.0
  9
$DISPSILH
 70
0
  9
$DIMSCALE
 40
1.0
  9
$DIMASZ
 40
2.5
  9
$DIMEXO
 40
0.625
  9
$DIMDLI
 40
3.75
  9
$DIMRND
 40
0.0
  9
$DIMDLE
 40
0.0
  9
$DIMEXE
 40
1.25
  9
$DIMTP
 40
0.0
  9
$DIMTM
 40
0.0
  9
$DIMTXT
 40
2.5
  9
$DIMCEN
 40
2.5
  9
$DIMTSZ
 40
0.0
  9
$DIMTOL
 70
0
  9
$DIMLIM
 70
0
  9
$DIMTIH
 70
0
  9
$DIMTOH
 70
0
  9
$DIMSE1
 70
0
  9
$DIMSE2
 70
0
  9
$DIMTAD
 70
1
  9
$DIMZIN
 70
8
  9
$DIMBLK
  1

  9
$DIMASO
 70
1
  9
$DIMSHO
 70
1
  9
$DIMPOST
  1

  9
$DIMAPOST
  1

  9
$DIMALT
 70
0
  9
$DIMALTD
 70
3
  9
$DIMALTF
 40
0.03937007874
  9
$DIMLFAC
 40
1.0
  9
$DIMTOFL
 70
1
  9
$DIMTVP
 40
0.0
  9
$DIMTIX
 70
0
  9
$DIMSOXD
 70
0
  9
$DIMSAH
 70
0
  9
$DIMBLK1
  1

  9
$DIMBLK2
  1

  9
$DIMSTYLE
  2
ISO-25
  9
$DIMCLRD
 70
0
  9
$DIMCLRE
 70
0
  9
$DIMCLRT
 70
0
  9
$DIMTFAC
 40
1.0
  9
$DIMGAP
 40
0.625
  9
$DIMJUST
 70
0
  9
$DIMSD1
 70
0
  9
$DIMSD2
 70
0
  9
$DIMTOLJ
 70
0
  9
$DIMTZIN
 70
8
  9
$DIMALTZ
 70
0
  9
$DIMALTTZ
 70
0
  9
$DIMUPT
 70
0
  9
$DIMDEC
 70
2
  9
$DIMTDEC
 70
2
  9
$DIMALTU
 70
2
  9
$DIMALTTD
 70
3
  9
$DIMTXSTY
  7
Standard
  9
$DIMAUNIT
 70
0
  9
$DIMADEC
 70
0
  9
$DIMALTRND
 40
0.0
  9
$DIMAZIN
 70
0
  9
$DIMDSEP
 70
44
  9
$DIMATFIT
 70
3
  9
$DIMFRAC
 70
0
  9
$DIMLDRBLK
  1

  9
$DIMLUNIT
 70
2
  9
$DIMLWD
 70
-2
  9
$DIMLWE
 70
-2
  9
$DIMTMOVE
 70
0
  9
$DIMFXL
 40
1.0
  9
$DIMFXLON
 70
0
  9
$DIMJOGANG
 40
0.785398163397
  9
$DIMTFILL
 70
0
  9
$DIMTFILLCLR
 70
0
  9
$DIMARCSYM
 70
0
  9
$DIMLTYPE
  6

  9
$DIMLTEX1
  6

  9
$DIMLTEX2
  6

  9
$DIMTXTDIRECTION
 70
0
  9
$LUNITS
 70
2
  9
$LUPREC
 70
4
  9
$SKETCHINC
 40
1.0
  9
$FILLETRAD
 40
10.0
  9
$AUNITS
 70
0
  9
$AUPREC
 70
2
  9
$MENU
  1
.
  9
$ELEVATION
 40
0.0
  9
$PELEVATION
 40
0.0
  9
$THICKNESS
 40
0.0
  9
$LIMCHECK
 70
0
  9
$CHAMFERA
 40
0.0
  9
$CHAMFERB
 40
0.0
  9
$CHAMFERC
 40
0.0
  9
$CHAMFERD
 40
0.0
  9
$SKPOLY
 70
0
  9
$TDCREATE
 40
2461280.633958333
  9
$TDUCREATE
 40
2458532.153996898
  9
$TDUPDATE
 40
2461280.633958333
  9
$TDUUPDATE
 40
2458532.1544311
  9
$TDINDWG
 40
0.0
  9
$TDUSRTIMER
 40
0.0
  9
$USRTIMER
 70
1
  9
$ANGBASE
 50
0.0
  9
$ANGDIR
 70
0
  9
$PDMODE
 70
0
  9
$PDSIZE
 40
0.0
  9
$PLINEWID
 40
0.0
  9
$SPLFRAME
 70
0
  9
$SPLINETYPE
 70
6
  9
$SPLINESEGS
 70
8
  9
$HANDSEED
  5
3B
  9
$SURFTAB1
 70
6
  9
$SURFTAB2
 70
6
  9
$SURFTYPE
 70
6
  9
$SURFU
 70
6
  9
$SURFV
 70
6
  9
$UCSBASE
  2

  9
$UCSNAME
  2

  9
$UCSORG
 10
0.0
 20
0.0
 30
0.0
  9
$UCSXDIR
 10
1.0
 20
0.0
 30
0.0
  9
$UCSYDIR
 10
0.0
 20
1.0
 30
0.0
  9
$UCSORTHOREF
  2

  9
$UCSORTHOVIEW
 70
0
  9
$UCSORGTOP
 10
0.0
 20
0.0
 30
0.0
  9
$UCSORGBOTTOM
 10
0.0
 20
0.0
 30
0.0
  9
$UCSORGLEFT
 10
0.0
 20
0.0
 30
0.0
  9
$UCSORGRIGHT
 10
0.0
 20
0.0
 30
0.0
  9
$UCSORGFRONT
 10
0.0
 20
0.0
 30
0.0
  9
$UCSORGBACK
 10
0.0
 20
0.0
 30
0.0
  9
$PUCSBASE
  2

  9
$PUCSNAME
  2

  9
$PUCSORG
 10
0.0
 20
0.0
 30
0.0
  9
$PUCSXDIR
 10
1.0
 20
0.0
 30
0.0
  9
$PUCSYDIR
 10
0.0
 20
1.0
 30
0.0
  9
$PUCSORTHOREF
  2

  9
$PUCSORTHOVIEW
 70
0
  9
$PUCSORGTOP
 10
0.0
 20
0.0
 30
0.0
  9
$PUCSORGBOTTOM
 10
0.0
 20
0.0
 30
0.0
  9
$PUCSORGLEFT
 10
0.0
 20
0.0
 30
0.0
  9
$PUCSORGRIGHT
 10
0.0
 20
0.0
 30
0.0
  9
$PUCSORGFRONT
 10
0.0
 20
0.0
 30
0.0
  9
$PUCSORGBACK
 10
0.0
 20
0.0
 30
0.0
  9
$USERI1
 70
0
  9
$USERI2
 70
0
  9
$USERI3
 70
0
  9
$USERI4
 70
0
  9
$USERI5
 70
0
  9
$USERR1
 40
0.0
  9
$USERR2
 40
0.0
  9
$USERR3
 40
0.0
  9
$USERR4
 40
0.0
  9
$USERR5
 40
0.0
  9
$WORLDVIEW
 70
1
  9
$SHADEDGE
 70
3
  9
$SHADEDIF
 70
70
  9
$TILEMODE
 70
1
  9
$MAXACTVP
 70
64
  9
$PINSBASE
 10
0.0
 20
0.0
 30
0.0
  9
$PLIMCHECK
 70
0
  9
$PEXTMIN
 10
1e+20
 20
1e+20
 30
1e+20
  9
$PEXTMAX
 10
-1e+20
 20
-1e+20
 30
-1e+20
  9
$PLIMMIN
 10
0.0
 20
0.0
  9
$PLIMMAX
 10
420.0
 20
297.0
  9
$UNITMODE
 70
0
  9
$VISRETAIN
 70
1
  9
$PLINEGEN
 70
0
  9
$PSLTSCALE
 70
1
  9
$TREEDEPTH
 70
3020
  9
$CMLSTYLE
  2
Standard
  9
$CMLJUST
 70
0
  9
$CMLSCALE
 40
20.0
  9
$PROXYGRAPHICS
 70
1
  9
$MEASUREMENT
 70
1
  9
$CELWEIGHT
370
-1
  9
$ENDCAPS
280
0
  9
$JOINSTYLE
280
0
  9
$LWDISPLAY
290
0
  9
$INSUNITS
 70
6
  9
$HYPERLINKBASE
  1

  9
$STYLESHEET
  1

  9
$XEDIT
290
1
  9
$CEPSNTYPE
380
0
  9
$PSTYLEMODE
290
1
  9
$FINGERPRINTGUID
  2
{FA4029A3-34F0-42AB-BA16-10EEEB0E8DDF}
  9
$VERSIONGUID
  2
{EC6A0B07-961E-4574-AC21-E1330CF61A77}
  9
$EXTNAMES
290
1
  9
$PSVPSCALE
 40
0.0
  9
$OLESTARTUP
290
0
  9
$SORTENTS
280
127
  9
$INDEXCTL
280
0
  9
$HIDETEXT
280
1
  9
$XCLIPFRAME
280
1
  9
$HALOGAP
280
0
  9
$OBSCOLOR
 70
257
  9
$OBSLTYPE
280
0
  9
$INTERSECTIONDISPLAY
280
0
  9
$INTERSECTIONCOLOR
 70
257
  9
$DIMASSOC
280
2
  9
$PROJECTNAME
  1

  9
$CAMERADISPLAY
290
0
  9
$LENSLENGTH
 40
50.0
  9
$CAMERAHEIGHT
 40
0.0
  9
$STEPSPERSEC
 40
24.0
  9
$STEPSIZE
 40
100.0
  9
$3DDWFPREC
 40
2.0
  9
$PSOLWIDTH
 40
0.005
  9
$PSOLHEIGHT
 40
0.08
  9
$LOFTANG1
 40
1.570796326795
  9
$LOFTANG2
 40
1.570796326795
  9
$LOFTMAG1
 40
0.0
  9
$LOFTMAG2
 40
0.0
  9
$LOFTPARAM
 70
7
  9
$LOFTNORMALS
280
1
  9
$LATITUDE
 40
37.795
  9
$LONGITUDE
 40
-122.394
  9
$NORTHDIRECTION
 40
0.0
  9
$TIMEZONE
 70
-8000
  9
$LIGHTGLYPHDISPLAY
280
1
  9
$TILEMODELIGHTSYNCH
280
1
  9
$CMATERIAL
347
20
  9
$SOLIDHIST
280
0
  9
$SHOWHIST
280
1
  9
$DWFFRAME
280
2
  9
$DGNFRAME
280
2
  9
$REALWORLDSCALE
290
1
  9
$INTERFERECOLOR
 62
256
  9
$CSHADOW
280
0
  9
$SHADOWPLANELOCATION
 40
0.0
  0
ENDSEC
  0
SECTION
  2
CLASSES
  0
CLASS
  1
ACDBDICTIONARYWDFLT
  2
AcDbDictionaryWithDefault
  3
ObjectDBX Classes
 90
0
 91
0
280
0
281
0
  0
CLASS
  1
SUN
  2
AcDbSun
  3
SCENEOE
 90
1153
 91
0
280
0
281
0
  0
CLASS
  1
VISUALSTYLE
  2
AcDbVisualStyle
  3
ObjectDBX Classes
 90
4095
 91
0
280
0
281
0
  0
CLASS
  1
MATERIAL
  2
AcDbMaterial
  3
ObjectDBX Classes
 90
1153
 91
0
280
0
281
0
  0
CLASS
  1
SCALE
  2
AcDbScale
  3
ObjectDBX Classes
 90
1153
 91
0
280
0
281
0
  0
CLASS
  1
TABLESTYLE
  2
AcDbTableStyle
  3
ObjectDBX Classes
 90
4095
 91
0
280
0
281
0
  0
CLASS
  1
MLEADERSTYLE
  2
AcDbMLeaderStyle
  3
ACDB_MLEADERSTYLE_CLASS
 90
4095
 91
0
280
0
281
0
  0
CLASS
  1
DICTIONARYVAR
  2
AcDbDictionaryVar
  3
ObjectDBX Classes
 90
0
 91
0
280
0
281
0
  0
CLASS
  1
CELLSTYLEMAP
  2
AcDbCellStyleMap
  3
ObjectDBX Classes
 90
1152
 91
0
280
0
281
0
  0
CLASS
  1
MENTALRAYRENDERSETTINGS
  2
AcDbMentalRayRenderSettings
  3
SCENEOE
 90
1024
 91
0
280
0
281
0
  0
CLASS
  1
ACDBDETAILVIEWSTYLE
  2
AcDbDetailViewStyle
  3
ObjectDBX Classes
 90
1025
 91
0
280
0
281
0
  0
CLASS
  1
ACDBSECTIONVIEWSTYLE
  2
AcDbSectionViewStyle
  3
ObjectDBX Classes
 90
1025
 91
0
280
0
281
0
  0
CLASS
  1
RASTERVARIABLES
  2
AcDbRasterVariables
  3
ISM
 90
0
 91
0
280
0
281
0
  0
CLASS
  1
ACDBPLACEHOLDER
  2
AcDbPlaceHolder
  3
ObjectDBX Classes
 90
0
 91
0
280
0
281
0
  0
CLASS
  1
LAYOUT
  2
AcDbLayout
  3
ObjectDBX Classes
 90
0
 91
0
280
0
281
0
  0
ENDSEC
  0
SECTION
  2
TABLES
  0
TABLE
  2
VPORT
  5
8
330
0
100
AcDbSymbolTable
 70
1
  0
VPORT
  5
23
330
8
100
AcDbSymbolTableRecord
100
AcDbViewportTableRecord
  2
*Active
 70
0
 10
0.0
 20
0.0
 11
1.0
 21
1.0
 12
0.0
 22
0.0
 13
0.0
 23
0.0
 14
0.5
 24
0.5
 15
0.5
 25
0.5
 16
0.0
 26
0.0
 36
1.0
 17
0.0
 27
0.0
 37
0.0
 40
1000.0
 41
1.34
 42
50.0
 43
0.0
 44
0.0
 50
0.0
 51
0.0
 71
0
 72
1000
 73
1
 74
3
 75
0
 76
0
 77
0
 78
0
281
0
 65
0
146
0.0
  0
ENDTAB
  0
TABLE
  2
LTYPE
  5
2
330
0
100
AcDbSymbolTable
 70
3
  0
LTYPE
  5
24
330
2
100
AcDbSymbolTableRecord
100
AcDbLinetypeTableRecord
  2
ByBlock
 70
0
  3

 72
65
 73
0
 40
0.0
  0
LTYPE
  5
25
330
2
100
AcDbSymbolTableRecord
100
AcDbLinetypeTableRecord
  2
ByLayer
 70
0
  3

 72
65
 73
0
 40
0.0
  0
LTYPE
  5
26
330
2
100
AcDbSymbolTableRecord
100
AcDbLinetypeTableRecord
  2
Continuous
 70
0
  3

 72
65
 73
0
 40
0.0
  0
ENDTAB
  0
TABLE
  2
LAYER
  5
1
330
0
100
AcDbSymbolTable
 70
3
  0
LAYER
  5
27
330
1
100
AcDbSymbolTableRecord
100
AcDbLayerTableRecord
  2
0
 70
0
 62
7
  6
Continuous
370
-3
390
13
347
21
  0
LAYER
  5
28
330
1
100
AcDbSymbolTableRecord
100
AcDbLayerTableRecord
  2
Defpoints
 70
0
 62
7
  6
Continuous
290
0
370
-3
390
13
347
21
  0
LAYER
  5
2F
330
1
100
AcDbSymbolTableRecord
100
AcDbLayerTableRecord
  2
TOPPERS_CUT
 70
0
 62
4
  6
Continuous
370
-3
390
13
347
21
  0
ENDTAB
  0
TABLE
  2
STYLE
  5
5
330
0
100
AcDbSymbolTable
 70
1
  0
STYLE
  5
29
330
5
100
AcDbSymbolTableRecord
100
AcDbTextStyleTableRecord
  2
Standard
 70
0
 40
0.0
 41
1.0
 50
0.0
 71
0
 42
2.5
  3
txt
  4

  0
ENDTAB
  0
TABLE
  2
VIEW
  5
7
330
0
100
AcDbSymbolTable
 70
0
  0
ENDTAB
  0
TABLE
  2
UCS
  5
6
330
0
100
AcDbSymbolTable
 70
0
  0
ENDTAB
  0
TABLE
  2
APPID
  5
3
330
0
100
AcDbSymbolTable
 70
3
  0
APPID
  5
2A
330
3
100
AcDbSymbolTableRecord
100
AcDbRegAppTableRecord
  2
ACAD
 70
0
  0
APPID
  5
38
330
3
100
AcDbSymbolTableRecord
100
AcDbRegAppTableRecord
  2
HATCHBACKGROUNDCOLOR
 70
0
  0
APPID
  5
39
330
3
100
AcDbSymbolTableRecord
100
AcDbRegAppTableRecord
  2
EZDXF
 70
0
  0
ENDTAB
  0
TABLE
  2
DIMSTYLE
  5
4
330
0
100
AcDbSymbolTable
 70
1
100
AcDbDimStyleTable
  0
DIMSTYLE
105
2B
330
4
100
AcDbSymbolTableRecord
100
AcDbDimStyleTableRecord
  2
Standard
 70
0
 40
1.0
 41
2.5
 42
0.625
 43
3.75
 44
1.25
 45
0.0
 46
0.0
 47
0.0
 48
0.0
 49
2.5
140
2.5
141
2.5
142
0.0
143
0.03937007874
144
1.0
145
0.0
146
1.0
147
0.625
148
0.0
 69
0
 70
0
 71
0
 72
0
 73
0
 74
0
 75
0
 76
0
 77
1
 78
8
 79
3
170
0
171
3
172
1
173
0
174
0
175
0
176
0
177
0
178
0
179
2
271
2
272
2
273
2
274
3
275
0
276
0
277
2
278
44
279
0
280
0
281
0
282
0
283
0
284
8
285
0
286
0
288
0
289
3
290
0
371
-2
372
-2
  0
ENDTAB
  0
TABLE
  2
BLOCK_RECORD
  5
9
330
0
100
AcDbSymbolTable
 70
2
  0
BLOCK_RECORD
  5
17
330
9
100
AcDbSymbolTableRecord
100
AcDbBlockTableRecord
  2
*Model_Space
340
1A
 70
0
280
1
281
0
  0
BLOCK_RECORD
  5
1B
330
9
100
AcDbSymbolTableRecord
100
AcDbBlockTableRecord
  2
*Paper_Space
340
1E
 70
0
280
1
281
0
  0
ENDTAB
  0
ENDSEC
  0
SECTION
  2
BLOCKS
  0
BLOCK
  5
18
330
17
100
AcDbEntity
  8
0
100
AcDbBlockBegin
  2
*Model_Space
 70
0
 10
0.0
 20
0.0
 30
0.0
  3
*Model_Space
  1

  0
ENDBLK
  5
19
330
17
100
AcDbEntity
  8
0
100
AcDbBlockEnd
  0
BLOCK
  5
1C
330
1B
100
AcDbEntity
  8
0
100
AcDbBlockBegin
  2
*Paper_Space
 70
0
 10
0.0
 20
0.0
 30
0.0
  3
*Paper_Space
  1

  0
ENDBLK
  5
1D
330
1B
100
AcDbEntity
  8
0
100
AcDbBlockEnd
  0
ENDSEC
  0
SECTION
  2
ENTITIES
  0
LWPOLYLINE
  5
30
330
17
100
AcDbEntity
  8
TOPPERS_CUT
100
AcDbPolyline
 90
152
 70
1
 10
86.51752592904894
 20
50.520344876930565
 10
86.492793037379
 20
52.720205846189685
 10
87.36238215775371
 20
55.43015321869085
 10
89.04316294498172
 20
57.149157565772384
 10
90.23296910889442
 20
58.06259135774381
 10
93.52489100634266
 20
58.7996464581948
 10
96.29323583236524
 20
61.63094773574087
 10
97.78639570458647
 20
62.24777315349559
 10
99.48403982704397
 20
62.46687229426409
 10
101.28617451931687
 20
62.28712093569776
 10
101.89063349123663
 20
61.89389154810609
 10
103.0928061009843
 20
61.70739485544796
 10
104.50171140566553
 20
60.92318452496188
 10
107.39253435908168
 20
61.7557364164392
 10
109.39578063454496
 20
61.47823982214927
 10
111.00242485537066
 20
60.89626529720219
 10
111.71025017475718
 20
60.20417909069655
 10
112.61469018793953
 20
59.81432237015078
 10
113.62811766033182
 20
58.62564042858669
 10
114.53030922881689
 20
58.43577106888265
 10
115.23813454820342
 20
57.74368486237701
 10
116.03808399157037
 20
57.75267864116607
 10
117.04364190752224
 20
57.26395246254807
 10
117.64360399004745
 20
57.27069779663988
 10
119.15475141984682
 20
56.287624327660694
 10
120.88387376806604
 20
53.70690041664487
 10
121.40969928418897
 20
51.412666878708045
 10
121.32881738369488
 20
49.711650089204646
 10
120.74909130344506
 20
47.90501850753721
 10
121.25917770668711
 20
47.01069649549255
 10
122.16249349752084
 20
46.720833455367654
 10
121.96700302607363
 20
46.31861028898691
 10
120.37160102873426
 20
45.900648009725295
 10
120.07499265451756
 20
45.59729430141679
 10
120.0896075450498
 20
44.297376455945496
 10
120.59969394829184
 20
43.40305444390084
 10
121.40638872575059
 20
42.8120861401647
 10
122.02096569880806
 20
41.518913628785214
 10
123.32200776662799
 20
41.433534838896584
 10
124.12870254408674
 20
40.84256653516044
 10
125.13201201534132
 20
40.553827717384166
 10
127.7318477062839
 20
40.58305749844864
 10
128.3250644547173
 20
41.18976491506565
 10
128.51156114737546
 20
42.39193752481334
 10
128.81941174507847
 20
41.69535442891317
 10
129.91934222970804
 20
41.70772087474814
 10
130.5136832004901
 20
42.21443461094428
 10
130.5945651009842
 20
43.91545140044768
 10
130.8945461422468
 20
43.91882406749359
 10
131.80460726717232
 20
43.02899894484347
 10
132.78880495850012
 20
44.440152694221965
 10
132.96181098297467
 20
46.84224946902008
 10
132.35397934400902
 20
47.53545989787436
 10
132.2461161071477
 20
48.23429143847182
 10
131.63716024583343
 20
49.027495547746966
 10
131.04394349740002
 20
48.42078813112995
 10
131.05181305384045
 20
47.72083236818386
 10
131.8618804983451
 20
46.82988302318511
 10
131.3675332079839
 20
46.32429350933761
 10
131.0799186125563
 20
45.220990357662146
 10
130.19346615695207
 20
44.010948191474014
 10
129.38227449009878
 20
45.00189121689364
 10
128.88792719973762
 20
44.49630170304612
 10
128.99354199190162
 20
43.997457523290414
 10
129.70024308893954
 20
43.40536499720564
 10
129.50250417279506
 20
43.20312919166663
 10
128.80254840984895
 20
43.1952596352262
 10
128.29695889600148
 20
43.68960692558737
 10
127.97899029716072
 20
45.28613314527537
 10
127.67451236650359
 20
45.68273519991295
 10
125.77912932790161
 20
45.26140025360543
 10
125.19265791356
 20
44.05473075446321
 10
124.87468931471926
 20
45.6512569741512
 10
124.86119864653567
 20
46.85118113920163
 10
125.15780702075236
 20
47.154534847510135
 10
125.967874465257
 20
46.26358550251139
 10
126.85882381025576
 20
47.07365294701604
 10
127.16105329621564
 20
46.8770382532202
 10
127.16779863030743
 20
46.27707617069499
 10
127.57451868608271
 20
45.68161097756431
 10
128.2542384467534
 20
47.48936678158039
 10
130.0530004719804
 20
47.60959646427666
 10
130.5484719846902
 20
48.0151922977033
 10
130.44285719252616
 20
48.514036477459015
 10
129.93726767867867
 20
49.00838376782019
 10
129.92714967754097
 20
49.90832689160801
 10
130.22375805175767
 20
50.21168059991652
 10
130.0192738015214
 20
50.609406876902725
 10
129.72491387200193
 20
50.10606580775248
 10
128.82497074821413
 20
50.095947806614774
 10
128.62723183206967
 20
49.89371200107577
 10
128.4396109170629
 20
48.79153307174895
 10
128.33174768020157
 20
49.4903646123464
 10
128.62385916502376
 20
50.19369304233838
 10
128.2103937751567
 20
51.389120317994276
 10
128.40476002425527
 20
51.89133716479588
 10
129.21707591345717
 20
50.800400458955394
 10
129.60805685635157
 20
51.604846791716874
 10
130.60012410411983
 20
52.3160447781493
 10
131.27534697539596
 20
54.52377530384886
 10
131.96968162659888
 20
55.031613262393634
 10
132.3606625694933
 20
55.83605959515512
 10
133.34935715021564
 20
56.847238622850135
 10
135.03688327153543
 20
57.96628088740647
 10
138.22656304386555
 20
58.90219912635057
 10
140.20395220531026
 20
60.92455718174061
 10
142.3914467287344
 20
62.04922055804011
 10
144.0902150735405
 20
62.168326018387745
 10
146.19570347412193
 20
61.691966285604714
 10
147.19564027833061
 20
61.703208509091056
 10
150.18196002277307
 20
62.936859344600485
 10
153.68173883750347
 20
62.97620712680266
 10
155.29175572537508
 20
62.09425156059298
 10
157.81857907226401
 20
59.72250878920797
 10
159.42522329308972
 20
59.14053426426089
 10
160.42628431964704
 20
59.05178280732637
 10
161.33522122222394
 20
58.26195136509712
 10
162.03742542986726
 20
58.06983356069581
 10
163.95641713779054
 20
56.39130121816508
 10
164.7788510281302
 20
54.40042138853678
 10
165.00019861359596
 20
52.502789905237535
 10
164.9215651577991
 20
50.60178575489239
 10
164.1452243837535
 20
48.49292468726508
 10
161.67236370959898
 20
46.064970798448385
 10
160.07471326756234
 20
45.84699588002851
 10
159.5814901995498
 20
45.241412685760125
 10
159.1467266936662
 20
39.43615810960657
 10
157.70303260478485
 20
34.41961075333363
 10
154.9695386715699
 20
28.488505382740634
 10
151.7192130010211
 20
24.051684106717495
 10
149.34747022963612
 20
21.524860759828567
 10
144.88710239289918
 20
17.974491939409646
 10
140.2155049718342
 20
15.421811478502146
 10
137.92689254564056
 20
14.396017560274885
 10
135.1360632726453
 20
13.564589891146193
 10
128.94769731003777
 20
12.49495130132222
 10
122.84583435966752
 20
12.626361098897306
 10
119.84040283529828
 20
13.09260283054264
 10
115.82828917262857
 20
14.14756442122685
 10
109.89830802438419
 20
16.78106467402092
 10
106.77601948436458
 20
18.746087389630652
 10
103.24363822152381
 20
21.606556339633674
 10
101.32239806890325
 20
23.48507604300614
 10
98.48210301256812
 20
27.053370312395668
 10
95.72943519081889
 20
31.722719288763397
 10
93.35200919908318
 20
38.596426123784774
 10
92.58684853991636
 20
44.38819003175472
 10
92.28349483160784
 20
44.68479840597142
 10
91.48579383293816
 20
44.47581726634062
 10
89.87914961211246
 20
45.05779179128769
 10
88.16239370972819
 20
46.53858521767395
 10
87.35007782052627
 20
47.629521923514446
  0
LWPOLYLINE
  5
31
330
17
100
AcDbEntity
  8
TOPPERS_CUT
100
AcDbPolyline
 90
59
 70
1
 10
36.17379788174696
 20
9.651786714214563
 10
34.358172521290456
 20
11.03146223783132
 10
32.83465864565611
 20
13.114466191440062
 10
29.359550613988127
 20
19.775819219784722
 10
27.10010586025142
 20
25.050751390420828
 10
26.49339844363441
 20
25.64396813885424
 10
23.684581613061017
 20
26.412439356459448
 10
16.977135468422375
 20
27.03707222204708
 10
16.47379439927213
 20
27.331432151566514
 10
12.163948140037068
 20
28.183033714363084
 10
9.449503878141375
 20
29.452597556421274
 10
8.83942379447846
 20
30.345795346117285
 10
8.630442654847652
 20
31.143496344786968
 10
8.813566680459886
 20
32.645649995797264
 10
9.597777010945965
 20
34.0545553004785
 10
11.477420936667066
 20
35.87580177267817
 10
12.560488086067117
 20
37.38807342482618
 10
20.381293274911396
 20
44.47644461982905
 10
20.461050953056862
 20
46.27745508975332
 10
18.968953194576734
 20
54.461197771383695
 10
18.611636813533813
 20
59.55750280580211
 10
19.085748101619583
 20
61.862978567225255
 10
20.27218159848641
 20
63.07639340045928
 10
22.56978780346912
 20
63.30223787531959
 10
24.073065676828055
 20
63.01912016928649
 10
30.810865824879805
 20
59.6946579323354
 10
31.417573241496818
 20
59.101441183902
 10
33.12533536509203
 20
58.42059720088268
 10
33.730918559360404
 20
57.92737413287015
 10
36.94645544570908
 20
56.56343772213425
 10
38.14525538841087
 20
56.67692207073874
 10
42.22026339399655
 20
58.92287615629183
 10
43.41569066965244
 20
59.336341546158906
 10
46.096408261089124
 20
61.06658811672678
 10
51.3702162093766
 20
63.426026550884345
 10
52.26791088846714
 20
63.63613191286379
 10
54.67000766326527
 20
63.46312588838926
 10
56.187900427156436
 20
61.88009033688486
 10
56.70922905388481
 20
59.98583152063152
 10
56.72609238911432
 20
58.48592631431849
 10
55.89022993919862
 20
52.776168529191274
 10
54.737523112790804
 20
48.562943283331165
 10
54.38139306270405
 20
44.65869285752275
 10
58.0238860071034
 20
40.89940500608055
 10
61.355155686753804
 20
38.13668129180114
 10
63.784233797919136
 20
35.563826937225755
 10
65.20775399313261
 20
33.47969876126838
 10
65.51785303553291
 20
32.58312830452646
 10
65.63583427353193
 20
30.984353640141194
 10
65.44259224678198
 20
30.382143112918715
 10
64.55501556882913
 20
29.272094627151453
 10
62.765247322391204
 20
28.351915501088236
 10
56.97798030381578
 20
27.186780120237927
 10
51.58281845048341
 20
26.726097391728235
 10
48.093157636890695
 20
25.786806485738236
 10
47.10558727851698
 20
24.675633777622345
 10
43.495758890835525
 20
16.634543117053397
 10
40.25555122142445
 20
11.297778717242442
 10
38.27141672588793
 20
9.875382744377607
  0
LWPOLYLINE
  5
32
330
17
100
AcDbEntity
  8
TOPPERS_CUT
100
AcDbPolyline
 90
95
 70
1
 10
6.33477435152458
 20
75.2204734081147
 10
5.5168373505794905
 20
76.81137851605953
 10
5.280874874581476
 20
80.00892784483007
 10
5.851607176042215
 20
82.61550886986444
 10
7.894139125100142
 20
87.73879524065006
 10
8.718759351529508
 20
94.44848982998597
 10
9.69283904171962
 20
96.7595867031523
 10
11.27362614852675
 20
98.4774668278852
 10
11.369122939553083
 20
98.87856577191732
 10
13.75548060147033
 20
100.10547127333494
 10
14.554305822488649
 20
100.21445873254488
 10
16.042968805315343
 20
101.23125887198307
 10
14.622821277147775
 20
103.01540600667784
 10
13.804884276202685
 20
104.60631111462267
 10
13.2768103153825
 20
107.10053201340122
 10
13.646431033652865
 20
109.80485827415922
 10
14.718255959566585
 20
112.3170667305159
 10
17.285489202398796
 20
115.24611324378557
 10
18.07194797758214
 20
116.45503118762505
 10
17.941600293748163
 20
119.1537363366399
 10
18.0337244177286
 20
119.85481632193459
 10
18.52694748574114
 20
120.46039951620298
 10
19.22353058164132
 20
120.76825011390603
 10
20.223467385850007
 20
120.77949233739237
 10
22.641303273528997
 20
119.20657478702567
 10
23.540122174968182
 20
119.31668646858422
 10
26.745541060179146
 20
118.85269318163618
 10
29.96669905827099
 20
116.98878836879594
 10
33.006981475447866
 20
113.42274254410367
 10
35.056320867205116
 20
109.04550505255811
 10
35.93715221106616
 20
110.75551562085062
 10
37.5213119849192
 20
112.1734147043209
 10
38.523497233825154
 20
111.9846695669655
 10
40.74921531710284
 20
109.70954780895545
 10
42.121021284279166
 20
112.22512893235805
 10
42.40976010205543
 20
113.22843840361263
 10
42.806362156693005
 20
113.53291633426977
 10
43.88493241669852
 20
115.44516270810125
 10
45.07024169121671
 20
116.75857122175614
 10
47.15212142247681
 20
118.38207877781136
 10
49.442982293367734
 20
119.20788533519688
 10
52.9382642187036
 20
119.64720783908251
 10
55.42011867164719
 20
121.27521228453227
 10
56.320061795435
 20
121.28533028566997
 10
57.12563235054512
 20
120.7943556623547
 10
57.64246408787896
 20
119.30007156778484
 10
57.453718950523566
 20
118.29788631887887
 10
57.57170018852257
 20
116.69911165449362
 10
59.596306688609886
 20
114.52173513220717
 10
61.12094478659286
 20
112.33873749817755
 10
61.734397537301675
 20
111.14555866721894
 10
62.36021673384546
 20
108.85244935163078
 10
62.47482530479856
 20
107.5536557285081
 10
62.00071401671279
 20
105.24817996708495
 10
61.31762158899621
 20
103.74040520433148
 10
59.84020082965586
 20
101.7236682606846
 10
60.546901926693735
 20
101.13157573459983
 10
64.26465565984404
 20
99.57327307476538
 10
66.39262850739811
 20
97.09703973356497
 10
67.21843506478363
 20
94.80617886267405
 10
68.19482530827855
 20
88.01672659519268
 10
69.52509715716295
 20
85.33151211436146
 10
70.66212697929743
 20
82.04408710630776
 10
70.88909567650636
 20
79.64648722090418
 10
70.61272330456507
 20
77.54324726502003
 10
70.02737611257209
 20
76.23658408545694
 10
68.9398120737775
 20
75.1242871549924
 10
66.75006910565608
 20
74.19961113953465
 10
63.950246053871766
 20
74.16813291377291
 10
59.939256613550675
 20
75.12310082403624
 10
57.02370076846461
 20
76.49040990181804
 10
52.79361218737502
 20
79.14302193453888
 10
51.37796154860198
 20
80.52719434755018
 10
50.87574470180037
 20
80.72156059664874
 10
48.048940313648835
 20
83.08993070098785
 10
42.67395235398434
 20
89.72992350470847
 10
41.89648735759006
 20
87.72105611750203
 10
40.216830792710695
 20
85.90205808999961
 10
39.422502461086914
 20
85.39309590910621
 10
36.92266045056519
 20
85.36499035039036
 10
34.501451895840304
 20
87.23788894201967
 10
33.579024325079814
 20
89.22764454929933
 10
32.98131068725187
 20
89.02091185436579
 10
28.840035671704328
 20
83.77402313383801
 10
28.34231571429725
 20
83.5684146612531
 10
26.564913913694284
 20
81.54830505056033
 10
24.483034182434178
 20
79.92479749450511
 10
24.089804794842507
 20
79.32033852258537
 10
23.095489102376987
 20
78.80912789699468
 10
20.717000996900175
 20
76.88226663263097
 10
16.242018269631025
 20
74.63181565768335
 10
13.451188996635764
 20
73.80038798855466
 10
9.95478284895126
 20
73.46105916508988
 10
8.451504975592329
 20
73.74417687112297
 10
7.4459470596404715
 20
74.23290304974098
  0
LWPOLYLINE
  5
33
330
17
100
AcDbEntity
  8
TOPPERS_CUT
100
AcDbPolyline
 90
150
 70
1
 10
94.6359394972435
 20
75.613199659433
 10
92.51358776143259
 20
77.58946459852906
 10
91.18219169019956
 20
80.37467275978115
 10
90.84173864438614
 20
83.97107258788652
 10
91.12148368337333
 20
85.77433150250806
 10
91.80794877813581
 20
86.98212522399892
 10
93.78983482897505
 20
88.60450855770549
 10
96.08744103395776
 20
88.8303530325658
 10
97.17950196214687
 20
89.54267524134686
 10
98.68277983550581
 20
89.25955753531375
 10
100.98038604048853
 20
89.48540201017406
 10
101.58372079005963
 20
89.19216630300326
 10
102.48029124680156
 20
89.50226534540357
 10
101.57135434422467
 20
90.29209678763281
 10
101.16238584375212
 20
91.08754934160524
 10
98.42882980192965
 20
94.05700575081819
 10
98.41646335609468
 20
95.15693623544776
 10
99.30404003404755
 20
96.26698472121501
 10
99.99949890759908
 20
96.67482899933893
 10
102.29260822318727
 20
97.3006481958827
 10
104.5935870952159
 20
97.22651162948041
 10
107.19904389790165
 20
96.75577300844054
 10
107.89675121615043
 20
96.96362992572271
 10
108.19223536801853
 20
97.3669773144521
 10
107.8619003233428
 20
100.06343401876964
 10
107.34844125305487
 20
101.25773707207689
 10
106.53949803089886
 20
102.04869273665477
 10
105.73505169813737
 20
102.4396736795492
 10
103.13746445189204
 20
102.21045653764297
 10
101.5296960087177
 20
102.89242474301093
 10
100.1117969252474
 20
104.47658451686395
 10
99.69833153538032
 20
105.67201179251985
 10
99.89044933978163
 20
106.37421600016319
 10
101.08362817074024
 20
106.98766875087199
 10
101.57347857170689
 20
107.89323298640299
 10
102.26781322290981
 20
108.40107094494776
 10
103.2711226941644
 20
108.1123321271715
 10
104.88338802673327
 20
107.03038920012008
 10
107.07987632894648
 20
107.35510313305262
 10
107.57422361930765
 20
107.86069264690013
 10
107.95396233871573
 20
109.66507578387032
 10
107.74273275438763
 20
110.66276414338172
 10
107.13265267072472
 20
111.55596193307777
 10
107.00118076454211
 20
114.35466076251343
 10
108.55386231263341
 20
118.57238289776808
 10
107.84716121559552
 20
119.16447542385285
 10
106.34163489753932
 20
119.64758049072768
 10
105.12822006430531
 20
120.83401398759449
 10
105.21472307654255
 20
122.03506237499354
 10
107.00111865593458
 20
123.25522254231939
 10
108.59989332031985
 20
123.3732037803184
 10
109.49533955471315
 20
123.78329650313958
 10
113.09623627221306
 20
123.72377482726952
 10
116.10166779658229
 20
123.2575330956242
 10
117.8094299201775
 20
122.57668911260487
 10
118.41501311444588
 20
122.08346604459234
 10
118.72736060154345
 20
120.98690822700867
 10
118.44424289551037
 20
119.48363035364976
 10
118.85321139598291
 20
118.68817779967733
 10
122.25187230794381
 20
118.82639503995173
 10
123.74728062486228
 20
119.24323309686471
 10
125.32806773166942
 20
120.96111322159763
 10
125.22357716185402
 20
121.35996372093248
 10
123.60793916223925
 20
122.74188768924651
 10
122.7877537165969
 20
124.53278015803308
 10
123.18323154888583
 20
124.93725176911107
 10
125.86957025206569
 20
126.16752993757461
 10
127.57171126391772
 20
125.98665435665964
 10
128.467157498311
 20
126.39674707948082
 10
130.06593216269624
 20
126.51472831747984
 10
132.7713826458029
 20
126.04511391878859
 10
135.08247951896922
 20
125.07103422859848
 10
136.59924806051174
 20
123.58799235751493
 10
136.71610507616214
 20
122.08921137355055
 10
135.93526741272197
 20
120.3803250276067
 10
135.95213074795146
 20
118.88041982129369
 10
136.6610802896866
 20
118.08833993436717
 10
137.8576317876911
 20
118.40181164381337
 10
141.26416225609245
 20
117.8400731211417
 10
142.9730486020363
 20
117.05923545770152
 10
144.87742541942734
 20
116.68062096064209
 10
146.18633704368773
 20
115.89528640780739
 10
147.49075177855352
 20
115.50992657665613
 10
151.6219709015709
 20
112.7561966411658
 10
154.8588680125436
 20
109.49238030243342
 10
156.79584727804504
 20
106.21394907316878
 10
157.71939907115416
 20
104.12419978546822
 10
158.1418582398103
 20
102.12882306644539
 10
158.16434268678296
 20
100.12894945802802
 10
157.87447964665807
 20
99.2256336671943
 10
157.47900181436916
 20
98.8211620561163
 10
155.87235759354343
 20
99.40313658106336
 10
154.95892380157198
 20
100.59294274497609
 10
152.4534606793071
 20
101.06480558836459
 10
151.6310267889675
 20
103.05568541799289
 10
150.83557423499508
 20
102.64671691752035
 10
149.13680589018895
 20
102.5276114571727
 10
148.12337841779666
 20
103.7162933987368
 10
147.32118052973243
 20
103.90728698078946
 10
146.6234732114836
 20
103.6994300635073
 10
145.83364176925437
 20
102.79049316093042
 10
144.93482286781517
 20
102.68038147937185
 10
143.72478070162705
 20
103.56683393497606
 10
142.6214775499516
 20
103.85444853040369
 10
141.75076420722826
 20
101.24449483832339
 10
139.75201482115952
 20
101.12201671092986
 10
138.54984221141183
 20
101.308513403588
 10
138.05549492105064
 20
100.80292388974047
 10
137.68924686982618
 20
97.79861658771988
 10
135.89610595634235
 20
97.17841850291926
 10
134.59281544382515
 20
97.46378465364964
 10
132.79517764094675
 20
97.24356129053248
 10
132.40082403100647
 20
96.73909599903361
 10
132.2098304489538
 20
95.9368981109694
 10
132.4289295897223
 20
94.23925398851189
 10
132.04019709152516
 20
93.23482029490866
 10
129.04151090124773
 20
93.10109994402879
 10
127.93933197192094
 20
93.28872085903555
 10
127.64384782005284
 20
92.88537347030618
 10
127.55397214076967
 20
91.98430612416972
 10
128.16292800208396
 20
91.19110201489458
 10
128.5786418366483
 20
89.79568737839695
 10
127.99217042230671
 20
88.58901787925473
 10
126.19790528647425
 20
88.06881347487497
 10
125.3047074967782
 20
87.45873339121206
 10
125.8192907894148
 20
86.16443665748393
 10
127.23831409523373
 20
84.48028320321004
 10
127.45628901365362
 20
82.88263276117341
 10
126.26985551678679
 20
81.66921792793937
 10
124.47783882565159
 20
80.9490261627179
 10
124.08348521571129
 20
80.44456087121901
 10
125.52049607910836
 20
77.16050853021122
 10
125.63622887241009
 20
75.76172122666767
 10
124.84527320783221
 20
74.95277800451166
 10
122.64990912796763
 20
74.52807039115825
 10
121.6488481014103
 20
74.61682184809278
 10
119.95570086834735
 20
73.9977479856408
 10
119.46135357798616
 20
73.49215847179327
 10
118.98611806755177
 20
71.286676390791
 10
118.30077719513793
 20
69.97888898887928
 10
117.70306355730997
 20
69.77215629394573
 10
116.20203412864832
 20
69.85528663913709
 10
115.0908614205324
 20
70.84285699751081
 10
113.58421088012759
 20
71.42595574480652
 10
111.58321304936155
 20
71.50346497825471
 10
108.8923774567872
 20
70.67316153147466
 10
106.78913750090302
 20
70.94953390341595
 10
105.37910797387318
 20
71.8337379143229
 10
102.75116672421476
 20
74.30435014378016
 10
97.04815427317932
 20
74.54025051117064
  0
LWPOLYLINE
  5
34
330
17
100
AcDbEntity
  8
TOPPERS_CUT
100
AcDbPolyline
 90
155
 70
1
 10
90.65043451929584
 20
127.67168359885208
 10
90.5313290589482
 20
129.37045194365822
 10
91.30766983299384
 20
131.47931301128554
 10
92.68509691191333
 20
133.4949257325838
 10
93.0715809654132
 20
134.69934678702873
 10
94.05690287908965
 20
136.01050685598636
 10
94.44563537728679
 20
137.01494054958957
 10
95.23546681951603
 20
137.92387745216647
 10
95.6219508730159
 20
139.12829850661143
 10
95.20511281610293
 20
140.62370682352991
 10
93.88945585775076
 20
142.00900345888982
 10
92.88614638649618
 20
142.29774227666613
 10
92.2873085263196
 20
142.19100326215343
 10
90.40091926650669
 20
140.96971887247898
 10
89.69309394712018
 20
141.66180507898463
 10
89.18075909918086
 20
142.756114451871
 10
89.06839897292502
 20
143.85492071415194
 10
89.35488934600403
 20
145.05821754624827
 10
90.3345901479373
 20
146.86934601731025
 10
91.42327840908054
 20
147.8816492673539
 10
93.61189715485331
 20
148.90631896323254
 10
94.30285913901032
 20
149.71413796303992
 10
93.98713898486685
 20
151.1106768218862
 10
92.76585459519238
 20
152.99706608169907
 10
91.12885637095357
 20
156.2788699780096
 10
91.10412347928363
 20
158.47873094726873
 10
91.6860980042307
 20
160.08537516809443
 10
92.67029569555851
 20
161.49652891747292
 10
94.05559233091844
 20
162.8121858758251
 10
96.7453037011442
 20
163.74248300302602
 10
97.34751422836668
 20
163.54924097627605
 10
99.84510779419114
 20
163.77733389583366
 10
100.4405729873218
 20
164.18405395160892
 10
100.72481491570355
 20
165.587338144547
 10
100.60458523300727
 20
167.386100169774
 10
101.19330509204615
 20
168.39278230807452
 10
99.17094703665609
 20
170.37017146951922
 10
98.85072999311808
 20
172.16668505004893
 10
98.4406372702969
 20
173.06213128444222
 10
98.21591701778523
 20
175.25974380900408
 10
98.38667459756249
 20
177.86182794464392
 10
99.05177946770092
 20
180.9695015941313
 10
100.22359807403551
 20
183.48283427283658
 10
101.51452214071773
 20
184.29739860673578
 10
105.71762938544012
 20
184.0446349041158
 10
106.40521870255125
 20
185.1524349451858
 10
107.11529246663501
 20
184.26036137783842
 10
107.41302506320037
 20
184.46372140572606
 10
107.30291338164179
 20
185.36254030716523
 10
106.79170275605111
 20
186.35685599963077
 10
106.65798240517123
 20
189.3555421899082
 10
107.24895070890736
 20
190.16223696736694
 10
108.84098003920083
 20
190.88018028789116
 10
111.23520725755853
 20
191.40713002636272
 10
112.04077781266862
 20
190.9161554030474
 10
112.94072093645646
 20
190.92627340418514
 10
114.65185572709758
 20
189.9454483799032
 10
115.16194213033961
 20
189.05112636785856
 10
115.969761130147
 20
188.36016438370157
 10
117.09105183940059
 20
186.47265090154002
 10
117.78763493530077
 20
186.78050149924306
 10
118.58983282336499
 20
186.5895079171904
 10
119.28754014161382
 20
186.79736483447257
 10
120.38859484859199
 20
186.70973759988667
 10
121.08405372214354
 20
187.11758187801058
 10
121.98849373532589
 20
186.72772515746482
 10
122.4839652480357
 20
187.13332099089146
 10
123.16593345340364
 20
188.7410894340658
 10
125.2556827411042
 20
189.6646412271749
 10
127.65440684885641
 20
189.791616243963
 10
129.9587583879309
 20
189.4174986362981
 10
130.96319208153415
 20
189.02876613810096
 10
132.94395391002473
 20
190.7511431522284
 10
133.64053700592493
 20
191.05899374993143
 10
137.54029054233882
 20
191.10283842152813
 10
139.34917056870353
 20
190.3231249804366
 10
140.77044231921974
 20
188.43898416532096
 10
141.56258431475376
 20
180.24737192725019
 10
142.58500556593512
 20
178.25874054231912
 10
143.4737064662366
 20
179.2687953476655
 10
143.9725506459923
 20
179.37441013982954
 10
144.9623694490633
 20
180.2855954871037
 10
148.24867023476835
 20
181.52261898965904
 10
150.14855016276485
 20
181.54397921428307
 10
151.7529459388933
 20
181.16199205017773
 10
153.25959647929815
 20
180.57889330288202
 10
154.87523447891292
 20
179.196969334568
 10
155.48531456257584
 20
178.30377154487198
 10
156.41111480038222
 20
176.01403489632972
 10
157.82564121680664
 20
174.72985616373927
 10
159.0469256064811
 20
172.8434669039264
 10
159.25703096846053
 20
171.94577222483582
 10
159.17727329031507
 20
170.14476175491157
 10
158.2896966123622
 20
169.03471326914433
 10
156.678555502142
 20
170.01666251577487
 10
155.78198504540006
 20
169.70656347337453
 10
155.18989251931526
 20
168.9998623763367
 10
154.70341478539456
 20
167.7943170995431
 10
154.76075012517487
 20
162.69463939807878
 10
154.2843903923918
 20
160.58915099749734
 10
153.11032334135996
 20
158.27580567963378
 10
150.83407736100128
 20
156.15008127677694
 10
149.24204803070782
 20
155.43213795625272
 10
146.94893871511965
 20
154.80631875970894
 10
143.84463773267817
 20
155.17144258858477
 10
141.93688824824125
 20
155.8500381269068
 10
140.32687136036964
 20
156.73199369311652
 10
137.8966690268557
 20
159.40484172811273
 10
136.19790068204955
 20
159.28573626776512
 10
132.81048199357497
 20
158.147582223282
 10
131.40832202298554
 20
158.33183047124288
 10
130.61062102431586
 20
158.12284933161206
 10
130.12189484569785
 20
157.1172914156602
 10
130.92971384550523
 20
156.4263294315032
 10
131.75327195819347
 20
154.335455921454
 10
131.77463218281753
 20
152.43557599345752
 10
131.38814812931764
 20
151.23115493901258
 10
130.8881797272133
 20
151.2255338272694
 10
129.8803733665642
 20
151.91424736672914
 10
128.98043024277638
 20
151.90412936559142
 10
128.18947457819849
 20
151.0951861434354
 10
127.70074839958049
 20
150.08962822748356
 10
128.11308956709894
 20
148.99419463224854
 10
128.12095912353936
 20
148.29423886930243
 10
127.73784773708539
 20
146.7898367735949
 10
127.56371749026223
 20
144.48773367921763
 10
126.59413468946666
 20
141.77666208436784
 10
125.1167139301263
 20
139.75992514072095
 10
123.73029307241772
 20
138.54426186278965
 10
121.64504067411174
 20
137.22073534799705
 10
120.3473712733377
 20
137.0061330966231
 10
119.55191871936529
 20
136.59716459615055
 10
118.76096305478741
 20
135.78822137399453
 10
116.77458011455363
 20
134.56581276197144
 10
114.98143920106979
 20
133.9456146771708
 10
114.28148343812373
 20
133.93774512073037
 10
113.38716142607907
 20
133.42765871748833
 10
112.78719934355385
 20
133.4209133833965
 10
111.80637431927194
 20
131.7097785927554
 10
109.62450090759096
 20
130.0851468143516
 10
108.62119143633637
 20
130.37388563212784
 10
107.41114927014826
 20
131.26033808773207
 10
106.90331131160346
 20
131.954672738935
 10
103.81699788674014
 20
130.7198976810769
 10
102.91480631825505
 20
130.90976704078093
 10
102.61032838759793
 20
131.30636909541852
 10
102.1889934412904
 20
133.2017521340205
 10
101.28230498341078
 20
133.791596215408
 10
100.38123763727432
 20
133.88147189469117
 10
97.901631629028
 20
132.05348008839968
 10
97.11180018679876
 20
131.1445431858228
 10
96.11748449433324
 20
130.6333325602321
 10
94.43108259536208
 20
129.41429661525493
 10
93.8389900692773
 20
128.70759551821703
 10
92.25033340602974
 20
127.68967115643022
  0
LWPOLYLINE
  5
35
330
17
100
AcDbEntity
  8
TOPPERS_CUT
100
AcDbPolyline
 90
104
 70
1
 10
35.78875486104653
 20
123.95468143640528
 10
34.060756735175914
 20
126.43541166700022
 10
32.355243056277985
 20
126.9162682891778
 10
32.249628264113944
 20
127.41511246893351
 10
31.745162972615066
 20
127.80946607887381
 10
31.047455654366253
 20
127.60160916159164
 10
29.956518948525762
 20
126.78929327238973
 10
29.154321060461548
 20
126.9802868544424
 10
29.141954614626577
 20
128.08021733907194
 10
28.830731349877635
 20
129.07678147623471
 10
28.426259738799626
 20
129.47225930852366
 10
27.32857769886734
 20
129.25990550184696
 10
27.602701626111372
 20
131.56313281857285
 10
24.9702634870584
 20
134.43371976971355
 10
23.337762152214125
 20
137.3155489443406
 10
22.500713371342265
 20
140.60634661944022
 10
22.659104505284557
 20
144.30836123970963
 10
22.146769657345246
 20
145.40267061259604
 10
20.023293699185693
 20
147.47892923211296
 10
19.408716726128244
 20
148.77210174349244
 10
19.195238697102905
 20
149.96977746384562
 10
19.57722586120824
 20
151.57417323997404
 10
20.855783482055493
 20
153.48866805850278
 10
21.142273855134498
 20
154.6919648905991
 10
19.015425229929047
 20
157.06820455137864
 10
18.703077742831468
 20
158.1647623689623
 10
18.882829101397803
 20
159.96689706123522
 10
19.87039945977152
 20
161.0780697693511
 10
20.358001416040896
 20
162.18362136572384
 10
20.43888331653499
 20
163.88463815522724
 10
19.932169580338844
 20
164.47897912600928
 10
18.623257956078483
 20
165.264313678844
 10
18.009805205369666
 20
166.45749250980265
 10
18.89850610567115
 20
167.46754731514903
 10
20.196175506445176
 20
167.682149566523
 10
20.586032226990945
 20
168.58658957970533
 10
19.9714552539335
 20
169.87976209108484
 10
16.419962211165945
 20
174.44012360824263
 10
13.874027084350246
 20
178.51175894678238
 10
12.128041400901495
 20
182.59238806411125
 10
11.903321148389818
 20
184.79000058867308
 10
12.895388396158069
 20
185.50119857510552
 10
14.177318684051226
 20
187.11571235237165
 10
16.163701624284997
 20
188.33812096439473
 10
17.756855176927097
 20
188.9560706044981
 10
20.952156061000363
 20
189.39202044133785
 10
22.741924307438296
 20
190.31219956740105
 10
24.4361957628499
 20
190.8312797494322
 10
26.93266510632572
 20
191.15936634941062
 10
30.53581026852289
 20
190.89985731269886
 10
32.527814320499836
 20
191.62229752261757
 10
35.12315312204788
 20
192.05150202536555
 10
38.52406247870606
 20
191.98973190479822
 10
42.03395929457417
 20
191.12913656321257
 10
47.333624356880215
 20
191.18872034769015
 10
49.038013813429515
 20
190.80785740593345
 10
51.24911700617497
 20
189.8326534933947
 10
55.35897590456828
 20
188.97880348590087
 10
57.57345176435963
 20
187.7036185320995
 10
59.900287750406825
 20
185.32962731601725
 10
60.01377209901129
 20
184.13082737331544
 10
58.95656206362982
 20
180.31870107148745
 10
57.29601727867723
 20
176.79981047683026
 10
53.167108708964655
 20
170.45299127167294
 10
52.87949411353702
 20
169.34968811999747
 10
52.58288573932032
 20
169.04633441168897
 10
53.2929595034041
 20
168.1542608443416
 10
54.69511947399353
 20
167.97001259638074
 10
55.10183952976881
 20
167.37454740325003
 10
55.20970276663011
 20
166.6757158626526
 10
54.025517714460555
 20
165.26231366857684
 10
52.93120834157418
 20
164.74997882063752
 10
52.63797263440337
 20
164.14664407106642
 10
53.67388455376833
 20
160.95808852108493
 10
54.98841728977186
 20
159.67278556614588
 10
55.499627915362545
 20
158.67846987368034
 10
55.32437344619075
 20
156.47636045972396
 10
54.53903889335603
 20
155.16744883546363
 10
53.05487279992387
 20
153.75067397434196
 10
52.762761315101706
 20
153.04734554434998
 10
52.8739972190089
 20
152.0485329624899
 10
53.59081631718449
 20
150.55649731261732
 10
53.90541224897934
 20
149.2599521341919
 10
53.71779133397257
 20
148.15777320486512
 10
52.83808421246016
 20
146.34776895615178
 10
51.353918119027995
 20
144.93099409503012
 10
50.37084465004882
 20
143.41984666523072
 10
50.02258415640249
 20
138.81564047647623
 10
49.54172753422491
 20
137.1101267975783
 10
48.562026732291635
 20
135.2989983265163
 10
46.78799759873456
 20
132.97890767456093
 10
44.903856783618934
 20
131.55763592404475
 10
44.709490534520356
 20
131.05541907724313
 10
44.729726536795766
 20
129.2555328296675
 10
43.82865919065931
 20
129.34540850895064
 10
43.532050816442606
 20
129.04205480064212
 10
43.05231841661367
 20
127.23654744132332
 10
42.26361119673306
 20
126.22761685832556
 10
40.65022164181555
 20
127.40955346579786
 10
39.95026587886947
 20
127.40168390935742
 10
39.06156497856799
 20
126.39162910401103
 10
38.15937341008291
 20
126.58149846371506
 10
36.87294623279521
 20
125.3669594081324
 10
36.486462179295344
 20
124.16253835368745
  0
LWPOLYLINE
  5
36
330
17
100
AcDbEntity
  8
TOPPERS_CUT
100
AcDbPolyline
 90
81
 70
1
 10
-2.28703612701458
 20
219.43265869102396
 10
-2.4949551529042777
 20
229.03092778907876
 10
-3.205028916988062
 20
229.92300135642614
 10
-3.6162458621578737
 20
230.91844127124028
 10
-3.6488483102682494
 20
233.8182580034455
 10
-3.362357937189247
 20
235.02155483554185
 10
-2.0703096481583882
 20
235.7361254890201
 10
1.4294691665720187
 20
235.7754732712223
 10
3.2259827471017557
 20
236.0956903147603
 10
3.6192121346934285
 20
236.70014928668007
 10
4.095571867476467
 20
238.80563768726148
 10
4.878657975613912
 20
240.3145366723636
 10
6.657183998565512
 20
242.23465260263546
 10
8.048101745668603
 20
243.0503411588833
 10
10.538949977401254
 20
243.87839616096608
 10
12.838804627081236
 20
243.90425327498465
 10
16.250956207225745
 20
242.84254635020866
 10
17.86434576214325
 20
241.66060974273637
 10
18.87664901218691
 20
240.57192148159317
 10
20.210293528117212
 20
237.5867259594993
 10
21.121478875391364
 20
236.59690715642833
 10
28.319899643345288
 20
236.77784484595082
 10
30.628748071814336
 20
236.00375251660245
 10
32.02865959770649
 20
236.0194916294833
 10
33.52181946992773
 20
236.63631704723807
 10
43.6223054147841
 20
236.64986982402917
 10
46.228886439818496
 20
236.07913752256846
 10
46.824351632949174
 20
236.4858575783437
 10
47.30071136573221
 20
238.59134597892512
 10
49.462348775137784
 20
242.01586400490459
 10
50.15780764868933
 20
242.4237082830285
 10
50.848769632846334
 20
243.23152728283588
 10
54.039573627525066
 20
244.06745184135912
 10
55.938329333172945
 20
244.18880574640403
 10
59.44822614904105
 20
243.3282104048184
 10
61.16160938437942
 20
242.14739801969478
 10
62.785116940434634
 20
240.06551828843462
 10
63.922146762569106
 20
236.77809328038092
 10
64.42886049876525
 20
236.1837523095989
 10
66.44222477536623
 20
235.00631259152115
 10
68.94543945293384
 20
234.73443710897436
 10
69.55214686955085
 20
234.14122036054096
 10
69.77349445501663
 20
232.24358887724173
 10
69.5903704294044
 20
230.74143522623143
 10
68.10732855832087
 20
229.22466668468888
 10
67.73545939535325
 20
226.72032778477265
 10
68.14667634052304
 20
225.72488786995845
 10
69.45671218713206
 20
224.83955963670292
 10
71.58131236764024
 20
222.66330733676506
 10
72.19588934069768
 20
221.3701348253856
 10
72.3206159127885
 20
219.1713980784751
 10
70.75225736042385
 20
207.45302568930668
 10
71.66231848534939
 20
206.56320056665658
 10
71.86792695793429
 20
206.0654806092495
 10
71.8039083926697
 20
202.86455861343308
 10
70.91071060297368
 20
202.25447852977015
 10
67.4120560105919
 20
202.11513706714712
 10
66.80984548336943
 20
202.30837909389703
 10
36.512884538194825
 20
201.86774604184018
 10
35.51744462338066
 20
201.45652909667035
 10
34.627619500730546
 20
200.54646797174485
 10
32.86258414596256
 20
197.4264278764225
 10
31.475039065905367
 20
196.3107582789121
 10
27.57978241888602
 20
195.8669388856319
 10
20.179125845393095
 20
195.88374011225386
 10
19.172443707092604
 20
196.47245997129275
 10
18.963462567461796
 20
197.27016096996243
 10
18.946599232232295
 20
198.77006617627546
 10
20.03416327102688
 20
199.88236310674
 10
20.027417936935077
 20
200.4823251892652
 10
19.520704200738933
 20
201.07666616004724
 10
15.420963303483314
 20
201.03057304375326
 10
13.716573846934011
 20
201.41143598550997
 10
12.107681181411039
 20
202.19339787129877
 10
11.094253709018748
 20
203.38207981286286
 10
6.768606228295292
 20
214.5341546813576
 10
5.960787228487906
 20
215.22511666551458
 10
1.3520841503388739
 20
215.9733518808444
 10
-0.5567895564467022
 20
216.7519410995873
 10
-1.3634843339054543
 20
217.34290940332343
 10
-1.974688639917003
 20
218.33610087344033
  0
LWPOLYLINE
  5
37
330
17
100
AcDbEntity
  8
TOPPERS_CUT
100
AcDbPolyline
 90
144
 70
1
 10
110.29591635156854
 20
194.8967908399554
 10
107.88145313093544
 20
196.1697273490595
 10
104.74567392273222
 20
199.33467422971967
 10
102.3300864797505
 20
200.70760441924463
 10
100.81444216055661
 20
202.0906526099073
 10
99.59315777088213
 20
203.97704186972015
 10
99.27743761673867
 20
205.37358072856642
 10
99.26169850385779
 20
206.7734922544586
 10
99.54818887693679
 20
207.97678908655493
 10
100.43014444314647
 20
209.58680597442654
 10
101.51658425959243
 20
210.79909658531193
 10
102.19855246496037
 20
212.40686502848627
 10
101.67834806058063
 20
214.2011301643187
 10
100.36269110222845
 20
215.58642679967866
 10
99.35600896392796
 20
216.1751466587175
 10
98.26394803573885
 20
215.46282444993648
 10
97.87184287049581
 20
214.75837179759588
 10
97.01012330656154
 20
211.3484686621486
 10
96.31691287770725
 20
210.74063702318298
 10
95.4124728645249
 20
211.13049374372878
 10
93.92493410404684
 20
210.01369992386967
 10
92.92724574453543
 20
209.80247033954166
 10
92.12392363412258
 20
210.09345760201512
 10
91.01162670365804
 20
211.18102164080975
 10
90.69590654951456
 20
212.57756049965602
 10
90.8824032421727
 20
213.7797331094037
 10
92.468811460723
 20
214.99764483203225
 10
93.75186597096479
 20
216.51216492887752
 10
94.8439268991539
 20
217.22448713765857
 10
96.12360874234979
 20
219.03898827576646
 10
96.9055706281386
 20
220.64788094128943
 10
98.1919978054263
 20
221.8624199968721
 10
99.07507759398462
 20
223.3724432043228
 10
99.16495327326777
 20
224.2735105504593
 10
98.55262474490759
 20
225.36669570099698
 10
97.55156371835027
 20
225.4554471579316
 10
96.95609852521959
 20
225.04872710215628
 10
96.1449068583663
 20
226.0396701275759
 10
96.42914878674804
 20
227.442954320514
 10
97.41671914512176
 20
228.55412702862986
 10
96.79876950501841
 20
230.14728058127199
 10
96.77516083569711
 20
232.2471478701102
 10
98.45032051118193
 20
234.46612061929605
 10
99.84573514767956
 20
234.8818344538604
 10
102.14334135266226
 20
235.10767892872073
 10
103.13878126747643
 20
235.51889587389056
 10
103.63312855783761
 20
236.02448538773805
 10
104.31509676320555
 20
237.6322538309124
 10
105.89475964766402
 20
239.45012763606618
 10
106.07226256153311
 20
241.45224968918083
 10
106.55311918371069
 20
243.15776336807875
 10
108.1170429552883
 20
246.3755486991247
 10
109.99218999161485
 20
248.5967698930079
 10
113.06613697064321
 20
250.93147543549543
 10
115.35474939683688
 20
251.95726935372272
 10
119.73985644482286
 20
253.30665298253388
 10
124.33619307713693
 20
253.65834825183364
 10
128.74153612739832
 20
253.2078456330692
 10
133.45697822006002
 20
251.86077255756283
 10
137.685942578801
 20
249.30815420526287
 10
140.21051748099265
 20
247.13639879471958
 10
143.05418520437368
 20
243.26812348406742
 10
144.38782972030398
 20
240.2829279619736
 10
145.3214995145508
 20
237.29323555048524
 10
146.13269118140408
 20
236.30229252506564
 10
148.14155856861052
 20
235.52482752867135
 10
151.84357318887996
 20
235.36643639472905
 10
154.35016053349347
 20
234.79457987091968
 10
156.66350585135706
 20
233.62051281988784
 10
158.1802743928996
 20
232.13747094880432
 10
159.29594399041002
 20
230.74992586874708
 10
159.9105209634675
 20
229.4567533573676
 10
160.64307917452393
 20
226.56480618160285
 10
160.6790542896802
 20
223.36500840813505
 10
160.01619786423902
 20
220.05734739780593
 10
159.4286022275488
 20
218.9506715790846
 10
159.1286211862862
 20
218.9472989120387
 10
158.5219137696692
 20
219.5405156604721
 10
156.886039767779
 20
222.72232587636177
 10
156.279332351162
 20
223.31554262479517
 10
150.25048174484536
 20
225.8479249748197
 10
149.75163756508965
 20
225.74231018265573
 10
149.3550355104521
 20
225.43783225199854
 10
149.28314738874707
 20
222.93686601912822
 10
149.00340234975988
 20
221.13360710450667
 10
148.12819211764196
 20
218.92362813410986
 10
147.3608451223854
 20
216.0148176231156
 10
147.38670223640398
 20
213.7149629734356
 10
148.00577609885596
 20
212.0218157403727
 10
148.0203909893882
 20
210.72189789490136
 10
144.69699086617825
 20
212.7846658462347
 10
142.97686229674804
 20
214.56544031388353
 10
141.3477336289497
 20
217.147288447248
 10
140.10733745934846
 20
220.7335702742157
 10
139.9747413308172
 20
223.63226278407222
 10
140.2544863698044
 20
225.43552169869378
 10
141.02408180975823
 20
228.1443448488463
 10
142.1026520697638
 20
230.0565912226778
 10
142.77562649634262
 20
232.46430910921904
 10
142.45990634219916
 20
233.86084796806534
 10
141.94757149425985
 20
234.9551573409517
 10
141.13862827210383
 20
235.74611300552957
 10
140.4240576186255
 20
237.03816129456044
 10
138.09947007727558
 20
239.21216514980097
 10
135.9849878979051
 20
240.488474325951
 10
133.67613946943604
 20
241.2625666552993
 10
131.902110335879
 20
238.94247600334398
 10
131.20440301763017
 20
238.73461908606177
 10
129.4202558829354
 20
237.31447155789425
 10
129.4270012170272
 20
236.714509475369
 10
131.13926023001696
 20
235.63369077066622
 10
132.54366864530363
 20
235.24945516186364
 10
134.5457906984183
 20
235.07195224799457
 10
136.1591802533358
 20
233.89001564052228
 10
136.17379514386803
 20
232.590097795051
 10
135.4749636032706
 20
232.48223455818965
 10
134.7873742861595
 20
231.3744345171197
 10
135.09072799446798
 20
231.077826142903
 10
135.9221556635967
 20
228.2869968699077
 10
136.32662727467468
 20
227.89151903761882
 10
137.12657671804163
 20
227.90051281640785
 10
137.63216623188913
 20
227.4061655260467
 10
138.44673056578833
 20
226.11524145936446
 10
138.6647054842082
 20
224.51759101732782
 10
137.49288687787362
 20
222.0042583386225
 10
135.12339255118587
 20
219.2774476308918
 10
134.43805167877207
 20
217.9696602289801
 10
134.45828768104747
 20
216.16977398140443
 10
135.60655972666825
 20
211.88241216914213
 10
135.62342306189777
 20
210.38250696282907
 10
134.56171613712175
 20
206.97035538268452
 10
132.8865564616369
 20
204.75138263349862
 10
131.40014192350748
 20
203.53459513321872
 10
130.6260495941591
 20
201.22574670474967
 10
129.93958449939663
 20
200.0179529832588
 10
128.75315100252982
 20
198.8045381500248
 10
126.76564383994739
 20
197.68212321842253
 10
124.77026712092456
 20
197.2596640497664
 10
123.48383994363687
 20
196.04512499418374
 10
121.99292851611293
 20
195.2283122155873
 10
120.29865706070129
 20
194.70923203355616
 10
118.59876449354654
 20
194.6901202536294
 10
115.50458151224277
 20
194.15530095871742
 10
112.60364055768893
 20
194.2226921910279
  0
ENDSEC
  0
SECTION
  2
OBJECTS
  0
DICTIONARY
  5
A
330
0
100
AcDbDictionary
281
1
  3
ACAD_COLOR
350
B
  3
ACAD_GROUP
350
C
  3
ACAD_LAYOUT
350
D
  3
ACAD_MATERIAL
350
E
  3
ACAD_MLEADERSTYLE
350
F
  3
ACAD_MLINESTYLE
350
10
  3
ACAD_PLOTSETTINGS
350
11
  3
ACAD_PLOTSTYLENAME
350
12
  3
ACAD_SCALELIST
350
14
  3
ACAD_TABLESTYLE
350
15
  3
ACAD_VISUALSTYLE
350
16
  3
EZDXF_META
350
2D
  0
DICTIONARY
  5
B
330
A
100
AcDbDictionary
281
1
  0
DICTIONARY
  5
C
330
A
100
AcDbDictionary
281
1
  0
DICTIONARY
  5
D
330
A
100
AcDbDictionary
281
1
  3
Model
350
1A
  3
Layout1
350
1E
  0
DICTIONARY
  5
E
330
A
100
AcDbDictionary
281
1
  3
ByBlock
350
1F
  3
ByLayer
350
20
  3
Global
350
21
  0
DICTIONARY
  5
F
330
A
100
AcDbDictionary
281
1
  3
Standard
350
2C
  0
DICTIONARY
  5
10
330
A
100
AcDbDictionary
281
1
  3
Standard
350
22
  0
DICTIONARY
  5
11
330
A
100
AcDbDictionary
281
1
  0
ACDBDICTIONARYWDFLT
  5
12
330
A
100
AcDbDictionary
281
1
  3
Normal
350
13
100
AcDbDictionaryWithDefault
340
13
  0
ACDBPLACEHOLDER
  5
13
330
12
  0
DICTIONARY
  5
14
330
A
100
AcDbDictionary
281
1
  0
DICTIONARY
  5
15
330
A
100
AcDbDictionary
281
1
  0
DICTIONARY
  5
16
330
A
100
AcDbDictionary
281
1
  0
LAYOUT
  5
1A
330
D
100
AcDbPlotSettings
  1

  4
A3
  6

 40
7.5
 41
20.0
 42
7.5
 43
20.0
 44
420.0
 45
297.0
 46
0.0
 47
0.0
 48
0.0
 49
0.0
140
0.0
141
0.0
142
1.0
143
1.0
 70
1024
 72
1
 73
0
 74
5
  7

 75
16
 76
0
 77
2
 78
300
147
1.0
148
0.0
149
0.0
100
AcDbLayout
  1
Model
 70
1
 71
0
 10
0.0
 20
0.0
 11
420.0
 21
297.0
 12
0.0
 22
0.0
 32
0.0
 14
1e+20
 24
1e+20
 34
1e+20
 15
-1e+20
 25
-1e+20
 35
-1e+20
146
0.0
 13
0.0
 23
0.0
 33
0.0
 16
1.0
 26
0.0
 36
0.0
 17
0.0
 27
1.0
 37
0.0
 76
1
330
17
  0
LAYOUT
  5
1E
330
D
100
AcDbPlotSettings
  1

  4
A3
  6

 40
7.5
 41
20.0
 42
7.5
 43
20.0
 44
420.0
 45
297.0
 46
0.0
 47
0.0
 48
0.0
 49
0.0
140
0.0
141
0.0
142
1.0
143
1.0
 70
0
 72
1
 73
0
 74
5
  7

 75
16
 76
0
 77
2
 78
300
147
1.0
148
0.0
149
0.0
100
AcDbLayout
  1
Layout1
 70
1
 71
1
 10
0.0
 20
0.0
 11
420.0
 21
297.0
 12
0.0
 22
0.0
 32
0.0
 14
1e+20
 24
1e+20
 34
1e+20
 15
-1e+20
 25
-1e+20
 35
-1e+20
146
0.0
 13
0.0
 23
0.0
 33
0.0
 16
1.0
 26
0.0
 36
0.0
 17
0.0
 27
1.0
 37
0.0
 76
1
330
1B
  0
MATERIAL
  5
1F
102
{ACAD_REACTORS
330
E
102
}
330
E
100
AcDbMaterial
  1
ByBlock
  2

 70
0
 40
1.0
 71
1
 41
1.0
 91
-1023410177
 42
1.0
 72
1
  3

 73
1
 74
1
 75
1
 44
0.5
 73
0
 45
1.0
 46
1.0
 77
1
  4

 78
1
 79
1
170
1
 48
1.0
171
1
  6

172
1
173
1
174
1
140
1.0
141
1.0
175
1
  7

176
1
177
1
178
1
143
1.0
179
1
  8

270
1
271
1
272
1
145
1.0
146
1.0
273
1
  9

274
1
275
1
276
1
 42
1.0
 72
1
  3

 73
1
 74
1
 75
1
 94
63
  0
MATERIAL
  5
20
102
{ACAD_REACTORS
330
E
102
}
330
E
100
AcDbMaterial
  1
ByLayer
  2

 70
0
 40
1.0
 71
1
 41
1.0
 91
-1023410177
 42
1.0
 72
1
  3

 73
1
 74
1
 75
1
 44
0.5
 73
0
 45
1.0
 46
1.0
 77
1
  4

 78
1
 79
1
170
1
 48
1.0
171
1
  6

172
1
173
1
174
1
140
1.0
141
1.0
175
1
  7

176
1
177
1
178
1
143
1.0
179
1
  8

270
1
271
1
272
1
145
1.0
146
1.0
273
1
  9

274
1
275
1
276
1
 42
1.0
 72
1
  3

 73
1
 74
1
 75
1
 94
63
  0
MATERIAL
  5
21
102
{ACAD_REACTORS
330
E
102
}
330
E
100
AcDbMaterial
  1
Global
  2

 70
0
 40
1.0
 71
1
 41
1.0
 91
-1023410177
 42
1.0
 72
1
  3

 73
1
 74
1
 75
1
 44
0.5
 73
0
 45
1.0
 46
1.0
 77
1
  4

 78
1
 79
1
170
1
 48
1.0
171
1
  6

172
1
173
1
174
1
140
1.0
141
1.0
175
1
  7

176
1
177
1
178
1
143
1.0
179
1
  8

270
1
271
1
272
1
145
1.0
146
1.0
273
1
  9

274
1
275
1
276
1
 42
1.0
 72
1
  3

 73
1
 74
1
 75
1
 94
63
  0
MLINESTYLE
  5
22
102
{ACAD_REACTORS
330
10
102
}
330
10
100
AcDbMlineStyle
  2
Standard
 70
0
  3

 62
256
 51
90.0
 52
90.0
 71
2
 49
0.5
 62
256
  6
BYLAYER
 49
-0.5
 62
256
  6
BYLAYER
  0
MLEADERSTYLE
  5
2C
102
{ACAD_REACTORS
330
F
102
}
330
F
100
AcDbMLeaderStyle
179
2
170
2
171
1
172
0
 90
2
 40
0.0
 41
0.0
173
1
 91
-1056964608
 92
-2
290
1
 42
2.0
291
1
 43
8.0
  3
Standard
 44
4.0
300

342
29
174
1
175
1
176
0
178
1
 93
-1056964608
 45
4.0
292
0
297
0
 46
4.0
 94
-1056964608
 47
1.0
 49
1.0
140
1.0
294
1
141
0.0
177
0
142
1.0
295
0
296
0
143
3.75
271
0
272
9
273
9
  0
DICTIONARY
  5
2D
330
A
100
AcDbDictionary
280
1
281
1
  3
CREATED_BY_EZDXF
350
2E
  3
WRITTEN_BY_EZDXF
350
3A
  0
DICTIONARYVAR
  5
2E
330
2D
100
DictionaryVariables
280
0
  1
1.4.4 @ 2026-08-27T20:12:54.495909+00:00
  0
DICTIONARYVAR
  5
3A
330
2D
100
DictionaryVariables
280
0
  1
1.4.4 @ 2026-08-27T20:12:54.509371+00:00
  0
ENDSEC
  0
EOF
